<svg width="994" height="336" viewBox="0 0 994 336" fill="none" xmlns="http://www.w3.org/2000/svg">
<g opacity="0.3">
<path fill-rule="evenodd" clip-rule="evenodd" d="M151.463 -149C-36.2862 -148.643 -188.376 3.6671 -188.376 191.5C-188.376 379.332 -36.2862 531.643 151.463 532V-149Z" fill="#EEEEEE"/>
<path fill-rule="evenodd" clip-rule="evenodd" d="M514.273 -149C326.524 -148.643 174.435 3.66742 174.435 191.5C174.435 379.332 326.524 531.642 514.273 532V-149Z" fill="#EEEEEE"/>
<path fill-rule="evenodd" clip-rule="evenodd" d="M875.171 -149C687.422 -148.643 535.332 3.6671 535.332 191.5C535.332 379.332 687.422 531.643 875.171 532V-149Z" fill="#EEEEEE"/>
<path fill-rule="evenodd" clip-rule="evenodd" d="M1236.07 -149C1048.32 -148.643 896.229 3.6671 896.229 191.5C896.229 379.332 1048.32 531.643 1236.07 532V-149Z" fill="#EEEEEE"/>
</g>
</svg>
