<svg width="233" height="277" viewBox="0 0 233 277" fill="none" xmlns="http://www.w3.org/2000/svg">
<path d="M5.88188 195.713V189.521H32.5219V195.713H22.7779V223.121H15.5779V195.713H5.88188ZM43.7003 223.409C35.4922 223.409 30.5483 218.465 30.5483 210.833C30.5483 203.153 35.5883 198.161 43.2203 198.161C50.6123 198.161 55.6042 202.769 55.7003 210.017C55.7003 210.737 55.6523 211.553 55.5083 212.321H37.6043V212.657C37.7483 216.161 40.0043 218.273 43.4123 218.273C46.1483 218.273 48.0683 217.073 48.6443 214.769H55.3163C54.5483 219.569 50.2763 223.409 43.7003 223.409ZM37.7483 207.905H48.8843C48.4043 204.881 46.3403 203.201 43.2682 203.201C40.3403 203.201 38.1323 204.977 37.7483 207.905ZM88.9189 198.161C94.0069 198.161 98.0389 201.041 98.0389 208.961V223.121H91.2709V209.345C91.2709 205.649 89.9269 203.729 86.9989 203.729C84.0709 203.729 82.1029 205.889 82.1029 209.633V223.121H75.3349V209.345C75.3349 205.649 73.9909 203.729 71.0149 203.729C68.0869 203.729 66.1669 205.985 66.1669 209.681V223.121H59.3989V198.449H65.3029L65.9269 201.521C67.4149 199.601 69.5749 198.209 73.1749 198.161C76.1989 198.113 79.0309 199.217 80.5669 202.337C82.2949 199.697 85.1749 198.161 88.9189 198.161ZM116.45 198.161C123.122 198.113 127.922 203.057 127.922 210.833C127.922 218.513 123.122 223.409 116.498 223.409C113.09 223.409 110.642 222.017 109.058 220.001V232.721H102.29V198.449H108.194L108.866 201.857C110.45 199.745 112.946 198.161 116.45 198.161ZM114.962 217.889C118.658 217.889 121.058 214.961 121.058 210.737C121.058 206.561 118.658 203.681 114.962 203.681C111.266 203.681 108.962 206.561 108.962 210.737C108.962 214.961 111.266 217.889 114.962 217.889ZM131.68 223.121V189.521H138.448V223.121H131.68ZM166.685 217.409H167.453V223.121H163.997C160.493 223.121 159.389 221.441 159.437 219.089C157.709 221.825 155.213 223.409 151.373 223.409C146.045 223.409 142.205 220.865 142.205 216.161C142.205 210.929 146.141 207.953 153.533 207.953H158.429V206.753C158.429 204.545 156.845 203.105 154.013 203.105C151.373 203.105 149.597 204.305 149.309 206.129H142.781C143.261 201.329 147.677 198.161 154.205 198.161C161.117 198.161 165.101 201.233 165.101 207.137V215.873C165.101 217.169 165.629 217.409 166.685 217.409ZM158.429 212.945V212.465H153.484C150.653 212.465 149.021 213.617 149.021 215.681C149.021 217.409 150.413 218.513 152.669 218.513C156.221 218.513 158.381 216.305 158.429 212.945ZM171.847 216.065V204.161H167.767V198.449H171.847V191.537H178.615V198.449H184.279V204.161H178.615V214.961C178.615 216.689 179.287 217.409 181.063 217.409H184.423V223.121H178.903C174.199 223.121 171.847 220.769 171.847 216.065ZM199.372 223.409C191.164 223.409 186.22 218.465 186.22 210.833C186.22 203.153 191.26 198.161 198.892 198.161C206.284 198.161 211.276 202.769 211.372 210.017C211.372 210.737 211.324 211.553 211.18 212.321H193.276V212.657C193.42 216.161 195.676 218.273 199.084 218.273C201.82 218.273 203.74 217.073 204.316 214.769H210.988C210.22 219.569 205.948 223.409 199.372 223.409ZM193.42 207.905H204.556C204.076 204.881 202.012 203.201 198.94 203.201C196.012 203.201 193.804 204.977 193.42 207.905ZM4.98095 254.272V252.057H7.69846V250.373C7.69846 247.715 8.8209 246.444 11.627 246.444H14.3741V248.66H11.7747C10.5637 248.66 10.1206 249.162 10.1206 250.314V252.057H14.3741V254.272H10.1206V267.121H7.69846V254.272H4.98095ZM23.095 252.057H23.7743V254.42H22.5633C19.4027 254.42 18.5461 257.049 18.5461 259.441V267.121H16.124V252.057H18.2212L18.5461 254.331C19.255 253.179 20.407 252.057 23.095 252.057ZM31.9499 267.298C27.5488 267.298 24.4768 264.167 24.4768 259.589C24.4768 255.01 27.5488 251.879 31.9499 251.879C36.3511 251.879 39.4231 255.01 39.4231 259.589C39.4231 264.167 36.3511 267.298 31.9499 267.298ZM31.9499 265.142C34.9333 265.142 36.9419 262.809 36.9419 259.589C36.9419 256.369 34.9333 254.036 31.9499 254.036C28.9666 254.036 26.958 256.369 26.958 259.589C26.958 262.809 28.9666 265.142 31.9499 265.142ZM59.0078 251.879C62.1388 251.879 64.7086 253.681 64.7086 258.437V267.121H62.2865V258.585C62.2865 255.631 60.9868 254.095 58.7124 254.095C56.2016 254.095 54.6657 255.985 54.6657 259.057V267.121H52.2435V258.585C52.2435 255.631 50.9143 254.095 48.6103 254.095C46.1291 254.095 44.6227 256.162 44.6227 259.175V267.121H42.2006V252.057H44.2978L44.6227 254.124C45.4202 253.031 46.6904 251.879 49.0239 251.879C51.1211 251.879 52.9229 252.825 53.7795 254.745C54.6952 253.12 56.3198 251.879 59.0078 251.879ZM101.439 267.121H80.8952V233.521H88.0952V260.929H101.439V267.121ZM108.15 239.809C105.942 239.809 104.214 238.177 104.214 236.017C104.214 233.809 105.942 232.177 108.15 232.177C110.358 232.177 112.086 233.809 112.086 236.017C112.086 238.177 110.358 239.809 108.15 239.809ZM104.742 267.121V242.449H111.558V267.121H104.742ZM130.435 242.161C137.059 242.161 141.859 246.913 141.859 254.737C141.859 262.369 137.059 267.409 130.387 267.409C126.835 267.409 124.387 265.873 122.803 263.761L122.131 267.121H116.227V233.521H122.995V245.569C124.627 243.601 127.027 242.161 130.435 242.161ZM128.899 261.889C132.595 261.889 134.995 259.009 134.995 254.785C134.995 250.561 132.595 247.681 128.899 247.681C125.203 247.681 122.899 250.561 122.899 254.737C122.899 258.961 125.203 261.889 128.899 261.889ZM159.489 242.449H160.641V248.593H157.953C153.921 248.593 152.385 251.281 152.385 255.025V267.121H145.617V242.449H151.761L152.385 246.145C153.729 243.937 155.649 242.449 159.489 242.449ZM186.575 261.409H187.343V267.121H183.887C180.383 267.121 179.279 265.441 179.327 263.089C177.599 265.825 175.103 267.409 171.263 267.409C165.935 267.409 162.095 264.865 162.095 260.161C162.095 254.929 166.031 251.953 173.423 251.953H178.319V250.753C178.319 248.545 176.735 247.105 173.903 247.105C171.263 247.105 169.487 248.305 169.199 250.129H162.671C163.151 245.329 167.567 242.161 174.095 242.161C181.007 242.161 184.991 245.233 184.991 251.137V259.873C184.991 261.169 185.519 261.409 186.575 261.409ZM178.319 256.945V256.465H173.375C170.543 256.465 168.911 257.617 168.911 259.681C168.911 261.409 170.303 262.513 172.559 262.513C176.111 262.513 178.271 260.305 178.319 256.945ZM203.833 242.449H204.985V248.593H202.297C198.265 248.593 196.729 251.281 196.729 255.025V267.121H189.961V242.449H196.105L196.729 246.145C198.073 243.937 199.993 242.449 203.833 242.449ZM215.487 267.265L205.983 242.449H213.183L219.183 260.017L225.039 242.449H232.287L221.343 270.625C219.807 274.705 218.559 276.721 214.719 276.721H208.143V271.009H211.887C213.615 271.009 214.191 270.577 214.863 268.897L215.487 267.265Z" fill="white"/>
<path d="M115.061 97.8754C118.626 91.5027 116.315 83.9244 114.671 76.9562C113.064 70.1565 112.165 63.2086 111.988 56.2237C111.905 52.9151 112.042 49.4191 113.992 46.6023C115.901 43.8457 119.242 42.1771 122.478 40.7009C135.161 34.9151 150.203 30.2178 163.368 35.0762C172.524 38.4555 179.297 46.4887 180.388 55.2648C181.479 64.0409 176.844 73.1997 168.739 78.2821C164.253 81.0955 158.83 82.7349 154.892 86.1385C148.417 91.7361 147.778 101.843 153.508 108.053C157.748 112.649 164.376 114.781 170.125 117.806C178.928 122.439 186.057 129.554 190.228 137.869C192.638 142.675 193.953 148.606 190.651 152.971C185.228 160.139 172.517 157.51 164.657 152.44C156.797 147.37 149.128 140.296 139.434 140.685C133.501 140.924 128.27 144.004 123.124 146.645C113.267 151.68 102.789 155.391 91.9611 157.679C83.6371 159.448 74.8775 160.389 66.5466 158.647C58.2156 156.905 50.3463 152.108 47.1231 145.046C42.8183 135.614 48.0393 124.165 57.3058 118.206C72.7432 108.278 105.119 115.645 115.061 97.8754Z" fill="#F5F3E3" fill-opacity="0.4"/>
<path d="M91.9908 79.1533C91.3139 87.3435 87.9811 95.6806 81.0731 101.124C72.1631 108.145 59.2852 109.123 47.389 109.343C37.2743 109.531 29.8722 109.124 22.9787 106.185C16.3363 103.354 14.6286 100.488 14.1424 99.5772C11.3005 94.2516 13.5474 87.026 18.3634 83.6544C20.1748 82.3863 23.84 81.8842 31.096 80.9323C39.0619 79.887 42.3439 79.9878 47.8684 78.1673C53.804 76.2113 54.9202 74.4785 55.2632 73.8545C56.681 71.2743 55.1265 69.0006 53.7613 64.5657C52.6063 60.8129 49.8129 51.7382 53.7332 44.799C54.5122 43.4201 57.1399 39.3228 62.1547 37.7221C72.2378 34.5035 83.194 44.1803 83.9597 44.8741C96.2949 56.0524 92.4419 73.6948 91.9908 79.1533Z" fill="#F5F3E3" fill-opacity="0.4"/>
<path d="M191.534 159.641H30.0836C28.1616 159.641 26.6035 161.199 26.6035 163.121C26.6035 165.043 28.1616 166.601 30.0836 166.601H191.534C193.456 166.601 195.014 165.043 195.014 163.121C195.014 161.199 193.456 159.641 191.534 159.641Z" fill="#004751"/>
<path d="M154.232 129.36L146.267 132.726L145.974 132.847L132.46 138.556V159.723H86.2193L85.5631 143.155L85.551 142.844L85.3817 138.556L83.0983 137.588L82.7545 137.44L77.9646 135.411H77.9616L77.2328 135.1L75.2703 134.268L74.4841 133.935L68.8119 131.531L68.452 131.377L63.8285 129.418L63.375 129.224L63.4082 129.161L67.9064 120.243L68.2208 119.62L71.3324 113.455L71.4715 113.177L73.546 109.065L73.6941 108.774L74.6376 106.902C74.9429 106.297 75.2735 105.71 75.6292 105.139C75.6805 105.052 75.735 104.97 75.7896 104.885C78.315 100.933 82.0217 97.7853 86.4332 95.8284C86.5511 95.777 86.6691 95.7226 86.7902 95.6743C87.6169 95.3213 88.4618 95.0124 89.3212 94.7487C93.9775 93.3095 98.7577 92.3073 103.6 91.7552C107.987 91.2501 112.416 91.2167 116.811 91.6554C120.28 92.0069 123.702 92.7203 127.023 93.7841C130.52 94.9054 133.719 96.801 136.382 99.3298C136.469 99.4115 136.557 99.4962 136.642 99.581C137.674 100.594 138.612 101.698 139.445 102.88C139.505 102.968 139.566 103.052 139.623 103.14C140.23 104.029 140.775 104.958 141.253 105.922L141.946 107.171L142.1 107.452L146.116 114.703L146.811 115.961L150.794 123.149L150.948 123.43L153.213 127.522L153.367 127.799L154.232 129.36Z" fill="#FCB913"/>
<path d="M136.643 99.5806C136.293 99.6738 135.933 99.7196 135.572 99.7167C133.691 99.7167 132.747 98.6161 131.834 97.5483C130.927 96.487 130.071 95.4831 128.329 95.4831C126.588 95.4831 125.729 96.487 124.822 97.5483C123.909 98.6158 122.965 99.7167 121.084 99.7167C119.203 99.7167 118.26 98.6161 117.347 97.5483C116.439 96.487 115.581 95.4831 113.842 95.4831C112.1 95.4831 111.241 96.487 110.334 97.5483C109.421 98.6158 108.478 99.7167 106.597 99.7167C104.716 99.7167 103.773 98.6161 102.859 97.5483C101.949 96.487 101.093 95.4831 99.3516 95.4831C97.6099 95.4831 96.7511 96.487 95.844 97.5483C94.9307 98.6158 93.9872 99.7167 92.1064 99.7167C90.2256 99.7167 89.282 98.6161 88.3687 97.5483C87.7853 96.868 87.2227 96.2088 86.4336 95.8277C86.5515 95.7763 86.6695 95.722 86.7906 95.6736C87.5223 96.0939 88.0665 96.7289 88.5988 97.3518C89.509 98.4131 90.3647 99.4144 92.1065 99.4144C93.8484 99.4144 94.707 98.4135 95.6142 97.3518C96.5275 96.2844 97.4709 95.1807 99.3517 95.1807C101.233 95.1807 102.176 96.2844 103.089 97.3518C103.996 98.4131 104.855 99.4144 106.597 99.4144C108.339 99.4144 109.194 98.4135 110.105 97.3518C111.015 96.2844 111.961 95.1807 113.842 95.1807C115.72 95.1807 116.663 96.2844 117.577 97.3518C118.484 98.4131 119.343 99.4144 121.084 99.4144C122.826 99.4144 123.682 98.4135 124.592 97.3518C125.505 96.2844 126.449 95.1807 128.33 95.1807C130.21 95.1807 131.154 96.2844 132.064 97.3518C132.974 98.4131 133.83 99.4144 135.572 99.4144C135.844 99.4171 136.116 99.3888 136.382 99.3298C136.47 99.4114 136.558 99.496 136.643 99.5806Z" fill="white"/>
<path d="M139.625 103.14C139.519 103.258 139.416 103.378 139.311 103.499C138.401 104.567 137.454 105.668 135.573 105.668C133.692 105.668 132.749 104.567 131.836 103.499C130.929 102.438 130.073 101.434 128.331 101.434C126.589 101.434 125.731 102.438 124.823 103.499C123.91 104.567 122.967 105.668 121.086 105.668C119.205 105.668 118.261 104.567 117.348 103.499C116.441 102.438 115.582 101.434 113.844 101.434C112.102 101.434 111.243 102.438 110.336 103.499C109.423 104.567 108.479 105.668 106.598 105.668C104.718 105.668 103.774 104.567 102.861 103.499C101.951 102.438 101.095 101.434 99.3532 101.434C97.6115 101.434 96.7527 102.438 95.8456 103.499C94.9323 104.567 93.9888 105.668 92.108 105.668C90.2272 105.668 89.2836 104.567 88.3703 103.499C87.4632 102.438 86.6046 101.434 84.8629 101.434C83.1241 101.434 82.2652 102.438 81.358 103.499C80.4448 104.567 79.5013 105.668 77.6206 105.668C76.9209 105.682 76.2313 105.499 75.6309 105.139C75.6822 105.051 75.7366 104.969 75.7912 104.885C76.3444 105.212 76.978 105.379 77.6206 105.366C79.3622 105.366 80.218 104.365 81.1284 103.303C82.0384 102.236 82.9819 101.132 84.8629 101.132C86.7438 101.132 87.687 102.236 88.6003 103.303C89.5105 104.364 90.3662 105.366 92.108 105.366C93.8499 105.366 94.7085 104.365 95.6156 103.303C96.529 102.236 97.4724 101.132 99.3532 101.132C101.234 101.132 102.177 102.236 103.091 103.303C103.998 104.364 104.857 105.366 106.598 105.366C108.34 105.366 109.196 104.365 110.106 103.303C111.016 102.236 111.963 101.132 113.844 101.132C115.721 101.132 116.665 102.236 117.578 103.303C118.485 104.364 119.344 105.366 121.086 105.366C122.828 105.366 123.683 104.365 124.594 103.303C125.507 102.236 126.45 101.132 128.331 101.132C130.212 101.132 131.155 102.236 132.065 103.303C132.976 104.364 133.832 105.366 135.573 105.366C137.315 105.366 138.174 104.365 139.081 103.303C139.202 103.161 139.323 103.019 139.447 102.88C139.507 102.967 139.568 103.052 139.625 103.14Z" fill="white"/>
<path d="M142.101 107.452C140.822 107.682 140.087 108.547 139.31 109.451C138.4 110.516 137.453 111.62 135.573 111.62C133.692 111.62 132.748 110.516 131.835 109.451C130.928 108.39 130.072 107.386 128.33 107.386C126.589 107.386 125.73 108.39 124.823 109.451C123.91 110.516 122.966 111.62 121.085 111.62C119.204 111.62 118.261 110.516 117.348 109.451C116.44 108.39 115.582 107.386 113.843 107.386C112.101 107.386 111.242 108.39 110.335 109.451C109.422 110.516 108.479 111.62 106.598 111.62C104.717 111.62 103.774 110.516 102.86 109.451C101.95 108.39 101.094 107.386 99.3526 107.386C97.6109 107.386 96.7521 108.39 95.8449 109.451C94.9317 110.516 93.9882 111.62 92.1074 111.62C90.2266 111.62 89.283 110.516 88.3697 109.451C87.4626 108.39 86.604 107.386 84.8622 107.386C83.1234 107.386 82.2645 108.39 81.3574 109.451C80.4442 110.516 79.5007 111.62 77.62 111.62C75.7393 111.62 74.7957 110.516 73.8824 109.451C73.7706 109.321 73.6586 109.191 73.5469 109.064L73.695 108.773C73.8371 108.931 73.9726 109.094 74.1122 109.254C75.0194 110.315 75.8783 111.317 77.62 111.317C79.3617 111.317 80.2174 110.316 81.1277 109.254C82.0378 108.187 82.9813 107.083 84.8622 107.083C86.7432 107.083 87.6864 108.187 88.5997 109.254C89.5098 110.315 90.3656 111.317 92.1074 111.317C93.8492 111.317 94.7079 110.316 95.615 109.254C96.5284 108.187 97.4718 107.083 99.3526 107.083C101.233 107.083 102.177 108.187 103.09 109.254C103.997 110.315 104.856 111.317 106.598 111.317C108.34 111.317 109.195 110.316 110.106 109.254C111.016 108.187 111.962 107.083 113.843 107.083C115.721 107.083 116.664 108.187 117.578 109.254C118.485 110.315 119.343 111.317 121.085 111.317C122.827 111.317 123.683 110.316 124.593 109.254C125.506 108.187 126.45 107.083 128.33 107.083C130.211 107.083 131.155 108.187 132.065 109.254C132.975 110.315 133.831 111.317 135.573 111.317C137.314 111.317 138.173 110.316 139.08 109.254C139.839 108.365 140.622 107.452 141.947 107.171L142.101 107.452Z" fill="white"/>
<path d="M146.813 115.961C146.647 115.776 146.487 115.589 146.326 115.401C145.419 114.34 144.56 113.336 142.819 113.336C141.077 113.336 140.221 114.34 139.311 115.401C138.401 116.469 137.454 117.57 135.573 117.57C133.692 117.57 132.749 116.469 131.836 115.401C130.929 114.34 130.073 113.336 128.331 113.336C126.589 113.336 125.731 114.34 124.824 115.401C123.91 116.469 122.967 117.57 121.086 117.57C119.205 117.57 118.262 116.469 117.348 115.401C116.441 114.34 115.583 113.336 113.844 113.336C112.102 113.336 111.243 114.34 110.336 115.401C109.423 116.469 108.479 117.57 106.599 117.57C104.718 117.57 103.774 116.469 102.861 115.401C101.951 114.34 101.095 113.336 99.3533 113.336C97.6116 113.336 96.7528 114.34 95.8457 115.401C94.9324 116.469 93.9889 117.57 92.1081 117.57C90.2273 117.57 89.2837 116.469 88.3704 115.401C87.4633 114.34 86.6047 113.336 84.8629 113.336C83.1241 113.336 82.2653 114.34 81.3581 115.401C80.4449 116.469 79.5014 117.57 77.6207 117.57C75.74 117.57 74.7964 116.469 73.8832 115.401C73.1605 114.555 72.4684 113.744 71.334 113.454L71.4731 113.176C72.6615 113.509 73.3963 114.368 74.1129 115.205C75.0201 116.267 75.879 117.268 77.6207 117.268C79.3624 117.268 80.2181 116.267 81.1284 115.205C82.0385 114.138 82.982 113.034 84.8629 113.034C86.7439 113.034 87.6871 114.138 88.6004 115.205C89.5106 116.267 90.3663 117.268 92.1081 117.268C93.8499 117.268 94.7086 116.267 95.6157 115.205C96.5291 114.138 97.4725 113.034 99.3533 113.034C101.234 113.034 102.178 114.138 103.091 115.205C103.998 116.267 104.857 117.268 106.599 117.268C108.34 117.268 109.196 116.267 110.106 115.205C111.016 114.138 111.963 113.034 113.844 113.034C115.721 113.034 116.665 114.138 117.578 115.205C118.485 116.267 119.344 117.268 121.086 117.268C122.828 117.268 123.683 116.267 124.594 115.205C125.507 114.138 126.45 113.034 128.331 113.034C130.212 113.034 131.155 114.138 132.066 115.205C132.976 116.267 133.832 117.268 135.573 117.268C137.315 117.268 138.174 116.267 139.081 115.205C139.994 114.138 140.938 113.034 142.819 113.034C144.403 113.034 145.325 113.817 146.118 114.703L146.813 115.961Z" fill="white"/>
<path d="M150.95 123.43C150.659 123.491 150.362 123.522 150.064 123.521C148.183 123.521 147.24 122.417 146.327 121.353C145.419 120.291 144.561 119.287 142.819 119.287C141.077 119.287 140.221 120.291 139.311 121.353C138.401 122.417 137.454 123.521 135.574 123.521C133.693 123.521 132.749 122.417 131.836 121.353C130.929 120.291 130.073 119.287 128.331 119.287C126.59 119.287 125.731 120.291 124.824 121.353C123.911 122.417 122.967 123.521 121.086 123.521C119.205 123.521 118.262 122.417 117.349 121.353C116.441 120.291 115.583 119.287 113.844 119.287C112.102 119.287 111.243 120.291 110.336 121.353C109.423 122.417 108.479 123.521 106.599 123.521C104.718 123.521 103.775 122.417 102.861 121.353C101.951 120.291 101.095 119.287 99.3535 119.287C97.6118 119.287 96.7531 120.291 95.8459 121.353C94.9327 122.417 93.9892 123.521 92.1084 123.521C90.2276 123.521 89.2839 122.417 88.3707 121.353C87.4635 120.291 86.6049 119.287 84.8632 119.287C83.1244 119.287 82.2655 120.291 81.3584 121.353C80.4451 122.417 79.5016 123.521 77.6209 123.521C75.7403 123.521 74.7966 122.417 73.8834 121.353C72.9763 120.291 72.1174 119.287 70.3757 119.287C69.4598 119.27 68.5739 119.614 67.9082 120.243L68.2226 119.62C68.8577 119.191 69.6097 118.97 70.3757 118.985C72.2565 118.985 73.2 120.089 74.1132 121.156C75.0204 122.218 75.8792 123.219 77.6209 123.219C79.3627 123.219 80.2184 122.218 81.1287 121.156C82.0388 120.089 82.9823 118.985 84.8632 118.985C86.7441 118.985 87.6874 120.089 88.6006 121.156C89.5108 122.218 90.3665 123.219 92.1084 123.219C93.8502 123.219 94.7088 122.218 95.616 121.156C96.5293 120.089 97.4727 118.985 99.3535 118.985C101.234 118.985 102.178 120.089 103.091 121.156C103.998 122.218 104.857 123.219 106.599 123.219C108.341 123.219 109.196 122.218 110.107 121.156C111.017 120.089 111.963 118.985 113.844 118.985C115.721 118.985 116.665 120.089 117.578 121.156C118.486 122.218 119.344 123.219 121.086 123.219C122.828 123.219 123.684 122.218 124.594 121.156C125.507 120.089 126.451 118.985 128.331 118.985C130.212 118.985 131.156 120.089 132.066 121.156C132.976 122.218 133.832 123.219 135.574 123.219C137.315 123.219 138.174 122.218 139.081 121.156C139.994 120.089 140.938 118.985 142.819 118.985C144.7 118.985 145.646 120.089 146.556 121.156C147.467 122.218 148.322 123.219 150.064 123.219C150.31 123.22 150.555 123.197 150.796 123.149L150.95 123.43Z" fill="white"/>
<path d="M153.369 127.8C152.574 128.685 151.651 129.472 150.063 129.472C148.183 129.472 147.239 128.371 146.326 127.303C145.419 126.242 144.56 125.238 142.818 125.238C141.076 125.238 140.221 126.242 139.311 127.303C138.4 128.371 137.454 129.472 135.573 129.472C133.692 129.472 132.749 128.371 131.836 127.303C130.928 126.242 130.073 125.238 128.331 125.238C126.589 125.238 125.73 126.242 124.823 127.303C123.91 128.371 122.967 129.472 121.086 129.472C119.205 129.472 118.261 128.371 117.348 127.303C116.441 126.242 115.582 125.238 113.843 125.238C112.102 125.238 111.243 126.242 110.336 127.303C109.422 128.371 108.479 129.472 106.598 129.472C104.718 129.472 103.774 128.371 102.861 127.303C101.951 126.242 101.095 125.238 99.353 125.238C97.6113 125.238 96.7526 126.242 95.8454 127.303C94.9322 128.371 93.9887 129.472 92.1079 129.472C90.2271 129.472 89.2834 128.371 88.3702 127.303C87.463 126.242 86.6044 125.238 84.8627 125.238C83.1239 125.238 82.265 126.242 81.3579 127.303C80.4446 128.371 79.5011 129.472 77.6205 129.472C75.7398 129.472 74.7961 128.371 73.8829 127.303C72.9758 126.242 72.1169 125.238 70.3752 125.238C68.6335 125.238 67.7747 126.242 66.8674 127.303C66.0752 128.229 65.2588 129.181 63.8285 129.417L63.375 129.224L63.4082 129.16C64.9655 129.06 65.7789 128.111 66.6377 127.107C67.551 126.039 68.4942 124.936 70.3752 124.936C72.2561 124.936 73.1995 126.039 74.1127 127.107C75.0199 128.168 75.8787 129.169 77.6205 129.169C79.3622 129.169 80.2179 128.168 81.1282 127.107C82.0383 126.039 82.9818 124.936 84.8627 124.936C86.7436 124.936 87.6869 126.039 88.6001 127.107C89.5103 128.168 90.366 129.169 92.1079 129.169C93.8497 129.169 94.7083 128.168 95.6155 127.107C96.5288 126.039 97.4722 124.936 99.353 124.936C101.234 124.936 102.177 126.039 103.091 127.107C103.998 128.168 104.856 129.169 106.598 129.169C108.34 129.169 109.196 128.168 110.106 127.107C111.016 126.039 111.963 124.936 113.843 124.936C115.721 124.936 116.665 126.039 117.578 127.107C118.485 128.168 119.344 129.169 121.086 129.169C122.828 129.169 123.683 128.168 124.593 127.107C125.507 126.039 126.45 124.936 128.331 124.936C130.212 124.936 131.155 126.039 132.065 127.107C132.976 128.168 133.831 129.169 135.573 129.169C137.315 129.169 138.174 128.168 139.081 127.107C139.994 126.039 140.937 124.936 142.818 124.936C144.699 124.936 145.646 126.039 146.556 127.107C147.466 128.168 148.322 129.169 150.063 129.169C151.575 129.169 152.422 128.416 153.214 127.521L153.369 127.8Z" fill="white"/>
<path d="M146.268 132.726L145.974 132.847C145.179 131.949 144.332 131.19 142.817 131.19C141.076 131.19 140.22 132.194 139.31 133.255C138.399 134.319 137.453 135.423 135.572 135.423C133.691 135.423 132.748 134.32 131.835 133.255C130.928 132.194 130.072 131.19 128.33 131.19C126.588 131.19 125.73 132.194 124.822 133.255C123.909 134.319 122.966 135.423 121.085 135.423C119.204 135.423 118.26 134.32 117.347 133.255C116.44 132.194 115.581 131.19 113.843 131.19C112.101 131.19 111.242 132.194 110.335 133.255C109.422 134.319 108.478 135.423 106.597 135.423C104.717 135.423 103.773 134.32 102.86 133.255C101.95 132.194 101.094 131.19 99.3522 131.19C97.6104 131.19 96.7517 132.194 95.8445 133.255C94.9313 134.319 93.9878 135.423 92.107 135.423C90.2262 135.423 89.2825 134.32 88.3693 133.255C87.4622 132.194 86.6035 131.19 84.8618 131.19C83.123 131.19 82.2641 132.194 81.357 133.255C80.5014 134.253 79.6183 135.284 77.9643 135.411H77.9612C77.8524 135.42 77.7375 135.423 77.6196 135.423C76.1439 135.423 75.2428 134.743 74.4838 133.935C74.2751 133.715 74.0786 133.485 73.882 133.255C72.9749 132.194 72.116 131.19 70.3743 131.19C69.8337 131.181 69.2985 131.298 68.8111 131.531L68.4512 131.377C69.0369 131.045 69.701 130.876 70.3743 130.887C72.2551 130.887 73.1986 131.991 74.1118 133.058C74.4618 133.495 74.8493 133.899 75.2699 134.268C75.8183 134.748 76.5062 135.039 77.2324 135.1C77.3609 135.114 77.4902 135.121 77.6196 135.121C79.3612 135.121 80.217 134.12 81.1273 133.058C82.0374 131.991 82.9809 130.887 84.8618 130.887C86.7428 130.887 87.686 131.991 88.5992 133.058C89.5094 134.12 90.3651 135.121 92.107 135.121C93.8488 135.121 94.7075 134.12 95.6146 133.058C96.528 131.991 97.4714 130.887 99.3522 130.887C101.233 130.887 102.176 131.991 103.09 133.058C103.997 134.12 104.856 135.121 106.597 135.121C108.339 135.121 109.195 134.12 110.105 133.058C111.015 131.991 111.962 130.887 113.843 130.887C115.72 130.887 116.664 131.991 117.577 133.058C118.484 134.12 119.343 135.121 121.085 135.121C122.827 135.121 123.682 134.12 124.592 133.058C125.506 131.991 126.449 130.887 128.33 130.887C130.211 130.887 131.154 131.991 132.064 133.058C132.975 134.12 133.831 135.121 135.572 135.121C137.314 135.121 138.173 134.12 139.08 133.058C139.993 131.991 140.937 130.887 142.817 130.887C144.502 130.887 145.436 131.773 146.268 132.726Z" fill="white"/>
<path d="M132.462 139.463V139.911C132.244 139.681 132.039 139.442 131.836 139.206C130.929 138.145 130.073 137.141 128.331 137.141C126.589 137.141 125.731 138.145 124.824 139.206C123.91 140.271 122.967 141.375 121.086 141.375C119.205 141.375 118.262 140.271 117.348 139.206C116.441 138.145 115.583 137.141 113.844 137.141C112.102 137.141 111.243 138.145 110.336 139.206C109.423 140.271 108.479 141.375 106.599 141.375C104.718 141.375 103.774 140.271 102.861 139.206C101.951 138.145 101.095 137.141 99.3533 137.141C97.6116 137.141 96.7529 138.145 95.8457 139.206C94.9325 140.271 93.989 141.375 92.1082 141.375C90.2274 141.375 89.2837 140.271 88.3705 139.206C87.4634 138.145 86.6047 137.141 84.863 137.141C84.2458 137.129 83.6367 137.283 83.1 137.588L82.7559 137.44C83.3827 137.034 84.1167 136.824 84.8635 136.839C86.7442 136.839 87.6877 137.942 88.601 139.01C89.5111 140.071 90.3669 141.072 92.1087 141.072C93.8505 141.072 94.7092 140.071 95.6163 139.01C96.5297 137.942 97.4731 136.839 99.3539 136.839C101.235 136.839 102.178 137.942 103.091 139.01C103.999 140.071 104.857 141.072 106.599 141.072C108.341 141.072 109.197 140.071 110.107 139.01C111.017 137.942 111.963 136.839 113.844 136.839C115.722 136.839 116.666 137.942 117.579 139.01C118.486 140.071 119.345 141.072 121.087 141.072C122.828 141.072 123.684 140.071 124.594 139.01C125.507 137.942 126.451 136.839 128.332 136.839C130.213 136.839 131.156 137.942 132.066 139.01C132.199 139.164 132.329 139.315 132.462 139.463Z" fill="white"/>
<path d="M132.462 145.414V145.861C132.245 145.631 132.039 145.393 131.836 145.157C130.929 144.095 130.073 143.091 128.332 143.091C126.59 143.091 125.731 144.095 124.824 145.157C123.911 146.221 122.967 147.325 121.086 147.325C119.206 147.325 118.262 146.221 117.349 145.157C116.442 144.095 115.583 143.091 113.844 143.091C112.102 143.091 111.244 144.095 110.336 145.157C109.423 146.221 108.48 147.325 106.599 147.325C104.718 147.325 103.775 146.221 102.861 145.157C101.951 144.095 101.095 143.091 99.3537 143.091C97.612 143.091 96.7532 144.095 95.846 145.157C94.9328 146.221 93.9893 147.325 92.1085 147.325C90.2277 147.325 89.2841 146.221 88.3708 145.157C87.5938 144.25 86.8531 143.382 85.5648 143.155L85.5527 142.844C86.989 143.076 87.8056 144.032 88.6008 144.96C89.5109 146.022 90.3667 147.023 92.1085 147.023C93.8503 147.023 94.709 146.022 95.6161 144.96C96.5295 143.893 97.4729 142.789 99.3537 142.789C101.234 142.789 102.178 143.893 103.091 144.96C103.998 146.022 104.857 147.023 106.599 147.023C108.341 147.023 109.196 146.022 110.107 144.96C111.017 143.893 111.963 142.789 113.844 142.789C115.722 142.789 116.665 143.893 117.579 144.96C118.486 146.022 119.345 147.023 121.086 147.023C122.828 147.023 123.684 146.022 124.594 144.96C125.507 143.893 126.451 142.789 128.332 142.789C130.212 142.789 131.156 143.893 132.066 144.96C132.199 145.115 132.329 145.266 132.462 145.414Z" fill="white"/>
<path d="M85.3825 138.555L61.8652 128.678L64.3854 123.521L85.3825 133.155V138.555Z" fill="#DD9B0A"/>
<path d="M132.461 138.555L156.031 128.579L153.1 123.264L132.539 132.206L132.461 138.555Z" fill="#DD9B0A"/>
<path d="M109.178 100.602C109.039 100.576 108.9 100.547 108.766 100.512C107.981 100.319 107.243 99.9688 106.598 99.4817C105.953 98.9946 105.413 98.3812 105.013 97.6789C104.395 96.6104 104.117 95.3789 104.217 94.1487L104.798 86.8389H115.382L115.478 87.6718L116.207 93.9104C116.677 97.9256 113.15 101.357 109.178 100.602Z" fill="#F59060"/>
<path d="M115.48 87.6721V87.675C115.48 87.675 111.201 94.2066 105.665 89.9161C105.665 89.9161 104.8 93.2517 105.014 97.6789C104.397 96.6104 104.119 95.3789 104.219 94.1487L104.8 86.8389H115.384L115.48 87.6721Z" fill="#131313"/>
<path d="M119.917 74.9585C119.345 80.5737 117.405 89.1367 110.917 90.1754C110.37 90.2616 109.812 90.2385 109.274 90.1073C106.999 89.5554 101.51 86.9219 100.933 74.3547C100.84 72.4791 101.239 70.6118 102.091 68.9382C102.942 67.2646 104.217 65.843 105.788 64.8146C108.204 63.2388 111.384 62.4743 115.011 64.8127C116.687 65.8847 118.033 67.4005 118.899 69.1917C119.765 70.9828 120.117 72.9791 119.917 74.9585Z" fill="#F59060"/>
<path d="M109.971 82.8655C110.093 82.8636 110.214 82.8433 110.33 82.8052C110.388 82.7872 110.436 82.7472 110.464 82.6939C110.491 82.6406 110.497 82.5785 110.479 82.521C110.461 82.4636 110.421 82.4157 110.368 82.3878C110.315 82.3599 110.252 82.3543 110.195 82.3723C109.897 82.4658 109.809 82.3706 109.78 82.3394C109.323 81.8465 110.018 79.3583 110.657 77.7488C110.678 77.6931 110.677 77.6313 110.653 77.5768C110.629 77.5223 110.584 77.4794 110.529 77.4574C110.474 77.4354 110.412 77.4361 110.357 77.4593C110.302 77.4824 110.259 77.5262 110.236 77.5812C109.961 78.2729 108.631 81.7674 109.447 82.6477C109.514 82.7193 109.595 82.7758 109.686 82.8133C109.776 82.8509 109.874 82.8687 109.971 82.8655Z" fill="#131313"/>
<path d="M115.428 82.2232C116.526 82.1507 117.383 81.5966 117.342 80.9858C117.302 80.3749 116.379 79.9386 115.282 80.0112C114.185 80.0837 113.328 80.6378 113.368 81.2486C113.408 81.8595 114.331 82.2958 115.428 82.2232Z" fill="#FC6D6D"/>
<path d="M116.991 75.6731C116.654 75.5054 116.3 75.3722 115.935 75.2755C115.562 75.174 115.178 75.1151 114.792 75.0999C114.39 75.0893 113.989 75.1449 113.604 75.2647C113.224 75.3917 112.871 75.5903 112.565 75.8497C112.53 75.8759 112.501 75.9095 112.48 75.948C112.459 75.9866 112.447 76.0294 112.444 76.0732C112.441 76.117 112.448 76.1609 112.464 76.2018C112.48 76.2427 112.505 76.2796 112.537 76.31C112.606 76.3751 112.696 76.4135 112.79 76.4182C112.885 76.4229 112.978 76.3936 113.054 76.3356C113.058 76.3319 113.063 76.3282 113.067 76.3244L113.092 76.3015C113.311 76.0908 113.568 75.9237 113.849 75.809C114.151 75.695 114.47 75.6315 114.792 75.6209C115.132 75.6146 115.471 75.6463 115.803 75.7155C116.137 75.783 116.463 75.8829 116.778 76.0138L116.789 76.0184C116.84 76.0413 116.898 76.0447 116.952 76.0279C117.006 76.0111 117.052 75.9752 117.081 75.9271C117.092 75.9047 117.099 75.8801 117.101 75.855C117.103 75.8298 117.099 75.8046 117.091 75.7808C117.083 75.757 117.069 75.7352 117.052 75.7167C117.035 75.6981 117.014 75.6833 116.991 75.6731Z" fill="#131313"/>
<path d="M115.014 78.2902C115.052 77.8278 114.836 77.4331 114.532 77.4085C114.228 77.3838 113.951 77.7387 113.914 78.201C113.876 78.6633 114.092 79.058 114.396 79.0827C114.7 79.1073 114.977 78.7525 115.014 78.2902Z" fill="#131313"/>
<path d="M107.693 81.1784C107.734 80.5677 106.878 80.0134 105.78 79.9403C104.683 79.8672 103.761 80.303 103.72 80.9137C103.679 81.5244 104.536 82.0788 105.633 82.1519C106.73 82.225 107.653 81.7891 107.693 81.1784Z" fill="#FC6D6D"/>
<path d="M104.085 75.6731C104.422 75.5054 104.776 75.3722 105.141 75.2755C105.514 75.174 105.898 75.1151 106.284 75.0999C106.686 75.0893 107.088 75.1449 107.472 75.2647C107.852 75.3918 108.205 75.5904 108.511 75.8497C108.546 75.8759 108.575 75.9095 108.596 75.9481C108.617 75.9867 108.629 76.0294 108.632 76.0732C108.635 76.1171 108.628 76.1609 108.612 76.2018C108.596 76.2427 108.571 76.2796 108.539 76.31C108.47 76.3751 108.38 76.4135 108.286 76.4182C108.191 76.4229 108.098 76.3936 108.022 76.3356C108.018 76.3319 108.013 76.3282 108.009 76.3244L107.984 76.3015C107.765 76.0908 107.508 75.9236 107.227 75.809C106.925 75.695 106.606 75.6314 106.284 75.6209C105.944 75.6146 105.606 75.6463 105.273 75.7155C104.939 75.783 104.613 75.8829 104.298 76.0138L104.287 76.0184C104.236 76.0413 104.178 76.0447 104.124 76.0279C104.07 76.0111 104.024 75.9752 103.995 75.9271C103.984 75.9047 103.977 75.8801 103.975 75.855C103.973 75.8298 103.977 75.8046 103.985 75.7808C103.993 75.757 104.007 75.7352 104.024 75.7167C104.041 75.6982 104.062 75.6833 104.085 75.6731Z" fill="#131313"/>
<path d="M106.678 79.0837C106.982 79.0591 107.198 78.6644 107.161 78.202C107.123 77.7397 106.846 77.3849 106.543 77.4095C106.239 77.4341 106.023 77.8289 106.06 78.2912C106.097 78.7535 106.374 79.1083 106.678 79.0837Z" fill="#131313"/>
<path d="M101.472 75.1123C101.093 75.1123 100.718 75.1976 100.376 75.3618C100.034 75.526 99.7332 75.765 99.4959 76.061C99.2586 76.3571 99.0909 76.7027 99.0051 77.0722C98.9193 77.4418 98.9176 77.826 99.0002 78.1963L99.4497 80.2147C99.5751 80.777 99.8883 81.2796 100.338 81.6399C100.787 82.0001 101.346 82.1963 101.922 82.1962H102.57C102.57 82.1962 103.687 77.2393 101.472 75.1123Z" fill="#F59060"/>
<path d="M119.557 75.1123C119.937 75.1122 120.311 75.1974 120.653 75.3616C120.995 75.5258 121.296 75.7647 121.534 76.0608C121.771 76.3569 121.939 76.7025 122.025 77.0721C122.11 77.4417 122.112 77.8259 122.03 78.1963L121.58 80.2147C121.455 80.7769 121.141 81.2796 120.692 81.6398C120.242 82.0001 119.684 82.1963 119.108 82.1962H118.46C118.46 82.1962 117.342 77.2393 119.557 75.1123Z" fill="#F59060"/>
<path d="M110.25 86.3127C111.997 86.3127 113.374 85.0737 113.444 85.0094L113.138 84.6748C113.119 84.6921 111.209 86.4045 109.19 85.6737L109.035 86.1002C109.425 86.2414 109.836 86.3133 110.25 86.3127Z" fill="#131313"/>
<path d="M100.977 75.1606L101.715 79.2625C101.715 79.2625 103.068 76.0432 103.068 72.4041C108.67 73.713 113.198 73.4883 116.139 73.0884C119.246 72.6653 121.193 72.3727 122.697 70.8032C126.187 67.1573 124.836 59.1731 121.841 57.9997C119.841 57.2162 118.252 59.9169 112.562 62.1591C109.779 63.2485 106.849 63.9182 103.868 64.1463C103.304 64.1657 102.753 64.3256 102.265 64.6115C100.036 65.9569 99.5464 70.1971 100.977 75.1606Z" fill="#131313"/>
<path d="M120.32 72.058L119.245 79.2625C119.245 79.2625 117.859 75.81 117.952 72.3574C118.044 68.9047 120.32 72.058 120.32 72.058Z" fill="#131313"/>
<path d="M100.709 80.6209L101.081 80.3619C99.9954 78.8017 99.9795 77.9848 100.157 77.5737C100.366 77.0916 100.904 77.0075 100.927 77.0042L100.864 76.5547C100.831 76.5591 100.058 76.6722 99.744 77.3869C99.4141 78.1392 99.7385 79.2271 100.709 80.6209Z" fill="#131313"/>
<path d="M120.321 80.6207C121.291 79.2268 121.616 78.1389 121.286 77.3869C120.972 76.6729 120.199 76.5591 120.166 76.5547L120.104 77.0042C120.126 77.0075 120.664 77.0916 120.873 77.5737C121.051 77.9848 121.035 78.8021 119.949 80.3619L120.321 80.6207Z" fill="#131313"/>
<path d="M152.99 129.884L157.659 144.639C160.1 152.355 154.001 160.119 145.498 160.119H104.037L105.557 151.026C105.991 148.429 108.709 146.763 111.388 147.452L120.171 149.713L132.196 147.247L132.54 138.558L152.99 129.884Z" fill="#F59060"/>
<path d="M146.36 143.367L132.142 147.033L132.252 147.461L146.47 143.794L146.36 143.367Z" fill="#131313"/>
<path d="M132.539 138.558L153.537 131.611L152.99 129.884L132.539 138.558Z" fill="#131313"/>
<path d="M64.9325 129.884L60.2636 144.639C57.8222 152.355 63.9214 160.119 72.4242 160.119H113.885L112.366 151.026C111.932 148.429 109.214 146.763 106.535 147.452L97.751 149.713L85.7264 147.247L85.3827 138.558L64.9325 129.884Z" fill="#F59060"/>
<path d="M71.5633 143.367L71.4531 143.795L85.6717 147.459L85.7818 147.032L71.5633 143.367Z" fill="#131313"/>
<path d="M85.3825 138.558L64.3848 131.611L64.9314 129.884L85.3825 138.558Z" fill="#131313"/>
<path d="M85.6037 112.46H85.1621V138.558H85.6037V112.46Z" fill="#131313"/>
<path d="M132.76 112.46H132.318V138.558H132.76V112.46Z" fill="#131313"/>
<path d="M114.106 160.119H113.664C113.664 152.773 112.065 149.776 110.724 148.556C109.713 147.637 108.834 147.709 108.825 147.71L108.783 147.271C108.827 147.267 109.867 147.181 111.021 148.23C112.428 149.51 114.106 152.611 114.106 160.119Z" fill="#131313"/>
<path d="M106.303 82.1328C104.365 82.1328 102.789 80.389 102.789 78.2456C102.789 76.1022 104.365 74.3584 106.303 74.3584C108.241 74.3584 109.817 76.1022 109.817 78.2456C109.817 80.389 108.241 82.1328 106.303 82.1328ZM106.303 75.0536C104.749 75.0536 103.485 76.4854 103.485 78.2455C103.485 80.0056 104.749 81.4372 106.303 81.4372C107.858 81.4372 109.122 80.0054 109.122 78.2455C109.122 76.4855 107.857 75.054 106.303 75.054V75.0536Z" fill="#1D6DEC"/>
<path d="M114.772 82.1328C112.834 82.1328 111.258 80.389 111.258 78.2456C111.258 76.1022 112.834 74.3584 114.772 74.3584C116.71 74.3584 118.286 76.1022 118.286 78.2456C118.286 80.389 116.71 82.1328 114.772 82.1328ZM114.772 75.0536C113.218 75.0536 111.953 76.4854 111.953 78.2455C111.953 80.0056 113.218 81.4372 114.772 81.4372C116.326 81.4372 117.591 80.0054 117.591 78.2455C117.591 76.4855 116.326 75.054 114.772 75.054V75.0536Z" fill="#1D6DEC"/>
<path d="M111.504 78.2837C110.384 77.8948 109.647 78.2501 109.616 78.2653L109.299 77.6464C109.34 77.6251 110.315 77.1343 111.732 77.6267L111.504 78.2837Z" fill="#1D6DEC"/>
<path d="M119.697 74.6871L117.436 76.5078L117.872 77.0496L120.133 75.229L119.697 74.6871Z" fill="#1D6DEC"/>
<path d="M101.167 74.8154L100.783 75.3955L103.228 77.0136L103.612 76.4334L101.167 74.8154Z" fill="#1D6DEC"/>
<path d="M104.624 89.0283L101.434 92.0161L107.196 103.4L109.838 100.707L104.624 89.0283Z" fill="#DD9B0A"/>
<path d="M115.636 89.0283L109.838 100.707L112.737 103.4L118.865 91.9096L115.636 89.0283Z" fill="#DD9B0A"/>
<path d="M109.611 100.706L109.195 147.266L109.659 147.27L110.074 100.71L109.611 100.706Z" fill="#131313"/>
<path d="M85.4226 82.9198H32.6641C30.2021 82.9198 28.1992 81.2655 28.1992 79.2321V23.674C28.1992 21.6406 30.2021 19.9863 32.6641 19.9863H85.4226C87.8846 19.9863 89.8875 21.6406 89.8875 23.674V79.2321C89.8875 81.2655 87.8853 82.9198 85.4226 82.9198ZM32.6641 20.8672C30.6877 20.8672 29.0798 22.1264 29.0798 23.6742V79.2322C29.0798 80.78 30.6877 82.0392 32.6641 82.0392H85.4226C87.399 82.0392 89.0069 80.78 89.0069 79.2322V23.6742C89.0069 22.1264 87.399 20.8672 85.4226 20.8672H32.6641Z" fill="#6445F1"/>
<path d="M82.4913 30.6291V86.1872C82.4913 87.9802 80.6875 89.4345 78.4667 89.4345H25.7082C23.4849 89.4345 21.6836 87.9801 21.6836 86.1872V30.6291C21.6836 28.8361 23.4849 27.3818 25.7082 27.3818H78.4667C80.6875 27.3818 82.4913 28.8362 82.4913 30.6291Z" fill="#131313"/>
<path d="M82.4927 30.641V36.9941H21.6855V30.6388C21.6856 29.7751 22.0287 28.9468 22.6393 28.336C23.25 27.7252 24.0783 27.382 24.942 27.3818H79.2335C80.0979 27.3818 80.9269 27.7252 81.5381 28.3364C82.1493 28.9476 82.4927 29.7766 82.4927 30.641Z" fill="#6445F1"/>
<path d="M26.4487 33.1983C27.0935 33.1983 27.6162 32.6756 27.6162 32.0308C27.6162 31.386 27.0935 30.8633 26.4487 30.8633C25.804 30.8633 25.2812 31.386 25.2812 32.0308C25.2812 32.6756 25.804 33.1983 26.4487 33.1983Z" fill="#FF4655"/>
<path d="M29.7261 33.1983C30.3709 33.1983 30.8936 32.6756 30.8936 32.0308C30.8936 31.386 30.3709 30.8633 29.7261 30.8633C29.0813 30.8633 28.5586 31.386 28.5586 32.0308C28.5586 32.6756 29.0813 33.1983 29.7261 33.1983Z" fill="#6595F7"/>
<path d="M33.0054 33.1983C33.6502 33.1983 34.1729 32.6756 34.1729 32.0308C34.1729 31.386 33.6502 30.8633 33.0054 30.8633C32.3606 30.8633 31.8379 31.386 31.8379 32.0308C31.8379 32.6756 32.3606 33.1983 33.0054 33.1983Z" fill="#131313"/>
<path d="M41.786 48.9248H33.2012V50.3368H41.786V48.9248Z" fill="#FF4655"/>
<path d="M48.8952 48.9248H43.5742V50.3368H48.8952V48.9248Z" fill="#6445F1"/>
<path d="M56.2487 48.9248H50.9277V50.3368H56.2487V48.9248Z" fill="white"/>
<path d="M64.3612 48.9248H58.041V50.3368H64.3612V48.9248Z" fill="#6445F1"/>
<path d="M69.5951 48.9248H65.6777V50.3368H69.5951V48.9248Z" fill="white"/>
<path d="M64.3612 70.8857H58.041V72.2977H64.3612V70.8857Z" fill="#1D6DEC"/>
<path d="M69.5951 70.8857H65.6777V72.2977H69.5951V70.8857Z" fill="#FF4655"/>
<path d="M55.9686 54.415H49.6484V55.827H55.9686V54.415Z" fill="#6445F1"/>
<path d="M61.2025 54.415H57.2852V55.827H61.2025V54.415Z" fill="white"/>
<path d="M75.0092 48.9248H71.0918V50.3368H75.0092V48.9248Z" fill="#FF4655"/>
<path d="M78.4855 43.4092H33.2012V44.8736H78.4855V43.4092Z" fill="#FF4655"/>
<path d="M59.8076 46.2158H33.2012V47.6803H59.8076V46.2158Z" fill="#1D6DEC"/>
<path d="M41.786 59.9053H33.2012V61.3172H41.786V59.9053Z" fill="#1D6DEC"/>
<path d="M48.8952 59.9053H43.5742V61.3172H48.8952V59.9053Z" fill="white"/>
<path d="M56.2487 59.9053H50.9277V61.3172H56.2487V59.9053Z" fill="#6445F1"/>
<path d="M54.2175 68.1768H48.8965V69.5887H54.2175V68.1768Z" fill="#FF4655"/>
<path d="M61.571 68.1768H56.25V69.5887H61.571V68.1768Z" fill="white"/>
<path d="M47.9828 54.3887H33.2012V55.8531H47.9828V54.3887Z" fill="#FF4655"/>
<path d="M68.4007 57.1963H33.2012V58.6607H68.4007V57.1963Z" fill="#1D6DEC"/>
<path d="M41.786 70.8857H33.2012V72.2977H41.786V70.8857Z" fill="#1D6DEC"/>
<path d="M48.8952 70.8857H43.5742V72.2977H48.8952V70.8857Z" fill="white"/>
<path d="M56.2487 70.8857H50.9277V72.2977H56.2487V70.8857Z" fill="white"/>
<path d="M69.1334 65.3691H33.2012V66.8336H69.1334V65.3691Z" fill="#6445F1"/>
<path d="M47.5356 68.1768H33.2012V69.6412H47.5356V68.1768Z" fill="#1D6DEC"/>
<path d="M41.786 81.8652H33.2012V83.2772H41.786V81.8652Z" fill="#1D6DEC"/>
<path d="M31.2194 43.4346H25.8984V44.8465H31.2194V43.4346Z" fill="#FF4655"/>
<path d="M31.2194 54.415H25.8984V55.827H31.2194V54.415Z" fill="#FF4655"/>
<path d="M31.2194 65.3955H25.8984V66.8075H31.2194V65.3955Z" fill="#6445F1"/>
<path d="M31.2194 76.375H25.8984V77.787H31.2194V76.375Z" fill="white"/>
<path d="M56.2487 81.8652H50.9277V83.2772H56.2487V81.8652Z" fill="#FF4655"/>
<path d="M48.8952 81.8652H43.5742V83.2772H48.8952V81.8652Z" fill="#6445F1"/>
<path d="M78.4855 76.3496H33.2012V77.8141H78.4855V76.3496Z" fill="white"/>
<path d="M59.8076 79.1562H33.2012V80.6207H59.8076V79.1562Z" fill="#6445F1"/>
<path d="M34.2219 92.6906H15.3447C13.1235 92.688 10.994 91.8045 9.42339 90.2339C7.85279 88.6633 6.96932 86.5338 6.9668 84.3126C6.96609 82.1059 7.82093 79.9849 9.35162 78.3954C10.8479 76.8315 12.8513 75.9346 14.8479 75.9346H21.6365C21.7533 75.9346 21.8653 75.981 21.9479 76.0635C22.0304 76.1461 22.0768 76.2581 22.0768 76.3749C22.0768 76.4916 22.0304 76.6036 21.9479 76.6862C21.8653 76.7688 21.7533 76.8151 21.6365 76.8151H14.8481C11.1188 76.8151 7.8475 80.3189 7.8475 84.3126C7.84974 86.3002 8.64028 88.2058 10.0457 89.6114C11.4511 91.0169 13.3566 91.8076 15.3443 91.81H34.2219C34.3386 91.81 34.4506 91.8564 34.5332 91.939C34.6158 92.0215 34.6621 92.1335 34.6621 92.2503C34.6621 92.3671 34.6158 92.4791 34.5332 92.5616C34.4506 92.6442 34.3386 92.6906 34.2219 92.6906Z" fill="#6445F1"/>
<path d="M42.1394 93.2651C42.6996 93.2651 43.1538 92.8109 43.1538 92.2507C43.1538 91.6905 42.6996 91.2363 42.1394 91.2363C41.5792 91.2363 41.125 91.6905 41.125 92.2507C41.125 92.8109 41.5792 93.2651 42.1394 93.2651Z" fill="#6445F1"/>
<path d="M39.239 93.2651C39.7992 93.2651 40.2534 92.8109 40.2534 92.2507C40.2534 91.6905 39.7992 91.2363 39.239 91.2363C38.6788 91.2363 38.2246 91.6905 38.2246 92.2507C38.2246 92.8109 38.6788 93.2651 39.239 93.2651Z" fill="#6445F1"/>
<path d="M36.3366 93.2651C36.8969 93.2651 37.351 92.8109 37.351 92.2507C37.351 91.6905 36.8969 91.2363 36.3366 91.2363C35.7764 91.2363 35.3223 91.6905 35.3223 92.2507C35.3223 92.8109 35.7764 93.2651 36.3366 93.2651Z" fill="#6445F1"/>
<path d="M202.901 97.877H143.16C142.528 97.8763 141.921 97.6248 141.475 97.1778C141.028 96.7308 140.776 96.1248 140.775 95.4927V52.1734C140.776 51.5412 141.028 50.9352 141.475 50.4882C141.921 50.0412 142.528 49.7898 143.16 49.7891H202.901C203.533 49.7898 204.139 50.0412 204.586 50.4882C205.033 50.9352 205.285 51.5412 205.285 52.1734V95.4927C205.285 96.1248 205.033 96.7308 204.586 97.1778C204.139 97.6248 203.533 97.8763 202.901 97.877ZM143.16 50.6696C142.761 50.6701 142.379 50.8287 142.097 51.1106C141.815 51.3925 141.656 51.7747 141.656 52.1734V95.4927C141.656 95.8913 141.815 96.2735 142.097 96.5555C142.379 96.8374 142.761 96.9959 143.16 96.9964H202.901C203.3 96.9959 203.682 96.8374 203.964 96.5555C204.246 96.2735 204.404 95.8913 204.405 95.4927V52.1734C204.404 51.7747 204.246 51.3925 203.964 51.1106C203.682 50.8287 203.3 50.6701 202.901 50.6696H143.16Z" fill="#6445F1"/>
<path d="M209.248 56.5774V99.8967C209.248 100.412 209.043 100.906 208.679 101.271C208.315 101.635 207.82 101.84 207.305 101.84H147.563C147.047 101.84 146.553 101.635 146.189 101.271C145.824 100.906 145.619 100.412 145.619 99.8967V56.5774C145.619 56.062 145.824 55.5678 146.189 55.2033C146.553 54.8389 147.047 54.634 147.563 54.6338H207.304C207.82 54.6338 208.314 54.8386 208.679 55.2031C209.043 55.5675 209.248 56.0619 209.248 56.5774Z" fill="#6595F7"/>
<path d="M164.885 64.2744H152.196C150.059 64.2744 148.327 66.0064 148.327 68.143V76.3443C148.327 78.4809 150.059 80.2129 152.196 80.2129H164.885C167.021 80.2129 168.753 78.4809 168.753 76.3443V68.143C168.753 66.0064 167.021 64.2744 164.885 64.2744Z" fill="white"/>
<path d="M209.249 56.5774V61.9934H145.619V56.5774C145.619 56.062 145.824 55.5678 146.189 55.2033C146.553 54.8389 147.047 54.634 147.563 54.6338H207.304C207.82 54.6337 208.314 54.8384 208.679 55.2029C209.044 55.5673 209.249 56.0618 209.249 56.5774Z" fill="#1D6DEC"/>
<path d="M149.424 59.3393C150.03 59.3393 150.521 58.8482 150.521 58.2424C150.521 57.6366 150.03 57.1455 149.424 57.1455C148.818 57.1455 148.327 57.6366 148.327 58.2424C148.327 58.8482 148.818 59.3393 149.424 59.3393Z" fill="white"/>
<path d="M153.245 59.3393C153.851 59.3393 154.342 58.8482 154.342 58.2424C154.342 57.6366 153.851 57.1455 153.245 57.1455C152.64 57.1455 152.148 57.6366 152.148 58.2424C152.148 58.8482 152.64 59.3393 153.245 59.3393Z" fill="white"/>
<path d="M157.067 59.3393C157.672 59.3393 158.163 58.8482 158.163 58.2424C158.163 57.6366 157.672 57.1455 157.067 57.1455C156.461 57.1455 155.97 57.6366 155.97 58.2424C155.97 58.8482 156.461 59.3393 157.067 59.3393Z" fill="white"/>
<path d="M183.352 64.2744H172.371V66.5389H183.352V64.2744Z" fill="white"/>
<path d="M192.445 64.2744H185.639V66.5389H192.445V64.2744Z" fill="#FF4655"/>
<path d="M201.851 64.2744H195.045V66.5389H201.851V64.2744Z" fill="#1D6DEC"/>
<path d="M183.352 75.9717H172.371V78.2362H183.352V75.9717Z" fill="#1D6DEC"/>
<path d="M192.445 75.9717H185.639V78.2362H192.445V75.9717Z" fill="#1D6DEC"/>
<path d="M201.851 75.9717H195.045V78.2362H201.851V75.9717Z" fill="#FF4655"/>
<path d="M159.308 89.0869H148.327V91.3514H159.308V89.0869Z" fill="#1D6DEC"/>
<path d="M168.401 89.0869H161.595V91.3514H168.401V89.0869Z" fill="white"/>
<path d="M177.806 89.0869H171V91.3514H177.806V89.0869Z" fill="white"/>
<path d="M206.25 94.834H148.327V96.2984H206.25V94.834Z" fill="#1D6DEC"/>
<path d="M182.359 97.6406H148.327V99.1051H182.359V97.6406Z" fill="white"/>
<path d="M206.25 81.7822H148.327V83.2467H206.25V81.7822Z" fill="white"/>
<path d="M182.359 84.5889H148.327V86.0533H182.359V84.5889Z" fill="#1D6DEC"/>
<path d="M206.403 69.0312H172.371V70.4957H206.403V69.0312Z" fill="#1D6DEC"/>
<path d="M192.366 71.8389H172.371V73.3033H192.366V71.8389Z" fill="white"/>
<path d="M216.037 100.234H197.16C197.045 100.232 196.935 100.184 196.854 100.102C196.773 100.02 196.728 99.9087 196.728 99.7932C196.728 99.6777 196.773 99.5668 196.854 99.4845C196.935 99.4021 197.045 99.3548 197.16 99.3528H216.037C218.026 99.3528 219.933 98.5629 221.339 97.1569C222.745 95.7509 223.535 93.8439 223.535 91.8555C223.535 89.8671 222.745 87.9601 221.339 86.554C219.933 85.148 218.026 84.3581 216.037 84.3581H209.249C209.132 84.3581 209.02 84.3117 208.937 84.2292C208.855 84.1466 208.808 84.0346 208.808 83.9178C208.808 83.8011 208.855 83.6891 208.937 83.6065C209.02 83.5239 209.132 83.4775 209.249 83.4775H216.038C218.259 83.4775 220.39 84.3602 221.962 85.9314C223.533 87.5026 224.416 89.6336 224.416 91.8555C224.416 94.0775 223.533 96.2085 221.962 97.7797C220.39 99.3509 218.259 100.234 216.037 100.234Z" fill="#6445F1"/>
<path d="M189.242 100.808C189.802 100.808 190.256 100.354 190.256 99.7937C190.256 99.2334 189.802 98.7793 189.242 98.7793C188.682 98.7793 188.228 99.2334 188.228 99.7937C188.228 100.354 188.682 100.808 189.242 100.808Z" fill="#6445F1"/>
<path d="M192.143 100.808C192.704 100.808 193.158 100.354 193.158 99.7937C193.158 99.2334 192.704 98.7793 192.143 98.7793C191.583 98.7793 191.129 99.2334 191.129 99.7937C191.129 100.354 191.583 100.808 192.143 100.808Z" fill="#6445F1"/>
<path d="M195.045 100.808C195.605 100.808 196.059 100.354 196.059 99.7937C196.059 99.2334 195.605 98.7793 195.045 98.7793C194.484 98.7793 194.03 99.2334 194.03 99.7937C194.03 100.354 194.484 100.808 195.045 100.808Z" fill="#6445F1"/>
<path d="M144.151 159.641H183.387C184.842 159.64 186.237 159.062 187.266 158.033C188.295 157.005 188.873 155.609 188.873 154.154C188.873 152.699 188.295 151.304 187.266 150.275C186.237 149.246 184.842 148.668 183.387 148.668H144.151V159.641Z" fill="#FF4655"/>
<path d="M183.254 158.206H144.152V150.103H183.254C184.325 150.103 185.351 150.528 186.108 151.285C186.865 152.041 187.29 153.068 187.29 154.138V154.17C187.29 154.7 187.186 155.225 186.983 155.715C186.78 156.204 186.483 156.649 186.108 157.024C185.733 157.399 185.288 157.696 184.799 157.899C184.309 158.102 183.784 158.206 183.254 158.206Z" fill="white"/>
<path d="M186.62 151.671H144.151V152.207H186.62V151.671Z" fill="#131313"/>
<path d="M186.3 156.549H144.151V157.085H186.3V156.549Z" fill="#131313"/>
<path d="M187.29 153.886H144.151V154.421H187.29V153.886Z" fill="#131313"/>
<path d="M179.669 148.668H149.078V140.112H179.669C180.804 140.112 181.892 140.563 182.694 141.365C183.497 142.168 183.947 143.256 183.947 144.39C183.947 145.525 183.497 146.613 182.694 147.415C181.892 148.217 180.804 148.668 179.669 148.668Z" fill="#6595F7"/>
<path d="M179.566 147.549H149.078V141.231H179.566C180.401 141.231 181.201 141.562 181.791 142.152C182.381 142.742 182.713 143.543 182.713 144.377V144.403C182.713 145.237 182.381 146.037 181.791 146.627C181.201 147.217 180.401 147.549 179.566 147.549Z" fill="white"/>
<path d="M182.19 142.395H149.077V142.93H182.19V142.395Z" fill="#131313"/>
<path d="M181.94 146.198H149.077V146.734H181.94V146.198Z" fill="#131313"/>
<path d="M182.712 144.122H149.077V144.658H182.712V144.122Z" fill="#131313"/>
<path d="M129.097 160.12H88.726C88.1708 160.12 87.6353 159.914 87.2227 159.543C86.81 159.171 86.5496 158.66 86.4915 158.108L83.5631 130.264C83.5302 129.951 83.5634 129.635 83.6607 129.335C83.758 129.036 83.9172 128.76 84.1279 128.526C84.3386 128.292 84.5961 128.105 84.8837 127.977C85.1714 127.849 85.4827 127.783 85.7976 127.783H132.025C132.34 127.783 132.651 127.849 132.939 127.977C133.227 128.105 133.484 128.292 133.695 128.526C133.906 128.76 134.065 129.036 134.162 129.335C134.259 129.635 134.293 129.951 134.26 130.264L131.331 158.108C131.273 158.66 131.013 159.171 130.6 159.543C130.188 159.914 129.652 160.12 129.097 160.12Z" fill="#6595F7"/>
<path d="M108.961 149.575C111.938 149.575 114.352 147.161 114.352 144.184C114.352 141.207 111.938 138.793 108.961 138.793C105.984 138.793 103.57 141.207 103.57 144.184C103.57 147.161 105.984 149.575 108.961 149.575Z" fill="white"/>
<path d="M48.7186 106.951H47.2578V127.202H48.7186V106.951Z" fill="#131313"/>
<path d="M45.6523 100.134C45.6523 100.134 47.9461 93.9904 50.3289 100.134C50.3289 100.134 47.8975 104.552 45.6523 100.134Z" fill="#FF4655"/>
<path d="M44.7552 99.6171C44.5768 99.5186 44.376 99.4679 44.1722 99.4699C43.9684 99.472 43.7687 99.5267 43.5923 99.6288C43.416 99.7309 43.2691 99.8769 43.1658 100.053C43.0626 100.228 43.0066 100.428 43.0033 100.631C42.9778 102.388 43.3176 104.131 44.001 105.75C44.5111 106.944 45.9157 110.232 47.98 110.238C50.0443 110.244 51.4693 106.956 51.9674 105.806C52.6678 104.169 53.012 102.402 52.9772 100.622C52.9756 100.423 52.923 100.227 52.8243 100.053C52.7257 99.8797 52.5843 99.7344 52.4136 99.631C52.2429 99.5276 52.0486 99.4697 51.8491 99.4626C51.6497 99.4556 51.4518 99.4997 51.2742 99.5908C50.2742 100.133 49.1555 100.419 48.018 100.424C46.8805 100.428 45.7595 100.151 44.7552 99.6172V99.6171Z" fill="#FF4655"/>
<path d="M55.9217 153.052L53.6795 159.392C53.6625 159.46 53.6243 159.521 53.5704 159.565C53.5166 159.61 53.4498 159.636 53.38 159.64H42.5919C42.5184 159.639 42.4481 159.61 42.3946 159.56C42.3467 159.514 42.3115 159.456 42.2924 159.392L40.0501 153.037C37.9611 147.121 37.9611 140.35 40.0427 134.427L40.0501 134.412C41.5651 130.027 41.9863 125.339 41.2771 120.754V120.747C41.2408 120.484 41.3941 120.25 41.5984 120.25H54.3588C54.5632 120.25 54.724 120.484 54.6801 120.747C54.6289 121.091 54.5853 121.433 54.5414 121.777C54.416 122.878 54.3526 123.985 54.3515 125.093C54.3466 128.268 54.8774 131.421 55.9217 134.42C58.0107 140.455 58.0107 147.017 55.9217 153.052Z" fill="#6445F1"/>
<path d="M47.9906 150.264C50.2237 150.264 52.034 146.982 52.034 142.934C52.034 138.885 50.2237 135.604 47.9906 135.604C45.7575 135.604 43.9473 138.885 43.9473 142.934C43.9473 146.982 45.7575 150.264 47.9906 150.264Z" fill="white"/>
</svg>
