<svg width="305" height="326" viewBox="0 0 305 326" fill="none" xmlns="http://www.w3.org/2000/svg">
<path d="M0.888672 7.89533C0.888672 3.53486 4.42353 0 8.784 0H296.251C300.612 0 304.147 3.53486 304.147 7.89533V325.904H0.888672V7.89533Z" fill="#FF7168"/>
<path d="M43.8084 61.5996H41.2977V40.9229H43.6607L54.767 56.8735V40.9229H57.2778V61.5996H54.9147L43.8084 45.649V61.5996ZM74.255 59.3843H75.023V61.5996H73.6938C71.6852 61.5996 71.0058 60.743 70.9763 59.2661C70.0311 60.6249 68.5246 61.7768 65.9253 61.7768C62.617 61.7768 60.3721 60.1227 60.3721 57.3757C60.3721 54.3628 62.4693 52.6791 66.4274 52.6791H70.8581V51.6453C70.8581 49.6958 69.4699 48.5142 67.1068 48.5142C64.9801 48.5142 63.5622 49.5185 63.2668 51.0545H60.8447C61.1992 48.1007 63.5918 46.3579 67.225 46.3579C71.0649 46.3579 73.2803 48.2779 73.2803 51.793V58.38C73.2803 59.1775 73.5756 59.3843 74.255 59.3843ZM70.8581 55.4557V54.7172H66.1911C64.0348 54.7172 62.8238 55.5148 62.8238 57.228C62.8238 58.7049 64.0939 59.7092 66.1025 59.7092C69.1154 59.7092 70.8581 57.9664 70.8581 55.4557ZM78.0075 57.671V48.7505H75.29V46.5352H78.0075V42.3112H80.4296V46.5352H84.3287V48.7505H80.4296V57.6415C80.4296 58.9116 80.8727 59.3843 82.1724 59.3843H84.565V61.5996H81.9361C79.0413 61.5996 78.0075 60.3295 78.0075 57.671ZM97.2089 54.0674V46.5352H99.631V61.5996H97.5338L97.2089 59.591C96.3228 60.7135 94.8754 61.7768 92.3942 61.7768C89.0859 61.7768 86.457 59.9159 86.457 54.924V46.5352H88.8792V54.7763C88.8792 57.9073 90.297 59.5615 92.8077 59.5615C95.5548 59.5615 97.2089 57.4643 97.2089 54.0674ZM109.904 46.5352H110.583V48.8982H109.372C106.212 48.8982 105.355 51.5271 105.355 53.9197V61.5996H102.933V46.5352H105.03L105.355 48.8096C106.064 47.6576 107.216 46.5352 109.904 46.5352ZM125.485 59.3843H126.253V61.5996H124.924C122.915 61.5996 122.236 60.743 122.206 59.2661C121.261 60.6249 119.755 61.7768 117.155 61.7768C113.847 61.7768 111.602 60.1227 111.602 57.3757C111.602 54.3628 113.699 52.6791 117.658 52.6791H122.088V51.6453C122.088 49.6958 120.7 48.5142 118.337 48.5142C116.21 48.5142 114.792 49.5185 114.497 51.0545H112.075C112.429 48.1007 114.822 46.3579 118.455 46.3579C122.295 46.3579 124.51 48.2779 124.51 51.793V58.38C124.51 59.1775 124.806 59.3843 125.485 59.3843ZM122.088 55.4557V54.7172H117.421C115.265 54.7172 114.054 55.5148 114.054 57.228C114.054 58.7049 115.324 59.7092 117.333 59.7092C120.346 59.7092 122.088 57.9664 122.088 55.4557ZM128.115 61.5996V40.9229H130.537V61.5996H128.115ZM62.7131 101.6H42.1691V67.9996H49.3691V95.4076H62.7131V101.6ZM89.3486 95.8876H90.1166V101.6H86.6606C83.1566 101.6 82.0526 99.9196 82.1006 97.5676C80.3726 100.304 77.8766 101.888 74.0366 101.888C68.7086 101.888 64.8686 99.3436 64.8686 94.6396C64.8686 89.4076 68.8046 86.4316 76.1966 86.4316H81.0926V85.2316C81.0926 83.0236 79.5086 81.5836 76.6766 81.5836C74.0366 81.5836 72.2606 82.7836 71.9726 84.6076H65.4446C65.9246 79.8076 70.3406 76.6396 76.8686 76.6396C83.7806 76.6396 87.7646 79.7116 87.7646 85.6156V94.3516C87.7646 95.6476 88.2926 95.8876 89.3486 95.8876ZM81.0926 91.4236V90.9436H76.1486C73.3166 90.9436 71.6846 92.0956 71.6846 94.1596C71.6846 95.8876 73.0766 96.9916 75.3326 96.9916C78.8846 96.9916 81.0446 94.7836 81.0926 91.4236ZM106.895 76.6396C112.223 76.6396 116.783 79.4716 116.783 87.9196V101.6H110.015V88.5916C110.015 84.4156 108.431 82.2076 105.023 82.2076C101.519 82.2076 99.5028 84.7036 99.5028 88.9756V101.6H92.7348V76.9276H98.6388L99.2628 79.9996C100.847 78.0796 103.103 76.6396 106.895 76.6396ZM139.191 80.3356L139.767 76.9276H145.719V100.88C145.719 106.976 141.975 111.488 132.519 111.488C125.655 111.488 120.951 108.368 120.615 102.656H127.431C128.055 105.008 129.927 106.352 133.047 106.352C136.839 106.352 139.095 104.48 139.095 100.64V98.0476C137.463 100.112 135.015 101.456 131.559 101.456C124.935 101.504 120.087 96.6556 120.087 89.0236C120.087 81.4876 124.935 76.5916 131.511 76.5916C135.063 76.5916 137.559 78.1756 139.191 80.3356ZM133.047 96.0316C136.743 96.0316 139.047 93.1996 139.047 89.1196C139.047 84.9916 136.743 82.0636 133.047 82.0636C129.351 82.0636 126.999 84.9436 126.999 89.0716C126.999 93.1996 129.351 96.0316 133.047 96.0316ZM166.902 89.2636V76.9276H173.67V101.6H167.67L167.046 98.6236C165.462 100.544 163.302 101.888 159.798 101.888C154.71 101.888 150.006 99.3436 150.006 90.6076V76.9276H156.774V89.6956C156.774 94.1116 158.214 96.2716 161.574 96.2716C164.934 96.2716 166.902 93.8236 166.902 89.2636ZM201.895 95.8876H202.663V101.6H199.207C195.703 101.6 194.599 99.9196 194.647 97.5676C192.919 100.304 190.423 101.888 186.583 101.888C181.255 101.888 177.415 99.3436 177.415 94.6396C177.415 89.4076 181.351 86.4316 188.743 86.4316H193.639V85.2316C193.639 83.0236 192.055 81.5836 189.223 81.5836C186.583 81.5836 184.807 82.7836 184.519 84.6076H177.991C178.471 79.8076 182.887 76.6396 189.415 76.6396C196.327 76.6396 200.311 79.7116 200.311 85.6156V94.3516C200.311 95.6476 200.839 95.8876 201.895 95.8876ZM193.639 91.4236V90.9436H188.695C185.863 90.9436 184.231 92.0956 184.231 94.1596C184.231 95.8876 185.623 96.9916 187.879 96.9916C191.431 96.9916 193.591 94.7836 193.639 91.4236ZM223.426 80.3356L224.002 76.9276H229.954V100.88C229.954 106.976 226.21 111.488 216.754 111.488C209.89 111.488 205.186 108.368 204.85 102.656H211.666C212.29 105.008 214.162 106.352 217.282 106.352C221.074 106.352 223.33 104.48 223.33 100.64V98.0476C221.698 100.112 219.25 101.456 215.794 101.456C209.17 101.504 204.322 96.6556 204.322 89.0236C204.322 81.4876 209.17 76.5916 215.746 76.5916C219.298 76.5916 221.794 78.1756 223.426 80.3356ZM217.282 96.0316C220.978 96.0316 223.282 93.1996 223.282 89.1196C223.282 84.9916 220.978 82.0636 217.282 82.0636C213.586 82.0636 211.234 84.9436 211.234 89.0716C211.234 93.1996 213.586 96.0316 217.282 96.0316ZM246.864 101.888C238.656 101.888 233.712 96.9436 233.712 89.3116C233.712 81.6316 238.752 76.6396 246.384 76.6396C253.776 76.6396 258.768 81.2476 258.864 88.4956C258.864 89.2156 258.816 90.0316 258.672 90.7996H240.768V91.1356C240.912 94.6396 243.168 96.7516 246.576 96.7516C249.312 96.7516 251.232 95.5516 251.808 93.2476H258.48C257.712 98.0476 253.44 101.888 246.864 101.888ZM240.912 86.3836H252.048C251.568 83.3596 249.504 81.6796 246.432 81.6796C243.504 81.6796 241.296 83.4556 240.912 86.3836Z" fill="white"/>
<circle opacity="0.5" cx="153.009" cy="215.136" r="80.2452" fill="#FFC095"/>
<path d="M105.924 172.177H54.4494C53.903 172.176 53.3792 171.959 52.9929 171.572C52.6066 171.186 52.3893 170.662 52.3887 170.116V132.791C52.3893 132.245 52.6066 131.721 52.993 131.335C53.3793 130.948 53.903 130.731 54.4494 130.73H105.924C106.47 130.731 106.994 130.948 107.38 131.335C107.766 131.721 107.984 132.245 107.984 132.791V170.116C107.984 170.662 107.766 171.186 107.38 171.572C106.994 171.958 106.47 172.176 105.924 172.177ZM54.4494 131.502C54.1075 131.502 53.7797 131.638 53.538 131.88C53.2962 132.121 53.1602 132.449 53.1598 132.791V170.116C53.1602 170.458 53.2962 170.786 53.5379 171.027C53.7797 171.269 54.1075 171.405 54.4494 171.405H105.924C106.266 171.405 106.593 171.269 106.835 171.027C107.077 170.786 107.213 170.458 107.213 170.116V132.791C107.213 132.449 107.077 132.121 106.835 131.88C106.593 131.638 106.266 131.502 105.924 131.502H54.4494Z" fill="#6595F7"/>
<path d="M111.393 136.585V173.91C111.393 174.354 111.216 174.78 110.902 175.094C110.588 175.409 110.162 175.585 109.718 175.585H58.2433C57.7991 175.585 57.3731 175.409 57.059 175.094C56.745 174.78 56.5685 174.354 56.5684 173.91V136.585C56.5685 136.141 56.745 135.715 57.0591 135.401C57.3731 135.087 57.7991 134.91 58.2433 134.91H109.718C110.162 134.91 110.588 135.087 110.902 135.401C111.216 135.715 111.392 136.141 111.393 136.585Z" fill="#6445F1"/>
<path d="M111.393 136.585V141.252H56.5684V136.585C56.5685 136.141 56.745 135.715 57.0591 135.401C57.3731 135.087 57.7991 134.91 58.2433 134.91H109.718C110.162 134.91 110.588 135.087 110.902 135.401C111.216 135.715 111.392 136.141 111.393 136.585Z" fill="#131313"/>
<path d="M59.8474 138.965C60.3693 138.965 60.7924 138.542 60.7924 138.02C60.7924 137.498 60.3693 137.075 59.8474 137.075C59.3255 137.075 58.9023 137.498 58.9023 138.02C58.9023 138.542 59.3255 138.965 59.8474 138.965Z" fill="white"/>
<path d="M63.1384 138.965C63.6603 138.965 64.0834 138.542 64.0834 138.02C64.0834 137.498 63.6603 137.075 63.1384 137.075C62.6165 137.075 62.1934 137.498 62.1934 138.02C62.1934 138.542 62.6165 138.965 63.1384 138.965Z" fill="white"/>
<path d="M66.4314 138.965C66.9533 138.965 67.3764 138.542 67.3764 138.02C67.3764 137.498 66.9533 137.075 66.4314 137.075C65.9094 137.075 65.4863 137.498 65.4863 138.02C65.4863 138.542 65.9094 138.965 66.4314 138.965Z" fill="white"/>
<path d="M68.3635 143.904H58.9023V145.855H68.3635V143.904Z" fill="white"/>
<path d="M108.809 169.548H58.9023V170.81H108.809V169.548Z" fill="white"/>
<path d="M88.2248 171.967H58.9023V173.229H88.2248V171.967Z" fill="white"/>
<path d="M257.025 259.104H205.551C205.004 259.103 204.481 258.886 204.094 258.5C203.708 258.114 203.491 257.59 203.49 257.043V219.719C203.491 219.172 203.708 218.649 204.094 218.262C204.481 217.876 205.004 217.659 205.551 217.658H257.025C257.572 217.659 258.095 217.876 258.482 218.262C258.868 218.649 259.085 219.172 259.086 219.719V257.043C259.085 257.59 258.868 258.114 258.482 258.5C258.095 258.886 257.572 259.103 257.025 259.104ZM205.551 218.429C205.209 218.43 204.881 218.566 204.639 218.807C204.398 219.049 204.262 219.377 204.261 219.719V257.043C204.262 257.385 204.398 257.713 204.639 257.955C204.881 258.197 205.209 258.333 205.551 258.333H257.025C257.367 258.333 257.695 258.197 257.937 257.955C258.178 257.713 258.314 257.385 258.315 257.043V219.719C258.314 219.377 258.178 219.049 257.937 218.807C257.695 218.566 257.367 218.43 257.025 218.429H205.551Z" fill="#6595F7"/>
<path d="M262.494 223.512V260.837C262.494 261.281 262.318 261.707 262.003 262.021C261.689 262.335 261.263 262.511 260.819 262.512H209.345C208.901 262.512 208.475 262.335 208.161 262.021C207.847 261.707 207.67 261.281 207.67 260.837V223.512C207.67 223.068 207.847 222.642 208.161 222.328C208.475 222.014 208.901 221.837 209.345 221.837H260.819C261.263 221.837 261.689 222.014 262.003 222.328C262.318 222.642 262.494 223.068 262.494 223.512Z" fill="#6445F1"/>
<path d="M262.494 223.512V228.179H207.67V223.512C207.67 223.068 207.847 222.642 208.161 222.328C208.475 222.014 208.901 221.837 209.345 221.837H260.819C261.263 221.837 261.689 222.014 262.003 222.328C262.318 222.642 262.494 223.068 262.494 223.512Z" fill="#131313"/>
<path d="M210.949 225.893C211.471 225.893 211.894 225.47 211.894 224.948C211.894 224.426 211.471 224.003 210.949 224.003C210.427 224.003 210.004 224.426 210.004 224.948C210.004 225.47 210.427 225.893 210.949 225.893Z" fill="white"/>
<path d="M214.24 225.893C214.762 225.893 215.185 225.47 215.185 224.948C215.185 224.426 214.762 224.003 214.24 224.003C213.718 224.003 213.295 224.426 213.295 224.948C213.295 225.47 213.718 225.893 214.24 225.893Z" fill="white"/>
<path d="M217.533 225.893C218.055 225.893 218.478 225.47 218.478 224.948C218.478 224.426 218.055 224.003 217.533 224.003C217.011 224.003 216.588 224.426 216.588 224.948C216.588 225.47 217.011 225.893 217.533 225.893Z" fill="white"/>
<path d="M219.465 230.832H210.004V232.783H219.465V230.832Z" fill="white"/>
<path d="M259.911 256.476H210.004V257.737H259.911V256.476Z" fill="white"/>
<path d="M239.326 258.895H210.004V260.156H239.326V258.895Z" fill="white"/>
<path d="M231.279 185.221H179.805C179.258 185.221 178.735 185.004 178.348 184.617C177.962 184.231 177.745 183.707 177.744 183.161V145.836C177.745 145.29 177.962 144.766 178.348 144.38C178.735 143.993 179.259 143.776 179.805 143.775H231.279C231.825 143.776 232.349 143.993 232.735 144.38C233.122 144.766 233.339 145.29 233.34 145.836V183.161C233.339 183.707 233.122 184.231 232.735 184.617C232.349 185.004 231.825 185.221 231.279 185.221ZM179.805 144.547C179.463 144.547 179.135 144.683 178.893 144.925C178.652 145.166 178.516 145.494 178.515 145.836V183.161C178.516 183.503 178.652 183.83 178.893 184.072C179.135 184.314 179.463 184.45 179.805 184.45H231.279C231.621 184.45 231.949 184.314 232.19 184.072C232.432 183.83 232.568 183.503 232.569 183.161V145.836C232.568 145.494 232.432 145.166 232.19 144.925C231.949 144.683 231.621 144.547 231.279 144.547H179.805Z" fill="#6595F7"/>
<path d="M236.748 149.63V186.955C236.748 187.399 236.571 187.825 236.257 188.139C235.943 188.453 235.517 188.63 235.073 188.63H183.599C183.155 188.63 182.729 188.453 182.415 188.139C182.1 187.825 181.924 187.399 181.924 186.955V149.63C181.924 149.186 182.1 148.76 182.415 148.446C182.729 148.132 183.155 147.955 183.599 147.955H235.073C235.517 147.955 235.943 148.132 236.257 148.446C236.571 148.76 236.748 149.186 236.748 149.63Z" fill="#6595F7"/>
<path d="M236.748 149.63V154.297H181.924V149.63C181.924 149.186 182.1 148.76 182.415 148.446C182.729 148.132 183.155 147.955 183.599 147.955H235.073C235.517 147.955 235.943 148.132 236.257 148.446C236.571 148.76 236.748 149.186 236.748 149.63Z" fill="#1D6DEC"/>
<path d="M185.203 152.01C185.725 152.01 186.148 151.587 186.148 151.065C186.148 150.543 185.725 150.12 185.203 150.12C184.681 150.12 184.258 150.543 184.258 151.065C184.258 151.587 184.681 152.01 185.203 152.01Z" fill="white"/>
<path d="M188.496 152.01C189.018 152.01 189.441 151.587 189.441 151.065C189.441 150.543 189.018 150.12 188.496 150.12C187.974 150.12 187.551 150.543 187.551 151.065C187.551 151.587 187.974 152.01 188.496 152.01Z" fill="white"/>
<path d="M191.787 152.01C192.309 152.01 192.732 151.587 192.732 151.065C192.732 150.543 192.309 150.12 191.787 150.12C191.265 150.12 190.842 150.543 190.842 151.065C190.842 151.587 191.265 152.01 191.787 152.01Z" fill="white"/>
<path d="M193.719 156.949H184.258V158.9H193.719V156.949Z" fill="white"/>
<path d="M234.165 182.593H184.258V183.855H234.165V182.593Z" fill="white"/>
<path d="M213.58 185.012H184.258V186.273H213.58V185.012Z" fill="white"/>
<path d="M113.037 277.914H61.5626C61.0163 277.914 60.4925 277.696 60.1062 277.31C59.7199 276.924 59.5026 276.4 59.502 275.854V238.528C59.5026 237.982 59.7199 237.458 60.1062 237.072C60.4926 236.686 61.0163 236.468 61.5626 236.468H113.037C113.583 236.468 114.107 236.686 114.493 237.072C114.88 237.458 115.097 237.982 115.098 238.528V275.853C115.097 276.399 114.88 276.923 114.493 277.31C114.107 277.696 113.583 277.914 113.037 277.914ZM61.5626 237.239C61.2208 237.239 60.893 237.375 60.6512 237.617C60.4095 237.859 60.2735 238.186 60.273 238.528V275.853C60.2735 276.195 60.4094 276.523 60.6512 276.764C60.893 277.006 61.2207 277.142 61.5626 277.143H113.037C113.379 277.142 113.706 277.006 113.948 276.764C114.19 276.523 114.326 276.195 114.326 275.853V238.528C114.326 238.186 114.19 237.859 113.948 237.617C113.706 237.375 113.379 237.239 113.037 237.239H61.5626Z" fill="#6595F7"/>
<path d="M118.506 242.322V279.647C118.506 280.091 118.329 280.517 118.015 280.832C117.701 281.146 117.275 281.322 116.831 281.322H65.3567C64.9125 281.322 64.4865 281.146 64.1724 280.832C63.8583 280.517 63.6818 280.091 63.6816 279.647V242.322C63.6818 241.878 63.8583 241.452 64.1724 241.138C64.4865 240.824 64.9125 240.648 65.3567 240.647H116.831C117.275 240.648 117.701 240.824 118.015 241.138C118.329 241.452 118.506 241.878 118.506 242.322Z" fill="#6595F7"/>
<path d="M118.506 242.322V246.989H63.6816V242.322C63.6818 241.878 63.8583 241.452 64.1724 241.138C64.4865 240.824 64.9125 240.648 65.3567 240.647H116.831C117.275 240.648 117.701 240.824 118.015 241.138C118.329 241.452 118.505 241.878 118.506 242.322Z" fill="#1D6DEC"/>
<path d="M66.9607 244.703C67.4826 244.703 67.9057 244.279 67.9057 243.758C67.9057 243.236 67.4826 242.812 66.9607 242.812C66.4387 242.812 66.0156 243.236 66.0156 243.758C66.0156 244.279 66.4387 244.703 66.9607 244.703Z" fill="white"/>
<path d="M70.2517 244.703C70.7736 244.703 71.1967 244.279 71.1967 243.758C71.1967 243.236 70.7736 242.812 70.2517 242.812C69.7297 242.812 69.3066 243.236 69.3066 243.758C69.3066 244.279 69.7297 244.703 70.2517 244.703Z" fill="white"/>
<path d="M73.5446 244.703C74.0666 244.703 74.4897 244.279 74.4897 243.758C74.4897 243.236 74.0666 242.812 73.5446 242.812C73.0227 242.812 72.5996 243.236 72.5996 243.758C72.5996 244.279 73.0227 244.703 73.5446 244.703Z" fill="white"/>
<path d="M75.4768 249.642H66.0156V251.593H75.4768V249.642Z" fill="white"/>
<path d="M115.923 275.286H66.0156V276.548H115.923V275.286Z" fill="white"/>
<path d="M95.3381 277.704H66.0156V278.966H95.3381V277.704Z" fill="white"/>
<path d="M186.879 275.01L184.599 271.347L178.473 279.071L181.227 282.656L186.879 275.01Z" fill="#F59060"/>
<path d="M192.764 283.099L193.313 284.015L183.365 296.586C183.14 296.314 182.948 296.016 182.795 295.698C182.499 295.08 182.329 294.409 182.293 293.725C182.257 293.041 182.357 292.357 182.586 291.711C182.727 291.329 182.837 290.937 182.915 290.537C183.729 286.411 180.898 282.567 180.898 282.567L186.878 275.01L192.764 283.099Z" fill="#FCB913"/>
<path d="M192.764 283.1L193.313 284.016L183.365 296.587C183.14 296.315 182.948 296.017 182.795 295.698L192.764 283.1Z" fill="#131313"/>
<path d="M182.706 281.76C183.784 284.003 186.058 289.467 182.916 290.537C183.729 286.41 180.899 282.567 180.899 282.567C180.899 282.567 180.248 281.186 181.168 280.853C181.329 280.803 181.499 280.792 181.664 280.823C181.829 280.854 181.984 280.925 182.115 281.03C182.369 281.221 182.572 281.471 182.706 281.76Z" fill="white"/>
<path d="M185.128 288.532C185.139 288.517 185.146 288.501 185.15 288.483C185.154 288.465 185.154 288.447 185.151 288.429C185.14 288.366 185.093 288.322 185.046 288.331C184.345 288.462 183.061 289.286 183.006 289.321C182.984 289.339 182.969 289.364 182.963 289.392C182.958 289.42 182.962 289.449 182.975 289.475C183 289.532 183.055 289.557 183.098 289.529C183.111 289.52 184.41 288.686 185.084 288.559C185.101 288.556 185.117 288.546 185.128 288.532Z" fill="#131313"/>
<path d="M185.041 285.465C185.052 285.449 185.06 285.43 185.064 285.411C185.067 285.391 185.067 285.371 185.062 285.352C185.048 285.288 184.998 285.244 184.951 285.257C184.041 285.499 182.881 287.13 182.832 287.199C182.816 287.225 182.809 287.255 182.811 287.285C182.813 287.315 182.824 287.344 182.843 287.367C182.85 287.378 182.86 287.387 182.871 287.393C182.882 287.399 182.894 287.402 182.907 287.402C182.92 287.403 182.932 287.4 182.943 287.394C182.955 287.388 182.964 287.38 182.972 287.369C182.983 287.353 184.144 285.721 185.001 285.492C185.017 285.488 185.031 285.478 185.041 285.465Z" fill="#131313"/>
<path d="M182.324 285.195C182.329 285.189 182.333 285.183 182.336 285.176C182.343 285.162 183.045 283.725 183.856 282.963C183.876 282.939 183.888 282.91 183.89 282.879C183.892 282.848 183.885 282.817 183.869 282.791C183.836 282.733 183.778 282.716 183.739 282.753C182.9 283.539 182.204 284.967 182.175 285.027C182.162 285.056 182.159 285.088 182.165 285.118C182.171 285.149 182.186 285.177 182.208 285.199C182.216 285.207 182.225 285.214 182.235 285.218C182.245 285.222 182.256 285.224 182.267 285.224C182.278 285.224 182.289 285.221 182.299 285.216C182.309 285.211 182.317 285.204 182.324 285.195Z" fill="#131313"/>
<path d="M182.85 280.855C182.865 280.833 182.873 280.808 182.875 280.781C182.877 280.755 182.872 280.729 182.861 280.705C182.833 280.64 182.775 280.61 182.73 280.639C182.271 280.934 181.08 282.706 181.03 282.781C181.014 282.809 181.007 282.842 181.01 282.874C181.013 282.906 181.026 282.936 181.047 282.961C181.054 282.972 181.064 282.982 181.075 282.988C181.087 282.995 181.1 282.999 181.113 282.999C181.127 282.999 181.14 282.996 181.152 282.99C181.164 282.984 181.174 282.975 181.182 282.964C181.194 282.945 182.4 281.151 182.83 280.874C182.838 280.869 182.844 280.863 182.85 280.855Z" fill="#131313"/>
<path d="M179.416 283.86C179.155 283.753 178.96 283.475 178.836 283.034C178.716 282.607 178.733 282.289 178.897 282.093C179.406 281.472 181.107 282.384 181.296 282.488L181.443 282.569L181.342 282.701C181.339 282.705 181.332 282.715 181.32 282.73C181.151 282.942 180.147 284.16 179.416 283.86ZM179.021 282.981C179.12 283.332 179.26 283.541 179.45 283.619C179.953 283.827 180.725 283.076 181.091 282.641C180.522 282.355 179.373 281.893 179.045 282.294L179.042 282.298C178.937 282.431 178.93 282.655 179.021 282.981V282.981Z" fill="#131313"/>
<path d="M181.149 284.783C181.039 284.744 180.94 284.679 180.861 284.593C180.782 284.507 180.725 284.403 180.695 284.29C180.503 283.608 181.161 282.63 181.237 282.52L181.333 282.382L181.399 282.574C181.456 282.743 181.947 284.213 181.642 284.683C181.635 284.693 181.627 284.703 181.62 284.713C181.518 284.842 181.36 284.866 181.149 284.783ZM180.875 284.233C180.896 284.307 180.936 284.374 180.989 284.428C181.043 284.483 181.109 284.524 181.182 284.547C181.409 284.636 181.471 284.54 181.491 284.509C181.65 284.265 181.473 283.439 181.292 282.853C181.081 283.2 180.765 283.841 180.875 284.233Z" fill="#131313"/>
<path d="M183.661 285.346C183.681 285.319 183.689 285.284 183.685 285.251C183.676 285.168 183.46 283.186 182.437 283.047C181.567 282.928 181.397 282.568 181.396 282.565C181.368 282.503 181.31 282.472 181.265 282.497C181.242 282.515 181.225 282.541 181.218 282.57C181.212 282.599 181.215 282.629 181.227 282.656C181.247 282.707 181.445 283.162 182.442 283.296C183.299 283.411 183.501 285.24 183.503 285.258C183.51 285.325 183.557 285.378 183.607 285.376C183.617 285.375 183.628 285.372 183.637 285.367C183.646 285.362 183.654 285.355 183.661 285.346Z" fill="#131313"/>
<path d="M185.687 273.097L179.503 280.414L179.066 279.846L185.687 273.097Z" fill="#131313"/>
<path d="M129.211 273.776L126.931 270.113L120.805 277.838L123.559 281.423L129.211 273.776Z" fill="#F59060"/>
<path d="M135.096 281.867L135.645 282.782L125.697 295.354C125.472 295.082 125.28 294.784 125.126 294.465C124.831 293.847 124.661 293.177 124.625 292.493C124.589 291.809 124.689 291.124 124.918 290.479C125.059 290.097 125.169 289.704 125.247 289.305C126.06 285.179 123.23 281.335 123.23 281.335L129.21 273.777L135.096 281.867Z" fill="#FCB913"/>
<path d="M135.096 281.866L135.646 282.782L125.697 295.354C125.472 295.082 125.28 294.783 125.127 294.465L135.096 281.866Z" fill="#131313"/>
<path d="M125.038 280.527C126.116 282.771 128.391 288.235 125.248 289.304C126.061 285.178 123.231 281.334 123.231 281.334C123.231 281.334 122.58 279.954 123.501 279.621C123.661 279.57 123.831 279.56 123.996 279.591C124.161 279.621 124.316 279.693 124.446 279.798C124.701 279.988 124.904 280.239 125.038 280.527Z" fill="white"/>
<path d="M127.46 287.3C127.471 287.285 127.478 287.268 127.482 287.251C127.486 287.233 127.486 287.215 127.483 287.197C127.472 287.134 127.425 287.09 127.378 287.099C126.677 287.23 125.393 288.053 125.338 288.088C125.316 288.107 125.301 288.132 125.296 288.16C125.29 288.188 125.294 288.217 125.307 288.242C125.332 288.3 125.387 288.324 125.43 288.297C125.443 288.288 126.742 287.454 127.416 287.327C127.433 287.323 127.449 287.314 127.46 287.3Z" fill="#131313"/>
<path d="M127.373 284.233C127.384 284.217 127.392 284.198 127.396 284.178C127.4 284.159 127.399 284.139 127.394 284.119C127.38 284.054 127.33 284.012 127.283 284.025C126.372 284.267 125.213 285.898 125.164 285.967C125.148 285.992 125.141 286.022 125.143 286.052C125.145 286.083 125.156 286.111 125.175 286.135C125.182 286.145 125.192 286.154 125.203 286.16C125.214 286.167 125.226 286.17 125.239 286.17C125.252 286.17 125.264 286.167 125.276 286.161C125.287 286.156 125.296 286.147 125.304 286.137C125.315 286.12 126.476 284.489 127.333 284.26C127.349 284.255 127.363 284.246 127.373 284.233Z" fill="#131313"/>
<path d="M124.654 283.961C124.659 283.955 124.663 283.949 124.666 283.942C124.673 283.928 125.375 282.491 126.186 281.729C126.206 281.705 126.218 281.676 126.22 281.645C126.222 281.615 126.215 281.584 126.199 281.557C126.167 281.5 126.108 281.483 126.069 281.52C125.23 282.306 124.534 283.734 124.505 283.794C124.492 283.823 124.489 283.855 124.495 283.885C124.501 283.916 124.516 283.944 124.538 283.966C124.546 283.974 124.555 283.981 124.565 283.985C124.575 283.989 124.586 283.991 124.597 283.991C124.608 283.99 124.619 283.987 124.629 283.982C124.639 283.977 124.648 283.97 124.654 283.961Z" fill="#131313"/>
<path d="M125.182 279.622C125.196 279.6 125.205 279.575 125.207 279.548C125.209 279.522 125.204 279.495 125.193 279.471C125.165 279.406 125.107 279.377 125.062 279.406C124.603 279.701 123.412 281.473 123.362 281.548C123.346 281.576 123.339 281.608 123.343 281.64C123.346 281.672 123.358 281.703 123.379 281.727C123.386 281.739 123.396 281.748 123.407 281.755C123.419 281.762 123.432 281.765 123.446 281.765C123.459 281.766 123.472 281.763 123.484 281.756C123.496 281.75 123.506 281.741 123.514 281.73C123.526 281.712 124.732 279.917 125.162 279.64C125.17 279.635 125.176 279.629 125.182 279.622Z" fill="#131313"/>
<path d="M121.748 282.627C121.487 282.52 121.292 282.242 121.168 281.801C121.048 281.374 121.065 281.056 121.229 280.86C121.737 280.238 123.439 281.151 123.628 281.255L123.775 281.336L123.674 281.467C123.671 281.471 123.663 281.481 123.652 281.496C123.483 281.709 122.478 282.927 121.748 282.627ZM121.353 281.747C121.452 282.099 121.592 282.307 121.782 282.386C122.285 282.594 123.057 281.842 123.423 281.407C122.854 281.121 121.705 280.66 121.378 281.061L121.374 281.065C121.269 281.198 121.262 281.422 121.353 281.747Z" fill="#131313"/>
<path d="M123.481 283.55C123.371 283.511 123.273 283.445 123.193 283.36C123.114 283.274 123.057 283.17 123.027 283.057C122.835 282.375 123.494 281.396 123.569 281.287L123.665 281.148L123.731 281.341C123.788 281.509 124.279 282.979 123.974 283.449C123.967 283.46 123.96 283.47 123.952 283.48C123.85 283.609 123.692 283.632 123.481 283.55ZM123.207 283C123.228 283.073 123.268 283.14 123.322 283.195C123.375 283.249 123.442 283.29 123.515 283.313C123.741 283.403 123.803 283.307 123.823 283.276C123.982 283.032 123.805 282.205 123.624 281.62C123.413 281.967 123.097 282.607 123.207 283Z" fill="#131313"/>
<path d="M125.991 284.114C126.011 284.086 126.019 284.052 126.015 284.018C126.006 283.935 125.79 281.954 124.767 281.814C123.897 281.696 123.727 281.336 123.726 281.332C123.698 281.27 123.64 281.239 123.595 281.265C123.572 281.283 123.555 281.309 123.548 281.337C123.542 281.366 123.545 281.397 123.558 281.423C123.577 281.475 123.776 281.929 124.772 282.063C125.629 282.179 125.832 284.008 125.833 284.026C125.84 284.093 125.887 284.145 125.937 284.143C125.947 284.142 125.958 284.14 125.967 284.134C125.976 284.129 125.985 284.122 125.991 284.114Z" fill="#131313"/>
<path d="M128.389 272.455L122.001 279.394L121.404 278.618L128.389 272.455Z" fill="#131313"/>
<path d="M110.804 216.216L94.3923 234.972C92.7303 236.872 91.8113 239.308 91.8047 241.832C91.7981 244.356 92.7045 246.797 94.3565 248.705L120.754 279.193L129.327 271.628L109.902 243.18L130.377 229.325L178.276 280.653L185.894 272.887L143.835 212.28L110.804 216.216Z" fill="#6445F1"/>
<path d="M69.9878 173.22C69.9878 173.22 65.1664 168.676 59.7458 166.436C59.6936 166.415 59.636 166.411 59.5814 166.425C59.5268 166.439 59.478 166.47 59.442 166.513C59.4061 166.556 59.3848 166.61 59.3814 166.666C59.3779 166.722 59.3924 166.778 59.4228 166.826L61.6933 170.372L59.5639 175.817C59.4298 176.16 59.4112 176.537 59.5109 176.891C59.6106 177.245 59.8232 177.558 60.1164 177.78L64.0931 180.8L69.9878 173.22Z" fill="#F59060"/>
<path d="M128.726 158.576C128.463 160.445 128.384 162.335 128.488 164.22L126.495 164.641L126.422 170.667L126.418 170.943C126.46 172.108 126.047 173.244 125.267 174.11C124.487 174.976 123.4 175.505 122.237 175.585C122.079 175.595 121.921 175.596 121.764 175.59C121.312 175.573 120.868 175.467 120.459 175.276C120.049 175.086 119.681 174.816 119.377 174.482C119.072 174.148 118.837 173.756 118.686 173.331C118.535 172.905 118.469 172.453 118.495 172.002L118.704 168.179C115.769 167.268 114.607 164.711 114.304 161.864C114.26 161.448 114.236 161.028 114.227 160.601C114.207 159.602 114.256 158.604 114.375 157.613C114.476 156.728 114.62 155.877 114.773 155.105C115.395 152.024 117.912 149.627 121.041 149.309C127.443 148.656 128.213 157.445 128.28 158.459L128.287 158.556C128.433 158.549 128.58 158.556 128.726 158.576Z" fill="#F59060"/>
<path d="M120.365 162.529C120.669 161.592 120.63 160.852 120.249 160.329C119.708 159.585 118.688 159.576 118.645 159.576V159.746V159.917C118.653 159.917 119.538 159.927 119.975 160.531C120.287 160.961 120.309 161.598 120.041 162.424L120.365 162.529Z" fill="#131313"/>
<path d="M113.701 156.026C113.636 156.332 113.602 156.645 113.601 156.958C113.479 157.764 113.652 159.58 117.927 158.968C122.837 158.265 121.709 163.855 119.122 163.877C119.037 163.876 118.953 163.896 118.877 163.935C118.802 163.974 118.737 164.03 118.688 164.1C118.639 164.169 118.607 164.249 118.596 164.334C118.585 164.418 118.594 164.504 118.623 164.583C118.896 165.329 119.21 166.438 119.185 167.543C119.145 169.309 120.577 170.749 122.339 170.632L126.796 170.335C127.429 170.294 128.032 170.049 128.515 169.637C128.998 169.225 129.334 168.668 129.475 168.049C130.433 163.8 131.763 154.398 125.946 150.649C122.981 148.89 119.426 148.88 116.993 150.602C116.993 150.602 114.508 152.36 113.701 156.026Z" fill="#131313"/>
<path d="M153.2 208.945C153.153 209.044 153.102 209.142 153.049 209.239C152.336 210.551 151.217 211.597 149.86 212.221C148.504 212.845 146.981 213.013 145.521 212.7C144.981 212.584 144.419 212.444 143.835 212.28C143.835 212.28 137.417 220.604 121.193 218.614C121.085 218.603 120.978 218.588 120.868 218.573C117.855 218.182 114.507 217.435 110.804 216.216C110.804 216.216 110.73 213.823 110.544 210.701C110.538 210.59 110.532 210.481 110.523 210.368C110.233 205.632 109.687 199.399 108.757 197.226C108.67 197.024 108.589 196.815 108.51 196.604C108.471 196.496 108.432 196.387 108.396 196.276C107.183 192.712 107.183 188.329 107.183 188.329C107.183 188.329 100.753 196.041 95.8062 200.96C94.9731 201.789 93.9385 202.387 92.8041 202.695C91.6696 203.003 90.4746 203.01 89.3366 202.715C89.224 202.688 89.113 202.657 89.0031 202.621C88.1619 202.359 87.3799 201.935 86.7013 201.374L76.5557 192.998L76.2717 192.765L66.2024 184.454L65.8711 184.18L63.1055 181.897L69.8756 173.082L84.4472 183.938L84.6921 184.119L89.2371 187.507C89.2371 187.507 89.6272 187.036 90.3243 186.224C90.6329 185.861 91.005 185.429 91.4295 184.941C92.9689 183.166 95.2138 180.634 97.8111 177.871C98.2684 177.383 98.7541 176.923 99.2656 176.493C99.3489 176.421 99.4337 176.351 99.5186 176.282C101.906 174.345 104.749 173.048 107.777 172.514C108.396 172.403 109.06 172.291 109.761 172.178C109.867 172.16 109.975 172.144 110.083 172.126C114.35 171.45 119.945 170.797 125.621 170.802C125.968 170.802 126.316 170.805 126.666 170.81H126.669C132.201 170.897 137.739 171.643 142.13 173.634C142.13 173.634 143.644 174.276 145.75 177.915C145.803 178.008 145.859 178.102 145.913 178.2C147.851 181.64 150.259 187.592 152.448 197.812C152.471 197.918 152.494 198.026 152.516 198.133C152.949 200.174 153.373 202.383 153.783 204.774C154.033 206.191 153.829 207.651 153.2 208.945Z" fill="#FCB913"/>
<path d="M76.4759 186.439C77.8438 188.429 77.6154 190.76 76.5558 192.998L76.2718 192.765C77.2448 190.654 77.4684 188.458 76.2065 186.623C74.249 183.776 70.0584 183.931 68.3459 184.129C67.6342 184.212 66.9109 184.33 66.2024 184.454L65.8711 184.179C66.6709 184.041 67.4954 183.899 68.3084 183.805C70.078 183.6 74.4172 183.445 76.4759 186.439Z" fill="#F5F3E3"/>
<path d="M87.0633 189.549C84.6489 190.876 81.8867 191.211 79.4853 190.468L79.2031 190.382L79.4284 190.189C81.4664 188.427 83.1668 186.309 84.4467 183.938L84.6916 184.12C83.4516 186.424 81.8191 188.495 79.8675 190.239C82.1171 190.846 84.6639 190.497 86.9053 189.264C88.2625 188.525 89.4321 187.485 90.3237 186.224C90.6323 185.861 91.0045 185.428 91.429 184.941C90.5733 186.828 89.0355 188.464 87.0633 189.549Z" fill="#F5F3E3"/>
<path d="M100.63 178.191C100.116 177.675 99.6583 177.106 99.2656 176.492C99.3489 176.42 99.4337 176.35 99.5186 176.281C99.9033 176.888 100.353 177.451 100.861 177.96C102.444 179.53 105.159 180.534 107.286 179.417C109.652 178.175 110.148 175.157 109.761 172.177C109.867 172.159 109.975 172.143 110.083 172.125C110.421 174.657 110.298 178.204 107.438 179.706C105.066 180.952 102.247 179.794 100.63 178.191Z" fill="#F5F3E3"/>
<path d="M108.509 196.605C108.47 196.497 108.431 196.388 108.395 196.277C110.362 194.69 111.849 192.279 111.133 189.896C110.64 188.261 109.066 186.894 107.123 186.412C103.393 185.488 99.7052 187.692 97.498 190.064C95.638 192.062 94.2722 194.502 92.9499 196.865C92.5123 197.648 92.0586 198.46 91.5932 199.243C90.8881 200.43 90.1355 201.587 89.3355 202.716C89.2228 202.688 89.1119 202.657 89.002 202.621C89.8199 201.472 90.5899 200.29 91.312 199.075C91.7756 198.297 92.2278 197.487 92.6654 196.705C93.9958 194.326 95.3721 191.868 97.2578 189.84C99.5283 187.401 103.332 185.137 107.201 186.095C109.254 186.603 110.92 188.059 111.444 189.802C112.218 192.369 110.607 194.945 108.509 196.605Z" fill="#F5F3E3"/>
<path d="M120.459 212.839C121.592 214.561 121.698 216.633 121.193 218.615C121.086 218.603 120.978 218.589 120.869 218.574C121.363 216.662 121.272 214.669 120.186 213.018C118.245 210.068 114.154 209.645 110.545 210.702C110.538 210.591 110.532 210.481 110.523 210.368C114.236 209.303 118.443 209.773 120.459 212.839Z" fill="#F5F3E3"/>
<path d="M115.471 182.537C114.468 180.562 115.479 178.355 115.96 177.496C117.926 173.994 121.597 172.13 125.62 170.801C125.967 170.801 126.315 170.804 126.665 170.809C122.341 172.141 118.309 173.978 116.246 177.656C115.79 178.467 114.831 180.554 115.761 182.388C116.083 183.02 116.631 183.606 117.441 184.183C122.221 187.585 129.101 186.848 137.889 181.997C138.202 181.823 138.517 181.649 138.834 181.474C141.048 180.247 143.367 178.96 145.749 177.914C145.803 178.007 145.859 178.101 145.912 178.199C143.53 179.243 141.207 180.532 138.992 181.76C138.676 181.935 138.361 182.109 138.047 182.282C134.217 184.396 130.675 185.75 127.519 186.301C123.438 187.017 119.983 186.393 117.252 184.449C116.398 183.842 115.815 183.217 115.471 182.537Z" fill="#F5F3E3"/>
<path d="M153.199 208.945C153.152 209.045 153.101 209.143 153.047 209.239C151.792 208.848 150.51 208.551 149.211 208.351C146.519 207.935 143.739 207.809 141.05 207.688C137.359 207.521 133.544 207.348 129.902 206.426C124.941 205.167 120.153 201.439 120.602 196.749L120.611 196.66L120.688 196.62C126.508 193.569 133.363 194.978 139.993 196.341C144.175 197.201 148.446 198.077 152.447 197.811C152.47 197.917 152.493 198.025 152.516 198.133C151.995 198.171 151.471 198.187 150.942 198.187C147.355 198.188 143.607 197.416 139.926 196.66C133.383 195.315 126.618 193.924 120.92 196.868C120.556 201.334 125.188 204.893 129.982 206.109C133.592 207.024 137.391 207.195 141.066 207.361C143.762 207.484 146.552 207.61 149.263 208.027C150.596 208.234 151.912 208.54 153.199 208.945Z" fill="#F5F3E3"/>
<path d="M138.471 181.877L138.23 181.921L143.712 212.303L143.953 212.26L138.471 181.877Z" fill="#131313"/>
<path d="M89.0971 187.372L87.3652 190.048L87.5708 190.181L89.3027 187.505L89.0971 187.372Z" fill="#131313"/>
<path d="M126.161 224.878L125.986 225.05L130.289 229.412L130.463 229.24L126.161 224.878Z" fill="#131313"/>
<path d="M142.002 214.041L141.801 214.181L184.026 274.759L184.227 274.619L142.002 214.041Z" fill="#131313"/>
<path d="M126.579 274.033L106.736 245.68C106.504 245.349 106.339 244.974 106.252 244.578C106.165 244.183 106.156 243.774 106.228 243.375C106.299 242.976 106.448 242.595 106.667 242.254C106.885 241.913 107.169 241.619 107.502 241.388L128.153 227.043L128.293 227.244L107.642 241.589C107.335 241.802 107.074 242.073 106.873 242.386C106.671 242.7 106.534 243.051 106.468 243.418C106.403 243.785 106.41 244.161 106.491 244.525C106.571 244.89 106.722 245.234 106.936 245.54L126.779 273.893L126.579 274.033Z" fill="#131313"/>
<path d="M69.8749 173.082L63.4766 180.33L64.0026 180.73L69.8749 173.082Z" fill="#131313"/>
<path d="M130.15 158.209C130.15 158.209 130.1 169.277 133.672 170.638C135.624 171.382 136.841 173.782 137.542 175.806C137.65 176.114 137.675 176.445 137.616 176.766C137.557 177.087 137.416 177.388 137.205 177.637C136.995 177.887 136.723 178.077 136.416 178.19C136.11 178.302 135.779 178.333 135.457 178.279C132.898 177.852 129.243 177.579 127.061 178.907C123.44 181.111 115.726 178.907 115.726 178.907L115.212 178.946C114.874 178.971 114.535 178.904 114.232 178.752C113.929 178.6 113.673 178.369 113.491 178.083C113.308 177.797 113.207 177.467 113.198 177.128C113.189 176.789 113.271 176.453 113.438 176.158C114.727 173.868 116.555 170.16 118.624 164.584L130.15 158.209Z" fill="#131313"/>
<path d="M238.063 287.19L234.18 284.561L242.824 278.229L246.603 281.37L238.063 287.19Z" fill="#F59060"/>
<path d="M246.604 293.919L247.576 294.554L261.643 284.272C261.357 284.016 261.041 283.795 260.702 283.616C260.043 283.269 259.322 283.056 258.58 282.989C257.839 282.921 257.091 283.001 256.381 283.223C255.96 283.36 255.529 283.463 255.092 283.532C250.576 284.243 246.52 281.01 246.52 281.01L238.062 287.19L246.604 293.919Z" fill="#6595F7"/>
<path d="M246.605 293.919L247.577 294.553L261.645 284.272C261.359 284.016 261.043 283.795 260.703 283.615L246.605 293.919Z" fill="#131313"/>
<path d="M245.57 282.937C247.962 284.202 253.801 286.9 255.094 283.531C250.578 284.243 246.522 281.009 246.522 281.009C246.522 281.009 245.049 280.245 244.65 281.231C244.588 281.402 244.569 281.587 244.596 281.767C244.622 281.948 244.693 282.119 244.802 282.265C244.998 282.55 245.262 282.781 245.57 282.937Z" fill="white"/>
<path d="M252.824 285.852C252.807 285.863 252.789 285.87 252.77 285.874C252.75 285.877 252.731 285.877 252.712 285.872C252.644 285.858 252.598 285.805 252.609 285.754C252.781 284.998 253.728 283.637 253.769 283.58C253.79 283.557 253.818 283.542 253.848 283.537C253.879 283.532 253.911 283.537 253.938 283.553C253.999 283.583 254.023 283.644 253.992 283.689C253.982 283.703 253.022 285.079 252.856 285.805C252.851 285.824 252.84 285.841 252.824 285.852Z" fill="#131313"/>
<path d="M249.495 285.628C249.477 285.64 249.456 285.648 249.435 285.651C249.414 285.654 249.392 285.653 249.371 285.647C249.301 285.629 249.257 285.573 249.273 285.522C249.574 284.543 251.393 283.351 251.47 283.301C251.499 283.285 251.532 283.279 251.564 283.282C251.597 283.286 251.627 283.299 251.652 283.321C251.664 283.329 251.673 283.339 251.679 283.352C251.686 283.364 251.689 283.378 251.688 283.392C251.688 283.405 251.684 283.419 251.677 283.431C251.671 283.443 251.661 283.453 251.649 283.461C251.631 283.473 249.811 284.665 249.526 285.587C249.52 285.604 249.51 285.618 249.495 285.628Z" fill="#131313"/>
<path d="M249.314 282.666C249.307 282.671 249.3 282.675 249.293 282.678C249.277 282.685 247.687 283.388 246.826 284.237C246.799 284.258 246.767 284.269 246.733 284.271C246.7 284.272 246.667 284.263 246.639 284.244C246.577 284.206 246.562 284.142 246.603 284.101C247.493 283.223 249.072 282.526 249.139 282.498C249.171 282.485 249.205 282.483 249.238 282.491C249.271 282.499 249.301 282.516 249.324 282.541C249.332 282.549 249.339 282.56 249.343 282.571C249.347 282.582 249.349 282.594 249.348 282.606C249.347 282.618 249.344 282.63 249.338 282.64C249.332 282.65 249.324 282.659 249.314 282.666Z" fill="#131313"/>
<path d="M244.58 283.058C244.555 283.073 244.527 283.081 244.498 283.082C244.469 283.083 244.441 283.077 244.415 283.063C244.346 283.031 244.316 282.966 244.35 282.919C244.689 282.432 246.664 281.213 246.747 281.161C246.779 281.145 246.814 281.139 246.848 281.144C246.883 281.149 246.915 281.164 246.941 281.187C246.954 281.195 246.963 281.206 246.97 281.219C246.977 281.232 246.98 281.246 246.98 281.261C246.98 281.276 246.976 281.29 246.969 281.303C246.961 281.315 246.951 281.326 246.939 281.334C246.918 281.346 244.919 282.581 244.6 283.037C244.595 283.045 244.588 283.052 244.58 283.058Z" fill="#131313"/>
<path d="M246.679 281.472C246.662 281.485 246.651 281.492 246.647 281.496L246.5 281.599L246.418 281.437C246.313 281.227 245.392 279.341 246.089 278.815C246.309 278.645 246.655 278.639 247.113 278.788C247.588 278.941 247.881 279.165 247.986 279.452C248.282 280.257 246.916 281.299 246.679 281.472ZM246.306 278.981L246.301 278.984C245.852 279.324 246.305 280.591 246.592 281.22C247.08 280.841 247.928 280.034 247.723 279.479C247.646 279.27 247.425 279.109 247.047 278.987C246.698 278.874 246.455 278.872 246.306 278.981Z" fill="#131313"/>
<path d="M248.82 281.882C248.81 281.89 248.798 281.897 248.787 281.904C248.263 282.216 246.687 281.622 246.507 281.552L246.301 281.473L246.455 281.375C246.577 281.297 247.667 280.623 248.4 280.86C248.521 280.897 248.632 280.963 248.722 281.053C248.812 281.142 248.879 281.252 248.916 281.374C248.997 281.606 248.965 281.776 248.82 281.882ZM246.814 281.447C247.443 281.668 248.332 281.895 248.604 281.733C248.639 281.712 248.746 281.649 248.658 281.4C248.636 281.32 248.595 281.246 248.537 281.186C248.48 281.125 248.409 281.08 248.331 281.053C247.909 280.916 247.199 281.233 246.814 281.447Z" fill="#131313"/>
<path d="M249.424 284.123C249.393 284.144 249.356 284.152 249.319 284.146C249.229 284.133 247.086 283.816 246.977 282.699C246.885 281.749 246.501 281.549 246.497 281.547C246.431 281.515 246.399 281.45 246.429 281.403C246.45 281.378 246.478 281.361 246.51 281.355C246.542 281.349 246.574 281.354 246.603 281.369C246.658 281.392 247.143 281.626 247.247 282.714C247.337 283.651 249.315 283.946 249.335 283.949C249.407 283.959 249.462 284.012 249.458 284.066C249.457 284.077 249.453 284.089 249.447 284.098C249.441 284.108 249.433 284.117 249.424 284.123Z" fill="#131313"/>
<path d="M237.209 286.611L243.634 278.901L242.824 278.229L237.209 286.611Z" fill="#131313"/>
<path d="M203.312 272.572L204.245 268.241L212.846 273.58L211.427 278L203.312 272.572Z" fill="#F59060"/>
<path d="M200.432 282.433L200.219 283.508L214.194 292.205C214.318 291.864 214.399 291.509 214.437 291.148C214.508 290.448 214.44 289.741 214.238 289.068C214.035 288.394 213.701 287.767 213.255 287.223C212.987 286.902 212.744 286.561 212.53 286.202C210.312 282.497 211.713 277.801 211.713 277.801L203.313 272.572L200.432 282.433Z" fill="#6595F7"/>
<path d="M200.432 282.433L200.219 283.508L214.194 292.205C214.318 291.864 214.399 291.509 214.437 291.148L200.432 282.433Z" fill="#131313"/>
<path d="M209.687 277.648C209.424 280.191 209.121 286.26 212.53 286.203C210.312 282.498 211.713 277.801 211.713 277.801C211.713 277.801 211.863 276.242 210.858 276.239C210.686 276.246 210.518 276.295 210.369 276.382C210.22 276.469 210.095 276.591 210.005 276.738C209.825 277.011 209.716 277.323 209.687 277.648Z" fill="white"/>
<path d="M209.697 285.033C209.681 285.023 209.669 285.009 209.659 284.993C209.649 284.978 209.642 284.96 209.64 284.942C209.631 284.916 209.634 284.887 209.646 284.863C209.659 284.838 209.681 284.819 209.707 284.811C210.43 284.694 211.956 285.044 212.021 285.059C212.049 285.07 212.072 285.089 212.087 285.114C212.103 285.139 212.109 285.168 212.105 285.198C212.101 285.262 212.056 285.305 212.005 285.293C211.989 285.289 210.444 284.934 209.749 285.045C209.731 285.047 209.712 285.043 209.697 285.033Z" fill="#131313"/>
<path d="M208.717 282.04C208.701 282.028 208.687 282.013 208.676 281.995C208.666 281.977 208.66 281.957 208.658 281.937C208.649 281.869 208.682 281.811 208.732 281.807C209.696 281.725 211.383 282.898 211.454 282.949C211.478 282.968 211.496 282.995 211.504 283.024C211.512 283.054 211.511 283.086 211.501 283.115C211.498 283.128 211.492 283.14 211.484 283.15C211.475 283.16 211.464 283.168 211.452 283.172C211.44 283.177 211.426 283.178 211.413 283.176C211.4 283.175 211.388 283.17 211.377 283.162C211.361 283.15 209.673 281.976 208.765 282.052C208.748 282.053 208.731 282.049 208.717 282.04Z" fill="#131313"/>
<path d="M211.248 280.834C211.241 280.83 211.235 280.825 211.23 280.82C211.218 280.809 210.041 279.663 208.993 279.209C208.966 279.193 208.944 279.168 208.931 279.139C208.918 279.11 208.915 279.078 208.921 279.047C208.932 278.98 208.983 278.943 209.034 278.965C210.117 279.435 211.285 280.573 211.334 280.621C211.356 280.644 211.371 280.674 211.375 280.706C211.38 280.737 211.375 280.77 211.362 280.798C211.357 280.809 211.351 280.819 211.342 280.826C211.334 280.834 211.324 280.84 211.313 280.843C211.302 280.847 211.291 280.848 211.28 280.846C211.268 280.844 211.257 280.84 211.248 280.834Z" fill="#131313"/>
<path d="M209.234 276.824C209.212 276.808 209.195 276.786 209.184 276.761C209.173 276.736 209.168 276.709 209.171 276.682C209.175 276.61 209.221 276.561 209.274 276.573C209.82 276.699 211.586 277.999 211.661 278.054C211.686 278.076 211.703 278.105 211.712 278.137C211.72 278.169 211.718 278.202 211.707 278.233C211.704 278.247 211.698 278.26 211.689 278.27C211.68 278.28 211.668 278.289 211.655 278.293C211.643 278.298 211.629 278.3 211.615 278.298C211.601 278.296 211.588 278.291 211.577 278.283C211.559 278.27 209.771 276.954 209.259 276.835C209.25 276.833 209.242 276.829 209.234 276.824Z" fill="#131313"/>
<path d="M211.364 278.103C211.347 278.093 211.337 278.086 211.332 278.083L211.189 277.991L211.303 277.862C211.449 277.695 212.777 276.224 213.484 276.648C213.711 276.781 213.838 277.082 213.87 277.536C213.903 278.006 213.81 278.341 213.596 278.535C212.994 279.079 211.601 278.25 211.364 278.103ZM213.415 276.897L213.41 276.894C212.954 276.62 212.004 277.465 211.554 277.938C212.058 278.232 213.065 278.69 213.479 278.314C213.635 278.173 213.699 277.922 213.672 277.549C213.647 277.202 213.563 276.989 213.415 276.897Z" fill="#131313"/>
<path d="M211.762 280.124C211.751 280.118 211.741 280.111 211.73 280.103C211.272 279.755 211.236 278.164 211.234 277.981L211.23 277.772L211.371 277.873C211.482 277.952 212.458 278.669 212.509 279.395C212.519 279.515 212.5 279.635 212.453 279.746C212.407 279.856 212.334 279.953 212.241 280.029C212.066 280.182 211.905 280.214 211.762 280.124ZM211.434 278.213C211.462 278.842 211.578 279.701 211.816 279.883C211.846 279.906 211.939 279.976 212.127 279.811C212.19 279.764 212.24 279.702 212.273 279.63C212.305 279.559 212.32 279.481 212.316 279.402C212.286 278.985 211.758 278.475 211.434 278.214L211.434 278.213Z" fill="#131313"/>
<path d="M210.011 281.445C209.982 281.425 209.962 281.395 209.954 281.361C209.934 281.278 209.455 279.288 210.395 278.798C211.195 278.382 211.234 277.975 211.234 277.971C211.24 277.901 211.285 277.851 211.337 277.861C211.366 277.87 211.391 277.889 211.407 277.914C211.424 277.94 211.431 277.97 211.429 278C211.428 278.057 211.393 278.565 210.477 279.04C209.688 279.449 210.128 281.287 210.132 281.305C210.142 281.333 210.142 281.363 210.131 281.391C210.12 281.418 210.099 281.441 210.073 281.454C210.063 281.457 210.051 281.458 210.041 281.456C210.03 281.455 210.02 281.451 210.011 281.445Z" fill="#131313"/>
<path d="M203.588 270.732L212.104 275.891L212.409 274.94L203.588 270.732Z" fill="#131313"/>
<path d="M156.08 244.839L163.836 241.074L157.676 237.082L156.08 244.839Z" fill="#131313"/>
<path d="M217.22 256.018L222.079 237.231C222.333 236.247 222.383 235.221 222.225 234.217C222.067 233.214 221.705 232.253 221.161 231.395C220.616 230.536 219.902 229.799 219.061 229.228C218.221 228.657 217.272 228.264 216.274 228.075L188.019 222.71C188.019 222.71 160.414 217.919 159.045 238.907L237.067 286.816L243.226 277.918L217.22 256.018ZM206.955 248.455L194.756 239.467L208.094 241.417L206.955 248.455Z" fill="#1D6DEC"/>
<path d="M215.623 200.923C213.126 205.044 210.221 208.903 206.954 212.445C205.495 214.024 204.044 215.454 202.628 216.747C201.248 218.011 199.454 218.728 197.583 218.762C195.712 218.796 193.893 218.145 192.468 216.932L183.456 209.251L186.606 218.541H186.608L188.02 222.709C188.02 222.709 184.476 222.315 179.423 223.701C176.346 224.551 173.41 225.845 170.707 227.543C167.224 229.715 163.59 232.843 160.188 237.334C159.805 237.841 159.424 238.366 159.046 238.908L159.017 238.833L151.061 218.376L150.999 218.389C150.376 218.51 145.229 219.498 139.928 220.077C134.037 220.719 129.252 215.408 130.522 209.622C131.269 206.217 132.176 202.368 133.168 198.766C134.063 195.51 135.775 192.537 138.142 190.129C140.508 187.721 143.451 185.957 146.691 185.006C150.077 184.005 153.521 183.209 157.003 182.624C159.787 182.154 162.597 181.855 165.417 181.728H165.419C168.403 181.586 171.393 181.695 174.358 182.053C179.502 182.694 184.189 185.331 187.408 189.394C190.504 193.304 194.479 198.39 196.232 200.923L205.357 191.297L215.623 200.923Z" fill="#F5F3E3"/>
<path d="M167.008 171.028C167.022 171.082 167.034 171.137 167.046 171.191C167.112 171.484 167.168 171.777 167.211 172.067C167.221 172.117 167.228 172.167 167.235 172.217C167.258 172.372 167.277 172.523 167.291 172.678C167.328 173.027 167.354 173.376 167.357 173.716C167.386 175.878 166.695 177.864 164.653 179.122L165.754 182.62C165.863 182.963 165.914 183.321 165.906 183.68C165.9 183.883 165.823 184.077 165.688 184.228C164.198 185.923 160.838 186.06 157.146 184.828L156.584 177.691L154.353 177.782C153.914 177.808 153.477 177.713 153.087 177.508C152.698 177.303 152.373 176.995 152.145 176.619C152.116 176.571 152.09 176.523 152.066 176.472L151.796 175.921C151.633 175.588 151.548 175.223 151.547 174.853C151.546 174.482 151.63 174.117 151.792 173.783C151.954 173.45 152.189 173.159 152.481 172.93C152.772 172.702 153.112 172.543 153.474 172.466C153.474 172.466 153.467 172.434 153.458 172.378C153.278 171.418 151.904 163.081 158.002 162.167C160.98 161.717 163.889 163.344 165.195 166.057C165.878 167.481 166.598 169.234 167.008 171.028Z" fill="#F59060"/>
<path d="M165.113 174.755C165.16 174.719 165.199 174.674 165.229 174.624C165.689 173.865 164.19 171.511 163.884 171.047C163.862 171.014 163.828 170.992 163.789 170.984C163.75 170.977 163.71 170.985 163.677 171.006C163.644 171.028 163.621 171.062 163.613 171.1C163.604 171.139 163.612 171.179 163.633 171.212C164.299 172.226 165.251 174.006 164.971 174.468C164.953 174.498 164.898 174.589 164.653 174.564C164.633 174.562 164.613 174.564 164.594 174.569C164.575 174.575 164.557 174.584 164.541 174.597C164.526 174.609 164.513 174.625 164.503 174.642C164.494 174.66 164.488 174.679 164.486 174.699C164.484 174.719 164.486 174.739 164.492 174.758C164.498 174.777 164.507 174.795 164.52 174.81C164.533 174.826 164.548 174.838 164.566 174.847C164.584 174.857 164.603 174.862 164.623 174.864C164.795 174.893 164.971 174.854 165.113 174.755Z" fill="#131313"/>
<path d="M161.63 174.339C162.447 174.24 163.066 173.79 163.01 173.335C162.955 172.88 162.248 172.591 161.43 172.691C160.612 172.79 159.994 173.239 160.049 173.694C160.104 174.149 160.812 174.438 161.63 174.339Z" fill="#FC6D6D"/>
<path d="M167.212 172.067C167.222 172.117 167.229 172.166 167.236 172.216C167.259 172.372 167.278 172.523 167.292 172.678C167.329 173.026 167.354 173.375 167.358 173.716C167.33 173.722 167.303 173.725 167.273 173.729C166.452 173.829 165.745 173.54 165.691 173.084C165.637 172.627 166.253 172.179 167.071 172.08C167.118 172.073 167.163 172.071 167.212 172.067Z" fill="#FC6D6D"/>
<path d="M164.654 179.123C164.654 179.123 163.112 179.993 160.889 178.937C160.889 178.937 162.364 180.707 164.931 180.001L164.654 179.123Z" fill="#131313"/>
<path d="M160.19 170.277C160.374 170.14 160.572 170.022 160.782 169.927C160.988 169.832 161.205 169.763 161.428 169.722C161.641 169.686 161.86 169.69 162.072 169.733C162.277 169.781 162.471 169.869 162.641 169.992L162.661 170.005C162.715 170.041 162.781 170.053 162.844 170.04C162.908 170.027 162.963 169.989 162.999 169.935C163.034 169.88 163.047 169.814 163.034 169.751C163.02 169.688 162.983 169.632 162.928 169.596C162.925 169.594 162.921 169.592 162.917 169.59C162.684 169.443 162.423 169.344 162.15 169.3C161.883 169.264 161.611 169.277 161.349 169.339C161.098 169.402 160.856 169.498 160.629 169.622C160.404 169.743 160.192 169.888 159.999 170.056C159.97 170.08 159.951 170.116 159.948 170.154C159.944 170.192 159.956 170.23 159.98 170.259C160.004 170.289 160.039 170.308 160.077 170.312C160.115 170.316 160.153 170.306 160.183 170.282L160.19 170.277Z" fill="#671E24"/>
<path d="M166.81 168.91C166.592 168.801 166.362 168.717 166.124 168.66C165.884 168.6 165.637 168.573 165.389 168.579C165.13 168.589 164.876 168.651 164.641 168.761C164.404 168.878 164.193 169.043 164.023 169.245C163.979 169.293 163.956 169.356 163.959 169.421C163.962 169.485 163.99 169.546 164.038 169.59C164.086 169.634 164.149 169.657 164.214 169.654C164.279 169.651 164.34 169.623 164.383 169.575C164.386 169.572 164.389 169.568 164.392 169.565L164.408 169.545C164.525 169.385 164.673 169.251 164.843 169.151C165.02 169.053 165.216 168.991 165.417 168.968C165.63 168.948 165.844 168.957 166.055 168.994C166.269 169.03 166.479 169.09 166.68 169.172L166.687 169.175C166.722 169.19 166.762 169.19 166.797 169.177C166.832 169.163 166.861 169.136 166.877 169.102C166.893 169.067 166.894 169.028 166.882 168.992C166.869 168.957 166.844 168.927 166.81 168.91V168.91Z" fill="#671E24"/>
<path d="M161.972 171.813C162.192 171.749 162.29 171.427 162.193 171.094C162.096 170.76 161.839 170.542 161.62 170.606C161.4 170.67 161.302 170.992 161.399 171.326C161.496 171.659 161.753 171.877 161.972 171.813Z" fill="#131313"/>
<path d="M165.858 170.997C166.024 170.948 166.085 170.653 165.992 170.338C165.9 170.023 165.691 169.807 165.524 169.855C165.358 169.904 165.297 170.199 165.389 170.514C165.481 170.829 165.691 171.045 165.858 170.997Z" fill="#131313"/>
<path d="M153.485 176.381C153.04 175.678 152.91 175.082 153.097 174.608C153.359 173.944 154.177 173.724 154.185 173.722L154.105 173.406C154.064 173.416 153.12 173.666 152.794 174.486C152.565 175.062 152.705 175.758 153.21 176.555L153.485 176.381Z" fill="#131313"/>
<path d="M153.474 172.467C153.977 172.486 154.472 172.598 154.934 172.798C155.694 173.132 155.877 173.506 156.165 173.505C156.626 173.505 157.248 172.549 157.997 168.574C161.746 168.763 164.315 167.822 165.701 167.161C167.065 166.51 167.546 166.025 167.684 165.876C169.714 163.7 169.892 159.261 167.439 156.935C167.058 156.574 165.885 155.462 164.25 155.484C161.169 155.525 160.426 160.859 157.097 161.091C156.028 161.165 155.456 160.684 154.482 161.138C153.289 161.693 152.743 163.069 152.468 164.16C151.829 164.668 151.317 165.316 150.971 166.055C149.463 169.325 152.158 172.906 152.299 173.088L153.474 172.467Z" fill="#671E24"/>
<path d="M154.787 177.765L156.776 180.111L156.586 177.69L154.787 177.765Z" fill="#671E24"/>
<path d="M164.921 176.177C164.473 176.265 163.655 176.307 162.45 175.924C162.423 175.915 162.395 175.915 162.368 175.923C162.341 175.93 162.317 175.946 162.3 175.967C162.282 175.989 162.271 176.015 162.268 176.043C162.266 176.071 162.271 176.099 162.285 176.123C162.638 176.769 163.612 178.079 165.054 176.405C165.073 176.383 165.085 176.356 165.088 176.327C165.09 176.298 165.084 176.269 165.069 176.244C165.055 176.218 165.033 176.198 165.006 176.186C164.98 176.174 164.95 176.171 164.921 176.177Z" fill="#E52039"/>
<path d="M171.136 230.467C169.246 230.981 167.433 231.744 165.745 232.736C165.621 232.807 165.497 232.881 165.373 232.958C165.242 233.038 165.108 233.119 164.977 233.204C164.093 233.767 163.25 234.391 162.454 235.073C162.245 235.252 162.037 235.437 161.829 235.632C161.249 236.167 160.701 236.735 160.187 237.333C159.785 237.802 159.392 238.3 159.016 238.833C158.843 239.076 158.674 239.328 158.509 239.585C158.401 239.748 158.298 239.915 158.195 240.085C157.297 241.577 156.587 243.174 156.08 244.839L154.632 237.206L154.555 236.801L153.041 228.818L152.964 228.414L151.45 220.431L151.372 220.024L151.06 218.376L150.998 218.389C150.597 218.467 148.326 218.903 145.346 219.358C145.212 219.379 145.075 219.4 144.938 219.42C143.388 219.652 141.666 219.886 139.927 220.076C138.851 220.196 137.762 220.114 136.716 219.833C136.563 219.792 136.414 219.748 136.265 219.698C134.335 219.058 132.69 217.76 131.618 216.032C131.54 215.909 131.466 215.785 131.396 215.659C130.373 213.822 130.062 211.673 130.522 209.621C130.678 208.908 130.841 208.175 131.011 207.429C131.045 207.282 131.079 207.134 131.113 206.986C131.499 205.304 131.916 203.561 132.357 201.831C132.431 201.535 132.507 201.24 132.584 200.946C132.776 200.213 132.969 199.484 133.168 198.765C133.221 198.57 133.278 198.377 133.338 198.185C133.384 198.032 133.432 197.882 133.484 197.733C134.487 194.732 136.194 192.014 138.462 189.808C138.578 189.696 138.695 189.586 138.812 189.476C139.467 188.87 140.162 188.308 140.893 187.796C141.203 187.578 141.523 187.367 141.847 187.166C143.206 186.325 144.661 185.652 146.182 185.163C146.313 185.119 146.445 185.078 146.578 185.039C146.615 185.026 146.652 185.016 146.69 185.005C149.009 184.324 151.635 183.65 154.463 183.089C154.598 183.061 154.733 183.034 154.868 183.007C155.569 182.872 156.281 182.745 157.003 182.624C157.175 182.991 157.347 183.364 157.517 183.738C157.576 183.866 157.634 183.994 157.693 184.122C158.784 186.515 159.872 189.051 160.933 191.729C160.984 191.857 161.035 191.986 161.085 192.115C162.054 194.566 162.994 197.131 163.905 199.812C163.949 199.944 163.994 200.075 164.038 200.206C164.356 201.154 164.669 202.115 164.977 203.09C165.5 204.747 165.988 206.382 166.441 207.994C166.479 208.127 166.517 208.26 166.552 208.392C167.306 211.089 167.971 213.715 168.547 216.27C168.579 216.403 168.609 216.538 168.639 216.671C169.256 219.423 169.786 222.078 170.227 224.636C170.25 224.773 170.273 224.909 170.296 225.044C170.442 225.889 170.578 226.721 170.707 227.542C170.861 228.536 171.004 229.511 171.136 230.467Z" fill="#FF4655"/>
<path d="M215.622 200.923C214.678 202.481 213.576 204.165 212.295 205.929C212.188 206.076 212.08 206.224 211.97 206.373C211.853 206.531 211.736 206.689 211.617 206.848C211.491 207.015 211.363 207.184 211.234 207.354C209.967 209.008 208.546 210.718 206.952 212.445C206.416 213.025 205.883 213.584 205.352 214.123C205.236 214.24 205.121 214.356 205.005 214.471C204.205 215.273 203.412 216.032 202.626 216.747C201.884 217.428 201.015 217.956 200.069 218.3C199.123 218.645 198.119 218.8 197.113 218.756C195.403 218.686 193.767 218.044 192.466 216.932C190.839 215.544 189.212 214.157 187.585 212.771C187.377 212.595 187.169 212.419 186.962 212.24C185.792 211.243 184.623 210.247 183.454 209.251L184.639 212.75L184.772 213.142L186.603 218.541H186.605L188.764 220.097L189.265 220.459L189.281 220.47L189.73 220.793L193.951 223.836C192.996 223.655 191.573 223.664 189.991 223.774C189.854 223.783 189.716 223.793 189.575 223.804C186.715 224.033 183.441 224.564 181.502 224.906C181.358 224.931 181.223 224.956 181.097 224.979C180.294 225.122 179.804 225.22 179.804 225.22C179.687 224.736 179.559 224.228 179.421 223.701C179.367 223.497 179.314 223.291 179.259 223.082C179.222 222.951 179.188 222.819 179.151 222.686C178.525 220.362 177.733 217.702 176.85 214.875C176.809 214.744 176.768 214.613 176.725 214.48C175.939 211.974 175.084 209.346 174.206 206.717C174.163 206.586 174.119 206.456 174.076 206.325C173.2 203.704 172.304 201.085 171.438 198.587C171.393 198.455 171.347 198.326 171.303 198.195C170.334 195.407 169.406 192.779 168.583 190.476C168.537 190.345 168.491 190.215 168.445 190.086C167.126 186.395 166.099 183.588 165.656 182.38C165.599 182.222 165.551 182.092 165.514 181.991C165.449 181.819 165.416 181.728 165.416 181.728H165.418C165.916 181.707 166.418 181.692 166.922 181.682C167.567 181.67 168.214 181.669 168.864 181.679C169.792 181.693 170.721 181.731 171.651 181.794C171.795 181.803 171.937 181.814 172.081 181.824C172.84 181.883 173.599 181.959 174.357 182.053C176.632 182.337 178.839 183.015 180.881 184.056C181.043 184.136 181.201 184.22 181.359 184.307C182.524 184.94 183.622 185.689 184.635 186.544C184.767 186.652 184.898 186.764 185.026 186.879C185.891 187.646 186.687 188.487 187.405 189.394C188.52 190.801 189.747 192.36 190.946 193.899L191.226 194.259C191.519 194.635 191.81 195.011 192.094 195.38C192.294 195.639 192.491 195.895 192.685 196.147C194.136 198.04 195.421 199.752 196.23 200.923L200.953 195.941L201.296 195.581L205.355 191.298L209.529 195.21L210.059 195.709L212.433 197.934L212.799 198.276L215.622 200.923Z" fill="#FF4655"/>
<path d="M166.923 181.682L165.514 181.99C165.552 182.091 165.6 182.221 165.656 182.379L168.865 181.678C168.215 181.667 167.568 181.669 166.923 181.682ZM170.297 225.044C170.273 224.909 170.25 224.772 170.227 224.636L164.26 225.942L162.525 218.009L168.639 216.671C168.609 216.538 168.579 216.403 168.547 216.27L162.436 217.606L160.701 209.671L166.553 208.391C166.517 208.26 166.48 208.127 166.441 207.994L160.612 209.27L158.877 201.334L164.038 200.206C163.994 200.074 163.95 199.943 163.905 199.812L158.79 200.931L157.053 192.997L161.086 192.115C161.036 191.985 160.985 191.856 160.933 191.728L156.966 192.596L155.23 184.661L157.693 184.121C157.635 183.994 157.576 183.866 157.518 183.738L155.142 184.258L154.869 183.007C154.734 183.034 154.599 183.06 154.464 183.089L154.739 184.347L146.806 186.082L146.578 185.039C146.445 185.077 146.314 185.119 146.183 185.163L146.403 186.171L141.848 187.166C141.523 187.367 141.204 187.578 140.893 187.796L146.492 186.572L148.227 194.507L140.292 196.242L138.812 189.476C138.695 189.586 138.578 189.697 138.462 189.808L139.889 196.331L133.483 197.733C133.432 197.882 133.384 198.033 133.338 198.185L139.978 196.732L141.713 204.667L133.778 206.402L132.584 200.946C132.508 201.24 132.432 201.535 132.357 201.831L133.375 206.491L131.113 206.986C131.079 207.134 131.045 207.282 131.012 207.429L133.464 206.893L135.199 214.827L131.397 215.659C131.466 215.785 131.541 215.91 131.619 216.032L135.287 215.23L136.265 219.698C136.414 219.748 136.563 219.792 136.716 219.833L135.69 215.141L143.623 213.406L144.938 219.419C145.075 219.4 145.211 219.379 145.346 219.357L144.026 213.319L151.961 211.584L153.696 219.517L151.372 220.024L151.45 220.431L153.783 219.92L155.518 227.855L152.964 228.413L153.041 228.818L155.609 228.255L157.344 236.191L154.557 236.801L154.633 237.205L157.433 236.593L158.196 240.085C158.298 239.915 158.401 239.748 158.51 239.585L157.835 236.505L161.829 235.632C162.037 235.437 162.244 235.252 162.454 235.073L157.746 236.104L156.01 228.169L163.945 226.434L165.372 232.958C165.496 232.882 165.62 232.807 165.744 232.736L164.346 226.345L170.297 225.044ZM158.387 201.021L150.452 202.756L148.717 194.821L156.652 193.086L158.387 201.021ZM146.893 186.485L154.828 184.75L156.563 192.683L148.628 194.418L146.893 186.485ZM140.38 196.645L148.313 194.91L150.049 202.843L142.116 204.58L140.38 196.645ZM135.602 214.74L133.866 206.805L141.801 205.07L143.537 213.005L135.602 214.74ZM143.938 212.916L142.202 204.981L150.137 203.246L151.873 211.181L143.938 212.916ZM150.54 203.159L158.473 201.423L160.209 209.357L152.275 211.092L150.54 203.159ZM152.362 211.495L160.297 209.759L162.034 217.694L154.1 219.43L152.362 211.495ZM155.922 227.766L154.186 219.831L162.121 218.095L163.857 226.03L155.922 227.766ZM212.799 198.276L212.434 197.933L210.633 198.327L210.06 195.708L209.529 195.209L210.23 198.416L202.295 200.152L201.296 195.581L200.954 195.941L201.894 200.24L193.959 201.976L192.685 196.147C192.492 195.895 192.295 195.64 192.094 195.38L193.557 202.063L185.624 203.797L183.887 195.864L191.228 194.258L190.947 193.898L183.8 195.461L182.065 187.526L185.028 186.879C184.9 186.763 184.769 186.652 184.638 186.543L181.976 187.125L181.36 184.306C181.202 184.219 181.045 184.136 180.883 184.056L181.573 187.212L173.64 188.948L172.082 181.824C171.938 181.813 171.796 181.802 171.653 181.793L173.237 189.036L168.446 190.085C168.493 190.215 168.539 190.344 168.585 190.475L173.326 189.439L175.061 197.372L171.305 198.193C171.349 198.325 171.395 198.454 171.44 198.586L175.148 197.775L176.884 205.71L174.078 206.324C174.121 206.455 174.165 206.584 174.208 206.716L176.972 206.111L178.708 214.046L176.727 214.479C176.77 214.612 176.81 214.744 176.851 214.875L178.796 214.449L180.532 222.384L179.153 222.686C179.19 222.819 179.224 222.95 179.261 223.081L180.619 222.785L181.099 224.979C181.225 224.956 181.36 224.931 181.504 224.906L181.021 222.699L188.956 220.963L189.577 223.804C189.718 223.793 189.856 223.783 189.993 223.774L189.359 220.875L189.731 220.793L189.282 220.47L189.269 220.472L189.266 220.459L188.766 220.097L188.867 220.56L180.933 222.296L179.196 214.361L184.773 213.142L184.64 212.75L179.109 213.96L177.374 206.025L185.307 204.29L187.044 212.223L186.963 212.241C187.17 212.418 187.378 212.595 187.586 212.771L187.534 212.539L195.469 210.802L197.205 218.737L197.114 218.756C198.441 218.813 199.759 218.525 200.942 217.921L197.606 218.65L195.871 210.715L203.806 208.979L205.007 214.471C205.123 214.356 205.238 214.24 205.354 214.123L204.209 208.891L211.236 207.354C211.365 207.184 211.493 207.015 211.619 206.848L204.121 208.488L202.385 200.555L210.32 198.819L211.972 206.373C212.082 206.224 212.19 206.077 212.297 205.929L210.721 198.731L212.799 198.276ZM173.725 189.35L181.66 187.615L183.396 195.55L175.461 197.285L173.725 189.35ZM177.286 205.622L175.551 197.687L183.486 195.951L185.221 203.886L177.286 205.622ZM187.446 212.135L185.711 204.2L193.645 202.465L195.381 210.4L187.446 212.135ZM203.717 208.576L195.784 210.311L194.049 202.376L201.982 200.641L203.717 208.576Z" fill="#FFAEB8"/>
<path d="M150.596 194.162L148.48 203.164L148.74 203.225L150.855 194.223L150.596 194.162Z" fill="#131313"/>
<path d="M151.08 218.508L151.042 218.245L154.134 217.802L155.816 203.003L143.082 203.579L143.07 203.313L156.116 202.723L154.375 218.037L151.08 218.508Z" fill="#131313"/>
<path d="M204.216 190.201L216.763 201.608L214.596 205.03L201.82 193.167L204.216 190.201Z" fill="#ED2941"/>
<path d="M152.555 201.722H156.319L154.437 219.288H151.08L152.555 201.722Z" fill="#ED2941"/>
<path d="M176.852 188.905L176.6 188.988L183.329 209.293L183.582 209.209L176.852 188.905Z" fill="#131313"/>
<path d="M196.125 200.842L192.932 204.948L193.142 205.112L196.335 201.005L196.125 200.842Z" fill="#131313"/>
<path d="M181.765 229.731L181.607 229.945L217.139 256.124L217.297 255.909L181.765 229.731Z" fill="#131313"/>
<path d="M162.362 235.104L162.219 235.328L163.409 236.087L163.552 235.863L162.362 235.104Z" fill="#131313"/>
<path d="M235.288 281.927L232.892 280.398L233.035 280.174L235.431 281.702L235.288 281.927ZM230.496 278.87L228.1 277.342L228.243 277.118L230.639 278.646L230.496 278.87ZM225.704 275.814L223.308 274.286L223.451 274.062L225.847 275.59L225.704 275.814ZM220.912 272.758L218.516 271.23L218.659 271.006L221.055 272.534L220.912 272.758ZM216.12 269.702L213.724 268.174L213.868 267.95L216.263 269.478L216.12 269.702ZM211.328 266.646L208.932 265.118L209.076 264.893L211.472 266.421L211.328 266.646ZM206.537 263.59L204.141 262.062L204.284 261.837L206.68 263.365L206.537 263.59ZM201.745 260.534L199.349 259.006L199.492 258.781L201.888 260.309L201.745 260.534ZM196.953 257.478L194.557 255.95L194.7 255.725L197.096 257.253L196.953 257.478ZM192.161 254.422L189.765 252.894L189.908 252.669L192.304 254.197L192.161 254.422ZM187.369 251.366L184.973 249.837L185.116 249.613L187.512 251.141L187.369 251.366ZM182.577 248.31L180.181 246.781L180.324 246.557L182.72 248.085L182.577 248.31ZM177.785 245.253L175.389 243.725L175.532 243.501L177.928 245.029L177.785 245.253ZM172.993 242.197L170.597 240.669L170.74 240.445L173.136 241.973L172.993 242.197ZM168.201 239.141L165.805 237.613L165.948 237.389L168.345 238.916L168.201 239.141Z" fill="#131313"/>
<path d="M237.827 283.23L237.684 283.454L238.874 284.213L239.017 283.989L237.827 283.23Z" fill="#131313"/>
<path d="M211.03 250.142L210.769 250.087L211.358 247.325L211.618 247.381L211.03 250.142ZM212.207 244.62L211.947 244.564L212.536 241.803L212.796 241.858L212.207 244.62ZM212.563 239.107C212.4 238.684 212.153 238.298 211.836 237.973C211.519 237.648 211.139 237.391 210.72 237.217L210.821 236.971C211.274 237.158 211.684 237.436 212.026 237.787C212.368 238.137 212.636 238.554 212.812 239.012L212.563 239.107ZM207.976 236.806L205.167 236.528L205.192 236.263L208.001 236.542L207.976 236.806ZM202.357 236.25L199.548 235.971L199.574 235.707L202.383 235.985L202.357 236.25ZM196.739 235.693L193.929 235.415L193.955 235.15L196.764 235.428L196.739 235.693ZM191.12 235.137L188.311 234.859L188.336 234.594L191.146 234.872L191.12 235.137Z" fill="#131313"/>
<path d="M206.287 192.085L218.986 180.049L225.659 186.067L214.982 199.989L206.287 192.085Z" fill="#F59060"/>
<path d="M156.199 202.857L172.764 202.437L173.959 212.853L154.723 216.635L156.199 202.857Z" fill="#F59060"/>
<path d="M218.295 181.058L220.737 177.445C220.878 177.243 221.049 177.064 221.244 176.913C222.464 175.969 227.103 171.991 230.676 168.91C231.201 168.458 231.932 169.142 231.516 169.696C230.722 170.755 228.648 172.555 229.031 173.532C229.173 173.897 229.656 173.778 230.112 174.466C230.293 174.782 230.503 175.082 230.738 175.361C230.821 175.468 230.914 175.566 231.016 175.653C231.316 175.887 231.596 175.886 232.021 176.329C232.521 176.851 232.311 177.039 232.907 177.691C233.246 178.063 233.411 178.108 233.681 178.515C233.858 178.784 234.066 179.103 234.031 179.522C234.017 179.705 233.964 179.883 233.876 180.044C233.789 180.205 233.669 180.346 233.523 180.458L228.817 184.1C228.297 184.502 226.856 184.367 226.662 184.994L223.988 187.738L218.295 181.058Z" fill="#F59060"/>
<path d="M223.692 180.799C223.976 180.733 224.243 180.608 224.476 180.433C224.668 180.284 224.826 180.098 224.943 179.886C225.441 178.986 225.158 177.786 225.066 177.457L225.599 176.673L226.02 176.052L226.544 175.283C226.628 175.159 226.669 175.01 226.66 174.86C226.651 174.71 226.593 174.567 226.495 174.454C226.396 174.34 226.263 174.262 226.116 174.232C225.969 174.202 225.816 174.222 225.681 174.288L224.937 174.651L224.281 174.969L223.119 175.534L223.275 175.855L224.504 175.256L225.16 174.938L225.84 174.608C225.904 174.577 225.977 174.568 226.047 174.582C226.117 174.597 226.18 174.634 226.226 174.688C226.273 174.742 226.301 174.81 226.305 174.882C226.309 174.953 226.289 175.024 226.249 175.083L225.791 175.755L225.37 176.376L224.675 177.397L224.702 177.482C224.705 177.495 225.127 178.821 224.63 179.714C224.522 179.903 224.375 180.067 224.198 180.194C224.022 180.322 223.82 180.411 223.607 180.455L223.692 180.799Z" fill="#131313"/>
<path d="M228.892 173.382L224.881 177.102L225.123 177.363L229.134 173.643L228.892 173.382Z" fill="#131313"/>
<path d="M227.992 181.628L227.973 181.272C227.42 181.302 226.998 181.17 226.72 180.88C226.336 180.479 226.317 179.874 226.323 179.676L230.859 175.493L230.617 175.23L225.978 179.509L225.971 179.577C225.967 179.615 225.885 180.522 226.461 181.125C226.815 181.495 227.33 181.664 227.992 181.628Z" fill="#131313"/>
<path d="M229.641 183.615L229.701 183.263C228.352 183.034 228.184 181.863 228.164 181.535L232.991 177.8L232.773 177.518L227.806 181.361L227.805 181.447C227.804 181.466 227.806 183.303 229.641 183.615Z" fill="#131313"/>
<path d="M226.068 179.754L226.228 179.436C225.17 178.903 225.048 177.429 225.047 177.414L224.691 177.44C224.697 177.509 224.831 179.131 226.068 179.754Z" fill="#131313"/>
<path d="M172.291 202.551C172.291 202.551 179.259 200.731 185.596 201.422C185.656 201.429 185.713 201.456 185.758 201.497C185.803 201.539 185.834 201.594 185.845 201.654C185.857 201.714 185.849 201.776 185.823 201.831C185.797 201.887 185.755 201.932 185.701 201.962L181.686 204.16L180.878 210.463C180.827 210.859 180.648 211.229 180.368 211.515C180.088 211.801 179.722 211.988 179.327 212.047L173.96 212.853L172.291 202.551Z" fill="#F59060"/>
<path d="M206.287 192.084L215.622 199.155L214.982 199.989L206.287 192.084Z" fill="#131313"/>
<path d="M156.199 202.856L156.321 216.321L154.723 216.635L156.199 202.856Z" fill="#131313"/>
<path d="M204.296 266.693L203.588 270.732L212.915 275.18L213.648 272.436L204.296 266.693Z" fill="#1D6DEC"/>
<path d="M204.368 266.582L204.229 266.809L213.58 272.551L213.719 272.324L204.368 266.582Z" fill="#131313"/>
<path d="M156.776 180.505L154.787 183.024L159.046 188.661L160.814 186.037L156.776 180.505Z" fill="#ED2941"/>
<path d="M164.789 179.552L167.358 181.675L167.6 186.589L165.088 185.182L164.789 179.552Z" fill="#ED2941"/>
</svg>
