<svg width="267" height="287" viewBox="0 0 267 287" fill="none" xmlns="http://www.w3.org/2000/svg">
<path d="M44.4116 187.517H52.4446V210.225H58.4097V187.517H66.4825V182.387H44.4116V187.517ZM75.7437 210.463C81.1919 210.463 84.7312 207.282 85.3674 203.305H79.8398C79.3625 205.214 77.7718 206.208 75.5051 206.208C72.6816 206.208 70.8125 204.458 70.6932 201.555V201.277H85.5265C85.6458 200.641 85.6856 199.965 85.6856 199.368C85.606 193.363 81.4702 189.546 75.346 189.546C69.023 189.546 64.8474 193.681 64.8474 200.044C64.8474 206.367 68.9435 210.463 75.7437 210.463ZM70.8125 197.618C71.1307 195.192 72.96 193.721 75.3858 193.721C77.9309 193.721 79.6409 195.113 80.0386 197.618H70.8125ZM113.207 189.546C110.105 189.546 107.719 190.818 106.287 193.005C105.015 190.42 102.668 189.506 100.163 189.546C97.1806 189.585 95.391 190.739 94.1582 192.329L93.6413 189.784H88.7499V210.225H94.3571V199.09C94.3571 196.028 95.9478 194.159 98.3736 194.159C100.839 194.159 101.953 195.749 101.953 198.811V210.225H107.56V199.05C107.56 195.948 109.19 194.159 111.616 194.159C114.042 194.159 115.155 195.749 115.155 198.811V210.225H120.763V198.493C120.763 191.932 117.422 189.546 113.207 189.546ZM136.016 189.546C133.113 189.546 131.045 190.858 129.732 192.608L129.176 189.784H124.284V218.178H129.892V207.64C131.204 209.31 133.232 210.463 136.055 210.463C141.543 210.463 145.52 206.407 145.52 200.044C145.52 193.602 141.543 189.506 136.016 189.546ZM134.783 205.89C131.721 205.89 129.812 203.464 129.812 199.965C129.812 196.505 131.721 194.119 134.783 194.119C137.845 194.119 139.833 196.505 139.833 199.965C139.833 203.464 137.845 205.89 134.783 205.89ZM148.634 210.225H154.241V182.387H148.634V210.225ZM177.635 205.492C176.76 205.492 176.323 205.293 176.323 204.22V196.982C176.323 192.091 173.022 189.546 167.295 189.546C161.887 189.546 158.228 192.17 157.831 196.147H163.239C163.478 194.636 164.949 193.642 167.136 193.642C169.483 193.642 170.795 194.835 170.795 196.664V197.658H166.739C160.614 197.658 157.353 200.124 157.353 204.458C157.353 208.356 160.535 210.463 164.949 210.463C168.13 210.463 170.198 209.151 171.63 206.884C171.59 208.833 172.505 210.225 175.408 210.225H178.271V205.492H177.635ZM170.795 201.794C170.755 204.578 168.966 206.407 166.023 206.407C164.154 206.407 163 205.492 163 204.061C163 202.351 164.353 201.396 166.699 201.396H170.795V201.794ZM181.912 204.379C181.912 208.276 183.86 210.225 187.758 210.225H192.331V205.492H189.547C188.076 205.492 187.519 204.896 187.519 203.464V194.516H192.212V189.784H187.519V184.058H181.912V189.784H178.532V194.516H181.912V204.379ZM204.716 210.463C210.164 210.463 213.704 207.282 214.34 203.305H208.812C208.335 205.214 206.744 206.208 204.478 206.208C201.654 206.208 199.785 204.458 199.666 201.555V201.277H214.499C214.618 200.641 214.658 199.965 214.658 199.368C214.579 193.363 210.443 189.546 204.319 189.546C197.996 189.546 193.82 193.681 193.82 200.044C193.82 206.367 197.916 210.463 204.716 210.463ZM199.785 197.618C200.103 195.192 201.933 193.721 204.358 193.721C206.903 193.721 208.613 195.113 209.011 197.618H199.785ZM43.6681 237.943H46.0541V249.225H48.1808V237.943H51.9155V235.998H48.1808V234.467C48.1808 233.456 48.5699 233.015 49.6332 233.015H51.9155V231.07H49.5035C47.0397 231.07 46.0541 232.185 46.0541 234.519V235.998H43.6681V237.943ZM59.5727 235.998C57.2126 235.998 56.2011 236.983 55.5787 237.995L55.2934 235.998H53.452V249.225H55.5787V242.481C55.5787 240.381 56.3308 238.072 59.1059 238.072H60.1692V235.998H59.5727ZM67.3476 249.38C71.212 249.38 73.9093 246.631 73.9093 242.611C73.9093 238.591 71.212 235.842 67.3476 235.842C63.4833 235.842 60.786 238.591 60.786 242.611C60.786 246.631 63.4833 249.38 67.3476 249.38ZM67.3476 247.487C64.7282 247.487 62.9646 245.438 62.9646 242.611C62.9646 239.784 64.7282 237.735 67.3476 237.735C69.9671 237.735 71.7307 239.784 71.7307 242.611C71.7307 245.438 69.9671 247.487 67.3476 247.487ZM91.1052 235.842C88.7451 235.842 87.3187 236.931 86.5147 238.358C85.7625 236.672 84.1805 235.842 82.3391 235.842C80.2902 235.842 79.175 236.853 78.4747 237.813L78.1894 235.998H76.348V249.225H78.4747V242.248C78.4747 239.603 79.7974 237.787 81.976 237.787C83.9989 237.787 85.166 239.136 85.166 241.729V249.225H87.2927V242.144C87.2927 239.447 88.6414 237.787 90.8459 237.787C92.8429 237.787 93.984 239.136 93.984 241.729V249.225H96.1107V241.6C96.1107 237.424 93.8544 235.842 91.1052 235.842ZM127.201 249.225V244.095H116.146V221.387H110.18V249.225H127.201ZM132.761 226.597C134.59 226.597 136.022 225.245 136.022 223.455C136.022 221.626 134.59 220.274 132.761 220.274C130.932 220.274 129.5 221.626 129.5 223.455C129.5 225.245 130.932 226.597 132.761 226.597ZM129.937 249.225H135.584V228.784H129.937V249.225ZM151.223 228.546C148.4 228.546 146.411 229.739 145.059 231.369V221.387H139.452V249.225H144.343L144.9 246.441C146.213 248.191 148.241 249.463 151.183 249.463C156.711 249.463 160.688 245.288 160.688 238.965C160.688 232.482 156.711 228.546 151.223 228.546ZM149.951 244.89C146.889 244.89 144.98 242.464 144.98 238.965C144.98 235.505 146.889 233.119 149.951 233.119C153.013 233.119 155.001 235.505 155.001 239.004C155.001 242.504 153.013 244.89 149.951 244.89ZM175.295 228.784C172.113 228.784 170.523 230.017 169.409 231.846L168.892 228.784H163.802V249.225H169.409V239.203C169.409 236.101 170.682 233.874 174.022 233.874H176.249V228.784H175.295ZM197.735 244.492C196.86 244.492 196.422 244.293 196.422 243.22V235.982C196.422 231.091 193.122 228.546 187.395 228.546C181.987 228.546 178.328 231.17 177.931 235.147H183.339C183.578 233.636 185.049 232.642 187.236 232.642C189.582 232.642 190.895 233.835 190.895 235.664V236.658H186.838C180.714 236.658 177.453 239.124 177.453 243.458C177.453 247.356 180.635 249.463 185.049 249.463C188.23 249.463 190.298 248.151 191.73 245.884C191.69 247.833 192.605 249.225 195.508 249.225H198.371V244.492H197.735ZM190.895 240.794C190.855 243.578 189.065 245.407 186.123 245.407C184.254 245.407 183.1 244.492 183.1 243.061C183.1 241.351 184.452 240.396 186.799 240.396H190.895V240.794ZM212.033 228.784C208.852 228.784 207.261 230.017 206.147 231.846L205.631 228.784H200.54V249.225H206.147V239.203C206.147 236.101 207.42 233.874 210.761 233.874H212.988V228.784H212.033ZM221.688 249.344L221.171 250.696C220.614 252.088 220.137 252.446 218.706 252.446H215.604V257.178H221.052C224.233 257.178 225.267 255.508 226.54 252.128L235.607 228.784H229.602L224.75 243.339L219.779 228.784H213.814L221.688 249.344Z" fill="white"/>
<path d="M140.32 101.499C143.451 95.9039 141.421 89.2499 139.978 83.1317C138.567 77.1613 137.778 71.0609 137.622 64.9279C137.549 62.0229 137.67 58.9533 139.382 56.48C141.058 54.0597 143.992 52.5946 146.833 51.2984C157.969 46.2184 171.176 42.094 182.735 46.3598C190.775 49.3269 196.722 56.3803 197.68 64.086C198.638 71.7917 194.568 79.8334 187.451 84.2959C183.512 86.7661 178.751 88.2056 175.294 91.194C169.608 96.1089 169.047 104.983 174.078 110.436C177.801 114.471 183.62 116.343 188.669 118.999C196.398 123.067 202.657 129.314 206.319 136.615C208.435 140.835 209.59 146.042 206.691 149.875C201.929 156.169 190.768 153.861 183.867 149.409C176.966 144.957 170.232 138.746 161.721 139.088C156.512 139.297 151.918 142.002 147.4 144.321C138.746 148.742 129.545 151.999 120.038 154.009C112.729 155.562 105.038 156.388 97.7234 154.859C90.4085 153.329 83.499 149.117 80.669 142.916C76.8893 134.635 81.4734 124.582 89.6097 119.35C103.164 110.633 131.591 117.102 140.32 101.499Z" fill="#F5F3E3" fill-opacity="0.4"/>
<path d="M120.065 85.0612C119.47 92.2525 116.544 99.5726 110.479 104.352C102.655 110.516 91.3481 111.375 80.9029 111.569C72.0219 111.733 65.5226 111.377 59.4699 108.796C53.6377 106.31 52.1383 103.794 51.7114 102.994C49.2162 98.3179 51.189 91.9736 55.4175 89.0133C57.008 87.8999 60.2262 87.4591 66.5971 86.6232C73.5914 85.7054 76.4732 85.794 81.3238 84.1955C86.5355 82.478 87.5156 80.9565 87.8167 80.4087C89.0615 78.1432 87.6967 76.1469 86.498 72.2528C85.4838 68.9578 83.0312 60.99 86.4733 54.8971C87.1573 53.6864 89.4645 50.0889 93.8676 48.6833C102.721 45.8573 112.341 54.3538 113.013 54.9631C123.844 64.7779 120.461 80.2685 120.065 85.0612Z" fill="#F5F3E3" fill-opacity="0.4"/>
<path d="M207.467 155.73H65.709C64.0214 155.73 62.6533 157.099 62.6533 158.786C62.6533 160.474 64.0214 161.842 65.709 161.842H207.467C209.155 161.842 210.523 160.474 210.523 158.786C210.523 157.099 209.155 155.73 207.467 155.73Z" fill="#004751"/>
<path d="M174.715 129.144L167.722 132.099L167.464 132.205L155.599 137.218V155.803H114.997L114.421 141.256L114.411 140.983L114.262 137.218L112.257 136.368L111.955 136.238L107.75 134.457H107.747L107.107 134.183L105.384 133.453L104.694 133.161L99.7132 131.05L99.3972 130.915L95.3376 129.194L94.9395 129.025L94.9686 128.969L98.9181 121.139L99.1942 120.592L101.926 115.178L102.048 114.935L103.87 111.324L104 111.069L104.828 109.425C105.096 108.894 105.387 108.378 105.699 107.877C105.744 107.8 105.792 107.729 105.84 107.654C108.057 104.184 111.312 101.42 115.185 99.7021C115.289 99.6569 115.392 99.6092 115.499 99.5667C116.225 99.2568 116.966 98.9855 117.721 98.7541C121.809 97.4904 126.006 96.6104 130.258 96.1256C134.11 95.6822 137.999 95.6528 141.858 96.038C144.904 96.3466 147.909 96.9731 150.824 97.9071C153.895 98.8916 156.703 100.556 159.042 102.776C159.119 102.848 159.196 102.922 159.27 102.997C160.176 103.886 161 104.856 161.731 105.894C161.784 105.971 161.837 106.045 161.888 106.122C162.421 106.902 162.899 107.718 163.319 108.565L163.927 109.661L164.062 109.908L167.588 116.275L168.199 117.379L171.696 123.691L171.831 123.937L173.82 127.53L173.955 127.774L174.715 129.144Z" fill="#FCB913"/>
<path d="M159.271 102.998C158.965 103.08 158.649 103.12 158.331 103.118C156.68 103.118 155.851 102.151 155.05 101.214C154.253 100.282 153.502 99.4003 151.972 99.4003C150.443 99.4003 149.689 100.282 148.893 101.214C148.091 102.151 147.262 103.118 145.611 103.118C143.959 103.118 143.131 102.151 142.329 101.214C141.533 100.282 140.779 99.4003 139.252 99.4003C137.723 99.4003 136.969 100.282 136.172 101.214C135.37 102.151 134.542 103.118 132.89 103.118C131.239 103.118 130.411 102.151 129.609 101.214C128.81 100.282 128.058 99.4003 126.529 99.4003C125 99.4003 124.246 100.282 123.449 101.214C122.647 102.151 121.819 103.118 120.167 103.118C118.516 103.118 117.687 102.151 116.886 101.214C116.373 100.616 115.879 100.037 115.187 99.7029C115.29 99.6578 115.394 99.61 115.5 99.5676C116.142 99.9366 116.62 100.494 117.088 101.041C117.887 101.973 118.638 102.852 120.168 102.852C121.697 102.852 122.451 101.973 123.247 101.041C124.049 100.104 124.878 99.1348 126.529 99.1348C128.18 99.1348 129.009 100.104 129.811 101.041C130.607 101.973 131.361 102.852 132.891 102.852C134.42 102.852 135.171 101.973 135.971 101.041C136.77 100.104 137.601 99.1348 139.252 99.1348C140.901 99.1348 141.729 100.104 142.531 101.041C143.328 101.973 144.082 102.852 145.611 102.852C147.14 102.852 147.892 101.973 148.691 101.041C149.493 100.104 150.321 99.1348 151.972 99.1348C153.624 99.1348 154.452 100.104 155.251 101.041C156.051 101.973 156.802 102.852 158.331 102.852C158.57 102.855 158.809 102.83 159.043 102.778C159.12 102.849 159.197 102.924 159.271 102.998Z" fill="white"/>
<path d="M161.889 106.122C161.796 106.226 161.706 106.332 161.613 106.438C160.814 107.375 159.983 108.342 158.331 108.342C156.68 108.342 155.852 107.376 155.05 106.438C154.253 105.506 153.502 104.625 151.973 104.625C150.443 104.625 149.689 105.506 148.893 106.438C148.091 107.375 147.262 108.342 145.611 108.342C143.96 108.342 143.131 107.376 142.329 106.438C141.533 105.506 140.779 104.625 139.252 104.625C137.723 104.625 136.969 105.506 136.172 106.438C135.37 107.375 134.542 108.342 132.891 108.342C131.239 108.342 130.411 107.376 129.609 106.438C128.81 105.506 128.058 104.625 126.529 104.625C125 104.625 124.246 105.506 123.449 106.438C122.647 107.375 121.819 108.342 120.168 108.342C118.516 108.342 117.688 107.376 116.886 106.438C116.089 105.506 115.335 104.625 113.806 104.625C112.279 104.625 111.525 105.506 110.729 106.438C109.927 107.375 109.099 108.342 107.447 108.342C106.833 108.354 106.227 108.193 105.7 107.878C105.745 107.801 105.793 107.729 105.841 107.655C106.327 107.942 106.883 108.088 107.447 108.077C108.976 108.077 109.728 107.198 110.527 106.266C111.326 105.329 112.155 104.359 113.806 104.359C115.458 104.359 116.286 105.329 117.088 106.266C117.887 107.198 118.638 108.077 120.168 108.077C121.697 108.077 122.451 107.198 123.247 106.266C124.049 105.329 124.878 104.359 126.529 104.359C128.181 104.359 129.009 105.329 129.811 106.266C130.607 107.198 131.361 108.077 132.891 108.077C134.42 108.077 135.171 107.198 135.971 106.266C136.77 105.329 137.601 104.359 139.252 104.359C140.901 104.359 141.729 105.329 142.531 106.266C143.328 107.198 144.082 108.077 145.611 108.077C147.14 108.077 147.892 107.198 148.691 106.266C149.493 105.329 150.321 104.359 151.973 104.359C153.624 104.359 154.452 105.329 155.251 106.266C156.051 107.198 156.802 108.077 158.331 108.077C159.86 108.077 160.615 107.198 161.411 106.266C161.517 106.141 161.624 106.016 161.732 105.894C161.786 105.971 161.839 106.045 161.889 106.122Z" fill="white"/>
<path d="M164.064 109.908C162.941 110.11 162.296 110.869 161.613 111.663C160.814 112.598 159.983 113.567 158.331 113.567C156.68 113.567 155.852 112.598 155.05 111.663C154.253 110.731 153.502 109.85 151.973 109.85C150.443 109.85 149.689 110.731 148.893 111.663C148.091 112.598 147.263 113.567 145.611 113.567C143.96 113.567 143.131 112.598 142.329 111.663C141.533 110.731 140.779 109.85 139.252 109.85C137.723 109.85 136.969 110.731 136.172 111.663C135.371 112.598 134.542 113.567 132.891 113.567C131.24 113.567 130.411 112.598 129.609 111.663C128.81 110.731 128.059 109.85 126.529 109.85C125 109.85 124.246 110.731 123.449 111.663C122.648 112.598 121.819 113.567 120.168 113.567C118.516 113.567 117.688 112.598 116.886 111.663C116.089 110.731 115.336 109.85 113.806 109.85C112.28 109.85 111.525 110.731 110.729 111.663C109.927 112.598 109.099 113.567 107.447 113.567C105.796 113.567 104.968 112.598 104.166 111.663C104.068 111.549 103.969 111.435 103.871 111.323L104.001 111.068C104.126 111.206 104.245 111.35 104.368 111.49C105.164 112.422 105.918 113.301 107.447 113.301C108.977 113.301 109.728 112.423 110.527 111.49C111.326 110.553 112.155 109.584 113.806 109.584C115.458 109.584 116.286 110.553 117.088 111.49C117.887 112.422 118.638 113.301 120.168 113.301C121.697 113.301 122.451 112.423 123.248 111.49C124.05 110.553 124.878 109.584 126.529 109.584C128.181 109.584 129.009 110.553 129.811 111.49C130.607 112.422 131.361 113.301 132.891 113.301C134.42 113.301 135.171 112.423 135.971 111.49C136.77 110.553 137.601 109.584 139.252 109.584C140.901 109.584 141.729 110.553 142.531 111.49C143.328 112.422 144.082 113.301 145.611 113.301C147.141 113.301 147.892 112.423 148.691 111.49C149.493 110.553 150.321 109.584 151.973 109.584C153.624 109.584 154.453 110.553 155.252 111.49C156.051 112.422 156.802 113.301 158.331 113.301C159.861 113.301 160.615 112.423 161.411 111.49C162.078 110.71 162.765 109.908 163.928 109.661L164.064 109.908Z" fill="white"/>
<path d="M168.2 117.38C168.054 117.218 167.913 117.054 167.772 116.889C166.976 115.957 166.222 115.076 164.692 115.076C163.163 115.076 162.412 115.957 161.612 116.889C160.813 117.826 159.982 118.793 158.331 118.793C156.679 118.793 155.851 117.826 155.049 116.889C154.253 115.957 153.501 115.076 151.972 115.076C150.443 115.076 149.689 115.957 148.892 116.889C148.09 117.826 147.262 118.793 145.61 118.793C143.959 118.793 143.131 117.826 142.329 116.889C141.532 115.957 140.778 115.076 139.252 115.076C137.722 115.076 136.968 115.957 136.172 116.889C135.37 117.826 134.541 118.793 132.89 118.793C131.239 118.793 130.41 117.826 129.608 116.889C128.809 115.957 128.058 115.076 126.529 115.076C124.999 115.076 124.245 115.957 123.449 116.889C122.647 117.826 121.818 118.793 120.167 118.793C118.516 118.793 117.687 117.826 116.885 116.889C116.089 115.957 115.335 115.076 113.806 115.076C112.279 115.076 111.525 115.957 110.728 116.889C109.926 117.826 109.098 118.793 107.447 118.793C105.795 118.793 104.967 117.826 104.165 116.889C103.53 116.146 102.923 115.434 101.927 115.179L102.049 114.935C103.092 115.227 103.738 115.981 104.367 116.717C105.163 117.649 105.917 118.528 107.447 118.528C108.976 118.528 109.727 117.649 110.527 116.717C111.326 115.78 112.154 114.811 113.806 114.811C115.457 114.811 116.285 115.78 117.087 116.717C117.886 117.649 118.638 118.528 120.167 118.528C121.696 118.528 122.45 117.649 123.247 116.717C124.049 115.78 124.877 114.811 126.529 114.811C128.18 114.811 129.008 115.78 129.81 116.717C130.607 117.649 131.361 118.528 132.89 118.528C134.419 118.528 135.171 117.649 135.97 116.717C136.769 115.78 137.6 114.811 139.252 114.811C140.9 114.811 141.729 115.78 142.531 116.717C143.327 117.649 144.081 118.528 145.61 118.528C147.14 118.528 147.891 117.649 148.69 116.717C149.492 115.78 150.321 114.811 151.972 114.811C153.623 114.811 154.452 115.78 155.251 116.717C156.05 117.649 156.802 118.528 158.331 118.528C159.86 118.528 160.614 117.649 161.411 116.717C162.212 115.78 163.041 114.811 164.692 114.811C166.084 114.811 166.893 115.498 167.589 116.276L168.2 117.38Z" fill="white"/>
<path d="M171.832 123.938C171.576 123.991 171.315 124.018 171.054 124.017C169.403 124.017 168.574 123.048 167.773 122.113C166.976 121.181 166.222 120.3 164.693 120.3C163.163 120.3 162.412 121.181 161.613 122.113C160.814 123.048 159.983 124.017 158.331 124.017C156.68 124.017 155.851 123.048 155.05 122.113C154.253 121.181 153.502 120.3 151.972 120.3C150.443 120.3 149.689 121.181 148.893 122.113C148.091 123.048 147.262 124.017 145.611 124.017C143.959 124.017 143.131 123.048 142.329 122.113C141.533 121.181 140.779 120.3 139.252 120.3C137.723 120.3 136.969 121.181 136.172 122.113C135.37 123.048 134.542 124.017 132.89 124.017C131.239 124.017 130.411 123.048 129.609 122.113C128.81 121.181 128.058 120.3 126.529 120.3C125 120.3 124.246 121.181 123.449 122.113C122.647 123.048 121.819 124.017 120.167 124.017C118.516 124.017 117.687 123.048 116.886 122.113C116.089 121.181 115.335 120.3 113.806 120.3C112.279 120.3 111.525 121.181 110.729 122.113C109.927 123.048 109.098 124.017 107.447 124.017C105.796 124.017 104.967 123.048 104.165 122.113C103.369 121.181 102.615 120.3 101.085 120.3C100.281 120.285 99.5034 120.587 98.9189 121.139L99.195 120.592C99.7527 120.216 100.413 120.021 101.085 120.035C102.737 120.035 103.565 121.004 104.367 121.941C105.164 122.873 105.918 123.752 107.447 123.752C108.976 123.752 109.728 122.873 110.527 121.941C111.326 121.004 112.154 120.035 113.806 120.035C115.457 120.035 116.286 121.004 117.087 121.941C117.887 122.873 118.638 123.752 120.167 123.752C121.697 123.752 122.451 122.873 123.247 121.941C124.049 121.004 124.877 120.035 126.529 120.035C128.18 120.035 129.009 121.004 129.811 121.941C130.607 122.873 131.361 123.752 132.89 123.752C134.42 123.752 135.171 122.873 135.97 121.941C136.769 121.004 137.6 120.035 139.252 120.035C140.9 120.035 141.729 121.004 142.531 121.941C143.327 122.873 144.081 123.752 145.611 123.752C147.14 123.752 147.891 122.873 148.691 121.941C149.492 121.004 150.321 120.035 151.972 120.035C153.624 120.035 154.452 121.004 155.251 121.941C156.05 122.873 156.802 123.752 158.331 123.752C159.86 123.752 160.614 122.873 161.411 121.941C162.213 121.004 163.041 120.035 164.693 120.035C166.344 120.035 167.175 121.004 167.974 121.941C168.774 122.873 169.525 123.752 171.054 123.752C171.27 123.753 171.485 123.733 171.697 123.691L171.832 123.938Z" fill="white"/>
<path d="M173.956 127.774C173.258 128.552 172.448 129.243 171.054 129.243C169.402 129.243 168.574 128.276 167.772 127.339C166.975 126.407 166.221 125.525 164.692 125.525C163.163 125.525 162.411 126.407 161.612 127.339C160.813 128.276 159.982 129.243 158.33 129.243C156.679 129.243 155.851 128.276 155.049 127.339C154.252 126.407 153.501 125.525 151.972 125.525C150.442 125.525 149.688 126.407 148.892 127.339C148.09 128.276 147.262 129.243 145.61 129.243C143.959 129.243 143.13 128.276 142.328 127.339C141.532 126.407 140.778 125.525 139.251 125.525C137.722 125.525 136.968 126.407 136.171 127.339C135.37 128.276 134.541 129.243 132.89 129.243C131.239 129.243 130.41 128.276 129.608 127.339C128.809 126.407 128.058 125.525 126.528 125.525C124.999 125.525 124.245 126.407 123.448 127.339C122.647 128.276 121.818 129.243 120.167 129.243C118.515 129.243 117.687 128.276 116.885 127.339C116.088 126.407 115.335 125.525 113.805 125.525C112.279 125.525 111.524 126.407 110.728 127.339C109.926 128.276 109.098 129.243 107.446 129.243C105.795 129.243 104.967 128.276 104.165 127.339C103.368 126.407 102.614 125.525 101.085 125.525C99.5556 125.525 98.8015 126.407 98.0049 127.339C97.3093 128.151 96.5925 128.987 95.3367 129.195L94.9385 129.025L94.9676 128.969C96.3349 128.881 97.0491 128.048 97.8033 127.166C98.6051 126.229 99.4333 125.26 101.085 125.26C102.736 125.26 103.565 126.229 104.367 127.166C105.163 128.098 105.917 128.977 107.446 128.977C108.976 128.977 109.727 128.098 110.526 127.166C111.325 126.229 112.154 125.26 113.805 125.26C115.457 125.26 116.285 126.229 117.087 127.166C117.886 128.098 118.637 128.977 120.167 128.977C121.696 128.977 122.45 128.098 123.247 127.166C124.049 126.229 124.877 125.26 126.528 125.26C128.18 125.26 129.008 126.229 129.81 127.166C130.606 128.098 131.36 128.977 132.89 128.977C134.419 128.977 135.17 128.098 135.97 127.166C136.769 126.229 137.6 125.26 139.251 125.26C140.9 125.26 141.728 126.229 142.53 127.166C143.327 128.098 144.081 128.977 145.61 128.977C147.14 128.977 147.891 128.098 148.69 127.166C149.492 126.229 150.32 125.26 151.972 125.26C153.623 125.26 154.452 126.229 155.251 127.166C156.05 128.098 156.801 128.977 158.33 128.977C159.86 128.977 160.614 128.098 161.41 127.166C162.212 126.229 163.041 125.26 164.692 125.26C166.343 125.26 167.175 126.229 167.974 127.166C168.773 128.098 169.524 128.977 171.054 128.977C172.381 128.977 173.125 128.316 173.82 127.53L173.956 127.774Z" fill="white"/>
<path d="M167.722 132.099L167.464 132.205C166.766 131.417 166.022 130.75 164.692 130.75C163.163 130.75 162.412 131.632 161.612 132.564C160.813 133.498 159.982 134.468 158.331 134.468C156.679 134.468 155.851 133.499 155.049 132.564C154.253 131.632 153.501 130.75 151.972 130.75C150.443 130.75 149.689 131.632 148.892 132.564C148.09 133.498 147.262 134.468 145.61 134.468C143.959 134.468 143.13 133.499 142.329 132.564C141.532 131.632 140.778 130.75 139.252 130.75C137.722 130.75 136.968 131.632 136.172 132.564C135.37 133.498 134.541 134.468 132.89 134.468C131.239 134.468 130.41 133.499 129.608 132.564C128.809 131.632 128.058 130.75 126.528 130.75C124.999 130.75 124.245 131.632 123.449 132.564C122.647 133.498 121.818 134.468 120.167 134.468C118.516 134.468 117.687 133.499 116.885 132.564C116.089 131.632 115.335 130.75 113.806 130.75C112.279 130.75 111.525 131.632 110.728 132.564C109.977 133.44 109.202 134.345 107.749 134.457H107.747C107.651 134.465 107.55 134.468 107.447 134.468C106.151 134.468 105.36 133.87 104.693 133.161C104.51 132.967 104.338 132.766 104.165 132.564C103.368 131.632 102.614 130.75 101.085 130.75C100.61 130.742 100.14 130.845 99.7125 131.05L99.3965 130.915C99.9107 130.623 100.494 130.475 101.085 130.485C102.736 130.485 103.565 131.454 104.367 132.391C104.674 132.774 105.014 133.13 105.384 133.453C105.865 133.875 106.469 134.131 107.107 134.183C107.22 134.196 107.333 134.203 107.447 134.202C108.976 134.202 109.727 133.323 110.527 132.391C111.326 131.454 112.154 130.485 113.806 130.485C115.457 130.485 116.285 131.454 117.087 132.391C117.886 133.323 118.638 134.202 120.167 134.202C121.696 134.202 122.45 133.323 123.247 132.391C124.049 131.454 124.877 130.485 126.528 130.485C128.18 130.485 129.008 131.454 129.81 132.391C130.607 133.323 131.361 134.202 132.89 134.202C134.419 134.202 135.171 133.323 135.97 132.391C136.769 131.454 137.6 130.485 139.252 130.485C140.9 130.485 141.729 131.454 142.531 132.391C143.327 133.323 144.081 134.202 145.61 134.202C147.14 134.202 147.891 133.323 148.69 132.391C149.492 131.454 150.32 130.485 151.972 130.485C153.623 130.485 154.452 131.454 155.251 132.391C156.05 133.323 156.802 134.202 158.331 134.202C159.86 134.202 160.614 133.323 161.411 132.391C162.212 131.454 163.041 130.485 164.692 130.485C166.171 130.485 166.992 131.263 167.722 132.099Z" fill="white"/>
<path d="M155.599 138.015V138.408C155.408 138.206 155.228 137.997 155.05 137.789C154.253 136.857 153.502 135.976 151.973 135.976C150.443 135.976 149.689 136.857 148.893 137.789C148.091 138.724 147.262 139.693 145.611 139.693C143.96 139.693 143.131 138.724 142.329 137.789C141.533 136.857 140.779 135.976 139.252 135.976C137.723 135.976 136.969 136.857 136.172 137.789C135.37 138.724 134.542 139.693 132.891 139.693C131.239 139.693 130.411 138.724 129.609 137.789C128.81 136.857 128.058 135.976 126.529 135.976C125 135.976 124.246 136.857 123.449 137.789C122.647 138.724 121.819 139.693 120.168 139.693C118.516 139.693 117.688 138.724 116.886 137.789C116.089 136.857 115.335 135.976 113.806 135.976C113.264 135.965 112.729 136.101 112.258 136.369L111.956 136.239C112.506 135.882 113.151 135.698 113.807 135.711C115.458 135.711 116.286 136.68 117.088 137.617C117.887 138.549 118.639 139.428 120.168 139.428C121.698 139.428 122.451 138.549 123.248 137.617C124.05 136.68 124.878 135.711 126.53 135.711C128.181 135.711 129.009 136.68 129.811 137.617C130.608 138.549 131.362 139.428 132.891 139.428C134.421 139.428 135.172 138.549 135.971 137.617C136.77 136.68 137.601 135.711 139.253 135.711C140.901 135.711 141.73 136.68 142.532 137.617C143.328 138.549 144.082 139.428 145.612 139.428C147.141 139.428 147.892 138.549 148.691 137.617C149.493 136.68 150.322 135.711 151.973 135.711C153.624 135.711 154.453 136.68 155.252 137.617C155.368 137.752 155.482 137.885 155.599 138.015Z" fill="white"/>
<path d="M155.599 143.24V143.633C155.408 143.431 155.228 143.222 155.049 143.015C154.253 142.083 153.501 141.201 151.972 141.201C150.443 141.201 149.689 142.083 148.892 143.015C148.091 143.949 147.262 144.918 145.611 144.918C143.959 144.918 143.131 143.949 142.329 143.015C141.532 142.083 140.779 141.201 139.252 141.201C137.723 141.201 136.968 142.083 136.172 143.015C135.37 143.949 134.542 144.918 132.89 144.918C131.239 144.918 130.411 143.949 129.609 143.015C128.809 142.083 128.058 141.201 126.529 141.201C124.999 141.201 124.245 142.083 123.449 143.015C122.647 143.949 121.819 144.918 120.167 144.918C118.516 144.918 117.687 143.949 116.886 143.015C116.203 142.218 115.553 141.456 114.422 141.257L114.411 140.983C115.672 141.188 116.389 142.027 117.087 142.842C117.887 143.774 118.638 144.653 120.167 144.653C121.697 144.653 122.451 143.774 123.247 142.842C124.049 141.905 124.877 140.936 126.529 140.936C128.18 140.936 129.009 141.905 129.81 142.842C130.607 143.774 131.361 144.653 132.89 144.653C134.42 144.653 135.171 143.774 135.97 142.842C136.769 141.905 137.6 140.936 139.252 140.936C140.9 140.936 141.729 141.905 142.531 142.842C143.327 143.774 144.081 144.653 145.611 144.653C147.14 144.653 147.891 143.774 148.691 142.842C149.492 141.905 150.321 140.936 151.972 140.936C153.624 140.936 154.452 141.905 155.251 142.842C155.368 142.977 155.482 143.11 155.599 143.24Z" fill="white"/>
<path d="M114.262 137.219L93.6133 128.546L95.8261 124.018L114.262 132.477V137.219Z" fill="#DD9B0A"/>
<path d="M155.599 137.219L176.294 128.459L173.72 123.792L155.667 131.643L155.599 137.219Z" fill="#DD9B0A"/>
<path d="M135.157 103.894C135.034 103.871 134.912 103.846 134.795 103.815C134.105 103.646 133.458 103.338 132.891 102.91C132.324 102.483 131.851 101.944 131.499 101.327C130.956 100.389 130.713 99.308 130.801 98.2278L131.311 91.8096H140.604L140.688 92.541L141.328 98.0186C141.741 101.544 138.644 104.557 135.157 103.894Z" fill="#F59060"/>
<path d="M140.688 92.5412V92.5437C140.688 92.5437 136.931 98.2787 132.07 94.5115C132.07 94.5115 131.311 97.4402 131.499 101.327C130.956 100.389 130.713 99.308 130.801 98.2278L131.311 91.8096H140.604L140.688 92.5412Z" fill="#090909"/>
<path d="M144.584 81.3783C144.082 86.3086 142.379 93.8271 136.682 94.7392C136.202 94.8149 135.712 94.7946 135.239 94.6794C133.242 94.1948 128.423 91.8825 127.916 80.8481C127.834 79.2013 128.184 77.5618 128.932 76.0923C129.68 74.6228 130.799 73.3746 132.179 72.4716C134.3 71.0881 137.092 70.4168 140.276 72.47C141.748 73.4112 142.93 74.7422 143.69 76.3149C144.451 77.8875 144.76 79.6403 144.584 81.3783Z" fill="#F59060"/>
<path d="M135.852 88.3211C135.959 88.3195 136.065 88.3016 136.167 88.2681C136.218 88.2524 136.26 88.2172 136.284 88.1705C136.309 88.1237 136.314 88.0691 136.298 88.0187C136.282 87.9683 136.247 87.9262 136.2 87.9017C136.153 87.8772 136.099 87.8723 136.048 87.8881C135.786 87.9701 135.709 87.8866 135.684 87.8592C135.283 87.4264 135.893 85.2416 136.454 83.8285C136.473 83.7796 136.472 83.7254 136.451 83.6775C136.429 83.6297 136.39 83.592 136.342 83.5727C136.293 83.5534 136.239 83.5539 136.191 83.5743C136.143 83.5946 136.104 83.6331 136.084 83.6814C135.843 84.2886 134.675 87.3569 135.392 88.1299C135.451 88.1927 135.522 88.2423 135.601 88.2753C135.681 88.3083 135.766 88.3239 135.852 88.3211Z" fill="#090909"/>
<path d="M140.644 87.7576C141.607 87.6938 142.36 87.2074 142.324 86.671C142.289 86.1347 141.479 85.7516 140.515 85.8153C139.552 85.879 138.799 86.3655 138.835 86.9018C138.87 87.4381 139.68 87.8213 140.644 87.7576Z" fill="#FC6D6D"/>
<path d="M142.016 82.0063C141.719 81.8591 141.408 81.7422 141.088 81.6573C140.761 81.5682 140.424 81.5164 140.085 81.5031C139.731 81.4937 139.379 81.5426 139.042 81.6477C138.708 81.7593 138.398 81.9337 138.129 82.1614C138.099 82.1844 138.073 82.2139 138.055 82.2478C138.036 82.2817 138.025 82.3192 138.023 82.3576C138.021 82.3961 138.027 82.4347 138.041 82.4706C138.055 82.5065 138.076 82.5389 138.104 82.5656C138.165 82.6228 138.244 82.6565 138.327 82.6606C138.41 82.6647 138.492 82.639 138.558 82.5881C138.562 82.5848 138.566 82.5816 138.57 82.5782L138.592 82.5581C138.784 82.3731 139.01 82.2264 139.257 82.1257C139.522 82.0256 139.802 81.9698 140.085 81.9605C140.383 81.955 140.68 81.9828 140.972 82.0436C141.265 82.1029 141.552 82.1906 141.828 82.3055L141.838 82.3096C141.883 82.3297 141.934 82.3326 141.981 82.3179C142.029 82.3031 142.069 82.2716 142.094 82.2294C142.105 82.2097 142.111 82.1881 142.112 82.166C142.114 82.1439 142.111 82.1218 142.103 82.1009C142.096 82.08 142.084 82.0609 142.069 82.0446C142.054 82.0283 142.036 82.0153 142.016 82.0063Z" fill="#090909"/>
<path d="M140.28 84.3033C140.313 83.8973 140.123 83.5507 139.856 83.5291C139.589 83.5075 139.346 83.819 139.313 84.225C139.281 84.6309 139.47 84.9775 139.737 84.9991C140.004 85.0207 140.247 84.7092 140.28 84.3033Z" fill="#090909"/>
<path d="M133.851 86.8396C133.887 86.3034 133.135 85.8166 132.172 85.7525C131.208 85.6883 130.398 86.071 130.363 86.6072C130.327 87.1434 131.079 87.6301 132.042 87.6943C133.006 87.7585 133.816 87.3758 133.851 86.8396Z" fill="#FC6D6D"/>
<path d="M130.683 82.0063C130.98 81.8591 131.291 81.7421 131.611 81.6572C131.939 81.5681 132.275 81.5164 132.615 81.5031C132.968 81.4937 133.32 81.5426 133.657 81.6477C133.992 81.7593 134.301 81.9337 134.57 82.1614C134.601 82.1844 134.626 82.2139 134.645 82.2478C134.663 82.2817 134.674 82.3192 134.676 82.3577C134.679 82.3962 134.673 82.4347 134.659 82.4706C134.645 82.5065 134.623 82.5389 134.595 82.5656C134.534 82.6228 134.455 82.6565 134.372 82.6606C134.289 82.6647 134.207 82.639 134.141 82.5881C134.137 82.5848 134.133 82.5816 134.129 82.5782L134.107 82.5581C133.915 82.3731 133.689 82.2263 133.443 82.1257C133.177 82.0256 132.898 81.9698 132.614 81.9605C132.317 81.955 132.019 81.9828 131.727 82.0436C131.434 82.1029 131.147 82.1906 130.871 82.3055L130.861 82.3096C130.816 82.3297 130.765 82.3326 130.718 82.3179C130.671 82.3031 130.631 82.2716 130.605 82.2294C130.595 82.2097 130.589 82.1881 130.587 82.1661C130.586 82.144 130.589 82.1218 130.596 82.1009C130.603 82.08 130.615 82.0609 130.63 82.0446C130.645 82.0284 130.663 82.0153 130.683 82.0063Z" fill="#090909"/>
<path d="M132.961 85.0002C133.228 84.9786 133.417 84.632 133.384 84.226C133.351 83.8201 133.108 83.5086 132.842 83.5302C132.575 83.5518 132.385 83.8984 132.418 84.3043C132.451 84.7103 132.694 85.0218 132.961 85.0002Z" fill="#090909"/>
<path d="M128.39 81.5127C128.057 81.5127 127.728 81.5876 127.427 81.7317C127.127 81.8759 126.863 82.0857 126.655 82.3457C126.446 82.6056 126.299 82.9091 126.224 83.2336C126.148 83.5581 126.147 83.8954 126.219 84.2205L126.614 85.9928C126.724 86.4864 126.999 86.9278 127.394 87.2441C127.789 87.5604 128.279 87.7327 128.785 87.7325H129.354C129.354 87.7325 130.334 83.3803 128.39 81.5127Z" fill="#F59060"/>
<path d="M144.269 81.5127C144.602 81.5126 144.931 81.5875 145.231 81.7316C145.532 81.8757 145.796 82.0856 146.004 82.3455C146.213 82.6055 146.36 82.9089 146.435 83.2335C146.511 83.558 146.512 83.8953 146.44 84.2205L146.045 85.9928C145.935 86.4864 145.66 86.9278 145.265 87.2441C144.87 87.5603 144.38 87.7326 143.874 87.7325H143.305C143.305 87.7325 142.324 83.3803 144.269 81.5127Z" fill="#F59060"/>
<path d="M136.096 91.3473C137.63 91.3473 138.839 90.2594 138.9 90.203L138.632 89.9092C138.615 89.9244 136.938 91.4279 135.165 90.7863L135.029 91.1608C135.371 91.2847 135.732 91.3479 136.096 91.3473Z" fill="#090909"/>
<path d="M127.956 81.5555L128.604 85.1571C128.604 85.1571 129.792 82.3305 129.792 79.1352C134.71 80.2845 138.686 80.0871 141.268 79.7361C143.996 79.3646 145.706 79.1077 147.026 77.7295C150.091 74.5283 148.904 67.518 146.275 66.4877C144.519 65.7997 143.123 68.171 138.128 70.1398C135.684 71.0963 133.111 71.6843 130.494 71.8846C129.998 71.9017 129.515 72.0421 129.087 72.2931C127.129 73.4743 126.699 77.1974 127.956 81.5555Z" fill="#090909"/>
<path d="M144.939 78.832L143.995 85.1577C143.995 85.1577 142.778 82.1263 142.859 79.0948C142.941 76.0633 144.939 78.832 144.939 78.832Z" fill="#090909"/>
<path d="M127.72 86.3496L128.047 86.1221C127.094 84.7523 127.08 84.0349 127.236 83.674C127.42 83.2507 127.892 83.1769 127.912 83.174L127.857 82.7793C127.828 82.7831 127.149 82.8825 126.873 83.51C126.584 84.1705 126.868 85.1257 127.72 86.3496Z" fill="#090909"/>
<path d="M144.939 86.3503C145.791 85.1265 146.076 84.1713 145.786 83.511C145.511 82.8841 144.831 82.7841 144.803 82.7803L144.748 83.175C144.768 83.1779 145.24 83.2517 145.423 83.675C145.579 84.0359 145.566 84.7536 144.612 86.1231L144.939 86.3503Z" fill="#090909"/>
<path d="M173.623 129.604L177.723 142.56C179.866 149.335 174.511 156.152 167.045 156.152H130.642L131.976 148.168C132.357 145.887 134.743 144.425 137.095 145.03L144.808 147.015L155.366 144.85L155.668 137.221L173.623 129.604Z" fill="#F59060"/>
<path d="M167.802 141.443L155.318 144.662L155.415 145.037L167.899 141.818L167.802 141.443Z" fill="#090909"/>
<path d="M155.667 137.221L174.103 131.121L173.624 129.604L155.667 137.221Z" fill="#090909"/>
<path d="M96.3066 129.604L92.2071 142.56C90.0635 149.335 95.4188 156.152 102.885 156.152H139.289L137.954 148.168C137.573 145.887 135.187 144.425 132.835 145.03L125.122 147.015L114.564 144.85L114.262 137.221L96.3066 129.604Z" fill="#F59060"/>
<path d="M102.128 141.444L102.031 141.819L114.516 145.037L114.612 144.661L102.128 141.444Z" fill="#090909"/>
<path d="M114.263 137.221L95.8262 131.121L96.3061 129.604L114.263 137.221Z" fill="#090909"/>
<path d="M114.457 114.306H114.069V137.22H114.457V114.306Z" fill="#090909"/>
<path d="M155.861 114.306H155.474V137.22H155.861V114.306Z" fill="#090909"/>
<path d="M139.483 156.152H139.095C139.095 149.702 137.691 147.071 136.513 146C135.626 145.193 134.854 145.255 134.846 145.257L134.81 144.871C134.848 144.867 135.762 144.792 136.774 145.713C138.01 146.837 139.483 149.56 139.483 156.152Z" fill="#090909"/>
<path d="M132.631 87.6777C130.93 87.6777 129.546 86.1466 129.546 84.2646C129.546 82.3827 130.93 80.8516 132.631 80.8516C134.333 80.8516 135.717 82.3827 135.717 84.2646C135.717 86.1466 134.333 87.6777 132.631 87.6777ZM132.631 81.462C131.267 81.462 130.157 82.7191 130.157 84.2645C130.157 85.8099 131.267 87.067 132.631 87.067C133.996 87.067 135.106 85.8098 135.106 84.2645C135.106 82.7192 133.996 81.4623 132.631 81.4623V81.462Z" fill="#015566"/>
<path d="M140.068 87.6777C138.367 87.6777 136.982 86.1466 136.982 84.2646C136.982 82.3827 138.367 80.8516 140.068 80.8516C141.769 80.8516 143.154 82.3827 143.154 84.2646C143.154 86.1466 141.769 87.6777 140.068 87.6777ZM140.068 81.462C138.703 81.462 137.593 82.7191 137.593 84.2645C137.593 85.8099 138.703 87.067 140.068 87.067C141.432 87.067 142.543 85.8098 142.543 84.2645C142.543 82.7192 141.433 81.4623 140.068 81.4623V81.462Z" fill="#015566"/>
<path d="M137.197 84.298C136.214 83.9565 135.566 84.2685 135.539 84.2818L135.261 83.7384C135.296 83.7197 136.153 83.2888 137.397 83.7211L137.197 84.298Z" fill="#015566"/>
<path d="M144.392 81.1406L142.406 82.7393L142.789 83.215L144.775 81.6164L144.392 81.1406Z" fill="#015566"/>
<path d="M128.122 81.2523L127.785 81.7617L129.932 83.1824L130.269 82.6731L128.122 81.2523Z" fill="#015566"/>
<path d="M131.158 93.7324L128.356 96.3557L133.416 106.351L135.736 103.987L131.158 93.7324Z" fill="#DD9B0A"/>
<path d="M140.827 93.7324L135.735 103.987L138.281 106.351L143.661 96.2623L140.827 93.7324Z" fill="#DD9B0A"/>
<path d="M135.535 103.985L135.17 144.866L135.577 144.87L135.942 103.989L135.535 103.985Z" fill="#090909"/>
<path d="M114.298 88.3678H67.974C65.8123 88.3678 64.0537 86.9153 64.0537 85.1299V36.3483C64.0537 34.5629 65.8123 33.1104 67.974 33.1104H114.298C116.459 33.1104 118.218 34.5629 118.218 36.3483V85.1299C118.218 86.9153 116.46 88.3678 114.298 88.3678ZM67.974 33.8838C66.2387 33.8838 64.8269 34.9894 64.8269 36.3484V85.13C64.8269 86.489 66.2387 87.5946 67.974 87.5946H114.298C116.033 87.5946 117.445 86.489 117.445 85.13V36.3484C117.445 34.9894 116.033 33.8838 114.298 33.8838H67.974Z" fill="#6445F1"/>
<path d="M111.725 42.4547V91.2364C111.725 92.8107 110.141 94.0876 108.191 94.0876H61.8677C59.9156 94.0876 58.334 92.8106 58.334 91.2364V42.4547C58.334 40.8804 59.9156 39.6035 61.8677 39.6035H108.191C110.141 39.6035 111.725 40.8805 111.725 42.4547Z" fill="#090909"/>
<path d="M111.724 42.4652V48.0434H58.334V42.4632C58.334 41.7049 58.6352 40.9776 59.1714 40.4413C59.7076 39.905 60.4349 39.6037 61.1932 39.6035H108.863C109.622 39.6035 110.35 39.905 110.886 40.4417C111.423 40.9783 111.724 41.7062 111.724 42.4652Z" fill="#6445F1"/>
<path d="M62.5163 44.7103C63.0824 44.7103 63.5414 44.2514 63.5414 43.6852C63.5414 43.1191 63.0824 42.6602 62.5163 42.6602C61.9502 42.6602 61.4912 43.1191 61.4912 43.6852C61.4912 44.2514 61.9502 44.7103 62.5163 44.7103Z" fill="#FF4655"/>
<path d="M65.3952 44.7103C65.9613 44.7103 66.4203 44.2514 66.4203 43.6852C66.4203 43.1191 65.9613 42.6602 65.3952 42.6602C64.8291 42.6602 64.3701 43.1191 64.3701 43.6852C64.3701 44.2514 64.8291 44.7103 65.3952 44.7103Z" fill="#6595F7"/>
<path d="M68.2741 44.7103C68.8403 44.7103 69.2992 44.2514 69.2992 43.6852C69.2992 43.1191 68.8403 42.6602 68.2741 42.6602C67.708 42.6602 67.249 43.1191 67.249 43.6852C67.249 44.2514 67.708 44.7103 68.2741 44.7103Z" fill="#090909"/>
<path d="M75.984 58.5195H68.4463V59.7593H75.984V58.5195Z" fill="#FF4655"/>
<path d="M82.2257 58.5195H77.5537V59.7593H82.2257V58.5195Z" fill="#6445F1"/>
<path d="M88.6827 58.5195H84.0107V59.7593H88.6827V58.5195Z" fill="white"/>
<path d="M95.8051 58.5195H90.2559V59.7593H95.8051V58.5195Z" fill="#6445F1"/>
<path d="M100.4 58.5195H96.9609V59.7593H100.4V58.5195Z" fill="white"/>
<path d="M95.8051 77.8018H90.2559V79.0415H95.8051V77.8018Z" fill="#015566"/>
<path d="M100.4 77.8018H96.9609V79.0415H100.4V77.8018Z" fill="#FF4655"/>
<path d="M88.436 63.3398H82.8867V64.5796H88.436V63.3398Z" fill="#6445F1"/>
<path d="M93.0314 63.3398H89.5918V64.5796H93.0314V63.3398Z" fill="white"/>
<path d="M105.154 58.5195H101.715V59.7593H105.154V58.5195Z" fill="#FF4655"/>
<path d="M108.207 53.6758H68.4463V54.9616H108.207V53.6758Z" fill="#FF4655"/>
<path d="M91.8075 56.1406H68.4463V57.4265H91.8075V56.1406Z" fill="#015566"/>
<path d="M75.984 68.1602H68.4463V69.3999H75.984V68.1602Z" fill="#015566"/>
<path d="M82.2257 68.1602H77.5537V69.3999H82.2257V68.1602Z" fill="white"/>
<path d="M88.6827 68.1602H84.0107V69.3999H88.6827V68.1602Z" fill="#6445F1"/>
<path d="M86.8976 75.4229H82.2256V76.6626H86.8976V75.4229Z" fill="#FF4655"/>
<path d="M93.3546 75.4229H88.6826V76.6626H93.3546V75.4229Z" fill="white"/>
<path d="M81.425 63.3174H68.4463V64.6032H81.425V63.3174Z" fill="#FF4655"/>
<path d="M99.3525 65.7812H68.4463V67.0671H99.3525V65.7812Z" fill="#015566"/>
<path d="M75.984 77.8018H68.4463V79.0415H75.984V77.8018Z" fill="#015566"/>
<path d="M82.2257 77.8018H77.5537V79.0415H82.2257V77.8018Z" fill="white"/>
<path d="M88.6827 77.8018H84.0107V79.0415H88.6827V77.8018Z" fill="white"/>
<path d="M99.9959 72.958H68.4463V74.2438H99.9959V72.958Z" fill="#6445F1"/>
<path d="M81.0323 75.4229H68.4463V76.7087H81.0323V75.4229Z" fill="#015566"/>
<path d="M75.984 87.4424H68.4463V88.6821H75.984V87.4424Z" fill="#015566"/>
<path d="M66.7062 53.6992H62.0342V54.939H66.7062V53.6992Z" fill="#FF4655"/>
<path d="M66.7062 63.3398H62.0342V64.5796H66.7062V63.3398Z" fill="#FF4655"/>
<path d="M66.7062 72.9805H62.0342V74.2202H66.7062V72.9805Z" fill="#6445F1"/>
<path d="M66.7062 82.6211H62.0342V83.8608H66.7062V82.6211Z" fill="white"/>
<path d="M88.6827 87.4424H84.0107V88.6821H88.6827V87.4424Z" fill="#FF4655"/>
<path d="M82.2257 87.4424H77.5537V88.6821H82.2257V87.4424Z" fill="#6445F1"/>
<path d="M108.207 82.5986H68.4463V83.8845H108.207V82.5986Z" fill="white"/>
<path d="M91.8075 85.0635H68.4463V86.3493H91.8075V85.0635Z" fill="#6445F1"/>
<path d="M69.3419 96.9476H52.7672C50.8169 96.9454 48.9471 96.1696 47.5681 94.7906C46.1891 93.4115 45.4133 91.5418 45.4111 89.5915C45.4105 87.654 46.1611 85.7916 47.5051 84.396C48.8189 83.0229 50.5779 82.2354 52.331 82.2354H58.2916C58.3941 82.2354 58.4925 82.2761 58.565 82.3486C58.6375 82.4211 58.6782 82.5194 58.6782 82.6219C58.6782 82.7245 58.6375 82.8228 58.565 82.8953C58.4925 82.9678 58.3941 83.0085 58.2916 83.0085H52.3311C49.0568 83.0085 46.1844 86.0849 46.1844 89.5915C46.1864 91.3367 46.8805 93.0099 48.1145 94.244C49.3485 95.4781 51.0216 96.1723 52.7668 96.1745H69.3419C69.4444 96.1745 69.5427 96.2152 69.6152 96.2877C69.6877 96.3602 69.7285 96.4585 69.7285 96.561C69.7285 96.6636 69.6877 96.7619 69.6152 96.8344C69.5427 96.9069 69.4444 96.9476 69.3419 96.9476Z" fill="#6445F1"/>
<path d="M76.294 97.4512C76.7859 97.4512 77.1846 97.0525 77.1846 96.5606C77.1846 96.0687 76.7859 95.6699 76.294 95.6699C75.8021 95.6699 75.4033 96.0687 75.4033 96.5606C75.4033 97.0525 75.8021 97.4512 76.294 97.4512Z" fill="#6445F1"/>
<path d="M73.7471 97.4512C74.239 97.4512 74.6378 97.0525 74.6378 96.5606C74.6378 96.0687 74.239 95.6699 73.7471 95.6699C73.2552 95.6699 72.8564 96.0687 72.8564 96.5606C72.8564 97.0525 73.2552 97.4512 73.7471 97.4512Z" fill="#6445F1"/>
<path d="M71.1992 97.4512C71.6911 97.4512 72.0899 97.0525 72.0899 96.5606C72.0899 96.0687 71.6911 95.6699 71.1992 95.6699C70.7074 95.6699 70.3086 96.0687 70.3086 96.5606C70.3086 97.0525 70.7074 97.4512 71.1992 97.4512Z" fill="#6445F1"/>
<path d="M217.447 101.501H164.992C164.437 101.5 163.905 101.28 163.512 100.887C163.12 100.495 162.899 99.9625 162.898 99.4074V61.3718C162.899 60.8168 163.12 60.2846 163.512 59.8922C163.905 59.4997 164.437 59.2789 164.992 59.2783H217.447C218.002 59.2789 218.534 59.4997 218.926 59.8922C219.319 60.2846 219.539 60.8168 219.54 61.3718V99.4074C219.539 99.9625 219.319 100.495 218.926 100.887C218.534 101.28 218.002 101.5 217.447 101.501ZM164.992 60.0515C164.642 60.0519 164.306 60.1911 164.059 60.4386C163.811 60.6862 163.672 61.0218 163.672 61.3718V99.4074C163.672 99.7575 163.811 100.093 164.059 100.341C164.306 100.588 164.642 100.727 164.992 100.728H217.447C217.797 100.727 218.132 100.588 218.38 100.341C218.627 100.093 218.766 99.7575 218.767 99.4074V61.3718C218.766 61.0218 218.627 60.6862 218.38 60.4386C218.132 60.1911 217.797 60.0519 217.447 60.0515H164.992Z" fill="#6445F1"/>
<path d="M223.02 65.2388V103.274C223.02 103.727 222.84 104.161 222.52 104.481C222.2 104.801 221.766 104.981 221.313 104.981H168.858C168.405 104.981 167.971 104.801 167.651 104.481C167.331 104.161 167.152 103.727 167.151 103.274V65.2388C167.152 64.7862 167.331 64.3523 167.651 64.0323C167.971 63.7123 168.405 63.5324 168.858 63.5322H221.313C221.765 63.5323 222.199 63.712 222.52 64.0321C222.84 64.3521 223.02 64.7861 223.02 65.2388Z" fill="#6595F7"/>
<path d="M184.067 71.9971H172.926C171.05 71.9971 169.529 73.5178 169.529 75.3938V82.5948C169.529 84.4708 171.05 85.9916 172.926 85.9916H184.067C185.943 85.9916 187.464 84.4708 187.464 82.5948V75.3938C187.464 73.5178 185.943 71.9971 184.067 71.9971Z" fill="white"/>
<path d="M223.02 65.2388V69.9942H167.151V65.2388C167.152 64.7862 167.331 64.3523 167.651 64.0323C167.971 63.7123 168.405 63.5324 168.858 63.5322H221.313C221.765 63.5321 222.2 63.7119 222.52 64.0319C222.84 64.3519 223.02 64.786 223.02 65.2388Z" fill="#015566"/>
<path d="M170.492 67.6635C171.024 67.6635 171.455 67.2323 171.455 66.7004C171.455 66.1685 171.024 65.7373 170.492 65.7373C169.96 65.7373 169.529 66.1685 169.529 66.7004C169.529 67.2323 169.96 67.6635 170.492 67.6635Z" fill="white"/>
<path d="M173.848 67.6635C174.38 67.6635 174.811 67.2323 174.811 66.7004C174.811 66.1685 174.38 65.7373 173.848 65.7373C173.316 65.7373 172.885 66.1685 172.885 66.7004C172.885 67.2323 173.316 67.6635 173.848 67.6635Z" fill="white"/>
<path d="M177.202 67.6635C177.734 67.6635 178.165 67.2323 178.165 66.7004C178.165 66.1685 177.734 65.7373 177.202 65.7373C176.67 65.7373 176.239 66.1685 176.239 66.7004C176.239 67.2323 176.67 67.6635 177.202 67.6635Z" fill="white"/>
<path d="M200.282 71.9971H190.641V73.9854H200.282V71.9971Z" fill="white"/>
<path d="M208.266 71.9971H202.29V73.9854H208.266V71.9971Z" fill="#FF4655"/>
<path d="M216.525 71.9971H210.549V73.9854H216.525V71.9971Z" fill="#015566"/>
<path d="M200.282 82.2676H190.641V84.2559H200.282V82.2676Z" fill="#015566"/>
<path d="M208.266 82.2676H202.29V84.2559H208.266V82.2676Z" fill="#015566"/>
<path d="M216.525 82.2676H210.549V84.2559H216.525V82.2676Z" fill="#FF4655"/>
<path d="M179.171 93.7832H169.529V95.7715H179.171V93.7832Z" fill="#015566"/>
<path d="M187.154 93.7832H181.178V95.7715H187.154V93.7832Z" fill="white"/>
<path d="M195.412 93.7832H189.437V95.7715H195.412V93.7832Z" fill="white"/>
<path d="M220.387 98.8291H169.529V100.115H220.387V98.8291Z" fill="#015566"/>
<path d="M199.41 101.294H169.529V102.58H199.41V101.294Z" fill="white"/>
<path d="M220.387 87.3691H169.529V88.655H220.387V87.3691Z" fill="white"/>
<path d="M199.41 89.834H169.529V91.1198H199.41V89.834Z" fill="#015566"/>
<path d="M220.522 76.1738H190.641V77.4597H220.522V76.1738Z" fill="#015566"/>
<path d="M208.197 78.6387H190.641V79.9245H208.197V78.6387Z" fill="white"/>
<path d="M228.981 103.571H212.406C212.305 103.569 212.208 103.527 212.137 103.455C212.066 103.383 212.026 103.285 212.026 103.184C212.026 103.083 212.066 102.985 212.137 102.913C212.208 102.841 212.305 102.799 212.406 102.797H228.981C230.727 102.797 232.401 102.104 233.636 100.869C234.87 99.6348 235.564 97.9604 235.564 96.2145C235.564 94.4686 234.87 92.7942 233.636 91.5597C232.401 90.3251 230.727 89.6316 228.981 89.6316H223.02C222.918 89.6316 222.82 89.5908 222.747 89.5183C222.675 89.4458 222.634 89.3475 222.634 89.245C222.634 89.1425 222.675 89.0441 222.747 88.9716C222.82 88.8991 222.918 88.8584 223.02 88.8584H228.981C230.932 88.8584 232.803 89.6334 234.183 91.013C235.562 92.3925 236.337 94.2636 236.337 96.2145C236.337 98.1655 235.562 100.037 234.183 101.416C232.803 102.796 230.932 103.571 228.981 103.571Z" fill="#6445F1"/>
<path d="M205.454 104.074C205.946 104.074 206.345 103.676 206.345 103.184C206.345 102.692 205.946 102.293 205.454 102.293C204.962 102.293 204.563 102.692 204.563 103.184C204.563 103.676 204.962 104.074 205.454 104.074Z" fill="#6445F1"/>
<path d="M208.001 104.074C208.493 104.074 208.892 103.676 208.892 103.184C208.892 102.692 208.493 102.293 208.001 102.293C207.509 102.293 207.11 102.692 207.11 103.184C207.11 103.676 207.509 104.074 208.001 104.074Z" fill="#6445F1"/>
<path d="M210.549 104.074C211.041 104.074 211.44 103.676 211.44 103.184C211.44 102.692 211.041 102.293 210.549 102.293C210.057 102.293 209.658 102.692 209.658 103.184C209.658 103.676 210.057 104.074 210.549 104.074Z" fill="#6445F1"/>
<path d="M165.863 155.73H200.313C201.591 155.73 202.816 155.222 203.719 154.319C204.622 153.416 205.13 152.19 205.13 150.913C205.13 149.635 204.623 148.41 203.719 147.507C202.816 146.603 201.591 146.096 200.313 146.096H165.863V155.73Z" fill="#FF4655"/>
<path d="M200.197 154.471H165.864V147.356H200.197C201.137 147.356 202.038 147.729 202.702 148.394C203.367 149.058 203.74 149.959 203.74 150.899V150.927C203.74 151.393 203.649 151.853 203.471 152.283C203.292 152.713 203.031 153.104 202.702 153.433C202.373 153.762 201.983 154.023 201.553 154.201C201.123 154.379 200.662 154.471 200.197 154.471Z" fill="white"/>
<path d="M203.152 148.732H165.863V149.203H203.152V148.732Z" fill="#090909"/>
<path d="M202.871 153.016H165.863V153.486H202.871V153.016Z" fill="#090909"/>
<path d="M203.74 150.678H165.863V151.148H203.74V150.678Z" fill="#090909"/>
<path d="M197.049 146.096H170.188V138.584H197.049C198.045 138.584 199 138.979 199.705 139.684C200.409 140.388 200.805 141.344 200.805 142.34C200.805 143.336 200.409 144.291 199.705 144.996C199 145.7 198.045 146.096 197.049 146.096Z" fill="#6595F7"/>
<path d="M196.959 145.113H170.189V139.566H196.959C197.691 139.566 198.394 139.857 198.912 140.375C199.431 140.893 199.722 141.596 199.722 142.329V142.351C199.722 143.083 199.43 143.786 198.912 144.304C198.394 144.822 197.691 145.113 196.959 145.113Z" fill="white"/>
<path d="M199.263 140.588H170.188V141.058H199.263V140.588Z" fill="#090909"/>
<path d="M199.043 143.928H170.188V144.398H199.043V143.928Z" fill="#090909"/>
<path d="M199.721 142.104H170.188V142.575H199.721V142.104Z" fill="#090909"/>
<path d="M152.645 156.151H117.198C116.711 156.151 116.241 155.971 115.878 155.645C115.516 155.319 115.287 154.87 115.236 154.385L112.665 129.937C112.636 129.662 112.665 129.384 112.751 129.122C112.836 128.859 112.976 128.617 113.161 128.411C113.346 128.206 113.572 128.042 113.825 127.929C114.077 127.817 114.351 127.759 114.627 127.759H155.216C155.493 127.759 155.766 127.817 156.019 127.929C156.271 128.042 156.497 128.206 156.682 128.411C156.867 128.617 157.007 128.859 157.093 129.122C157.178 129.384 157.207 129.662 157.178 129.937L154.607 154.385C154.556 154.87 154.327 155.319 153.965 155.645C153.603 155.971 153.133 156.151 152.645 156.151Z" fill="#6595F7"/>
<path d="M134.966 146.892C137.58 146.892 139.699 144.773 139.699 142.159C139.699 139.545 137.58 137.426 134.966 137.426C132.352 137.426 130.232 139.545 130.232 142.159C130.232 144.773 132.352 146.892 134.966 146.892Z" fill="white"/>
<path d="M82.0707 109.467H80.7881V127.248H82.0707V109.467Z" fill="#080808"/>
<path d="M79.3789 103.481C79.3789 103.481 81.3929 98.0873 83.4851 103.481C83.4851 103.481 81.3503 107.361 79.3789 103.481Z" fill="#FF4655"/>
<path d="M78.5911 103.027C78.4345 102.94 78.2582 102.896 78.0793 102.898C77.9004 102.899 77.725 102.948 77.5701 103.037C77.4153 103.127 77.2863 103.255 77.1957 103.409C77.105 103.564 77.0559 103.739 77.0529 103.918C77.0306 105.46 77.3289 106.991 77.929 108.412C78.3768 109.46 79.6101 112.347 81.4226 112.353C83.2351 112.358 84.4864 109.471 84.9237 108.461C85.5387 107.024 85.8409 105.472 85.8103 103.909C85.8089 103.734 85.7627 103.562 85.6761 103.41C85.5895 103.257 85.4653 103.13 85.3155 103.039C85.1656 102.948 84.995 102.897 84.8198 102.891C84.6447 102.885 84.4709 102.924 84.315 103.004C83.437 103.48 82.4548 103.731 81.456 103.735C80.4572 103.739 79.473 103.496 78.5911 103.027V103.027Z" fill="#FF4655"/>
<path d="M88.3952 149.946L86.4264 155.512C86.4116 155.572 86.378 155.625 86.3307 155.665C86.2834 155.704 86.2248 155.727 86.1635 155.73H76.6912C76.6268 155.729 76.565 155.704 76.518 155.66C76.4759 155.619 76.445 155.568 76.4283 155.512L74.4595 149.933C72.6253 144.738 72.6253 138.793 74.453 133.592L74.4595 133.579C75.7897 129.729 76.1595 125.613 75.5368 121.587V121.581C75.5049 121.35 75.6396 121.145 75.8189 121.145H87.0229C87.2024 121.145 87.3436 121.35 87.305 121.581C87.2601 121.883 87.2218 122.184 87.1832 122.485C87.0732 123.452 87.0175 124.424 87.0165 125.396C87.0122 128.185 87.4783 130.953 88.3952 133.586C90.2294 138.885 90.2294 144.647 88.3952 149.946Z" fill="#6445F1"/>
<path d="M81.432 147.496C83.3927 147.496 84.9822 144.615 84.9822 141.06C84.9822 137.506 83.3927 134.624 81.432 134.624C79.4713 134.624 77.8818 137.506 77.8818 141.06C77.8818 144.615 79.4713 147.496 81.432 147.496Z" fill="white"/>
</svg>
