<svg width="267" height="287" viewBox="0 0 267 287" fill="none" xmlns="http://www.w3.org/2000/svg">
<path d="M32.7167 219.599H34.9731V211.662H42.4425V209.588H34.9731V203.519H43.9986V201.444H32.7167V219.599ZM51.4433 206.372C49.0831 206.372 48.0717 207.357 47.4492 208.369L47.1639 206.372H45.3225V219.599H47.4492V212.855C47.4492 210.755 48.2013 208.446 50.9764 208.446H52.0398V206.372H51.4433ZM59.2182 219.754C63.0825 219.754 65.7798 217.005 65.7798 212.985C65.7798 208.965 63.0825 206.216 59.2182 206.216C55.3538 206.216 52.6565 208.965 52.6565 212.985C52.6565 217.005 55.3538 219.754 59.2182 219.754ZM59.2182 217.861C56.5987 217.861 54.8351 215.812 54.8351 212.985C54.8351 210.158 56.5987 208.109 59.2182 208.109C61.8376 208.109 63.6013 210.158 63.6013 212.985C63.6013 215.812 61.8376 217.861 59.2182 217.861ZM82.9758 206.216C80.6156 206.216 79.1892 207.305 78.3852 208.732C77.6331 207.046 76.051 206.216 74.2096 206.216C72.1607 206.216 71.0455 207.227 70.3453 208.187L70.06 206.372H68.2186V219.599H70.3453V212.622C70.3453 209.977 71.668 208.161 73.8465 208.161C75.8695 208.161 77.0366 209.51 77.0366 212.103V219.599H79.1633V212.518C79.1633 209.821 80.5119 208.161 82.7164 208.161C84.7134 208.161 85.8546 209.51 85.8546 212.103V219.599H87.9813V211.974C87.9813 207.798 85.7249 206.216 82.9758 206.216ZM32.2257 245.452C32.2655 251.099 36.6796 254.837 43.7583 254.837C50.2801 254.837 54.575 251.258 54.6148 246.049C54.6546 240.441 50.4392 239.01 45.6671 238.135C41.0541 237.26 38.8669 236.783 38.8669 234.516C38.8669 232.369 40.6962 231.295 43.2413 231.295C46.1443 231.295 47.9339 232.925 48.2122 235.272H54.0581C53.9785 229.943 49.8029 226.523 43.2413 226.523C36.958 226.523 32.862 230.022 32.862 234.953C32.862 240.6 36.9978 242.112 41.6904 242.987C46.3432 243.901 48.6099 244.378 48.6099 246.725C48.6099 248.912 46.5818 250.105 43.8378 250.105C40.4178 250.105 38.2703 248.236 38.0715 245.532L32.2257 245.452ZM67.3802 254.837C72.9476 254.837 76.646 251.775 77.4413 246.884H71.5558C71.1581 248.952 69.6867 250.264 67.4995 250.264C64.5567 250.264 62.6876 247.878 62.6876 244.378C62.6876 240.919 64.5567 238.493 67.4995 238.493C69.6867 238.493 71.0785 239.765 71.5558 241.793H77.4016C76.6062 236.942 73.1465 233.92 67.579 233.92C61.0969 233.92 56.9611 238.055 56.9611 244.378C56.9611 250.821 60.8981 254.837 67.3802 254.837ZM91.8903 234.158C88.7089 234.158 87.1182 235.391 86.0047 237.22L85.4877 234.158H80.3975V254.599H86.0047V244.577C86.0047 241.475 87.2773 239.248 90.6178 239.248H92.8447V234.158H91.8903ZM114.33 249.866C113.455 249.866 113.018 249.667 113.018 248.594V241.356C113.018 236.465 109.717 233.92 103.991 233.92C98.5824 233.92 94.9238 236.544 94.5262 240.521H99.9345C100.173 239.01 101.645 238.016 103.832 238.016C106.178 238.016 107.49 239.209 107.49 241.038V242.032H103.434C97.3099 242.032 94.0489 244.498 94.0489 248.832C94.0489 252.73 97.2303 254.837 101.645 254.837C104.826 254.837 106.894 253.525 108.325 251.258C108.286 253.207 109.2 254.599 112.103 254.599H114.967V249.866H114.33ZM107.49 246.168C107.451 248.952 105.661 250.781 102.718 250.781C100.849 250.781 99.6959 249.866 99.6959 248.435C99.6959 246.725 101.048 245.77 103.394 245.77H107.49V246.168ZM118.607 248.753C118.607 252.65 120.556 254.599 124.453 254.599H129.026V249.866H126.243C124.771 249.866 124.214 249.27 124.214 247.838V238.89H128.907V234.158H124.214V228.432H118.607V234.158H115.227V238.89H118.607V248.753ZM140.935 254.837C146.502 254.837 150.2 251.775 150.996 246.884H145.11C144.712 248.952 143.241 250.264 141.054 250.264C138.111 250.264 136.242 247.878 136.242 244.378C136.242 240.919 138.111 238.493 141.054 238.493C143.241 238.493 144.633 239.765 145.11 241.793H150.956C150.161 236.942 146.701 233.92 141.133 233.92C134.651 233.92 130.515 238.055 130.515 244.378C130.515 250.821 134.452 254.837 140.935 254.837ZM165.604 233.92C162.701 233.92 160.871 235.073 159.559 236.663V226.761H153.952V254.599H159.559V244.1C159.559 240.6 161.269 238.533 164.132 238.533C166.916 238.533 168.268 240.402 168.268 243.742V254.599H173.875V243.265C173.875 236.345 170.137 233.92 165.604 233.92Z" fill="white"/>
<g clip-path="url(#clip0_1060_1064)">
<path opacity="0.5" d="M146.224 52.4414C148.889 47.8477 155.523 47.8477 158.188 52.4414L227.45 171.819C230.126 176.429 226.799 182.205 221.468 182.205H82.9444C77.6139 182.205 74.2872 176.429 76.9623 171.819L146.224 52.4414Z" fill="#CAD1FD"/>
<path d="M86.626 58.7393C85.6597 50.0162 91.9703 42.1333 100.693 41.167C109.417 40.2008 117.299 46.5113 118.266 55.2344C119.232 63.9576 112.921 71.8404 104.198 72.8062C95.4746 73.7721 87.5919 67.4625 86.626 58.7393ZM87.1374 58.6827C88.0725 67.1237 95.7006 73.2303 104.142 72.2952C112.583 71.3601 118.689 63.7322 117.754 55.2911C116.819 46.85 109.191 40.7434 100.75 41.6783C92.3086 42.6132 86.202 50.2416 87.137 58.6827H87.1374Z" fill="#6595F7"/>
<path d="M97.8966 78.3284C106.545 78.3284 113.556 71.3175 113.556 62.6691C113.556 54.0207 106.545 47.0098 97.8966 47.0098C89.2482 47.0098 82.2373 54.0207 82.2373 62.6691C82.2373 71.3175 89.2482 78.3284 97.8966 78.3284Z" fill="#D0B3FF"/>
<path d="M95.2897 53.5381C97.5029 55.6418 99.999 57.4261 102.706 58.8393C103.306 62.6192 104.912 66.168 107.355 69.1135C103.771 67.721 99.8434 67.4756 96.114 68.4111C94.012 66.2791 91.3423 64.7951 88.4219 64.1356C90.7113 60.6031 93.0006 57.0706 95.2897 53.5381Z" fill="white"/>
<path d="M107.393 69.4541C107.462 69.4464 107.528 69.4177 107.581 69.3719C107.633 69.326 107.671 69.2651 107.688 69.1973C107.705 69.1295 107.701 69.0581 107.677 68.9927C107.652 68.9272 107.608 68.8709 107.551 68.8311L98.5512 62.6001C98.5141 62.5744 98.4724 62.5563 98.4284 62.5468C98.3843 62.5373 98.3388 62.5365 98.2945 62.5446C98.2502 62.5526 98.2078 62.5694 98.17 62.5938C98.1321 62.6182 98.0994 62.6498 98.0737 62.6869C98.0481 62.7239 98.03 62.7656 98.0204 62.8097C98.0109 62.8537 98.0102 62.8992 98.0182 62.9436C98.0263 62.9879 98.043 63.0302 98.0674 63.0681C98.0918 63.106 98.1234 63.1387 98.1605 63.1643L107.16 69.3952C107.228 69.4424 107.311 69.4633 107.393 69.4541Z" fill="#090909"/>
<path d="M97.9551 63.8896C98.6708 63.8896 99.251 63.3094 99.251 62.5937C99.251 61.878 98.6708 61.2979 97.9551 61.2979C97.2394 61.2979 96.6592 61.878 96.6592 62.5937C96.6592 63.3094 97.2394 63.8896 97.9551 63.8896Z" fill="#090909"/>
<path d="M88.4595 64.4759C88.5101 64.4704 88.5588 64.4537 88.6021 64.4269C88.6454 64.4002 88.6822 64.3642 88.7099 64.3215L95.5776 53.7241C95.6271 53.6478 95.6442 53.5549 95.6252 53.4659C95.6062 53.3768 95.5526 53.299 95.4763 53.2495C95.3999 53.2 95.307 53.1829 95.218 53.2019C95.129 53.2209 95.0512 53.2745 95.0017 53.3509L88.1341 63.9482C88.0988 64.0027 88.0798 64.066 88.0791 64.1309C88.0784 64.1957 88.0962 64.2595 88.1303 64.3146C88.1643 64.3698 88.2133 64.4142 88.2716 64.4427C88.3299 64.4711 88.3951 64.4825 88.4595 64.4754V64.4759Z" fill="#090909"/>
<path d="M111.85 126.771H81.0322V157.588H111.85V126.771Z" fill="#090909"/>
<path d="M129.396 144.316H98.5781V175.134H129.396V144.316Z" fill="#090909"/>
<path d="M146.942 161.862H116.124V192.68H146.942V161.862Z" fill="#090909"/>
<path d="M194.117 145.616H163.299V176.434H194.117V145.616Z" fill="#090909"/>
<path d="M210.824 126.771H180.006V157.588H210.824V126.771Z" fill="#090909"/>
<path d="M113.572 125.336H82.7539V156.154H113.572V125.336Z" fill="#D0B3FF"/>
<path d="M131.118 142.882H100.3V173.7H131.118V142.882Z" fill="#FCB913"/>
<path d="M148.664 160.428H117.846V191.246H148.664V160.428Z" fill="#6595F7"/>
<path d="M195.838 144.182H165.021V175H195.838V144.182Z" fill="#015566"/>
<path d="M212.544 125.336H181.727V156.154H212.544V125.336Z" fill="#FF4655"/>
<path d="M173.724 184.394L171.177 180.384L181.766 177.989L184.009 182.434L173.724 184.394Z" fill="#F59060"/>
<path d="M171.177 180.384L171.831 181.413L181.766 177.989L171.177 180.384Z" fill="#090909"/>
<path d="M178.945 194.096L179.592 195.078L196.814 191.203C196.652 190.849 196.447 190.517 196.204 190.213C195.732 189.625 195.148 189.136 194.486 188.774C193.824 188.412 193.098 188.184 192.348 188.104C191.901 188.061 191.459 187.983 191.025 187.87C186.542 186.709 184.078 182.066 184.078 182.066L173.725 184.394L178.945 194.096Z" fill="#6595F7"/>
<path d="M178.945 194.096L179.592 195.078L196.815 191.203C196.652 190.849 196.448 190.517 196.205 190.213L178.945 194.096Z" fill="#090909"/>
<path d="M182.416 183.474C184.128 185.615 188.465 190.479 191.026 187.87C186.543 186.709 184.078 182.066 184.078 182.066C184.078 182.066 183.019 180.762 182.249 181.516C181.99 181.773 181.904 182.144 181.974 182.539C182.041 182.883 182.193 183.204 182.416 183.474Z" fill="white"/>
<path d="M187.98 189.111C187.961 189.114 187.941 189.114 187.922 189.109C187.902 189.105 187.884 189.096 187.868 189.084C187.842 189.07 187.823 189.047 187.814 189.019C187.805 188.99 187.807 188.96 187.821 188.933C188.286 188.3 189.715 187.419 189.776 187.382C189.805 187.369 189.837 187.366 189.868 187.373C189.898 187.381 189.925 187.399 189.944 187.424C189.955 187.433 189.964 187.445 189.97 187.458C189.975 187.471 189.978 187.485 189.978 187.5C189.977 187.514 189.973 187.528 189.967 187.541C189.96 187.553 189.951 187.564 189.939 187.573C189.925 187.582 188.477 188.473 188.029 189.081C188.017 189.096 188 189.107 187.98 189.111Z" fill="#090909"/>
<path d="M184.978 187.559C184.957 187.563 184.935 187.562 184.913 187.556C184.892 187.551 184.872 187.54 184.856 187.526C184.843 187.519 184.831 187.509 184.822 187.497C184.813 187.485 184.806 187.471 184.803 187.457C184.799 187.442 184.798 187.427 184.8 187.413C184.802 187.398 184.807 187.383 184.815 187.371C185.489 186.583 187.661 186.21 187.753 186.194C187.786 186.191 187.819 186.198 187.848 186.214C187.877 186.231 187.9 186.256 187.914 186.286C187.922 186.298 187.926 186.311 187.927 186.325C187.928 186.339 187.926 186.353 187.92 186.366C187.914 186.379 187.905 186.39 187.893 186.398C187.882 186.407 187.869 186.412 187.855 186.414C187.833 186.418 185.66 186.792 185.024 187.533C185.012 187.547 184.996 187.556 184.978 187.559Z" fill="#090909"/>
<path d="M186.006 184.733C185.998 184.735 185.989 184.736 185.981 184.736C185.964 184.736 184.202 184.747 183.059 185.189C183.026 185.197 182.992 185.195 182.96 185.183C182.928 185.17 182.901 185.148 182.883 185.12C182.841 185.06 182.852 184.994 182.908 184.973C184.088 184.516 185.838 184.506 185.911 184.506C185.946 184.507 185.979 184.519 186.006 184.539C186.034 184.56 186.054 184.588 186.066 184.62C186.07 184.632 186.072 184.644 186.072 184.656C186.071 184.668 186.068 184.68 186.062 184.691C186.056 184.702 186.048 184.711 186.039 184.718C186.029 184.726 186.018 184.731 186.006 184.733Z" fill="#090909"/>
<path d="M181.448 183.186C181.419 183.189 181.39 183.186 181.363 183.175C181.336 183.164 181.312 183.147 181.293 183.124C181.242 183.066 181.241 182.994 181.291 182.964C181.802 182.649 184.13 182.313 184.228 182.299C184.264 182.297 184.299 182.306 184.329 182.324C184.359 182.342 184.383 182.369 184.398 182.401C184.406 182.414 184.411 182.428 184.412 182.443C184.413 182.458 184.41 182.472 184.404 182.486C184.398 182.499 184.388 182.511 184.377 182.52C184.365 182.529 184.351 182.534 184.336 182.537C184.313 182.54 181.956 182.88 181.476 183.175C181.467 183.18 181.458 183.184 181.448 183.186Z" fill="#090909"/>
<path d="M184.039 182.56C184.018 182.565 184.004 182.568 183.999 182.569L183.821 182.606L183.81 182.422C183.797 182.184 183.703 180.061 184.562 179.853C184.836 179.783 185.16 179.918 185.526 180.241C185.904 180.575 186.087 180.901 186.069 181.211C186.018 182.078 184.33 182.495 184.039 182.56ZM184.697 180.095L184.691 180.096C184.137 180.23 184.047 181.59 184.059 182.291C184.666 182.136 185.78 181.728 185.813 181.129C185.825 180.903 185.685 180.665 185.384 180.399C185.105 180.154 184.879 180.054 184.697 180.095H184.697Z" fill="#090909"/>
<path d="M185.864 183.805C185.851 183.808 185.837 183.81 185.823 183.812C185.211 183.891 183.986 182.702 183.847 182.565L183.688 182.408L183.871 182.379C184.016 182.356 185.301 182.169 185.886 182.685C185.984 182.769 186.06 182.875 186.108 182.995C186.155 183.114 186.173 183.244 186.159 183.371C186.139 183.62 186.04 183.765 185.864 183.805ZM184.175 182.591C184.67 183.05 185.405 183.62 185.723 183.579C185.764 183.574 185.888 183.558 185.907 183.291C185.919 183.207 185.911 183.122 185.882 183.043C185.854 182.964 185.806 182.893 185.744 182.836C185.406 182.54 184.619 182.548 184.175 182.591V182.591Z" fill="#090909"/>
<path d="M185.519 186.133C185.482 186.139 185.444 186.132 185.413 186.111C185.335 186.063 183.471 184.903 183.821 183.821C184.118 182.901 183.842 182.56 183.839 182.557C183.791 182.5 183.788 182.428 183.835 182.396C183.864 182.381 183.897 182.377 183.929 182.384C183.961 182.391 183.99 182.409 184.01 182.434C184.052 182.478 184.408 182.892 184.066 183.944C183.771 184.851 185.49 185.924 185.507 185.935C185.536 185.948 185.558 185.972 185.57 186.001C185.583 186.03 185.584 186.063 185.574 186.093C185.568 186.103 185.56 186.112 185.551 186.119C185.541 186.126 185.531 186.13 185.519 186.133Z" fill="#090909"/>
<path d="M127.401 121.371L128.413 125.848C129.486 130.591 131.683 135.006 134.82 138.722L171.675 182.378L182.968 178.402L162.99 147.563L177.579 124.525C181.529 118.288 175.959 110.392 168.759 112.02L127.401 121.371ZM149.946 129.852L160.092 127.557L156.336 138.528L149.946 129.852Z" fill="#D0B3FF"/>
<path d="M130.921 120.575L130.648 120.637L130.852 121.539L131.125 121.477L130.921 120.575Z" fill="#090909"/>
<path d="M171.628 177.962L171.84 177.78L173.016 179.151L172.804 179.333L171.628 177.962ZM169.277 175.22L169.489 175.038L170.664 176.409L170.452 176.591L169.277 175.22ZM166.925 172.478L167.137 172.296L168.313 173.667L168.101 173.849L166.925 172.478ZM164.574 169.736L164.786 169.554L165.962 170.925L165.75 171.107L164.574 169.736ZM162.223 166.994L162.435 166.812L163.61 168.183L163.398 168.365L162.223 166.994ZM159.871 164.252L160.083 164.07L161.259 165.441L161.047 165.623L159.871 164.252ZM157.52 161.51L157.732 161.328L158.908 162.7L158.696 162.881L157.52 161.51ZM155.169 158.768L155.381 158.587L156.556 159.957L156.344 160.139L155.169 158.768ZM152.817 156.027L153.029 155.845L154.205 157.215L153.993 157.397L152.817 156.027ZM150.466 153.285L150.678 153.103L151.854 154.474L151.642 154.656L150.466 153.285ZM148.115 150.543L148.327 150.361L149.502 151.732L149.29 151.914L148.115 150.543ZM145.763 147.801L145.975 147.619L147.151 148.99L146.939 149.172L145.763 147.801ZM143.412 145.059L143.624 144.877L144.8 146.248L144.588 146.43L143.412 145.059ZM141.061 142.317L141.273 142.135L142.448 143.506L142.236 143.688L141.061 142.317ZM138.709 139.575L138.921 139.393L140.097 140.764L139.885 140.946L138.709 139.575ZM136.497 136.702L136.728 136.545C137.064 137.038 137.419 137.528 137.783 138.001L137.562 138.171C137.194 137.694 136.836 137.2 136.497 136.702H136.497ZM134.635 133.591L134.882 133.462C135.158 133.991 135.454 134.519 135.76 135.031L135.52 135.174C135.211 134.657 134.913 134.125 134.634 133.591H134.635ZM133.147 130.284L133.408 130.184C133.621 130.741 133.853 131.3 134.097 131.844L133.842 131.959C133.595 131.41 133.362 130.846 133.147 130.284ZM132.057 126.825L132.328 126.757C132.474 127.335 132.639 127.917 132.818 128.486L132.552 128.57C132.37 127.996 132.204 127.409 132.057 126.825ZM131.25 123.301L131.523 123.239L131.921 125.001L131.648 125.063L131.25 123.301Z" fill="#090909"/>
<path d="M174.194 180.522L173.981 180.704L174.583 181.406L174.796 181.224L174.194 180.522Z" fill="#090909"/>
<path d="M146.682 125.184L146.457 125.35L162.877 147.646L163.102 147.48L146.682 125.184Z" fill="#090909"/>
<path d="M158.807 142.022L159.21 140.749L159.477 140.834L159.073 142.106L158.807 142.022ZM159.77 138.987L160.33 137.224L160.596 137.308L160.036 139.071L159.77 138.987ZM160.889 135.46L161.449 133.697L161.715 133.782L161.156 135.545L160.889 135.46ZM162.009 131.934L162.568 130.171L162.835 130.256L162.275 132.019L162.009 131.934ZM163.128 128.408L163.68 126.667L163.687 126.646L163.954 126.728L163.394 128.493L163.128 128.408ZM162.153 123.954L162.219 123.683C162.537 123.761 162.837 123.903 163.099 124.1C163.362 124.298 163.581 124.546 163.745 124.831L163.502 124.97C163.358 124.719 163.164 124.499 162.932 124.324C162.7 124.15 162.435 124.024 162.153 123.954ZM147.705 126.713L149.509 126.305L149.571 126.578L147.767 126.986L147.705 126.713ZM151.314 125.897L153.118 125.489L153.18 125.762L151.375 126.17L151.314 125.897ZM154.922 125.081L156.726 124.673L156.788 124.946L154.984 125.354L154.922 125.081ZM158.531 124.265L160.335 123.857L160.397 124.13L158.592 124.538L158.531 124.265Z" fill="#090909"/>
<path d="M172.348 182.226L182.721 179.881L182.125 178.699L172.348 182.226Z" fill="#090909"/>
<path d="M89.6909 95.6151L87.8316 92.952C87.7243 92.8032 87.595 92.6716 87.4482 92.5616C86.5286 91.8719 83.029 88.9612 80.3336 86.7067C80.252 86.6385 80.1481 86.6029 80.0419 86.6067C79.9357 86.6105 79.8346 86.6534 79.7581 86.7272C79.6816 86.801 79.6351 86.9005 79.6274 87.0065C79.6198 87.1126 79.6517 87.2177 79.7169 87.3016C80.3199 88.081 81.8848 89.399 81.6109 90.1309C81.5087 90.4039 81.1477 90.3211 80.816 90.838C80.6847 91.0761 80.5321 91.3017 80.3602 91.5123C80.2997 91.5924 80.2312 91.6663 80.1558 91.7327C79.9357 91.91 79.7267 91.9128 79.4155 92.2474C79.0487 92.6419 79.2071 92.7794 78.771 93.2717C78.5223 93.5525 78.3998 93.5878 78.2037 93.8942C78.0745 94.096 77.924 94.3358 77.9541 94.6476C77.9669 94.7837 78.0081 94.9156 78.075 95.0348C78.142 95.154 78.2331 95.2578 78.3426 95.3396L81.8886 97.9986C82.2803 98.2922 83.3524 98.1753 83.5046 98.6404L85.5269 100.654L89.6909 95.6151Z" fill="#F59060"/>
<path d="M86.0375 91.5567L85.9251 91.7973L85.0028 91.365L84.7888 91.265L84.5122 91.1361L84.0023 90.8971C83.9542 90.8734 83.8995 90.8668 83.8472 90.8784C83.7949 90.89 83.7481 90.919 83.7145 90.9608C83.6789 91.001 83.6582 91.0523 83.6561 91.106C83.654 91.1597 83.6706 91.2124 83.7031 91.2552L83.7527 91.3247L84.0507 91.7509L84.3716 92.2085L84.9002 92.9617L84.8817 93.0245C84.8787 93.0342 84.5795 94.0266 84.9592 94.6863C85.042 94.8259 85.1536 94.9463 85.2865 95.0396C85.4194 95.1328 85.5706 95.1967 85.73 95.227L85.6696 95.4842C85.4573 95.4388 85.2569 95.3492 85.0814 95.2213C84.9377 95.1118 84.8173 94.9748 84.7271 94.8182C84.3464 94.1535 84.5437 93.2576 84.6089 93.0111L84.2034 92.4332L83.8825 91.9757L83.4832 91.4081C83.4693 91.3876 83.457 91.366 83.4466 91.3435C83.3992 91.2492 83.3824 91.1425 83.3986 91.0383C83.4147 90.9341 83.463 90.8375 83.5368 90.762C83.6105 90.6865 83.7059 90.6359 83.8098 90.6173C83.9136 90.5987 84.0207 90.613 84.116 90.6581L84.6741 90.9201L85.166 91.1493L85.3467 91.2336L86.0375 91.5567Z" fill="#090909"/>
<path d="M81.7138 90.0164L81.5361 90.2139L84.5651 92.9392L84.7428 92.7417L81.7138 90.0164Z" fill="#090909"/>
<path d="M82.4752 96.1483L82.4855 95.8829C82.8981 95.8989 83.2101 95.796 83.4138 95.577C83.6962 95.2739 83.703 94.8229 83.6968 94.6759L80.2715 91.611L80.4487 91.4131L83.9519 94.5477L83.9577 94.5979C83.961 94.6264 84.0325 95.301 83.6098 95.7564C83.3509 96.0357 82.9694 96.1675 82.4752 96.1483Z" fill="#090909"/>
<path d="M81.2701 97.6478L81.2217 97.3866C82.2237 97.2006 82.3355 96.3265 82.3471 96.0818L78.71 93.3541L78.8693 93.1416L82.6122 95.9482L82.6138 96.0125C82.6147 96.0269 82.6334 97.3946 81.2701 97.6478Z" fill="#090909"/>
<path d="M83.8876 94.7308L83.7646 94.4953C84.5466 94.0869 84.6208 92.9876 84.6215 92.9766L84.8867 92.9923C84.8837 93.0432 84.8015 94.2532 83.8876 94.7308Z" fill="#090909"/>
<path d="M192.647 79.9559C191.075 82.235 188.257 85.6336 183.356 89.8391L179.3 84.7646C179.3 84.7646 182.205 82.5096 184.139 75.9636C184.231 75.6538 184.319 75.335 184.406 75.0072C184.559 74.4242 184.704 73.8106 184.84 73.1662C184.852 73.1049 184.884 73.0488 184.929 73.006C184.975 72.9632 185.033 72.9358 185.095 72.9275C185.157 72.9192 185.22 72.9304 185.276 72.9597C185.331 72.989 185.376 73.0348 185.404 73.0908C185.862 74.0123 186.221 74.98 186.473 75.9776C186.571 76.3694 186.646 76.7662 186.701 77.1662C186.702 77.1732 186.703 77.1804 186.704 77.1876C186.708 77.2154 186.719 77.2418 186.736 77.2639C186.753 77.286 186.776 77.303 186.802 77.3132C186.828 77.3235 186.857 77.3264 186.885 77.3219C186.912 77.3173 186.938 77.3054 186.96 77.2874L192.647 79.9559Z" fill="#F59060"/>
<path d="M192.051 78.5127C192.494 78.3352 192.915 78.1072 193.305 77.833C193.361 77.793 193.429 77.7732 193.497 77.7769C193.565 77.7805 193.631 77.8074 193.682 77.8532C193.733 77.8989 193.767 77.9607 193.778 78.0284C193.789 78.096 193.777 78.1654 193.743 78.2251C193.59 78.4929 193.409 78.7954 193.195 79.1318C193.032 79.3876 192.85 79.663 192.647 79.957L186.96 77.2881C186.972 77.2786 186.983 77.267 186.991 77.2537C187.12 77.0553 187.293 76.7838 187.498 76.4592C188.426 74.9884 189.994 72.4055 190.875 70.4166C190.904 70.3526 190.954 70.3006 191.017 70.2696C191.08 70.2385 191.151 70.2302 191.219 70.2463C191.288 70.2623 191.348 70.3015 191.391 70.3573C191.433 70.4131 191.455 70.4819 191.452 70.5519C191.401 71.5194 191.118 72.9816 190.161 74.8841C190.146 74.9164 190.142 74.9531 190.152 74.9876C190.161 75.0221 190.182 75.0521 190.212 75.0721C190.242 75.0921 190.278 75.1008 190.313 75.0965C190.349 75.0923 190.381 75.0755 190.405 75.0491C191.125 74.2104 192.125 72.9774 192.794 71.8744C192.831 71.8142 192.887 71.7687 192.954 71.7459C193.02 71.723 193.093 71.7243 193.158 71.7494C193.224 71.7745 193.279 71.8218 193.314 71.8832C193.348 71.9446 193.36 72.0162 193.347 72.0854C193.162 73.0872 192.684 74.5224 191.513 76.212C191.492 76.2415 191.483 76.2775 191.487 76.3134C191.49 76.3493 191.507 76.3826 191.533 76.4072C191.56 76.4318 191.594 76.4459 191.63 76.4471C191.666 76.4482 191.702 76.4362 191.729 76.4133C192.375 75.8868 192.974 75.3063 193.521 74.6782C193.567 74.6243 193.631 74.5884 193.701 74.5767C193.771 74.5651 193.842 74.5784 193.903 74.6145C193.964 74.6505 194.01 74.7069 194.034 74.7738C194.057 74.8406 194.056 74.9135 194.031 74.9797C193.687 75.8663 193.054 77.0371 191.89 78.2682C191.866 78.2928 191.852 78.3246 191.848 78.3586C191.845 78.3925 191.854 78.4264 191.873 78.4549C191.891 78.4833 191.919 78.5045 191.952 78.515C191.984 78.5255 192.019 78.5247 192.051 78.5127Z" fill="#F59060"/>
<path d="M187.176 87.1434C187.176 87.1434 185.76 89.0395 183.617 91.8882C183.546 91.9824 183.473 92.0797 183.399 92.177C182.207 93.7594 180.808 95.614 179.312 97.5908C179.24 97.6866 179.167 97.7827 179.093 97.88C176.631 101.128 173.925 104.681 171.456 107.872C171.389 107.959 171.322 108.046 171.256 108.131C171.089 108.348 170.922 108.562 170.757 108.776C170.703 108.845 170.65 108.914 170.596 108.982C170.011 109.736 169.277 110.362 168.439 110.819C167.602 111.277 166.679 111.558 165.729 111.644C164.778 111.73 163.82 111.62 162.914 111.32C162.008 111.02 161.174 110.537 160.462 109.901C160.209 109.676 159.95 109.441 159.685 109.196C156.718 106.447 153.94 103.5 151.371 100.375L156.197 116.533C156.197 116.533 155.381 117.693 153.721 119.182C153.67 119.227 153.616 119.273 153.563 119.32C151.983 120.708 150.232 121.887 148.352 122.83C148.296 122.859 148.239 122.888 148.181 122.915C143.445 125.251 136.568 126.763 127.453 124.204L126.905 122.069L126.843 121.829L123.778 109.886L123.721 109.661L123.244 107.807C123.244 107.807 123.061 108.263 122.712 109.026C122.685 109.084 122.657 109.143 122.628 109.206C121.79 111.013 120.129 114.293 117.856 117.343C117.818 117.395 117.781 117.446 117.742 117.497C117.285 118.101 116.805 118.697 116.303 119.269C116.033 119.578 115.756 119.878 115.473 120.169C114.407 121.269 113.034 122.021 111.534 122.328C110.034 122.635 108.476 122.483 107.063 121.891C107.003 121.866 106.942 121.84 106.882 121.812C106.148 121.481 105.47 121.035 104.876 120.49L104.797 120.418C101.587 117.478 95.9193 112.002 91.1655 107.372C91.1152 107.322 91.0635 107.272 91.0135 107.224C89.4749 105.725 88.0369 104.319 86.8155 103.122C86.7639 103.072 86.7136 103.023 86.6635 102.974C84.4515 100.807 82.9854 99.3629 82.9854 99.3629L89.3882 94.3502C89.3882 94.3502 91.9454 96.2819 95.2364 98.7915C95.3039 98.8426 95.3718 98.8946 95.4409 98.9471C100.254 102.618 106.531 107.446 108.721 109.309L115.761 95.2866L116.513 93.7879C117.054 92.7125 117.744 91.7193 118.563 90.8379C118.607 90.7901 118.652 90.7422 118.698 90.6955C119.754 89.5925 121 88.689 122.377 88.0283C122.996 87.7303 123.674 87.4159 124.403 87.0934C124.436 87.0793 124.469 87.0641 124.503 87.0501C124.579 87.0172 124.654 86.9831 124.73 86.9504C127.023 85.9431 129.371 85.0665 131.763 84.3248C131.876 84.2904 131.99 84.2551 132.104 84.2216C134.886 83.3867 137.873 82.7256 140.846 82.4767C141.639 82.4108 142.428 82.3752 143.214 82.37C143.233 82.37 143.253 82.37 143.272 82.37C143.336 82.37 143.4 82.37 143.463 82.3713C146.422 82.4127 149.273 83.4892 151.521 85.4139C151.739 85.5991 151.965 85.7941 152.2 85.9951C153.037 86.7136 153.975 87.5266 154.961 88.3965C155.013 88.4433 155.067 88.4898 155.12 88.5363C157.502 90.6406 160.147 93.0539 162.335 95.2463C162.432 95.344 162.529 95.4418 162.625 95.5389C163.376 96.2989 164.067 97.0288 164.667 97.7042L165.501 96.9294L165.647 96.795L170.029 92.7223L170.195 92.5689L178.395 84.9512L178.561 84.7966L181.505 82.0625L187.176 87.1434Z" fill="#6595F7"/>
<path d="M118.698 90.6943C118.652 90.7411 118.607 90.789 118.563 90.8368C119.631 92.4409 120.319 94.268 120.573 96.1784C120.827 98.0888 120.641 100.032 120.03 101.86C119.418 103.687 118.397 105.351 117.044 106.724C115.691 108.096 114.042 109.141 112.223 109.779C110.404 110.417 108.464 110.63 106.55 110.404C104.636 110.177 102.8 109.516 101.18 108.47C99.5611 107.425 98.2022 106.024 97.2074 104.373C96.2127 102.722 95.6084 100.866 95.4408 98.946C95.372 98.8938 95.3038 98.8415 95.2363 98.7904C95.381 100.75 95.9739 102.651 96.9692 104.346C97.9646 106.041 99.3358 107.484 100.977 108.565C102.619 109.647 104.486 110.336 106.437 110.581C108.387 110.827 110.367 110.621 112.225 109.98C114.083 109.338 115.769 108.279 117.153 106.883C118.537 105.488 119.582 103.793 120.207 101.93C120.832 100.066 121.021 98.0843 120.76 96.1364C120.498 94.1884 119.793 92.3265 118.698 90.6943Z" fill="white"/>
<path d="M165.647 96.7938L165.502 96.9283C167.357 98.1288 168.865 99.7953 169.875 101.761C170.885 103.727 171.361 105.924 171.256 108.131C171.322 108.046 171.389 107.959 171.456 107.872C171.514 105.683 171.011 103.516 169.994 101.577C168.977 99.6375 167.481 97.9909 165.647 96.7938ZM155.792 95.0103C153.148 95.6075 150.76 97.0269 148.973 99.0649C147.185 101.103 146.088 103.655 145.841 106.355C145.593 109.054 146.207 111.763 147.594 114.093C148.981 116.422 151.071 118.252 153.563 119.32C153.616 119.273 153.669 119.227 153.72 119.182C150.705 117.915 148.297 115.529 147.004 112.525C145.711 109.52 145.633 106.132 146.785 103.071C147.938 100.01 150.232 97.5154 153.186 96.1106C156.14 94.7057 159.523 94.5004 162.625 95.5376C162.53 95.4405 162.432 95.3428 162.335 95.245C160.211 94.5987 157.956 94.5178 155.792 95.0103Z" fill="white"/>
<path d="M134.438 116.785C131.373 117.475 128.669 119.271 126.843 121.828L126.905 122.068C128.118 120.329 129.75 118.922 131.649 117.978C133.549 117.034 135.655 116.584 137.775 116.668C139.894 116.753 141.958 117.369 143.777 118.46C145.595 119.552 147.11 121.084 148.181 122.915C148.239 122.887 148.296 122.859 148.352 122.829C146.974 120.476 144.883 118.623 142.382 117.536C139.881 116.45 137.099 116.187 134.438 116.785Z" fill="white"/>
<path d="M112.163 116.089C110.807 116.397 109.577 117.109 108.634 118.13C107.692 119.152 107.081 120.435 106.883 121.811C106.943 121.839 107.003 121.865 107.064 121.89C107.22 120.731 107.678 119.633 108.393 118.707C109.108 117.78 110.054 117.058 111.136 116.613C112.218 116.168 113.398 116.015 114.557 116.17C115.717 116.325 116.815 116.782 117.743 117.496C117.781 117.445 117.819 117.394 117.856 117.342C117.058 116.728 116.134 116.297 115.149 116.08C114.165 115.864 113.146 115.867 112.163 116.089Z" fill="white"/>
<path d="M136.598 103.875C135.927 104.027 135.316 104.374 134.842 104.873C134.368 105.372 134.053 106.001 133.936 106.679C133.819 107.357 133.907 108.055 134.186 108.684C134.466 109.313 134.926 109.844 135.508 110.212C136.09 110.579 136.768 110.765 137.456 110.748C138.144 110.73 138.811 110.508 139.373 110.111C139.936 109.714 140.367 109.159 140.614 108.516C140.861 107.874 140.911 107.173 140.76 106.501C140.555 105.602 140.002 104.82 139.222 104.328C138.442 103.835 137.498 103.673 136.598 103.875ZM138.091 110.477C137.456 110.621 136.794 110.573 136.186 110.339C135.579 110.106 135.054 109.698 134.679 109.167C134.304 108.635 134.094 108.005 134.077 107.354C134.06 106.704 134.237 106.063 134.584 105.513C134.931 104.963 135.434 104.528 136.028 104.264C136.622 103.999 137.282 103.917 137.923 104.027C138.564 104.137 139.158 104.435 139.63 104.883C140.102 105.331 140.43 105.909 140.574 106.544C140.765 107.394 140.611 108.286 140.145 109.023C139.68 109.761 138.941 110.284 138.091 110.477Z" fill="white"/>
<path d="M89.1825 100.718C88.6056 100.848 88.0716 101.124 87.6309 101.519C87.1902 101.913 86.8575 102.414 86.6641 102.973C86.7141 103.021 86.7645 103.071 86.816 103.12C86.9852 102.585 87.2888 102.102 87.6977 101.717C88.1067 101.332 88.6074 101.058 89.1521 100.922C89.6968 100.785 90.2675 100.791 90.8095 100.937C91.3516 101.084 91.8471 101.367 92.2488 101.76C92.6504 102.152 92.9449 102.641 93.104 103.179C93.2632 103.718 93.2817 104.288 93.1579 104.836C93.0341 105.384 92.7721 105.891 92.3968 106.308C92.0215 106.726 91.5455 107.041 91.0141 107.222C91.064 107.271 91.1157 107.321 91.166 107.37C91.9927 107.062 92.6713 106.451 93.0646 105.662C93.4579 104.872 93.5365 103.962 93.2844 103.117C93.0323 102.271 92.4684 101.553 91.7069 101.108C90.9453 100.662 90.043 100.523 89.1825 100.718Z" fill="white"/>
<path d="M124.174 103.215C123.55 103.355 122.977 103.665 122.518 104.11C122.059 104.555 121.731 105.119 121.571 105.738C121.411 106.357 121.426 107.008 121.612 107.62C121.798 108.232 122.15 108.78 122.628 109.205C122.656 109.143 122.685 109.083 122.712 109.025C122.106 108.467 121.731 107.704 121.659 106.883C121.588 106.063 121.825 105.246 122.326 104.592C122.826 103.939 123.552 103.496 124.363 103.35C125.173 103.204 126.008 103.367 126.705 103.806C127.401 104.245 127.908 104.928 128.127 105.722C128.345 106.515 128.259 107.362 127.885 108.096C127.511 108.829 126.877 109.396 126.106 109.686C125.336 109.975 124.485 109.966 123.72 109.66L123.778 109.886C124.397 110.108 125.067 110.149 125.708 110.003C126.608 109.799 127.391 109.246 127.883 108.466C128.376 107.685 128.538 106.741 128.335 105.841C128.131 104.941 127.579 104.159 126.798 103.666C126.018 103.173 125.074 103.011 124.174 103.215Z" fill="white"/>
<path d="M132.104 84.2207C131.991 84.2542 131.876 84.2895 131.763 84.3238C133.15 84.6628 134.392 85.4374 135.306 86.5341C136.22 87.6307 136.759 88.9915 136.843 90.4169C136.927 91.8422 136.552 93.2569 135.773 94.4533C134.993 95.6497 133.851 96.5647 132.514 97.0642C131.176 97.5636 129.714 97.6211 128.341 97.2281C126.968 96.8352 125.758 96.0126 124.887 94.8811C124.016 93.7495 123.531 92.3686 123.503 90.9411C123.475 89.5136 123.905 88.1147 124.731 86.9497C124.655 86.9824 124.579 87.0165 124.503 87.0494C124.47 87.0634 124.437 87.0786 124.403 87.0927C123.623 88.3047 123.245 89.7315 123.321 91.1707C123.398 92.61 123.925 93.9887 124.829 95.1112C125.733 96.2338 126.968 97.0433 128.357 97.4249C129.747 97.8065 131.222 97.7409 132.572 97.2373C133.923 96.7337 135.08 95.8177 135.881 94.6192C136.682 93.4208 137.085 92.0007 137.033 90.5603C136.981 89.12 136.477 87.7324 135.593 86.5946C134.708 85.4567 133.488 84.6262 132.104 84.2209V84.2207Z" fill="white"/>
<path d="M178.241 97.9292C176.515 98.3173 174.706 98.0049 173.209 97.0605C171.713 96.1162 170.653 94.617 170.26 92.8917C170.236 92.7839 170.214 92.6756 170.196 92.5676L170.03 92.7211C170.044 92.7923 170.059 92.8632 170.074 92.9338C170.478 94.7083 171.569 96.2504 173.108 97.2217C174.647 98.193 176.508 98.5143 178.283 98.1151C178.558 98.0527 178.829 97.9742 179.094 97.8798C179.167 97.7825 179.24 97.6864 179.312 97.5906C178.966 97.7336 178.607 97.8468 178.241 97.9292ZM178.562 84.7949L178.397 84.9495C179.964 85.3439 181.336 86.2939 182.256 87.623C183.176 88.9521 183.583 90.5701 183.4 92.1763C183.473 92.079 183.546 91.9815 183.618 91.8875C183.726 90.303 183.28 88.7301 182.359 87.4368C181.437 86.1436 180.095 85.2099 178.562 84.7949H178.562Z" fill="white"/>
<path d="M154.962 88.3947C154.714 89.3717 154.248 90.2797 153.599 91.0508C152.95 91.8218 152.134 92.4357 151.214 92.8465C150.294 93.2573 149.292 93.4542 148.285 93.4225C147.277 93.3909 146.29 93.1314 145.397 92.6635C144.505 92.1957 143.729 91.5317 143.13 90.7214C142.531 89.9111 142.123 88.9756 141.936 87.985C141.75 86.9944 141.791 85.9745 142.056 85.002C142.32 84.0294 142.802 83.1294 143.464 82.3695C143.401 82.368 143.338 82.3681 143.273 82.3682C143.254 82.3682 143.234 82.3682 143.215 82.3682C142.56 83.1573 142.09 84.0831 141.839 85.0777C141.589 86.0723 141.565 87.1104 141.769 88.1155C141.972 89.1207 142.399 90.0674 143.017 90.886C143.634 91.7047 144.428 92.3744 145.339 92.846C146.249 93.3177 147.254 93.5792 148.279 93.6113C149.304 93.6435 150.324 93.4454 151.262 93.0318C152.201 92.6181 153.034 91.9994 153.702 91.2211C154.37 90.4428 154.855 89.5246 155.121 88.5342C155.068 88.488 155.014 88.4415 154.962 88.3947Z" fill="white"/>
<path d="M129.241 85.16C129.241 85.16 130.359 88.0439 134.981 86.329C134.981 86.329 138.406 85.1747 136.775 83.0352C136.775 83.0352 129.918 84.7173 129.241 85.16Z" fill="white"/>
<path d="M136.3 74.537C136.315 74.5767 136.329 74.6172 136.342 74.6582C136.415 74.876 136.481 75.0951 136.537 75.3133C136.548 75.35 136.558 75.3876 136.567 75.4252C136.597 75.5419 136.623 75.6556 136.646 75.773C136.702 76.0355 136.749 76.3002 136.779 76.559C136.972 78.2053 136.602 79.7739 135.145 80.8949L136.261 83.4747C136.371 83.7274 136.439 83.9966 136.461 84.2713C136.472 84.4256 136.429 84.579 136.339 84.7049C135.535 85.8387 133.729 86.3013 131.539 86.1031C131.067 86.0622 130.622 85.868 130.272 85.5501C129.921 85.2323 129.684 84.8084 129.598 84.3432L128.88 80.4428L127.186 80.689C126.853 80.743 126.512 80.7052 126.199 80.5797C125.886 80.4541 125.613 80.2456 125.41 79.9766C125.384 79.9427 125.36 79.9074 125.338 79.871L125.088 79.4716C124.938 79.231 124.844 78.9592 124.814 78.6769C124.784 78.3946 124.819 78.1092 124.916 77.8424C125.013 77.5756 125.17 77.3344 125.374 77.1372C125.578 76.94 125.825 76.792 126.095 76.7044C126.095 76.7044 126.087 76.6814 126.075 76.6393C125.862 75.9211 124.155 69.6734 128.732 68.4944C130.967 67.9152 133.314 68.9253 134.524 70.8907C135.158 71.9222 135.846 73.2021 136.3 74.537Z" fill="#F59060"/>
<path d="M134.923 77.6272C134.958 77.5983 134.987 77.5633 135.009 77.524C135.342 76.9308 134.136 75.1643 133.891 74.8162C133.882 74.8036 133.871 74.7927 133.858 74.7843C133.845 74.776 133.831 74.7702 133.816 74.7675C133.801 74.7647 133.785 74.765 133.77 74.7683C133.755 74.7716 133.741 74.7779 133.729 74.7867C133.716 74.7955 133.705 74.8068 133.697 74.8198C133.689 74.8327 133.684 74.8472 133.681 74.8624C133.679 74.8775 133.679 74.8929 133.683 74.9079C133.686 74.9228 133.693 74.9368 133.702 74.9492C134.237 75.7092 135.011 77.0495 134.807 77.4108C134.794 77.4337 134.755 77.5051 134.566 77.4923C134.536 77.4902 134.505 77.5003 134.482 77.5205C134.459 77.5406 134.445 77.5691 134.443 77.5996C134.441 77.6302 134.451 77.6603 134.471 77.6834C134.492 77.7064 134.52 77.7206 134.551 77.7226C134.682 77.741 134.816 77.7067 134.923 77.6272Z" fill="#090909"/>
<path d="M132.461 77.486C133.077 77.3456 133.513 76.9541 133.434 76.6114C133.356 76.2687 132.794 76.1046 132.178 76.2449C131.563 76.3853 131.127 76.7768 131.205 77.1195C131.283 77.4622 131.845 77.6263 132.461 77.486Z" fill="#FC6D6D"/>
<path d="M136.537 75.3145C136.548 75.3511 136.558 75.3887 136.567 75.4263C136.597 75.543 136.623 75.6567 136.646 75.7742C136.702 76.0366 136.749 76.3014 136.779 76.5601V76.5609C136.137 76.7284 135.538 76.5653 135.458 76.2099C135.381 75.8661 135.815 75.4751 136.431 75.335C136.466 75.3265 136.5 75.321 136.537 75.3145Z" fill="#FC6D6D"/>
<path d="M135.146 80.8955C135.146 80.8955 134.039 81.6812 132.26 81.0515C132.26 81.0515 133.524 82.284 135.426 81.5432L135.146 80.8955Z" fill="#090909"/>
<path d="M131.04 74.3174C131.178 74.2074 131.327 74.1126 131.485 74.0345C131.641 73.9565 131.805 73.8982 131.975 73.8611C132.138 73.8286 132.305 73.8261 132.469 73.8538C132.627 73.8854 132.778 73.9483 132.911 74.0386L132.927 74.0479C132.948 74.0613 132.971 74.0703 132.996 74.0745C133.02 74.0787 133.045 74.0779 133.07 74.0723C133.094 74.0667 133.117 74.0563 133.137 74.0417C133.157 74.0271 133.174 74.0087 133.187 73.9874C133.2 73.9662 133.209 73.9426 133.212 73.918C133.216 73.8934 133.215 73.8683 133.209 73.8442C133.203 73.8201 133.192 73.7974 133.177 73.7775C133.162 73.7576 133.143 73.7409 133.122 73.7284C133.119 73.7267 133.116 73.7248 133.113 73.7234C132.93 73.6164 132.728 73.5475 132.518 73.5206C132.312 73.4994 132.105 73.5162 131.905 73.5702C131.715 73.625 131.531 73.7038 131.36 73.8046C131.191 73.9029 131.032 74.0196 130.888 74.1526C130.867 74.1722 130.854 74.1996 130.852 74.2288C130.85 74.258 130.86 74.2867 130.879 74.3088C130.898 74.3309 130.925 74.3446 130.954 74.3469C130.983 74.3493 131.012 74.3402 131.035 74.3215L131.04 74.3174Z" fill="#671E24"/>
<path d="M136.079 73.1079C135.909 73.0297 135.731 72.971 135.548 72.9331C135.362 72.8931 135.172 72.8783 134.982 72.8892C134.784 72.9036 134.591 72.9571 134.414 73.0467C134.235 73.1422 134.078 73.2738 133.952 73.433C133.922 73.4709 133.907 73.5193 133.911 73.568C133.915 73.6167 133.938 73.6618 133.975 73.6937C134.013 73.7255 134.061 73.7416 134.109 73.7385C134.158 73.7353 134.204 73.7132 134.237 73.6769L134.243 73.6693L134.255 73.6533C134.34 73.5281 134.45 73.4217 134.578 73.3405C134.712 73.2611 134.86 73.2089 135.014 73.1867C135.176 73.1663 135.341 73.1676 135.503 73.1906C135.668 73.213 135.83 73.2535 135.986 73.3115L135.992 73.3138C136.019 73.3254 136.05 73.3256 136.078 73.3145C136.105 73.3033 136.127 73.2817 136.139 73.2543C136.15 73.227 136.151 73.1961 136.139 73.1686C136.128 73.1411 136.107 73.1191 136.079 73.1075V73.1079Z" fill="#671E24"/>
<path d="M132.546 75.6883C132.712 75.6338 132.78 75.3845 132.697 75.1313C132.614 74.8782 132.412 74.7171 132.246 74.7715C132.079 74.826 132.011 75.0753 132.094 75.3285C132.177 75.5816 132.379 75.7427 132.546 75.6883Z" fill="#090909"/>
<path d="M135.503 74.9673C135.629 74.926 135.668 74.6985 135.59 74.4592C135.511 74.22 135.345 74.0596 135.219 74.1009C135.093 74.1423 135.054 74.3697 135.132 74.609C135.21 74.8482 135.376 75.0087 135.503 74.9673Z" fill="#090909"/>
<path d="M126.413 79.6878C126.018 79.1873 125.871 78.7431 125.977 78.3672C126.124 77.84 126.731 77.6079 126.737 77.6056L126.65 77.3711C126.62 77.382 125.92 77.6473 125.736 78.2978C125.607 78.7555 125.769 79.2752 126.217 79.8428L126.413 79.6878Z" fill="#090909"/>
<path d="M126.094 76.705C126.479 76.6798 126.866 76.7264 127.234 76.8425C127.84 77.0364 128.009 77.3074 128.229 77.2846C128.58 77.248 128.979 76.4695 129.235 73.3793C129.896 73.4492 132.959 73.7052 134.997 71.6924C135.451 71.2445 135.822 70.7193 136.092 70.1413C137.068 68.0046 136.219 65.9008 136.036 65.447C135.659 64.5223 135.08 63.6933 134.342 63.0205C132.132 65.9486 129.251 68.3037 125.943 69.8881C125.552 70.0507 124.269 70.6419 123.678 72.0147C122.956 73.6916 123.56 75.851 125.248 77.2724L126.094 76.705Z" fill="#671E24"/>
<path d="M127.515 80.6419L129.217 82.273L128.88 80.4424L127.515 80.6419Z" fill="#671E24"/>
<path d="M134.812 78.7211C134.471 78.7996 133.845 78.8528 132.911 78.5883C132.891 78.5823 132.869 78.5826 132.848 78.5891C132.828 78.5957 132.81 78.6082 132.797 78.6251C132.784 78.642 132.776 78.6624 132.775 78.6837C132.773 78.7051 132.778 78.7263 132.789 78.7447C133.076 79.2306 133.854 80.2117 134.919 78.8924C134.932 78.8751 134.941 78.8539 134.942 78.8318C134.943 78.8097 134.938 78.7877 134.926 78.7688C134.914 78.75 134.897 78.7353 134.877 78.7268C134.856 78.7182 134.833 78.7163 134.812 78.7211Z" fill="#E52039"/>
<path d="M205.965 70.8713L200.726 82.0343C200.64 82.2187 200.518 82.3843 200.367 82.5216C200.216 82.6588 200.04 82.7651 199.849 82.8343C199.657 82.9034 199.454 82.9342 199.25 82.9247C199.046 82.9153 198.847 82.8659 198.662 82.7793L192.647 79.9557L186.96 77.2877L186.701 77.1666C186.647 76.7666 186.571 76.3698 186.474 75.978C186.221 74.9804 185.863 74.0126 185.404 73.0912C185.376 73.0352 185.331 72.9894 185.276 72.9601C185.221 72.9308 185.158 72.9195 185.096 72.9278C185.033 72.9361 184.975 72.9636 184.93 73.0064C184.884 73.0492 184.853 73.1052 184.84 73.1666C184.705 73.812 184.56 74.4257 184.406 75.0076C184.32 75.3358 184.231 75.6546 184.139 75.964L180.845 74.4179C180.66 74.3315 180.494 74.2095 180.357 74.0589C180.22 73.9083 180.113 73.7321 180.044 73.5404C179.975 73.3487 179.944 73.1452 179.954 72.9416C179.963 72.738 180.013 72.5383 180.1 72.3539L185.338 61.1897C185.513 60.8174 185.829 60.5297 186.216 60.3901C186.603 60.2504 187.03 60.27 187.402 60.4447L205.22 68.8079C205.405 68.8944 205.57 69.0163 205.708 69.1669C205.845 69.3174 205.951 69.4935 206.02 69.6852C206.09 69.8768 206.12 70.0802 206.111 70.2838C206.101 70.4873 206.052 70.687 205.965 70.8713Z" fill="#D0B3FF"/>
<path d="M204.518 71.0723L202.025 76.3835L201.7 77.0743L201.32 77.8846L200.207 80.257L200.205 80.26L199.955 80.7919C199.879 80.9549 199.772 81.1013 199.639 81.2227C199.506 81.344 199.35 81.4379 199.181 81.4991C199.012 81.5602 198.832 81.5873 198.652 81.5789C198.472 81.5705 198.296 81.5267 198.133 81.45L196.443 80.6561L195.872 80.3891L195.656 80.2869L195.567 80.2458L195.268 80.1049L194.792 79.8818L186.474 75.9779C186.381 75.6029 186.273 75.2433 186.159 74.9082V74.9069C186.046 74.5731 185.927 74.2612 185.81 73.9786C185.787 73.9213 185.762 73.8656 185.738 73.8124C185.62 73.5381 185.507 73.2955 185.405 73.0904C185.376 73.0346 185.331 72.989 185.276 72.9599C185.221 72.9308 185.158 72.9196 185.096 72.9279C185.034 72.9362 184.976 72.9635 184.93 73.0062C184.885 73.0488 184.853 73.1046 184.841 73.1658C184.828 73.2271 184.815 73.2887 184.801 73.3491C184.699 73.8305 184.589 74.2946 184.475 74.7411C184.452 74.8309 184.429 74.9194 184.406 75.0067L183.92 74.7775L182.205 73.9723C181.955 73.8546 181.747 73.6643 181.607 73.4262C181.575 73.3721 181.547 73.3158 181.523 73.2576C181.49 73.1761 181.464 73.0917 181.446 73.0054C181.4 72.7899 181.409 72.5665 181.47 72.355C181.49 72.2847 181.515 72.2162 181.547 72.1502L182.271 70.6071V70.606L182.584 69.9399L182.781 69.5203L185.705 63.2935L186.109 62.4311C186.132 62.3816 186.159 62.3335 186.187 62.287C186.231 62.2168 186.282 62.1509 186.338 62.0901C186.535 61.8743 186.796 61.727 187.083 61.6699C187.369 61.6129 187.667 61.6489 187.931 61.7729L188.741 62.1537L191.041 63.232L192.69 64.0065L193.219 64.2543L197.002 66.03L197.405 66.2188L200.836 67.8293L201.168 67.9848L202.555 68.6363L202.668 68.69L203.123 68.9025L203.86 69.249C204.023 69.3255 204.169 69.4334 204.291 69.5664C204.412 69.6995 204.506 69.8551 204.567 70.0244C204.628 70.1937 204.655 70.3734 204.646 70.5532C204.638 70.733 204.594 70.9094 204.518 71.0723Z" fill="white"/>
<path d="M148.611 90.7316L148.367 90.8047L151.251 100.41L151.494 100.337L148.611 90.7316Z" fill="#090909"/>
<path d="M121.228 98.3131L120.98 98.3691L123.121 107.834L123.368 107.778L121.228 98.3131Z" fill="#090909"/>
<path d="M116.302 119.268C116.032 119.577 115.756 119.877 115.473 120.168C114.095 121.59 112.218 122.418 110.239 122.478C108.261 122.538 106.337 121.824 104.876 120.489L104.797 120.417C105.442 119.538 106.265 118.805 107.212 118.265C108.159 117.724 109.209 117.389 110.294 117.281C111.379 117.172 112.474 117.293 113.509 117.636C114.544 117.978 115.496 118.534 116.302 119.268V119.268Z" fill="#D0B3FF"/>
<path d="M170.757 108.775C170.704 108.845 170.65 108.914 170.596 108.982C170.011 109.736 169.277 110.361 168.439 110.819C167.602 111.277 166.679 111.558 165.729 111.644C164.778 111.73 163.82 111.62 162.914 111.32C162.008 111.02 161.174 110.537 160.462 109.901C160.209 109.676 159.951 109.441 159.686 109.196C160.381 108.435 161.221 107.82 162.156 107.387C163.091 106.953 164.103 106.71 165.133 106.671C166.163 106.632 167.191 106.797 168.156 107.159C169.122 107.52 170.006 108.07 170.757 108.775Z" fill="#D0B3FF"/>
<path d="M152.201 85.9933C151.247 86.6022 150.172 86.9958 149.051 87.1468C147.93 87.2979 146.789 87.2026 145.708 86.8677C144.627 86.5328 143.633 85.9663 142.793 85.2077C141.954 84.4491 141.29 83.5165 140.848 82.4751C141.66 82.4075 142.469 82.3704 143.273 82.3682C146.299 82.3647 149.225 83.4445 151.523 85.4121C151.74 85.5973 151.966 85.7922 152.201 85.9933Z" fill="#D0B3FF"/>
<path d="M124.503 87.0488C124.578 88.194 124.399 89.3416 123.979 90.4095C123.558 91.4775 122.907 92.4393 122.072 93.2263C121.237 94.0133 120.238 94.6059 119.147 94.9619C118.056 95.3178 116.899 95.4283 115.761 95.2853L116.513 93.7866C117.777 91.2706 119.839 89.2448 122.377 88.0267C123.025 87.7165 123.737 87.3862 124.503 87.0488Z" fill="#D0B3FF"/>
<path d="M108.808 109.215L108.635 109.401L110.701 111.318L110.874 111.132L108.808 109.215Z" fill="#090909"/>
<path d="M164.75 97.6067L164.584 97.7988L167.654 100.454L167.82 100.262L164.75 97.6067Z" fill="#090909"/>
<path d="M88.9067 88.3965L89.0589 91.0166L85.3473 91.2319L84.7893 91.2644L84.5127 91.1354L84.0028 90.8965C83.9547 90.8728 83.9 90.8662 83.8477 90.8777C83.7954 90.8893 83.7486 90.9184 83.715 90.9602C83.6794 91.0004 83.6587 91.0517 83.6566 91.1054C83.6545 91.159 83.6711 91.2118 83.7036 91.2546L83.7532 91.3241L83.4474 91.3424L76.7505 91.7313L76.5977 89.1112L88.9067 88.3965Z" fill="#D0B3FF"/>
<path d="M76.5983 89.1113L73.8389 90.5859L76.7504 91.7311L76.5983 89.1113Z" fill="#D0B3FF"/>
<path d="M186.187 62.2886C186.203 64.8131 186.145 67.6384 186.002 70.6259C185.948 71.7688 185.884 72.8892 185.81 73.9791C185.666 73.6378 185.526 73.3373 185.404 73.0913C185.376 73.0353 185.331 72.9894 185.276 72.9601C185.221 72.9309 185.158 72.9196 185.096 72.9279C185.033 72.9362 184.976 72.9637 184.93 73.0065C184.884 73.0493 184.853 73.1053 184.841 73.1667C184.705 73.8121 184.56 74.4257 184.406 75.0076L182.204 73.9738C182.011 73.883 181.842 73.7483 181.71 73.5804C181.578 73.4126 181.488 73.2162 181.445 73.007C181.453 72.7916 181.461 72.5748 181.47 72.3566C181.489 71.8808 181.51 71.4003 181.532 70.9151C182.048 60.1074 183.466 51.2816 184.7 51.2007C185.593 51.1433 186.144 55.6801 186.187 62.2886Z" fill="#FF4655"/>
<path d="M192.69 64.0077C192.566 64.6126 192.438 65.2233 192.307 65.8396C191.926 67.6333 191.537 69.3819 191.148 71.0667C190.626 73.3196 190.101 75.4583 189.588 77.4383L189.371 77.3363L187.498 76.4585L186.474 75.9771C186.381 75.6021 186.273 75.2425 186.159 74.9074V74.9061C186.662 72.0833 187.261 69.0079 187.945 65.7898C188.208 64.5543 188.473 63.3425 188.741 62.1544C191.447 50.1535 194.313 40.9494 195.409 40.9609C196.56 40.9745 195.343 51.1355 192.69 64.0077Z" fill="#FF4655"/>
<path d="M198.169 62.4317C197.78 63.6517 197.39 64.8516 197.001 66.0316C196.351 68.0097 195.706 69.9232 195.073 71.7517C194.196 74.2933 193.344 76.6685 192.541 78.825L192.324 78.723L189.587 77.4393L189.37 77.3373C189.899 75.389 190.495 73.2875 191.148 71.0682C191.785 68.8987 192.478 66.6164 193.218 64.2569C193.476 63.4301 193.741 62.594 194.011 61.7488C199.115 45.7818 204.183 32.9914 205.332 33.1798C206.48 33.3682 203.273 46.4658 198.169 62.4317Z" fill="#FF4655"/>
<path d="M201.175 67.9664C201.172 67.9734 201.169 67.9795 201.166 67.9866C199.221 72.5046 197.299 76.6969 195.567 80.2457L193.195 79.1318L192.54 78.8251L192.323 78.7231C193.133 76.5733 194.056 74.2272 195.073 71.7519C195.749 70.1023 196.468 68.3938 197.219 66.6479C197.281 66.505 197.342 66.3621 197.404 66.2206C203.048 53.1568 208.455 42.9248 209.537 43.2846C210.629 43.6486 206.886 54.6986 201.175 67.9664Z" fill="#FF4655"/>
<path d="M203.835 74.5803C202.601 76.5813 201.378 78.4897 200.205 80.2594C199.96 80.6275 199.718 80.9901 199.478 81.3473C199.282 81.4789 199.055 81.5575 198.819 81.5754C198.584 81.5933 198.347 81.5499 198.134 81.4494L195.656 80.2863C196.923 78.0136 198.386 75.5207 199.987 72.9236C200.891 71.4566 201.79 70.0399 202.668 68.6913C207.706 60.9445 212.053 55.4552 212.958 55.8458C214.021 56.3035 209.936 64.6903 203.835 74.5803Z" fill="#FF4655"/>
<path d="M189.145 68.1444C190.33 66.215 189.812 63.5753 189.711 63.1854C189.423 62.075 188.875 60.9366 188.962 59.7808C189.017 59.0412 189.449 58.4322 190.208 57.1786C191.116 55.6772 191.309 55.7636 191.542 55.0216C191.88 53.9443 191.887 52.4449 191.379 51.0408C190.966 49.8581 190.182 48.8406 189.143 48.1398C187.123 46.7559 184.919 47.4552 183.597 48.8541C183.202 49.2718 181.761 50.7962 181.911 53.2354C182.065 55.7397 183.787 56.981 183.495 59.1304C183.463 59.3685 183.44 59.3661 182.744 60.9574C181.223 64.4353 181.159 64.8442 181.159 65.276C181.159 66.9285 182.087 68.1835 182.351 68.5175C182.69 68.9448 183.545 69.8865 184.829 70.1706C186.579 70.5579 188.299 69.522 189.145 68.1444Z" fill="#015566"/>
<path d="M169.819 59.2759C170.442 62.0419 172.712 63.7882 173.046 64.0121C173.97 64.6323 175.048 65.0508 175.678 65.9382C176.068 66.4874 176.136 67.2094 176.351 68.557C176.597 70.0968 176.433 70.1805 176.684 70.7652C177.082 71.6714 177.814 72.3892 178.728 72.769C179.53 73.0801 180.418 73.0844 181.223 72.7813C182.853 72.2105 183.784 70.5259 183.997 68.9745C184.062 68.4984 184.308 66.7081 183.27 65.3093C182.117 63.7568 180.476 64.1142 179.601 62.3459C179.5 62.1417 179.516 62.1267 179.142 60.3493C178.245 56.081 178.048 55.6365 177.787 55.2156C177.096 54.094 176.019 53.2633 174.759 52.8794C174.187 52.7116 172.806 52.431 171.558 53.2919C169.836 54.4787 169.343 57.1602 169.819 59.2759Z" fill="#015566"/>
<path d="M184.474 74.7422C184.451 74.832 184.429 74.9205 184.406 75.0079L183.919 74.7786C183.442 73.3608 182.892 71.9688 182.27 70.6084V70.6072C180.688 67.1602 178.303 63.3049 174.995 61.2733L175.269 60.6748C178.581 62.7315 180.977 66.5084 182.583 69.9411C183.31 71.5017 183.942 73.1051 184.474 74.7422Z" fill="#090909"/>
<path d="M186.393 59.1212C186.393 59.167 186.38 60.3361 186.337 62.092C186.261 65.1621 186.094 70.027 185.737 73.8132C185.619 73.539 185.506 73.2963 185.403 73.0912C185.376 73.0356 185.332 72.99 185.277 72.9608C185.519 69.8256 185.642 66.0936 185.703 63.295C185.756 60.8892 185.764 59.172 185.764 59.1172L186.393 59.1212Z" fill="#090909"/>
<path d="M196.164 72.3434C196.405 70.0921 198.429 68.3198 198.748 68.0732C199.655 67.3706 200.784 66.8048 201.422 65.837C201.83 65.2181 201.861 64.4724 202.027 63.0164C202.226 61.2727 202.021 61.223 202.29 60.4936C202.681 59.4345 203.593 58.2437 204.853 57.4433C205.903 56.7601 207.146 56.4345 208.396 56.5149C210.841 56.6551 212.157 58.5558 212.348 60.4712C212.405 61.0431 212.613 63.1302 211.003 64.9687C209.35 66.8564 207.229 66.7859 206.145 68.665C206.025 68.8733 206.045 68.8852 205.623 70.5701C204.7 74.2525 204.501 74.6149 204.236 74.9565C203.225 76.264 201.724 76.6902 201.31 76.7926C200.781 76.9234 199.529 77.1459 198.339 76.5863C196.718 75.8222 195.991 73.9507 196.164 72.3434Z" fill="#015566"/>
<path d="M216.878 77.1419C214.694 78.9499 211.831 78.944 211.43 78.9172C210.319 78.843 209.21 78.5149 208.169 78.8317C207.524 79.0276 207.029 79.5576 206.035 80.4925C204.899 81.5607 204.977 81.7268 204.422 82.0369C203.553 82.5106 202.535 82.6308 201.58 82.3727C200.755 82.1286 200.049 81.5889 199.598 80.8571C198.657 79.4085 198.95 77.5062 199.73 76.1483C199.969 75.7316 200.87 74.1648 202.547 73.6928C204.408 73.1691 205.488 74.4553 207.262 73.5911C207.466 73.4912 207.463 73.4696 208.846 72.2916C212.166 69.4631 212.593 69.2315 213.057 69.0578C214.289 68.593 215.649 68.594 216.882 69.0608C217.436 69.2775 218.701 69.9001 219.162 71.3438C219.799 73.3359 218.549 75.7591 216.878 77.1419Z" fill="#015566"/>
<path d="M204.359 67.267C204.337 67.2955 203.862 67.916 203.122 68.904C201.2 71.4667 197.493 76.5026 195.268 80.1046L194.792 79.8814C196.997 76.2556 200.622 71.2524 202.554 68.6382C203.332 67.583 203.836 66.9169 203.859 66.8857L204.359 67.267Z" fill="#090909"/>
<path d="M211.712 74.9162L211.561 75.558C208.156 75.1912 204.451 76.388 201.319 77.8845C199.634 78.6978 198.004 79.6236 196.443 80.6557L195.872 80.3888C197.722 79.1278 199.671 78.0194 201.7 77.0743C204.785 75.6579 208.369 74.5739 211.712 74.9162Z" fill="#090909"/>
<path d="M184.406 75.0068L183.919 74.7776L184.801 73.3486C184.699 73.83 184.588 74.294 184.474 74.7406C184.452 74.831 184.429 74.9198 184.406 75.0068Z" fill="#FCB913"/>
<path d="M223.279 68.9155C222.768 70.8594 221.875 72.682 220.652 74.2768L220.425 74.5703L220.376 74.6336L220.334 74.6847L220.25 74.7871L219.915 75.1961L219.246 76.0144L217.908 77.6493L216.57 79.2844L215.901 80.1025L215.203 80.9402L214.502 81.7811L214.15 82.2007L213.792 82.6139L212.352 84.2613C210.409 86.437 208.391 88.5412 206.301 90.5738C204.212 92.6039 202.059 94.5678 199.828 96.4359C197.6 98.3087 195.311 100.1 192.961 101.811C192.368 102.233 191.783 102.662 191.187 103.077L189.393 104.311L187.574 105.51C187.273 105.711 186.964 105.903 186.658 106.096L185.736 106.674C180.816 109.739 175.681 112.447 170.372 114.776C165.082 117.103 159.631 119.048 154.061 120.595C148.51 122.142 142.854 123.29 137.139 124.03C131.439 124.774 125.694 125.107 119.947 125.028C114.217 124.954 108.499 124.468 102.838 123.572C100.012 123.126 97.207 122.582 94.4219 121.939C91.6399 121.294 88.8843 120.542 86.1597 119.702C83.4354 118.857 80.7387 117.932 78.086 116.893C75.4348 115.859 72.8168 114.724 70.2494 113.525L62.5921 109.942L58.7641 108.151L58.2863 107.927L58.0457 107.814L57.7887 107.686L57.533 107.558L57.2833 107.415C57.2008 107.367 57.1173 107.321 57.0358 107.272L56.7952 107.116C55.5122 106.283 54.4361 105.169 53.6488 103.858C53.2617 103.207 52.9481 102.516 52.7138 101.796C52.2463 100.362 52.1075 98.8402 52.3077 97.3446C52.5114 95.8622 53.0498 94.4456 53.8824 93.2022L54.2002 92.7474C54.3142 92.6005 54.4333 92.4589 54.5489 92.3143C54.6617 92.1676 54.7938 92.0375 54.9195 91.9023C55.0427 91.7645 55.173 91.6333 55.3099 91.5092C55.8436 90.9999 56.4357 90.5556 57.0739 90.1855C57.3898 89.9985 57.7159 89.8291 58.0506 89.6782L58.5596 89.4694C58.7291 89.4006 58.9056 89.352 59.0783 89.2922C59.1659 89.2645 59.251 89.2322 59.3396 89.2096L59.6058 89.1429C59.7837 89.1001 59.9594 89.0474 60.1397 89.0209C60.3203 88.9905 60.4999 88.9551 60.68 88.9274L61.2233 88.871C61.9488 88.8169 62.678 88.8402 63.3986 88.9404L65.4887 89.2558L73.8468 90.5236L73.8294 90.6487L65.4278 89.7246L63.3286 89.4954C62.6496 89.4288 61.9654 89.4347 61.2876 89.5128L60.7833 89.5864C60.6162 89.619 60.4519 89.6587 60.2854 89.6938C60.1192 89.7248 59.9585 89.7807 59.7945 89.8269L59.5515 89.8988C59.4713 89.9234 59.3927 89.9568 59.3131 89.9852C59.1552 90.047 58.9937 90.0991 58.8401 90.1686L58.3787 90.3797C58.0776 90.531 57.7851 90.6989 57.5025 90.8826C56.9345 91.2433 56.4114 91.6703 55.9444 92.1548C55.8245 92.2718 55.7111 92.3953 55.6047 92.5247C55.4969 92.6519 55.381 92.7733 55.2856 92.9107C55.1858 93.0453 55.0843 93.1777 54.9876 93.313L54.7185 93.7359C53.8534 95.1504 53.4072 96.7811 53.4315 98.4389C53.4559 100.097 53.9498 101.714 54.8561 103.102C55.5693 104.189 56.5211 105.099 57.639 105.762L57.8477 105.884C57.9178 105.923 57.991 105.958 58.0619 105.996L58.276 106.107L58.4966 106.207L58.7169 106.306L58.9588 106.408L59.4466 106.613L63.3442 108.245L71.1408 111.512C73.7257 112.592 76.323 113.595 78.9607 114.5C81.596 115.411 84.2672 116.206 86.9572 116.921C89.6472 117.631 92.3591 118.254 95.0899 118.77C97.8212 119.283 100.566 119.7 103.325 120.022C108.831 120.663 114.377 120.908 119.918 120.753C125.444 120.603 130.953 120.057 136.401 119.119C141.833 118.189 147.192 116.871 152.436 115.175C157.666 113.49 162.768 111.431 167.704 109.015C172.626 106.611 177.37 103.856 181.898 100.771L182.742 100.192C183.024 99.9984 183.307 99.8069 183.583 99.6052L185.247 98.4097L186.886 97.1806C187.429 96.768 187.962 96.342 188.5 95.9234C190.64 94.2281 192.717 92.4612 194.731 90.6227C196.747 88.7889 198.684 86.87 200.556 84.8954C202.426 82.9186 204.226 80.8804 205.956 78.7808L207.233 77.1922L207.551 76.7947L207.862 76.3897L208.481 75.5814L209.104 74.7698L209.739 73.9256L211.008 72.2369L212.279 70.5481L212.914 69.7038L213.232 69.2817L213.31 69.1752L213.351 69.1232C213.366 69.1029 213.375 69.0904 213.38 69.0812L213.468 68.9507C213.933 68.2854 214.259 67.5337 214.428 66.74C214.597 65.9462 214.605 65.1267 214.451 64.3299C214.307 63.5426 214.005 62.7926 213.563 62.125C213.349 61.7992 213.105 61.4947 212.833 61.2156C212.561 60.9417 212.262 60.696 211.941 60.4821C211.618 60.2636 211.274 60.0779 210.913 59.9278C209.855 59.4758 208.684 59.3554 207.555 59.5825C206.817 59.7266 206.115 60.0168 205.491 60.436C204.879 60.8451 204.354 61.3716 203.946 61.985C203.896 62.0603 203.851 62.1406 203.801 62.2172L203.665 62.4578L203.161 63.3729L202.14 65.2239L200.833 67.8313L194.792 79.8816L186.473 75.9781C186.381 75.6031 186.272 75.2435 186.159 74.9083V74.9071C186.045 74.5732 185.927 74.2614 185.809 73.9787C185.787 73.9214 185.762 73.8657 185.738 73.8126C185.62 73.5383 185.507 73.2957 185.404 73.0905C185.373 73.028 185.322 72.9783 185.258 72.9501C185.194 72.9219 185.122 72.917 185.055 72.9362L191.04 63.2328L193.054 59.968L194.149 58.1599L194.703 57.2466C194.841 57.0254 194.977 56.8044 195.121 56.5882C195.269 56.3736 195.416 56.1581 195.572 55.9484C196.812 54.2756 198.371 52.8647 200.159 51.7969C201.947 50.7292 203.928 50.0258 205.989 49.7271C208.026 49.4318 210.101 49.5418 212.095 50.0507C214.089 50.5596 215.963 51.4575 217.609 52.6928C218.43 53.3053 219.187 53.9985 219.87 54.762C220.546 55.5252 221.146 56.3527 221.662 57.2327C223.727 60.7588 224.309 64.9607 223.279 68.9155Z" fill="#FCB913"/>
<path d="M207.621 79.0599C207.621 79.0599 202.824 79.0439 200.207 80.257C199.478 80.5937 198.918 81.0249 198.677 81.5797C198.489 81.5746 198.304 81.5304 198.133 81.45L196.443 80.6561L195.872 80.3892L195.656 80.2869L195.567 80.2458L195.268 80.1049L194.792 79.8818L186.473 75.9783C186.381 75.6033 186.272 75.2436 186.159 74.9085V74.9073C186.045 74.5734 185.927 74.2616 185.809 73.9789C185.786 73.9216 185.762 73.8659 185.738 73.8127C185.62 73.5385 185.506 73.2959 185.404 73.0907C185.376 73.035 185.331 72.9894 185.276 72.9603C185.22 72.9312 185.157 72.92 185.095 72.9283C185.033 72.9365 184.976 72.9639 184.93 73.0065C184.884 73.0491 184.853 73.1049 184.84 73.1661C184.828 73.2274 184.815 73.2891 184.801 73.3495C184.699 73.8309 184.589 74.2949 184.475 74.7414C184.452 74.8312 184.429 74.9198 184.406 75.0071L183.919 74.7779L182.204 73.9726C181.955 73.855 181.746 73.6646 181.607 73.4265L181.617 73.3759C181.617 73.3759 181.585 73.3351 181.523 73.2579C180.789 72.3465 175.913 66.4301 172.53 65.8198C172.53 65.8198 175.577 63.6277 182.78 69.5211C184.086 70.5999 185.331 71.7487 186.512 72.9623C186.512 72.9623 192.683 68.2016 194.905 76.965C194.905 76.965 198.499 76.0252 202.025 76.3829C204.201 76.6054 206.354 77.3225 207.621 79.0599Z" fill="#6595F7"/>
<path d="M181.506 82.0605L187.346 86.162L186.743 86.7547L181.506 82.0605Z" fill="#090909"/>
<path d="M83.6808 98.8175L83.4072 98.4925L89.0123 94.6436L83.6808 98.8175Z" fill="#090909"/>
</g>
<defs>
<clipPath id="clip0_1060_1064">
<rect width="200.567" height="200.567" fill="white" transform="translate(48.2432 17.29)"/>
</clipPath>
</defs>
</svg>
