<svg width="304" height="326" viewBox="0 0 304 326" fill="none" xmlns="http://www.w3.org/2000/svg">
<path d="M0 7.89533C0 3.53486 3.53486 0 7.89533 0H295.363C299.723 0 303.258 3.53486 303.258 7.89533V325.904H0V7.89533Z" fill="#4359F1"/>
<path d="M36.4695 249.659V228.983H49.3186V231.346H39.0393V238.257H47.5463V240.621H39.0393V249.659H36.4695ZM57.7974 234.595H58.4768V236.958H57.2657C54.1052 236.958 53.2486 239.587 53.2486 241.979V249.659H50.8264V234.595H52.9236L53.2486 236.869C53.9575 235.717 55.1095 234.595 57.7974 234.595ZM66.6524 249.836C62.2512 249.836 59.1793 246.705 59.1793 242.127C59.1793 237.549 62.2512 234.418 66.6524 234.418C71.0536 234.418 74.1255 237.549 74.1255 242.127C74.1255 246.705 71.0536 249.836 66.6524 249.836ZM66.6524 247.68C69.6357 247.68 71.6443 245.347 71.6443 242.127C71.6443 238.907 69.6357 236.574 66.6524 236.574C63.669 236.574 61.6605 238.907 61.6605 242.127C61.6605 245.347 63.669 247.68 66.6524 247.68ZM93.7102 234.418C96.8413 234.418 99.4111 236.219 99.4111 240.975V249.659H96.989V241.123C96.989 238.169 95.6893 236.633 93.4148 236.633C90.9041 236.633 89.3681 238.523 89.3681 241.595V249.659H86.946V241.123C86.946 238.169 85.6168 236.633 83.3128 236.633C80.8316 236.633 79.3252 238.701 79.3252 241.713V249.659H76.903V234.595H79.0002L79.3252 236.662C80.1227 235.57 81.3928 234.418 83.7263 234.418C85.8236 234.418 87.6254 235.363 88.482 237.283C89.3977 235.658 91.0223 234.418 93.7102 234.418ZM35.9969 278.619L43.0529 278.715C43.2929 281.979 45.8849 284.235 50.0129 284.235C53.3249 284.235 55.7729 282.795 55.7729 280.155C55.7729 277.323 53.0369 276.747 47.4209 275.643C41.7569 274.587 36.7649 272.763 36.7649 265.947C36.7649 259.995 41.7089 255.771 49.2929 255.771C57.2129 255.771 62.2529 259.899 62.3489 266.331H55.2929C54.9569 263.499 52.7969 261.531 49.2929 261.531C46.2209 261.531 44.0129 262.827 44.0129 265.419C44.0129 268.155 46.6529 268.731 52.2209 269.787C57.9809 270.843 63.0689 272.571 63.0209 279.339C62.9729 285.627 57.7889 289.947 49.9169 289.947C41.3729 289.947 36.0449 285.435 35.9969 278.619ZM78.4289 289.947C70.6049 289.947 65.8529 285.099 65.8529 277.323C65.8529 269.691 70.8449 264.699 78.6689 264.699C85.3889 264.699 89.5649 268.347 90.5249 274.203H83.4689C82.8929 271.755 81.2129 270.219 78.5729 270.219C75.0209 270.219 72.7649 273.147 72.7649 277.323C72.7649 281.547 75.0209 284.427 78.5729 284.427C81.2129 284.427 82.9889 282.843 83.4689 280.347H90.5729C89.6129 286.251 85.1489 289.947 78.4289 289.947ZM108.013 264.987H109.165V271.131H106.477C102.445 271.131 100.909 273.819 100.909 277.563V289.659H94.1411V264.987H100.285L100.909 268.683C102.253 266.475 104.173 264.987 108.013 264.987ZM135.099 283.947H135.867V289.659H132.411C128.907 289.659 127.803 287.979 127.851 285.627C126.123 288.363 123.627 289.947 119.787 289.947C114.459 289.947 110.619 287.403 110.619 282.699C110.619 277.467 114.555 274.491 121.947 274.491H126.843V273.291C126.843 271.083 125.259 269.643 122.427 269.643C119.787 269.643 118.011 270.843 117.723 272.667H111.195C111.675 267.867 116.091 264.699 122.619 264.699C129.531 264.699 133.515 267.771 133.515 273.675V282.411C133.515 283.707 134.043 283.947 135.099 283.947ZM126.843 279.483V279.003H121.899C119.067 279.003 117.435 280.155 117.435 282.219C117.435 283.947 118.827 285.051 121.083 285.051C124.635 285.051 126.795 282.843 126.843 279.483ZM140.261 282.603V270.699H136.181V264.987H140.261V258.075H147.029V264.987H152.693V270.699H147.029V281.499C147.029 283.227 147.701 283.947 149.477 283.947H152.837V289.659H147.317C142.613 289.659 140.261 287.307 140.261 282.603ZM167.21 289.947C159.386 289.947 154.634 285.099 154.634 277.323C154.634 269.691 159.626 264.699 167.45 264.699C174.17 264.699 178.346 268.347 179.306 274.203H172.25C171.674 271.755 169.994 270.219 167.354 270.219C163.802 270.219 161.546 273.147 161.546 277.323C161.546 281.547 163.802 284.427 167.354 284.427C169.994 284.427 171.77 282.843 172.25 280.347H179.354C178.394 286.251 173.93 289.947 167.21 289.947ZM196.986 264.699C202.458 264.699 206.97 267.627 206.97 275.979V289.659H200.202V276.555C200.202 272.523 198.57 270.267 195.21 270.267C191.754 270.267 189.69 272.763 189.69 276.987V289.659H182.922V256.059H189.69V268.011C191.274 266.091 193.482 264.699 196.986 264.699Z" fill="white"/>
<g clip-path="url(#clip0_309_5536)">
<path opacity="0.5" d="M165.746 59.7262C168.781 54.4944 176.336 54.4944 179.372 59.7262L258.255 195.686C261.302 200.938 257.513 207.516 251.442 207.516H93.6755C87.6044 207.516 83.8156 200.938 86.8623 195.686L165.746 59.7262Z" fill="#CAD1FD"/>
<path d="M97.8652 66.9C96.7646 56.965 103.952 47.9872 113.887 46.8867C123.822 45.7862 132.799 52.9733 133.9 62.9082C135 72.8431 127.813 81.821 117.878 82.921C107.943 84.021 98.9652 76.8349 97.8652 66.9ZM98.4476 66.8355C99.5126 76.449 108.2 83.404 117.814 82.339C127.427 81.274 134.382 72.5864 133.317 62.9727C132.253 53.359 123.564 46.4042 113.951 47.469C104.337 48.5337 97.3822 57.2218 98.4471 66.8355H98.4476Z" fill="#6595F7"/>
<path d="M110.702 89.2102C120.552 89.2102 128.536 81.2254 128.536 71.3756C128.536 61.5258 120.552 53.541 110.702 53.541C100.852 53.541 92.8672 61.5258 92.8672 71.3756C92.8672 81.2254 100.852 89.2102 110.702 89.2102Z" fill="#D0B3FF"/>
<path d="M107.732 60.9766C110.253 63.3725 113.096 65.4047 116.178 67.0142C116.862 71.3192 118.691 75.3609 121.474 78.7156C117.392 77.1297 112.918 76.8501 108.671 77.9156C106.277 75.4874 103.236 73.7974 99.9102 73.0462C102.518 69.023 105.125 64.9998 107.732 60.9766Z" fill="white"/>
<path d="M121.517 79.1041C121.596 79.0954 121.671 79.0627 121.731 79.0105C121.791 78.9582 121.834 78.8888 121.853 78.8117C121.873 78.7345 121.868 78.6532 121.84 78.5786C121.812 78.5041 121.762 78.4399 121.697 78.3946L111.447 71.298C111.405 71.2688 111.358 71.2482 111.307 71.2373C111.257 71.2265 111.205 71.2256 111.155 71.2348C111.104 71.244 111.056 71.263 111.013 71.2908C110.97 71.3186 110.933 71.3546 110.903 71.3968C110.874 71.439 110.854 71.4866 110.843 71.5367C110.832 71.5869 110.831 71.6387 110.84 71.6892C110.849 71.7397 110.868 71.7879 110.896 71.831C110.924 71.8742 110.96 71.9114 111.002 71.9406L121.252 79.037C121.329 79.0908 121.424 79.1147 121.517 79.1041Z" fill="#131313"/>
<path d="M110.767 72.7663C111.582 72.7663 112.243 72.1055 112.243 71.2904C112.243 70.4752 111.582 69.8145 110.767 69.8145C109.952 69.8145 109.291 70.4752 109.291 71.2904C109.291 72.1055 109.952 72.7663 110.767 72.7663Z" fill="#131313"/>
<path d="M99.9548 73.4346C100.012 73.4284 100.068 73.4093 100.117 73.3789C100.166 73.3485 100.208 73.3075 100.24 73.2588L108.062 61.1893C108.118 61.1024 108.138 60.9965 108.116 60.8952C108.094 60.7938 108.033 60.7052 107.946 60.6488C107.859 60.5924 107.753 60.5729 107.652 60.5946C107.551 60.6162 107.462 60.6772 107.406 60.7642L99.5841 72.8337C99.544 72.8957 99.5223 72.9678 99.5215 73.0417C99.5207 73.1156 99.5409 73.1882 99.5797 73.251C99.6185 73.3139 99.6744 73.3644 99.7408 73.3968C99.8071 73.4292 99.8813 73.4422 99.9548 73.4341V73.4346Z" fill="#131313"/>
<path d="M126.595 144.382H91.4961V179.481H126.595V144.382Z" fill="#131313"/>
<path d="M146.577 164.365H111.479V199.464H146.577V164.365Z" fill="#131313"/>
<path d="M166.562 184.349H131.463V219.448H166.562V184.349Z" fill="#131313"/>
<path d="M220.29 165.846H185.191V200.945H220.29V165.846Z" fill="#131313"/>
<path d="M239.318 144.382H204.219V179.481H239.318V144.382Z" fill="#131313"/>
<path d="M128.556 142.748H93.457V177.847H128.556V142.748Z" fill="#D0B3FF"/>
<path d="M148.538 162.731H113.439V197.83H148.538V162.731Z" fill="#FCB913"/>
<path d="M168.523 182.715H133.424V217.814H168.523V182.715Z" fill="#6595F7"/>
<path d="M222.249 164.212H187.15V199.311H222.249V164.212Z" fill="#1D6DEC"/>
<path d="M241.277 142.748H206.178V177.847H241.277V142.748Z" fill="#FF4655"/>
<path d="M197.064 210.01L194.162 205.442L206.222 202.715L208.777 207.777L197.064 210.01Z" fill="#F59060"/>
<path d="M194.162 205.442L194.907 206.615L206.222 202.715L194.162 205.442Z" fill="#131313"/>
<path d="M203.01 221.059L203.747 222.177L223.361 217.764C223.177 217.361 222.943 216.983 222.667 216.636C222.129 215.967 221.464 215.41 220.71 214.998C219.956 214.586 219.129 214.326 218.274 214.235C217.766 214.186 217.263 214.097 216.769 213.969C211.663 212.646 208.856 207.358 208.856 207.358L197.064 210.01L203.01 221.059Z" fill="#6595F7"/>
<path d="M203.01 221.059L203.747 222.177L223.362 217.764C223.177 217.362 222.943 216.983 222.667 216.637L203.01 221.059Z" fill="#131313"/>
<path d="M206.962 208.961C208.912 211.399 213.851 216.939 216.768 213.968C211.662 212.645 208.856 207.358 208.856 207.358C208.856 207.358 207.649 205.872 206.772 206.731C206.477 207.023 206.378 207.446 206.458 207.897C206.535 208.288 206.708 208.654 206.962 208.961Z" fill="white"/>
<path d="M213.299 215.381C213.277 215.385 213.254 215.384 213.232 215.379C213.21 215.374 213.19 215.364 213.172 215.351C213.142 215.335 213.12 215.308 213.109 215.276C213.099 215.244 213.102 215.209 213.118 215.179C213.647 214.458 215.275 213.454 215.344 213.412C215.377 213.397 215.414 213.394 215.449 213.402C215.483 213.411 215.514 213.431 215.536 213.46C215.548 213.47 215.558 213.484 215.565 213.499C215.571 213.514 215.574 213.53 215.574 213.546C215.573 213.562 215.569 213.578 215.562 213.593C215.554 213.607 215.543 213.62 215.53 213.629C215.514 213.64 213.864 214.655 213.355 215.347C213.341 215.365 213.321 215.377 213.299 215.381Z" fill="#131313"/>
<path d="M209.882 213.614C209.858 213.619 209.832 213.617 209.808 213.611C209.784 213.604 209.762 213.593 209.742 213.577C209.728 213.568 209.715 213.557 209.704 213.543C209.694 213.53 209.686 213.514 209.682 213.498C209.678 213.481 209.677 213.464 209.679 213.447C209.681 213.43 209.687 213.414 209.696 213.399C210.464 212.502 212.938 212.077 213.042 212.059C213.08 212.056 213.118 212.064 213.151 212.083C213.184 212.101 213.21 212.13 213.226 212.164C213.235 212.177 213.24 212.193 213.241 212.209C213.242 212.225 213.239 212.241 213.232 212.255C213.225 212.27 213.215 212.283 213.202 212.292C213.189 212.302 213.174 212.308 213.158 212.31C213.133 212.314 210.659 212.74 209.934 213.585C209.921 213.6 209.902 213.61 209.882 213.614Z" fill="#131313"/>
<path d="M211.052 210.396C211.043 210.398 211.034 210.399 211.025 210.399C211.005 210.399 208.999 210.412 207.697 210.914C207.659 210.924 207.62 210.921 207.584 210.907C207.548 210.893 207.517 210.868 207.496 210.836C207.448 210.768 207.461 210.693 207.524 210.668C208.868 210.148 210.861 210.137 210.945 210.137C210.984 210.138 211.022 210.152 211.053 210.175C211.084 210.198 211.108 210.23 211.121 210.267C211.126 210.28 211.128 210.294 211.128 210.308C211.127 210.322 211.123 210.335 211.117 210.348C211.11 210.36 211.101 210.371 211.09 210.379C211.079 210.387 211.066 210.393 211.052 210.396Z" fill="#131313"/>
<path d="M205.862 208.634C205.829 208.638 205.796 208.634 205.765 208.622C205.734 208.61 205.706 208.59 205.685 208.564C205.627 208.498 205.626 208.416 205.682 208.381C206.265 208.023 208.916 207.64 209.028 207.624C209.068 207.622 209.108 207.632 209.143 207.653C209.177 207.673 209.205 207.704 209.222 207.741C209.231 207.755 209.236 207.771 209.237 207.788C209.238 207.805 209.235 207.822 209.228 207.837C209.221 207.852 209.211 207.866 209.197 207.876C209.184 207.886 209.168 207.892 209.151 207.895C209.124 207.899 206.44 208.286 205.893 208.622C205.884 208.628 205.873 208.632 205.862 208.634Z" fill="#131313"/>
<path d="M208.812 207.921C208.788 207.926 208.773 207.93 208.767 207.931L208.564 207.973L208.552 207.763C208.537 207.493 208.43 205.074 209.408 204.838C209.72 204.759 210.089 204.912 210.506 205.279C210.936 205.66 211.144 206.031 211.124 206.384C211.066 207.372 209.144 207.847 208.812 207.921ZM209.562 205.113L209.555 205.114C208.924 205.267 208.821 206.817 208.835 207.615C209.526 207.438 210.795 206.974 210.833 206.292C210.847 206.034 210.687 205.763 210.344 205.46C210.026 205.18 209.77 205.066 209.561 205.113H209.562Z" fill="#131313"/>
<path d="M210.891 209.339C210.876 209.342 210.86 209.345 210.845 209.347C210.147 209.437 208.752 208.083 208.593 207.927L208.412 207.748L208.621 207.715C208.786 207.689 210.249 207.476 210.916 208.064C211.028 208.159 211.114 208.28 211.168 208.416C211.222 208.553 211.242 208.7 211.227 208.846C211.205 209.128 211.092 209.294 210.891 209.339ZM208.967 207.957C209.531 208.48 210.368 209.129 210.73 209.083C210.777 209.077 210.918 209.058 210.94 208.754C210.954 208.659 210.944 208.562 210.912 208.472C210.879 208.381 210.825 208.301 210.754 208.236C210.37 207.898 209.473 207.907 208.967 207.957V207.957Z" fill="#131313"/>
<path d="M210.497 211.99C210.456 211.997 210.412 211.988 210.377 211.965C210.287 211.91 208.165 210.589 208.563 209.357C208.902 208.31 208.588 207.921 208.584 207.918C208.529 207.853 208.526 207.77 208.579 207.734C208.612 207.717 208.65 207.713 208.687 207.721C208.723 207.728 208.755 207.748 208.779 207.777C208.826 207.827 209.232 208.299 208.842 209.498C208.506 210.53 210.464 211.752 210.484 211.764C210.516 211.78 210.542 211.807 210.556 211.84C210.57 211.873 210.571 211.91 210.56 211.945C210.553 211.956 210.544 211.966 210.534 211.974C210.523 211.982 210.511 211.987 210.497 211.99Z" fill="#131313"/>
<path d="M144.307 138.232L145.459 143.33C146.681 148.732 149.183 153.761 152.756 157.993L194.731 207.713L207.592 203.185L184.839 168.062L201.455 141.823C205.953 134.72 199.609 125.727 191.409 127.581L144.307 138.232ZM169.984 147.89L181.539 145.277L177.261 157.772L169.984 147.89Z" fill="#D0B3FF"/>
<path d="M148.314 137.325L148.004 137.396L148.236 138.423L148.547 138.353L148.314 137.325Z" fill="#131313"/>
<path d="M194.676 202.684L194.918 202.477L196.257 204.038L196.015 204.245L194.676 202.684ZM191.998 199.561L192.24 199.354L193.579 200.916L193.337 201.123L191.998 199.561ZM189.32 196.438L189.562 196.231L190.901 197.793L190.659 198L189.32 196.438ZM186.642 193.316L186.884 193.108L188.223 194.67L187.981 194.877L186.642 193.316ZM183.964 190.193L184.206 189.985L185.545 191.547L185.303 191.754L183.964 190.193ZM181.287 187.07L181.528 186.863L182.867 188.424L182.625 188.631L181.287 187.07ZM178.609 183.947L178.85 183.74L180.189 185.301L179.948 185.508L178.609 183.947ZM175.931 180.824L176.172 180.617L177.511 182.178L177.27 182.386L175.931 180.824ZM173.253 177.701L173.494 177.494L174.833 179.055L174.592 179.263L173.253 177.701ZM170.575 174.578L170.816 174.371L172.155 175.933L171.914 176.14L170.575 174.578ZM167.897 171.455L168.138 171.248L169.477 172.81L169.236 173.017L167.897 171.455ZM165.219 168.333L165.46 168.125L166.799 169.687L166.557 169.894L165.219 168.333ZM162.541 165.21L162.782 165.003L164.122 166.564L163.88 166.771L162.541 165.21ZM159.863 162.087L160.105 161.88L161.443 163.441L161.202 163.648L159.863 162.087ZM157.185 158.964L157.426 158.757L158.766 160.318L158.524 160.526L157.185 158.964ZM154.666 155.693L154.929 155.514C155.311 156.075 155.716 156.633 156.13 157.171L155.878 157.366C155.459 156.822 155.051 156.259 154.665 155.693H154.666ZM152.544 152.149L152.826 152.002C153.141 152.604 153.477 153.206 153.826 153.789L153.553 153.952C153.2 153.364 152.861 152.757 152.544 152.149H152.544ZM150.85 148.382L151.148 148.269C151.39 148.904 151.654 149.54 151.932 150.16L151.642 150.29C151.361 149.665 151.094 149.023 150.85 148.382ZM149.608 144.444L149.917 144.365C150.083 145.024 150.271 145.687 150.475 146.335L150.172 146.431C149.965 145.777 149.776 145.109 149.608 144.444ZM148.689 140.43L149 140.359L149.454 142.366L149.143 142.436L148.689 140.43Z" fill="#131313"/>
<path d="M197.599 205.599L197.357 205.807L198.043 206.606L198.285 206.399L197.599 205.599Z" fill="#131313"/>
<path d="M166.266 142.575L166.01 142.764L184.711 168.157L184.967 167.969L166.266 142.575Z" fill="#131313"/>
<path d="M180.074 161.752L180.533 160.303L180.837 160.399L180.377 161.848L180.074 161.752ZM181.171 158.295L181.808 156.287L182.111 156.383L181.474 158.392L181.171 158.295ZM182.445 154.279L183.083 152.271L183.386 152.367L182.749 154.376L182.445 154.279ZM183.72 150.263L184.358 148.255L184.661 148.351L184.024 150.359L183.72 150.263ZM184.995 146.247L185.624 144.264L185.632 144.24L185.936 144.334L185.298 146.343L184.995 146.247ZM183.885 141.175L183.959 140.865C184.322 140.954 184.664 141.116 184.962 141.341C185.261 141.566 185.511 141.849 185.697 142.173L185.421 142.332C185.257 142.045 185.036 141.795 184.772 141.596C184.508 141.397 184.206 141.254 183.885 141.175ZM167.43 144.317L169.485 143.852L169.555 144.162L167.5 144.627L167.43 144.317ZM171.539 143.387L173.594 142.923L173.665 143.233L171.61 143.698L171.539 143.387ZM175.649 142.458L177.704 141.993L177.774 142.304L175.72 142.768L175.649 142.458ZM179.759 141.529L181.814 141.064L181.884 141.375L179.829 141.839L179.759 141.529Z" fill="#131313"/>
<path d="M195.496 207.54L207.311 204.869L206.632 203.523L195.496 207.54Z" fill="#131313"/>
<path d="M101.358 108.899L99.2404 105.866C99.1181 105.696 98.9709 105.546 98.8037 105.421C97.7564 104.636 93.7706 101.321 90.7008 98.7528C90.6079 98.6752 90.4896 98.6347 90.3686 98.639C90.2476 98.6433 90.1325 98.6922 90.0454 98.7762C89.9582 98.8603 89.9052 98.9736 89.8966 99.0943C89.8879 99.2151 89.9242 99.3348 89.9984 99.4304C90.6853 100.318 92.4675 101.819 92.1556 102.653C92.0391 102.964 91.628 102.869 91.2502 103.458C91.1007 103.729 90.9269 103.986 90.7311 104.226C90.6622 104.317 90.5842 104.401 90.4984 104.477C90.2476 104.679 90.0097 104.682 89.6551 105.063C89.2374 105.512 89.4178 105.669 88.9212 106.23C88.6379 106.55 88.4984 106.59 88.275 106.939C88.1279 107.169 87.9565 107.442 87.9907 107.797C88.0054 107.952 88.0523 108.102 88.1285 108.238C88.2047 108.374 88.3085 108.492 88.4332 108.585L92.4718 111.613C92.918 111.948 94.139 111.815 94.3123 112.344L96.6155 114.637L101.358 108.899Z" fill="#F59060"/>
<path d="M97.196 104.276L97.0679 104.55L96.0175 104.058L95.7737 103.944L95.4587 103.797L94.878 103.525C94.8233 103.498 94.761 103.49 94.7014 103.504C94.6418 103.517 94.5885 103.55 94.5503 103.598C94.5096 103.643 94.4861 103.702 94.4838 103.763C94.4814 103.824 94.5003 103.884 94.5372 103.933L94.5937 104.012L94.9331 104.497L95.2986 105.018L95.9006 105.876L95.8796 105.948C95.8762 105.959 95.5354 107.089 95.9678 107.841C96.0621 108 96.1892 108.137 96.3406 108.243C96.4919 108.349 96.6641 108.422 96.8458 108.456L96.777 108.749C96.5351 108.698 96.3069 108.595 96.107 108.45C95.9433 108.325 95.8062 108.169 95.7035 107.991C95.2699 107.234 95.4946 106.213 95.5689 105.933L95.1071 105.274L94.7416 104.753L94.2868 104.107C94.271 104.084 94.257 104.059 94.2451 104.033C94.1911 103.926 94.172 103.805 94.1904 103.686C94.2088 103.567 94.2639 103.457 94.3478 103.371C94.4318 103.285 94.5405 103.228 94.6587 103.206C94.777 103.185 94.8989 103.201 95.0075 103.253L95.6432 103.551L96.2034 103.812L96.4091 103.908L97.196 104.276Z" fill="#131313"/>
<path d="M92.2727 102.522L92.0703 102.747L95.5201 105.851L95.7225 105.626L92.2727 102.522Z" fill="#131313"/>
<path d="M93.1387 109.506L93.1505 109.204C93.6204 109.222 93.9757 109.105 94.2078 108.856C94.5294 108.51 94.5371 107.997 94.5301 107.829L90.6289 104.339L90.8307 104.113L94.8206 107.683L94.8272 107.74C94.8309 107.773 94.9124 108.541 94.431 109.06C94.1361 109.378 93.7016 109.528 93.1387 109.506Z" fill="#131313"/>
<path d="M91.7673 111.213L91.7123 110.916C92.8534 110.704 92.9808 109.708 92.9939 109.43L88.8516 106.323L89.033 106.081L93.2959 109.277L93.2977 109.351C93.2987 109.367 93.32 110.925 91.7673 111.213Z" fill="#131313"/>
<path d="M94.7475 107.891L94.6074 107.623C95.498 107.158 95.5825 105.906 95.5833 105.894L95.8853 105.911C95.8819 105.969 95.7883 107.348 94.7475 107.891Z" fill="#131313"/>
<path d="M218.615 91.0645C216.826 93.6601 213.616 97.5308 208.033 102.321L203.414 96.5412C203.414 96.5412 206.723 93.9728 208.925 86.5176C209.03 86.1647 209.131 85.8017 209.229 85.4283C209.404 84.7644 209.569 84.0655 209.724 83.3316C209.738 83.2617 209.774 83.1979 209.826 83.1492C209.878 83.1004 209.944 83.0691 210.014 83.0597C210.085 83.0502 210.157 83.0631 210.22 83.0964C210.283 83.1298 210.334 83.182 210.366 83.2457C210.888 84.2952 211.296 85.3974 211.584 86.5335C211.695 86.9798 211.781 87.4317 211.843 87.8873C211.845 87.8952 211.846 87.9034 211.847 87.9115C211.851 87.9432 211.863 87.9733 211.883 87.9985C211.903 88.0236 211.929 88.0431 211.959 88.0547C211.989 88.0663 212.021 88.0697 212.052 88.0645C212.084 88.0594 212.114 88.0458 212.138 88.0252L218.615 91.0645Z" fill="#F59060"/>
<path d="M217.937 89.4199C218.441 89.2178 218.921 88.9581 219.365 88.6459C219.429 88.6003 219.506 88.5777 219.584 88.5819C219.662 88.586 219.736 88.6167 219.794 88.6688C219.852 88.7209 219.891 88.7913 219.904 88.8683C219.916 88.9454 219.902 89.0244 219.864 89.0924C219.69 89.3973 219.484 89.7419 219.24 90.125C219.054 90.4164 218.847 90.7301 218.616 91.0649L212.139 88.0252C212.153 88.0144 212.165 88.0012 212.174 87.986C212.32 87.7601 212.518 87.4509 212.752 87.0812C213.809 85.4061 215.594 82.4644 216.598 80.1991C216.631 80.1263 216.688 80.0671 216.759 80.0317C216.831 79.9963 216.912 79.9869 216.99 80.0052C217.068 80.0234 217.136 80.0682 217.185 80.1317C217.233 80.1952 217.258 80.2736 217.255 80.3533C217.197 81.4552 216.875 83.1205 215.785 85.2873C215.767 85.324 215.763 85.3659 215.774 85.4052C215.784 85.4444 215.809 85.4786 215.843 85.5014C215.876 85.5242 215.917 85.534 215.958 85.5292C215.998 85.5244 216.035 85.5052 216.063 85.4752C216.882 84.5199 218.022 83.1157 218.783 81.8595C218.825 81.7909 218.889 81.7391 218.965 81.7131C219.041 81.6871 219.123 81.6885 219.198 81.7171C219.273 81.7457 219.336 81.7996 219.375 81.8696C219.414 81.9395 219.428 82.0209 219.413 82.0998C219.202 83.2407 218.658 84.8754 217.325 86.7997C217.301 86.8332 217.29 86.8742 217.294 86.9151C217.298 86.956 217.317 86.9939 217.347 87.0219C217.377 87.0499 217.417 87.0661 217.458 87.0674C217.499 87.0686 217.539 87.055 217.571 87.0289C218.306 86.4292 218.989 85.7681 219.612 85.0528C219.664 84.9914 219.736 84.9505 219.816 84.9372C219.895 84.9239 219.977 84.9392 220.046 84.9802C220.116 85.0213 220.168 85.0855 220.195 85.1616C220.222 85.2377 220.221 85.3208 220.192 85.3962C219.801 86.406 219.08 87.7393 217.753 89.1415C217.726 89.1695 217.71 89.2058 217.706 89.2444C217.703 89.283 217.712 89.3217 217.734 89.3541C217.755 89.3864 217.787 89.4106 217.824 89.4226C217.861 89.4345 217.901 89.4336 217.937 89.4199Z" fill="#F59060"/>
<path d="M212.385 99.2496C212.385 99.2496 210.773 101.409 208.332 104.654C208.251 104.761 208.167 104.872 208.084 104.982C206.726 106.785 205.133 108.897 203.428 111.148C203.346 111.257 203.263 111.367 203.179 111.478C200.375 115.176 197.293 119.223 194.482 122.858C194.405 122.957 194.329 123.056 194.253 123.153C194.063 123.399 193.873 123.644 193.685 123.887C193.624 123.966 193.563 124.045 193.502 124.122C192.835 124.981 191.999 125.693 191.045 126.215C190.092 126.736 189.041 127.056 187.958 127.154C186.876 127.252 185.785 127.126 184.753 126.785C183.721 126.443 182.77 125.893 181.96 125.169C181.672 124.912 181.377 124.644 181.075 124.366C177.696 121.235 174.532 117.878 171.606 114.319L177.102 132.721C177.102 132.721 176.173 134.043 174.282 135.738C174.224 135.791 174.163 135.843 174.103 135.896C172.303 137.477 170.309 138.82 168.168 139.893C168.104 139.927 168.039 139.96 167.973 139.991C162.579 142.651 154.747 144.373 144.366 141.458L143.742 139.027L143.671 138.753L140.18 125.152L140.115 124.895L139.572 122.784C139.572 122.784 139.363 123.303 138.966 124.171C138.935 124.238 138.903 124.306 138.87 124.377C137.916 126.435 136.024 130.171 133.436 133.645C133.393 133.703 133.349 133.762 133.306 133.819C132.785 134.508 132.238 135.187 131.666 135.838C131.359 136.189 131.044 136.531 130.722 136.863C129.507 138.115 127.944 138.972 126.235 139.322C124.526 139.672 122.752 139.498 121.143 138.824C121.074 138.795 121.005 138.766 120.937 138.734C120.101 138.357 119.329 137.849 118.652 137.229L118.562 137.147C114.907 133.798 108.451 127.561 103.037 122.288C102.98 122.231 102.921 122.175 102.864 122.12C101.112 120.412 99.474 118.811 98.0829 117.448C98.0242 117.391 97.9669 117.335 97.9098 117.279C95.3906 114.811 93.7207 113.167 93.7207 113.167L101.013 107.458C101.013 107.458 103.925 109.658 107.674 112.516C107.75 112.574 107.828 112.633 107.906 112.693C113.389 116.874 120.537 122.372 123.031 124.495L131.049 108.524L131.906 106.817C132.521 105.592 133.307 104.461 134.241 103.457C134.291 103.403 134.342 103.348 134.394 103.295C135.597 102.039 137.016 101.01 138.584 100.257C139.289 99.918 140.061 99.56 140.892 99.1926C140.93 99.1766 140.967 99.1592 141.005 99.1433C141.092 99.1058 141.178 99.0671 141.264 99.0297C143.875 97.8825 146.55 96.8841 149.274 96.0394C149.403 96.0003 149.533 95.9601 149.662 95.9219C152.831 94.971 156.233 94.2181 159.619 93.9346C160.522 93.8595 161.421 93.819 162.315 93.8131C162.338 93.8131 162.36 93.8131 162.382 93.8131C162.455 93.8131 162.528 93.8131 162.599 93.8145C165.969 93.8617 169.217 95.0878 171.777 97.2799C172.025 97.4908 172.283 97.7128 172.55 97.9418C173.503 98.7601 174.572 99.6861 175.695 100.677C175.754 100.73 175.815 100.783 175.876 100.836C178.588 103.233 181.601 105.981 184.093 108.478C184.204 108.589 184.314 108.701 184.423 108.811C185.279 109.677 186.066 110.508 186.749 111.277L187.699 110.395L187.865 110.242L192.856 105.604L193.045 105.429L202.384 96.7529L202.573 96.5768L205.926 93.4629L212.385 99.2496Z" fill="#6595F7"/>
<path d="M134.394 103.294C134.342 103.347 134.291 103.402 134.241 103.456C135.458 105.283 136.241 107.364 136.53 109.54C136.82 111.716 136.608 113.929 135.911 116.01C135.215 118.092 134.051 119.987 132.51 121.55C130.97 123.113 129.092 124.303 127.02 125.03C124.949 125.756 122.739 126 120.559 125.741C118.38 125.483 116.288 124.73 114.443 123.539C112.599 122.349 111.052 120.753 109.919 118.873C108.786 116.993 108.098 114.879 107.907 112.692C107.828 112.632 107.751 112.573 107.674 112.515C107.839 114.747 108.514 116.912 109.647 118.842C110.781 120.772 112.343 122.416 114.212 123.648C116.082 124.879 118.209 125.664 120.43 125.944C122.651 126.223 124.906 125.988 127.022 125.258C129.139 124.528 131.059 123.322 132.635 121.732C134.211 120.142 135.401 118.212 136.113 116.09C136.825 113.968 137.041 111.711 136.743 109.492C136.445 107.273 135.641 105.153 134.394 103.294Z" fill="white"/>
<path d="M187.865 110.24L187.699 110.393C189.812 111.761 191.53 113.659 192.68 115.898C193.83 118.137 194.372 120.638 194.253 123.152C194.328 123.055 194.404 122.957 194.481 122.857C194.547 120.364 193.974 117.896 192.816 115.687C191.657 113.479 189.953 111.603 187.865 110.24ZM176.641 108.209C173.629 108.889 170.91 110.505 168.874 112.827C166.838 115.148 165.589 118.054 165.307 121.129C165.025 124.204 165.724 127.289 167.304 129.942C168.884 132.595 171.264 134.679 174.102 135.896C174.162 135.842 174.223 135.79 174.281 135.738C170.847 134.295 168.105 131.578 166.632 128.156C165.159 124.735 165.07 120.875 166.383 117.389C167.696 113.903 170.309 111.062 173.673 109.462C177.037 107.862 180.89 107.628 184.423 108.809C184.315 108.699 184.203 108.587 184.092 108.476C181.674 107.74 179.106 107.648 176.641 108.209Z" fill="white"/>
<path d="M152.321 133.009C148.829 133.795 145.75 135.84 143.67 138.753L143.741 139.027C145.123 137.045 146.981 135.443 149.144 134.368C151.308 133.293 153.707 132.78 156.12 132.876C158.534 132.972 160.885 133.674 162.956 134.917C165.028 136.161 166.753 137.905 167.973 139.99C168.038 139.959 168.103 139.927 168.167 139.893C166.597 137.213 164.216 135.102 161.367 133.865C158.519 132.627 155.351 132.328 152.321 133.009Z" fill="white"/>
<path d="M126.951 132.216C125.407 132.567 124.006 133.377 122.932 134.541C121.859 135.704 121.163 137.166 120.938 138.733C121.006 138.765 121.074 138.794 121.143 138.823C121.321 137.503 121.844 136.252 122.658 135.197C123.472 134.142 124.549 133.32 125.781 132.813C127.013 132.306 128.357 132.132 129.678 132.308C130.999 132.485 132.25 133.005 133.306 133.818C133.349 133.761 133.392 133.702 133.436 133.644C132.526 132.944 131.473 132.453 130.352 132.206C129.232 131.959 128.07 131.963 126.951 132.216Z" fill="white"/>
<path d="M154.781 118.306C154.016 118.478 153.32 118.874 152.78 119.443C152.241 120.011 151.882 120.727 151.749 121.499C151.616 122.272 151.715 123.066 152.034 123.783C152.352 124.499 152.876 125.104 153.539 125.523C154.202 125.941 154.974 126.153 155.758 126.133C156.541 126.113 157.301 125.86 157.941 125.408C158.582 124.956 159.073 124.324 159.354 123.592C159.635 122.86 159.693 122.062 159.52 121.297C159.287 120.273 158.657 119.382 157.769 118.822C156.88 118.261 155.806 118.075 154.781 118.306ZM156.481 125.825C155.758 125.988 155.003 125.934 154.311 125.668C153.62 125.403 153.022 124.938 152.595 124.333C152.167 123.728 151.929 123.009 151.909 122.268C151.89 121.528 152.091 120.798 152.486 120.171C152.882 119.545 153.454 119.05 154.131 118.748C154.808 118.447 155.559 118.353 156.29 118.479C157.02 118.605 157.696 118.944 158.234 119.454C158.771 119.964 159.145 120.622 159.308 121.345C159.526 122.314 159.351 123.33 158.821 124.169C158.29 125.009 157.449 125.605 156.481 125.825Z" fill="white"/>
<path d="M100.778 114.71C100.121 114.859 99.5132 115.173 99.0113 115.622C98.5094 116.072 98.1304 116.642 97.9102 117.278C97.9672 117.333 98.0245 117.39 98.0832 117.447C98.276 116.837 98.6217 116.286 99.0874 115.848C99.5532 115.41 100.123 115.098 100.744 114.943C101.364 114.787 102.014 114.793 102.631 114.96C103.249 115.127 103.813 115.45 104.271 115.897C104.728 116.344 105.063 116.9 105.245 117.514C105.426 118.127 105.447 118.777 105.306 119.4C105.165 120.024 104.867 120.602 104.439 121.077C104.012 121.553 103.47 121.912 102.864 122.118C102.921 122.174 102.98 122.23 103.038 122.287C103.979 121.936 104.752 121.24 105.2 120.341C105.648 119.441 105.737 118.405 105.45 117.442C105.163 116.479 104.521 115.662 103.653 115.154C102.786 114.647 101.758 114.488 100.778 114.71Z" fill="white"/>
<path d="M140.631 117.553C139.92 117.713 139.267 118.066 138.745 118.573C138.222 119.08 137.849 119.721 137.667 120.426C137.485 121.132 137.501 121.873 137.713 122.57C137.925 123.267 138.325 123.892 138.87 124.375C138.903 124.304 138.935 124.236 138.966 124.17C138.276 123.535 137.848 122.665 137.767 121.731C137.685 120.797 137.956 119.867 138.526 119.122C139.096 118.377 139.923 117.873 140.846 117.707C141.769 117.541 142.72 117.726 143.513 118.226C144.306 118.726 144.884 119.504 145.133 120.408C145.382 121.312 145.283 122.276 144.858 123.112C144.432 123.947 143.709 124.593 142.832 124.923C141.954 125.252 140.985 125.242 140.114 124.894L140.18 125.15C140.885 125.404 141.648 125.45 142.378 125.284C143.404 125.052 144.295 124.422 144.856 123.533C145.417 122.645 145.602 121.569 145.37 120.544C145.138 119.519 144.509 118.628 143.62 118.067C142.731 117.506 141.656 117.321 140.631 117.553Z" fill="white"/>
<path d="M149.663 95.9209C149.533 95.959 149.403 95.9992 149.274 96.0384C150.854 96.4244 152.268 97.3066 153.309 98.5556C154.351 99.8046 154.964 101.354 155.06 102.978C155.155 104.601 154.728 106.212 153.841 107.575C152.953 108.937 151.652 109.98 150.129 110.548C148.605 111.117 146.94 111.183 145.376 110.735C143.813 110.288 142.434 109.351 141.443 108.062C140.451 106.773 139.899 105.201 139.867 103.575C139.835 101.949 140.324 100.356 141.265 99.029C141.178 99.0663 141.092 99.1051 141.005 99.1425C140.968 99.1584 140.93 99.1758 140.892 99.1919C140.004 100.572 139.572 102.197 139.659 103.836C139.746 105.476 140.347 107.046 141.377 108.324C142.406 109.603 143.812 110.525 145.395 110.959C146.978 111.394 148.658 111.319 150.196 110.746C151.734 110.172 153.052 109.129 153.964 107.764C154.876 106.399 155.335 104.782 155.276 103.141C155.217 101.501 154.643 99.9205 153.636 98.6245C152.628 97.3286 151.238 96.3828 149.663 95.9212V95.9209Z" fill="white"/>
<path d="M202.209 111.533C200.243 111.975 198.182 111.619 196.478 110.544C194.774 109.468 193.566 107.761 193.119 105.796C193.092 105.673 193.067 105.55 193.046 105.427L192.857 105.601C192.873 105.683 192.89 105.763 192.908 105.844C193.367 107.865 194.61 109.621 196.362 110.727C198.115 111.833 200.235 112.199 202.257 111.745C202.57 111.674 202.878 111.584 203.18 111.477C203.263 111.366 203.347 111.257 203.429 111.147C203.034 111.31 202.626 111.439 202.209 111.533ZM202.575 96.5742L202.386 96.7503C204.172 97.1995 205.733 98.2814 206.781 99.7952C207.83 101.309 208.293 103.152 208.085 104.981C208.168 104.87 208.251 104.759 208.333 104.652C208.455 102.847 207.948 101.056 206.898 99.5831C205.848 98.1102 204.32 97.0469 202.574 96.5742H202.575Z" fill="white"/>
<path d="M175.696 100.675C175.413 101.788 174.882 102.822 174.143 103.7C173.404 104.578 172.475 105.278 171.427 105.745C170.379 106.213 169.238 106.438 168.091 106.402C166.943 106.365 165.819 106.07 164.802 105.537C163.785 105.004 162.903 104.248 162.22 103.325C161.537 102.402 161.073 101.337 160.861 100.209C160.649 99.0804 160.695 97.9189 160.996 96.8112C161.298 95.7035 161.846 94.6785 162.6 93.813C162.529 93.8113 162.456 93.8115 162.383 93.8116C162.361 93.8116 162.339 93.8116 162.316 93.8116C161.57 94.7102 161.035 95.7647 160.75 96.8975C160.465 98.0302 160.437 99.2125 160.669 100.357C160.901 101.502 161.387 102.58 162.091 103.513C162.794 104.445 163.698 105.208 164.735 105.745C165.773 106.282 166.917 106.58 168.084 106.617C169.252 106.653 170.413 106.428 171.482 105.956C172.551 105.485 173.5 104.781 174.261 103.894C175.021 103.008 175.574 101.962 175.877 100.834C175.816 100.782 175.755 100.729 175.696 100.675Z" fill="white"/>
<path d="M146.402 96.9903C146.402 96.9903 147.675 100.275 152.939 98.3218C152.939 98.3218 156.84 97.0071 154.983 94.5703C154.983 94.5703 147.174 96.4861 146.402 96.9903Z" fill="white"/>
<path d="M154.441 84.8921C154.458 84.9374 154.473 84.9835 154.489 85.0302C154.572 85.2782 154.647 85.5278 154.71 85.7763C154.724 85.8181 154.734 85.8609 154.745 85.9037C154.779 86.0366 154.809 86.1661 154.835 86.2999C154.899 86.5988 154.953 86.9003 154.986 87.195C155.206 89.07 154.785 90.8565 153.125 92.1332L154.397 95.0714C154.522 95.3592 154.599 95.6658 154.624 95.9787C154.637 96.1544 154.588 96.3291 154.486 96.4725C153.569 97.7638 151.513 98.2906 149.018 98.0649C148.481 98.0183 147.975 97.7971 147.575 97.4351C147.176 97.0731 146.906 96.5903 146.807 96.0605L145.99 91.6183L144.061 91.8987C143.682 91.9602 143.293 91.9172 142.937 91.7742C142.58 91.6312 142.27 91.3937 142.038 91.0873C142.009 91.0487 141.982 91.0086 141.956 90.9671L141.672 90.5122C141.5 90.2382 141.393 89.9286 141.359 89.6071C141.325 89.2856 141.365 88.9605 141.476 88.6566C141.586 88.3528 141.765 88.0781 141.997 87.8535C142.23 87.6289 142.51 87.4603 142.818 87.3605C142.818 87.3605 142.809 87.3344 142.796 87.2864C142.553 86.4685 140.609 79.3529 145.822 78.0101C148.367 77.3504 151.04 78.5009 152.418 80.7393C153.14 81.914 153.923 83.3718 154.441 84.8921Z" fill="#F59060"/>
<path d="M152.873 88.4114C152.913 88.3785 152.946 88.3387 152.971 88.2939C153.351 87.6183 151.977 85.6064 151.697 85.21C151.687 85.1955 151.675 85.1832 151.66 85.1737C151.646 85.1641 151.629 85.1576 151.612 85.1545C151.595 85.1513 151.577 85.1517 151.56 85.1554C151.543 85.1592 151.527 85.1663 151.513 85.1763C151.498 85.1864 151.486 85.1992 151.477 85.214C151.468 85.2288 151.462 85.2453 151.459 85.2625C151.456 85.2797 151.457 85.2974 151.461 85.3143C151.465 85.3313 151.472 85.3473 151.482 85.3614C152.092 86.227 152.973 87.7535 152.741 88.1649C152.726 88.191 152.681 88.2724 152.467 88.2577C152.432 88.2554 152.397 88.267 152.371 88.2899C152.345 88.3128 152.329 88.3453 152.327 88.38C152.324 88.4148 152.336 88.4491 152.359 88.4754C152.382 88.5017 152.414 88.5178 152.449 88.5201C152.599 88.541 152.752 88.502 152.873 88.4114Z" fill="#131313"/>
<path d="M150.068 88.251C150.77 88.0912 151.266 87.6452 151.177 87.2549C151.088 86.8646 150.447 86.6778 149.746 86.8376C149.045 86.9974 148.549 87.4434 148.638 87.8337C148.727 88.224 149.367 88.4108 150.068 88.251Z" fill="#FC6D6D"/>
<path d="M154.711 85.7773C154.724 85.8191 154.735 85.8619 154.746 85.9047C154.78 86.0376 154.81 86.1671 154.836 86.3009C154.9 86.5998 154.954 86.9013 154.987 87.1961V87.197C154.256 87.3877 153.574 87.202 153.483 86.7972C153.394 86.4056 153.89 85.9603 154.591 85.8007C154.631 85.791 154.67 85.7848 154.711 85.7773Z" fill="#FC6D6D"/>
<path d="M153.127 92.1338C153.127 92.1338 151.866 93.0286 149.84 92.3114C149.84 92.3114 151.28 93.7152 153.446 92.8714L153.127 92.1338Z" fill="#131313"/>
<path d="M148.451 84.6422C148.608 84.5169 148.778 84.4089 148.958 84.32C149.135 84.2311 149.322 84.1648 149.516 84.1225C149.701 84.0855 149.892 84.0827 150.079 84.1142C150.259 84.1502 150.43 84.2218 150.582 84.3247L150.6 84.3353C150.624 84.3505 150.65 84.3608 150.678 84.3656C150.706 84.3703 150.735 84.3695 150.762 84.3631C150.79 84.3567 150.816 84.3448 150.839 84.3282C150.862 84.3116 150.881 84.2906 150.896 84.2664C150.911 84.2422 150.921 84.2153 150.925 84.1873C150.929 84.1593 150.928 84.1307 150.921 84.1033C150.914 84.0758 150.902 84.05 150.885 84.0273C150.868 84.0047 150.846 83.9857 150.822 83.9714C150.819 83.9694 150.815 83.9673 150.812 83.9656C150.604 83.8439 150.373 83.7654 150.134 83.7347C149.9 83.7106 149.664 83.7297 149.436 83.7913C149.219 83.8537 149.011 83.9433 148.816 84.0582C148.623 84.1702 148.442 84.3031 148.278 84.4545C148.253 84.4769 148.239 84.508 148.237 84.5413C148.235 84.5745 148.246 84.6072 148.268 84.6324C148.289 84.6575 148.32 84.6731 148.353 84.6758C148.387 84.6786 148.419 84.6682 148.445 84.6469L148.451 84.6422Z" fill="#671E24"/>
<path d="M154.191 83.2637C153.998 83.1747 153.795 83.1079 153.586 83.0647C153.375 83.0191 153.158 83.0023 152.942 83.0147C152.716 83.0311 152.496 83.0921 152.294 83.194C152.091 83.3028 151.912 83.4527 151.769 83.634C151.734 83.6771 151.717 83.7323 151.722 83.7878C151.726 83.8433 151.753 83.8947 151.795 83.9309C151.837 83.9672 151.892 83.9855 151.948 83.9819C152.003 83.9784 152.055 83.9532 152.092 83.9118L152.1 83.9032L152.114 83.8849C152.211 83.7424 152.336 83.6212 152.482 83.5287C152.634 83.4383 152.802 83.3788 152.978 83.3535C153.163 83.3302 153.35 83.3317 153.535 83.358C153.723 83.3834 153.907 83.4296 154.085 83.4957L154.092 83.4983C154.123 83.5115 154.158 83.5118 154.189 83.499C154.221 83.4863 154.246 83.4617 154.259 83.4305C154.272 83.3994 154.272 83.3643 154.26 83.3329C154.247 83.3016 154.222 83.2765 154.191 83.2633V83.2637Z" fill="#671E24"/>
<path d="M150.165 86.2033C150.355 86.1413 150.432 85.8573 150.338 85.569C150.243 85.2807 150.013 85.0972 149.824 85.1592C149.634 85.2212 149.557 85.5052 149.651 85.7935C149.746 86.0818 149.976 86.2653 150.165 86.2033Z" fill="#131313"/>
<path d="M153.533 85.382C153.677 85.3349 153.721 85.0758 153.632 84.8033C153.543 84.5308 153.354 84.3481 153.21 84.3952C153.066 84.4423 153.021 84.7014 153.111 84.9739C153.2 85.2463 153.389 85.4291 153.533 85.382Z" fill="#131313"/>
<path d="M143.181 90.7587C142.731 90.1886 142.564 89.6827 142.684 89.2546C142.852 88.6541 143.543 88.3898 143.55 88.3872L143.451 88.1201C143.417 88.1325 142.619 88.4347 142.41 89.1756C142.263 89.6968 142.448 90.2887 142.958 90.9351L143.181 90.7587Z" fill="#131313"/>
<path d="M142.818 87.3618C143.257 87.3331 143.697 87.3862 144.116 87.5184C144.806 87.7393 144.999 88.0479 145.249 88.0219C145.649 87.9803 146.103 87.0936 146.396 83.5741C147.149 83.6537 150.637 83.9453 152.957 81.6529C153.475 81.1428 153.897 80.5446 154.204 79.8863C155.316 77.4529 154.35 75.0567 154.141 74.54C153.711 73.4867 153.052 72.5426 152.211 71.7764C149.694 75.1112 146.414 77.7934 142.646 79.598C142.2 79.7831 140.74 80.4565 140.066 82.02C139.244 83.9298 139.932 86.3892 141.855 88.0081L142.818 87.3618Z" fill="#671E24"/>
<path d="M144.436 91.8454L146.374 93.7031L145.991 91.6182L144.436 91.8454Z" fill="#671E24"/>
<path d="M152.746 89.6582C152.358 89.7476 151.645 89.8081 150.581 89.5069C150.558 89.5 150.533 89.5003 150.51 89.5078C150.487 89.5153 150.466 89.5295 150.451 89.5488C150.436 89.568 150.428 89.5912 150.426 89.6156C150.424 89.6399 150.43 89.6641 150.443 89.685C150.769 90.2384 151.656 91.3558 152.868 89.8532C152.884 89.8335 152.893 89.8094 152.894 89.7842C152.896 89.759 152.89 89.7339 152.876 89.7125C152.863 89.691 152.843 89.6743 152.82 89.6646C152.797 89.6548 152.771 89.6526 152.746 89.6582Z" fill="#E52039"/>
<path d="M233.783 80.7171L227.816 93.4307C227.718 93.6408 227.579 93.8294 227.407 93.9857C227.236 94.142 227.035 94.263 226.817 94.3418C226.598 94.4206 226.367 94.4556 226.135 94.4449C225.903 94.4341 225.676 94.3778 225.466 94.2792L218.615 91.0634L212.138 88.0248L211.843 87.8869C211.781 87.4313 211.695 86.9794 211.584 86.5331C211.296 85.3969 210.888 84.2948 210.366 83.2453C210.334 83.1816 210.283 83.1294 210.22 83.096C210.157 83.0626 210.085 83.0498 210.014 83.0593C209.943 83.0687 209.877 83.1 209.825 83.1488C209.773 83.1975 209.738 83.2613 209.724 83.3312C209.569 84.0663 209.405 84.7652 209.229 85.4279C209.131 85.8017 209.03 86.1648 208.925 86.5172L205.173 84.7563C204.963 84.6579 204.774 84.5189 204.617 84.3474C204.461 84.1759 204.34 83.9753 204.261 83.7569C204.182 83.5386 204.147 83.3069 204.158 83.075C204.169 82.8431 204.226 82.6157 204.324 82.4056L210.291 69.6905C210.49 69.2665 210.85 68.9389 211.29 68.7798C211.731 68.6207 212.217 68.6431 212.641 68.8421L232.934 78.367C233.145 78.4655 233.333 78.6044 233.49 78.7759C233.646 78.9473 233.767 79.1479 233.846 79.3662C233.925 79.5844 233.96 79.8161 233.949 80.0479C233.938 80.2797 233.882 80.5071 233.783 80.7171Z" fill="#D0B3FF"/>
<path d="M232.134 80.9456L229.295 86.9946L228.925 87.7813L228.492 88.7042L227.224 91.4061L227.222 91.4095L226.938 92.0153C226.851 92.201 226.728 92.3677 226.577 92.5059C226.426 92.6442 226.249 92.7511 226.056 92.8208C225.863 92.8904 225.658 92.9213 225.454 92.9117C225.249 92.9021 225.048 92.8522 224.862 92.7648L222.937 91.8606L222.287 91.5566L222.041 91.4402L221.94 91.3934L221.6 91.2329L221.057 90.9788L211.584 86.5327C211.478 86.1056 211.354 85.696 211.225 85.3143V85.3129C211.096 84.9326 210.961 84.5774 210.827 84.2556C210.801 84.1903 210.773 84.1269 210.746 84.0663C210.611 83.7539 210.482 83.4776 210.366 83.244C210.333 83.1805 210.282 83.1285 210.219 83.0954C210.156 83.0622 210.085 83.0495 210.014 83.0589C209.944 83.0684 209.878 83.0995 209.826 83.1481C209.773 83.1966 209.738 83.2601 209.723 83.3298C209.71 83.3997 209.694 83.4699 209.679 83.5387C209.563 84.0869 209.437 84.6154 209.307 85.124C209.281 85.2262 209.255 85.3271 209.229 85.4265L208.675 85.1655L206.721 84.2484C206.437 84.1144 206.2 83.8976 206.041 83.6264C206.004 83.5648 205.972 83.5007 205.945 83.4344C205.907 83.3417 205.877 83.2455 205.857 83.1472C205.805 82.9017 205.815 82.6473 205.885 82.4065C205.907 82.3264 205.936 82.2484 205.972 82.1732L206.797 80.4158V80.4144L207.153 79.6558L207.378 79.1779L210.708 72.0862L211.168 71.104C211.195 71.0476 211.224 70.9929 211.257 70.9399C211.307 70.8599 211.365 70.7848 211.429 70.7157C211.653 70.4698 211.95 70.3021 212.277 70.2371C212.603 70.1721 212.942 70.2132 213.243 70.3543L214.166 70.7881L216.785 72.0161L218.663 72.8982L219.266 73.1805L223.574 75.2028L224.033 75.4179L227.94 77.2521L228.319 77.4292L229.898 78.1712L230.028 78.2324L230.545 78.4744L231.385 78.869C231.571 78.9561 231.737 79.079 231.875 79.2305C232.013 79.382 232.12 79.5593 232.19 79.7521C232.259 79.945 232.29 80.1496 232.281 80.3544C232.271 80.5592 232.221 80.76 232.134 80.9456Z" fill="white"/>
<path d="M168.461 103.337L168.184 103.42L171.468 114.359L171.745 114.276L168.461 103.337Z" fill="#131313"/>
<path d="M137.276 111.971L136.994 112.035L139.431 122.815L139.714 122.751L137.276 111.971Z" fill="#131313"/>
<path d="M131.666 135.837C131.359 136.188 131.044 136.53 130.722 136.862C129.153 138.481 127.015 139.424 124.761 139.492C122.508 139.561 120.317 138.748 118.652 137.227L118.562 137.145C119.297 136.144 120.234 135.309 121.313 134.694C122.392 134.078 123.587 133.697 124.823 133.573C126.059 133.45 127.306 133.587 128.485 133.977C129.664 134.367 130.748 135.001 131.666 135.837V135.837Z" fill="#D0B3FF"/>
<path d="M193.685 123.886C193.625 123.965 193.564 124.044 193.503 124.122C192.836 124.98 192 125.692 191.046 126.214C190.092 126.735 189.042 127.055 187.959 127.153C186.877 127.251 185.785 127.126 184.754 126.784C183.722 126.443 182.771 125.892 181.961 125.168C181.673 124.911 181.378 124.644 181.076 124.365C181.868 123.499 182.825 122.798 183.89 122.304C184.955 121.811 186.107 121.533 187.281 121.489C188.454 121.444 189.624 121.633 190.724 122.045C191.823 122.456 192.83 123.082 193.685 123.886Z" fill="#D0B3FF"/>
<path d="M172.551 97.9402C171.465 98.6337 170.241 99.082 168.964 99.254C167.687 99.426 166.388 99.3175 165.157 98.9361C163.926 98.5547 162.793 97.9095 161.837 97.0455C160.881 96.1815 160.125 95.1194 159.621 93.9333C160.546 93.8563 161.468 93.814 162.384 93.8115C165.829 93.8076 169.162 95.0374 171.779 97.2783C172.027 97.4892 172.284 97.7113 172.551 97.9402Z" fill="#D0B3FF"/>
<path d="M141.006 99.1416C141.091 100.446 140.887 101.753 140.408 102.969C139.93 104.185 139.188 105.281 138.237 106.177C137.285 107.073 136.148 107.748 134.905 108.154C133.663 108.559 132.346 108.685 131.049 108.522L131.906 106.815C133.345 103.95 135.694 101.643 138.585 100.255C139.322 99.9021 140.133 99.5259 141.006 99.1416Z" fill="#D0B3FF"/>
<path d="M123.13 124.387L122.934 124.6L125.287 126.783L125.484 126.571L123.13 124.387Z" fill="#131313"/>
<path d="M186.843 111.166L186.654 111.385L190.151 114.408L190.34 114.19L186.843 111.166Z" fill="#131313"/>
<path d="M100.464 100.677L100.638 103.661L96.4104 103.906L95.7748 103.943L95.4599 103.796L94.8791 103.524C94.8244 103.497 94.7621 103.489 94.7025 103.503C94.6429 103.516 94.5896 103.549 94.5514 103.597C94.5108 103.642 94.4873 103.701 94.4849 103.762C94.4825 103.823 94.5014 103.883 94.5383 103.932L94.5948 104.011L94.2466 104.032L86.6194 104.475L86.4453 101.491L100.464 100.677Z" fill="#D0B3FF"/>
<path d="M86.4455 101.491L83.3027 103.171L86.6187 104.475L86.4455 101.491Z" fill="#D0B3FF"/>
<path d="M211.258 70.9422C211.276 73.8174 211.21 77.0351 211.047 80.4377C210.986 81.7393 210.912 83.0154 210.828 84.2567C210.664 83.868 210.505 83.5258 210.366 83.2455C210.334 83.1817 210.283 83.1295 210.22 83.0962C210.157 83.0628 210.085 83.05 210.015 83.0594C209.944 83.0689 209.878 83.1002 209.826 83.1489C209.774 83.1977 209.738 83.2615 209.724 83.3314C209.57 84.0665 209.405 84.7654 209.23 85.4281L206.722 84.2506C206.502 84.1472 206.309 83.9938 206.159 83.8026C206.009 83.6115 205.906 83.3878 205.857 83.1496C205.866 82.9043 205.876 82.6573 205.886 82.4088C205.907 81.8669 205.931 81.3197 205.957 80.767C206.544 68.458 208.159 58.4062 209.564 58.3141C210.581 58.2487 211.209 63.4157 211.258 70.9422Z" fill="#FF4655"/>
<path d="M218.664 72.9006C218.523 73.5896 218.378 74.2851 218.228 74.987C217.794 77.0299 217.351 79.0214 216.908 80.9402C216.314 83.506 215.716 85.9418 215.131 88.1969L214.884 88.0807L212.752 87.081L211.585 86.5328C211.48 86.1057 211.356 85.6961 211.227 85.3144V85.313C211.799 82.098 212.482 78.5955 213.261 74.9303C213.56 73.5232 213.862 72.1431 214.167 70.7899C217.249 57.1219 220.513 46.6392 221.761 46.6524C223.072 46.6678 221.687 58.2403 218.664 72.9006Z" fill="#FF4655"/>
<path d="M224.904 71.1048C224.46 72.4943 224.017 73.8609 223.574 75.2048C222.834 77.4577 222.099 79.6371 221.378 81.7196C220.379 84.6142 219.409 87.3193 218.494 89.7754L218.247 89.6592L215.13 88.1972L214.883 88.0811C215.485 85.8621 216.164 83.4687 216.907 80.9411C217.633 78.4703 218.422 75.8709 219.265 73.1837C219.56 72.2419 219.861 71.2897 220.168 70.3271C225.981 52.142 231.754 37.5749 233.062 37.7895C234.37 38.004 230.717 52.921 224.904 71.1048Z" fill="#FF4655"/>
<path d="M228.329 77.4081C228.327 77.416 228.322 77.423 228.32 77.4311C226.104 82.5767 223.915 87.3514 221.942 91.3931L219.24 90.1245L218.495 89.7752L218.248 89.659C219.171 87.2105 220.222 84.5386 221.379 81.7194C222.149 79.8406 222.968 77.8948 223.824 75.9063C223.894 75.7437 223.964 75.5809 224.034 75.4197C230.462 60.5412 236.621 48.8879 237.853 49.2976C239.097 49.7122 234.834 62.2971 228.329 77.4081Z" fill="#FF4655"/>
<path d="M231.358 84.9413C229.952 87.2203 228.56 89.3939 227.224 91.4094C226.945 91.8286 226.669 92.2416 226.396 92.6484C226.172 92.7983 225.914 92.8878 225.645 92.9082C225.377 92.9286 225.108 92.8791 224.864 92.7647L222.043 91.4401C223.486 88.8516 225.152 86.0124 226.975 83.0545C228.005 81.3837 229.029 79.7703 230.029 78.2343C235.767 69.4114 240.717 63.1595 241.748 63.6043C242.959 64.1257 238.307 73.6775 231.358 84.9413Z" fill="#FF4655"/>
<path d="M214.626 77.6117C215.976 75.4142 215.386 72.4078 215.271 71.9637C214.943 70.6992 214.319 69.4026 214.418 68.0862C214.481 67.2439 214.972 66.5503 215.837 65.1225C216.872 63.4126 217.091 63.511 217.357 62.6659C217.742 61.4389 217.749 59.7312 217.171 58.1321C216.7 56.7852 215.807 55.6263 214.624 54.8281C212.323 53.252 209.814 54.0485 208.308 55.6417C207.858 56.1174 206.217 57.8535 206.388 60.6316C206.563 63.4837 208.524 64.8975 208.192 67.3454C208.155 67.6167 208.129 67.6139 207.337 69.4262C205.604 73.3873 205.531 73.853 205.531 74.3447C205.531 76.2269 206.588 77.6562 206.889 78.0365C207.275 78.5233 208.248 79.5957 209.71 79.9193C211.704 80.3604 213.663 79.1806 214.626 77.6117Z" fill="#1D6DEC"/>
<path d="M192.618 67.511C193.327 70.6612 195.912 72.6501 196.292 72.905C197.345 73.6114 198.572 74.088 199.29 75.0987C199.734 75.7242 199.812 76.5465 200.057 78.0813C200.337 79.835 200.151 79.9303 200.436 80.5962C200.889 81.6283 201.723 82.4458 202.764 82.8784C203.677 83.2327 204.689 83.2376 205.605 82.8924C207.462 82.2423 208.522 80.3237 208.765 78.5568C208.839 78.0146 209.119 75.9756 207.936 74.3825C206.624 72.6143 204.754 73.0213 203.758 71.0073C203.643 70.7749 203.661 70.7578 203.236 68.7334C202.213 63.8722 201.989 63.366 201.692 62.8865C200.905 61.6092 199.679 60.6631 198.243 60.2258C197.592 60.0347 196.019 59.7152 194.598 60.6957C192.636 62.0474 192.075 65.1014 192.618 67.511Z" fill="#1D6DEC"/>
<path d="M209.308 85.1251C209.282 85.2273 209.256 85.3282 209.229 85.4276L208.675 85.1666C208.132 83.5518 207.505 81.9664 206.797 80.417V80.4157C204.996 76.4898 202.279 72.0989 198.512 69.7851L198.823 69.1035C202.596 71.4459 205.325 75.7475 207.154 79.657C207.982 81.4345 208.701 83.2605 209.308 85.1251Z" fill="#131313"/>
<path d="M211.493 67.3346C211.493 67.3869 211.478 68.7183 211.429 70.7181C211.343 74.2148 211.152 79.7554 210.746 84.0676C210.612 83.7552 210.483 83.4789 210.366 83.2452C210.335 83.1819 210.285 83.13 210.223 83.0967C210.498 79.526 210.638 75.2756 210.708 72.0883C210.768 69.3482 210.776 67.3925 210.777 67.3301L211.493 67.3346Z" fill="#131313"/>
<path d="M222.62 82.3935C222.896 79.8295 225.2 77.8109 225.563 77.53C226.596 76.7299 227.882 76.0855 228.609 74.9833C229.074 74.2784 229.11 73.429 229.298 71.7708C229.525 69.7849 229.291 69.7283 229.598 68.8976C230.043 67.6913 231.081 66.3351 232.517 65.4235C233.713 64.6455 235.128 64.2746 236.552 64.3662C239.336 64.5258 240.835 66.6905 241.053 68.8721C241.118 69.5234 241.355 71.9004 239.521 73.9944C237.639 76.1442 235.222 76.0639 233.989 78.2041C233.852 78.4413 233.874 78.4549 233.393 80.3738C232.343 84.5677 232.115 84.9805 231.814 85.3696C230.663 86.8587 228.953 87.3441 228.482 87.4607C227.879 87.6097 226.453 87.8631 225.098 87.2257C223.252 86.3555 222.423 84.224 222.62 82.3935Z" fill="#1D6DEC"/>
<path d="M246.213 87.8591C243.726 89.9182 240.464 89.9116 240.008 89.881C238.743 89.7966 237.48 89.4229 236.294 89.7836C235.56 90.0067 234.996 90.6104 233.864 91.6752C232.57 92.8917 232.659 93.081 232.027 93.4341C231.037 93.9735 229.877 94.1105 228.789 93.8165C227.85 93.5385 227.046 92.9239 226.532 92.0904C225.46 90.4406 225.794 88.2741 226.683 86.7275C226.955 86.2529 227.981 84.4685 229.891 83.9309C232.011 83.3344 233.241 84.7993 235.26 83.815C235.494 83.7013 235.49 83.6767 237.065 82.3351C240.846 79.1136 241.333 78.8499 241.861 78.652C243.265 78.1226 244.814 78.1238 246.217 78.6554C246.849 78.9022 248.289 79.6113 248.814 81.2556C249.539 83.5245 248.116 86.2843 246.213 87.8591Z" fill="#1D6DEC"/>
<path d="M231.955 76.612C231.929 76.6444 231.389 77.3511 230.546 78.4764C228.357 81.395 224.134 87.1305 221.601 91.2328L221.059 90.9787C223.569 86.8492 227.698 81.1509 229.899 78.1737C230.785 76.9719 231.358 76.2132 231.385 76.1777L231.955 76.612Z" fill="#131313"/>
<path d="M240.329 85.3244L240.158 86.0554C236.279 85.6377 232.06 87.0007 228.493 88.7051C226.573 89.6314 224.718 90.6858 222.939 91.8612L222.289 91.5572C224.396 90.1212 226.616 88.8587 228.927 87.7823C232.44 86.1692 236.522 84.9346 240.329 85.3244Z" fill="#131313"/>
<path d="M209.23 85.4276L208.676 85.1665L209.68 83.5391C209.564 84.0873 209.438 84.6158 209.308 85.1244C209.283 85.2274 209.256 85.3285 209.23 85.4276Z" fill="#FCB913"/>
<path d="M253.503 78.4892C252.921 80.7032 251.904 82.7789 250.51 84.5953L250.252 84.9296L250.196 85.0017L250.148 85.0599L250.053 85.1764L249.672 85.6423L248.909 86.5743L247.385 88.4363L245.861 90.2985L245.099 91.2303L244.305 92.1844L243.506 93.1421L243.106 93.6199L242.697 94.0905L241.058 95.9667C238.844 98.4447 236.547 100.841 234.166 103.156C231.787 105.468 229.335 107.705 226.794 109.833C224.256 111.966 221.649 114.006 218.972 115.954C218.298 116.435 217.631 116.924 216.953 117.396L214.909 118.802L212.837 120.167C212.494 120.396 212.143 120.614 211.794 120.834L210.744 121.493C205.14 124.984 199.293 128.067 193.246 130.72C187.221 133.371 181.012 135.585 174.67 137.347C168.347 139.11 161.906 140.417 155.396 141.26C148.905 142.107 142.362 142.487 135.817 142.397C129.29 142.313 122.778 141.758 116.331 140.738C113.112 140.23 109.917 139.61 106.745 138.878C103.577 138.144 100.439 137.287 97.3355 136.33C94.2328 135.369 91.1614 134.314 88.1403 133.131C85.1207 131.954 82.139 130.661 79.215 129.296L70.494 125.215L66.1343 123.175L65.5901 122.92L65.316 122.791L65.0234 122.646L64.7322 122.499L64.4477 122.337C64.3538 122.282 64.2587 122.23 64.1659 122.173L63.8918 121.997C62.4306 121.048 61.2051 119.779 60.3084 118.285C59.8675 117.545 59.5104 116.757 59.2435 115.938C58.711 114.304 58.5529 112.571 58.781 110.868C59.0129 109.179 59.6262 107.566 60.5744 106.15L60.9364 105.632C61.0662 105.464 61.2018 105.303 61.3336 105.138C61.462 104.971 61.6125 104.823 61.7556 104.669C61.8959 104.512 62.0443 104.363 62.2003 104.221C62.8081 103.641 63.4824 103.135 64.2093 102.714C64.5691 102.501 64.9405 102.308 65.3216 102.136L65.9013 101.898C66.0944 101.82 66.2954 101.765 66.4921 101.696C66.5918 101.665 66.6888 101.628 66.7897 101.603L67.0929 101.527C67.2955 101.478 67.4956 101.418 67.701 101.388C67.9067 101.353 68.1112 101.313 68.3163 101.281L68.9351 101.217C69.7614 101.155 70.5919 101.182 71.4126 101.296L73.7931 101.655L83.3121 103.099L83.2924 103.241L73.7236 102.189L71.3328 101.928C70.5595 101.852 69.7803 101.859 69.0083 101.948L68.434 102.032C68.2437 102.069 68.0565 102.114 67.8669 102.154C67.6776 102.189 67.4946 102.253 67.3078 102.306L67.0311 102.387C66.9397 102.415 66.8502 102.453 66.7596 102.486C66.5797 102.556 66.3958 102.616 66.2209 102.695L65.6954 102.935C65.3524 103.107 65.0192 103.299 64.6974 103.508C64.0505 103.919 63.4548 104.405 62.9229 104.957C62.7864 105.09 62.6572 105.231 62.536 105.378C62.4132 105.523 62.2812 105.661 62.1726 105.818C62.0589 105.971 61.9433 106.122 61.8332 106.276L61.5267 106.758C60.5415 108.368 60.0332 110.226 60.0609 112.114C60.0887 114.002 60.6512 115.844 61.6834 117.425C62.4957 118.663 63.5797 119.699 64.8529 120.454L65.0906 120.593C65.1704 120.637 65.2538 120.678 65.3346 120.72L65.5784 120.848L65.8297 120.961L66.0805 121.074L66.356 121.19L66.9116 121.423L71.3506 123.282L80.2303 127.002C83.1743 128.233 86.1324 129.375 89.1365 130.406C92.1378 131.444 95.1801 132.349 98.2437 133.164C101.307 133.972 104.396 134.681 107.506 135.269C110.617 135.853 113.743 136.329 116.885 136.695C123.156 137.425 129.472 137.704 135.784 137.528C142.077 137.357 148.351 136.735 154.556 135.666C160.743 134.608 166.846 133.107 172.819 131.175C178.775 129.255 184.586 126.911 190.207 124.159C195.814 121.421 201.216 118.283 206.373 114.77L207.335 114.111C207.656 113.89 207.977 113.672 208.292 113.442L210.187 112.081L212.053 110.681C212.673 110.211 213.279 109.726 213.893 109.249C216.329 107.318 218.695 105.306 220.989 103.212C223.285 101.123 225.491 98.9379 227.623 96.689C229.753 94.4376 231.803 92.1162 233.774 89.7249L235.228 87.9156L235.59 87.4629L235.944 87.0016L236.649 86.0812L237.358 85.1567L238.081 84.1952L239.527 82.272L240.975 80.3487L241.698 79.387L242.059 78.9063L242.149 78.785L242.195 78.7258C242.212 78.7027 242.222 78.6884 242.229 78.678L242.329 78.5293C242.858 77.7716 243.23 76.9155 243.422 76.0115C243.614 75.1075 243.623 74.1741 243.449 73.2666C243.284 72.3699 242.94 71.5158 242.437 70.7555C242.193 70.3844 241.915 70.0376 241.605 69.7197C241.296 69.4078 240.956 69.1279 240.59 68.8843C240.222 68.6355 239.829 68.424 239.419 68.2531C238.213 67.7383 236.88 67.6011 235.595 67.8598C234.754 68.0239 233.955 68.3544 233.244 68.8318C232.546 69.2977 231.948 69.8973 231.484 70.5959C231.426 70.6817 231.376 70.7732 231.318 70.8604L231.164 71.1345L230.589 72.1767L229.427 74.2849L227.939 77.2544L221.058 90.9786L211.584 86.5329C211.479 86.1058 211.355 85.6962 211.226 85.3145V85.3131C211.097 84.9329 210.961 84.5777 210.828 84.2558C210.802 84.1906 210.774 84.1271 210.747 84.0665C210.612 83.7542 210.483 83.4779 210.366 83.2442C210.331 83.173 210.272 83.1164 210.2 83.0842C210.127 83.0521 210.046 83.0466 209.969 83.0685L216.785 72.0172L219.079 68.2987L220.326 66.2395L220.957 65.1993C221.114 64.9474 221.269 64.6957 221.433 64.4495C221.602 64.2051 221.769 63.9597 221.946 63.7208C223.359 61.8156 225.134 60.2087 227.171 58.9927C229.207 57.7766 231.464 56.9755 233.811 56.6353C236.131 56.299 238.494 56.4242 240.765 57.0039C243.036 57.5835 245.171 58.6061 247.045 60.0129C247.98 60.7106 248.842 61.5001 249.619 62.3697C250.39 63.2388 251.073 64.1813 251.66 65.1835C254.013 69.1995 254.676 73.9851 253.503 78.4892Z" fill="#FCB913"/>
<path d="M235.67 90.0434C235.67 90.0434 230.207 90.0251 227.226 91.4068C226.396 91.7903 225.758 92.2814 225.484 92.9133C225.27 92.9074 225.059 92.8571 224.865 92.7655L222.939 91.8613L222.289 91.5573L222.043 91.4409L221.942 91.394L221.602 91.2336L221.059 90.9795L211.585 86.5337C211.48 86.1066 211.356 85.697 211.227 85.3154V85.3139C211.097 84.9337 210.962 84.5785 210.829 84.2566C210.803 84.1914 210.775 84.1279 210.748 84.0674C210.613 83.755 210.484 83.4787 210.367 83.245C210.335 83.1815 210.284 83.1296 210.221 83.0965C210.158 83.0633 210.086 83.0506 210.016 83.06C209.945 83.0694 209.879 83.1006 209.827 83.1491C209.775 83.1977 209.739 83.2612 209.725 83.3309C209.711 83.4007 209.696 83.471 209.68 83.5398C209.564 84.088 209.439 84.6165 209.309 85.125C209.283 85.2273 209.257 85.3281 209.231 85.4276L208.676 85.1665L206.723 84.2494C206.439 84.1154 206.201 83.8986 206.042 83.6275L206.055 83.5698C206.055 83.5698 206.017 83.5233 205.947 83.4355C205.112 82.3975 199.557 75.6591 195.705 74.964C195.705 74.964 199.175 72.4675 207.379 79.1795C208.866 80.4082 210.285 81.7165 211.63 83.0988C211.63 83.0988 218.657 77.6767 221.188 87.6575C221.188 87.6575 225.281 86.5871 229.297 86.9945C231.776 87.248 234.227 88.0647 235.67 90.0434Z" fill="#6595F7"/>
<path d="M205.926 93.4609L212.577 98.1321L211.891 98.8072L205.926 93.4609Z" fill="#131313"/>
<path d="M94.5127 112.545L94.2012 112.175L100.585 107.791L94.5127 112.545Z" fill="#131313"/>
</g>
<defs>
<clipPath id="clip0_309_5536">
<rect width="228.428" height="228.428" fill="white" transform="translate(54.1523 19.6924)"/>
</clipPath>
</defs>
</svg>
