<svg width="260" height="248" viewBox="0 0 260 248" fill="none" xmlns="http://www.w3.org/2000/svg">
<path d="M17.568 35.288C7.584 35.288 1.536 28.52 1.536 18.2C1.536 7.88 7.824 1.112 18 1.112C25.968 1.112 31.584 6.104 32.448 13.4H25.152C24.288 9.656 21.6 7.208 17.616 7.208C12.144 7.208 8.88 11.72 8.88 18.2C8.88 24.632 12.096 29.192 17.52 29.192C21.6 29.192 24.288 26.744 25.152 23H32.4C31.584 30.296 25.776 35.288 17.568 35.288ZM48.0094 35.288C40.1374 35.288 35.0014 30.248 35.0014 22.664C35.0014 15.08 40.1374 10.04 48.0094 10.04C55.8814 10.04 61.0174 15.08 61.0174 22.664C61.0174 30.296 55.8814 35.288 48.0094 35.288ZM48.0094 29.768C51.8014 29.768 54.1534 26.84 54.1534 22.664C54.1534 18.488 51.8014 15.56 48.0094 15.56C44.2174 15.56 41.9134 18.488 41.9134 22.664C41.9134 26.84 44.2174 29.768 48.0094 29.768ZM94.2626 10.04C99.3506 10.04 103.383 12.92 103.383 20.84V35H96.6146V21.224C96.6146 17.528 95.2706 15.608 92.3426 15.608C89.4146 15.608 87.4466 17.768 87.4466 21.512V35H80.6786V21.224C80.6786 17.528 79.3346 15.608 76.3586 15.608C73.4306 15.608 71.5106 17.864 71.5106 21.56V35H64.7426V10.328H70.6466L71.2706 13.4C72.7586 11.48 74.9186 10.088 78.5186 10.04C81.5426 9.992 84.3746 11.096 85.9106 14.216C87.6386 11.576 90.5186 10.04 94.2626 10.04ZM137.153 10.04C142.241 10.04 146.273 12.92 146.273 20.84V35H139.505V21.224C139.505 17.528 138.161 15.608 135.233 15.608C132.305 15.608 130.337 17.768 130.337 21.512V35H123.569V21.224C123.569 17.528 122.225 15.608 119.249 15.608C116.321 15.608 114.401 17.864 114.401 21.56V35H107.633V10.328H113.537L114.161 13.4C115.649 11.48 117.809 10.088 121.409 10.04C124.433 9.992 127.265 11.096 128.801 14.216C130.529 11.576 133.409 10.04 137.153 10.04ZM166.988 22.664V10.328H173.756V35H167.756L167.132 32.024C165.548 33.944 163.388 35.288 159.884 35.288C154.796 35.288 150.092 32.744 150.092 24.008V10.328H156.86V23.096C156.86 27.512 158.3 29.672 161.66 29.672C165.02 29.672 166.988 27.224 166.988 22.664ZM192.621 10.04C197.949 10.04 202.509 12.872 202.509 21.32V35H195.741V21.992C195.741 17.816 194.157 15.608 190.749 15.608C187.245 15.608 185.229 18.104 185.229 22.376V35H178.461V10.328H184.365L184.989 13.4C186.573 11.48 188.829 10.04 192.621 10.04ZM210.182 7.688C207.974 7.688 206.246 6.056 206.246 3.896C206.246 1.688 207.974 0.0559978 210.182 0.0559978C212.39 0.0559978 214.118 1.688 214.118 3.896C214.118 6.056 212.39 7.688 210.182 7.688ZM206.774 35V10.328H213.59V35H206.774ZM220.034 27.944V16.04H215.954V10.328H220.034V3.416H226.802V10.328H232.466V16.04H226.802V26.84C226.802 28.568 227.474 29.288 229.25 29.288H232.61V35H227.09C222.386 35 220.034 32.648 220.034 27.944ZM242.847 35.144L233.343 10.328H240.543L246.543 27.896L252.399 10.328H259.647L248.703 38.504C247.167 42.584 245.919 44.6 242.079 44.6H235.503V38.888H239.247C240.975 38.888 241.551 38.456 242.223 36.776L242.847 35.144ZM2.77658 60.0714V51.1509H0.0590762V48.9356H2.77658V44.7116H5.19871V48.9356H9.09774V51.1509H5.19871V60.0419C5.19871 61.312 5.64178 61.7846 6.94146 61.7846H9.33404V64H6.70515C3.81042 64 2.77658 62.7299 2.77658 60.0714ZM17.9993 64.1772C13.48 64.1772 10.5262 61.0757 10.5262 56.4678C10.5262 51.8894 13.4209 48.7583 17.6744 48.7583C21.9279 48.7583 24.7045 51.4463 24.8226 55.9066C24.8226 56.2315 24.7931 56.5859 24.7635 56.9404H13.0665V57.1472C13.1551 60.0124 14.9569 62.0209 17.8221 62.0209C19.9488 62.0209 21.603 60.8985 22.1051 58.949H24.5568C23.966 61.9619 21.4848 64.1772 17.9993 64.1772ZM13.2141 54.9318H22.2233C21.987 52.3324 20.2147 50.8851 17.7039 50.8851C15.4886 50.8851 13.4505 52.4801 13.2141 54.9318ZM44.3937 48.7583C47.5247 48.7583 50.0945 50.5602 50.0945 55.3158V64H47.6724V55.4635C47.6724 52.5097 46.3727 50.9737 44.0983 50.9737C41.5876 50.9737 40.0516 52.8641 40.0516 55.9361V64H37.6295V55.4635C37.6295 52.5097 36.3003 50.9737 33.9963 50.9737C31.5151 50.9737 30.0086 53.0414 30.0086 56.0542V64H27.5865V48.9356H29.6837L30.0086 51.0032C30.8062 49.9103 32.0763 48.7583 34.4098 48.7583C36.507 48.7583 38.3088 49.7036 39.1655 51.6235C40.0811 49.9989 41.7057 48.7583 44.3937 48.7583ZM60.7929 48.7583C64.9578 48.7583 68.0297 51.5645 68.0297 56.4678C68.0297 61.0757 64.9578 64.1772 60.7929 64.1772C58.2526 64.1772 56.5394 63.1434 55.6237 61.696V69.9076H53.2016V48.9356H55.2988L55.6237 51.3577C56.628 49.9694 58.2526 48.7583 60.7929 48.7583ZM60.5566 62.0209C63.5399 62.0209 65.5485 59.7465 65.5485 56.4678C65.5485 53.1891 63.5399 50.9146 60.5566 50.9146C57.6028 50.9146 55.5942 53.1891 55.5942 56.4087C55.5942 59.717 57.6028 62.0209 60.5566 62.0209ZM70.7975 64V43.3233H73.2197V64H70.7975ZM89.8595 61.7846H90.6275V64H89.2983C87.2897 64 86.6103 63.1434 86.5808 61.6665C85.6356 63.0252 84.1291 64.1772 81.5298 64.1772C78.2215 64.1772 75.9766 62.5231 75.9766 59.7761C75.9766 56.7632 78.0738 55.0795 82.0319 55.0795H86.4627V54.0457C86.4627 52.0961 85.0744 50.9146 82.7113 50.9146C80.5846 50.9146 79.1667 51.9189 78.8714 53.4549H76.4492C76.8037 50.5011 79.1963 48.7583 82.8295 48.7583C86.6694 48.7583 88.8848 50.6783 88.8848 54.1933V60.7803C88.8848 61.5779 89.1802 61.7846 89.8595 61.7846ZM86.4627 57.8561V57.1176H81.7956C79.6393 57.1176 78.4283 57.9151 78.4283 59.6284C78.4283 61.1053 79.6984 62.1096 81.707 62.1096C84.7199 62.1096 86.4627 60.3668 86.4627 57.8561ZM93.612 60.0714V51.1509H90.8945V48.9356H93.612V44.7116H96.0341V48.9356H99.9332V51.1509H96.0341V60.0419C96.0341 61.312 96.4772 61.7846 97.7769 61.7846H100.169V64H97.5406C94.6459 64 93.612 62.7299 93.612 60.0714ZM108.835 64.1772C104.315 64.1772 101.362 61.0757 101.362 56.4678C101.362 51.8894 104.256 48.7583 108.51 48.7583C112.763 48.7583 115.54 51.4463 115.658 55.9066C115.658 56.2315 115.629 56.5859 115.599 56.9404H103.902V57.1472C103.991 60.0124 105.792 62.0209 108.658 62.0209C110.784 62.0209 112.438 60.8985 112.941 58.949H115.392C114.801 61.9619 112.32 64.1772 108.835 64.1772ZM104.05 54.9318H113.059C112.822 52.3324 111.05 50.8851 108.539 50.8851C106.324 50.8851 104.286 52.4801 104.05 54.9318ZM117.744 59.0376H120.225C120.314 60.8099 121.879 62.1096 124.39 62.1096C126.517 62.1096 128.023 61.1939 128.023 59.8056C128.023 57.9151 126.369 57.7675 124.124 57.5016C120.757 57.0881 118.069 56.4087 118.069 53.2777C118.069 50.5306 120.58 48.7288 123.977 48.7583C127.403 48.7879 129.884 50.3829 130.12 53.514H127.639C127.462 51.978 126.044 50.826 123.977 50.826C121.879 50.826 120.461 51.7121 120.461 53.1004C120.461 54.7546 122.057 54.9613 124.242 55.2272C127.669 55.6407 130.416 56.2906 130.416 59.6284C130.416 62.4345 127.728 64.1772 124.39 64.1772C120.491 64.1772 117.803 62.3459 117.744 59.0376Z" fill="white"/>
<path d="M103.286 178.325C99.3094 171.211 101.887 162.751 103.721 154.972C105.512 147.382 106.515 139.626 106.713 131.829C106.805 128.135 106.652 124.233 104.477 121.088C102.349 118.011 98.6226 116.148 95.0138 114.501C80.869 108.042 64.0941 102.798 49.413 108.222C39.2012 111.994 31.6484 120.962 30.4317 130.758C29.2151 140.555 34.3843 150.779 43.4229 156.453C48.426 159.593 54.4736 161.423 58.865 165.223C66.0864 171.471 66.7989 182.754 60.4092 189.686C55.6808 194.816 48.2889 197.196 41.877 200.574C32.0606 205.745 24.1106 213.687 19.4598 222.97C16.7719 228.334 15.3054 234.955 18.9876 239.828C25.0356 247.83 39.2112 244.895 47.9766 239.235C56.742 233.575 65.2939 225.678 76.1048 226.113C82.7209 226.378 88.5542 229.818 94.2934 232.765C105.286 238.387 116.971 242.529 129.046 245.084C138.329 247.058 148.098 248.109 157.389 246.164C166.68 244.219 175.456 238.865 179.05 230.981C183.851 220.452 178.028 207.671 167.694 201.019C150.478 189.937 114.373 198.161 103.286 178.325Z" fill="#F5F3E3" fill-opacity="0.4"/>
<path d="M138.457 157.17C139.217 166.364 142.958 175.722 150.712 181.832C160.714 189.713 175.169 190.811 188.523 191.058C199.876 191.268 208.185 190.812 215.923 187.514C223.379 184.335 225.296 181.118 225.842 180.096C229.032 174.118 226.51 166.007 221.104 162.222C219.071 160.799 214.956 160.236 206.811 159.167C197.87 157.994 194.186 158.107 187.984 156.063C181.322 153.868 180.069 151.922 179.684 151.222C178.092 148.326 179.837 145.774 181.37 140.795C182.666 136.583 185.802 126.397 181.401 118.607C180.527 117.059 177.577 112.46 171.948 110.663C160.63 107.051 148.331 117.913 147.472 118.692C133.627 131.239 137.951 151.043 138.457 157.17Z" fill="#F5F3E3" fill-opacity="0.4"/>
<path d="M72.0326 168.406H13.3896C12.7672 168.405 12.1705 168.157 11.7304 167.717C11.2903 167.277 11.0427 166.68 11.042 166.058V123.535C11.0427 122.913 11.2903 122.316 11.7304 121.876C12.1705 121.436 12.7672 121.188 13.3896 121.188H72.0326C72.655 121.188 73.2517 121.436 73.6918 121.876C74.1319 122.316 74.3795 122.913 74.3803 123.535V166.058C74.3795 166.68 74.1319 167.277 73.6918 167.717C73.2517 168.157 72.655 168.405 72.0326 168.406ZM13.3896 122.066C13.0001 122.066 12.6266 122.221 12.3511 122.497C12.0756 122.772 11.9207 123.146 11.9203 123.535V166.058C11.9207 166.447 12.0756 166.821 12.3511 167.096C12.6266 167.372 13.0001 167.527 13.3896 167.527H72.0326C72.4222 167.527 72.7957 167.372 73.0712 167.096C73.3467 166.821 73.5016 166.447 73.5019 166.058V123.535C73.5016 123.145 73.3467 122.772 73.0712 122.496C72.7957 122.221 72.4222 122.066 72.0326 122.066L13.3896 122.066Z" fill="#6595F7"/>
<path d="M78.2628 127.857V170.38C78.2627 170.886 78.0616 171.372 77.7037 171.73C77.3459 172.087 76.8606 172.288 76.3545 172.289H17.7111C17.205 172.288 16.7197 172.087 16.3618 171.73C16.004 171.372 15.8029 170.886 15.8027 170.38V127.857C15.8029 127.351 16.004 126.866 16.3619 126.508C16.7197 126.15 17.205 125.949 17.7111 125.949H76.3545C76.8606 125.949 77.3459 126.15 77.7037 126.508C78.0616 126.866 78.2627 127.351 78.2628 127.857Z" fill="#6445F1"/>
<path d="M56.7653 137.694H37.7339C34.5294 137.694 31.9316 140.292 31.9316 143.497V155.797C31.9316 159.002 34.5294 161.6 37.7339 161.6H56.7653C59.9698 161.6 62.5676 159.002 62.5676 155.797V143.497C62.5676 140.292 59.9698 137.694 56.7653 137.694Z" fill="white"/>
<path d="M78.2634 127.857V133.174H15.8037V127.857C15.8039 127.351 16.0049 126.866 16.3627 126.508C16.7204 126.151 17.2056 125.949 17.7116 125.949H76.355C76.8611 125.949 77.3464 126.15 77.7042 126.508C78.0621 126.866 78.2632 127.351 78.2634 127.857Z" fill="#2C34F1"/>
<path d="M19.5387 130.57C20.1333 130.57 20.6154 130.087 20.6154 129.493C20.6154 128.898 20.1333 128.416 19.5387 128.416C18.944 128.416 18.4619 128.898 18.4619 129.493C18.4619 130.087 18.944 130.57 19.5387 130.57Z" fill="white"/>
<path d="M23.2896 130.57C23.8843 130.57 24.3664 130.087 24.3664 129.493C24.3664 128.898 23.8843 128.416 23.2896 128.416C22.695 128.416 22.2129 128.898 22.2129 129.493C22.2129 130.087 22.695 130.57 23.2896 130.57Z" fill="white"/>
<path d="M27.0416 130.57C27.6363 130.57 28.1183 130.087 28.1183 129.493C28.1183 128.898 27.6363 128.416 27.0416 128.416C26.4469 128.416 25.9648 128.898 25.9648 129.493C25.9648 130.087 26.4469 130.57 27.0416 130.57Z" fill="white"/>
<path d="M29.2407 136.195H18.4619V138.418H29.2407V136.195Z" fill="white"/>
<path d="M75.3195 165.411H18.4619V166.849H75.3195V165.411Z" fill="white"/>
<path d="M51.868 168.166H18.4619V169.604H51.868V168.166Z" fill="white"/>
<path d="M118.537 159.694C118.749 159.93 118.897 160.218 118.966 160.528C119.035 160.838 119.023 161.161 118.932 161.465L117.32 166.498L122.335 169.077L125.492 164.84C125.686 164.588 125.942 164.391 126.234 164.267C126.527 164.142 126.847 164.095 127.162 164.13L127.184 164.132C127.499 164.151 127.804 164.251 128.07 164.421C128.336 164.591 128.555 164.827 128.704 165.105L131.124 169.803L136.494 168.081L135.729 162.852C135.69 162.539 135.73 162.221 135.848 161.928C135.965 161.634 136.156 161.376 136.401 161.177L136.417 161.163C136.654 160.951 136.941 160.803 137.251 160.734C137.561 160.665 137.884 160.677 138.189 160.768L143.221 162.379L145.801 157.364L141.563 154.207C141.311 154.013 141.114 153.757 140.99 153.464C140.866 153.172 140.819 152.852 140.853 152.536C140.853 152.529 140.855 152.522 140.855 152.515C140.875 152.2 140.974 151.895 141.144 151.629C141.315 151.363 141.55 151.144 141.828 150.995L146.526 148.575L144.804 143.205L139.575 143.97C139.262 144.009 138.943 143.969 138.65 143.851C138.357 143.734 138.098 143.543 137.899 143.298C137.894 143.293 137.89 143.287 137.885 143.282C137.673 143.045 137.526 142.758 137.456 142.448C137.387 142.138 137.399 141.815 137.491 141.51L139.102 136.478L134.087 133.898L130.93 138.136C130.736 138.388 130.48 138.585 130.188 138.709C129.895 138.833 129.576 138.88 129.26 138.845L129.238 138.843C128.923 138.824 128.618 138.725 128.352 138.554C128.086 138.384 127.868 138.149 127.718 137.871L125.299 133.173L119.928 134.894L120.693 140.123C120.733 140.437 120.692 140.755 120.574 141.048C120.457 141.341 120.267 141.6 120.021 141.799C120.016 141.803 120.011 141.808 120.005 141.813C119.769 142.025 119.481 142.172 119.171 142.242C118.861 142.311 118.538 142.299 118.234 142.207L113.202 140.597L110.622 145.612L114.86 148.768C115.111 148.963 115.309 149.219 115.433 149.511C115.557 149.804 115.604 150.123 115.569 150.439C115.569 150.446 115.568 150.454 115.567 150.461C115.548 150.776 115.448 151.081 115.278 151.347C115.108 151.613 114.873 151.831 114.595 151.981L109.896 154.4L111.619 159.771L116.848 159.006C117.161 158.966 117.479 159.007 117.773 159.124C118.066 159.242 118.324 159.432 118.523 159.678C118.528 159.683 118.532 159.688 118.537 159.694ZM124.183 152.78C123.928 151.983 123.914 151.129 124.145 150.324C124.375 149.52 124.838 148.802 125.476 148.261C126.115 147.72 126.899 147.381 127.73 147.286C128.561 147.19 129.402 147.344 130.146 147.726C130.89 148.109 131.503 148.704 131.909 149.435C132.315 150.167 132.495 151.002 132.427 151.836C132.358 152.67 132.043 153.464 131.523 154.119C131.003 154.774 130.3 155.26 129.503 155.516C128.974 155.685 128.417 155.749 127.863 155.703C127.31 155.658 126.77 155.503 126.276 155.249C125.783 154.995 125.343 154.646 124.984 154.223C124.625 153.799 124.353 153.309 124.183 152.78Z" fill="#2C34F1"/>
<path d="M110.871 174.294C111.001 174.44 111.092 174.616 111.134 174.807C111.177 174.998 111.17 175.197 111.113 175.384L110.122 178.481L113.209 180.069L115.151 177.462C115.271 177.307 115.428 177.185 115.608 177.109C115.788 177.032 115.985 177.004 116.179 177.025L116.192 177.026C116.386 177.038 116.574 177.099 116.738 177.204C116.902 177.309 117.036 177.454 117.128 177.625L118.617 180.516L121.922 179.456L121.451 176.238C121.427 176.045 121.452 175.85 121.524 175.669C121.596 175.489 121.714 175.33 121.864 175.207L121.875 175.199C122.02 175.068 122.197 174.977 122.388 174.935C122.579 174.892 122.777 174.899 122.965 174.956L126.062 175.947L127.65 172.86L125.042 170.918C124.887 170.798 124.765 170.641 124.689 170.461C124.613 170.281 124.584 170.084 124.605 169.89C124.605 169.885 124.605 169.881 124.606 169.877C124.618 169.683 124.68 169.495 124.784 169.331C124.889 169.167 125.034 169.033 125.205 168.941L128.096 167.452L127.036 164.147L123.818 164.618C123.626 164.642 123.43 164.617 123.249 164.545C123.069 164.473 122.91 164.356 122.787 164.205L122.779 164.195C122.648 164.049 122.557 163.872 122.515 163.681C122.472 163.49 122.48 163.292 122.536 163.104L123.528 160.008L120.441 158.419L118.497 161.028C118.378 161.183 118.22 161.304 118.04 161.381C117.86 161.457 117.664 161.486 117.469 161.464L117.456 161.463C117.262 161.451 117.075 161.39 116.911 161.285C116.748 161.18 116.613 161.036 116.521 160.865L115.032 157.974L111.728 159.033L112.198 162.251C112.223 162.444 112.198 162.64 112.125 162.82C112.053 163.001 111.936 163.16 111.785 163.282L111.775 163.291C111.629 163.421 111.453 163.512 111.262 163.555C111.071 163.597 110.872 163.59 110.685 163.534L107.587 162.542L105.999 165.629L108.607 167.571C108.762 167.691 108.883 167.848 108.96 168.028C109.036 168.208 109.065 168.405 109.043 168.599C109.043 168.604 109.043 168.608 109.042 168.612C109.03 168.806 108.969 168.994 108.864 169.158C108.76 169.322 108.615 169.456 108.444 169.548L105.553 171.037L106.613 174.342L109.83 173.871C110.023 173.847 110.219 173.872 110.399 173.944C110.58 174.016 110.739 174.134 110.861 174.284C110.865 174.287 110.868 174.291 110.871 174.294ZM114.345 170.039C114.188 169.549 114.18 169.023 114.321 168.528C114.463 168.033 114.748 167.591 115.141 167.258C115.534 166.926 116.016 166.717 116.528 166.658C117.039 166.6 117.557 166.694 118.015 166.929C118.472 167.165 118.85 167.531 119.1 167.981C119.35 168.431 119.461 168.945 119.418 169.458C119.376 169.971 119.182 170.46 118.862 170.864C118.542 171.267 118.109 171.566 117.619 171.723C116.961 171.934 116.247 171.875 115.633 171.559C115.019 171.243 114.556 170.697 114.345 170.039Z" fill="#6595F7"/>
<path d="M38.43 210.735C38.4344 211.015 39.074 210.913 39.074 210.913C39.074 210.913 39.1948 211.73 39.4558 213.089C39.4754 213.183 39.4928 213.278 39.5125 213.375C39.7963 214.825 40.2261 216.814 40.8233 219.057C40.8494 219.157 40.8766 219.256 40.906 219.357C41.3107 220.863 41.7916 222.478 42.3517 224.119C42.3866 224.224 42.4235 224.327 42.4605 224.432C43.0976 226.289 43.838 228.109 44.6782 229.884C44.7099 229.95 44.7413 230.015 44.774 230.08C46.1784 232.975 47.8787 235.607 49.9108 237.463H88.468L88.2929 227.941L88.196 222.661L88.1917 222.37L88.121 218.593L88.1166 218.35L88.0747 216.106L88.0703 215.813L87.9562 209.551L87.9496 209.262L87.8931 206.186L95.6755 213.079L95.9443 213.317L99.476 216.447L102.419 209.582L102.539 209.301L102.823 208.638V208.637L103.022 208.174V208.173L104.706 204.24L104.832 203.949L106.68 199.641L106.796 199.367L108.483 195.43C108.483 195.43 106.834 194.17 104.495 192.412C104.438 192.369 104.379 192.324 104.32 192.281C103.373 191.568 102.319 190.781 101.22 189.964C101.116 189.886 101.013 189.81 100.908 189.732C99.5767 188.744 98.1876 187.723 96.8484 186.749C96.7799 186.7 96.7113 186.651 96.6439 186.602C96.6254 186.587 96.6068 186.575 96.5884 186.561C96.5198 186.511 96.4513 186.462 96.3839 186.412C92.9821 183.954 89.9937 181.897 89.2181 181.67C88.4425 181.444 87.5707 181.217 86.606 181.001H86.6054C86.5185 180.982 86.4313 180.962 86.3422 180.942H86.3411C84.1364 180.469 81.9066 180.123 79.6624 179.904C79.5722 179.894 79.4819 179.885 79.3916 179.878C77.9904 179.742 76.4947 179.64 74.9063 179.585C74.8259 179.582 74.7453 179.58 74.6638 179.578C69.423 179.43 64.1793 179.74 58.9921 180.502C58.8627 180.52 58.7333 180.539 58.6039 180.558C57.2919 180.75 55.9484 180.975 54.5734 181.231C54.1056 181.319 53.6432 181.424 53.1895 181.548C53.0634 181.582 52.9383 181.617 52.8132 181.654C51.1505 182.144 49.5702 182.88 48.1246 183.836C48.0385 183.893 47.9538 183.949 47.8678 184.009C47.0142 184.595 46.2146 185.255 45.4784 185.983C45.419 186.041 45.3596 186.1 45.301 186.159C43.7389 187.745 42.4952 189.615 41.6372 191.669C41.6056 191.74 41.5762 191.812 41.5482 191.885C41.4731 192.068 41.4023 192.254 41.3339 192.443C41.2696 192.622 41.2076 192.8 41.1489 192.981C40.9722 193.519 40.823 194.066 40.7018 194.619L40.6626 194.799C40.6604 194.81 40.6583 194.822 40.655 194.833C40.3319 196.368 39.9523 198.105 39.5987 199.957C39.5792 200.061 39.5573 200.164 39.5394 200.269C39.4327 200.835 39.3283 201.409 39.2304 201.992C39.2184 202.064 39.2055 202.136 39.1934 202.208C38.9552 203.639 38.7507 205.115 38.6125 206.598C38.6027 206.695 38.595 206.791 38.5875 206.887C38.4745 208.175 38.4151 209.466 38.43 210.735Z" fill="#FCB913"/>
<path d="M65.0906 211.782C65.4689 212.559 66.0512 213.219 66.7754 213.69C67.4995 214.162 68.3382 214.428 69.2017 214.46L72.4501 214.602C75.992 214.758 79.6538 214.919 83.0359 216.187C84.2152 216.656 85.3679 217.188 86.4888 217.783C87.024 218.056 87.5679 218.331 88.1213 218.593L88.1169 218.351C87.6003 218.104 87.091 217.845 86.5882 217.589C85.4603 216.99 84.3 216.454 83.1125 215.984C79.6978 214.703 76.0183 214.541 72.4603 214.385L69.212 214.242C68.3905 214.206 67.5936 213.951 66.9041 213.503C66.2146 213.055 65.6576 212.431 65.291 211.695C64.9244 210.959 64.7616 210.138 64.8196 209.318C64.8775 208.498 65.154 207.708 65.6203 207.031C66.6313 205.574 67.9828 204.387 69.5573 203.571C73.1211 201.761 77.2724 201.629 81.2888 201.504C81.6031 201.495 81.9175 201.485 82.2297 201.474C86.3798 201.334 91.1049 200.957 94.679 198.257C95.7082 197.479 96.3544 196.682 96.653 195.819C97.0402 194.709 96.7618 193.484 95.9752 192.843C95.3431 192.326 94.4925 192.223 93.744 192.19C91.2104 192.078 88.6365 192.591 86.1476 193.086C82.5271 193.807 79.1081 194.488 75.7346 193.456C75.3933 193.352 75.0546 193.217 74.8887 192.937C74.7227 192.656 74.7668 192.298 74.8311 191.922C75.3402 188.911 75.9178 185.5 77.567 182.681C78.1617 181.683 78.8639 180.752 79.6611 179.906C79.5709 179.896 79.4806 179.887 79.3902 179.88C78.6277 180.704 77.9536 181.606 77.3788 182.571C75.7113 185.424 75.1304 188.857 74.6181 191.885C74.5475 192.303 74.5006 192.706 74.703 193.048C74.9063 193.393 75.3068 193.554 75.6722 193.665C79.0979 194.713 82.703 193.996 86.1906 193.3C88.6666 192.808 91.2286 192.297 93.735 192.408C94.4486 192.44 95.2558 192.536 95.8389 193.012C96.5546 193.596 96.806 194.722 96.4492 195.749C96.163 196.569 95.5418 197.333 94.5476 198.084C91.0251 200.746 86.3386 201.118 82.2233 201.257C81.9101 201.268 81.596 201.278 81.2812 201.287C77.2419 201.414 73.0657 201.544 69.4585 203.378C67.8518 204.21 66.4729 205.422 65.4421 206.908C64.9473 207.613 64.6533 208.438 64.5914 209.297C64.5295 210.155 64.7021 211.014 65.0906 211.782Z" fill="white"/>
<path d="M62.9078 195.557C64.1283 195.21 65.4946 194.71 66.3833 193.629C68.0141 191.646 67.2167 188.554 65.5424 186.825C63.7801 185.006 61.2607 184.183 59.0381 183.458L53.1906 181.549C53.0644 181.583 52.9393 181.618 52.8142 181.655L58.9705 183.665C61.1689 184.383 63.6613 185.195 65.3856 186.976C66.9944 188.637 67.7689 191.601 66.2145 193.491C65.3648 194.526 64.0356 195.01 62.8487 195.348C55.647 197.398 48.0636 196.045 40.701 194.621L40.6619 194.801C40.6596 194.812 40.6576 194.824 40.6543 194.834C48.0433 196.261 55.6561 197.621 62.9078 195.557Z" fill="white"/>
<path d="M58.6598 205.839C58.9668 210.627 59.3485 216.586 56.6159 221.301C54.0431 225.743 49.2054 228.241 44.6789 229.884C44.7105 229.95 44.7419 230.015 44.7746 230.08C49.3309 228.425 54.2029 225.902 56.8051 221.41C59.5693 216.638 59.1854 210.643 58.8764 205.824C58.8318 205.131 58.7557 204.471 58.3085 204.012C57.9571 203.652 57.4568 203.511 56.9749 203.398C53.4491 202.57 49.7619 202.451 46.1964 202.337C45.5665 202.316 44.9389 202.297 44.3115 202.273C42.6196 202.207 40.9262 202.115 39.2313 201.994C39.2193 202.066 39.2064 202.138 39.1943 202.209C40.8978 202.331 42.6007 202.425 44.3029 202.49C44.9306 202.514 45.5604 202.534 46.1893 202.554C49.7443 202.669 53.4212 202.787 56.9253 203.61C57.3766 203.715 57.8424 203.846 58.1534 204.164C58.5479 204.569 58.6175 205.188 58.6598 205.839Z" fill="white"/>
<path d="M97.5751 205.095C97.2052 206.165 96.9221 207.291 97.3596 208.267C97.8221 209.299 98.9476 209.789 100.031 209.789C100.332 209.789 100.631 209.751 100.922 209.673C101.622 209.467 102.271 209.114 102.824 208.638V208.637L103.023 208.173C102.434 208.722 101.709 209.234 100.865 209.464C99.6673 209.788 98.1045 209.395 97.5601 208.179C97.1533 207.271 97.4265 206.195 97.7827 205.166C99.0033 201.639 100.663 198.28 102.723 195.169C102.841 194.989 102.962 194.808 103.083 194.627C103.558 193.915 104.052 193.175 104.497 192.413C104.439 192.369 104.381 192.325 104.322 192.281C103.877 193.047 103.38 193.791 102.902 194.506C102.78 194.688 102.661 194.868 102.541 195.048C100.47 198.175 98.802 201.55 97.5751 205.095Z" fill="white"/>
<path d="M84.7761 185.143C85.0488 185.403 85.3742 185.601 85.7302 185.724C89.1819 187.134 92.91 187.059 96.6447 186.602C96.6261 186.587 96.6076 186.575 96.5892 186.561C96.5206 186.511 96.452 186.462 96.3846 186.412C92.7577 186.841 89.146 186.883 85.8129 185.522C85.4862 185.41 85.1869 185.23 84.935 184.993C84.0494 184.048 85.0035 182.489 85.8607 181.673C86.1033 181.442 86.3517 181.218 86.6059 181.001C86.5189 180.981 86.4318 180.962 86.3426 180.941H86.3416C86.1273 181.127 85.9172 181.318 85.7107 181.515C84.6087 182.566 83.8452 184.149 84.7761 185.143Z" fill="white"/>
<path d="M41.5479 191.887C42.2571 191.902 42.9664 191.91 43.6757 191.91C45.0898 191.91 46.5044 191.881 47.9194 191.824C49.4642 191.761 50.3702 191.308 50.6139 190.476C50.8686 189.608 50.2147 188.779 49.8024 188.362C48.6112 187.157 47.0567 186.456 45.4782 185.985C45.4188 186.043 45.3594 186.103 45.3008 186.162C46.8914 186.624 48.46 187.315 49.6479 188.514C50.0265 188.897 50.6274 189.654 50.4048 190.415C50.1905 191.147 49.3511 191.548 47.9104 191.606C46.4995 191.664 45.0878 191.693 43.6754 191.692C42.9954 191.692 42.3159 191.685 41.6368 191.672C41.606 191.742 41.5763 191.814 41.5479 191.887Z" fill="white"/>
<path d="M58.6045 180.559C62.3707 182.363 66.363 183.753 70.573 184.142C70.7612 184.159 70.9588 184.174 71.1561 184.174C71.5357 184.19 71.9128 184.106 72.2495 183.929C72.7487 183.642 73.0369 183.101 73.2686 182.665L74.907 179.587C74.8265 179.584 74.7459 179.581 74.6645 179.579L73.0764 182.563C72.8578 182.973 72.5858 183.484 72.1414 183.74C71.6887 184.001 71.1286 183.974 70.5933 183.925C66.5236 183.55 62.6541 182.228 58.9935 180.504C58.8633 180.521 58.7333 180.541 58.6045 180.559Z" fill="white"/>
<path d="M108.484 195.432L141.133 180.67L145.55 190.637L110.124 215.978C108.876 216.823 107.402 217.272 105.894 217.266C104.387 217.261 102.916 216.801 101.675 215.946L100.143 214.892L108.484 195.432Z" fill="#F59060"/>
<path d="M131.576 186.24C131.576 186.24 138.756 182.839 144.942 169.137C144.985 169.04 145.057 168.959 145.148 168.905C145.239 168.851 145.345 168.827 145.45 168.836C145.555 168.845 145.655 168.887 145.736 168.955C145.817 169.024 145.874 169.115 145.9 169.218C146.29 170.799 146.799 173.552 146.549 176.446C146.544 176.5 146.555 176.554 146.582 176.601C146.609 176.649 146.65 176.686 146.699 176.71C146.748 176.733 146.803 176.74 146.857 176.731C146.911 176.722 146.96 176.697 146.999 176.659C148.566 175.111 153.236 170.415 155.898 166.803C155.968 166.708 156.07 166.64 156.184 166.612C156.299 166.583 156.421 166.596 156.527 166.647C156.634 166.698 156.719 166.785 156.768 166.893C156.818 167.001 156.828 167.122 156.797 167.236C156.361 168.812 155.361 171.122 153.089 173.907C153.05 173.954 153.03 174.014 153.032 174.076C153.034 174.137 153.058 174.196 153.1 174.241C153.142 174.285 153.2 174.313 153.261 174.318C153.322 174.324 153.383 174.306 153.432 174.27C154.924 173.149 157.023 171.481 158.53 169.905C158.612 169.819 158.722 169.765 158.84 169.751C158.958 169.738 159.077 169.766 159.176 169.832C159.276 169.897 159.349 169.995 159.383 170.109C159.418 170.223 159.411 170.345 159.365 170.454C158.693 172.04 157.383 174.231 154.835 176.591C154.791 176.633 154.764 176.688 154.757 176.748C154.751 176.808 154.767 176.869 154.801 176.918C154.835 176.968 154.886 177.003 154.945 177.019C155.003 177.034 155.065 177.028 155.119 177.001C156.376 176.369 157.576 175.631 158.707 174.794C158.802 174.722 158.92 174.686 159.039 174.692C159.159 174.699 159.272 174.747 159.36 174.829C159.447 174.911 159.502 175.021 159.517 175.139C159.531 175.258 159.502 175.378 159.437 175.478C158.547 176.814 157.076 178.515 154.706 180.119C154.658 180.151 154.622 180.198 154.604 180.253C154.586 180.308 154.588 180.367 154.608 180.421C154.629 180.475 154.667 180.52 154.717 180.549C154.767 180.578 154.825 180.589 154.882 180.58C155.677 180.451 156.454 180.229 157.198 179.919C157.304 179.873 157.423 179.864 157.534 179.895C157.646 179.926 157.744 179.994 157.812 180.088C157.879 180.182 157.913 180.296 157.906 180.412C157.9 180.528 157.854 180.638 157.776 180.724C155.097 183.684 148.897 189.405 136.414 196.088L131.576 186.24Z" fill="#F59060"/>
<path d="M146.278 185.631C147.512 182.609 146.01 178.613 145.995 178.573L145.889 178.296L146.186 178.291C146.31 178.289 149.264 178.294 151.827 182.569L151.471 182.783C149.506 179.505 147.285 178.863 146.492 178.737C146.833 179.764 147.768 183.082 146.662 185.788L146.278 185.631Z" fill="#131313"/>
<path d="M55.1927 210.442L38.4298 210.734L36.5555 227.421C36.4136 228.684 36.54 229.963 36.9263 231.174C37.3127 232.386 37.9504 233.502 38.7978 234.449C39.6451 235.397 40.6829 236.155 41.8434 236.675C43.0039 237.194 44.2609 237.462 45.5322 237.462H88.4677L88.2927 227.941L54.4421 222.702L55.1927 210.442Z" fill="#F59060"/>
<path d="M46.7668 221.169L46.7002 221.553L54.4083 222.892L54.475 222.508L46.7668 221.169Z" fill="#131313"/>
<path d="M108.483 195.431L100.934 215.436L100.143 214.892L108.483 195.431Z" fill="#131313"/>
<path d="M55.1925 210.442L38.2754 212.107L38.4296 210.734L55.1925 210.442Z" fill="#131313"/>
<path d="M77.4534 167.494C77.4633 167.555 77.4701 167.617 77.4768 167.68C77.5157 168.013 77.5442 168.345 77.5586 168.674C77.5639 168.73 77.5662 168.786 77.5684 168.843C77.5764 169.019 77.5797 169.189 77.5775 169.363C77.5786 169.755 77.5663 170.146 77.5314 170.526C77.3137 172.934 76.3153 175.063 73.8984 176.227L74.72 180.246C74.8013 180.64 74.817 181.045 74.7665 181.444C74.7364 181.667 74.629 181.873 74.4628 182.026C72.9738 183.404 70.2569 183.524 67.1886 182.585C66.5276 182.385 65.9502 181.974 65.5448 181.415C65.1393 180.856 64.9281 180.18 64.9435 179.49L65.0876 173.704L62.5953 173.548C62.1038 173.526 61.6279 173.369 61.2186 173.096C60.8094 172.823 60.4824 172.444 60.2729 171.999C60.2463 171.943 60.2227 171.885 60.2021 171.827L59.9646 171.181C59.8215 170.792 59.7689 170.376 59.8109 169.964C59.8528 169.552 59.9882 169.155 60.2067 168.803C60.4252 168.451 60.721 168.154 61.0718 167.933C61.4225 167.713 61.8189 167.575 62.2308 167.531C62.2308 167.531 62.2265 167.495 62.2227 167.432C62.1337 166.343 61.5676 156.91 68.4569 156.598C71.8225 156.441 74.8705 158.587 76.0102 161.755C76.6058 163.418 77.2045 165.451 77.4534 167.494Z" fill="#F59060"/>
<path d="M74.5619 171.494C74.6198 171.463 74.6716 171.422 74.7147 171.373C75.369 170.626 74.1755 167.742 73.9296 167.171C73.9118 167.13 73.8786 167.098 73.837 167.081C73.7955 167.065 73.7491 167.065 73.7081 167.083C73.6671 167.101 73.6348 167.134 73.6183 167.176C73.6018 167.217 73.6025 167.264 73.6202 167.305C74.1569 168.55 74.86 170.696 74.4613 171.151C74.4355 171.181 74.3574 171.27 74.0922 171.196C74.0492 171.184 74.0032 171.189 73.9642 171.211C73.9253 171.233 73.8966 171.269 73.8845 171.312C73.8724 171.355 73.8779 171.401 73.8997 171.44C73.9215 171.479 73.9579 171.508 74.0009 171.52C74.1841 171.585 74.3856 171.576 74.5619 171.494Z" fill="#131313"/>
<path d="M71.0877 170.555C72.0089 170.54 72.7484 170.111 72.7396 169.598C72.7307 169.086 71.9768 168.683 71.0556 168.699C70.1345 168.715 69.3949 169.143 69.4037 169.656C69.4126 170.169 70.1665 170.571 71.0877 170.555Z" fill="#FC6D6D"/>
<path d="M77.5583 168.674C77.5636 168.73 77.5658 168.786 77.5681 168.843C77.5761 169.018 77.5793 169.188 77.5771 169.363C77.5783 169.755 77.566 170.146 77.5311 170.525L77.5301 170.526C76.563 170.573 75.7569 170.161 75.7491 169.629C75.7414 169.115 76.4791 168.687 77.4003 168.671C77.4535 168.67 77.5042 168.672 77.5583 168.674Z" fill="#FC6D6D"/>
<path d="M73.8991 176.228C73.8991 176.228 72.0828 177.018 69.7314 175.586C69.7314 175.586 71.1678 177.725 74.1058 177.237L73.8991 176.228Z" fill="#131313"/>
<path d="M70.0088 165.605C70.2386 165.489 70.48 165.398 70.7291 165.334C70.9743 165.269 71.2267 165.235 71.4804 165.233C71.7228 165.236 71.9628 165.282 72.1884 165.371C72.4048 165.464 72.6006 165.598 72.7644 165.767L72.7836 165.785C72.8363 165.835 72.9067 165.862 72.9791 165.859C73.0515 165.857 73.12 165.826 73.1697 165.774C73.2193 165.721 73.246 165.65 73.2437 165.578C73.2415 165.506 73.2106 165.437 73.1579 165.387C73.1545 165.384 73.1505 165.381 73.1469 165.378C72.9181 165.17 72.6498 165.011 72.3581 164.91C72.071 164.818 71.7694 164.78 71.4685 164.797C71.1796 164.818 70.8945 164.876 70.62 164.968C70.3483 165.058 70.0873 165.177 69.8416 165.324C69.8044 165.345 69.7771 165.38 69.7657 165.422C69.7542 165.463 69.7595 165.507 69.7804 165.545C69.8012 165.582 69.836 165.61 69.8772 165.622C69.9183 165.634 69.9626 165.629 70.0004 165.609L70.0088 165.605Z" fill="#671E24"/>
<path d="M77.5664 165.387C77.3473 165.225 77.1104 165.087 76.8603 164.978C76.6071 164.866 76.3399 164.788 76.0659 164.746C75.7788 164.708 75.4868 164.726 75.2068 164.801C74.9228 164.884 74.659 165.024 74.432 165.214C74.4036 165.236 74.3797 165.263 74.3618 165.294C74.3438 165.325 74.3322 165.36 74.3275 165.395C74.3228 165.431 74.3252 165.467 74.3345 165.502C74.3438 165.536 74.3598 165.569 74.3817 165.597C74.4035 165.626 74.4307 165.649 74.4618 165.667C74.4929 165.685 74.5272 165.697 74.5627 165.702C74.5983 165.706 74.6344 165.704 74.6691 165.695C74.7037 165.685 74.7362 165.669 74.7646 165.648C74.7683 165.645 74.7721 165.642 74.7756 165.639L74.798 165.619C74.9574 165.466 75.1463 165.347 75.3533 165.27C75.5679 165.196 75.7948 165.166 76.0211 165.181C76.2594 165.2 76.494 165.251 76.7187 165.333C76.9477 165.414 77.1669 165.521 77.3724 165.65L77.3802 165.655C77.4157 165.679 77.4593 165.689 77.5015 165.681C77.5437 165.673 77.5811 165.649 77.6056 165.613C77.6301 165.578 77.6398 165.535 77.6325 165.492C77.6252 165.45 77.6015 165.412 77.5666 165.387L77.5664 165.387Z" fill="#671E24"/>
<path d="M71.7472 168.014C72.0012 167.987 72.1727 167.651 72.1303 167.264C72.0879 166.878 71.8476 166.588 71.5936 166.616C71.3397 166.643 71.1682 166.979 71.2106 167.365C71.253 167.752 71.4933 168.042 71.7472 168.014Z" fill="#131313"/>
<path d="M76.1858 167.87C76.3786 167.849 76.5025 167.535 76.4624 167.17C76.4223 166.805 76.2335 166.526 76.0406 166.548C75.8477 166.569 75.7239 166.882 75.764 167.247C75.8041 167.612 75.9929 167.891 76.1858 167.87Z" fill="#131313"/>
<path d="M61.7913 171.887C61.3774 171.054 61.3008 170.375 61.5635 169.87C61.9322 169.161 62.8678 169.012 62.8773 169.01L62.8235 168.649C62.7777 168.656 61.698 168.825 61.2411 169.699C60.9201 170.314 60.9952 171.105 61.4646 172.049L61.7913 171.887Z" fill="#131313"/>
<path d="M62.2305 167.532C62.7881 167.611 63.3261 167.794 63.8172 168.07C64.6236 168.528 64.7839 168.965 65.1048 168.999C65.6174 169.052 66.4201 168.06 67.7126 163.724C68.6357 164.021 72.9329 165.305 76.4456 163.041C77.2284 162.537 77.9152 161.898 78.4739 161.154C80.5079 158.395 79.9267 155.136 79.8014 154.434C79.5394 153 78.9611 151.644 78.1086 150.462C74.0752 153.981 69.2565 156.481 64.0568 157.752C63.4495 157.867 61.4409 158.327 60.1854 160.111C58.6522 162.289 58.8672 165.553 60.8517 168.089L62.2305 167.532Z" fill="#671E24"/>
<path d="M63.0781 173.579L65.02 176.418L65.0878 173.703L63.0781 173.579Z" fill="#671E24"/>
<path d="M74.0733 173.023C73.5629 173.033 72.6528 172.921 71.3989 172.264C71.3714 172.249 71.3401 172.243 71.3091 172.246C71.2781 172.249 71.2488 172.262 71.225 172.282C71.2012 172.302 71.184 172.329 71.1757 172.359C71.1673 172.389 71.1681 172.421 71.178 172.45C71.4419 173.23 72.2592 174.865 74.1745 173.299C74.1996 173.279 74.2177 173.251 74.2262 173.22C74.2348 173.188 74.2334 173.155 74.2223 173.125C74.2111 173.095 74.1908 173.068 74.1641 173.05C74.1374 173.032 74.1057 173.022 74.0733 173.023Z" fill="white"/>
<path d="M71.5025 183.167L64.9856 177.78L62.877 180.024L69.7621 185.985L71.5025 183.167Z" fill="#DD9B0A"/>
<path d="M71.5029 183.167L74.2158 177.78L76.0204 179.634L73.2648 185.985L71.5029 183.167Z" fill="#DD9B0A"/>
<path d="M71.6662 183.168H71.3398V229.249H71.6662V183.168Z" fill="#131313"/>
<path d="M64.585 237.462H101.613L106.567 213.191C106.678 212.648 106.667 212.087 106.534 211.548C106.401 211.01 106.151 210.508 105.8 210.078C105.449 209.649 105.007 209.303 104.507 209.065C104.006 208.827 103.458 208.704 102.904 208.704H70.4545L64.585 237.462Z" fill="#6445F1"/>
<path d="M45.5324 237.463H64.585C64.6956 237.464 64.8032 237.427 64.89 237.359C64.9767 237.29 65.0373 237.194 65.0616 237.086L70.9311 209.27C70.9432 209.208 70.943 209.145 70.9305 209.084C70.9179 209.022 70.8933 208.964 70.8579 208.913C70.8226 208.861 70.7774 208.817 70.7249 208.783C70.6723 208.749 70.6135 208.726 70.5519 208.714C70.4272 208.688 70.2973 208.712 70.1899 208.781C70.0826 208.849 70.0065 208.957 69.978 209.082L64.1879 236.521H45.5321C45.4691 236.52 45.4064 236.53 45.3476 236.553C45.2888 236.576 45.2352 236.61 45.1899 236.654C45.1447 236.698 45.1087 236.75 45.0841 236.809C45.0595 236.867 45.0469 236.929 45.0469 236.992C45.0469 237.055 45.0595 237.117 45.0841 237.176C45.1087 237.234 45.1447 237.286 45.1899 237.33C45.2352 237.374 45.2888 237.408 45.3476 237.431C45.4064 237.454 45.4691 237.465 45.5321 237.463H45.5324Z" fill="#131313"/>
<path d="M91.2323 223.856C92.0261 221.626 90.9416 219.204 88.8101 218.445C86.6785 217.686 84.3071 218.878 83.5134 221.107C82.7196 223.336 83.8041 225.759 85.9357 226.518C88.0672 227.277 90.4386 226.085 91.2323 223.856Z" fill="white"/>
<path d="M55.3872 196.307H54.998V210.442H55.3872V196.307Z" fill="#131313"/>
<path d="M88.0884 196.307H87.6992V206.185H88.0884V196.307Z" fill="#131313"/>
<path d="M8.40341 247.197L137.668 247.197V237.622L8.40341 237.622V247.197Z" fill="#2C34F1"/>
<path d="M6.51764 243.188L139.354 243.188C140.936 243.188 142.218 241.907 142.218 240.325C142.218 238.744 140.936 237.462 139.354 237.462L6.51764 237.462C4.93623 237.462 3.65427 238.744 3.65427 240.325C3.65427 241.907 4.93623 243.188 6.51764 243.188Z" fill="#004751"/>
<path d="M242.78 191.182H186.876C184.464 191.18 182.151 190.22 180.446 188.515C178.74 186.809 177.781 184.497 177.778 182.085V128.796C177.781 126.384 178.74 124.071 180.446 122.366C182.151 120.66 184.464 119.701 186.876 119.698H242.78C245.192 119.701 247.505 120.66 249.21 122.366C250.916 124.072 251.875 126.384 251.877 128.796V182.085C251.875 184.497 250.915 186.809 249.21 188.515C247.504 190.22 245.192 191.18 242.78 191.182ZM186.876 120.787C184.753 120.789 182.717 121.634 181.215 123.135C179.714 124.637 178.869 126.673 178.867 128.796V182.085C178.869 184.209 179.714 186.245 181.215 187.746C182.717 189.248 184.753 190.092 186.876 190.095H242.78C244.904 190.092 246.94 189.248 248.441 187.746C249.943 186.245 250.787 184.209 250.79 182.085V128.796C250.787 126.673 249.943 124.637 248.441 123.135C246.94 121.634 244.904 120.789 242.78 120.787H186.876Z" fill="#6595F7"/>
<path d="M230.814 111.54H174.91C170.186 111.54 166.356 115.369 166.356 120.093V173.383C166.356 178.106 170.186 181.936 174.91 181.936H230.814C235.538 181.936 239.367 178.106 239.367 173.383V120.093C239.367 115.369 235.538 111.54 230.814 111.54Z" fill="#6445F1"/>
<path d="M235.59 122.85V170.626C235.59 172.66 234.782 174.611 233.344 176.049C231.906 177.487 229.955 178.295 227.922 178.295H177.801C176.297 178.295 174.826 177.853 173.571 177.023C172.316 176.193 171.332 175.013 170.743 173.629C170.742 173.626 170.741 173.623 170.739 173.62C170.338 172.673 170.132 171.655 170.133 170.626V122.85C170.133 121.843 170.331 120.846 170.716 119.915C171.102 118.985 171.666 118.139 172.379 117.427C173.091 116.715 173.936 116.15 174.866 115.765C175.797 115.379 176.794 115.181 177.801 115.181H227.922C228.929 115.181 229.926 115.379 230.856 115.765C231.787 116.15 232.632 116.715 233.344 117.427C234.056 118.139 234.621 118.985 235.007 119.915C235.392 120.846 235.59 121.843 235.59 122.85Z" fill="#FCB913"/>
<path d="M201.624 137.769C201.24 137.769 200.864 137.655 200.545 137.442C200.225 137.228 199.977 136.925 199.83 136.57C199.682 136.215 199.644 135.825 199.719 135.448C199.794 135.071 199.979 134.725 200.25 134.454C200.522 134.182 200.868 133.997 201.245 133.922C201.622 133.847 202.012 133.886 202.367 134.033C202.722 134.18 203.025 134.429 203.239 134.748C203.452 135.067 203.566 135.443 203.566 135.827C203.565 136.342 203.361 136.836 202.996 137.2C202.632 137.564 202.139 137.768 201.624 137.769ZM201.624 134.211C201.304 134.211 200.992 134.306 200.726 134.484C200.46 134.661 200.253 134.913 200.131 135.209C200.009 135.504 199.977 135.829 200.039 136.142C200.101 136.456 200.255 136.744 200.481 136.97C200.707 137.196 200.995 137.349 201.309 137.412C201.622 137.474 201.947 137.442 202.242 137.32C202.537 137.198 202.79 136.99 202.967 136.725C203.145 136.459 203.24 136.147 203.24 135.827C203.239 135.399 203.069 134.988 202.766 134.685C202.463 134.382 202.052 134.212 201.624 134.211Z" fill="#6595F7"/>
<path d="M200.896 132.566C201.074 134.8 201.931 136.822 204.209 137.594L203.967 140.579C203.939 140.932 203.98 141.286 204.09 141.622C204.2 141.958 204.376 142.269 204.607 142.537C204.838 142.804 205.12 143.023 205.437 143.18C205.754 143.337 206.099 143.43 206.452 143.453C206.576 143.46 206.699 143.462 206.822 143.457C207.733 143.419 208.594 143.028 209.222 142.366C209.85 141.705 210.196 140.825 210.187 139.913L210.373 134.985L212.166 134.653C212.52 134.593 212.851 134.437 213.124 134.203C213.396 133.969 213.6 133.665 213.713 133.324C213.726 133.281 213.738 133.238 213.749 133.193L213.864 132.703C213.933 132.409 213.934 132.103 213.867 131.808C213.8 131.513 213.667 131.238 213.477 131.002C213.288 130.767 213.047 130.578 212.774 130.449C212.5 130.32 212.201 130.256 211.899 130.26L211.896 130.186C211.863 129.391 211.44 122.502 206.418 122.883C203.965 123.068 201.947 124.89 201.398 127.289C201.064 128.695 200.884 130.133 200.859 131.578C200.859 131.91 200.87 132.239 200.896 132.566Z" fill="#F59060"/>
<path d="M203.32 133.471C203.257 133.468 203.195 133.453 203.139 133.427C203.082 133.4 203.031 133.363 202.988 133.316C202.461 132.732 203.307 130.634 203.482 130.219C203.489 130.201 203.5 130.185 203.513 130.171C203.526 130.158 203.542 130.147 203.56 130.139C203.578 130.132 203.597 130.128 203.616 130.128C203.635 130.128 203.654 130.132 203.672 130.139C203.689 130.147 203.705 130.158 203.719 130.171C203.732 130.185 203.743 130.201 203.75 130.219C203.757 130.237 203.76 130.256 203.759 130.275C203.759 130.295 203.754 130.313 203.746 130.331C203.369 131.226 202.887 132.776 203.201 133.124C203.225 133.151 203.298 133.231 203.551 133.154C203.57 133.148 203.589 133.145 203.608 133.147C203.627 133.148 203.646 133.153 203.663 133.162C203.68 133.171 203.695 133.183 203.707 133.197C203.72 133.212 203.729 133.229 203.734 133.247C203.74 133.266 203.742 133.285 203.74 133.304C203.738 133.323 203.732 133.342 203.723 133.359C203.714 133.375 203.701 133.39 203.686 133.402C203.671 133.414 203.654 133.423 203.636 133.428C203.534 133.462 203.427 133.476 203.32 133.471Z" fill="#131313"/>
<path d="M207.052 132.45C207.069 132.075 206.537 131.748 205.865 131.719C205.193 131.69 204.634 131.97 204.618 132.344C204.602 132.718 205.134 133.045 205.806 133.074C206.478 133.103 207.036 132.824 207.052 132.45Z" fill="#FC6D6D"/>
<path d="M200.896 132.565C201.137 132.639 201.39 132.659 201.64 132.624C202.253 132.548 202.718 132.207 202.675 131.866C202.633 131.525 202.098 131.308 201.484 131.384C201.266 131.411 201.054 131.476 200.859 131.577C200.859 131.91 200.87 132.239 200.896 132.565Z" fill="#FC6D6D"/>
<path d="M204.208 137.593C204.208 137.593 205.594 138.006 207.172 136.76C207.172 136.76 206.32 138.437 204.147 138.343L204.208 137.593Z" fill="#131313"/>
<path d="M212.174 134.65C212.441 134.601 212.696 134.499 212.924 134.351C211.987 135.924 210.86 137.294 210.285 137.303L210.373 134.985L212.168 134.652C212.169 134.652 212.172 134.65 212.174 134.65Z" fill="#131313"/>
<path d="M214.07 126.11C215.289 129.138 214.155 131.883 213.905 132.452C213.934 132.173 213.903 131.891 213.816 131.625C213.728 131.359 213.585 131.115 213.396 130.908C213.207 130.701 212.977 130.537 212.72 130.425C212.463 130.313 212.186 130.257 211.906 130.26H211.898C211.898 130.26 208.94 132.474 203.863 126.539C203.863 126.539 203.031 127.974 201.057 129.097H201.055C201.022 129.117 200.988 129.138 200.952 129.157C200.866 129.2 200.77 129.218 200.675 129.209C200.404 129.141 200.125 123.145 203.21 121.675C203.72 121.432 204.268 121.416 205.362 121.382C207.075 121.329 209.286 121.261 211.33 122.654C212.561 123.514 213.514 124.715 214.07 126.11Z" fill="#131313"/>
<path d="M207.429 129.442C207.221 129.34 207.005 129.258 206.782 129.196C206.561 129.134 206.334 129.093 206.105 129.076C205.883 129.062 205.661 129.08 205.443 129.129C205.236 129.182 205.039 129.271 204.862 129.392L204.849 129.4C204.799 129.433 204.739 129.444 204.681 129.432C204.624 129.42 204.573 129.386 204.54 129.336C204.508 129.287 204.497 129.227 204.509 129.169C204.521 129.111 204.555 129.06 204.604 129.028L204.614 129.022C204.844 128.883 205.098 128.786 205.362 128.737C205.619 128.695 205.881 128.69 206.139 128.722C206.39 128.756 206.637 128.816 206.876 128.9C207.113 128.982 207.343 129.086 207.561 129.212C207.589 129.23 207.609 129.258 207.617 129.29C207.625 129.323 207.62 129.357 207.605 129.386C207.589 129.415 207.563 129.438 207.531 129.449C207.5 129.46 207.466 129.459 207.435 129.446L207.429 129.442Z" fill="#131313"/>
<path d="M200.206 129.09C200.435 128.984 200.672 128.9 200.916 128.839C201.162 128.776 201.413 128.738 201.665 128.725C201.926 128.716 202.186 128.744 202.439 128.808C202.698 128.88 202.941 128.998 203.159 129.157C203.207 129.191 203.24 129.243 203.25 129.301C203.26 129.359 203.246 129.419 203.212 129.467C203.195 129.491 203.174 129.511 203.149 129.527C203.124 129.543 203.097 129.553 203.068 129.558C203.01 129.568 202.95 129.555 202.902 129.52L202.893 129.514L202.88 129.504C202.714 129.368 202.526 129.262 202.323 129.191C202.111 129.124 201.891 129.087 201.669 129.081C201.439 129.079 201.21 129.099 200.984 129.142C200.757 129.185 200.534 129.248 200.319 129.331L200.312 129.334C200.281 129.344 200.246 129.343 200.216 129.329C200.185 129.315 200.161 129.291 200.148 129.26C200.134 129.23 200.133 129.195 200.144 129.164C200.155 129.132 200.177 129.106 200.206 129.09Z" fill="#131313"/>
<path d="M206.064 130.502C206.077 130.219 205.936 129.982 205.749 129.974C205.563 129.966 205.402 130.19 205.389 130.473C205.377 130.757 205.518 130.993 205.705 131.001C205.891 131.009 206.052 130.786 206.064 130.502Z" fill="#131313"/>
<path d="M202.201 130.335C202.213 130.052 202.072 129.815 201.886 129.807C201.7 129.799 201.538 130.022 201.526 130.306C201.514 130.59 201.655 130.826 201.841 130.834C202.028 130.842 202.189 130.619 202.201 130.335Z" fill="#131313"/>
<path d="M212.862 133.469L212.591 133.374C212.817 132.737 212.813 132.241 212.58 131.901C212.253 131.424 211.567 131.399 211.56 131.398L211.567 131.111C211.601 131.111 212.404 131.139 212.815 131.737C213.105 132.157 213.121 132.74 212.862 133.469Z" fill="#131313"/>
<path d="M205.35 134.305C205.386 134.295 205.423 134.294 205.459 134.304C205.495 134.313 205.528 134.332 205.554 134.358C205.581 134.384 205.599 134.417 205.608 134.453C205.618 134.489 205.617 134.527 205.607 134.563C205.541 134.804 205.41 135.023 205.227 135.195C205.044 135.366 204.818 135.484 204.572 135.534C204.367 135.571 204.157 135.558 203.957 135.499C203.758 135.439 203.575 135.334 203.423 135.191C203.397 135.166 203.378 135.135 203.368 135.1C203.358 135.065 203.358 135.029 203.367 134.993C203.375 134.958 203.393 134.926 203.418 134.9C203.443 134.874 203.475 134.856 203.51 134.846L205.35 134.305Z" fill="#E52039"/>
<path d="M219.316 132.005C221.968 132.005 224.118 129.855 224.118 127.202C224.118 124.55 221.968 122.4 219.316 122.4C216.664 122.4 214.514 124.55 214.514 127.202C214.514 129.855 216.664 132.005 219.316 132.005Z" fill="#131313"/>
<path d="M214.244 126.018C214.767 126.718 215.477 128.055 214.809 129.571C214.795 129.604 214.771 129.632 214.74 129.65C214.708 129.668 214.672 129.675 214.636 129.67C214.6 129.666 214.567 129.649 214.541 129.624C214.516 129.599 214.499 129.566 214.494 129.53C214.388 128.735 214.168 127.182 213.952 126.15C213.944 126.114 213.949 126.076 213.966 126.042C213.983 126.009 214.011 125.982 214.045 125.967C214.079 125.951 214.117 125.948 214.153 125.957C214.19 125.967 214.222 125.988 214.244 126.018Z" fill="#6595F7"/>
<path d="M203.569 138.029H210.32C210.592 138.029 210.853 138.138 211.046 138.33C211.239 138.523 211.347 138.784 211.347 139.056V141.124H202.542V139.056C202.542 138.922 202.569 138.788 202.62 138.663C202.672 138.539 202.748 138.425 202.843 138.33C202.938 138.235 203.052 138.159 203.176 138.107C203.301 138.056 203.434 138.029 203.569 138.029Z" fill="#2C34F1"/>
<path d="M231.017 178.125C229.056 178.378 226.927 178.523 224.936 178.392C224.578 178.368 224.225 178.337 223.879 178.294C223.687 178.271 223.498 178.245 223.311 178.216C223.295 178.214 223.278 178.21 223.263 178.208C223.168 178.192 223.074 178.176 222.982 178.159C222.755 178.118 222.53 178.074 222.31 178.023C222.025 177.957 221.748 177.882 221.478 177.798H221.477L221.478 177.826L221.5 178.294H189.963V162.883L189.959 162.888C189.794 163.063 185.22 167.873 180.861 171.6C180.582 171.839 180.306 172.072 180.031 172.3C179.602 172.655 179.179 172.995 178.764 173.315C177.64 174.188 176.265 174.678 174.842 174.713C174.744 174.715 174.647 174.715 174.55 174.712C173.753 174.696 172.966 174.536 172.225 174.24C171.769 174.057 171.275 173.853 170.744 173.628C165.791 171.522 157.891 167.532 151.427 161.363L151.87 160.677H151.871L155.721 154.724L155.791 154.613L155.983 154.318C155.988 154.32 155.993 154.322 155.998 154.323C156.388 154.472 164.891 157.723 170.134 160.351C171.129 160.849 172.006 161.325 172.689 161.753C172.691 161.751 172.692 161.748 172.694 161.746C172.945 161.392 181.872 148.845 188.361 144.203C189.564 143.343 190.937 142.75 192.389 142.466C194.121 142.126 197.255 141.577 201.081 141.198C201.559 141.151 202.046 141.106 202.544 141.065C202.55 141.064 202.557 141.064 202.563 141.063C202.641 141.056 202.72 141.05 202.799 141.044C203.182 141.013 203.571 140.984 203.965 140.957C205.915 140.826 207.981 140.754 210.089 140.78C210.432 140.784 210.775 140.791 211.118 140.8C211.188 140.802 211.256 140.804 211.326 140.806C211.333 140.806 211.341 140.807 211.349 140.807C211.391 140.808 211.435 140.809 211.477 140.811C211.555 140.813 211.634 140.817 211.712 140.82C211.903 140.826 212.094 140.835 212.285 140.843C214.535 140.937 216.776 141.181 218.994 141.575C219.564 141.677 220.128 141.792 220.686 141.92C221.344 142.07 221.985 142.286 222.6 142.565C223.951 143.182 225.158 144.076 226.141 145.19C228.723 148.103 232.838 153.644 235.59 161.79C236.378 164.125 237.003 166.511 237.46 168.931C238.296 173.337 235.338 177.566 231.017 178.125Z" fill="#2C34F1"/>
<path d="M203.905 141.505C203.887 141.546 203.868 141.588 203.85 141.63C202.355 144.985 201.327 148.529 200.795 152.163C200.467 154.415 200.326 156.705 200.19 158.916V158.918L199.868 164.161L199.763 165.882L199.611 168.378L199.205 174.992L199.15 175.881L199.002 178.295H198.772L198.921 175.881L198.978 174.946L199.385 168.316L199.566 165.375L199.649 164.021L199.962 158.918L199.963 158.902C200.099 156.684 200.239 154.39 200.57 152.13C201.103 148.49 202.13 144.94 203.623 141.578C203.646 141.522 203.671 141.466 203.697 141.41L203.905 141.505Z" fill="white"/>
<path d="M206.734 141.878C206.718 141.917 206.701 141.958 206.685 141.997C206.49 142.466 206.302 142.937 206.12 143.41C204.204 148.363 202.938 153.502 202.128 158.939C202.117 159.019 202.105 159.099 202.093 159.178C201.807 161.139 201.577 163.14 201.403 165.182C201.307 166.264 201.226 167.358 201.16 168.466C201.155 168.545 201.15 168.625 201.145 168.707C201.017 170.85 200.937 173.042 200.894 175.29C200.889 175.486 200.886 175.683 200.884 175.88C200.87 176.678 200.861 177.482 200.857 178.294H200.624C200.628 177.499 200.637 176.694 200.649 175.88C200.652 175.671 200.656 175.462 200.66 175.253C200.701 173.12 200.78 170.933 200.913 168.719C200.924 168.532 200.936 168.345 200.948 168.157C201.014 167.123 201.094 166.086 201.188 165.045C201.257 164.265 201.335 163.484 201.421 162.702C201.557 161.474 201.712 160.272 201.886 159.096C201.895 159.036 201.903 158.979 201.912 158.921C202.77 153.191 204.084 148.057 205.896 143.357C206.072 142.895 206.254 142.438 206.442 141.986C206.468 141.92 206.495 141.855 206.522 141.79L206.734 141.878Z" fill="white"/>
<path d="M209.415 141.658C209.405 141.695 209.397 141.733 209.387 141.77C209.339 141.959 209.292 142.149 209.245 142.34C207.224 150.58 206.355 159.088 205.751 167.487C205.738 167.66 205.726 167.831 205.714 168.003C205.598 169.653 205.488 171.297 205.386 172.936C205.361 173.328 205.336 173.721 205.311 174.113L205.281 174.579L205.224 175.468L205.207 175.749L205.046 178.294H204.817L204.979 175.734L204.987 175.604L205.044 174.715L205.054 174.565C205.114 173.605 205.176 172.642 205.237 171.676C205.33 170.252 205.427 168.823 205.529 167.39C205.544 167.193 205.557 166.995 205.572 166.796C206.167 158.724 207.028 150.56 208.941 142.629C209.006 142.36 209.072 142.091 209.139 141.822C209.158 141.748 209.176 141.674 209.195 141.6L209.415 141.658Z" fill="white"/>
<path d="M211.715 140.806C211.714 140.811 211.712 140.815 211.711 140.821C210.866 143.873 210.56 147.371 210.306 150.805C210.285 151.103 210.263 151.4 210.241 151.697C210.173 152.65 210.106 153.548 210.031 154.432C209.895 156.005 209.76 157.578 209.626 159.151C209.406 161.696 209.187 164.24 208.97 166.785C208.963 166.848 208.958 166.911 208.953 166.974C208.949 167.016 208.944 167.058 208.942 167.099C208.9 167.582 208.858 168.065 208.817 168.547C208.765 169.152 208.713 169.757 208.662 170.361C208.611 170.951 208.56 171.542 208.509 172.132C208.458 172.718 208.408 173.304 208.358 173.89C208.3 174.55 208.243 175.21 208.187 175.869C208.118 176.679 208.049 177.488 207.98 178.295H207.75C207.819 177.485 207.889 176.675 207.959 175.865C208.092 174.319 208.225 172.773 208.358 171.227C208.408 170.64 208.459 170.054 208.509 169.469C208.537 169.141 208.565 168.815 208.594 168.487C208.616 168.224 208.638 167.96 208.662 167.696C208.677 167.513 208.692 167.33 208.709 167.146C208.712 167.1 208.716 167.053 208.722 167.008C208.725 166.949 208.73 166.889 208.736 166.83C209.091 162.69 209.447 158.552 209.804 154.413C209.879 153.532 209.944 152.633 210.014 151.681C210.283 147.973 210.563 144.139 211.476 140.813C211.482 140.79 211.488 140.768 211.494 140.745L211.715 140.806Z" fill="white"/>
<path d="M231.017 178.125C229.056 178.379 226.927 178.523 224.936 178.392C224.599 178.374 224.238 178.343 223.856 178.294C223.679 178.273 223.497 178.246 223.311 178.216C223.295 178.214 223.278 178.211 223.263 178.208C222.66 178.109 222.064 177.972 221.478 177.798H221.477C221.477 177.801 221.478 177.804 221.478 177.807C221.5 177.969 221.521 178.132 221.543 178.294H210.707C210.734 177.881 210.757 177.468 210.777 177.055C210.779 177.001 210.781 176.948 210.783 176.893C210.785 176.845 210.788 176.798 210.789 176.751C210.802 176.456 210.812 176.162 210.82 175.87C210.886 173.421 210.793 171.044 210.47 168.891C210.415 168.526 210.354 168.169 210.286 167.818C210.23 167.526 210.176 167.23 210.127 166.933C210.121 166.893 210.114 166.852 210.108 166.811C210.098 166.752 210.088 166.691 210.079 166.631C209.716 164.155 209.564 161.652 209.626 159.15C209.688 156.357 209.915 153.57 210.307 150.804C210.764 147.447 211.424 144.12 212.284 140.843C214.534 140.937 216.776 141.181 218.993 141.575C219.563 141.677 220.127 141.792 220.685 141.92C221.343 142.07 221.984 142.286 222.599 142.565C223.95 143.182 225.157 144.076 226.14 145.19C228.722 148.103 232.837 153.644 235.589 161.79C236.377 164.125 237.002 166.511 237.459 168.931C238.296 173.337 235.338 177.566 231.017 178.125Z" fill="#6595F7"/>
<path d="M158.151 156.504C158.151 156.504 153.747 154.274 150.129 145.659C150.104 145.598 150.06 145.546 150.005 145.511C149.949 145.477 149.884 145.46 149.818 145.464C149.752 145.467 149.69 145.492 149.638 145.533C149.587 145.574 149.55 145.63 149.532 145.693C149.122 147.15 148.946 148.662 149.01 150.173C149.013 150.207 149.004 150.241 148.987 150.269C148.969 150.298 148.943 150.321 148.912 150.335C148.882 150.348 148.847 150.352 148.814 150.346C148.781 150.339 148.751 150.323 148.727 150.298C147.779 149.311 144.955 146.316 143.36 144.028C143.318 143.968 143.256 143.924 143.185 143.905C143.115 143.885 143.039 143.891 142.972 143.921C142.905 143.952 142.85 144.004 142.818 144.07C142.785 144.136 142.777 144.212 142.794 144.283C143.04 145.269 143.623 146.721 144.988 148.489C145.012 148.519 145.024 148.556 145.022 148.594C145.019 148.633 145.003 148.669 144.976 148.696C144.949 148.723 144.913 148.739 144.875 148.741C144.837 148.744 144.799 148.732 144.769 148.708C143.861 147.988 142.584 146.916 141.674 145.913C141.624 145.858 141.557 145.823 141.484 145.813C141.411 145.802 141.337 145.818 141.275 145.857C141.212 145.896 141.165 145.955 141.142 146.025C141.118 146.095 141.12 146.171 141.147 146.239C141.538 147.236 142.315 148.618 143.86 150.126C143.887 150.153 143.903 150.188 143.906 150.225C143.909 150.263 143.899 150.3 143.876 150.331C143.854 150.361 143.822 150.383 143.785 150.391C143.748 150.399 143.709 150.394 143.676 150.376C142.906 149.963 142.173 149.484 141.484 148.946C141.426 148.9 141.353 148.875 141.279 148.877C141.205 148.879 141.133 148.907 141.078 148.957C141.022 149.006 140.986 149.074 140.975 149.147C140.964 149.221 140.98 149.296 141.019 149.359C141.772 150.523 142.744 151.529 143.882 152.32C143.911 152.341 143.932 152.371 143.942 152.405C143.952 152.439 143.95 152.476 143.937 152.509C143.923 152.542 143.899 152.57 143.867 152.587C143.836 152.604 143.8 152.61 143.765 152.604C143.273 152.511 142.794 152.36 142.337 152.155C142.272 152.125 142.198 152.118 142.129 152.135C142.059 152.152 141.997 152.193 141.954 152.25C141.91 152.307 141.888 152.378 141.89 152.449C141.892 152.521 141.918 152.59 141.964 152.645C143.58 154.528 147.338 158.185 154.984 162.542L158.151 156.504Z" fill="#F59060"/>
<path d="M149.027 155.884C148.31 153.986 149.309 151.528 149.319 151.504L149.389 151.333L149.205 151.326C149.128 151.322 147.292 151.277 145.63 153.891L145.847 154.029C147.122 152.026 148.512 151.663 149.007 151.597C148.779 152.23 148.143 154.276 148.786 155.976L149.027 155.884Z" fill="#131313"/>
<path d="M197.912 163.71C198.23 164.749 198.356 166.24 198.34 168.026C198.325 169.522 198.213 171.225 198.03 173.044C198.02 173.139 198.01 173.235 198 173.331C197.953 173.778 197.903 174.23 197.849 174.688C197.802 175.082 197.753 175.48 197.7 175.881C197.598 176.675 197.485 177.482 197.365 178.295H187.905L188.231 175.881L189.284 168.048L189.586 165.81L189.962 163.013L189.98 162.883L189.975 162.888C189.971 162.893 189.966 162.898 189.962 162.903C189.644 163.238 185.146 167.953 180.862 171.616C180.584 171.853 180.307 172.087 180.032 172.314C179.609 172.663 179.19 172.999 178.781 173.316C177.652 174.192 176.27 174.682 174.841 174.713C174.743 174.715 174.646 174.715 174.549 174.712C173.758 174.694 172.977 174.534 172.242 174.24C171.779 174.055 171.276 173.848 170.739 173.62C165.785 171.51 157.898 167.523 151.443 161.363L151.882 160.685L155.799 154.627L155.801 154.625V154.623L155.996 154.323L155.999 154.318C155.999 154.318 164.763 157.653 170.133 160.342C171.128 160.84 172.008 161.317 172.693 161.746C172.697 161.748 172.7 161.751 172.704 161.753C172.704 161.753 181.794 148.911 188.377 144.203C189.58 143.342 190.953 142.75 192.404 142.466C194.137 142.126 197.271 141.577 201.097 141.198C201.097 141.198 197.604 151.322 197.409 158.918C197.364 160.713 197.501 162.365 197.912 163.71Z" fill="#6595F7"/>
<path d="M190.116 154.416H189.812V162.882H190.116V154.416Z" fill="#131313"/>
<path d="M203.798 175.881H184.218C182.643 175.881 181.216 174.602 181.029 173.024L179.696 161.776C179.509 160.198 180.634 158.919 182.208 158.919H201.788C203.362 158.919 204.79 160.198 204.977 161.776L206.31 173.024C206.497 174.602 205.372 175.881 203.798 175.881Z" fill="#131313"/>
<path d="M202.885 175.881H183.305C181.73 175.881 180.303 174.602 180.116 173.024L178.783 161.776C178.596 160.198 179.721 158.919 181.295 158.919H200.875C202.449 158.919 203.877 160.198 204.064 161.776L205.397 173.024C205.584 174.602 204.459 175.881 202.885 175.881Z" fill="#6445F1"/>
<path d="M192.098 170.042C193.389 169.788 194.203 168.399 193.916 166.94C193.629 165.481 192.349 164.504 191.058 164.758C189.767 165.012 188.953 166.401 189.241 167.86C189.528 169.319 190.807 170.296 192.098 170.042Z" fill="white"/>
<path d="M211.905 175.845C210.703 175.879 209.571 175.889 208.51 175.873C202.291 175.79 198.463 174.927 196.507 174.315C196.439 174.293 196.38 174.249 196.34 174.189C196.3 174.129 196.282 174.057 196.289 173.986C196.295 173.914 196.326 173.847 196.376 173.795C196.426 173.744 196.492 173.711 196.564 173.702C197.06 173.634 197.546 173.508 198.012 173.326C198.046 173.312 198.073 173.288 198.091 173.257C198.108 173.226 198.114 173.19 198.109 173.154C198.103 173.119 198.085 173.087 198.058 173.063C198.032 173.039 197.998 173.025 197.962 173.023C196.578 172.955 195.22 172.616 193.966 172.028C193.899 171.995 193.846 171.94 193.816 171.872C193.786 171.804 193.781 171.727 193.802 171.656C193.823 171.584 193.869 171.523 193.931 171.482C193.993 171.441 194.067 171.423 194.141 171.431C195.01 171.523 195.886 171.54 196.758 171.483C196.796 171.48 196.831 171.464 196.858 171.438C196.885 171.411 196.901 171.376 196.904 171.338C196.907 171.301 196.896 171.264 196.873 171.233C196.851 171.203 196.818 171.182 196.781 171.174C194.672 170.713 193.281 169.952 192.421 169.314C192.362 169.27 192.32 169.207 192.303 169.135C192.285 169.063 192.294 168.988 192.326 168.922C192.359 168.856 192.414 168.803 192.481 168.773C192.548 168.743 192.624 168.737 192.695 168.757C193.998 169.127 195.649 169.358 196.801 169.489C196.839 169.493 196.877 169.483 196.909 169.461C196.94 169.439 196.962 169.406 196.97 169.369C196.979 169.332 196.974 169.293 196.955 169.259C196.937 169.225 196.907 169.199 196.871 169.186C194.775 168.41 193.512 167.488 192.782 166.782C192.729 166.731 192.697 166.662 192.689 166.589C192.682 166.516 192.7 166.442 192.741 166.381C192.782 166.32 192.843 166.275 192.913 166.254C192.984 166.233 193.06 166.237 193.127 166.266C195.692 167.362 199.672 168.406 201 168.741C201.032 168.749 201.067 168.747 201.098 168.735C201.13 168.723 201.157 168.702 201.176 168.674C201.195 168.646 201.205 168.613 201.205 168.579C201.205 168.545 201.194 168.513 201.175 168.485C200.319 167.237 199.667 165.862 199.243 164.41C199.225 164.346 199.227 164.279 199.248 164.217C199.27 164.155 199.31 164.101 199.364 164.063C199.417 164.025 199.482 164.005 199.547 164.005C199.613 164.005 199.677 164.026 199.731 164.064C203.343 166.617 206.347 167.861 208.51 168.464C209.348 168.703 210.205 168.872 211.071 168.968L211.905 175.845Z" fill="#F59060"/>
<path d="M212.054 177.071L208.51 176.575V167.036L210.797 166.714L211.071 168.969L211.905 175.845L212.054 177.071Z" fill="#6595F7"/>
<path d="M221.199 177.951C216.288 177.951 208.565 176.738 208.486 176.725L208.357 176.705V166.919L208.471 166.889C211.245 166.159 225.23 166.01 225.824 166.004L225.827 166.308C225.684 166.31 211.66 166.459 208.662 167.156V176.444C209.713 176.606 216.947 177.69 221.476 177.646L221.479 177.95C221.387 177.951 221.293 177.951 221.199 177.951Z" fill="#131313"/>
<path d="M218.782 154.376L218.488 154.457L221.717 166.197L222.01 166.116L218.782 154.376Z" fill="#131313"/>
<path d="M207.136 142.005C205.561 141.988 203.997 141.739 202.494 141.269L202.591 140.98C202.644 140.998 207.921 142.731 211.269 140.713L211.426 140.974C210.126 141.757 208.576 142.005 207.136 142.005Z" fill="#131313"/>
<path d="M155.801 154.625L151.167 160.229L151.882 160.685L155.801 154.625Z" fill="#131313"/>
<path d="M181.133 161.689C181.44 161.689 181.688 161.441 181.688 161.134C181.688 160.828 181.44 160.58 181.133 160.58C180.827 160.58 180.579 160.828 180.579 161.134C180.579 161.441 180.827 161.689 181.133 161.689Z" fill="#131313"/>
<path d="M182.927 161.689C183.234 161.689 183.482 161.441 183.482 161.134C183.482 160.828 183.234 160.58 182.927 160.58C182.621 160.58 182.373 160.828 182.373 161.134C182.373 161.441 182.621 161.689 182.927 161.689Z" fill="#131313"/>
<path d="M201.393 132.802C200.412 132.802 199.612 131.751 199.612 130.459C199.612 129.167 200.411 128.116 201.393 128.116C202.375 128.116 203.174 129.167 203.174 130.459C203.174 131.751 202.375 132.802 201.393 132.802ZM201.393 128.443C200.592 128.443 199.939 129.348 199.939 130.459C199.939 131.571 200.591 132.476 201.393 132.476C202.195 132.476 202.848 131.571 202.848 130.459C202.848 129.348 202.195 128.443 201.393 128.443Z" fill="#2C34F1"/>
<path d="M205.66 132.802C204.678 132.802 203.879 131.751 203.879 130.459C203.879 129.167 204.678 128.116 205.66 128.116C206.642 128.116 207.441 129.167 207.441 130.459C207.441 131.751 206.642 132.802 205.66 132.802ZM205.66 128.443C204.858 128.443 204.205 129.348 204.205 130.459C204.205 131.571 204.858 132.476 205.66 132.476C206.462 132.476 207.114 131.571 207.114 130.459C207.114 129.348 206.462 128.443 205.66 128.443Z" fill="#2C34F1"/>
<path d="M203.067 130.613L202.955 130.306C202.982 130.297 203.613 130.071 204.115 130.313L203.973 130.606C203.597 130.426 203.072 130.611 203.067 130.613Z" fill="#2C34F1"/>
<path d="M211.899 130.423H211.898L207.267 130.383C207.246 130.383 207.224 130.379 207.205 130.37C207.185 130.362 207.167 130.35 207.152 130.335C207.137 130.32 207.125 130.302 207.117 130.282C207.109 130.262 207.104 130.241 207.104 130.219C207.105 130.198 207.109 130.177 207.117 130.157C207.125 130.137 207.138 130.119 207.153 130.104C207.168 130.089 207.186 130.077 207.206 130.069C207.226 130.061 207.247 130.057 207.268 130.057H207.27L211.901 130.097C211.922 130.097 211.943 130.101 211.963 130.11C211.983 130.118 212.001 130.13 212.016 130.145C212.031 130.16 212.043 130.178 212.051 130.198C212.059 130.218 212.063 130.239 212.063 130.261C212.063 130.282 212.059 130.304 212.05 130.323C212.042 130.343 212.03 130.361 212.015 130.376C211.999 130.391 211.981 130.403 211.962 130.411C211.942 130.419 211.92 130.423 211.899 130.423V130.423Z" fill="#2C34F1"/>
<path d="M212.303 137.769C211.919 137.769 211.543 137.655 211.224 137.442C210.904 137.228 210.655 136.925 210.508 136.57C210.361 136.215 210.323 135.825 210.398 135.448C210.473 135.071 210.658 134.725 210.929 134.454C211.201 134.182 211.547 133.997 211.924 133.922C212.3 133.847 212.691 133.886 213.046 134.033C213.401 134.18 213.704 134.429 213.917 134.748C214.131 135.067 214.245 135.443 214.245 135.827C214.244 136.342 214.039 136.836 213.675 137.2C213.311 137.564 212.818 137.768 212.303 137.769ZM212.303 134.211C211.983 134.211 211.671 134.306 211.405 134.484C211.139 134.661 210.932 134.913 210.81 135.209C210.687 135.504 210.655 135.829 210.718 136.142C210.78 136.456 210.934 136.744 211.16 136.97C211.386 137.196 211.674 137.349 211.987 137.412C212.301 137.474 212.626 137.442 212.921 137.32C213.216 137.198 213.468 136.99 213.646 136.725C213.824 136.459 213.918 136.147 213.918 135.827C213.918 135.399 213.747 134.988 213.445 134.685C213.142 134.382 212.731 134.212 212.303 134.211Z" fill="#6595F7"/>
<path d="M211.983 134.416C212.147 134.416 212.28 134.283 212.28 134.119C212.28 133.954 212.147 133.821 211.983 133.821C211.819 133.821 211.686 133.954 211.686 134.119C211.686 134.283 211.819 134.416 211.983 134.416Z" fill="#6595F7"/>
<path d="M163.426 126.857C159.65 126.857 155.959 125.737 152.819 123.64C149.68 121.542 147.233 118.56 145.788 115.072C144.343 111.584 143.965 107.745 144.702 104.042C145.438 100.339 147.257 96.9371 149.927 94.2672C152.596 91.5974 155.998 89.7792 159.701 89.0426C163.404 88.306 167.243 88.6841 170.731 90.129C174.22 91.574 177.201 94.0209 179.299 97.1603C181.397 100.3 182.516 103.991 182.516 107.767C182.51 112.828 180.497 117.68 176.918 121.259C173.339 124.838 168.487 126.851 163.426 126.857ZM163.426 89.2932C159.772 89.2932 156.2 90.3766 153.162 92.4065C150.124 94.4364 147.757 97.3215 146.358 100.697C144.96 104.073 144.594 107.787 145.307 111.371C146.02 114.954 147.779 118.246 150.363 120.829C152.946 123.413 156.238 125.172 159.822 125.885C163.405 126.598 167.119 126.232 170.495 124.834C173.871 123.435 176.756 121.068 178.786 118.03C180.815 114.992 181.899 111.42 181.899 107.767C181.893 102.869 179.945 98.1733 176.482 94.71C173.019 91.2468 168.323 89.2987 163.426 89.2932Z" fill="#6445F1"/>
<path d="M169.598 132.721C179.971 132.721 188.38 124.312 188.38 113.939C188.38 103.566 179.971 95.1572 169.598 95.1572C159.225 95.1572 150.816 103.566 150.816 113.939C150.816 124.312 159.225 132.721 169.598 132.721Z" fill="#2C34F1"/>
<path d="M171.5 102.71C169.139 105.51 166.399 107.967 163.359 110.009C163.143 114.594 161.697 119.037 159.173 122.871C163.261 120.738 167.912 119.926 172.481 120.549C174.705 117.73 177.692 115.609 181.086 114.437L171.5 102.71Z" fill="white"/>
<path d="M159.173 123.283C159.09 123.283 159.008 123.257 158.939 123.209C158.87 123.162 158.817 123.094 158.788 123.015C158.758 122.937 158.754 122.851 158.774 122.77C158.795 122.689 158.84 122.616 158.903 122.561L168.809 113.944C168.891 113.874 168.998 113.839 169.106 113.847C169.215 113.855 169.315 113.905 169.386 113.987C169.458 114.069 169.494 114.176 169.487 114.284C169.48 114.392 169.43 114.493 169.349 114.565L159.443 123.182C159.369 123.247 159.273 123.283 159.173 123.283Z" fill="#131313"/>
<path d="M169.519 115.412C170.377 115.412 171.073 114.716 171.073 113.858C171.073 113 170.377 112.304 169.519 112.304C168.661 112.304 167.965 113 167.965 113.858C167.965 114.716 168.661 115.412 169.519 115.412Z" fill="#131313"/>
<path d="M181.087 114.848C181.026 114.848 180.966 114.835 180.91 114.809C180.855 114.782 180.807 114.744 180.768 114.697L171.182 102.971C171.115 102.886 171.084 102.778 171.095 102.671C171.107 102.563 171.16 102.465 171.244 102.397C171.327 102.328 171.435 102.296 171.542 102.305C171.65 102.315 171.749 102.367 171.819 102.45L181.405 114.176C181.455 114.236 181.486 114.309 181.495 114.387C181.505 114.464 181.492 114.542 181.459 114.613C181.425 114.683 181.373 114.743 181.307 114.784C181.241 114.826 181.165 114.848 181.087 114.848Z" fill="#131313"/>
</svg>
