<svg width="231" height="301" viewBox="0 0 231 301" fill="none" xmlns="http://www.w3.org/2000/svg">
<path d="M4.51933 36H2.00859V15.3233H4.37164L15.478 31.2739V15.3233H17.9887V36H15.6257L4.51933 20.0494V36ZM34.966 33.7846H35.734V36H34.4047C32.3961 36 31.7168 35.1434 31.6872 33.6665C30.742 35.0252 29.2356 36.1772 26.6362 36.1772C23.3279 36.1772 21.0831 34.5231 21.0831 31.7761C21.0831 28.7632 23.1803 27.0795 27.1384 27.0795H31.5691V26.0457C31.5691 24.0961 30.1808 22.9146 27.8177 22.9146C25.691 22.9146 24.2732 23.9189 23.9778 25.4549H21.5557C21.9101 22.5011 24.3027 20.7583 27.9359 20.7583C31.7758 20.7583 33.9912 22.6783 33.9912 26.1933V32.7803C33.9912 33.5779 34.2866 33.7846 34.966 33.7846ZM31.5691 29.8561V29.1176H26.9021C24.7458 29.1176 23.5347 29.9151 23.5347 31.6284C23.5347 33.1053 24.8049 34.1096 26.8134 34.1096C29.8263 34.1096 31.5691 32.3668 31.5691 29.8561ZM38.7185 32.0714V23.1509H36.0009V20.9356H38.7185V16.7116H41.1406V20.9356H45.0396V23.1509H41.1406V32.0419C41.1406 33.312 41.5837 33.7846 42.8833 33.7846H45.2759V36H42.647C39.7523 36 38.7185 34.7299 38.7185 32.0714ZM57.9198 28.4678V20.9356H60.342V36H58.2448L57.9198 33.9914C57.0337 35.1139 55.5863 36.1772 53.1051 36.1772C49.7969 36.1772 47.168 34.3163 47.168 29.3244V20.9356H49.5901V29.1767C49.5901 32.3077 51.0079 33.9619 53.5187 33.9619C56.2657 33.9619 57.9198 31.8647 57.9198 28.4678ZM70.6148 20.9356H71.2941V23.2986H70.0831C66.9225 23.2986 66.0659 25.9275 66.0659 28.3201V36H63.6438V20.9356H65.741L66.0659 23.21C66.7748 22.058 67.9268 20.9356 70.6148 20.9356ZM86.1961 33.7846H86.9641V36H85.6349C83.6263 36 82.9469 35.1434 82.9174 33.6665C81.9722 35.0252 80.4657 36.1772 77.8664 36.1772C74.5581 36.1772 72.3132 34.5231 72.3132 31.7761C72.3132 28.7632 74.4104 27.0795 78.3685 27.0795H82.7992V26.0457C82.7992 24.0961 81.4109 22.9146 79.0479 22.9146C76.9211 22.9146 75.5033 23.9189 75.2079 25.4549H72.7858C73.1403 22.5011 75.5329 20.7583 79.166 20.7583C83.006 20.7583 85.2214 22.6783 85.2214 26.1933V32.7803C85.2214 33.5779 85.5167 33.7846 86.1961 33.7846ZM82.7992 29.8561V29.1176H78.1322C75.9759 29.1176 74.7649 29.9151 74.7649 31.6284C74.7649 33.1053 76.035 34.1096 78.0436 34.1096C81.0565 34.1096 82.7992 32.3668 82.7992 29.8561ZM88.8262 36V15.3233H91.2483V36H88.8262ZM23.424 76H2.88V42.4H10.08V69.808H23.424V76ZM50.0595 70.288H50.8275V76H47.3715C43.8675 76 42.7635 74.32 42.8115 71.968C41.0835 74.704 38.5875 76.288 34.7475 76.288C29.4195 76.288 25.5795 73.744 25.5795 69.04C25.5795 63.808 29.5155 60.832 36.9075 60.832H41.8035V59.632C41.8035 57.424 40.2195 55.984 37.3875 55.984C34.7475 55.984 32.9715 57.184 32.6835 59.008H26.1555C26.6355 54.208 31.0515 51.04 37.5795 51.04C44.4915 51.04 48.4755 54.112 48.4755 60.016V68.752C48.4755 70.048 49.0035 70.288 50.0595 70.288ZM41.8035 65.824V65.344H36.8595C34.0275 65.344 32.3955 66.496 32.3955 68.56C32.3955 70.288 33.7875 71.392 36.0435 71.392C39.5955 71.392 41.7555 69.184 41.8035 65.824ZM67.6058 51.04C72.9338 51.04 77.4938 53.872 77.4938 62.32V76H70.7258V62.992C70.7258 58.816 69.1418 56.608 65.7338 56.608C62.2298 56.608 60.2138 59.104 60.2138 63.376V76H53.4458V51.328H59.3498L59.9738 54.4C61.5578 52.48 63.8138 51.04 67.6058 51.04ZM99.9023 54.736L100.478 51.328H106.43V75.28C106.43 81.376 102.686 85.888 93.2303 85.888C86.3663 85.888 81.6623 82.768 81.3263 77.056H88.1423C88.7663 79.408 90.6383 80.752 93.7583 80.752C97.5503 80.752 99.8063 78.88 99.8063 75.04V72.448C98.1743 74.512 95.7263 75.856 92.2703 75.856C85.6463 75.904 80.7983 71.056 80.7983 63.424C80.7983 55.888 85.6463 50.992 92.2223 50.992C95.7743 50.992 98.2703 52.576 99.9023 54.736ZM93.7583 70.432C97.4543 70.432 99.7583 67.6 99.7583 63.52C99.7583 59.392 97.4543 56.464 93.7583 56.464C90.0623 56.464 87.7103 59.344 87.7103 63.472C87.7103 67.6 90.0623 70.432 93.7583 70.432ZM127.613 63.664V51.328H134.381V76H128.381L127.757 73.024C126.173 74.944 124.013 76.288 120.509 76.288C115.421 76.288 110.717 73.744 110.717 65.008V51.328H117.485V64.096C117.485 68.512 118.925 70.672 122.285 70.672C125.645 70.672 127.613 68.224 127.613 63.664ZM162.606 70.288H163.374V76H159.918C156.414 76 155.31 74.32 155.358 71.968C153.63 74.704 151.134 76.288 147.294 76.288C141.966 76.288 138.126 73.744 138.126 69.04C138.126 63.808 142.062 60.832 149.454 60.832H154.35V59.632C154.35 57.424 152.766 55.984 149.934 55.984C147.294 55.984 145.518 57.184 145.23 59.008H138.702C139.182 54.208 143.598 51.04 150.126 51.04C157.038 51.04 161.022 54.112 161.022 60.016V68.752C161.022 70.048 161.55 70.288 162.606 70.288ZM154.35 65.824V65.344H149.406C146.574 65.344 144.942 66.496 144.942 68.56C144.942 70.288 146.334 71.392 148.59 71.392C152.142 71.392 154.302 69.184 154.35 65.824ZM184.137 54.736L184.713 51.328H190.665V75.28C190.665 81.376 186.921 85.888 177.465 85.888C170.601 85.888 165.897 82.768 165.561 77.056H172.377C173.001 79.408 174.873 80.752 177.993 80.752C181.785 80.752 184.041 78.88 184.041 75.04V72.448C182.409 74.512 179.961 75.856 176.505 75.856C169.881 75.904 165.033 71.056 165.033 63.424C165.033 55.888 169.881 50.992 176.457 50.992C180.009 50.992 182.505 52.576 184.137 54.736ZM177.993 70.432C181.689 70.432 183.993 67.6 183.993 63.52C183.993 59.392 181.689 56.464 177.993 56.464C174.297 56.464 171.945 59.344 171.945 63.472C171.945 67.6 174.297 70.432 177.993 70.432ZM207.575 76.288C199.367 76.288 194.423 71.344 194.423 63.712C194.423 56.032 199.463 51.04 207.095 51.04C214.487 51.04 219.479 55.648 219.575 62.896C219.575 63.616 219.527 64.432 219.383 65.2H201.479V65.536C201.623 69.04 203.879 71.152 207.287 71.152C210.023 71.152 211.943 69.952 212.519 67.648H219.191C218.423 72.448 214.151 76.288 207.575 76.288ZM201.623 60.784H212.759C212.279 57.76 210.215 56.08 207.143 56.08C204.215 56.08 202.007 57.856 201.623 60.784Z" fill="white"/>
<circle opacity="0.5" cx="113.72" cy="189.536" r="80.2452" fill="#FFC095"/>
<path d="M66.6347 146.577H15.1603C14.614 146.576 14.0902 146.359 13.7038 145.973C13.3175 145.586 13.1002 145.063 13.0996 144.516V107.191C13.1003 106.645 13.3176 106.121 13.7039 105.735C14.0902 105.349 14.614 105.131 15.1603 105.131H66.6347C67.181 105.132 67.7047 105.349 68.091 105.735C68.4772 106.121 68.6945 106.645 68.6952 107.191V144.516C68.6946 145.063 68.4773 145.586 68.091 145.973C67.7048 146.359 67.181 146.576 66.6347 146.577ZM15.1603 105.902C14.8184 105.902 14.4907 106.038 14.2489 106.28C14.0072 106.522 13.8711 106.85 13.8707 107.191V144.516C13.8711 144.858 14.0071 145.186 14.2489 145.428C14.4906 145.669 14.8184 145.805 15.1603 145.806H66.6347C66.9766 145.805 67.3044 145.669 67.5462 145.428C67.7879 145.186 67.9239 144.858 67.9243 144.516V107.191C67.9239 106.85 67.7879 106.522 67.5461 106.28C67.3044 106.038 66.9766 105.902 66.6347 105.902H15.1603Z" fill="#6595F7"/>
<path d="M72.1035 110.985V148.31C72.1035 148.754 71.9271 149.181 71.613 149.495C71.2989 149.809 70.8728 149.985 70.4286 149.986H18.9542C18.51 149.985 18.0841 149.809 17.77 149.495C17.4559 149.181 17.2794 148.755 17.2793 148.311V110.985C17.2794 110.541 17.4559 110.115 17.77 109.801C18.0841 109.487 18.5101 109.311 18.9542 109.311H70.4286C70.8728 109.311 71.2987 109.487 71.6128 109.801C71.9269 110.115 72.1034 110.541 72.1035 110.985Z" fill="#6445F1"/>
<path d="M72.1035 110.985V115.652H17.2793V110.985C17.2794 110.541 17.4559 110.115 17.77 109.801C18.0841 109.487 18.5101 109.311 18.9542 109.311H70.4286C70.8728 109.311 71.2987 109.487 71.6128 109.801C71.9269 110.115 72.1034 110.541 72.1035 110.985Z" fill="#131313"/>
<path d="M20.5583 113.366C21.0802 113.366 21.5034 112.943 21.5034 112.421C21.5034 111.899 21.0802 111.476 20.5583 111.476C20.0364 111.476 19.6133 111.899 19.6133 112.421C19.6133 112.943 20.0364 113.366 20.5583 113.366Z" fill="white"/>
<path d="M23.8493 113.366C24.3713 113.366 24.7944 112.943 24.7944 112.421C24.7944 111.899 24.3713 111.476 23.8493 111.476C23.3274 111.476 22.9043 111.899 22.9043 112.421C22.9043 112.943 23.3274 113.366 23.8493 113.366Z" fill="white"/>
<path d="M27.1423 113.366C27.6642 113.366 28.0873 112.943 28.0873 112.421C28.0873 111.899 27.6642 111.476 27.1423 111.476C26.6204 111.476 26.1973 111.899 26.1973 112.421C26.1973 112.943 26.6204 113.366 27.1423 113.366Z" fill="white"/>
<path d="M29.0744 118.305H19.6133V120.256H29.0744V118.305Z" fill="white"/>
<path d="M69.5204 143.948H19.6133V145.21H69.5204V143.948Z" fill="white"/>
<path d="M48.9357 146.367H19.6133V147.629H48.9357V146.367Z" fill="white"/>
<path d="M217.736 233.505H166.262C165.715 233.504 165.192 233.287 164.805 232.9C164.419 232.514 164.202 231.99 164.201 231.444V194.119C164.202 193.573 164.419 193.049 164.805 192.663C165.192 192.276 165.715 192.059 166.262 192.059H217.736C218.283 192.059 218.806 192.276 219.193 192.663C219.579 193.049 219.796 193.573 219.797 194.119V231.444C219.796 231.99 219.579 232.514 219.193 232.9C218.806 233.287 218.283 233.504 217.736 233.505ZM166.262 192.83C165.92 192.83 165.592 192.966 165.35 193.208C165.109 193.45 164.973 193.777 164.972 194.119V231.444C164.973 231.786 165.109 232.113 165.35 232.355C165.592 232.597 165.92 232.733 166.262 232.733H217.736C218.078 232.733 218.406 232.597 218.648 232.355C218.889 232.113 219.025 231.786 219.026 231.444V194.119C219.025 193.777 218.889 193.45 218.648 193.208C218.406 192.966 218.078 192.83 217.736 192.83H166.262Z" fill="#6595F7"/>
<path d="M223.205 197.912V235.237C223.205 235.681 223.029 236.107 222.714 236.421C222.4 236.735 221.974 236.912 221.53 236.912H170.056C169.612 236.912 169.186 236.735 168.872 236.421C168.557 236.107 168.381 235.681 168.381 235.237V197.912C168.381 197.468 168.558 197.042 168.872 196.728C169.186 196.414 169.612 196.237 170.056 196.237H221.53C221.974 196.237 222.4 196.414 222.714 196.728C223.029 197.042 223.205 197.468 223.205 197.912Z" fill="#6445F1"/>
<path d="M223.205 197.912V202.579H168.381V197.912C168.381 197.468 168.558 197.042 168.872 196.728C169.186 196.414 169.612 196.237 170.056 196.237H221.53C221.974 196.237 222.4 196.414 222.714 196.728C223.029 197.042 223.205 197.468 223.205 197.912Z" fill="#131313"/>
<path d="M171.66 200.293C172.182 200.293 172.605 199.87 172.605 199.348C172.605 198.826 172.182 198.403 171.66 198.403C171.138 198.403 170.715 198.826 170.715 199.348C170.715 199.87 171.138 200.293 171.66 200.293Z" fill="white"/>
<path d="M174.951 200.293C175.473 200.293 175.896 199.87 175.896 199.348C175.896 198.826 175.473 198.403 174.951 198.403C174.429 198.403 174.006 198.826 174.006 199.348C174.006 199.87 174.429 200.293 174.951 200.293Z" fill="white"/>
<path d="M178.244 200.293C178.766 200.293 179.189 199.87 179.189 199.348C179.189 198.826 178.766 198.403 178.244 198.403C177.722 198.403 177.299 198.826 177.299 199.348C177.299 199.87 177.722 200.293 178.244 200.293Z" fill="white"/>
<path d="M180.176 205.232H170.715V207.184H180.176V205.232Z" fill="white"/>
<path d="M220.622 230.876H170.715V232.138H220.622V230.876Z" fill="white"/>
<path d="M200.037 233.295H170.715V234.557H200.037V233.295Z" fill="white"/>
<path d="M191.99 159.622H140.516C139.969 159.621 139.446 159.404 139.059 159.018C138.673 158.631 138.456 158.107 138.455 157.561V120.236C138.456 119.69 138.673 119.166 139.059 118.78C139.446 118.394 139.969 118.176 140.516 118.176H191.99C192.536 118.176 193.06 118.394 193.446 118.78C193.833 119.166 194.05 119.69 194.051 120.236V157.561C194.05 158.107 193.833 158.631 193.446 159.018C193.06 159.404 192.536 159.621 191.99 159.622ZM140.516 118.947C140.174 118.947 139.846 119.083 139.604 119.325C139.363 119.567 139.227 119.894 139.226 120.236V157.561C139.227 157.903 139.363 158.231 139.604 158.473C139.846 158.714 140.174 158.85 140.516 158.851H191.99C192.332 158.85 192.66 158.714 192.901 158.473C193.143 158.231 193.279 157.903 193.28 157.561V120.236C193.279 119.894 193.143 119.567 192.901 119.325C192.66 119.083 192.332 118.947 191.99 118.947H140.516Z" fill="#6595F7"/>
<path d="M197.459 124.03V161.355C197.459 161.799 197.282 162.225 196.968 162.539C196.654 162.854 196.228 163.03 195.784 163.03H144.31C143.866 163.03 143.44 162.854 143.125 162.539C142.811 162.225 142.635 161.799 142.635 161.355V124.03C142.635 123.586 142.811 123.16 143.125 122.846C143.44 122.532 143.866 122.356 144.31 122.355H195.784C196.228 122.356 196.654 122.532 196.968 122.846C197.282 123.16 197.459 123.586 197.459 124.03Z" fill="#6595F7"/>
<path d="M197.459 124.03V128.697H142.635V124.03C142.635 123.586 142.811 123.16 143.125 122.846C143.44 122.532 143.866 122.356 144.31 122.355H195.784C196.228 122.356 196.654 122.532 196.968 122.846C197.282 123.16 197.459 123.586 197.459 124.03Z" fill="#1D6DEC"/>
<path d="M145.914 126.411C146.436 126.411 146.859 125.987 146.859 125.466C146.859 124.944 146.436 124.521 145.914 124.521C145.392 124.521 144.969 124.944 144.969 125.466C144.969 125.987 145.392 126.411 145.914 126.411Z" fill="white"/>
<path d="M149.207 126.411C149.729 126.411 150.152 125.987 150.152 125.466C150.152 124.944 149.729 124.521 149.207 124.521C148.685 124.521 148.262 124.944 148.262 125.466C148.262 125.987 148.685 126.411 149.207 126.411Z" fill="white"/>
<path d="M152.498 126.411C153.02 126.411 153.443 125.987 153.443 125.466C153.443 124.944 153.02 124.521 152.498 124.521C151.976 124.521 151.553 124.944 151.553 125.466C151.553 125.987 151.976 126.411 152.498 126.411Z" fill="white"/>
<path d="M154.43 131.35H144.969V133.301H154.43V131.35Z" fill="white"/>
<path d="M194.876 156.993H144.969V158.255H194.876V156.993Z" fill="white"/>
<path d="M174.291 159.412H144.969V160.674H174.291V159.412Z" fill="white"/>
<path d="M73.7478 252.315H22.2736C21.7272 252.314 21.2034 252.097 20.8171 251.71C20.4308 251.324 20.2135 250.8 20.2129 250.254V212.929C20.2135 212.382 20.4309 211.859 20.8172 211.472C21.2035 211.086 21.7273 210.869 22.2736 210.868H73.7478C74.2941 210.869 74.8179 211.086 75.2042 211.472C75.5905 211.859 75.8078 212.382 75.8084 212.929V250.253C75.808 250.8 75.5907 251.324 75.2044 251.71C74.8181 252.097 74.2942 252.314 73.7478 252.315ZM22.2736 211.639C21.9317 211.64 21.6039 211.776 21.3622 212.017C21.1204 212.259 20.9844 212.587 20.984 212.929V250.253C20.9844 250.595 21.1204 250.923 21.3621 251.165C21.6039 251.407 21.9317 251.543 22.2736 251.543H73.7478C74.0897 251.543 74.4174 251.407 74.6592 251.165C74.9009 250.923 75.037 250.595 75.0374 250.253V212.929C75.037 212.587 74.9009 212.259 74.6592 212.017C74.4174 211.776 74.0896 211.64 73.7478 211.639H22.2736Z" fill="#6595F7"/>
<path d="M79.2169 216.723V254.048C79.2168 254.492 79.0403 254.918 78.7262 255.232C78.4121 255.546 77.9862 255.723 77.542 255.723H26.0677C25.6234 255.723 25.1975 255.546 24.8833 255.232C24.5692 254.918 24.3927 254.492 24.3926 254.048V216.723C24.3927 216.279 24.5692 215.853 24.8834 215.539C25.1975 215.224 25.6235 215.048 26.0677 215.048H77.542C77.9862 215.048 78.4121 215.224 78.7262 215.539C79.0403 215.853 79.2168 216.279 79.2169 216.723Z" fill="#6595F7"/>
<path d="M79.2165 216.723V221.389H24.3926V216.723C24.3927 216.279 24.5692 215.853 24.8834 215.539C25.1975 215.224 25.6235 215.048 26.0677 215.048H77.5416C77.9858 215.048 78.4117 215.224 78.7258 215.539C79.0399 215.853 79.2164 216.279 79.2165 216.723Z" fill="#1D6DEC"/>
<path d="M27.6716 219.103C28.1935 219.103 28.6166 218.68 28.6166 218.158C28.6166 217.636 28.1935 217.213 27.6716 217.213C27.1497 217.213 26.7266 217.636 26.7266 218.158C26.7266 218.68 27.1497 219.103 27.6716 219.103Z" fill="white"/>
<path d="M30.9626 219.103C31.4845 219.103 31.9077 218.68 31.9077 218.158C31.9077 217.636 31.4845 217.213 30.9626 217.213C30.4407 217.213 30.0176 217.636 30.0176 218.158C30.0176 218.68 30.4407 219.103 30.9626 219.103Z" fill="white"/>
<path d="M34.2556 219.103C34.7775 219.103 35.2006 218.68 35.2006 218.158C35.2006 217.636 34.7775 217.213 34.2556 217.213C33.7337 217.213 33.3105 217.636 33.3105 218.158C33.3105 218.68 33.7337 219.103 34.2556 219.103Z" fill="white"/>
<path d="M36.1877 224.042H26.7266V225.993H36.1877V224.042Z" fill="white"/>
<path d="M76.6337 249.687H26.7266V250.948H76.6337V249.687Z" fill="white"/>
<path d="M56.049 252.104H26.7266V253.366H56.049V252.104Z" fill="white"/>
<path d="M147.59 249.41L145.31 245.747L139.184 253.472L141.938 257.056L147.59 249.41Z" fill="#F59060"/>
<path d="M153.475 257.499L154.024 258.415L144.076 270.987C143.85 270.715 143.659 270.416 143.505 270.098C143.21 269.48 143.04 268.81 143.004 268.126C142.968 267.442 143.068 266.757 143.297 266.112C143.438 265.73 143.548 265.337 143.626 264.938C144.439 260.811 141.609 256.968 141.609 256.968L147.589 249.41L153.475 257.499Z" fill="#FCB913"/>
<path d="M153.475 257.5L154.024 258.416L144.076 270.987C143.851 270.715 143.659 270.417 143.506 270.099L153.475 257.5Z" fill="#131313"/>
<path d="M143.416 256.16C144.495 258.404 146.769 263.867 143.627 264.937C144.44 260.811 141.61 256.967 141.61 256.967C141.61 256.967 140.959 255.587 141.879 255.254C142.039 255.203 142.21 255.193 142.375 255.223C142.54 255.254 142.695 255.326 142.825 255.431C143.08 255.621 143.283 255.872 143.416 256.16Z" fill="white"/>
<path d="M145.839 262.932C145.85 262.918 145.857 262.901 145.861 262.883C145.865 262.866 145.865 262.847 145.861 262.83C145.851 262.767 145.804 262.723 145.757 262.732C145.056 262.863 143.772 263.686 143.717 263.721C143.695 263.74 143.68 263.765 143.674 263.793C143.669 263.821 143.673 263.85 143.685 263.875C143.711 263.933 143.766 263.957 143.809 263.929C143.822 263.921 145.121 263.087 145.795 262.96C145.812 262.956 145.828 262.946 145.839 262.932Z" fill="#131313"/>
<path d="M145.752 259.866C145.763 259.849 145.771 259.831 145.775 259.811C145.778 259.792 145.778 259.771 145.773 259.752C145.759 259.688 145.709 259.645 145.662 259.657C144.752 259.9 143.592 261.53 143.543 261.599C143.527 261.625 143.52 261.655 143.522 261.685C143.524 261.715 143.535 261.744 143.554 261.767C143.561 261.778 143.57 261.787 143.582 261.793C143.593 261.799 143.605 261.803 143.618 261.803C143.63 261.803 143.643 261.8 143.654 261.794C143.666 261.788 143.675 261.78 143.682 261.769C143.694 261.753 144.855 260.122 145.712 259.892C145.728 259.888 145.742 259.879 145.752 259.866Z" fill="#131313"/>
<path d="M143.035 259.595C143.04 259.589 143.043 259.583 143.047 259.576C143.054 259.562 143.756 258.125 144.567 257.363C144.587 257.339 144.599 257.31 144.601 257.279C144.603 257.249 144.596 257.218 144.58 257.191C144.547 257.134 144.489 257.116 144.45 257.153C143.611 257.94 142.915 259.368 142.886 259.428C142.873 259.456 142.87 259.488 142.876 259.519C142.882 259.549 142.897 259.577 142.919 259.599C142.926 259.608 142.936 259.614 142.946 259.618C142.956 259.623 142.967 259.625 142.978 259.624C142.989 259.624 143 259.621 143.01 259.616C143.02 259.611 143.028 259.604 143.035 259.595Z" fill="#131313"/>
<path d="M143.561 255.256C143.575 255.234 143.584 255.208 143.586 255.182C143.588 255.155 143.583 255.129 143.572 255.105C143.544 255.04 143.486 255.011 143.441 255.039C142.982 255.334 141.791 257.107 141.741 257.182C141.725 257.21 141.718 257.242 141.721 257.274C141.724 257.306 141.737 257.336 141.758 257.361C141.765 257.373 141.775 257.382 141.786 257.389C141.798 257.395 141.811 257.399 141.824 257.399C141.838 257.4 141.851 257.397 141.863 257.39C141.875 257.384 141.885 257.375 141.893 257.364C141.905 257.346 143.111 255.551 143.541 255.274C143.549 255.269 143.555 255.263 143.561 255.256Z" fill="#131313"/>
<path d="M140.127 258.26C139.866 258.153 139.671 257.876 139.547 257.435C139.426 257.008 139.444 256.69 139.608 256.493C140.116 255.872 141.818 256.785 142.007 256.889L142.154 256.97L142.053 257.101C142.05 257.105 142.042 257.115 142.03 257.13C141.862 257.343 140.857 258.56 140.127 258.26ZM139.732 257.381C139.831 257.733 139.971 257.941 140.161 258.019C140.664 258.228 141.436 257.476 141.802 257.041C141.233 256.755 140.084 256.294 139.756 256.695L139.753 256.699C139.648 256.832 139.641 257.055 139.732 257.381V257.381Z" fill="#131313"/>
<path d="M141.86 259.184C141.75 259.145 141.651 259.079 141.572 258.993C141.493 258.908 141.436 258.804 141.406 258.691C141.214 258.008 141.872 257.03 141.948 256.921L142.044 256.782L142.11 256.975C142.167 257.143 142.658 258.613 142.353 259.083C142.346 259.094 142.338 259.104 142.331 259.113C142.229 259.242 142.071 259.267 141.86 259.184ZM141.585 258.634C141.607 258.707 141.647 258.774 141.7 258.829C141.754 258.883 141.82 258.924 141.893 258.947C142.12 259.036 142.182 258.941 142.202 258.909C142.361 258.666 142.184 257.839 142.003 257.254C141.792 257.6 141.476 258.241 141.585 258.634Z" fill="#131313"/>
<path d="M144.372 259.747C144.392 259.719 144.4 259.685 144.395 259.651C144.387 259.568 144.171 257.587 143.148 257.447C142.278 257.328 142.108 256.969 142.106 256.965C142.079 256.903 142.021 256.872 141.976 256.898C141.953 256.916 141.936 256.941 141.929 256.97C141.922 256.999 141.926 257.029 141.938 257.056C141.958 257.107 142.156 257.562 143.153 257.696C144.01 257.811 144.212 259.64 144.214 259.659C144.221 259.725 144.267 259.778 144.318 259.776C144.328 259.775 144.338 259.772 144.348 259.767C144.357 259.762 144.365 259.755 144.372 259.747Z" fill="#131313"/>
<path d="M146.398 247.497L140.214 254.815L139.777 254.246L146.398 247.497Z" fill="#131313"/>
<path d="M89.9222 248.177L87.642 244.514L81.5156 252.238L84.2703 255.823L89.9222 248.177Z" fill="#F59060"/>
<path d="M95.8069 256.267L96.3559 257.183L86.408 269.754C86.1824 269.482 85.9908 269.184 85.8374 268.866C85.542 268.248 85.3716 267.577 85.3358 266.893C85.3 266.209 85.3996 265.525 85.6289 264.879C85.7697 264.497 85.8797 264.105 85.9581 263.705C86.7714 259.579 83.9414 255.735 83.9414 255.735L89.9209 248.178L95.8069 256.267Z" fill="#FCB913"/>
<path d="M95.8073 256.267L96.3564 257.183L86.4084 269.754C86.1828 269.482 85.9913 269.184 85.8379 268.865L95.8073 256.267Z" fill="#131313"/>
<path d="M85.7485 254.928C86.827 257.171 89.1015 262.635 85.9588 263.704C86.7721 259.578 83.9421 255.735 83.9421 255.735C83.9421 255.735 83.2913 254.354 84.2115 254.021C84.3715 253.971 84.5416 253.96 84.7067 253.991C84.8717 254.022 85.0266 254.093 85.1574 254.198C85.412 254.388 85.6152 254.639 85.7485 254.928Z" fill="white"/>
<path d="M88.1712 261.7C88.1818 261.685 88.1892 261.669 88.1931 261.651C88.1969 261.633 88.197 261.615 88.1935 261.597C88.183 261.534 88.1361 261.49 88.0887 261.499C87.3879 261.63 86.1038 262.454 86.049 262.489C86.0272 262.507 86.0122 262.532 86.0065 262.56C86.0008 262.588 86.0046 262.617 86.0175 262.643C86.0431 262.7 86.0982 262.724 86.1409 262.697C86.1537 262.688 87.4533 261.854 88.1266 261.727C88.1443 261.724 88.1601 261.714 88.1712 261.7Z" fill="#131313"/>
<path d="M88.0839 258.633C88.0953 258.617 88.1032 258.598 88.1068 258.579C88.1105 258.559 88.1099 258.539 88.105 258.52C88.0909 258.455 88.0409 258.412 87.9937 258.425C87.0829 258.667 85.9236 260.298 85.8746 260.367C85.859 260.393 85.8518 260.423 85.8539 260.453C85.856 260.483 85.8673 260.512 85.8863 260.535C85.8932 260.546 85.9026 260.555 85.9137 260.561C85.9248 260.567 85.9372 260.57 85.9499 260.57C85.9626 260.571 85.9752 260.568 85.9865 260.562C85.9977 260.556 86.0074 260.547 86.0146 260.537C86.0261 260.521 87.1869 258.889 88.0444 258.66C88.0601 258.656 88.074 258.646 88.0839 258.633Z" fill="#131313"/>
<path d="M85.3652 258.362C85.3698 258.356 85.3737 258.349 85.377 258.343C85.3839 258.328 86.0861 256.891 86.8971 256.13C86.9169 256.106 86.9288 256.076 86.9311 256.046C86.9334 256.015 86.926 255.984 86.9099 255.958C86.8775 255.9 86.8192 255.883 86.7797 255.92C85.9414 256.707 85.2449 258.135 85.2157 258.195C85.2034 258.223 85.2 258.255 85.206 258.286C85.2119 258.316 85.227 258.344 85.2491 258.366C85.2565 258.375 85.2657 258.381 85.2759 258.385C85.2861 258.39 85.2972 258.392 85.3083 258.391C85.3193 258.391 85.3302 258.388 85.34 258.383C85.3499 258.378 85.3585 258.37 85.3652 258.362Z" fill="#131313"/>
<path d="M85.8928 254.023C85.9074 254 85.9161 253.975 85.918 253.948C85.92 253.922 85.9151 253.896 85.9038 253.871C85.8764 253.807 85.8178 253.777 85.7731 253.806C85.314 254.101 84.1232 255.874 84.0728 255.948C84.0572 255.976 84.0504 256.009 84.0534 256.041C84.0565 256.073 84.0691 256.103 84.0897 256.128C84.0968 256.139 84.1066 256.149 84.1183 256.155C84.1299 256.162 84.1431 256.166 84.1565 256.166C84.1699 256.166 84.1832 256.163 84.1951 256.157C84.207 256.151 84.2172 256.142 84.2247 256.13C84.2367 256.112 85.4433 254.318 85.8731 254.041C85.8806 254.036 85.8873 254.03 85.8928 254.023Z" fill="#131313"/>
<path d="M82.4589 257.027C82.1984 256.92 82.003 256.642 81.8787 256.201C81.7585 255.775 81.7761 255.456 81.9403 255.26C82.4484 254.639 84.1499 255.551 84.3391 255.655L84.4857 255.736L84.3852 255.868C84.3821 255.872 84.3744 255.882 84.3625 255.897C84.1942 256.109 83.1888 257.327 82.4589 257.027ZM82.0643 256.148C82.1628 256.499 82.3031 256.708 82.4929 256.786C82.9964 256.994 83.768 256.243 84.1337 255.808C83.5653 255.522 82.4162 255.06 82.0885 255.461L82.0851 255.465C81.9798 255.599 81.9731 255.822 82.0643 256.148Z" fill="#131313"/>
<path d="M84.1924 257.95C84.0823 257.911 83.9834 257.846 83.9043 257.76C83.8251 257.674 83.7681 257.57 83.7382 257.457C83.5458 256.775 84.2045 255.796 84.2802 255.687L84.3759 255.549L84.4418 255.741C84.4994 255.91 84.9901 257.38 84.6846 257.85C84.6779 257.86 84.6707 257.87 84.663 257.88C84.5608 258.009 84.4029 258.033 84.1924 257.95ZM83.9177 257.4C83.9394 257.474 83.9788 257.541 84.0325 257.595C84.0862 257.65 84.1525 257.69 84.2255 257.713C84.4522 257.803 84.5142 257.707 84.5344 257.676C84.6931 257.432 84.5158 256.606 84.3347 256.02C84.1237 256.367 83.8077 257.008 83.9177 257.4Z" fill="#131313"/>
<path d="M86.7018 258.514C86.7216 258.487 86.7301 258.453 86.7256 258.419C86.7171 258.336 86.5012 256.354 85.478 256.215C84.6083 256.096 84.4382 255.736 84.4365 255.733C84.4089 255.671 84.3508 255.64 84.3062 255.665C84.2828 255.683 84.2663 255.709 84.2594 255.738C84.2525 255.767 84.2557 255.797 84.2684 255.824C84.2878 255.875 84.4865 256.33 85.4827 256.464C86.3404 256.579 86.5425 258.408 86.5444 258.426C86.5513 258.493 86.5976 258.546 86.6477 258.543C86.6583 258.543 86.6686 258.54 86.678 258.535C86.6873 258.53 86.6955 258.523 86.7018 258.514Z" fill="#131313"/>
<path d="M89.0998 246.855L82.7117 253.795L82.1152 253.018L89.0998 246.855Z" fill="#131313"/>
<path d="M71.515 190.617L55.1033 209.373C53.4413 211.272 52.5222 213.708 52.5157 216.232C52.5091 218.756 53.4154 221.197 55.0675 223.105L81.4648 253.593L90.0382 246.028L70.6127 217.581L91.0877 203.725L138.987 255.054L146.605 247.287L104.546 186.681L71.515 190.617Z" fill="#6445F1"/>
<path d="M30.6987 147.621C30.6987 147.621 25.8773 143.076 20.4567 140.837C20.4045 140.816 20.347 140.812 20.2923 140.825C20.2377 140.839 20.1889 140.87 20.153 140.913C20.117 140.957 20.0958 141.01 20.0923 141.066C20.0888 141.123 20.1033 141.179 20.1337 141.226L22.4043 144.772L20.2748 150.217C20.1408 150.56 20.1222 150.937 20.2219 151.291C20.3216 151.646 20.5341 151.958 20.8273 152.181L24.804 155.2L30.6987 147.621Z" fill="#F59060"/>
<path d="M89.4366 132.976C89.1743 134.845 89.0947 136.736 89.1988 138.62L87.2059 139.042L87.1332 145.067L87.1288 145.343C87.171 146.508 86.7583 147.644 85.978 148.511C85.1977 149.377 84.1111 149.906 82.9479 149.985C82.7904 149.995 82.6324 149.997 82.4747 149.991C82.0231 149.974 81.5794 149.867 81.1695 149.677C80.7597 149.486 80.3918 149.216 80.0875 148.882C79.7831 148.548 79.5484 148.157 79.3969 147.731C79.2455 147.305 79.1804 146.854 79.2055 146.402L79.4151 142.58C76.4802 141.669 75.3176 139.112 75.0151 136.264C74.9711 135.849 74.9465 135.429 74.9381 135.001C74.9176 134.003 74.9671 133.004 75.0864 132.013C75.1865 131.128 75.3309 130.278 75.4841 129.505C76.1062 126.424 78.6232 124.027 81.752 123.709C88.1544 123.056 88.9239 131.845 88.9914 132.859L88.9978 132.956C89.1444 132.95 89.2912 132.956 89.4366 132.976Z" fill="#F59060"/>
<path d="M81.0756 136.929C81.3797 135.993 81.3409 135.253 80.9601 134.729C80.419 133.985 79.3987 133.977 79.3555 133.977V134.147V134.317C79.3643 134.317 80.2487 134.327 80.6861 134.931C80.9978 135.361 81.0196 135.999 80.7518 136.824L81.0756 136.929Z" fill="#131313"/>
<path d="M74.4121 130.426C74.347 130.733 74.3133 131.045 74.3117 131.358C74.1898 132.165 74.363 133.981 78.6375 133.369C83.5481 132.666 82.4199 138.255 79.8324 138.277C79.7475 138.276 79.6637 138.296 79.5881 138.335C79.5126 138.374 79.4475 138.431 79.3986 138.5C79.3496 138.57 79.3182 138.65 79.307 138.734C79.2958 138.818 79.3051 138.904 79.3342 138.984C79.6071 139.729 79.9212 140.838 79.8961 141.944C79.8558 143.709 81.2883 145.149 83.0502 145.032L87.507 144.735C88.1402 144.694 88.7431 144.449 89.2258 144.037C89.7085 143.625 90.0453 143.068 90.1859 142.45C91.1443 138.2 92.4743 128.799 86.6573 125.05C83.6919 123.291 80.1374 123.281 77.704 125.002C77.7043 125.002 75.219 126.761 74.4121 130.426Z" fill="#131313"/>
<path d="M113.911 183.345C113.864 183.445 113.813 183.543 113.76 183.639C113.047 184.951 111.928 185.998 110.571 186.621C109.215 187.245 107.692 187.413 106.232 187.1C105.692 186.984 105.129 186.844 104.546 186.68C104.546 186.68 98.1282 195.004 81.9042 193.014C81.7964 193.003 81.6888 192.989 81.5794 192.974C78.5657 192.582 75.2175 191.836 71.5149 190.616C71.5149 190.616 71.4414 188.223 71.2554 185.102C71.2489 184.991 71.2426 184.881 71.2341 184.768C70.9436 180.032 70.3984 173.799 69.4678 171.627C69.3813 171.424 69.2997 171.215 69.2213 171.005C69.1822 170.897 69.1429 170.788 69.107 170.676C67.894 167.113 67.894 162.729 67.894 162.729C67.894 162.729 61.4636 170.441 56.5171 175.36C55.6841 176.189 54.6494 176.787 53.515 177.095C52.3806 177.403 51.1856 177.41 50.0476 177.116C49.9349 177.088 49.824 177.057 49.714 177.021C48.8728 176.759 48.0909 176.336 47.4122 175.774L37.2667 167.399L36.9827 167.165L26.9133 158.854L26.582 158.58L23.8164 156.298L30.5865 147.482L45.1582 158.338L45.4031 158.52L49.948 161.907C49.948 161.907 50.3381 161.437 51.0352 160.624C51.3438 160.262 51.716 159.829 52.1405 159.341C53.6798 157.567 55.9247 155.035 58.522 152.271C58.9793 151.784 59.465 151.323 59.9766 150.893C60.0598 150.821 60.1446 150.751 60.2295 150.683C62.6174 148.745 65.4599 147.448 68.4884 146.915C69.1071 146.804 69.7712 146.691 70.4719 146.578C70.5781 146.561 70.6857 146.544 70.7935 146.526C75.0608 145.85 80.6555 145.197 86.3318 145.202C86.6794 145.202 87.0272 145.206 87.3765 145.21H87.3798C92.9124 145.297 98.4503 146.043 102.841 148.035C102.841 148.035 104.355 148.676 106.461 152.315C106.514 152.408 106.57 152.503 106.624 152.601C108.562 156.041 110.97 161.993 113.159 172.212C113.182 172.318 113.204 172.426 113.227 172.534C113.66 174.574 114.084 176.783 114.494 179.175C114.744 180.592 114.54 182.051 113.911 183.345Z" fill="#FCB913"/>
<path d="M37.1868 160.839C38.5548 162.829 38.3263 165.16 37.2667 167.399L36.9827 167.165C37.9557 165.054 38.1793 162.859 36.9174 161.024C34.96 158.176 30.7693 158.332 29.0568 158.529C28.3451 158.612 27.6219 158.73 26.9134 158.854L26.582 158.58C27.3819 158.441 28.2063 158.299 29.0193 158.206C30.789 158 35.1282 157.845 37.1868 160.839Z" fill="#F5F3E3"/>
<path d="M47.7743 163.95C45.3598 165.277 42.5977 165.611 40.1963 164.869L39.9141 164.782L40.1393 164.59C42.1773 162.828 43.8777 160.71 45.1576 158.339L45.4025 158.52C44.1626 160.825 42.53 162.895 40.5784 164.639C42.8281 165.246 45.3748 164.897 47.6162 163.664C48.9735 162.926 50.143 161.886 51.0346 160.624C51.3433 160.261 51.7154 159.829 52.1399 159.341C51.2843 161.228 49.7464 162.864 47.7743 163.95Z" fill="#F5F3E3"/>
<path d="M61.3413 152.592C60.8268 152.076 60.3693 151.506 59.9766 150.892C60.0598 150.82 60.1446 150.75 60.2295 150.682C60.6143 151.288 61.0643 151.851 61.5715 152.36C63.155 153.93 65.8699 154.934 67.997 153.818C70.3626 152.575 70.8588 149.557 70.4719 146.578C70.5781 146.56 70.6857 146.543 70.7935 146.525C71.1315 149.057 71.009 152.605 68.1489 154.107C65.7769 155.352 62.9575 154.195 61.3413 152.592Z" fill="#F5F3E3"/>
<path d="M69.2203 171.006C69.1811 170.898 69.1419 170.789 69.106 170.677C71.0731 169.091 72.5604 166.679 71.8437 164.296C71.3506 162.662 69.777 161.294 67.8343 160.812C64.104 159.889 60.4162 162.092 58.209 164.464C56.3489 166.462 54.9831 168.903 53.6608 171.265C53.2233 172.049 52.7695 172.86 52.3041 173.644C51.599 174.83 50.8465 175.988 50.0464 177.116C49.9338 177.088 49.8228 177.057 49.7129 177.021C50.5308 175.872 51.3008 174.69 52.023 173.476C52.4866 172.697 52.9387 171.887 53.3763 171.105C54.7067 168.727 56.083 166.268 57.9687 164.24C60.2393 161.801 64.0433 159.537 67.9123 160.495C69.9648 161.003 71.6313 162.459 72.1553 164.203C72.9293 166.769 71.318 169.345 69.2203 171.006Z" fill="#F5F3E3"/>
<path d="M81.1699 187.239C82.3029 188.961 82.409 191.033 81.9044 193.015C81.7967 193.003 81.689 192.989 81.5796 192.974C82.0743 191.063 81.9828 189.069 80.8972 187.419C78.9562 184.468 74.8651 184.045 71.2557 185.102C71.2491 184.991 71.2428 184.882 71.2344 184.769C74.9467 183.703 79.1537 184.173 81.1699 187.239Z" fill="#F5F3E3"/>
<path d="M76.1815 156.937C75.1791 154.962 76.1897 152.755 76.6713 151.896C78.6368 148.394 82.3083 146.53 86.3307 145.201C86.6784 145.201 87.0262 145.205 87.3755 145.209C83.0524 146.542 79.0203 148.378 76.9568 152.056C76.5013 152.868 75.5415 154.954 76.4719 156.789C76.7935 157.421 77.3422 158.007 78.1524 158.583C82.9324 161.985 89.8118 161.249 98.5996 156.397C98.9129 156.224 99.228 156.05 99.5447 155.875C101.758 154.647 104.078 153.36 106.46 152.314C106.514 152.407 106.569 152.502 106.623 152.6C104.241 153.643 101.918 154.933 99.703 156.16C99.3866 156.335 99.0715 156.509 98.7578 156.683C94.9279 158.797 91.3855 160.15 88.2298 160.702C84.1486 161.417 80.6941 160.793 77.9629 158.849C77.1088 158.242 76.5261 157.617 76.1815 156.937Z" fill="#F5F3E3"/>
<path d="M113.91 183.345C113.863 183.445 113.812 183.543 113.758 183.639C112.503 183.249 111.221 182.952 109.922 182.751C107.23 182.335 104.45 182.209 101.761 182.088C98.0699 181.922 94.2549 181.749 90.6128 180.827C85.6515 179.568 80.8635 175.839 81.3125 171.149L81.3224 171.061L81.3993 171.02C87.2193 167.969 94.0741 169.378 100.704 170.741C104.886 171.601 109.157 172.478 113.158 172.212C113.181 172.318 113.204 172.426 113.227 172.533C112.706 172.571 112.182 172.587 111.653 172.587C108.066 172.589 104.318 171.817 100.637 171.061C94.0936 169.716 87.3285 168.325 81.6311 171.268C81.2671 175.735 85.8986 179.293 90.6932 180.51C94.3026 181.424 98.1016 181.595 101.777 181.762C104.473 181.884 107.263 182.01 109.974 182.428C111.307 182.634 112.623 182.941 113.91 183.345Z" fill="#F5F3E3"/>
<path d="M99.1824 156.278L98.9414 156.321L104.423 186.704L104.664 186.66L99.1824 156.278Z" fill="#131313"/>
<path d="M49.808 161.772L48.0762 164.448L48.2818 164.581L50.0136 161.905L49.808 161.772Z" fill="#131313"/>
<path d="M86.8716 199.278L86.6973 199.45L91 203.812L91.1744 203.64L86.8716 199.278Z" fill="#131313"/>
<path d="M102.713 188.441L102.512 188.581L144.737 249.159L144.938 249.019L102.713 188.441Z" fill="#131313"/>
<path d="M87.2898 248.433L67.4468 220.081C67.2145 219.749 67.0501 219.374 66.9628 218.979C66.8756 218.583 66.8673 218.174 66.9385 217.775C67.0096 217.377 67.1588 216.996 67.3775 216.655C67.5961 216.314 67.8799 216.019 68.2127 215.788L88.8644 201.443L89.0041 201.645L68.3525 215.989C68.0462 216.202 67.7849 216.473 67.5836 216.787C67.3823 217.101 67.245 217.451 67.1794 217.818C67.1139 218.185 67.1214 218.562 67.2017 218.926C67.2819 219.29 67.4332 219.635 67.6469 219.94L87.4899 248.293L87.2898 248.433Z" fill="#131313"/>
<path d="M30.5858 147.482L24.1875 154.731L24.7136 155.13L30.5858 147.482Z" fill="#131313"/>
<path d="M90.861 132.609C90.861 132.609 90.8105 143.677 94.3832 145.039C96.3352 145.783 97.5517 148.182 98.2527 150.206C98.3606 150.514 98.3863 150.845 98.3273 151.167C98.2682 151.488 98.1265 151.788 97.916 152.038C97.7055 152.287 97.4336 152.478 97.1271 152.59C96.8205 152.703 96.4899 152.733 96.1679 152.679C93.6094 152.252 89.9543 151.979 87.7715 153.308C84.1508 155.512 76.4372 153.308 76.4372 153.308L75.9232 153.346C75.585 153.372 75.2463 153.305 74.9431 153.153C74.6399 153.001 74.3836 152.769 74.2015 152.483C74.0194 152.197 73.9182 151.867 73.9089 151.528C73.8996 151.189 73.9824 150.854 74.1485 150.558C75.4382 148.269 77.2664 144.56 79.3347 138.984L90.861 132.609Z" fill="#131313"/>
<path d="M198.774 261.59L194.891 258.961L203.535 252.629L207.314 255.77L198.774 261.59Z" fill="#F59060"/>
<path d="M207.315 268.319L208.287 268.954L222.354 258.673C222.068 258.416 221.752 258.196 221.413 258.016C220.754 257.67 220.033 257.456 219.291 257.389C218.55 257.322 217.802 257.401 217.092 257.623C216.671 257.761 216.24 257.864 215.803 257.932C211.287 258.644 207.231 255.41 207.231 255.41L198.773 261.59L207.315 268.319Z" fill="#6595F7"/>
<path d="M207.316 268.319L208.288 268.954L222.356 258.672C222.07 258.416 221.754 258.195 221.414 258.016L207.316 268.319Z" fill="#131313"/>
<path d="M206.281 257.338C208.673 258.602 214.512 261.3 215.804 257.931C211.289 258.643 207.233 255.409 207.233 255.409C207.233 255.409 205.76 254.645 205.36 255.631C205.299 255.803 205.28 255.987 205.307 256.168C205.333 256.348 205.404 256.519 205.513 256.666C205.709 256.95 205.973 257.181 206.281 257.338Z" fill="white"/>
<path d="M213.535 260.252C213.518 260.263 213.5 260.271 213.481 260.274C213.461 260.278 213.442 260.277 213.423 260.273C213.355 260.258 213.309 260.206 213.32 260.154C213.492 259.399 214.439 258.038 214.48 257.981C214.501 257.958 214.529 257.942 214.559 257.937C214.59 257.932 214.621 257.938 214.649 257.953C214.71 257.983 214.734 258.044 214.703 258.089C214.693 258.103 213.732 259.479 213.566 260.206C213.562 260.225 213.55 260.241 213.535 260.252Z" fill="#131313"/>
<path d="M210.206 260.029C210.188 260.041 210.167 260.048 210.146 260.051C210.124 260.055 210.103 260.053 210.082 260.047C210.012 260.029 209.968 259.973 209.984 259.922C210.285 258.944 212.104 257.752 212.181 257.702C212.21 257.686 212.243 257.679 212.275 257.683C212.308 257.686 212.338 257.7 212.363 257.721C212.374 257.729 212.384 257.74 212.39 257.752C212.397 257.764 212.4 257.778 212.399 257.792C212.399 257.806 212.395 257.819 212.388 257.831C212.381 257.844 212.372 257.854 212.36 257.861C212.341 257.873 210.522 259.066 210.237 259.987C210.231 260.004 210.22 260.019 210.206 260.029Z" fill="#131313"/>
<path d="M210.025 257.067C210.018 257.071 210.011 257.075 210.004 257.079C209.988 257.086 208.398 257.789 207.537 258.638C207.51 258.658 207.478 258.67 207.444 258.671C207.411 258.672 207.378 258.663 207.35 258.644C207.288 258.607 207.273 258.543 207.314 258.501C208.204 257.624 209.783 256.927 209.85 256.898C209.881 256.886 209.916 256.883 209.949 256.891C209.982 256.899 210.012 256.916 210.035 256.941C210.043 256.95 210.05 256.96 210.054 256.971C210.058 256.982 210.06 256.994 210.059 257.006C210.058 257.018 210.055 257.03 210.049 257.04C210.043 257.051 210.035 257.06 210.025 257.067Z" fill="#131313"/>
<path d="M205.291 257.458C205.266 257.473 205.238 257.481 205.209 257.482C205.18 257.483 205.152 257.477 205.126 257.464C205.057 257.431 205.027 257.366 205.06 257.319C205.4 256.833 207.375 255.613 207.458 255.562C207.49 255.546 207.525 255.54 207.559 255.544C207.594 255.549 207.626 255.564 207.652 255.587C207.664 255.595 207.674 255.606 207.681 255.619C207.688 255.632 207.691 255.647 207.691 255.661C207.691 255.676 207.687 255.69 207.68 255.703C207.672 255.716 207.662 255.726 207.65 255.734C207.629 255.747 205.63 256.982 205.311 257.437C205.306 257.445 205.299 257.452 205.291 257.458Z" fill="#131313"/>
<path d="M207.39 255.872C207.373 255.885 207.362 255.893 207.358 255.896L207.211 256L207.129 255.837C207.024 255.628 206.103 253.742 206.799 253.216C207.02 253.045 207.366 253.04 207.824 253.188C208.299 253.342 208.592 253.565 208.697 253.853C208.993 254.658 207.627 255.699 207.39 255.872ZM207.017 253.382L207.012 253.385C206.563 253.724 207.016 254.992 207.303 255.621C207.791 255.242 208.639 254.435 208.434 253.879C208.357 253.67 208.136 253.509 207.758 253.387C207.409 253.275 207.166 253.273 207.017 253.382Z" fill="#131313"/>
<path d="M209.531 256.282C209.521 256.29 209.509 256.297 209.498 256.304C208.974 256.617 207.398 256.022 207.218 255.953L207.012 255.873L207.166 255.775C207.288 255.697 208.378 255.023 209.111 255.26C209.232 255.297 209.343 255.364 209.433 255.453C209.523 255.543 209.59 255.653 209.627 255.774C209.708 256.006 209.676 256.177 209.531 256.282ZM207.525 255.848C208.154 256.069 209.043 256.296 209.315 256.134C209.35 256.113 209.456 256.05 209.369 255.8C209.347 255.72 209.305 255.646 209.248 255.586C209.191 255.526 209.12 255.48 209.042 255.454C208.62 255.316 207.91 255.633 207.525 255.848Z" fill="#131313"/>
<path d="M210.135 258.524C210.104 258.544 210.067 258.552 210.03 258.546C209.94 258.533 207.797 258.216 207.688 257.099C207.596 256.15 207.212 255.95 207.208 255.948C207.142 255.915 207.11 255.851 207.14 255.803C207.161 255.779 207.189 255.762 207.221 255.756C207.252 255.749 207.285 255.754 207.314 255.769C207.369 255.792 207.854 256.027 207.958 257.115C208.048 258.051 210.026 258.346 210.046 258.349C210.118 258.36 210.173 258.412 210.169 258.466C210.168 258.478 210.164 258.489 210.158 258.499C210.152 258.509 210.144 258.517 210.135 258.524Z" fill="#131313"/>
<path d="M197.92 261.012L204.345 253.302L203.535 252.629L197.92 261.012Z" fill="#131313"/>
<path d="M164.023 246.973L164.956 242.642L173.557 247.981L172.138 252.401L164.023 246.973Z" fill="#F59060"/>
<path d="M161.142 256.833L160.93 257.909L174.905 266.605C175.029 266.264 175.11 265.909 175.148 265.548C175.219 264.849 175.151 264.142 174.949 263.468C174.746 262.794 174.412 262.167 173.966 261.623C173.698 261.303 173.455 260.962 173.241 260.603C171.023 256.898 172.424 252.201 172.424 252.201L164.024 246.973L161.142 256.833Z" fill="#6595F7"/>
<path d="M161.143 256.833L160.93 257.909L174.905 266.605C175.029 266.264 175.11 265.909 175.148 265.548L161.143 256.833Z" fill="#131313"/>
<path d="M170.398 252.049C170.135 254.591 169.832 260.66 173.241 260.603C171.023 256.898 172.424 252.202 172.424 252.202C172.424 252.202 172.574 250.642 171.569 250.64C171.397 250.646 171.229 250.695 171.08 250.782C170.931 250.869 170.806 250.992 170.716 251.139C170.536 251.411 170.427 251.724 170.398 252.049Z" fill="white"/>
<path d="M170.408 259.433C170.392 259.423 170.38 259.409 170.37 259.394C170.36 259.378 170.353 259.361 170.351 259.342C170.342 259.316 170.345 259.288 170.357 259.263C170.37 259.238 170.392 259.22 170.418 259.211C171.141 259.095 172.667 259.445 172.732 259.46C172.76 259.47 172.783 259.489 172.798 259.514C172.813 259.539 172.82 259.569 172.816 259.598C172.811 259.662 172.767 259.705 172.716 259.693C172.7 259.69 171.155 259.334 170.46 259.445C170.442 259.448 170.423 259.443 170.408 259.433Z" fill="#131313"/>
<path d="M169.428 256.44C169.412 256.428 169.398 256.413 169.387 256.395C169.377 256.378 169.371 256.358 169.369 256.337C169.36 256.27 169.393 256.212 169.443 256.207C170.407 256.125 172.094 257.299 172.165 257.349C172.189 257.368 172.207 257.395 172.215 257.425C172.223 257.455 172.222 257.486 172.212 257.516C172.209 257.528 172.203 257.54 172.195 257.55C172.186 257.56 172.175 257.568 172.163 257.573C172.151 257.577 172.137 257.579 172.124 257.577C172.111 257.575 172.099 257.57 172.088 257.562C172.071 257.55 170.384 256.377 169.476 256.453C169.459 256.454 169.442 256.449 169.428 256.44Z" fill="#131313"/>
<path d="M171.959 255.235C171.952 255.23 171.946 255.226 171.941 255.22C171.929 255.209 170.752 254.064 169.704 253.609C169.677 253.593 169.655 253.569 169.642 253.54C169.629 253.511 169.626 253.479 169.632 253.448C169.643 253.38 169.694 253.344 169.745 253.366C170.828 253.835 171.996 254.973 172.045 255.021C172.067 255.045 172.082 255.074 172.086 255.106C172.091 255.138 172.086 255.17 172.073 255.199C172.068 255.209 172.062 255.219 172.053 255.227C172.045 255.234 172.035 255.24 172.024 255.244C172.013 255.247 172.002 255.248 171.991 255.246C171.979 255.245 171.968 255.241 171.959 255.235Z" fill="#131313"/>
<path d="M169.945 251.224C169.923 251.208 169.906 251.186 169.895 251.162C169.884 251.137 169.879 251.109 169.882 251.082C169.886 251.01 169.932 250.961 169.985 250.974C170.531 251.1 172.297 252.399 172.372 252.454C172.397 252.476 172.414 252.505 172.423 252.537C172.431 252.569 172.429 252.603 172.418 252.634C172.415 252.647 172.409 252.66 172.4 252.67C172.391 252.681 172.379 252.689 172.366 252.694C172.353 252.699 172.34 252.7 172.326 252.698C172.312 252.697 172.299 252.691 172.288 252.683C172.27 252.67 170.482 251.354 169.97 251.236C169.961 251.233 169.952 251.23 169.945 251.224Z" fill="#131313"/>
<path d="M172.075 252.504C172.058 252.493 172.048 252.486 172.043 252.484L171.9 252.391L172.014 252.262C172.16 252.096 173.488 250.624 174.195 251.048C174.422 251.181 174.549 251.482 174.581 251.936C174.614 252.406 174.521 252.742 174.307 252.936C173.705 253.479 172.312 252.651 172.075 252.504ZM174.126 251.297L174.121 251.294C173.665 251.02 172.715 251.865 172.265 252.339C172.769 252.632 173.776 253.091 174.19 252.715C174.346 252.573 174.41 252.323 174.383 251.949C174.358 251.603 174.274 251.389 174.126 251.297Z" fill="#131313"/>
<path d="M172.473 254.525C172.462 254.518 172.452 254.511 172.441 254.503C171.983 254.155 171.947 252.564 171.944 252.381L171.941 252.173L172.082 252.273C172.193 252.353 173.169 253.07 173.22 253.796C173.23 253.915 173.211 254.035 173.164 254.146C173.118 254.256 173.045 254.354 172.952 254.43C172.777 254.582 172.616 254.614 172.473 254.525ZM172.145 252.614C172.173 253.242 172.289 254.102 172.527 254.283C172.557 254.306 172.65 254.377 172.838 254.212C172.901 254.164 172.951 254.102 172.983 254.031C173.016 253.959 173.031 253.881 173.027 253.803C172.997 253.385 172.469 252.876 172.145 252.614L172.145 252.614Z" fill="#131313"/>
<path d="M170.721 255.845C170.693 255.825 170.673 255.795 170.665 255.761C170.645 255.678 170.166 253.688 171.106 253.198C171.906 252.782 171.945 252.375 171.945 252.371C171.951 252.302 171.996 252.252 172.048 252.261C172.077 252.27 172.102 252.289 172.118 252.315C172.135 252.34 172.142 252.371 172.139 252.401C172.139 252.457 172.104 252.965 171.188 253.441C170.399 253.85 170.839 255.687 170.843 255.706C170.853 255.733 170.853 255.764 170.842 255.791C170.831 255.819 170.81 255.841 170.784 255.855C170.773 255.858 170.762 255.858 170.752 255.857C170.741 255.855 170.731 255.851 170.721 255.845Z" fill="#131313"/>
<path d="M164.299 245.133L172.815 250.291L173.12 249.34L164.299 245.133Z" fill="#131313"/>
<path d="M116.791 219.239L124.547 215.475L118.387 211.482L116.791 219.239Z" fill="#131313"/>
<path d="M177.931 230.418L182.79 211.631C183.044 210.647 183.094 209.622 182.936 208.618C182.778 207.614 182.416 206.653 181.872 205.795C181.327 204.937 180.613 204.199 179.772 203.628C178.932 203.057 177.983 202.665 176.985 202.475L148.73 197.11C148.73 197.11 121.125 192.319 119.756 213.308L197.778 261.216L203.937 252.319L177.931 230.418ZM167.666 222.855L155.467 213.868L168.805 215.818L167.666 222.855Z" fill="#1D6DEC"/>
<path d="M176.334 175.324C173.837 179.444 170.932 183.304 167.665 186.845C166.206 188.424 164.755 189.854 163.339 191.148C161.959 192.412 160.165 193.128 158.294 193.162C156.423 193.196 154.604 192.545 153.179 191.332L144.167 183.651L147.317 192.942H147.318L148.731 197.11C148.731 197.11 145.187 196.716 140.134 198.102C137.057 198.951 134.121 200.245 131.418 201.943C127.935 204.115 124.301 207.243 120.899 211.734C120.516 212.242 120.135 212.766 119.757 213.308L119.728 213.233L111.772 192.777L111.71 192.79C111.087 192.91 105.939 193.898 100.639 194.477C94.7484 195.119 89.9629 189.809 91.2334 184.022C91.9803 180.617 92.887 176.769 93.879 173.167C94.7738 169.911 96.4858 166.938 98.8525 164.529C101.219 162.121 104.162 160.357 107.402 159.406C110.788 158.405 114.232 157.61 117.714 157.025C120.498 156.555 123.308 156.256 126.128 156.129H126.13C129.114 155.987 132.104 156.095 135.069 156.453C140.213 157.095 144.9 159.731 148.119 163.794C151.215 167.705 155.19 172.79 156.943 175.324L166.068 165.698L176.334 175.324Z" fill="#F5F3E3"/>
<path d="M127.719 145.429C127.733 145.482 127.745 145.537 127.757 145.592C127.823 145.884 127.879 146.177 127.922 146.468C127.932 146.517 127.939 146.567 127.946 146.617C127.969 146.773 127.988 146.924 128.002 147.079C128.039 147.427 128.064 147.776 128.068 148.117C128.097 150.279 127.406 152.264 125.364 153.522L126.465 157.02C126.574 157.363 126.625 157.721 126.617 158.081C126.611 158.283 126.534 158.477 126.399 158.629C124.909 160.323 121.549 160.461 117.857 159.229L117.295 152.092L115.064 152.183C114.625 152.208 114.188 152.113 113.798 151.908C113.409 151.703 113.083 151.396 112.856 151.019C112.827 150.972 112.801 150.923 112.777 150.873L112.507 150.321C112.344 149.989 112.259 149.623 112.258 149.253C112.257 148.883 112.341 148.517 112.503 148.184C112.664 147.851 112.9 147.559 113.192 147.331C113.483 147.102 113.823 146.943 114.185 146.866C114.185 146.866 114.178 146.834 114.169 146.779C113.989 145.818 112.615 137.482 118.713 136.568C121.691 136.117 124.6 137.744 125.906 140.457C126.589 141.881 127.309 143.635 127.719 145.429Z" fill="#F59060"/>
<path d="M125.824 149.155C125.871 149.119 125.91 149.075 125.94 149.024C126.4 148.265 124.901 145.911 124.595 145.447C124.573 145.415 124.539 145.392 124.5 145.385C124.461 145.377 124.421 145.385 124.388 145.407C124.355 145.428 124.332 145.462 124.324 145.5C124.315 145.539 124.322 145.579 124.343 145.613C125.01 146.626 125.962 148.406 125.682 148.869C125.664 148.898 125.609 148.989 125.364 148.965C125.344 148.962 125.324 148.964 125.305 148.97C125.286 148.975 125.268 148.984 125.252 148.997C125.237 149.009 125.224 149.025 125.214 149.043C125.205 149.06 125.199 149.079 125.197 149.099C125.195 149.119 125.197 149.139 125.203 149.158C125.209 149.177 125.218 149.195 125.231 149.211C125.244 149.226 125.259 149.239 125.277 149.248C125.295 149.257 125.314 149.263 125.334 149.264C125.506 149.294 125.682 149.255 125.824 149.155Z" fill="#131313"/>
<path d="M122.341 148.739C123.158 148.64 123.777 148.191 123.721 147.736C123.666 147.28 122.959 146.992 122.141 147.091C121.323 147.19 120.705 147.64 120.76 148.095C120.815 148.55 121.523 148.839 122.341 148.739Z" fill="#FC6D6D"/>
<path d="M127.923 146.468C127.933 146.517 127.94 146.567 127.947 146.617C127.97 146.772 127.989 146.923 128.003 147.079C128.04 147.427 128.065 147.776 128.069 148.116C128.041 148.123 128.014 148.125 127.984 148.129C127.163 148.229 126.456 147.941 126.402 147.484C126.347 147.028 126.964 146.579 127.782 146.48C127.829 146.474 127.874 146.471 127.923 146.468Z" fill="#FC6D6D"/>
<path d="M125.365 153.523C125.365 153.523 123.823 154.394 121.6 153.337C121.6 153.337 123.075 155.107 125.642 154.402L125.365 153.523Z" fill="#131313"/>
<path d="M120.901 144.678C121.085 144.54 121.283 144.423 121.493 144.327C121.699 144.232 121.916 144.163 122.139 144.122C122.352 144.086 122.571 144.09 122.783 144.133C122.988 144.181 123.182 144.269 123.352 144.393L123.372 144.405C123.426 144.441 123.492 144.453 123.555 144.44C123.619 144.427 123.674 144.389 123.71 144.335C123.745 144.281 123.758 144.215 123.745 144.151C123.731 144.088 123.694 144.032 123.639 143.997C123.636 143.995 123.632 143.992 123.628 143.99C123.395 143.843 123.134 143.745 122.861 143.701C122.594 143.664 122.322 143.677 122.06 143.739C121.809 143.803 121.567 143.898 121.34 144.022C121.115 144.143 120.903 144.289 120.71 144.456C120.681 144.481 120.662 144.516 120.659 144.554C120.655 144.592 120.667 144.63 120.691 144.66C120.715 144.689 120.75 144.708 120.788 144.713C120.826 144.717 120.864 144.706 120.894 144.683L120.901 144.678Z" fill="#671E24"/>
<path d="M127.521 143.31C127.302 143.201 127.072 143.117 126.835 143.06C126.595 143 126.348 142.973 126.1 142.979C125.841 142.99 125.587 143.052 125.352 143.161C125.115 143.278 124.904 143.443 124.734 143.645C124.69 143.693 124.667 143.756 124.67 143.821C124.673 143.886 124.701 143.947 124.749 143.99C124.797 144.034 124.86 144.057 124.925 144.054C124.99 144.052 125.051 144.023 125.094 143.975C125.097 143.972 125.1 143.969 125.103 143.966L125.119 143.945C125.236 143.786 125.384 143.652 125.554 143.551C125.731 143.453 125.927 143.391 126.128 143.369C126.341 143.349 126.555 143.357 126.766 143.394C126.98 143.43 127.189 143.49 127.391 143.572L127.398 143.575C127.433 143.59 127.472 143.591 127.508 143.577C127.543 143.563 127.572 143.536 127.588 143.502C127.603 143.468 127.605 143.429 127.593 143.393C127.58 143.357 127.555 143.328 127.521 143.31V143.31Z" fill="#671E24"/>
<path d="M122.683 146.214C122.903 146.15 123.001 145.828 122.904 145.494C122.807 145.161 122.55 144.942 122.331 145.006C122.111 145.07 122.013 145.392 122.11 145.726C122.207 146.059 122.464 146.278 122.683 146.214Z" fill="#131313"/>
<path d="M126.569 145.397C126.735 145.348 126.795 145.054 126.703 144.738C126.611 144.423 126.402 144.207 126.235 144.256C126.069 144.304 126.008 144.599 126.1 144.914C126.192 145.23 126.402 145.446 126.569 145.397Z" fill="#131313"/>
<path d="M114.196 150.781C113.751 150.078 113.621 149.482 113.808 149.008C114.07 148.344 114.888 148.125 114.896 148.123L114.815 147.807C114.775 147.817 113.831 148.067 113.505 148.886C113.276 149.463 113.416 150.159 113.921 150.956L114.196 150.781Z" fill="#131313"/>
<path d="M114.185 146.867C114.688 146.886 115.183 146.998 115.645 147.199C116.405 147.532 116.588 147.906 116.876 147.906C117.337 147.906 117.959 146.949 118.708 142.974C122.457 143.163 125.026 142.222 126.411 141.561C127.776 140.91 128.257 140.425 128.395 140.277C130.425 138.101 130.603 133.661 128.15 131.336C127.769 130.974 126.596 129.862 124.961 129.884C121.88 129.925 121.137 135.259 117.808 135.491C116.739 135.565 116.167 135.084 115.193 135.538C114 136.094 113.454 137.469 113.179 138.561C112.54 139.068 112.028 139.717 111.682 140.455C110.174 143.725 112.869 147.306 113.01 147.489L114.185 146.867Z" fill="#671E24"/>
<path d="M115.498 152.166L117.487 154.512L117.297 152.091L115.498 152.166Z" fill="#671E24"/>
<path d="M125.632 150.577C125.184 150.665 124.366 150.708 123.161 150.324C123.134 150.316 123.106 150.315 123.079 150.323C123.052 150.331 123.028 150.346 123.011 150.368C122.993 150.389 122.982 150.416 122.979 150.443C122.976 150.471 122.982 150.499 122.995 150.523C123.349 151.169 124.323 152.48 125.765 150.806C125.784 150.784 125.796 150.756 125.798 150.727C125.801 150.698 125.795 150.669 125.78 150.644C125.766 150.619 125.744 150.599 125.717 150.587C125.69 150.575 125.661 150.571 125.632 150.577Z" fill="#E52039"/>
<path d="M131.847 204.867C129.957 205.381 128.144 206.144 126.456 207.136C126.332 207.207 126.207 207.282 126.084 207.358C125.952 207.438 125.819 207.52 125.688 207.605C124.804 208.167 123.961 208.792 123.165 209.473C122.956 209.653 122.748 209.837 122.54 210.032C121.96 210.567 121.412 211.135 120.898 211.734C120.496 212.202 120.103 212.701 119.727 213.233C119.553 213.477 119.385 213.728 119.22 213.986C119.112 214.149 119.009 214.316 118.906 214.486C118.008 215.978 117.298 217.574 116.791 219.239L115.343 211.606L115.266 211.201L113.752 203.219L113.675 202.814L112.161 194.831L112.083 194.425L111.771 192.776L111.709 192.789C111.308 192.867 109.037 193.304 106.057 193.758C105.923 193.779 105.786 193.801 105.649 193.82C104.098 194.052 102.377 194.287 100.638 194.477C99.5621 194.596 98.4729 194.514 97.4269 194.233C97.2742 194.193 97.1252 194.148 96.9761 194.099C95.0456 193.458 93.4011 192.161 92.3292 190.432C92.2512 190.31 92.1765 190.185 92.1074 190.059C91.0842 188.222 90.7728 186.073 91.2326 184.021C91.3887 183.308 91.5519 182.575 91.7223 181.83C91.756 181.683 91.7898 181.535 91.8235 181.386C92.2103 179.704 92.6272 177.961 93.0678 176.232C93.1423 175.935 93.218 175.64 93.295 175.346C93.4866 174.614 93.6798 173.884 93.8788 173.166C93.9319 172.97 93.9886 172.777 94.049 172.585C94.0952 172.433 94.1431 172.282 94.1945 172.133C95.1979 169.132 96.9051 166.415 99.1734 164.209C99.2889 164.097 99.4059 163.987 99.523 163.877C100.177 163.27 100.873 162.709 101.604 162.197C101.914 161.979 102.234 161.767 102.558 161.567C103.917 160.725 105.372 160.053 106.893 159.564C107.024 159.519 107.156 159.478 107.289 159.439C107.326 159.426 107.363 159.416 107.401 159.406C109.72 158.724 112.346 158.05 115.174 157.489C115.309 157.461 115.444 157.434 115.579 157.408C116.28 157.273 116.992 157.145 117.714 157.024C117.886 157.392 118.058 157.764 118.228 158.139C118.287 158.267 118.345 158.394 118.404 158.522C119.495 160.916 120.583 163.451 121.644 166.129C121.695 166.257 121.746 166.386 121.796 166.516C122.765 168.966 123.705 171.532 124.616 174.213C124.66 174.344 124.705 174.475 124.749 174.607C125.067 175.554 125.379 176.515 125.688 177.49C126.211 179.147 126.699 180.782 127.151 182.394C127.19 182.527 127.228 182.66 127.263 182.792C128.017 185.489 128.682 188.115 129.258 190.67C129.29 190.803 129.32 190.938 129.35 191.071C129.967 193.823 130.497 196.478 130.938 199.036C130.961 199.173 130.984 199.31 131.007 199.444C131.153 200.289 131.289 201.122 131.418 201.943C131.572 202.936 131.715 203.911 131.847 204.867Z" fill="#FF4655"/>
<path d="M176.333 175.324C175.389 176.882 174.287 178.566 173.006 180.329C172.899 180.477 172.791 180.625 172.681 180.773C172.564 180.931 172.447 181.089 172.328 181.249C172.202 181.415 172.074 181.584 171.945 181.754C170.678 183.408 169.257 185.119 167.663 186.845C167.127 187.425 166.594 187.985 166.063 188.523C165.947 188.641 165.832 188.756 165.716 188.871C164.916 189.673 164.123 190.432 163.337 191.148C162.595 191.828 161.726 192.356 160.78 192.701C159.834 193.045 158.83 193.2 157.824 193.156C156.114 193.086 154.478 192.444 153.177 191.332C151.55 189.945 149.923 188.558 148.295 187.171C148.088 186.996 147.88 186.819 147.673 186.641C146.503 185.644 145.334 184.647 144.165 183.651L145.35 187.15L145.483 187.542L147.314 192.942H147.316L149.475 194.498L149.976 194.86L149.992 194.871L150.441 195.193L154.662 198.236C153.707 198.055 152.284 198.064 150.702 198.174C150.565 198.183 150.426 198.194 150.286 198.205C147.426 198.433 144.152 198.964 142.213 199.306C142.069 199.331 141.934 199.356 141.808 199.379C141.004 199.523 140.515 199.62 140.515 199.62C140.398 199.136 140.27 198.629 140.132 198.102C140.078 197.898 140.025 197.692 139.97 197.482C139.933 197.351 139.899 197.22 139.862 197.087C139.235 194.762 138.444 192.102 137.561 189.276C137.52 189.145 137.479 189.013 137.436 188.88C136.65 186.375 135.795 183.747 134.917 181.117C134.874 180.986 134.83 180.856 134.787 180.725C133.911 178.104 133.015 175.485 132.149 172.987C132.104 172.856 132.058 172.726 132.014 172.595C131.045 169.807 130.117 167.18 129.294 164.876C129.248 164.745 129.202 164.616 129.156 164.486C127.837 160.795 126.81 157.988 126.366 156.78C126.31 156.622 126.262 156.492 126.224 156.391C126.16 156.219 126.127 156.129 126.127 156.129H126.129C126.627 156.107 127.129 156.092 127.633 156.083C128.278 156.07 128.925 156.069 129.574 156.079C130.502 156.093 131.432 156.132 132.362 156.194C132.506 156.203 132.648 156.214 132.791 156.225C133.551 156.283 134.31 156.359 135.068 156.453C137.343 156.737 139.55 157.415 141.592 158.457C141.754 158.537 141.912 158.62 142.07 158.707C143.235 159.34 144.333 160.09 145.346 160.944C145.478 161.053 145.609 161.164 145.737 161.28C146.602 162.046 147.398 162.888 148.116 163.794C149.231 165.201 150.458 166.761 151.657 168.299L151.937 168.659C152.23 169.035 152.521 169.412 152.805 169.781C153.005 170.04 153.202 170.295 153.396 170.547C154.847 172.441 156.132 174.153 156.941 175.324L161.664 170.342L162.007 169.981L166.066 165.698L170.24 169.61L170.77 170.109L173.144 172.334L173.51 172.677L176.333 175.324Z" fill="#FF4655"/>
<path d="M127.634 156.082L126.225 156.391C126.263 156.492 126.311 156.622 126.367 156.779L129.575 156.079C128.926 156.068 128.279 156.069 127.634 156.082ZM131.007 199.444C130.984 199.309 130.961 199.173 130.938 199.036L124.971 200.342L123.236 192.409L129.35 191.071C129.32 190.938 129.29 190.803 129.258 190.67L123.147 192.006L121.412 184.071L127.263 182.792C127.228 182.66 127.191 182.527 127.152 182.394L121.323 183.67L119.587 175.735L124.749 174.606C124.705 174.475 124.66 174.343 124.616 174.212L119.501 175.332L117.763 167.397L121.797 166.515C121.747 166.386 121.695 166.256 121.644 166.128L117.677 166.996L115.941 159.061L118.404 158.522C118.346 158.394 118.287 158.266 118.229 158.139L115.853 158.658L115.579 157.408C115.445 157.434 115.31 157.461 115.175 157.489L115.45 158.747L107.516 160.482L107.289 159.439C107.156 159.478 107.025 159.519 106.894 159.563L107.114 160.571L102.559 161.567C102.234 161.767 101.915 161.978 101.604 162.196L107.202 160.972L108.938 168.907L101.003 170.643L99.5228 163.877C99.4057 163.987 99.2886 164.097 99.1733 164.209L100.6 170.731L94.1944 172.133C94.143 172.282 94.0951 172.433 94.0489 172.585L100.689 171.132L102.424 179.067L94.489 180.803L93.2949 175.346C93.2185 175.641 93.1428 175.936 93.0677 176.231L94.0862 180.891L91.8239 181.386C91.7901 181.535 91.7564 181.682 91.7227 181.83L94.1749 181.294L95.9102 189.227L92.1078 190.06C92.1769 190.186 92.2516 190.31 92.3296 190.432L95.9984 189.63L96.9761 194.098C97.1252 194.148 97.2742 194.192 97.4269 194.233L96.4006 189.542L104.334 187.806L105.649 193.82C105.785 193.8 105.922 193.779 106.057 193.758L104.737 187.719L112.672 185.984L114.407 193.917L112.083 194.425L112.161 194.831L114.494 194.32L116.229 202.255L113.675 202.814L113.752 203.218L116.32 202.656L118.055 210.591L115.268 211.201L115.344 211.606L118.144 210.994L118.907 214.486C119.009 214.315 119.112 214.148 119.221 213.985L118.546 210.905L122.54 210.032C122.748 209.837 122.955 209.653 123.165 209.473L118.457 210.504L116.721 202.569L124.656 200.834L126.083 207.358C126.207 207.282 126.331 207.208 126.455 207.137L125.057 200.745L131.007 199.444ZM119.098 175.421L111.163 177.156L109.427 169.221L117.362 167.486L119.098 175.421ZM107.604 160.885L115.539 159.15L117.274 167.083L109.339 168.818L107.604 160.885ZM101.091 171.045L109.024 169.31L110.76 177.243L102.827 178.98L101.091 171.045ZM96.3125 189.14L94.5771 181.205L102.512 179.47L104.248 187.405L96.3125 189.14ZM104.649 187.316L102.913 179.381L110.848 177.646L112.584 185.581L104.649 187.316ZM111.251 177.559L119.184 175.824L120.92 183.757L112.986 185.492L111.251 177.559ZM113.073 185.895L121.008 184.16L122.745 192.095L114.811 193.83L113.073 185.895ZM116.633 202.166L114.897 194.231L122.832 192.496L124.568 200.431L116.633 202.166ZM173.51 172.676L173.145 172.333L171.344 172.727L170.771 170.108L170.24 169.61L170.941 172.817L163.006 174.552L162.007 169.981L161.665 170.342L162.605 174.641L154.67 176.376L153.396 170.547C153.203 170.295 153.006 170.04 152.805 169.781L154.268 176.463L146.335 178.198L144.598 170.265L151.939 168.659L151.658 168.299L144.511 169.862L142.776 161.927L145.739 161.279C145.611 161.164 145.48 161.052 145.349 160.944L142.687 161.526L142.071 158.706C141.913 158.619 141.755 158.536 141.594 158.456L142.284 161.613L134.351 163.348L132.793 156.224C132.649 156.213 132.507 156.203 132.364 156.194L133.948 163.437L129.157 164.485C129.204 164.615 129.25 164.744 129.296 164.876L134.037 163.84L135.772 171.773L132.016 172.594C132.06 172.725 132.106 172.855 132.151 172.986L135.859 172.175L137.595 180.11L134.789 180.724C134.832 180.855 134.876 180.985 134.919 181.116L137.683 180.511L139.419 188.446L137.438 188.88C137.48 189.013 137.521 189.144 137.562 189.275L139.507 188.849L141.243 196.785L139.864 197.086C139.901 197.219 139.935 197.35 139.972 197.482L141.329 197.186L141.81 199.379C141.936 199.356 142.071 199.331 142.215 199.306L141.732 197.099L149.667 195.364L150.288 198.204C150.428 198.194 150.567 198.183 150.704 198.174L150.07 195.275L150.442 195.194L149.993 194.871L149.98 194.873L149.977 194.86L149.477 194.498L149.578 194.961L141.644 196.696L139.907 188.761L145.484 187.542L145.351 187.15L139.82 188.361L138.085 180.426L146.018 178.69L147.755 186.623L147.674 186.641C147.881 186.819 148.089 186.995 148.297 187.172L148.245 186.939L156.18 185.202L157.916 193.137L157.825 193.157C159.152 193.213 160.47 192.925 161.652 192.321L158.317 193.05L156.582 185.115L164.517 183.38L165.718 188.871C165.834 188.756 165.949 188.641 166.065 188.524L164.92 183.291L171.947 181.754C172.076 181.584 172.204 181.416 172.33 181.249L164.831 182.888L163.096 174.955L171.031 173.22L172.683 180.773C172.793 180.624 172.901 180.477 173.008 180.33L171.432 173.131L173.51 172.676ZM134.436 163.751L142.371 162.016L144.107 169.951L136.172 171.686L134.436 163.751ZM137.997 180.022L136.262 172.087L144.197 170.352L145.932 178.287L137.997 180.022ZM148.157 186.536L146.422 178.601L154.356 176.865L156.092 184.8L148.157 186.536ZM164.428 182.976L156.495 184.712L154.76 176.777L162.693 175.041L164.428 182.976Z" fill="#FFAEB8"/>
<path d="M111.307 168.562L109.191 177.564L109.451 177.625L111.566 168.623L111.307 168.562Z" fill="#131313"/>
<path d="M111.791 192.909L111.753 192.645L114.845 192.203L116.527 177.403L103.793 177.979L103.781 177.713L116.827 177.123L115.086 192.437L111.791 192.909Z" fill="#131313"/>
<path d="M164.927 164.602L177.474 176.008L175.307 179.43L162.531 167.567L164.927 164.602Z" fill="#ED2941"/>
<path d="M113.266 176.122H117.03L115.148 193.688H111.791L113.266 176.122Z" fill="#ED2941"/>
<path d="M137.563 163.305L137.311 163.389L144.04 183.693L144.293 183.609L137.563 163.305Z" fill="#131313"/>
<path d="M156.836 175.242L153.643 179.349L153.853 179.512L157.046 175.406L156.836 175.242Z" fill="#131313"/>
<path d="M142.476 204.132L142.318 204.346L177.85 230.524L178.008 230.31L142.476 204.132Z" fill="#131313"/>
<path d="M123.073 209.504L122.93 209.729L124.12 210.488L124.263 210.263L123.073 209.504Z" fill="#131313"/>
<path d="M195.999 256.327L193.603 254.799L193.746 254.574L196.142 256.102L195.999 256.327ZM191.207 253.271L188.811 251.743L188.954 251.518L191.35 253.046L191.207 253.271ZM186.415 250.215L184.019 248.687L184.162 248.462L186.558 249.99L186.415 250.215ZM181.623 247.159L179.227 245.631L179.37 245.406L181.766 246.934L181.623 247.159ZM176.831 244.102L174.435 242.575L174.578 242.35L176.974 243.878L176.831 244.102ZM172.039 241.046L169.643 239.518L169.787 239.294L172.182 240.822L172.039 241.046ZM167.248 237.99L164.852 236.462L164.995 236.238L167.391 237.766L167.248 237.99ZM162.456 234.934L160.06 233.406L160.203 233.182L162.599 234.71L162.456 234.934ZM157.664 231.878L155.268 230.35L155.411 230.126L157.807 231.654L157.664 231.878ZM152.872 228.822L150.476 227.294L150.619 227.069L153.015 228.598L152.872 228.822ZM148.08 225.766L145.684 224.238L145.827 224.013L148.223 225.541L148.08 225.766ZM143.288 222.71L140.892 221.182L141.035 220.957L143.431 222.485L143.288 222.71ZM138.496 219.654L136.1 218.126L136.243 217.901L138.639 219.429L138.496 219.654ZM133.704 216.598L131.308 215.069L131.451 214.845L133.847 216.373L133.704 216.598ZM128.912 213.541L126.516 212.014L126.659 211.789L129.056 213.317L128.912 213.541Z" fill="#131313"/>
<path d="M198.538 257.63L198.395 257.854L199.585 258.614L199.728 258.389L198.538 257.63Z" fill="#131313"/>
<path d="M171.741 224.543L171.48 224.487L172.069 221.726L172.329 221.781L171.741 224.543ZM172.918 219.02L172.658 218.965L173.246 216.203L173.507 216.259L172.918 219.02ZM173.274 213.508C173.111 213.084 172.864 212.698 172.547 212.373C172.23 212.048 171.85 211.791 171.431 211.618L171.532 211.371C171.985 211.559 172.395 211.836 172.737 212.187C173.079 212.538 173.347 212.955 173.523 213.412L173.274 213.508ZM168.687 211.207L165.877 210.928L165.903 210.664L168.712 210.942L168.687 211.207ZM163.068 210.65L160.259 210.372L160.284 210.107L163.094 210.385L163.068 210.65ZM157.449 210.094L154.64 209.815L154.666 209.551L157.475 209.829L157.449 210.094ZM151.831 209.537L149.021 209.259L149.047 208.994L151.856 209.272L151.831 209.537Z" fill="#131313"/>
<path d="M166.998 166.485L179.697 154.449L186.37 160.467L175.693 174.39L166.998 166.485Z" fill="#F59060"/>
<path d="M116.91 177.257L133.475 176.837L134.67 187.253L115.434 191.036L116.91 177.257Z" fill="#F59060"/>
<path d="M179.006 155.458L181.448 151.846C181.589 151.644 181.76 151.465 181.955 151.314C183.175 150.369 187.814 146.391 191.387 143.31C191.912 142.858 192.643 143.542 192.227 144.096C191.433 145.155 189.359 146.955 189.742 147.933C189.884 148.297 190.367 148.179 190.823 148.866C191.004 149.183 191.214 149.483 191.449 149.762C191.531 149.868 191.625 149.966 191.727 150.054C192.027 150.287 192.307 150.287 192.732 150.73C193.232 151.252 193.022 151.44 193.618 152.092C193.957 152.464 194.122 152.509 194.392 152.916C194.569 153.184 194.776 153.503 194.742 153.922C194.727 154.105 194.675 154.283 194.587 154.444C194.5 154.606 194.38 154.747 194.234 154.859L189.528 158.5C189.008 158.902 187.567 158.767 187.373 159.395L184.699 162.138L179.006 155.458Z" fill="#F59060"/>
<path d="M184.403 155.199C184.687 155.133 184.954 155.009 185.187 154.833C185.379 154.685 185.537 154.498 185.654 154.286C186.152 153.387 185.869 152.186 185.777 151.858L186.31 151.073L186.731 150.452L187.255 149.683C187.339 149.559 187.38 149.41 187.371 149.26C187.362 149.11 187.304 148.968 187.206 148.854C187.107 148.741 186.974 148.663 186.827 148.633C186.68 148.603 186.527 148.622 186.392 148.688L185.648 149.051L184.992 149.369L183.83 149.934L183.986 150.256L185.215 149.657L185.871 149.339L186.551 149.008C186.615 148.977 186.688 148.968 186.758 148.983C186.828 148.997 186.891 149.034 186.937 149.089C186.984 149.143 187.011 149.211 187.015 149.282C187.019 149.353 187 149.424 186.959 149.483L186.502 150.155L186.081 150.776L185.386 151.798L185.413 151.882C185.416 151.895 185.838 153.221 185.341 154.114C185.233 154.303 185.086 154.467 184.909 154.595C184.733 154.723 184.531 154.811 184.318 154.855L184.403 155.199Z" fill="#131313"/>
<path d="M189.603 147.782L185.592 151.502L185.834 151.764L189.845 148.044L189.603 147.782Z" fill="#131313"/>
<path d="M188.703 156.029L188.684 155.672C188.131 155.702 187.709 155.57 187.431 155.281C187.047 154.879 187.028 154.274 187.034 154.077L191.57 149.893L191.328 149.631L186.688 153.91L186.682 153.977C186.678 154.016 186.596 154.923 187.172 155.525C187.526 155.895 188.041 156.064 188.703 156.029Z" fill="#131313"/>
<path d="M190.352 158.015L190.412 157.664C189.063 157.434 188.895 156.263 188.875 155.935L193.702 152.2L193.484 151.918L188.517 155.761L188.516 155.848C188.515 155.867 188.517 157.703 190.352 158.015Z" fill="#131313"/>
<path d="M186.779 154.155L186.939 153.836C185.881 153.304 185.759 151.829 185.758 151.814L185.402 151.841C185.407 151.91 185.542 153.532 186.779 154.155Z" fill="#131313"/>
<path d="M133.002 176.952C133.002 176.952 139.969 175.131 146.307 175.823C146.367 175.83 146.424 175.856 146.469 175.898C146.514 175.939 146.545 175.994 146.556 176.054C146.568 176.114 146.56 176.176 146.534 176.232C146.508 176.287 146.465 176.333 146.412 176.362L142.397 178.56L141.588 184.863C141.538 185.26 141.359 185.629 141.079 185.915C140.799 186.201 140.433 186.388 140.038 186.447L134.671 187.254L133.002 176.952Z" fill="#F59060"/>
<path d="M166.998 166.484L176.333 173.555L175.693 174.389L166.998 166.484Z" fill="#131313"/>
<path d="M116.91 177.257L117.031 190.721L115.434 191.035L116.91 177.257Z" fill="#131313"/>
<path d="M165.007 241.094L164.299 245.132L173.626 249.581L174.359 246.836L165.007 241.094Z" fill="#1D6DEC"/>
<path d="M165.079 240.982L164.939 241.209L174.291 246.951L174.43 246.725L165.079 240.982Z" fill="#131313"/>
<path d="M117.487 154.905L115.498 157.424L119.757 163.061L121.525 160.438L117.487 154.905Z" fill="#ED2941"/>
<path d="M125.5 153.952L128.069 156.075L128.311 160.989L125.799 159.582L125.5 153.952Z" fill="#ED2941"/>
</svg>
