<svg width="249" height="274" viewBox="0 0 249 274" fill="none" xmlns="http://www.w3.org/2000/svg">
<path d="M2.00859 229.967V209.29H14.8577V211.653H4.57841V218.565H13.0854V220.928H4.57841V229.967H2.00859ZM23.3365 214.902H24.0159V217.265H22.8048C19.6442 217.265 18.7876 219.894 18.7876 222.287V229.967H16.3655V214.902H18.4627L18.7876 217.177C19.4965 216.025 20.6485 214.902 23.3365 214.902ZM32.1915 230.144C27.7903 230.144 24.7183 227.013 24.7183 222.435C24.7183 217.856 27.7903 214.725 32.1915 214.725C36.5926 214.725 39.6646 217.856 39.6646 222.435C39.6646 227.013 36.5926 230.144 32.1915 230.144ZM32.1915 227.988C35.1748 227.988 37.1834 225.654 37.1834 222.435C37.1834 219.215 35.1748 216.881 32.1915 216.881C29.2081 216.881 27.1995 219.215 27.1995 222.435C27.1995 225.654 29.2081 227.988 32.1915 227.988ZM59.2493 214.725C62.3803 214.725 64.9501 216.527 64.9501 221.283V229.967H62.528V221.43C62.528 218.476 61.2283 216.94 58.9539 216.94C56.4432 216.94 54.9072 218.831 54.9072 221.903V229.967H52.4851V221.43C52.4851 218.476 51.1558 216.94 48.8519 216.94C46.3707 216.94 44.8642 219.008 44.8642 222.021V229.967H42.4421V214.902H44.5393L44.8642 216.97C45.6618 215.877 46.9319 214.725 49.2654 214.725C51.3626 214.725 53.1644 215.67 54.021 217.59C54.9367 215.966 56.5613 214.725 59.2493 214.725ZM1.536 258.927L8.592 259.023C8.832 262.287 11.424 264.543 15.552 264.543C18.864 264.543 21.312 263.103 21.312 260.463C21.312 257.631 18.576 257.055 12.96 255.951C7.296 254.895 2.304 253.071 2.304 246.255C2.304 240.303 7.248 236.079 14.832 236.079C22.752 236.079 27.792 240.207 27.888 246.639H20.832C20.496 243.807 18.336 241.839 14.832 241.839C11.76 241.839 9.552 243.135 9.552 245.727C9.552 248.463 12.192 249.039 17.76 250.095C23.52 251.151 28.608 252.879 28.56 259.647C28.512 265.935 23.328 270.255 15.456 270.255C6.912 270.255 1.584 265.743 1.536 258.927ZM43.968 270.255C36.144 270.255 31.392 265.407 31.392 257.631C31.392 249.999 36.384 245.007 44.208 245.007C50.928 245.007 55.104 248.655 56.064 254.511H49.008C48.432 252.063 46.752 250.527 44.112 250.527C40.56 250.527 38.304 253.455 38.304 257.631C38.304 261.855 40.56 264.735 44.112 264.735C46.752 264.735 48.528 263.151 49.008 260.655H56.112C55.152 266.559 50.688 270.255 43.968 270.255ZM73.5521 245.295H74.7041V251.439H72.0161C67.9841 251.439 66.4481 254.127 66.4481 257.871V269.967H59.6801V245.295H65.8241L66.4481 248.991C67.7921 246.783 69.7121 245.295 73.5521 245.295ZM100.638 264.255H101.406V269.967H97.9496C94.4456 269.967 93.3416 268.287 93.3896 265.935C91.6616 268.671 89.1656 270.255 85.3256 270.255C79.9976 270.255 76.1576 267.711 76.1576 263.007C76.1576 257.775 80.0936 254.799 87.4856 254.799H92.3816V253.599C92.3816 251.391 90.7976 249.951 87.9656 249.951C85.3256 249.951 83.5496 251.151 83.2616 252.975H76.7336C77.2136 248.175 81.6296 245.007 88.1576 245.007C95.0696 245.007 99.0536 248.079 99.0536 253.983V262.719C99.0536 264.015 99.5816 264.255 100.638 264.255ZM92.3816 259.791V259.311H87.4376C84.6056 259.311 82.9736 260.463 82.9736 262.527C82.9736 264.255 84.3656 265.359 86.6216 265.359C90.1736 265.359 92.3336 263.151 92.3816 259.791ZM105.8 262.911V251.007H101.72V245.295H105.8V238.383H112.568V245.295H118.232V251.007H112.568V261.807C112.568 263.535 113.24 264.255 115.016 264.255H118.376V269.967H112.856C108.152 269.967 105.8 267.615 105.8 262.911ZM132.749 270.255C124.925 270.255 120.173 265.407 120.173 257.631C120.173 249.999 125.165 245.007 132.989 245.007C139.709 245.007 143.885 248.655 144.845 254.511H137.789C137.213 252.063 135.533 250.527 132.893 250.527C129.341 250.527 127.085 253.455 127.085 257.631C127.085 261.855 129.341 264.735 132.893 264.735C135.533 264.735 137.309 263.151 137.789 260.655H144.893C143.933 266.559 139.469 270.255 132.749 270.255ZM162.525 245.007C167.997 245.007 172.509 247.935 172.509 256.287V269.967H165.741V256.863C165.741 252.831 164.109 250.575 160.749 250.575C157.293 250.575 155.229 253.071 155.229 257.295V269.967H148.461V236.367H155.229V248.319C156.813 246.399 159.021 245.007 162.525 245.007Z" fill="white"/>
<g clip-path="url(#clip0_796_945)">
<path opacity="0.5" d="M131.285 40.0339C134.32 34.802 141.876 34.802 144.911 40.0339L223.794 175.994C226.841 181.245 223.052 187.824 216.981 187.824H59.2145C53.1435 187.824 49.3547 181.245 52.4014 175.994L131.285 40.0339Z" fill="#CAD1FD"/>
<path d="M63.4043 47.2076C62.3036 37.2727 69.4909 28.2948 79.4258 27.1943C89.3607 26.0938 98.3385 33.2809 99.439 43.2158C100.539 53.1508 93.3518 62.1286 83.4169 63.2286C73.482 64.3286 64.5042 57.1425 63.4043 47.2076ZM63.9867 47.1431C65.0517 56.7567 73.7394 63.7116 83.353 62.6466C92.9665 61.5816 99.9209 52.894 98.8563 43.2803C97.7917 33.6666 89.1033 26.7118 79.4898 27.7766C69.8762 28.8413 62.9213 37.5294 63.9862 47.1431H63.9867Z" fill="#6595F7"/>
<path d="M76.2409 69.5179C86.0907 69.5179 94.0755 61.533 94.0755 51.6832C94.0755 41.8335 86.0907 33.8486 76.2409 33.8486C66.3911 33.8486 58.4062 41.8335 58.4062 51.6832C58.4062 61.533 66.3911 69.5179 76.2409 69.5179Z" fill="#D0B3FF"/>
<path d="M73.2711 41.2842C75.7917 43.6801 78.6346 45.7123 81.7173 47.3219C82.4006 51.6268 84.2297 55.6686 87.0127 59.0232C82.9309 57.4373 78.4574 57.1577 74.2099 58.2232C71.8159 55.795 68.7753 54.105 65.4492 53.3538C68.0567 49.3306 70.664 45.3074 73.2711 41.2842Z" fill="white"/>
<path d="M87.0562 59.4117C87.1354 59.403 87.21 59.3704 87.27 59.3181C87.3301 59.2658 87.3727 59.1965 87.3922 59.1193C87.4118 59.0421 87.4073 58.9608 87.3793 58.8863C87.3514 58.8117 87.3013 58.7475 87.2359 58.7022L76.9864 51.6056C76.9442 51.5764 76.8966 51.5558 76.8465 51.545C76.7963 51.5341 76.7445 51.5333 76.694 51.5424C76.6435 51.5516 76.5953 51.5706 76.5522 51.5984C76.509 51.6262 76.4718 51.6623 76.4426 51.7045C76.4133 51.7467 76.3927 51.7942 76.3819 51.8443C76.371 51.8945 76.3702 51.9463 76.3793 51.9968C76.3885 52.0473 76.4075 52.0955 76.4354 52.1386C76.4632 52.1818 76.4992 52.219 76.5414 52.2482L86.7909 59.3447C86.8683 59.3984 86.9626 59.4223 87.0562 59.4117Z" fill="#131313"/>
<path d="M76.306 53.0739C77.1211 53.0739 77.7819 52.4131 77.7819 51.598C77.7819 50.7829 77.1211 50.1221 76.306 50.1221C75.4909 50.1221 74.8301 50.7829 74.8301 51.598C74.8301 52.4131 75.4909 53.0739 76.306 53.0739Z" fill="#131313"/>
<path d="M65.4938 53.7423C65.5514 53.736 65.6069 53.7169 65.6562 53.6865C65.7055 53.6561 65.7475 53.6151 65.7789 53.5664L73.6007 41.4969C73.6571 41.41 73.6766 41.3042 73.6549 41.2028C73.6333 41.1014 73.5723 41.0128 73.4853 40.9564C73.3983 40.9 73.2925 40.8805 73.1911 40.9022C73.0898 40.9238 73.0011 40.9848 72.9448 41.0718L65.1231 53.1413C65.083 53.2033 65.0613 53.2755 65.0606 53.3493C65.0598 53.4232 65.08 53.4958 65.1188 53.5586C65.1576 53.6215 65.2134 53.672 65.2798 53.7045C65.3462 53.7369 65.4204 53.7498 65.4938 53.7417V53.7423Z" fill="#131313"/>
<path d="M92.1341 124.689H57.0352V159.788H92.1341V124.689Z" fill="#131313"/>
<path d="M112.117 144.673H77.0176V179.772H112.117V144.673Z" fill="#131313"/>
<path d="M132.101 164.656H97.002V199.755H132.101V164.656Z" fill="#131313"/>
<path d="M185.829 146.153H150.73V181.252H185.829V146.153Z" fill="#131313"/>
<path d="M204.857 124.689H169.758V159.788H204.857V124.689Z" fill="#131313"/>
<path d="M94.095 123.056H58.9961V158.155H94.095V123.056Z" fill="#D0B3FF"/>
<path d="M114.077 143.039H78.9785V178.138H114.077V143.039Z" fill="#FCB913"/>
<path d="M134.062 163.022H98.9629V198.121H134.062V163.022Z" fill="#6595F7"/>
<path d="M187.788 144.52H152.689V179.618H187.788V144.52Z" fill="#1D6DEC"/>
<path d="M206.816 123.056H171.717V158.155H206.816V123.056Z" fill="#FF4655"/>
<path d="M162.603 190.317L159.701 185.749L171.762 183.022L174.317 188.084L162.603 190.317Z" fill="#F59060"/>
<path d="M159.701 185.749L160.446 186.922L171.762 183.022L159.701 185.749Z" fill="#131313"/>
<path d="M168.549 201.366L169.286 202.485L188.9 198.072C188.716 197.669 188.482 197.29 188.206 196.944C187.668 196.274 187.003 195.717 186.249 195.305C185.495 194.893 184.668 194.634 183.813 194.542C183.305 194.494 182.802 194.405 182.308 194.276C177.202 192.953 174.395 187.666 174.395 187.666L162.604 190.317L168.549 201.366Z" fill="#6595F7"/>
<path d="M168.549 201.367L169.286 202.485L188.901 198.072C188.716 197.669 188.483 197.291 188.206 196.944L168.549 201.367Z" fill="#131313"/>
<path d="M172.501 189.269C174.451 191.707 179.39 197.247 182.307 194.276C177.201 192.953 174.395 187.665 174.395 187.665C174.395 187.665 173.188 186.18 172.311 187.039C172.016 187.331 171.918 187.754 171.997 188.204C172.074 188.595 172.247 188.961 172.501 189.269Z" fill="white"/>
<path d="M178.838 195.689C178.816 195.693 178.793 195.692 178.771 195.687C178.749 195.682 178.729 195.672 178.711 195.658C178.681 195.643 178.659 195.616 178.648 195.584C178.638 195.551 178.641 195.517 178.657 195.487C179.186 194.766 180.814 193.762 180.884 193.719C180.916 193.704 180.953 193.701 180.988 193.71C181.022 193.719 181.053 193.739 181.075 193.767C181.087 193.778 181.097 193.791 181.104 193.806C181.11 193.821 181.113 193.837 181.113 193.854C181.112 193.87 181.108 193.886 181.101 193.9C181.093 193.915 181.082 193.927 181.069 193.937C181.053 193.947 179.403 194.962 178.894 195.654C178.88 195.672 178.86 195.684 178.838 195.689Z" fill="#131313"/>
<path d="M175.421 193.922C175.397 193.926 175.371 193.925 175.347 193.918C175.323 193.912 175.301 193.9 175.281 193.884C175.267 193.876 175.254 193.864 175.243 193.851C175.233 193.837 175.225 193.822 175.221 193.805C175.217 193.789 175.216 193.772 175.218 193.755C175.22 193.738 175.226 193.722 175.235 193.707C176.003 192.81 178.477 192.385 178.582 192.367C178.619 192.363 178.657 192.372 178.69 192.39C178.723 192.409 178.749 192.437 178.765 192.471C178.774 192.485 178.779 192.501 178.78 192.517C178.781 192.533 178.778 192.549 178.771 192.563C178.764 192.578 178.754 192.59 178.741 192.6C178.728 192.609 178.713 192.616 178.697 192.618C178.673 192.622 176.198 193.048 175.473 193.892C175.46 193.908 175.441 193.918 175.421 193.922Z" fill="#131313"/>
<path d="M176.591 190.703C176.582 190.705 176.573 190.706 176.564 190.706C176.544 190.706 174.538 190.719 173.236 191.222C173.198 191.232 173.159 191.229 173.123 191.215C173.087 191.201 173.056 191.176 173.035 191.144C172.987 191.076 173 191 173.063 190.976C174.407 190.456 176.4 190.445 176.484 190.444C176.523 190.446 176.561 190.459 176.592 190.483C176.623 190.506 176.647 190.538 176.66 190.575C176.665 190.588 176.667 190.602 176.667 190.615C176.666 190.629 176.662 190.643 176.656 190.655C176.649 190.667 176.64 190.678 176.629 190.686C176.618 190.695 176.605 190.701 176.591 190.703Z" fill="#131313"/>
<path d="M171.401 188.941C171.368 188.946 171.335 188.942 171.304 188.93C171.273 188.917 171.245 188.898 171.224 188.872C171.166 188.805 171.165 188.723 171.221 188.689C171.804 188.331 174.455 187.948 174.567 187.932C174.607 187.93 174.647 187.94 174.682 187.96C174.716 187.981 174.744 188.012 174.761 188.048C174.77 188.063 174.775 188.079 174.776 188.096C174.778 188.112 174.774 188.129 174.767 188.145C174.76 188.16 174.75 188.173 174.736 188.183C174.723 188.193 174.707 188.2 174.69 188.202C174.663 188.206 171.979 188.594 171.432 188.93C171.423 188.935 171.412 188.939 171.401 188.941Z" fill="#131313"/>
<path d="M174.351 188.229C174.328 188.234 174.312 188.237 174.306 188.238L174.103 188.281L174.091 188.071C174.076 187.801 173.969 185.382 174.947 185.145C175.259 185.066 175.628 185.219 176.045 185.587C176.476 185.968 176.683 186.339 176.663 186.692C176.605 187.68 174.683 188.154 174.351 188.229ZM175.101 185.421L175.095 185.422C174.463 185.575 174.36 187.124 174.375 187.922C175.065 187.745 176.334 187.282 176.372 186.599C176.386 186.342 176.226 186.07 175.883 185.768C175.565 185.488 175.309 185.374 175.101 185.421H175.101Z" fill="#131313"/>
<path d="M176.43 189.647C176.415 189.65 176.399 189.653 176.384 189.655C175.686 189.745 174.291 188.391 174.132 188.234L173.951 188.055L174.16 188.022C174.325 187.996 175.788 187.784 176.455 188.372C176.567 188.467 176.653 188.588 176.707 188.724C176.761 188.86 176.782 189.008 176.766 189.153C176.744 189.436 176.631 189.601 176.43 189.647ZM174.506 188.265C175.07 188.788 175.907 189.437 176.27 189.39C176.316 189.384 176.457 189.366 176.48 189.061C176.493 188.966 176.483 188.87 176.451 188.779C176.418 188.689 176.364 188.608 176.293 188.544C175.909 188.206 175.012 188.215 174.506 188.264V188.265Z" fill="#131313"/>
<path d="M176.036 192.297C175.995 192.305 175.951 192.296 175.916 192.273C175.826 192.218 173.704 190.897 174.102 189.665C174.441 188.617 174.127 188.229 174.123 188.226C174.068 188.16 174.065 188.078 174.118 188.042C174.151 188.025 174.189 188.02 174.226 188.028C174.262 188.036 174.294 188.056 174.318 188.085C174.365 188.135 174.771 188.606 174.381 189.805C174.046 190.837 176.003 192.06 176.023 192.072C176.055 192.087 176.081 192.114 176.095 192.148C176.109 192.181 176.11 192.218 176.099 192.252C176.092 192.264 176.083 192.274 176.073 192.282C176.062 192.289 176.05 192.295 176.036 192.297Z" fill="#131313"/>
<path d="M109.846 118.539L110.998 123.638C112.22 129.04 114.722 134.068 118.295 138.3L160.27 188.021L173.131 183.492L150.378 148.369L166.994 122.131C171.492 115.028 165.149 106.035 156.948 107.889L109.846 118.539ZM135.523 128.197L147.078 125.585L142.8 138.079L135.523 128.197Z" fill="#D0B3FF"/>
<path d="M113.853 117.633L113.543 117.703L113.775 118.731L114.086 118.66L113.853 117.633Z" fill="#131313"/>
<path d="M160.215 182.992L160.457 182.785L161.796 184.346L161.554 184.553L160.215 182.992ZM157.538 179.869L157.779 179.662L159.118 181.223L158.876 181.43L157.538 179.869ZM154.859 176.746L155.101 176.539L156.44 178.1L156.198 178.307L154.859 176.746ZM152.181 173.623L152.423 173.416L153.762 174.977L153.52 175.185L152.181 173.623ZM149.504 170.5L149.745 170.293L151.084 171.854L150.843 172.062L149.504 170.5ZM146.826 167.377L147.067 167.17L148.406 168.732L148.165 168.939L146.826 167.377ZM144.148 164.255L144.389 164.047L145.728 165.609L145.487 165.816L144.148 164.255ZM141.47 161.132L141.711 160.924L143.05 162.486L142.809 162.693L141.47 161.132ZM138.792 158.009L139.033 157.802L140.372 159.363L140.131 159.57L138.792 158.009ZM136.114 154.886L136.355 154.679L137.694 156.24L137.453 156.447L136.114 154.886ZM133.436 151.763L133.678 151.556L135.017 153.117L134.775 153.325L133.436 151.763ZM130.758 148.64L130.999 148.433L132.338 149.994L132.096 150.202L130.758 148.64ZM128.08 145.517L128.321 145.31L129.661 146.872L129.419 147.079L128.08 145.517ZM125.402 142.395L125.644 142.187L126.982 143.749L126.741 143.956L125.402 142.395ZM122.724 139.272L122.966 139.064L124.305 140.626L124.063 140.833L122.724 139.272ZM120.205 136L120.468 135.821C120.85 136.382 121.255 136.94 121.669 137.479L121.417 137.673C120.998 137.13 120.59 136.567 120.204 136H120.205ZM118.083 132.457L118.365 132.31C118.68 132.912 119.016 133.513 119.365 134.096L119.092 134.26C118.74 133.671 118.4 133.065 118.083 132.457H118.083ZM116.389 128.69L116.687 128.576C116.929 129.211 117.193 129.847 117.471 130.467L117.181 130.598C116.9 129.973 116.633 129.331 116.389 128.69ZM115.147 124.751L115.456 124.673C115.622 125.332 115.81 125.995 116.014 126.643L115.711 126.738C115.504 126.085 115.315 125.416 115.147 124.751ZM114.229 120.737L114.539 120.667L114.993 122.673L114.682 122.744L114.229 120.737Z" fill="#131313"/>
<path d="M163.138 185.907L162.896 186.114L163.582 186.914L163.824 186.707L163.138 185.907Z" fill="#131313"/>
<path d="M131.805 122.882L131.549 123.071L150.25 148.465L150.507 148.276L131.805 122.882Z" fill="#131313"/>
<path d="M145.613 142.059L146.072 140.611L146.376 140.707L145.916 142.156L145.613 142.059ZM146.71 138.603L147.347 136.595L147.651 136.691L147.013 138.699L146.71 138.603ZM147.984 134.587L148.622 132.579L148.925 132.675L148.288 134.683L147.984 134.587ZM149.259 130.571L149.897 128.563L150.2 128.659L149.563 130.667L149.259 130.571ZM150.534 126.555L151.163 124.572L151.171 124.548L151.475 124.642L150.837 126.651L150.534 126.555ZM149.424 121.482L149.498 121.173C149.861 121.262 150.203 121.424 150.501 121.649C150.8 121.873 151.05 122.156 151.236 122.481L150.96 122.639C150.796 122.353 150.575 122.102 150.311 121.904C150.047 121.705 149.745 121.561 149.424 121.482ZM132.969 124.624L135.024 124.16L135.094 124.47L133.039 124.935L132.969 124.624ZM137.078 123.695L139.133 123.23L139.204 123.541L137.149 124.005L137.078 123.695ZM141.188 122.766L143.243 122.301L143.314 122.612L141.259 123.076L141.188 122.766ZM145.298 121.836L147.353 121.372L147.423 121.682L145.368 122.147L145.298 121.836Z" fill="#131313"/>
<path d="M161.035 187.848L172.85 185.177L172.171 183.831L161.035 187.848Z" fill="#131313"/>
<path d="M66.897 89.2063L64.7794 86.1733C64.6572 86.0039 64.51 85.854 64.3428 85.7287C63.2954 84.9432 59.3097 81.6281 56.2399 79.0605C56.147 78.9828 56.0287 78.9423 55.9077 78.9466C55.7867 78.9509 55.6716 78.9998 55.5844 79.0839C55.4973 79.1679 55.4443 79.2812 55.4356 79.402C55.427 79.5227 55.4632 79.6424 55.5375 79.738C56.2243 80.6256 58.0066 82.1267 57.6946 82.9603C57.5782 83.2712 57.167 83.177 56.7893 83.7657C56.6398 84.0368 56.466 84.2938 56.2702 84.5336C56.2012 84.6249 56.1233 84.709 56.0374 84.7846C55.7867 84.9865 55.5487 84.9898 55.1942 85.3708C54.7765 85.8201 54.9569 85.9767 54.4602 86.5375C54.177 86.8573 54.0374 86.8975 53.8141 87.2464C53.667 87.4763 53.4956 87.7493 53.5298 88.1045C53.5444 88.2595 53.5914 88.4097 53.6676 88.5454C53.7438 88.6812 53.8476 88.7995 53.9723 88.8927L58.0109 91.921C58.4571 92.2554 59.678 92.1222 59.8514 92.6519L62.1546 94.9448L66.897 89.2063Z" fill="#F59060"/>
<path d="M62.735 84.5838L62.607 84.8579L61.5566 84.3655L61.3128 84.2516L60.9978 84.1047L60.4171 83.8326C60.3623 83.8056 60.3 83.7981 60.2404 83.8112C60.1809 83.8244 60.1275 83.8576 60.0893 83.9051C60.0487 83.9509 60.0252 84.0093 60.0228 84.0705C60.0204 84.1316 60.0393 84.1917 60.0763 84.2405L60.1328 84.3196L60.4722 84.805L60.8376 85.3261L61.4397 86.1839L61.4186 86.2555C61.4152 86.2666 61.0744 87.3968 61.5069 88.1482C61.6012 88.3072 61.7283 88.4443 61.8796 88.5505C62.031 88.6567 62.2032 88.7294 62.3848 88.764L62.316 89.0569C62.0742 89.0051 61.8459 88.9031 61.646 88.7575C61.4824 88.6327 61.3452 88.4767 61.2426 88.2984C60.8089 87.5413 61.0337 86.521 61.108 86.2402L60.6462 85.5821L60.2807 85.061L59.8259 84.4146C59.81 84.3912 59.7961 84.3666 59.7841 84.341C59.7302 84.2336 59.7111 84.1121 59.7295 83.9934C59.7479 83.8747 59.8029 83.7646 59.8869 83.6787C59.9708 83.5927 60.0795 83.5351 60.1978 83.5139C60.316 83.4927 60.438 83.509 60.5466 83.5604L61.1822 83.8588L61.7425 84.1199L61.9482 84.2158L62.735 84.5838Z" fill="#131313"/>
<path d="M57.8118 82.8298L57.6094 83.0547L61.0592 86.1586L61.2615 85.9337L57.8118 82.8298Z" fill="#131313"/>
<path d="M58.6778 89.8139L58.6896 89.5116C59.1595 89.5299 59.5148 89.4126 59.7468 89.1632C60.0685 88.8181 60.0762 88.3044 60.0691 88.137L56.168 84.6463L56.3698 84.4209L60.3597 87.9909L60.3662 88.0481C60.37 88.0806 60.4515 88.8489 59.9701 89.3676C59.6752 89.6857 59.2407 89.8358 58.6778 89.8139Z" fill="#131313"/>
<path d="M57.3064 91.5209L57.2513 91.2234C58.3924 91.0115 58.5198 90.016 58.533 89.7373L54.3906 86.6307L54.5721 86.3887L58.8349 89.5851L58.8367 89.6583C58.8378 89.6748 58.8591 91.2325 57.3064 91.5209Z" fill="#131313"/>
<path d="M60.2865 88.1991L60.1465 87.9308C61.0371 87.4658 61.1215 86.2137 61.1223 86.2012L61.4244 86.2191C61.421 86.277 61.3274 87.6552 60.2865 88.1991Z" fill="#131313"/>
<path d="M184.154 71.3721C182.365 73.9677 179.155 77.8385 173.572 82.6281L168.953 76.8488C168.953 76.8488 172.262 74.2805 174.464 66.8252C174.569 66.4724 174.67 66.1093 174.768 65.736C174.943 65.072 175.108 64.3731 175.263 63.6392C175.277 63.5693 175.313 63.5055 175.365 63.4568C175.417 63.408 175.483 63.3767 175.553 63.3673C175.624 63.3578 175.696 63.3707 175.759 63.404C175.822 63.4374 175.873 63.4896 175.905 63.5534C176.427 64.6028 176.835 65.705 177.123 66.8411C177.234 67.2874 177.32 67.7393 177.382 68.1949C177.384 68.2029 177.385 68.211 177.386 68.2192C177.39 68.2509 177.403 68.2809 177.422 68.3061C177.442 68.3313 177.468 68.3507 177.498 68.3623C177.528 68.3739 177.56 68.3773 177.591 68.3722C177.623 68.367 177.653 68.3534 177.677 68.3329L184.154 71.3721Z" fill="#F59060"/>
<path d="M183.476 69.7275C183.98 69.5254 184.46 69.2657 184.904 68.9535C184.968 68.9079 185.045 68.8853 185.123 68.8895C185.201 68.8937 185.275 68.9243 185.333 68.9764C185.391 69.0285 185.43 69.0989 185.443 69.1759C185.455 69.253 185.441 69.332 185.403 69.4C185.229 69.705 185.023 70.0496 184.779 70.4327C184.593 70.724 184.386 71.0377 184.155 71.3725L177.678 68.3328C177.692 68.322 177.704 68.3088 177.713 68.2937C177.86 68.0677 178.057 67.7585 178.291 67.3888C179.348 65.7137 181.133 62.772 182.137 60.5067C182.17 60.4339 182.227 60.3747 182.298 60.3393C182.37 60.3039 182.451 60.2946 182.529 60.3128C182.607 60.331 182.676 60.3758 182.724 60.4393C182.772 60.5028 182.797 60.5812 182.794 60.6609C182.736 61.7628 182.414 63.4281 181.324 65.5949C181.306 65.6317 181.302 65.6735 181.313 65.7128C181.323 65.7521 181.348 65.7862 181.382 65.809C181.415 65.8318 181.456 65.8417 181.497 65.8368C181.537 65.832 181.574 65.8128 181.602 65.7828C182.421 64.8276 183.561 63.4233 184.322 62.1671C184.364 62.0985 184.428 62.0468 184.504 62.0207C184.58 61.9947 184.662 61.9961 184.737 62.0247C184.812 62.0533 184.875 62.1073 184.914 62.1772C184.953 62.2471 184.967 62.3286 184.952 62.4074C184.741 63.5484 184.197 65.183 182.864 67.1073C182.84 67.1408 182.829 67.1818 182.833 67.2227C182.837 67.2636 182.856 67.3016 182.886 67.3296C182.916 67.3576 182.956 67.3737 182.997 67.375C183.038 67.3762 183.078 67.3626 183.11 67.3365C183.845 66.7368 184.528 66.0758 185.151 65.3604C185.203 65.299 185.275 65.2581 185.355 65.2448C185.434 65.2315 185.516 65.2468 185.585 65.2878C185.655 65.3289 185.708 65.3931 185.734 65.4692C185.761 65.5453 185.76 65.6284 185.731 65.7038C185.34 66.7136 184.619 68.047 183.292 69.4491C183.265 69.4771 183.249 69.5134 183.245 69.552C183.242 69.5906 183.251 69.6293 183.273 69.6617C183.294 69.6941 183.326 69.7182 183.363 69.7302C183.4 69.7421 183.44 69.7412 183.476 69.7275Z" fill="#F59060"/>
<path d="M177.924 79.5572C177.924 79.5572 176.312 81.7167 173.871 84.9611C173.79 85.0684 173.706 85.1792 173.623 85.2901C172.265 87.0923 170.672 89.2045 168.967 91.4559C168.885 91.565 168.802 91.6744 168.719 91.7853C165.914 95.484 162.832 99.5307 160.021 103.166C159.944 103.265 159.868 103.363 159.792 103.461C159.602 103.707 159.412 103.952 159.224 104.194C159.163 104.273 159.102 104.352 159.041 104.43C158.374 105.288 157.538 106.001 156.584 106.522C155.631 107.044 154.58 107.363 153.497 107.462C152.415 107.56 151.324 107.434 150.292 107.093C149.26 106.751 148.309 106.201 147.499 105.476C147.211 105.219 146.916 104.952 146.615 104.673C143.235 101.542 140.071 98.1858 137.145 94.6266L142.641 113.029C142.641 113.029 141.712 114.35 139.821 116.046C139.763 116.098 139.702 116.15 139.642 116.204C137.842 117.784 135.848 119.128 133.707 120.201C133.643 120.235 133.578 120.267 133.512 120.298C128.118 122.959 120.286 124.68 109.905 121.766L109.281 119.335L109.21 119.061L105.719 105.459L105.654 105.203L105.111 103.092C105.111 103.092 104.902 103.611 104.505 104.479C104.474 104.545 104.442 104.613 104.409 104.685C103.455 106.743 101.563 110.478 98.9747 113.952C98.9316 114.011 98.8885 114.07 98.8449 114.127C98.3243 114.816 97.7776 115.494 97.2053 116.146C96.8977 116.497 96.5829 116.839 96.2608 117.171C95.0465 118.423 93.483 119.28 91.7742 119.63C90.0654 119.98 88.2909 119.806 86.6822 119.132C86.6133 119.103 86.5444 119.074 86.4764 119.042C85.6396 118.665 84.8682 118.157 84.1913 117.537L84.1015 117.455C80.4456 114.105 73.9904 107.869 68.5762 102.596C68.5189 102.539 68.4601 102.482 68.4032 102.427C66.6508 100.72 65.013 99.1187 63.622 97.7555C63.5632 97.6991 63.5059 97.6423 63.4489 97.5869C60.9296 95.1185 59.2598 93.4742 59.2598 93.4742L66.5521 87.7652C66.5521 87.7652 69.4645 89.9651 73.2127 92.8234C73.2896 92.8816 73.3668 92.9408 73.4455 93.0006C78.9278 97.1816 86.0759 102.68 88.5703 104.802L96.5879 88.8316L97.445 87.1247C98.0604 85.9 98.8465 84.7688 99.7798 83.765C99.8298 83.7105 99.8812 83.656 99.933 83.6027C101.136 82.3465 102.555 81.3175 104.123 80.565C104.828 80.2256 105.6 79.8676 106.431 79.5003C106.469 79.4842 106.506 79.4669 106.544 79.4509C106.631 79.4135 106.717 79.3747 106.803 79.3374C109.415 78.1901 112.089 77.1918 114.813 76.347C114.942 76.3079 115.072 76.2677 115.202 76.2296C118.37 75.2787 121.772 74.5257 125.158 74.2422C126.061 74.1671 126.96 74.1266 127.854 74.1207C127.877 74.1207 127.899 74.1207 127.921 74.1207C127.994 74.1207 128.067 74.1207 128.138 74.1222C131.508 74.1693 134.756 75.3954 137.316 77.5875C137.564 77.7984 137.822 78.0204 138.089 78.2494C139.042 79.0677 140.111 79.9937 141.234 80.9844C141.293 81.0377 141.354 81.0906 141.415 81.1436C144.127 83.5402 147.14 86.2888 149.632 88.7857C149.743 88.897 149.854 89.0083 149.962 89.1189C150.818 89.9846 151.605 90.8158 152.288 91.585L153.238 90.7026L153.404 90.5495L158.395 85.9111L158.584 85.7363L167.923 77.0605L168.112 76.8844L171.465 73.7705L177.924 79.5572Z" fill="#6595F7"/>
<path d="M99.9332 83.6016C99.881 83.6548 99.83 83.7094 99.78 83.7638C100.997 85.5907 101.78 87.6716 102.069 89.8474C102.359 92.0233 102.147 94.2365 101.45 96.318C100.754 98.3995 99.5905 100.294 98.0495 101.857C96.5086 103.421 94.6307 104.611 92.5594 105.337C90.4881 106.064 88.2781 106.307 86.0984 106.049C83.9186 105.791 81.8267 105.037 79.9826 103.847C78.1384 102.657 76.5907 101.06 75.4578 99.1803C74.3249 97.3003 73.6367 95.1862 73.4458 92.9995C73.3674 92.9401 73.2898 92.8804 73.2129 92.8222C73.3777 95.0546 74.0529 97.2194 75.1865 99.1496C76.3202 101.08 77.8819 102.724 79.7513 103.955C81.6208 105.186 83.748 105.972 85.969 106.251C88.19 106.53 90.4455 106.296 92.5615 105.566C94.6776 104.836 96.5977 103.629 98.1738 102.04C99.7499 100.45 100.94 98.5198 101.652 96.3977C102.364 94.2755 102.58 92.0181 102.282 89.7996C101.984 87.581 101.18 85.4605 99.9332 83.6016Z" fill="white"/>
<path d="M153.404 90.5477L153.238 90.7008C155.352 92.0681 157.069 93.9661 158.219 96.2051C159.369 98.4441 159.911 100.946 159.792 103.46C159.868 103.363 159.943 103.264 160.02 103.165C160.086 100.672 159.513 98.2036 158.355 95.995C157.196 93.7863 155.492 91.911 153.404 90.5477ZM142.18 88.5164C139.168 89.1965 136.449 90.8131 134.413 93.1343C132.377 95.4554 131.128 98.3619 130.846 101.437C130.564 104.511 131.263 107.597 132.843 110.249C134.423 112.902 136.803 114.986 139.641 116.203C139.701 116.149 139.762 116.097 139.82 116.045C136.386 114.603 133.644 111.885 132.171 108.464C130.699 105.042 130.609 101.183 131.922 97.697C133.235 94.2109 135.848 91.3694 139.212 89.7695C142.576 88.1695 146.429 87.9356 149.962 89.1169C149.854 89.0064 149.742 88.895 149.631 88.7837C147.213 88.0476 144.645 87.9554 142.18 88.5164Z" fill="white"/>
<path d="M117.86 113.317C114.368 114.103 111.289 116.148 109.209 119.06L109.28 119.334C110.662 117.353 112.52 115.751 114.683 114.676C116.847 113.601 119.246 113.088 121.66 113.184C124.073 113.28 126.424 113.982 128.495 115.225C130.567 116.468 132.292 118.213 133.512 120.298C133.577 120.267 133.642 120.234 133.706 120.2C132.136 117.521 129.755 115.41 126.906 114.172C124.058 112.935 120.89 112.635 117.86 113.317Z" fill="white"/>
<path d="M92.4898 112.523C90.946 112.874 89.5448 113.685 88.4713 114.848C87.3977 116.012 86.7022 117.474 86.4766 119.041C86.5446 119.073 86.6135 119.102 86.6824 119.131C86.8605 117.81 87.3827 116.56 88.1967 115.505C89.0108 114.45 90.088 113.628 91.3202 113.121C92.5524 112.614 93.8963 112.439 95.2171 112.616C96.5378 112.792 97.7889 113.313 98.8448 114.126C98.8884 114.069 98.9315 114.01 98.9746 113.951C98.065 113.251 97.0123 112.761 95.8915 112.514C94.7707 112.267 93.6092 112.27 92.4898 112.523Z" fill="white"/>
<path d="M120.32 98.6132C119.555 98.7861 118.859 99.1818 118.319 99.7503C117.78 100.319 117.421 101.035 117.288 101.807C117.155 102.58 117.254 103.374 117.573 104.09C117.892 104.806 118.415 105.412 119.078 105.83C119.741 106.249 120.513 106.461 121.297 106.441C122.08 106.42 122.84 106.168 123.48 105.716C124.121 105.263 124.612 104.631 124.893 103.9C125.174 103.168 125.232 102.369 125.059 101.605C124.826 100.58 124.196 99.6899 123.308 99.1291C122.419 98.5683 121.345 98.3828 120.32 98.6132ZM122.02 106.133C121.297 106.296 120.542 106.241 119.85 105.976C119.159 105.71 118.561 105.245 118.134 104.64C117.706 104.035 117.468 103.317 117.448 102.576C117.429 101.835 117.63 101.106 118.026 100.479C118.421 99.8525 118.993 99.3572 119.67 99.056C120.347 98.7547 121.098 98.661 121.829 98.7866C122.559 98.9122 123.235 99.2516 123.773 99.7617C124.31 100.272 124.684 100.93 124.847 101.653C125.065 102.622 124.89 103.637 124.36 104.477C123.83 105.317 122.988 105.912 122.02 106.133Z" fill="white"/>
<path d="M66.3175 95.0177C65.6605 95.1665 65.0523 95.4805 64.5504 95.9298C64.0485 96.3792 63.6695 96.9491 63.4492 97.5858C63.5063 97.6411 63.5636 97.6979 63.6223 97.7543C63.815 97.1444 64.1607 96.5941 64.6265 96.1558C65.0922 95.7174 65.6625 95.4057 66.2829 95.2503C66.9033 95.0949 67.5532 95.1009 68.1706 95.2679C68.7879 95.4349 69.3523 95.7573 69.8097 96.2043C70.2672 96.6513 70.6025 97.208 70.7838 97.8213C70.9651 98.4347 70.9862 99.0842 70.8452 99.7081C70.7042 100.332 70.4057 100.909 69.9783 101.385C69.5509 101.861 69.0087 102.219 68.4035 102.426C68.4604 102.481 68.5193 102.538 68.5766 102.594C69.5181 102.243 70.291 101.548 70.7389 100.648C71.1868 99.7489 71.2763 98.7129 70.9892 97.75C70.7021 96.787 70.0599 95.9692 69.1925 95.4619C68.3252 94.9546 67.2975 94.7959 66.3175 95.0177Z" fill="white"/>
<path d="M106.17 97.8603C105.459 98.0204 104.806 98.3734 104.284 98.8804C103.761 99.3874 103.388 100.029 103.206 100.734C103.024 101.439 103.04 102.181 103.252 102.878C103.464 103.574 103.864 104.199 104.409 104.683C104.442 104.612 104.474 104.544 104.505 104.478C103.815 103.843 103.387 102.973 103.306 102.039C103.225 101.105 103.495 100.174 104.065 99.4295C104.635 98.6849 105.462 98.1802 106.385 98.0145C107.308 97.8487 108.259 98.034 109.052 98.5338C109.845 99.0336 110.423 99.8119 110.672 100.716C110.921 101.62 110.823 102.584 110.397 103.419C109.971 104.255 109.248 104.9 108.371 105.23C107.493 105.56 106.524 105.55 105.653 105.201L105.719 105.458C106.424 105.712 107.187 105.758 107.918 105.591C108.943 105.359 109.834 104.73 110.395 103.841C110.956 102.952 111.141 101.877 110.909 100.852C110.677 99.8265 110.048 98.9354 109.159 98.3744C108.27 97.8134 107.195 97.6285 106.17 97.8603Z" fill="white"/>
<path d="M115.202 76.2285C115.072 76.2666 114.942 76.3068 114.813 76.346C116.393 76.732 117.807 77.6143 118.848 78.8632C119.89 80.1122 120.503 81.6621 120.599 83.2854C120.694 84.9087 120.267 86.5199 119.38 87.8825C118.492 89.2451 117.191 90.2873 115.668 90.8561C114.144 91.4249 112.479 91.4904 110.916 91.0429C109.352 90.5954 107.973 89.6585 106.982 88.3697C105.99 87.081 105.438 85.5083 105.406 83.8825C105.374 82.2567 105.864 80.6634 106.804 79.3366C106.717 79.3739 106.631 79.4127 106.545 79.4501C106.507 79.4661 106.469 79.4834 106.431 79.4995C105.543 80.8798 105.111 82.5048 105.198 84.144C105.286 85.7832 105.886 87.3534 106.916 88.6319C107.945 89.9104 109.351 90.8324 110.934 91.267C112.517 91.7016 114.197 91.6268 115.735 91.0533C117.273 90.4797 118.591 89.4365 119.503 88.0716C120.415 86.7066 120.874 85.0892 120.815 83.4488C120.756 81.8083 120.182 80.2281 119.175 78.9322C118.167 77.6362 116.777 76.6904 115.202 76.2288V76.2285Z" fill="white"/>
<path d="M167.748 91.8406C165.782 92.2826 163.721 91.9268 162.017 90.8513C160.313 89.7758 159.105 88.0683 158.658 86.1034C158.631 85.9806 158.606 85.8572 158.585 85.7343L158.396 85.9091C158.412 85.9902 158.429 86.0709 158.447 86.1513C158.906 88.1723 160.149 89.9286 161.901 91.0348C163.654 92.1411 165.774 92.507 167.796 92.0523C168.109 91.9813 168.417 91.8919 168.719 91.7844C168.802 91.6735 168.886 91.5641 168.968 91.455C168.573 91.6179 168.165 91.7468 167.748 91.8406ZM168.114 76.8818L167.925 77.0579C169.711 77.5071 171.272 78.589 172.321 80.1028C173.369 81.6166 173.832 83.4593 173.624 85.2886C173.707 85.1778 173.79 85.0667 173.872 84.9597C173.994 83.155 173.487 81.3636 172.437 79.8907C171.387 78.4178 169.859 77.3545 168.113 76.8818H168.114Z" fill="white"/>
<path d="M141.235 80.9829C140.952 82.0955 140.422 83.1297 139.682 84.0079C138.943 84.886 138.014 85.5852 136.966 86.0531C135.918 86.5209 134.777 86.7452 133.63 86.7091C132.482 86.673 131.358 86.3775 130.341 85.8447C129.325 85.3119 128.442 84.5557 127.759 83.6328C127.076 82.7099 126.612 81.6444 126.4 80.5162C126.188 79.388 126.234 78.2265 126.535 77.1188C126.837 76.0111 127.385 74.9861 128.139 74.1206C128.068 74.1189 127.996 74.1191 127.922 74.1192C127.9 74.1192 127.878 74.1192 127.855 74.1192C127.109 75.0179 126.574 76.0723 126.289 77.2051C126.004 78.3378 125.976 79.5201 126.209 80.6649C126.441 81.8097 126.926 82.8879 127.63 83.8202C128.333 84.7526 129.237 85.5154 130.274 86.0525C131.312 86.5897 132.456 86.8875 133.624 86.9241C134.791 86.9607 135.952 86.7352 137.021 86.2641C138.09 85.793 139.039 85.0883 139.8 84.2019C140.561 83.3154 141.113 82.2697 141.416 81.1417C141.355 81.0891 141.294 81.0361 141.235 80.9829Z" fill="white"/>
<path d="M111.941 77.298C111.941 77.298 113.214 80.5825 118.478 78.6294C118.478 78.6294 122.379 77.3147 120.522 74.8779C120.522 74.8779 112.713 76.7937 111.941 77.298Z" fill="white"/>
<path d="M119.98 65.1997C119.997 65.245 120.012 65.2911 120.028 65.3378C120.111 65.5858 120.186 65.8354 120.25 66.0839C120.263 66.1257 120.273 66.1685 120.284 66.2113C120.318 66.3442 120.348 66.4737 120.374 66.6075C120.438 66.9064 120.492 67.2079 120.525 67.5026C120.745 69.3776 120.324 71.1642 118.664 72.4409L119.936 75.379C120.061 75.6668 120.138 75.9734 120.164 76.2863C120.176 76.462 120.127 76.6367 120.025 76.7801C119.108 78.0714 117.052 78.5983 114.557 78.3726C114.021 78.3259 113.514 78.1047 113.114 77.7427C112.715 77.3808 112.445 76.8979 112.346 76.3681L111.529 71.9259L109.6 72.2063C109.221 72.2678 108.832 72.2248 108.476 72.0818C108.119 71.9389 107.809 71.7014 107.577 71.3949C107.548 71.3563 107.521 71.3162 107.496 71.2747L107.211 70.8198C107.039 70.5458 106.933 70.2362 106.899 69.9147C106.865 69.5932 106.904 69.2681 107.015 68.9643C107.125 68.6604 107.304 68.3857 107.536 68.1611C107.769 67.9366 108.05 67.768 108.357 67.6682C108.357 67.6682 108.348 67.6421 108.335 67.594C108.092 66.7761 106.148 59.6605 111.361 58.3178C113.906 57.6581 116.579 58.8085 117.957 61.0469C118.679 62.2217 119.462 63.6794 119.98 65.1997Z" fill="#F59060"/>
<path d="M118.412 68.719C118.452 68.6861 118.485 68.6463 118.51 68.6015C118.89 67.9259 117.516 65.914 117.236 65.5176C117.227 65.5032 117.214 65.4908 117.199 65.4813C117.185 65.4717 117.168 65.4652 117.151 65.4621C117.134 65.459 117.116 65.4593 117.099 65.463C117.082 65.4668 117.066 65.4739 117.052 65.484C117.038 65.494 117.025 65.5068 117.016 65.5216C117.007 65.5364 117.001 65.5529 116.998 65.5701C116.995 65.5874 116.996 65.605 117 65.6219C117.004 65.6389 117.011 65.6549 117.021 65.669C117.631 66.5346 118.512 68.0611 118.281 68.4726C118.266 68.4987 118.22 68.58 118.006 68.5654C117.971 68.563 117.937 68.5746 117.91 68.5975C117.884 68.6204 117.868 68.6529 117.866 68.6877C117.863 68.7225 117.875 68.7568 117.898 68.783C117.921 68.8093 117.953 68.8254 117.988 68.8277C118.138 68.8486 118.291 68.8096 118.412 68.719Z" fill="#131313"/>
<path d="M115.607 68.5586C116.309 68.3988 116.805 67.9528 116.716 67.5625C116.627 67.1722 115.986 66.9854 115.285 67.1452C114.584 67.305 114.088 67.751 114.177 68.1413C114.266 68.5316 114.906 68.7184 115.607 68.5586Z" fill="#FC6D6D"/>
<path d="M120.25 66.085C120.263 66.1267 120.274 66.1695 120.285 66.2124C120.319 66.3452 120.349 66.4747 120.375 66.6085C120.439 66.9074 120.493 67.209 120.526 67.5037V67.5046C119.795 67.6953 119.113 67.5096 119.022 67.1048C118.934 66.7132 119.429 66.268 120.13 66.1083C120.17 66.0987 120.209 66.0924 120.25 66.085Z" fill="#FC6D6D"/>
<path d="M118.666 72.4414C118.666 72.4414 117.405 73.3362 115.379 72.6191C115.379 72.6191 116.819 74.0228 118.985 73.179L118.666 72.4414Z" fill="#131313"/>
<path d="M113.99 64.9498C114.147 64.8246 114.317 64.7165 114.497 64.6277C114.674 64.5388 114.861 64.4724 115.055 64.4302C115.24 64.3931 115.431 64.3903 115.618 64.4218C115.798 64.4579 115.969 64.5294 116.121 64.6324L116.139 64.6429C116.163 64.6581 116.189 64.6684 116.217 64.6732C116.245 64.6779 116.274 64.6771 116.301 64.6707C116.329 64.6643 116.355 64.6524 116.378 64.6358C116.401 64.6192 116.42 64.5982 116.435 64.574C116.45 64.5498 116.46 64.523 116.464 64.4949C116.468 64.4669 116.467 64.4384 116.46 64.4109C116.453 64.3834 116.441 64.3576 116.424 64.335C116.407 64.3123 116.385 64.2933 116.361 64.279C116.358 64.277 116.354 64.275 116.351 64.2733C116.143 64.1515 115.912 64.073 115.673 64.0424C115.439 64.0182 115.203 64.0373 114.976 64.0989C114.758 64.1613 114.55 64.251 114.355 64.3658C114.162 64.4778 113.981 64.6107 113.817 64.7621C113.793 64.7845 113.778 64.8156 113.776 64.8489C113.774 64.8821 113.785 64.9148 113.807 64.94C113.828 64.9651 113.859 64.9808 113.892 64.9835C113.926 64.9862 113.959 64.9758 113.984 64.9545L113.99 64.9498Z" fill="#671E24"/>
<path d="M119.73 63.5713C119.537 63.4823 119.334 63.4155 119.125 63.3723C118.914 63.3267 118.697 63.3099 118.481 63.3223C118.255 63.3387 118.035 63.3997 117.833 63.5016C117.63 63.6105 117.451 63.7603 117.308 63.9417C117.273 63.9848 117.256 64.04 117.261 64.0954C117.265 64.1509 117.292 64.2023 117.334 64.2385C117.376 64.2748 117.431 64.2931 117.487 64.2896C117.542 64.286 117.594 64.2608 117.632 64.2194L117.639 64.2108L117.653 64.1925C117.75 64.05 117.875 63.9288 118.021 63.8363C118.173 63.7459 118.341 63.6864 118.517 63.6611C118.702 63.6378 118.889 63.6393 119.074 63.6656C119.262 63.691 119.446 63.7372 119.624 63.8033L119.631 63.8059C119.662 63.8191 119.697 63.8194 119.728 63.8067C119.76 63.794 119.785 63.7693 119.798 63.7382C119.811 63.707 119.811 63.6719 119.799 63.6405C119.786 63.6092 119.761 63.5841 119.73 63.571V63.5713Z" fill="#671E24"/>
<path d="M115.704 66.5109C115.894 66.4489 115.971 66.1649 115.877 65.8766C115.782 65.5883 115.552 65.4048 115.363 65.4668C115.173 65.5288 115.096 65.8128 115.19 66.1011C115.285 66.3895 115.515 66.5729 115.704 66.5109Z" fill="#131313"/>
<path d="M119.072 65.6896C119.216 65.6425 119.26 65.3834 119.171 65.1109C119.082 64.8384 118.893 64.6557 118.749 64.7028C118.605 64.7499 118.561 65.009 118.65 65.2815C118.739 65.554 118.928 65.7367 119.072 65.6896Z" fill="#131313"/>
<path d="M108.72 71.0663C108.27 70.4962 108.103 69.9903 108.223 69.5622C108.391 68.9617 109.082 68.6974 109.089 68.6948L108.99 68.4277C108.956 68.4401 108.158 68.7423 107.949 69.4832C107.803 70.0044 107.987 70.5964 108.497 71.2427L108.72 71.0663Z" fill="#131313"/>
<path d="M108.357 67.6694C108.796 67.6407 109.236 67.6939 109.656 67.8261C110.345 68.0469 110.538 68.3555 110.788 68.3295C111.188 68.2879 111.642 67.4012 111.935 63.8817C112.688 63.9613 116.176 64.2529 118.496 61.9606C119.014 61.4504 119.436 60.8522 119.743 60.194C120.855 57.7605 119.889 55.3643 119.68 54.8476C119.25 53.7943 118.591 52.8502 117.75 52.084C115.233 55.4188 111.953 58.101 108.185 59.9056C107.739 60.0907 106.279 60.7641 105.605 62.3276C104.783 64.2374 105.471 66.6969 107.394 68.3157L108.357 67.6694Z" fill="#671E24"/>
<path d="M109.975 72.153L111.913 74.0107L111.53 71.9258L109.975 72.153Z" fill="#671E24"/>
<path d="M118.285 69.9648C117.897 70.0542 117.184 70.1148 116.12 69.8135C116.097 69.8067 116.072 69.807 116.049 69.8144C116.026 69.8219 116.005 69.8362 115.99 69.8554C115.975 69.8746 115.967 69.8979 115.965 69.9222C115.964 69.9465 115.969 69.9707 115.982 69.9917C116.308 70.545 117.195 71.6625 118.407 70.1598C118.423 70.1401 118.432 70.116 118.434 70.0908C118.435 70.0656 118.429 70.0406 118.415 70.0191C118.402 69.9977 118.382 69.9809 118.359 69.9712C118.336 69.9615 118.31 69.9592 118.285 69.9648Z" fill="#E52039"/>
<path d="M199.322 61.0247L193.355 73.7384C193.257 73.9484 193.118 74.137 192.946 74.2933C192.775 74.4496 192.574 74.5707 192.356 74.6494C192.137 74.7282 191.906 74.7632 191.674 74.7525C191.442 74.7418 191.215 74.6854 191.005 74.5868L184.154 71.3711L177.677 68.3324L177.382 68.1945C177.32 67.7389 177.234 67.287 177.123 66.8407C176.835 65.7046 176.427 64.6024 175.905 63.5529C175.873 63.4892 175.822 63.437 175.759 63.4036C175.696 63.3703 175.624 63.3574 175.553 63.3669C175.482 63.3763 175.416 63.4076 175.364 63.4564C175.312 63.5051 175.277 63.5689 175.263 63.6388C175.108 64.3739 174.944 65.0728 174.768 65.7355C174.67 66.1093 174.569 66.4724 174.464 66.8248L170.712 65.064C170.502 64.9655 170.313 64.8265 170.157 64.655C170 64.4835 169.879 64.2829 169.8 64.0646C169.721 63.8462 169.686 63.6145 169.697 63.3826C169.708 63.1507 169.765 62.9233 169.863 62.7132L175.83 49.9982C176.029 49.5741 176.389 49.2465 176.829 49.0874C177.27 48.9283 177.756 48.9507 178.18 49.1497L198.473 58.6746C198.684 58.7731 198.872 58.912 199.029 59.0835C199.185 59.2549 199.306 59.4555 199.385 59.6738C199.464 59.8921 199.499 60.1237 199.488 60.3555C199.477 60.5873 199.421 60.8147 199.322 61.0247Z" fill="#D0B3FF"/>
<path d="M197.673 61.2532L194.834 67.3022L194.464 68.0889L194.031 69.0118L192.763 71.7138L192.761 71.7171L192.477 72.3229C192.39 72.5086 192.268 72.6753 192.116 72.8136C191.965 72.9518 191.788 73.0588 191.595 73.1284C191.402 73.198 191.197 73.2289 190.993 73.2193C190.788 73.2097 190.587 73.1598 190.402 73.0724L188.476 72.1683L187.826 71.8643L187.58 71.7478L187.479 71.701L187.139 71.5405L186.596 71.2864L177.123 66.8403C177.017 66.4132 176.893 66.0036 176.764 65.6219V65.6205C176.635 65.2402 176.5 64.8851 176.366 64.5632C176.34 64.4979 176.312 64.4345 176.285 64.3739C176.151 64.0615 176.021 63.7852 175.905 63.5516C175.873 63.4881 175.821 63.4362 175.758 63.403C175.695 63.3699 175.624 63.3571 175.553 63.3666C175.483 63.376 175.417 63.4071 175.365 63.4557C175.313 63.5042 175.277 63.5677 175.263 63.6375C175.249 63.7073 175.233 63.7775 175.218 63.8463C175.102 64.3945 174.976 64.923 174.846 65.4316C174.82 65.5338 174.794 65.6347 174.768 65.7342L174.214 65.4731L172.26 64.556C171.976 64.422 171.739 64.2052 171.58 63.934C171.543 63.8725 171.511 63.8083 171.484 63.742C171.446 63.6493 171.416 63.5531 171.396 63.4548C171.344 63.2093 171.354 62.9549 171.424 62.7141C171.446 62.634 171.475 62.556 171.511 62.4808L172.336 60.7234V60.7221L172.692 59.9634L172.917 59.4856L176.247 52.3938L176.707 51.4116C176.734 51.3553 176.763 51.3005 176.796 51.2475C176.846 51.1675 176.904 51.0924 176.968 51.0233C177.192 50.7774 177.489 50.6097 177.816 50.5447C178.142 50.4797 178.481 50.5208 178.782 50.662L179.705 51.0957L182.324 52.3237L184.203 53.2059L184.805 53.4881L189.113 55.5104L189.573 55.7255L193.479 57.5597L193.858 57.7368L195.437 58.4788L195.567 58.54L196.084 58.782L196.924 59.1766C197.11 59.2637 197.276 59.3866 197.414 59.5381C197.552 59.6896 197.659 59.8669 197.729 60.0597C197.798 60.2526 197.829 60.4572 197.82 60.662C197.81 60.8668 197.76 61.0677 197.673 61.2532Z" fill="white"/>
<path d="M134 83.6443L133.723 83.7275L137.007 94.667L137.284 94.5838L134 83.6443Z" fill="#131313"/>
<path d="M102.815 92.279L102.533 92.3428L104.971 103.122L105.253 103.058L102.815 92.279Z" fill="#131313"/>
<path d="M97.2054 116.145C96.8978 116.496 96.5829 116.838 96.2608 117.17C94.6917 118.788 92.5536 119.732 90.3002 119.8C88.0469 119.868 85.8556 119.056 84.1914 117.535L84.1016 117.453C84.8365 116.452 85.7736 115.617 86.8521 115.001C87.9306 114.386 89.1264 114.004 90.362 113.881C91.5976 113.757 92.8454 113.895 94.0243 114.285C95.2032 114.675 96.287 115.308 97.2054 116.144V116.145Z" fill="#D0B3FF"/>
<path d="M159.224 104.194C159.164 104.273 159.103 104.352 159.042 104.429C158.375 105.288 157.539 106 156.585 106.521C155.631 107.043 154.581 107.363 153.498 107.461C152.416 107.559 151.324 107.433 150.293 107.092C149.261 106.75 148.31 106.2 147.5 105.475C147.212 105.219 146.917 104.951 146.615 104.673C147.407 103.806 148.364 103.106 149.429 102.612C150.494 102.118 151.647 101.841 152.82 101.796C153.993 101.752 155.163 101.941 156.263 102.352C157.362 102.764 158.369 103.39 159.224 104.194Z" fill="#D0B3FF"/>
<path d="M138.09 78.2478C137.004 78.9413 135.78 79.3896 134.503 79.5616C133.226 79.7336 131.927 79.6251 130.696 79.2437C129.465 78.8623 128.332 78.2171 127.376 77.3531C126.42 76.4891 125.664 75.427 125.16 74.2409C126.085 74.1639 127.007 74.1216 127.923 74.1192C131.368 74.1152 134.701 75.345 137.318 77.5859C137.566 77.7968 137.823 78.0189 138.09 78.2478Z" fill="#D0B3FF"/>
<path d="M106.545 79.4492C106.63 80.7535 106.426 82.0605 105.947 83.2768C105.469 84.493 104.727 85.5885 103.776 86.4848C102.825 87.3811 101.687 88.0561 100.444 88.4615C99.2016 88.8669 97.8848 88.9927 96.5879 88.8299L97.4449 87.123C98.8839 84.2574 101.233 81.9502 104.124 80.5629C104.861 80.2097 105.672 79.8335 106.545 79.4492Z" fill="#D0B3FF"/>
<path d="M88.6695 104.694L88.4727 104.906L90.8259 107.089L91.0227 106.877L88.6695 104.694Z" fill="#131313"/>
<path d="M152.383 91.4736L152.193 91.6924L155.69 94.7161L155.879 94.4973L152.383 91.4736Z" fill="#131313"/>
<path d="M66.0033 80.9844L66.1767 83.9684L61.9495 84.2137L61.3139 84.2506L60.9989 84.1038L60.4182 83.8316C60.3635 83.8046 60.3012 83.7971 60.2416 83.8103C60.182 83.8235 60.1287 83.8566 60.0904 83.9042C60.0498 83.95 60.0263 84.0084 60.0239 84.0695C60.0216 84.1307 60.0405 84.1908 60.0774 84.2395L60.1339 84.3186L59.7856 84.3395L52.1585 84.7824L51.9844 81.7984L66.0033 80.9844Z" fill="#D0B3FF"/>
<path d="M51.9846 81.7988L48.8418 83.4782L52.1578 84.7825L51.9846 81.7988Z" fill="#D0B3FF"/>
<path d="M176.797 51.2499C176.815 54.1251 176.749 57.3428 176.586 60.7453C176.525 62.0469 176.451 63.323 176.367 64.5643C176.204 64.1756 176.045 63.8334 175.906 63.5531C175.874 63.4894 175.822 63.4372 175.759 63.4038C175.696 63.3704 175.624 63.3576 175.554 63.3671C175.483 63.3765 175.417 63.4078 175.365 63.4565C175.313 63.5053 175.277 63.5691 175.263 63.639C175.109 64.3741 174.944 65.073 174.769 65.7357L172.261 64.5582C172.041 64.4548 171.848 64.3014 171.698 64.1102C171.548 63.9191 171.445 63.6954 171.396 63.4572C171.405 63.2119 171.415 62.965 171.425 62.7164C171.446 62.1746 171.47 61.6273 171.496 61.0746C172.083 48.7656 173.698 38.7139 175.103 38.6217C176.12 38.5563 176.748 43.7234 176.797 51.2499Z" fill="#FF4655"/>
<path d="M184.203 53.2082C184.062 53.8972 183.917 54.5927 183.767 55.2946C183.333 57.3375 182.89 59.329 182.447 61.2478C181.853 63.8136 181.255 66.2495 180.67 68.5045L180.423 68.3883L178.291 67.3886L177.124 66.8404C177.019 66.4133 176.895 66.0037 176.766 65.622V65.6206C177.338 62.4056 178.021 58.9031 178.8 55.2379C179.099 53.8308 179.401 52.4507 179.706 51.0975C182.788 37.4295 186.052 26.9468 187.3 26.96C188.611 26.9754 187.226 38.5479 184.203 53.2082Z" fill="#FF4655"/>
<path d="M190.443 51.4124C190 52.8019 189.556 54.1685 189.113 55.5124C188.373 57.7654 187.638 59.9447 186.917 62.0272C185.918 64.9218 184.948 67.6269 184.033 70.083L183.786 69.9668L180.669 68.5049L180.422 68.3887C181.024 66.1697 181.704 63.7763 182.446 61.2487C183.172 58.7779 183.961 56.1785 184.804 53.4913C185.099 52.5495 185.4 51.5974 185.707 50.6347C191.52 32.4497 197.293 17.8825 198.601 18.0971C199.909 18.3117 196.256 33.2287 190.443 51.4124Z" fill="#FF4655"/>
<path d="M193.868 57.7157C193.866 57.7237 193.861 57.7306 193.859 57.7387C191.643 62.8843 189.454 67.659 187.481 71.7007L184.779 70.4321L184.034 70.0828L183.787 69.9666C184.71 67.5181 185.761 64.8462 186.918 62.027C187.689 60.1483 188.507 58.2024 189.363 56.2139C189.433 56.0513 189.503 55.8885 189.573 55.7273C196.001 40.8488 202.16 29.1955 203.392 29.6052C204.636 30.0198 200.373 42.6047 193.868 57.7157Z" fill="#FF4655"/>
<path d="M196.897 65.249C195.491 67.5279 194.099 69.7015 192.763 71.717C192.484 72.1362 192.208 72.5492 191.935 72.956C191.711 73.1059 191.453 73.1954 191.184 73.2158C190.916 73.2362 190.647 73.1868 190.403 73.0723L187.582 71.7477C189.025 69.1593 190.691 66.32 192.514 63.3622C193.544 61.6914 194.568 60.0779 195.568 58.5419C201.306 49.719 206.256 43.4671 207.287 43.912C208.498 44.4333 203.846 53.9851 196.897 65.249Z" fill="#FF4655"/>
<path d="M180.166 57.9193C181.515 55.7218 180.925 52.7154 180.81 52.2714C180.482 51.0068 179.858 49.7102 179.957 48.3938C180.02 47.5515 180.511 46.8579 181.376 45.4301C182.411 43.7202 182.63 43.8186 182.896 42.9736C183.281 41.7466 183.288 40.0388 182.71 38.4397C182.239 37.0928 181.346 35.9339 180.163 35.1357C177.862 33.5596 175.353 34.3561 173.847 35.9493C173.397 36.425 171.756 38.1612 171.927 40.9392C172.102 43.7913 174.063 45.2051 173.731 47.6531C173.694 47.9243 173.669 47.9216 172.876 49.7338C171.143 53.6949 171.07 54.1607 171.07 54.6524C171.07 56.5345 172.127 57.9638 172.428 58.3441C172.814 58.8309 173.787 59.9033 175.249 60.2269C177.243 60.668 179.202 59.4882 180.166 57.9193Z" fill="#1D6DEC"/>
<path d="M158.157 47.8186C158.866 50.9688 161.451 52.9577 161.831 53.2126C162.884 53.919 164.111 54.3956 164.83 55.4063C165.273 56.0318 165.351 56.8541 165.596 58.3889C165.876 60.1426 165.69 60.2379 165.975 60.9038C166.428 61.9359 167.262 62.7534 168.303 63.186C169.216 63.5403 170.228 63.5453 171.144 63.2C173.001 62.55 174.061 60.6313 174.304 58.8644C174.378 58.3222 174.658 56.2832 173.475 54.6901C172.163 52.9219 170.294 53.3289 169.297 51.315C169.182 51.0825 169.2 51.0654 168.775 49.041C167.752 44.1798 167.528 43.6736 167.231 43.1941C166.444 41.9168 165.218 40.9707 163.782 40.5334C163.131 40.3423 161.558 40.0228 160.137 41.0033C158.175 42.355 157.614 45.409 158.157 47.8186Z" fill="#1D6DEC"/>
<path d="M174.847 65.4327C174.821 65.5349 174.795 65.6358 174.768 65.7353L174.214 65.4742C173.671 63.8594 173.044 62.2741 172.336 60.7246V60.7233C170.535 56.7975 167.818 52.4065 164.051 50.0928L164.362 49.4111C168.135 51.7535 170.864 56.0551 172.693 59.9646C173.521 61.7421 174.24 63.5681 174.847 65.4327Z" fill="#131313"/>
<path d="M177.032 47.6423C177.032 47.6945 177.017 49.0259 176.968 51.0257C176.882 54.5224 176.691 60.063 176.286 64.3752C176.151 64.0628 176.022 63.7865 175.905 63.5529C175.874 63.4895 175.824 63.4376 175.762 63.4043C176.037 59.8337 176.177 55.5832 176.247 52.3959C176.307 49.6558 176.316 47.7001 176.316 47.6377L177.032 47.6423Z" fill="#131313"/>
<path d="M188.159 62.7011C188.435 60.1371 190.74 58.1186 191.102 57.8377C192.135 57.0375 193.422 56.3931 194.148 55.2909C194.613 54.586 194.649 53.7367 194.838 52.0784C195.064 50.0925 194.83 50.0359 195.137 49.2052C195.582 47.9989 196.62 46.6427 198.056 45.7311C199.252 44.9531 200.667 44.5822 202.091 44.6738C204.875 44.8335 206.374 46.9982 206.592 49.1797C206.657 49.8311 206.894 52.208 205.06 54.302C203.178 56.4518 200.762 56.3715 199.528 58.5117C199.391 58.7489 199.413 58.7625 198.932 60.6814C197.882 64.8753 197.655 65.2881 197.353 65.6772C196.202 67.1663 194.492 67.6517 194.021 67.7683C193.418 67.9173 191.992 68.1707 190.637 67.5333C188.791 66.6631 187.962 64.5317 188.159 62.7011Z" fill="#1D6DEC"/>
<path d="M211.752 68.1667C209.265 70.2258 206.003 70.2192 205.547 70.1886C204.282 70.1042 203.019 69.7305 201.833 70.0913C201.099 70.3143 200.535 70.918 199.403 71.9828C198.109 73.1993 198.198 73.3886 197.566 73.7417C196.576 74.2812 195.417 74.4182 194.328 74.1241C193.389 73.8461 192.586 73.2315 192.071 72.398C190.999 70.7482 191.333 68.5817 192.222 67.0352C192.494 66.5605 193.52 64.7761 195.43 64.2385C197.55 63.642 198.78 65.107 200.8 64.1226C201.033 64.0089 201.029 63.9843 202.604 62.6427C206.385 59.4212 206.872 59.1575 207.4 58.9596C208.804 58.4303 210.353 58.4315 211.756 58.963C212.388 59.2099 213.828 59.9189 214.353 61.5632C215.078 63.8321 213.655 66.5919 211.752 68.1667Z" fill="#1D6DEC"/>
<path d="M197.494 56.9196C197.468 56.952 196.928 57.6587 196.085 58.784C193.896 61.7026 189.673 67.4381 187.14 71.5405L186.598 71.2863C189.108 67.1569 193.237 61.4586 195.438 58.4813C196.324 57.2795 196.898 56.5209 196.924 56.4854L197.494 56.9196Z" fill="#131313"/>
<path d="M205.868 65.632L205.697 66.363C201.818 65.9453 197.599 67.3083 194.032 69.0128C192.112 69.939 190.257 70.9934 188.478 72.1689L187.828 71.8649C189.935 70.4288 192.155 69.1663 194.466 68.0899C197.979 66.4768 202.061 65.2423 205.868 65.632Z" fill="#131313"/>
<path d="M174.769 65.7352L174.215 65.4741L175.219 63.8467C175.103 64.3949 174.977 64.9234 174.848 65.432C174.822 65.535 174.796 65.6361 174.769 65.7352Z" fill="#FCB913"/>
<path d="M219.042 58.7969C218.46 61.0108 217.443 63.0866 216.049 64.9029L215.791 65.2372L215.735 65.3093L215.687 65.3675L215.592 65.4841L215.211 65.9499L214.448 66.8819L212.924 68.7439L211.401 70.6061L210.638 71.5379L209.844 72.492L209.046 73.4497L208.645 73.9275L208.236 74.3981L206.597 76.2743C204.383 78.7523 202.086 81.1488 199.705 83.4638C197.326 85.7759 194.874 88.0125 192.333 90.1402C189.795 92.2731 187.188 94.3138 184.511 96.2621C183.837 96.7424 183.17 97.2314 182.492 97.7036L180.448 99.1092L178.376 100.474C178.033 100.703 177.682 100.922 177.333 101.142L176.283 101.801C170.679 105.291 164.832 108.375 158.785 111.028C152.76 113.678 146.552 115.893 140.209 117.655C133.886 119.417 127.445 120.725 120.935 121.568C114.444 122.415 107.901 122.795 101.356 122.704C94.829 122.62 88.3168 122.066 81.8697 121.046C78.6515 120.538 75.4565 119.918 72.2845 119.186C69.116 118.452 65.9777 117.595 62.8746 116.638C59.7719 115.676 56.7005 114.622 53.6794 113.439C50.6598 112.261 47.6781 110.969 44.7541 109.603L36.0331 105.523L31.6734 103.482L31.1292 103.227L30.8551 103.099L30.5624 102.953L30.2712 102.807L29.9868 102.644C29.8928 102.59 29.7978 102.537 29.705 102.481L29.4309 102.304C27.9697 101.356 26.7441 100.086 25.8474 98.5929C25.4066 97.8522 25.0495 97.0648 24.7826 96.2452C24.2501 94.6113 24.092 92.8785 24.3201 91.1752C24.552 89.4868 25.1653 87.8734 26.1135 86.4573L26.4754 85.9393C26.6053 85.772 26.7409 85.6108 26.8726 85.4461C27.0011 85.279 27.1516 85.1308 27.2946 84.9768C27.435 84.8199 27.5834 84.6705 27.7393 84.5291C28.3471 83.949 29.0215 83.443 29.7483 83.0216C30.1082 82.8086 30.4795 82.6157 30.8607 82.4437L31.4404 82.2059C31.6334 82.1276 31.8345 82.0722 32.0312 82.0041C32.1309 81.9726 32.2279 81.9358 32.3288 81.9101L32.632 81.8342C32.8346 81.7853 33.0347 81.7253 33.24 81.6951C33.4457 81.6605 33.6503 81.6202 33.8553 81.5886L34.4742 81.5244C35.3005 81.4628 36.131 81.4893 36.9516 81.6035L39.3321 81.9627L48.8512 83.4067L48.8315 83.5491L39.2627 82.4966L36.8719 82.2355C36.0985 82.1597 35.3193 82.1664 34.5474 82.2554L33.9731 82.3392C33.7828 82.3764 33.5956 82.4215 33.4059 82.4615C33.2166 82.4969 33.0336 82.5606 32.8469 82.6132L32.5701 82.695C32.4788 82.7231 32.3892 82.761 32.2986 82.7934C32.1188 82.8638 31.9348 82.9232 31.7599 83.0023L31.2344 83.2427C30.8914 83.415 30.5583 83.6062 30.2365 83.8155C29.5896 84.2263 28.9938 84.7126 28.462 85.2644C28.3254 85.3977 28.1963 85.5383 28.0751 85.6857C27.9522 85.8306 27.8203 85.9688 27.7117 86.1253C27.598 86.2786 27.4823 86.4293 27.3723 86.5835L27.0658 87.0652C26.0805 88.6761 25.5723 90.5334 25.6 92.4215C25.6277 94.3096 26.1903 96.1512 27.2224 97.7325C28.0347 98.9702 29.1188 100.006 30.392 100.762L30.6297 100.901C30.7094 100.945 30.7928 100.985 30.8736 101.028L31.1175 101.155L31.3687 101.269L31.6196 101.381L31.895 101.497L32.4507 101.73L36.8896 103.59L45.7694 107.31C48.7133 108.54 51.6714 109.683 54.6756 110.714C57.6769 111.751 60.7191 112.657 63.7828 113.471C66.8465 114.28 69.9351 114.989 73.0452 115.577C76.156 116.161 79.2823 116.636 82.424 117.003C88.6955 117.733 95.0114 118.011 101.323 117.836C107.617 117.665 113.89 117.042 120.095 115.974C126.282 114.915 132.385 113.414 138.358 111.483C144.314 109.563 150.125 107.218 155.746 104.467C161.353 101.729 166.755 98.591 171.912 95.078L172.874 94.4184C173.195 94.1976 173.516 93.9795 173.831 93.7497L175.726 92.3882L177.593 90.9884C178.212 90.5185 178.819 90.0333 179.432 89.5565C181.868 87.6257 184.234 85.6134 186.528 83.5194C188.824 81.4309 191.03 79.2455 193.162 76.9966C195.292 74.7452 197.342 72.4238 199.313 70.0325L200.767 68.2232L201.129 67.7706L201.483 67.3093L202.188 66.3888L202.897 65.4644L203.62 64.5029L205.066 62.5796L206.514 60.6563L207.237 59.6947L207.598 59.2139L207.688 59.0926L207.734 59.0334C207.751 59.0103 207.761 58.9961 207.768 58.9856L207.868 58.8369C208.397 58.0793 208.769 57.2231 208.961 56.3191C209.153 55.4151 209.162 54.4817 208.988 53.5742C208.823 52.6776 208.479 51.8234 207.976 51.0631C207.733 50.692 207.454 50.3452 207.144 50.0273C206.835 49.7154 206.495 49.4355 206.129 49.1919C205.761 48.9431 205.368 48.7316 204.958 48.5607C203.752 48.0459 202.419 47.9088 201.134 48.1674C200.293 48.3315 199.494 48.662 198.783 49.1395C198.085 49.6053 197.487 50.205 197.023 50.9036C196.965 50.9893 196.915 51.0808 196.858 51.168L196.703 51.4421L196.129 52.4843L194.966 54.5925L193.478 57.562L186.597 71.2863L177.123 66.8405C177.018 66.4134 176.894 66.0038 176.765 65.6222V65.6207C176.636 65.2405 176.5 64.8853 176.367 64.5634C176.341 64.4982 176.313 64.4347 176.286 64.3742C176.151 64.0618 176.022 63.7855 175.905 63.5518C175.87 63.4806 175.811 63.424 175.739 63.3919C175.666 63.3597 175.585 63.3542 175.508 63.3761L182.324 52.3248L184.618 48.6064L185.865 46.5471L186.496 45.5069C186.653 45.255 186.808 45.0033 186.972 44.7572C187.141 44.5127 187.308 44.2673 187.485 44.0284C188.898 42.1232 190.674 40.5163 192.71 39.3003C194.746 38.0842 197.003 37.2831 199.35 36.943C201.67 36.6066 204.033 36.7318 206.304 37.3115C208.575 37.8911 210.71 38.9137 212.584 40.3206C213.519 41.0182 214.381 41.8077 215.159 42.6773C215.929 43.5464 216.613 44.4889 217.199 45.4911C219.552 49.5071 220.215 54.2927 219.042 58.7969Z" fill="#FCB913"/>
<path d="M201.209 70.351C201.209 70.351 195.746 70.3328 192.765 71.7144C191.935 72.0979 191.297 72.589 191.023 73.2209C190.809 73.215 190.598 73.1647 190.404 73.0731L188.478 72.1689L187.828 71.8649L187.582 71.7485L187.481 71.7016L187.141 71.5412L186.598 71.2871L177.124 66.8413C177.019 66.4142 176.895 66.0046 176.766 65.623V65.6215C176.637 65.2413 176.501 64.8861 176.368 64.5642C176.342 64.499 176.314 64.4355 176.287 64.375C176.152 64.0626 176.023 63.7863 175.906 63.5526C175.874 63.4891 175.823 63.4372 175.76 63.4041C175.697 63.3709 175.625 63.3582 175.555 63.3676C175.484 63.3771 175.418 63.4082 175.366 63.4567C175.314 63.5053 175.278 63.5688 175.264 63.6385C175.25 63.7084 175.235 63.7786 175.22 63.8474C175.103 64.3956 174.978 64.9241 174.848 65.4327C174.822 65.5349 174.796 65.6358 174.77 65.7352L174.215 65.4742L172.262 64.5571C171.978 64.4231 171.74 64.2063 171.581 63.9351L171.594 63.8774C171.594 63.8774 171.556 63.8309 171.486 63.7431C170.651 62.7051 165.096 55.9667 161.244 55.2717C161.244 55.2717 164.714 52.7751 172.918 59.4871C174.405 60.7158 175.824 62.0242 177.169 63.4064C177.169 63.4064 184.196 57.9843 186.727 67.9651C186.727 67.9651 190.82 66.8947 194.836 67.3021C197.315 67.5556 199.766 68.3723 201.209 70.351Z" fill="#6595F7"/>
<path d="M171.465 73.7686L178.116 78.4397L177.43 79.1148L171.465 73.7686Z" fill="#131313"/>
<path d="M60.0518 92.8524L59.7402 92.4822L66.124 88.0986L60.0518 92.8524Z" fill="#131313"/>
</g>
<defs>
<clipPath id="clip0_796_945">
<rect width="228.428" height="228.428" fill="white" transform="translate(19.6914)"/>
</clipPath>
</defs>
</svg>
