<svg width="305" height="326" viewBox="0 0 305 326" fill="none" xmlns="http://www.w3.org/2000/svg">
<path d="M0.853516 7.89533C0.853516 3.53486 4.38838 0 8.74885 0H296.216C300.577 0 304.111 3.53486 304.111 7.89533V325.904H0.853516V7.89533Z" fill="#FFA466"/>
<path d="M51.044 213.436V207.244H77.684V213.436H67.94V240.844H60.74V213.436H51.044ZM88.8624 241.132C80.6544 241.132 75.7104 236.188 75.7104 228.556C75.7104 220.876 80.7504 215.884 88.3824 215.884C95.7744 215.884 100.766 220.492 100.862 227.74C100.862 228.46 100.814 229.276 100.67 230.044H82.7664V230.38C82.9104 233.884 85.1664 235.996 88.5744 235.996C91.3104 235.996 93.2304 234.796 93.8064 232.492H100.478C99.7104 237.292 95.4384 241.132 88.8624 241.132ZM82.9104 225.628H94.0464C93.5664 222.604 91.5024 220.924 88.4304 220.924C85.5024 220.924 83.2944 222.7 82.9104 225.628ZM134.081 215.884C139.169 215.884 143.201 218.764 143.201 226.684V240.844H136.433V227.068C136.433 223.372 135.089 221.452 132.161 221.452C129.233 221.452 127.265 223.612 127.265 227.356V240.844H120.497V227.068C120.497 223.372 119.153 221.452 116.177 221.452C113.249 221.452 111.329 223.708 111.329 227.404V240.844H104.561V216.172H110.465L111.089 219.244C112.577 217.324 114.737 215.932 118.337 215.884C121.361 215.836 124.193 216.94 125.729 220.06C127.457 217.42 130.337 215.884 134.081 215.884ZM161.612 215.884C168.284 215.836 173.084 220.78 173.084 228.556C173.084 236.236 168.284 241.132 161.66 241.132C158.252 241.132 155.804 239.74 154.22 237.724V250.444H147.452V216.172H153.356L154.028 219.58C155.612 217.468 158.108 215.884 161.612 215.884ZM160.124 235.612C163.82 235.612 166.22 232.684 166.22 228.46C166.22 224.284 163.82 221.404 160.124 221.404C156.428 221.404 154.124 224.284 154.124 228.46C154.124 232.684 156.428 235.612 160.124 235.612ZM176.842 240.844V207.244H183.61V240.844H176.842ZM211.847 235.132H212.615V240.844H209.159C205.655 240.844 204.551 239.164 204.599 236.812C202.871 239.548 200.375 241.132 196.535 241.132C191.207 241.132 187.367 238.588 187.367 233.884C187.367 228.652 191.303 225.676 198.695 225.676H203.591V224.476C203.591 222.268 202.007 220.828 199.175 220.828C196.535 220.828 194.759 222.028 194.471 223.852H187.943C188.423 219.052 192.839 215.884 199.367 215.884C206.279 215.884 210.263 218.956 210.263 224.86V233.596C210.263 234.892 210.791 235.132 211.847 235.132ZM203.591 230.668V230.188H198.647C195.815 230.188 194.183 231.34 194.183 233.404C194.183 235.132 195.575 236.236 197.831 236.236C201.383 236.236 203.543 234.028 203.591 230.668ZM217.009 233.788V221.884H212.929V216.172H217.009V209.26H223.777V216.172H229.441V221.884H223.777V232.684C223.777 234.412 224.449 235.132 226.225 235.132H229.585V240.844H224.065C219.361 240.844 217.009 238.492 217.009 233.788ZM244.534 241.132C236.326 241.132 231.382 236.188 231.382 228.556C231.382 220.876 236.422 215.884 244.054 215.884C251.446 215.884 256.438 220.492 256.534 227.74C256.534 228.46 256.486 229.276 256.342 230.044H238.438V230.38C238.582 233.884 240.838 235.996 244.246 235.996C246.982 235.996 248.902 234.796 249.478 232.492H256.15C255.382 237.292 251.11 241.132 244.534 241.132ZM238.582 225.628H249.718C249.238 222.604 247.174 220.924 244.102 220.924C241.174 220.924 238.966 222.7 238.582 225.628ZM50.1431 271.995V269.779H52.8606V268.096C52.8606 265.437 53.983 264.167 56.7891 264.167H59.5362V266.382H56.9368C55.7258 266.382 55.2827 266.885 55.2827 268.037V269.779H59.5362V271.995H55.2827V284.844H52.8606V271.995H50.1431ZM68.2571 269.779H68.9364V272.142H67.7254C64.5648 272.142 63.7082 274.771 63.7082 277.164V284.844H61.2861V269.779H63.3833L63.7082 272.054C64.4171 270.902 65.5691 269.779 68.2571 269.779ZM77.112 285.021C72.7109 285.021 69.6389 281.89 69.6389 277.312C69.6389 272.733 72.7109 269.602 77.112 269.602C81.5132 269.602 84.5852 272.733 84.5852 277.312C84.5852 281.89 81.5132 285.021 77.112 285.021ZM77.112 282.865C80.0954 282.865 82.104 280.531 82.104 277.312C82.104 274.092 80.0954 271.758 77.112 271.758C74.1287 271.758 72.1201 274.092 72.1201 277.312C72.1201 280.531 74.1287 282.865 77.112 282.865ZM104.17 269.602C107.301 269.602 109.871 271.404 109.871 276.16V284.844H107.449V276.307C107.449 273.353 106.149 271.817 103.874 271.817C101.364 271.817 99.8278 273.708 99.8278 276.78V284.844H97.4056V276.307C97.4056 273.353 96.0764 271.817 93.7725 271.817C91.2913 271.817 89.7848 273.885 89.7848 276.898V284.844H87.3627V269.779H89.4599L89.7848 271.847C90.5823 270.754 91.8525 269.602 94.186 269.602C96.2832 269.602 98.085 270.547 98.9416 272.467C99.8573 270.843 101.482 269.602 104.17 269.602ZM146.601 284.844H126.057V251.244H133.257V278.652H146.601V284.844ZM153.312 257.532C151.104 257.532 149.376 255.9 149.376 253.74C149.376 251.532 151.104 249.9 153.312 249.9C155.52 249.9 157.248 251.532 157.248 253.74C157.248 255.9 155.52 257.532 153.312 257.532ZM149.904 284.844V260.172H156.72V284.844H149.904ZM175.597 259.884C182.221 259.884 187.021 264.636 187.021 272.46C187.021 280.092 182.221 285.132 175.549 285.132C171.997 285.132 169.549 283.596 167.965 281.484L167.293 284.844H161.389V251.244H168.157V263.292C169.789 261.324 172.189 259.884 175.597 259.884ZM174.061 279.612C177.757 279.612 180.157 276.732 180.157 272.508C180.157 268.284 177.757 265.404 174.061 265.404C170.365 265.404 168.061 268.284 168.061 272.46C168.061 276.684 170.365 279.612 174.061 279.612ZM204.651 260.172H205.803V266.316H203.115C199.083 266.316 197.547 269.004 197.547 272.748V284.844H190.779V260.172H196.923L197.547 263.868C198.891 261.66 200.811 260.172 204.651 260.172ZM231.737 279.132H232.505V284.844H229.049C225.545 284.844 224.441 283.164 224.489 280.812C222.761 283.548 220.265 285.132 216.425 285.132C211.097 285.132 207.257 282.588 207.257 277.884C207.257 272.652 211.193 269.676 218.585 269.676H223.481V268.476C223.481 266.268 221.897 264.828 219.065 264.828C216.425 264.828 214.649 266.028 214.361 267.852H207.833C208.313 263.052 212.729 259.884 219.257 259.884C226.169 259.884 230.153 262.956 230.153 268.86V277.596C230.153 278.892 230.681 279.132 231.737 279.132ZM223.481 274.668V274.188H218.537C215.705 274.188 214.073 275.34 214.073 277.404C214.073 279.132 215.465 280.236 217.721 280.236C221.273 280.236 223.433 278.028 223.481 274.668ZM248.995 260.172H250.147V266.316H247.459C243.427 266.316 241.891 269.004 241.891 272.748V284.844H235.123V260.172H241.267L241.891 263.868C243.235 261.66 245.155 260.172 248.995 260.172ZM260.649 284.988L251.145 260.172H258.345L264.345 277.74L270.201 260.172H277.449L266.505 288.348C264.969 292.428 263.721 294.444 259.881 294.444H253.305V288.732H257.049C258.777 288.732 259.353 288.3 260.025 286.62L260.649 284.988Z" fill="white"/>
<path d="M160.22 115.598C163.785 109.225 161.474 101.647 159.83 94.6789C158.223 87.8791 157.324 80.9313 157.147 73.9463C157.064 70.6377 157.201 67.1417 159.152 64.325C161.06 61.5684 164.401 59.8998 167.637 58.4236C180.32 52.6378 195.362 47.9404 208.527 52.7989C217.684 56.1782 224.456 64.2114 225.547 72.9875C226.638 81.7636 222.003 90.9224 213.898 96.0048C209.412 98.8181 203.989 100.458 200.052 103.861C193.576 109.459 192.937 119.566 198.667 125.776C202.907 130.372 209.535 132.503 215.285 135.529C224.087 140.161 231.216 147.276 235.387 155.592C237.797 160.398 239.112 166.328 235.81 170.693C230.387 177.862 217.676 175.233 209.816 170.163C201.956 165.092 194.287 158.018 184.593 158.408C178.66 158.646 173.429 161.727 168.283 164.368C158.427 169.403 147.948 173.113 137.12 175.402C128.796 177.171 120.037 178.112 111.706 176.37C103.375 174.628 95.5055 169.831 92.2823 162.768C87.9775 153.337 93.1985 141.888 102.465 135.928C117.902 126 150.278 133.368 160.22 115.598Z" fill="#F5F3E3" fill-opacity="0.4"/>
<path d="M137.151 96.8759C136.474 105.066 133.141 113.403 126.233 118.846C117.323 125.867 104.445 126.846 92.5491 127.066C82.4344 127.253 75.0323 126.847 68.1389 123.908C61.4965 121.076 59.7888 118.211 59.3026 117.3C56.4607 111.974 58.7076 104.749 63.5235 101.377C65.3349 100.109 69.0001 99.6069 76.2561 98.6549C84.222 97.6096 87.5041 97.7105 93.0285 95.89C98.9642 93.934 100.08 92.2011 100.423 91.5772C101.841 88.9969 100.287 86.7233 98.9215 82.2883C97.7664 78.5356 94.9731 69.4609 98.8933 62.5217C99.6724 61.1428 102.3 57.0455 107.315 55.4447C117.398 52.2261 128.354 61.9029 129.12 62.5968C141.455 73.775 137.602 91.4174 137.151 96.8759Z" fill="#F5F3E3" fill-opacity="0.4"/>
<path d="M236.696 177.363H75.2457C73.3237 177.363 71.7656 178.921 71.7656 180.843C71.7656 182.765 73.3237 184.324 75.2457 184.324H236.696C238.618 184.324 240.176 182.765 240.176 180.843C240.176 178.921 238.618 177.363 236.696 177.363Z" fill="#004751"/>
<path d="M199.394 147.083L191.43 150.448L191.136 150.569L177.623 156.278V177.446H131.381L130.725 160.878L130.713 160.566L130.544 156.278L128.26 155.311L127.917 155.163L123.127 153.134H123.124L122.395 152.822L120.432 151.991L119.646 151.658L113.974 149.254L113.614 149.1L108.991 147.14L108.537 146.947L108.57 146.883L113.068 137.966L113.383 137.343L116.495 131.177L116.634 130.9L118.708 126.788L118.856 126.497L119.8 124.625C120.105 124.02 120.436 123.432 120.791 122.862C120.843 122.774 120.897 122.693 120.952 122.608C123.477 118.656 127.184 115.508 131.595 113.551C131.713 113.5 131.831 113.445 131.952 113.397C132.779 113.044 133.624 112.735 134.483 112.471C139.14 111.032 143.92 110.03 148.762 109.478C153.15 108.973 157.579 108.939 161.973 109.378C165.442 109.73 168.865 110.443 172.185 111.507C175.682 112.628 178.881 114.524 181.544 117.052C181.632 117.134 181.719 117.219 181.804 117.304C182.836 118.316 183.774 119.421 184.607 120.603C184.668 120.69 184.728 120.775 184.785 120.863C185.392 121.751 185.937 122.681 186.415 123.645L187.108 124.894L187.262 125.175L191.278 132.426L191.973 133.684L195.956 140.872L196.11 141.153L198.375 145.244L198.529 145.522L199.394 147.083Z" fill="#FCB913"/>
<path d="M181.805 117.303C181.455 117.396 181.095 117.442 180.734 117.439C178.853 117.439 177.909 116.339 176.996 115.271C176.089 114.21 175.233 113.206 173.492 113.206C171.75 113.206 170.891 114.21 169.984 115.271C169.071 116.338 168.127 117.439 166.246 117.439C164.366 117.439 163.422 116.339 162.509 115.271C161.602 114.21 160.743 113.206 159.004 113.206C157.262 113.206 156.404 114.21 155.496 115.271C154.583 116.338 153.64 117.439 151.759 117.439C149.878 117.439 148.935 116.339 148.021 115.271C147.111 114.21 146.255 113.206 144.514 113.206C142.772 113.206 141.913 114.21 141.006 115.271C140.093 116.338 139.149 117.439 137.269 117.439C135.388 117.439 134.444 116.339 133.531 115.271C132.947 114.591 132.385 113.931 131.596 113.55C131.714 113.499 131.832 113.445 131.953 113.396C132.684 113.817 133.229 114.452 133.761 115.074C134.671 116.136 135.527 117.137 137.269 117.137C139.01 117.137 139.869 116.136 140.776 115.074C141.69 114.007 142.633 112.903 144.514 112.903C146.395 112.903 147.338 114.007 148.251 115.074C149.159 116.136 150.017 117.137 151.759 117.137C153.501 117.137 154.357 116.136 155.267 115.074C156.177 114.007 157.123 112.903 159.004 112.903C160.882 112.903 161.826 114.007 162.739 115.074C163.646 116.136 164.505 117.137 166.247 117.137C167.988 117.137 168.844 116.136 169.754 115.074C170.667 114.007 171.611 112.903 173.492 112.903C175.372 112.903 176.316 114.007 177.226 115.074C178.136 116.136 178.992 117.137 180.734 117.137C181.006 117.14 181.278 117.111 181.544 117.052C181.632 117.134 181.72 117.219 181.805 117.303Z" fill="white"/>
<path d="M184.786 120.862C184.68 120.98 184.578 121.101 184.472 121.222C183.562 122.29 182.615 123.39 180.734 123.39C178.853 123.39 177.91 122.29 176.997 121.222C176.09 120.161 175.234 119.157 173.492 119.157C171.75 119.157 170.892 120.161 169.985 121.222C169.071 122.29 168.128 123.39 166.247 123.39C164.366 123.39 163.423 122.29 162.509 121.222C161.602 120.161 160.744 119.157 159.005 119.157C157.263 119.157 156.404 120.161 155.497 121.222C154.584 122.29 153.64 123.39 151.76 123.39C149.879 123.39 148.935 122.29 148.022 121.222C147.112 120.161 146.256 119.157 144.514 119.157C142.773 119.157 141.914 120.161 141.007 121.222C140.093 122.29 139.15 123.39 137.269 123.39C135.388 123.39 134.445 122.29 133.531 121.222C132.624 120.161 131.766 119.157 130.024 119.157C128.285 119.157 127.426 120.161 126.519 121.222C125.606 122.29 124.662 123.39 122.782 123.39C122.082 123.404 121.392 123.221 120.792 122.862C120.843 122.774 120.898 122.692 120.952 122.608C121.506 122.935 122.139 123.101 122.782 123.088C124.523 123.088 125.379 122.087 126.289 121.026C127.2 119.958 128.143 118.854 130.024 118.854C131.905 118.854 132.848 119.958 133.761 121.026C134.672 122.087 135.527 123.088 137.269 123.088C139.011 123.088 139.87 122.087 140.777 121.026C141.69 119.958 142.634 118.854 144.514 118.854C146.395 118.854 147.339 119.958 148.252 121.026C149.159 122.087 150.018 123.088 151.76 123.088C153.501 123.088 154.357 122.087 155.267 121.026C156.177 119.958 157.124 118.854 159.005 118.854C160.882 118.854 161.826 119.958 162.739 121.026C163.646 122.087 164.505 123.088 166.247 123.088C167.989 123.088 168.844 122.087 169.755 121.026C170.668 119.958 171.611 118.854 173.492 118.854C175.373 118.854 176.316 119.958 177.227 121.026C178.137 122.087 178.993 123.088 180.734 123.088C182.476 123.088 183.335 122.087 184.242 121.026C184.363 120.884 184.484 120.741 184.608 120.603C184.668 120.69 184.729 120.775 184.786 120.862Z" fill="white"/>
<path d="M187.262 125.175C185.983 125.405 185.248 126.27 184.471 127.174C183.561 128.238 182.615 129.342 180.734 129.342C178.853 129.342 177.91 128.239 176.996 127.174C176.089 126.113 175.233 125.109 173.492 125.109C171.75 125.109 170.891 126.113 169.984 127.174C169.071 128.238 168.127 129.342 166.246 129.342C164.366 129.342 163.422 128.239 162.509 127.174C161.602 126.113 160.743 125.109 159.004 125.109C157.262 125.109 156.404 126.113 155.496 127.174C154.583 128.238 153.64 129.342 151.759 129.342C149.878 129.342 148.935 128.239 148.021 127.174C147.111 126.113 146.255 125.109 144.514 125.109C142.772 125.109 141.913 126.113 141.006 127.174C140.093 128.238 139.149 129.342 137.269 129.342C135.388 129.342 134.444 128.239 133.531 127.174C132.624 126.113 131.765 125.109 130.023 125.109C128.285 125.109 127.426 126.113 126.519 127.174C125.605 128.238 124.662 129.342 122.781 129.342C120.9 129.342 119.957 128.239 119.044 127.174C118.932 127.044 118.82 126.914 118.708 126.787L118.856 126.496C118.998 126.653 119.134 126.817 119.273 126.977C120.181 128.038 121.039 129.039 122.781 129.039C124.523 129.039 125.379 128.039 126.289 126.977C127.199 125.909 128.142 124.806 130.023 124.806C131.904 124.806 132.848 125.909 133.761 126.977C134.671 128.038 135.527 129.039 137.269 129.039C139.01 129.039 139.869 128.039 140.776 126.977C141.69 125.909 142.633 124.806 144.514 124.806C146.395 124.806 147.338 125.909 148.251 126.977C149.158 128.038 150.017 129.039 151.759 129.039C153.501 129.039 154.356 128.039 155.267 126.977C156.177 125.909 157.123 124.806 159.004 124.806C160.882 124.806 161.825 125.909 162.739 126.977C163.646 128.038 164.505 129.039 166.246 129.039C167.988 129.039 168.844 128.039 169.754 126.977C170.667 125.909 171.611 124.806 173.492 124.806C175.372 124.806 176.316 125.909 177.226 126.977C178.136 128.038 178.992 129.039 180.734 129.039C182.475 129.039 183.334 128.039 184.241 126.977C185 126.088 185.784 125.175 187.108 124.893L187.262 125.175Z" fill="white"/>
<path d="M191.974 133.683C191.808 133.498 191.648 133.311 191.487 133.124C190.58 132.063 189.722 131.059 187.98 131.059C186.238 131.059 185.382 132.063 184.472 133.124C183.562 134.191 182.615 135.292 180.734 135.292C178.853 135.292 177.91 134.192 176.997 133.124C176.09 132.063 175.234 131.059 173.492 131.059C171.751 131.059 170.892 132.063 169.985 133.124C169.071 134.191 168.128 135.292 166.247 135.292C164.366 135.292 163.423 134.192 162.509 133.124C161.602 132.063 160.744 131.059 159.005 131.059C157.263 131.059 156.404 132.063 155.497 133.124C154.584 134.191 153.64 135.292 151.76 135.292C149.879 135.292 148.935 134.192 148.022 133.124C147.112 132.063 146.256 131.059 144.514 131.059C142.773 131.059 141.914 132.063 141.007 133.124C140.094 134.191 139.15 135.292 137.269 135.292C135.388 135.292 134.445 134.192 133.532 133.124C132.624 132.063 131.766 131.059 130.024 131.059C128.285 131.059 127.426 132.063 126.519 133.124C125.606 134.191 124.663 135.292 122.782 135.292C120.901 135.292 119.958 134.192 119.044 133.124C118.322 132.278 117.63 131.467 116.495 131.177L116.634 130.899C117.823 131.232 118.557 132.09 119.274 132.928C120.181 133.989 121.04 134.991 122.782 134.991C124.524 134.991 125.379 133.99 126.29 132.928C127.2 131.86 128.143 130.757 130.024 130.757C131.905 130.757 132.848 131.86 133.761 132.928C134.672 133.989 135.527 134.991 137.269 134.991C139.011 134.991 139.87 133.99 140.777 132.928C141.69 131.86 142.634 130.757 144.514 130.757C146.395 130.757 147.339 131.86 148.252 132.928C149.159 133.989 150.018 134.991 151.76 134.991C153.502 134.991 154.357 133.99 155.267 132.928C156.177 131.86 157.124 130.757 159.005 130.757C160.882 130.757 161.826 131.86 162.739 132.928C163.647 133.989 164.505 134.991 166.247 134.991C167.989 134.991 168.845 133.99 169.755 132.928C170.668 131.86 171.611 130.757 173.492 130.757C175.373 130.757 176.317 131.86 177.227 132.928C178.137 133.989 178.993 134.991 180.734 134.991C182.476 134.991 183.335 133.99 184.242 132.928C185.155 131.86 186.099 130.757 187.98 130.757C189.564 130.757 190.486 131.54 191.279 132.426L191.974 133.683Z" fill="white"/>
<path d="M196.111 141.153C195.82 141.214 195.523 141.244 195.225 141.244C193.344 141.244 192.401 140.14 191.488 139.075C190.58 138.014 189.722 137.01 187.98 137.01C186.238 137.01 185.382 138.014 184.472 139.075C183.562 140.14 182.616 141.244 180.735 141.244C178.854 141.244 177.91 140.14 176.997 139.075C176.09 138.014 175.234 137.01 173.493 137.01C171.751 137.01 170.892 138.014 169.985 139.075C169.072 140.14 168.128 141.244 166.247 141.244C164.367 141.244 163.423 140.14 162.51 139.075C161.603 138.014 160.744 137.01 159.005 137.01C157.263 137.01 156.405 138.014 155.497 139.075C154.584 140.14 153.641 141.244 151.76 141.244C149.879 141.244 148.936 140.14 148.022 139.075C147.112 138.014 146.256 137.01 144.515 137.01C142.773 137.01 141.914 138.014 141.007 139.075C140.094 140.14 139.15 141.244 137.269 141.244C135.389 141.244 134.445 140.14 133.532 139.075C132.625 138.014 131.766 137.01 130.024 137.01C128.286 137.01 127.427 138.014 126.519 139.075C125.606 140.14 124.663 141.244 122.782 141.244C120.901 141.244 119.958 140.14 119.045 139.075C118.137 138.014 117.279 137.01 115.537 137.01C114.621 136.993 113.735 137.336 113.069 137.965L113.384 137.342C114.019 136.914 114.771 136.692 115.537 136.708C117.418 136.708 118.361 137.811 119.274 138.879C120.181 139.94 121.04 140.942 122.782 140.942C124.524 140.942 125.38 139.941 126.29 138.879C127.2 137.811 128.143 136.708 130.024 136.708C131.905 136.708 132.849 137.811 133.762 138.879C134.672 139.94 135.528 140.942 137.269 140.942C139.011 140.942 139.87 139.941 140.777 138.879C141.69 137.811 142.634 136.708 144.515 136.708C146.395 136.708 147.339 137.811 148.252 138.879C149.159 139.94 150.018 140.942 151.76 140.942C153.502 140.942 154.357 139.941 155.268 138.879C156.178 137.811 157.124 136.708 159.005 136.708C160.883 136.708 161.826 137.811 162.74 138.879C163.647 139.94 164.506 140.942 166.247 140.942C167.989 140.942 168.845 139.941 169.755 138.879C170.668 137.811 171.612 136.708 173.493 136.708C175.373 136.708 176.317 137.811 177.227 138.879C178.137 139.94 178.993 140.942 180.735 140.942C182.476 140.942 183.335 139.941 184.242 138.879C185.156 137.811 186.099 136.708 187.98 136.708C189.861 136.708 190.807 137.811 191.717 138.879C192.628 139.94 193.483 140.942 195.225 140.942C195.471 140.943 195.716 140.919 195.957 140.872L196.111 141.153Z" fill="white"/>
<path d="M198.53 145.522C197.735 146.408 196.812 147.194 195.225 147.194C193.344 147.194 192.4 146.094 191.487 145.026C190.58 143.965 189.721 142.961 187.979 142.961C186.238 142.961 185.382 143.965 184.472 145.026C183.561 146.093 182.615 147.194 180.734 147.194C178.853 147.194 177.91 146.094 176.997 145.026C176.09 143.965 175.234 142.961 173.492 142.961C171.75 142.961 170.892 143.965 169.984 145.026C169.071 146.093 168.128 147.194 166.247 147.194C164.366 147.194 163.422 146.094 162.509 145.026C161.602 143.965 160.743 142.961 159.005 142.961C157.263 142.961 156.404 143.965 155.497 145.026C154.584 146.093 153.64 147.194 151.759 147.194C149.879 147.194 148.935 146.094 148.022 145.026C147.112 143.965 146.256 142.961 144.514 142.961C142.772 142.961 141.914 143.965 141.007 145.026C140.093 146.093 139.15 147.194 137.269 147.194C135.388 147.194 134.445 146.094 133.531 145.026C132.624 143.965 131.766 142.961 130.024 142.961C128.285 142.961 127.426 143.965 126.519 145.026C125.606 146.093 124.662 147.194 122.782 147.194C120.901 147.194 119.957 146.094 119.044 145.026C118.137 143.965 117.278 142.961 115.536 142.961C113.795 142.961 112.936 143.965 112.029 145.026C111.236 145.951 110.42 146.903 108.99 147.14L108.536 146.946L108.569 146.883C110.127 146.783 110.94 145.833 111.799 144.829C112.712 143.762 113.655 142.658 115.536 142.658C117.417 142.658 118.361 143.762 119.274 144.829C120.181 145.891 121.04 146.892 122.782 146.892C124.523 146.892 125.379 145.891 126.289 144.829C127.199 143.762 128.143 142.658 130.024 142.658C131.905 142.658 132.848 143.762 133.761 144.829C134.671 145.891 135.527 146.892 137.269 146.892C139.011 146.892 139.869 145.891 140.777 144.829C141.69 143.762 142.633 142.658 144.514 142.658C146.395 142.658 147.338 143.762 148.252 144.829C149.159 145.891 150.018 146.892 151.759 146.892C153.501 146.892 154.357 145.891 155.267 144.829C156.177 143.762 157.124 142.658 159.005 142.658C160.882 142.658 161.826 143.762 162.739 144.829C163.646 145.891 164.505 146.892 166.247 146.892C167.989 146.892 168.844 145.891 169.754 144.829C170.668 143.762 171.611 142.658 173.492 142.658C175.373 142.658 176.316 143.762 177.226 144.829C178.137 145.891 178.993 146.892 180.734 146.892C182.476 146.892 183.335 145.891 184.242 144.829C185.155 143.762 186.099 142.658 187.979 142.658C189.86 142.658 190.807 143.762 191.717 144.829C192.627 145.891 193.483 146.892 195.225 146.892C196.736 146.892 197.583 146.139 198.376 145.244L198.53 145.522Z" fill="white"/>
<path d="M191.43 150.449L191.136 150.569C190.341 149.671 189.494 148.912 187.98 148.912C186.238 148.912 185.382 149.916 184.472 150.978C183.562 152.042 182.615 153.146 180.734 153.146C178.853 153.146 177.91 152.042 176.997 150.978C176.09 149.916 175.234 148.912 173.492 148.912C171.75 148.912 170.892 149.916 169.985 150.978C169.071 152.042 168.128 153.146 166.247 153.146C164.366 153.146 163.423 152.042 162.509 150.978C161.602 149.916 160.744 148.912 159.005 148.912C157.263 148.912 156.404 149.916 155.497 150.978C154.584 152.042 153.64 153.146 151.76 153.146C149.879 153.146 148.935 152.042 148.022 150.978C147.112 149.916 146.256 148.912 144.514 148.912C142.773 148.912 141.914 149.916 141.007 150.978C140.093 152.042 139.15 153.146 137.269 153.146C135.388 153.146 134.445 152.042 133.531 150.978C132.624 149.916 131.766 148.912 130.024 148.912C128.285 148.912 127.426 149.916 126.519 150.978C125.664 151.976 124.78 153.007 123.126 153.134H123.123C123.015 153.143 122.9 153.146 122.782 153.146C121.306 153.146 120.405 152.465 119.646 151.658C119.437 151.437 119.241 151.207 119.044 150.978C118.137 149.916 117.278 148.912 115.536 148.912C114.996 148.903 114.461 149.02 113.973 149.254L113.613 149.1C114.199 148.767 114.863 148.598 115.536 148.61C117.417 148.61 118.361 149.714 119.274 150.781C119.624 151.217 120.011 151.622 120.432 151.991C120.98 152.471 121.668 152.762 122.395 152.822C122.523 152.837 122.652 152.844 122.782 152.843C124.523 152.843 125.379 151.843 126.289 150.781C127.199 149.713 128.143 148.61 130.024 148.61C131.905 148.61 132.848 149.713 133.761 150.781C134.672 151.842 135.527 152.843 137.269 152.843C139.011 152.843 139.87 151.843 140.777 150.781C141.69 149.713 142.633 148.61 144.514 148.61C146.395 148.61 147.339 149.713 148.252 150.781C149.159 151.842 150.018 152.843 151.76 152.843C153.501 152.843 154.357 151.843 155.267 150.781C156.177 149.713 157.124 148.61 159.005 148.61C160.882 148.61 161.826 149.713 162.739 150.781C163.646 151.842 164.505 152.843 166.247 152.843C167.989 152.843 168.844 151.843 169.755 150.781C170.668 149.713 171.611 148.61 173.492 148.61C175.373 148.61 176.316 149.713 177.226 150.781C178.137 151.842 178.993 152.843 180.734 152.843C182.476 152.843 183.335 151.843 184.242 150.781C185.155 149.713 186.099 148.61 187.98 148.61C189.664 148.61 190.598 149.496 191.43 150.449Z" fill="white"/>
<path d="M177.623 157.186V157.633C177.405 157.404 177.2 157.165 176.997 156.929C176.09 155.867 175.234 154.863 173.492 154.863C171.751 154.863 170.892 155.867 169.985 156.929C169.071 157.993 168.128 159.097 166.247 159.097C164.366 159.097 163.423 157.993 162.509 156.929C161.602 155.867 160.744 154.863 159.005 154.863C157.263 154.863 156.404 155.867 155.497 156.929C154.584 157.993 153.64 159.097 151.76 159.097C149.879 159.097 148.935 157.993 148.022 156.929C147.112 155.867 146.256 154.863 144.514 154.863C142.773 154.863 141.914 155.867 141.007 156.929C140.094 157.993 139.15 159.097 137.269 159.097C135.389 159.097 134.445 157.993 133.532 156.929C132.624 155.867 131.766 154.863 130.024 154.863C129.407 154.851 128.798 155.006 128.261 155.311L127.917 155.163C128.544 154.757 129.278 154.547 130.025 154.561C131.905 154.561 132.849 155.665 133.762 156.732C134.672 157.794 135.528 158.795 137.27 158.795C139.012 158.795 139.87 157.794 140.777 156.732C141.691 155.665 142.634 154.561 144.515 154.561C146.396 154.561 147.339 155.665 148.253 156.732C149.16 157.794 150.018 158.795 151.76 158.795C153.502 158.795 154.358 157.794 155.268 156.732C156.178 155.665 157.125 154.561 159.005 154.561C160.883 154.561 161.827 155.665 162.74 156.732C163.647 157.794 164.506 158.795 166.248 158.795C167.99 158.795 168.845 157.794 169.755 156.732C170.669 155.665 171.612 154.561 173.493 154.561C175.374 154.561 176.317 155.665 177.227 156.732C177.36 156.887 177.49 157.038 177.623 157.186Z" fill="white"/>
<path d="M177.622 163.137V163.584C177.405 163.354 177.199 163.115 176.996 162.879C176.089 161.818 175.233 160.814 173.492 160.814C171.75 160.814 170.891 161.818 169.984 162.879C169.071 163.944 168.127 165.048 166.247 165.048C164.366 165.048 163.422 163.944 162.509 162.879C161.602 161.818 160.743 160.814 159.004 160.814C157.263 160.814 156.404 161.818 155.497 162.879C154.583 163.944 153.64 165.048 151.759 165.048C149.878 165.048 148.935 163.944 148.021 162.879C147.111 161.818 146.256 160.814 144.514 160.814C142.772 160.814 141.913 161.818 141.006 162.879C140.093 163.944 139.149 165.048 137.269 165.048C135.388 165.048 134.444 163.944 133.531 162.879C132.754 161.972 132.013 161.104 130.725 160.878L130.713 160.566C132.149 160.799 132.966 161.755 133.761 162.683C134.671 163.744 135.527 164.745 137.269 164.745C139.011 164.745 139.869 163.745 140.776 162.683C141.69 161.615 142.633 160.512 144.514 160.512C146.395 160.512 147.338 161.615 148.251 162.683C149.159 163.744 150.017 164.745 151.759 164.745C153.501 164.745 154.357 163.745 155.267 162.683C156.177 161.615 157.123 160.512 159.004 160.512C160.882 160.512 161.826 161.615 162.739 162.683C163.646 163.744 164.505 164.745 166.247 164.745C167.988 164.745 168.844 163.745 169.754 162.683C170.667 161.615 171.611 160.512 173.492 160.512C175.372 160.512 176.316 161.615 177.226 162.683C177.359 162.837 177.489 162.988 177.622 163.137Z" fill="white"/>
<path d="M130.544 156.278L107.026 146.401L109.547 141.243L130.544 150.877V156.278Z" fill="#DD9B0A"/>
<path d="M177.622 156.278L201.192 146.302L198.261 140.986L177.7 149.929L177.622 156.278Z" fill="#DD9B0A"/>
<path d="M154.341 118.325C154.201 118.298 154.062 118.27 153.928 118.235C153.143 118.042 152.405 117.691 151.76 117.204C151.115 116.717 150.575 116.104 150.175 115.402C149.557 114.333 149.279 113.102 149.379 111.871L149.96 104.562H160.544L160.64 105.395L161.369 111.633C161.839 115.648 158.312 119.08 154.341 118.325Z" fill="#F59060"/>
<path d="M160.641 105.395V105.398C160.641 105.398 156.362 111.929 150.826 107.639C150.826 107.639 149.961 110.974 150.176 115.402C149.558 114.333 149.28 113.102 149.38 111.871L149.961 104.562H160.545L160.641 105.395Z" fill="#131313"/>
<path d="M165.077 92.6812C164.505 98.2963 162.565 106.859 156.077 107.898C155.53 107.984 154.972 107.961 154.434 107.83C152.159 107.278 146.67 104.645 146.093 92.0773C146 90.2018 146.399 88.3344 147.251 86.6609C148.103 84.9873 149.377 83.5656 150.949 82.5372C153.364 80.9615 156.544 80.197 160.171 82.5354C161.847 83.6074 163.193 85.1232 164.059 86.9143C164.925 88.7055 165.277 90.7017 165.077 92.6812Z" fill="#F59060"/>
<path d="M155.132 100.588C155.255 100.586 155.376 100.566 155.491 100.528C155.549 100.51 155.597 100.47 155.625 100.417C155.653 100.363 155.658 100.301 155.64 100.244C155.622 100.186 155.582 100.138 155.529 100.11C155.476 100.083 155.413 100.077 155.356 100.095C155.058 100.188 154.97 100.093 154.941 100.062C154.484 99.5691 155.179 97.0809 155.818 95.4714C155.84 95.4158 155.838 95.354 155.814 95.2995C155.79 95.245 155.746 95.2021 155.69 95.1801C155.635 95.1581 155.573 95.1588 155.518 95.1819C155.463 95.2051 155.42 95.2489 155.397 95.3039C155.122 95.9955 153.792 99.4901 154.608 100.37C154.675 100.442 154.756 100.498 154.847 100.536C154.937 100.574 155.035 100.591 155.132 100.588Z" fill="#131313"/>
<path d="M160.59 99.9459C161.688 99.8733 162.545 99.3193 162.504 98.7085C162.464 98.0976 161.542 97.6612 160.444 97.7338C159.347 97.8064 158.49 98.3604 158.53 98.9713C158.571 99.5821 159.493 100.018 160.59 99.9459Z" fill="#FC6D6D"/>
<path d="M162.153 93.3957C161.815 93.2281 161.461 93.0949 161.096 92.9982C160.723 92.8967 160.34 92.8378 159.953 92.8226C159.551 92.8119 159.15 92.8676 158.766 92.9873C158.385 93.1144 158.032 93.313 157.726 93.5724C157.691 93.5986 157.662 93.6321 157.641 93.6707C157.62 93.7093 157.608 93.752 157.605 93.7958C157.602 93.8397 157.609 93.8836 157.625 93.9245C157.641 93.9654 157.666 94.0023 157.698 94.0326C157.767 94.0978 157.857 94.1362 157.951 94.1409C158.046 94.1456 158.14 94.1163 158.215 94.0583C158.219 94.0546 158.224 94.0509 158.228 94.0471L158.254 94.0242C158.472 93.8135 158.729 93.6464 159.01 93.5317C159.312 93.4177 159.631 93.3541 159.953 93.3435C160.293 93.3372 160.632 93.369 160.964 93.4382C161.298 93.5057 161.624 93.6056 161.939 93.7365L161.95 93.7411C162.002 93.764 162.06 93.7674 162.113 93.7505C162.167 93.7337 162.213 93.6979 162.242 93.6497C162.254 93.6273 162.26 93.6028 162.262 93.5776C162.264 93.5525 162.26 93.5272 162.252 93.5034C162.244 93.4796 162.231 93.4578 162.213 93.4393C162.196 93.4208 162.176 93.406 162.153 93.3957Z" fill="#131313"/>
<path d="M160.176 96.0128C160.214 95.5505 159.998 95.1557 159.694 95.1311C159.39 95.1065 159.113 95.4613 159.076 95.9236C159.038 96.3859 159.254 96.7807 159.558 96.8053C159.862 96.83 160.139 96.4751 160.176 96.0128Z" fill="#131313"/>
<path d="M152.854 98.9011C152.894 98.2903 152.038 97.736 150.941 97.6629C149.843 97.5898 148.921 98.0257 148.88 98.6364C148.84 99.2471 149.696 99.8014 150.793 99.8745C151.891 99.9476 152.813 99.5118 152.854 98.9011Z" fill="#FC6D6D"/>
<path d="M149.246 93.3957C149.584 93.228 149.938 93.0948 150.302 92.9982C150.675 92.8967 151.059 92.8378 151.445 92.8226C151.847 92.8119 152.249 92.8676 152.633 92.9873C153.013 93.1144 153.366 93.313 153.672 93.5724C153.707 93.5986 153.736 93.6321 153.757 93.6707C153.778 93.7093 153.791 93.752 153.793 93.7959C153.796 93.8397 153.789 93.8836 153.773 93.9245C153.757 93.9654 153.732 94.0023 153.701 94.0326C153.632 94.0978 153.542 94.1362 153.447 94.1409C153.352 94.1456 153.259 94.1163 153.184 94.0583C153.179 94.0546 153.175 94.0509 153.17 94.0471L153.145 94.0242C152.926 93.8134 152.669 93.6463 152.388 93.5317C152.086 93.4177 151.767 93.3541 151.445 93.3435C151.106 93.3372 150.767 93.369 150.434 93.4382C150.101 93.5057 149.774 93.6056 149.459 93.7365L149.448 93.7411C149.397 93.764 149.339 93.7674 149.285 93.7505C149.231 93.7337 149.186 93.6979 149.156 93.6497C149.145 93.6273 149.138 93.6028 149.136 93.5776C149.134 93.5525 149.138 93.5272 149.146 93.5035C149.155 93.4797 149.168 93.4579 149.185 93.4393C149.202 93.4208 149.223 93.406 149.246 93.3957Z" fill="#131313"/>
<path d="M151.839 96.8064C152.143 96.7818 152.359 96.387 152.322 95.9247C152.284 95.4624 152.008 95.1075 151.704 95.1322C151.4 95.1568 151.184 95.5515 151.221 96.0139C151.259 96.4762 151.535 96.831 151.839 96.8064Z" fill="#131313"/>
<path d="M146.634 92.835C146.255 92.835 145.88 92.9202 145.538 93.0844C145.196 93.2487 144.895 93.4876 144.658 93.7837C144.421 94.0797 144.253 94.4253 144.167 94.7949C144.081 95.1645 144.08 95.5486 144.162 95.919L144.612 97.9374C144.737 98.4996 145.05 99.0023 145.5 99.3625C145.949 99.7227 146.508 99.919 147.084 99.9188H147.732C147.732 99.9188 148.849 94.962 146.634 92.835Z" fill="#F59060"/>
<path d="M164.718 92.835C165.098 92.8349 165.472 92.9201 165.814 93.0843C166.157 93.2484 166.457 93.4874 166.695 93.7835C166.932 94.0795 167.1 94.4251 167.186 94.7948C167.272 95.1644 167.273 95.5486 167.191 95.919L166.741 97.9374C166.616 98.4996 166.302 99.0023 165.853 99.3625C165.404 99.7227 164.845 99.9189 164.269 99.9188H163.621C163.621 99.9188 162.503 94.962 164.718 92.835Z" fill="#F59060"/>
<path d="M155.411 104.035C157.157 104.035 158.534 102.796 158.604 102.732L158.298 102.397C158.279 102.415 156.369 104.127 154.35 103.396L154.195 103.823C154.585 103.964 154.996 104.036 155.411 104.035Z" fill="#131313"/>
<path d="M146.139 92.8832L146.877 96.9852C146.877 96.9852 148.23 93.7659 148.23 90.1267C153.832 91.4357 158.36 91.2109 161.301 90.8111C164.408 90.388 166.355 90.0954 167.859 88.5258C171.349 84.8799 169.998 76.8958 167.003 75.7224C165.003 74.9388 163.414 77.6395 157.724 79.8818C154.941 80.9712 152.011 81.6409 149.031 81.8689C148.466 81.8884 147.915 82.0483 147.427 82.3342C145.198 83.6795 144.708 87.9197 146.139 92.8832Z" fill="#131313"/>
<path d="M165.481 89.7807L164.406 96.9851C164.406 96.9851 163.02 93.5326 163.113 90.08C163.205 86.6274 165.481 89.7807 165.481 89.7807Z" fill="#131313"/>
<path d="M145.871 98.3436L146.243 98.0846C145.157 96.5244 145.142 95.7074 145.32 95.2963C145.528 94.8143 146.066 94.7302 146.089 94.7269L146.026 94.2773C145.994 94.2817 145.22 94.3949 144.906 95.1095C144.576 95.8618 144.901 96.9497 145.871 98.3436Z" fill="#131313"/>
<path d="M165.481 98.3433C166.451 96.9495 166.776 95.8616 166.446 95.1095C166.132 94.3955 165.359 94.2817 165.326 94.2773L165.264 94.7269C165.287 94.7302 165.824 94.8143 166.033 95.2964C166.211 95.7074 166.195 96.5248 165.109 98.0846L165.481 98.3433Z" fill="#131313"/>
<path d="M198.151 147.606L202.82 162.362C205.261 170.078 199.162 177.842 190.659 177.842H149.198L150.718 168.749C151.152 166.151 153.87 164.485 156.549 165.175L165.333 167.436L177.357 164.97L177.701 156.281L198.151 147.606Z" fill="#F59060"/>
<path d="M191.521 161.089L177.303 164.756L177.413 165.183L191.631 161.517L191.521 161.089Z" fill="#131313"/>
<path d="M177.7 156.281L198.698 149.334L198.151 147.606L177.7 156.281Z" fill="#131313"/>
<path d="M110.094 147.606L105.425 162.362C102.983 170.078 109.083 177.842 117.585 177.842H159.046L157.527 168.749C157.093 166.151 154.375 164.485 151.696 165.175L142.912 167.436L130.888 164.969L130.544 156.281L110.094 147.606Z" fill="#F59060"/>
<path d="M116.723 161.09L116.613 161.518L130.832 165.182L130.942 164.754L116.723 161.09Z" fill="#131313"/>
<path d="M130.545 156.281L109.547 149.334L110.093 147.606L130.545 156.281Z" fill="#131313"/>
<path d="M130.765 130.183H130.323V156.28H130.765V130.183Z" fill="#131313"/>
<path d="M177.921 130.183H177.479V156.28H177.921V130.183Z" fill="#131313"/>
<path d="M159.267 177.842H158.825C158.825 170.495 157.226 167.499 155.885 166.279C154.874 165.36 153.995 165.431 153.986 165.433L153.944 164.993C153.988 164.989 155.029 164.904 156.182 165.953C157.589 167.232 159.267 170.334 159.267 177.842Z" fill="#131313"/>
<path d="M151.464 99.8555C149.527 99.8555 147.95 98.1117 147.95 95.9683C147.95 93.8249 149.526 92.0811 151.464 92.0811C153.402 92.0811 154.979 93.8249 154.979 95.9683C154.979 98.1117 153.402 99.8555 151.464 99.8555ZM151.464 92.7763C149.91 92.7763 148.646 94.208 148.646 95.9681C148.646 97.7282 149.91 99.1599 151.464 99.1599C153.019 99.1599 154.283 97.7281 154.283 95.9681C154.283 94.2082 153.019 92.7767 151.464 92.7767V92.7763Z" fill="#1D6DEC"/>
<path d="M159.934 99.8555C157.996 99.8555 156.42 98.1117 156.42 95.9683C156.42 93.8249 157.996 92.0811 159.934 92.0811C161.872 92.0811 163.448 93.8249 163.448 95.9683C163.448 98.1117 161.872 99.8555 159.934 99.8555ZM159.934 92.7763C158.38 92.7763 157.115 94.208 157.115 95.9681C157.115 97.7282 158.38 99.1599 159.934 99.1599C161.488 99.1599 162.753 97.7281 162.753 95.9681C162.753 94.2082 161.488 92.7767 159.934 92.7767V92.7763Z" fill="#1D6DEC"/>
<path d="M156.665 96.0063C155.544 95.6175 154.807 95.9727 154.776 95.9879L154.459 95.369C154.5 95.3477 155.475 94.8569 156.892 95.3493L156.665 96.0063Z" fill="#1D6DEC"/>
<path d="M164.859 92.4098L162.598 94.2305L163.034 94.7723L165.295 92.9516L164.859 92.4098Z" fill="#1D6DEC"/>
<path d="M146.328 92.538L145.944 93.1182L148.389 94.7362L148.773 94.1561L146.328 92.538Z" fill="#1D6DEC"/>
<path d="M149.786 106.751L146.596 109.739L152.358 121.123L155 118.43L149.786 106.751Z" fill="#DD9B0A"/>
<path d="M160.799 106.751L155 118.43L157.899 121.123L164.027 109.632L160.799 106.751Z" fill="#DD9B0A"/>
<path d="M154.772 118.428L154.356 164.988L154.82 164.992L155.235 118.433L154.772 118.428Z" fill="#131313"/>
<path d="M130.584 100.642H77.8252C75.3632 100.642 73.3604 98.9882 73.3604 96.9548V41.3967C73.3604 39.3633 75.3632 37.709 77.8252 37.709H130.584C133.046 37.709 135.049 39.3633 135.049 41.3967V96.9548C135.049 98.9882 133.046 100.642 130.584 100.642ZM77.8252 38.5898C75.8488 38.5898 74.2409 39.8491 74.2409 41.3968V96.9549C74.2409 98.5026 75.8488 99.7619 77.8252 99.7619H130.584C132.56 99.7619 134.168 98.5026 134.168 96.9549V41.3968C134.168 39.8491 132.56 38.5898 130.584 38.5898H77.8252Z" fill="#6445F1"/>
<path d="M127.653 48.3518V103.91C127.653 105.703 125.85 107.157 123.629 107.157H70.8703C68.647 107.157 66.8457 105.703 66.8457 103.91V48.3518C66.8457 46.5588 68.647 45.1045 70.8703 45.1045H123.629C125.85 45.1045 127.653 46.5589 127.653 48.3518Z" fill="#131313"/>
<path d="M127.653 48.3637V54.7168H66.8457V48.3614C66.8457 47.4977 67.1888 46.6694 67.7995 46.0586C68.4102 45.4479 69.2384 45.1047 70.1021 45.1045H124.394C125.258 45.1045 126.087 45.4479 126.698 46.0591C127.309 46.6703 127.653 47.4993 127.653 48.3637Z" fill="#6445F1"/>
<path d="M71.6089 50.9209C72.2537 50.9209 72.7764 50.3982 72.7764 49.7534C72.7764 49.1086 72.2537 48.5859 71.6089 48.5859C70.9641 48.5859 70.4414 49.1086 70.4414 49.7534C70.4414 50.3982 70.9641 50.9209 71.6089 50.9209Z" fill="#FF4655"/>
<path d="M74.8882 50.9209C75.533 50.9209 76.0557 50.3982 76.0557 49.7534C76.0557 49.1086 75.533 48.5859 74.8882 48.5859C74.2434 48.5859 73.7207 49.1086 73.7207 49.7534C73.7207 50.3982 74.2434 50.9209 74.8882 50.9209Z" fill="#6595F7"/>
<path d="M78.1665 50.9209C78.8113 50.9209 79.334 50.3982 79.334 49.7534C79.334 49.1086 78.8113 48.5859 78.1665 48.5859C77.5217 48.5859 76.999 49.1086 76.999 49.7534C76.999 50.3982 77.5217 50.9209 78.1665 50.9209Z" fill="#131313"/>
<path d="M86.9481 66.6475H78.3633V68.0594H86.9481V66.6475Z" fill="#FF4655"/>
<path d="M94.0563 66.6475H88.7354V68.0594H94.0563V66.6475Z" fill="#6445F1"/>
<path d="M101.411 66.6475H96.0898V68.0594H101.411V66.6475Z" fill="white"/>
<path d="M109.522 66.6475H103.202V68.0594H109.522V66.6475Z" fill="#6445F1"/>
<path d="M114.756 66.6475H110.839V68.0594H114.756V66.6475Z" fill="white"/>
<path d="M109.522 88.6084H103.202V90.0204H109.522V88.6084Z" fill="#1D6DEC"/>
<path d="M114.756 88.6084H110.839V90.0204H114.756V88.6084Z" fill="#FF4655"/>
<path d="M101.13 72.1377H94.8096V73.5497H101.13V72.1377Z" fill="#6445F1"/>
<path d="M106.363 72.1377H102.445V73.5497H106.363V72.1377Z" fill="white"/>
<path d="M120.17 66.6475H116.253V68.0594H120.17V66.6475Z" fill="#FF4655"/>
<path d="M123.648 61.1318H78.3633V62.5963H123.648V61.1318Z" fill="#FF4655"/>
<path d="M104.97 63.9385H78.3633V65.4029H104.97V63.9385Z" fill="#1D6DEC"/>
<path d="M86.9481 77.6279H78.3633V79.0399H86.9481V77.6279Z" fill="#1D6DEC"/>
<path d="M94.0563 77.6279H88.7354V79.0399H94.0563V77.6279Z" fill="white"/>
<path d="M101.411 77.6279H96.0898V79.0399H101.411V77.6279Z" fill="#6445F1"/>
<path d="M99.3776 85.8994H94.0566V87.3114H99.3776V85.8994Z" fill="#FF4655"/>
<path d="M106.731 85.8994H101.41V87.3114H106.731V85.8994Z" fill="white"/>
<path d="M93.1449 72.1113H78.3633V73.5758H93.1449V72.1113Z" fill="#FF4655"/>
<path d="M113.563 74.9189H78.3633V76.3834H113.563V74.9189Z" fill="#1D6DEC"/>
<path d="M86.9481 88.6084H78.3633V90.0204H86.9481V88.6084Z" fill="#1D6DEC"/>
<path d="M94.0563 88.6084H88.7354V90.0204H94.0563V88.6084Z" fill="white"/>
<path d="M101.411 88.6084H96.0898V90.0204H101.411V88.6084Z" fill="white"/>
<path d="M114.296 83.0918H78.3633V84.5562H114.296V83.0918Z" fill="#6445F1"/>
<path d="M92.6977 85.8994H78.3633V87.3639H92.6977V85.8994Z" fill="#1D6DEC"/>
<path d="M86.9481 99.5879H78.3633V101H86.9481V99.5879Z" fill="#1D6DEC"/>
<path d="M76.3815 61.1572H71.0605V62.5692H76.3815V61.1572Z" fill="#FF4655"/>
<path d="M76.3815 72.1377H71.0605V73.5497H76.3815V72.1377Z" fill="#FF4655"/>
<path d="M76.3815 83.1182H71.0605V84.5301H76.3815V83.1182Z" fill="#6445F1"/>
<path d="M76.3815 94.0977H71.0605V95.5096H76.3815V94.0977Z" fill="white"/>
<path d="M101.411 99.5879H96.0898V101H101.411V99.5879Z" fill="#FF4655"/>
<path d="M94.0563 99.5879H88.7354V101H94.0563V99.5879Z" fill="#6445F1"/>
<path d="M123.648 94.0723H78.3633V95.5367H123.648V94.0723Z" fill="white"/>
<path d="M104.97 96.8789H78.3633V98.3434H104.97V96.8789Z" fill="#6445F1"/>
<path d="M79.383 110.413H60.5058C58.2846 110.411 56.1551 109.527 54.5845 107.957C53.0139 106.386 52.1304 104.256 52.1279 102.035C52.1272 99.8286 52.9821 97.7075 54.5127 96.1181C56.0091 94.5542 58.0124 93.6572 60.0091 93.6572H66.7977C66.9144 93.6572 67.0264 93.7036 67.109 93.7862C67.1916 93.8688 67.238 93.9807 67.238 94.0975C67.238 94.2143 67.1916 94.3263 67.109 94.4088C67.0264 94.4914 66.9144 94.5378 66.7977 94.5378H60.0092C56.28 94.5378 53.0086 98.0416 53.0086 102.035C53.0109 104.023 53.8014 105.928 55.2068 107.334C56.6122 108.74 58.5178 109.53 60.5054 109.533H79.383C79.4998 109.533 79.6117 109.579 79.6943 109.662C79.7769 109.744 79.8233 109.856 79.8233 109.973C79.8233 110.09 79.7769 110.202 79.6943 110.284C79.6117 110.367 79.4998 110.413 79.383 110.413Z" fill="#6445F1"/>
<path d="M87.3015 110.988C87.8617 110.988 88.3159 110.534 88.3159 109.973C88.3159 109.413 87.8617 108.959 87.3015 108.959C86.7413 108.959 86.2871 109.413 86.2871 109.973C86.2871 110.534 86.7413 110.988 87.3015 110.988Z" fill="#6445F1"/>
<path d="M84.3991 110.988C84.9594 110.988 85.4135 110.534 85.4135 109.973C85.4135 109.413 84.9594 108.959 84.3991 108.959C83.8389 108.959 83.3848 109.413 83.3848 109.973C83.3848 110.534 83.8389 110.988 84.3991 110.988Z" fill="#6445F1"/>
<path d="M81.4978 110.988C82.058 110.988 82.5122 110.534 82.5122 109.973C82.5122 109.413 82.058 108.959 81.4978 108.959C80.9376 108.959 80.4834 109.413 80.4834 109.973C80.4834 110.534 80.9376 110.988 81.4978 110.988Z" fill="#6445F1"/>
<path d="M248.062 115.6H188.321C187.689 115.599 187.083 115.347 186.636 114.9C186.189 114.454 185.937 113.847 185.937 113.215V69.896C185.937 69.2639 186.189 68.6578 186.636 68.2108C187.083 67.7638 187.689 67.5124 188.321 67.5117H248.062C248.694 67.5124 249.3 67.7638 249.747 68.2108C250.194 68.6578 250.446 69.2639 250.446 69.896V113.215C250.446 113.847 250.194 114.454 249.747 114.9C249.3 115.347 248.694 115.599 248.062 115.6ZM188.321 68.3923C187.922 68.3927 187.54 68.5513 187.258 68.8332C186.976 69.1151 186.818 69.4973 186.817 69.896V113.215C186.818 113.614 186.976 113.996 187.258 114.278C187.54 114.56 187.922 114.719 188.321 114.719H248.062C248.461 114.719 248.843 114.56 249.125 114.278C249.407 113.996 249.565 113.614 249.566 113.215V69.896C249.565 69.4973 249.407 69.1151 249.125 68.8332C248.843 68.5513 248.461 68.3927 248.062 68.3923H188.321Z" fill="#6445F1"/>
<path d="M254.41 74.3001V117.619C254.409 118.135 254.205 118.629 253.84 118.993C253.476 119.358 252.981 119.563 252.466 119.563H192.724C192.208 119.563 191.714 119.358 191.35 118.993C190.985 118.629 190.781 118.135 190.78 117.619V74.3001C190.781 73.7847 190.985 73.2904 191.35 72.926C191.714 72.5615 192.208 72.3567 192.724 72.3564H252.465C252.981 72.3565 253.475 72.5612 253.84 72.9257C254.204 73.2902 254.409 73.7845 254.41 74.3001Z" fill="#6595F7"/>
<path d="M210.046 81.9971H197.357C195.22 81.9971 193.488 83.7291 193.488 85.8656V94.067C193.488 96.2036 195.22 97.9356 197.357 97.9356H210.046C212.182 97.9356 213.914 96.2036 213.914 94.067V85.8656C213.914 83.7291 212.182 81.9971 210.046 81.9971Z" fill="white"/>
<path d="M254.41 74.3001V79.7161H190.78V74.3001C190.781 73.7847 190.985 73.2904 191.35 72.926C191.714 72.5615 192.208 72.3567 192.724 72.3564H252.465C252.981 72.3563 253.475 72.561 253.84 72.9255C254.205 73.29 254.41 73.7844 254.41 74.3001Z" fill="#1D6DEC"/>
<path d="M194.585 77.0619C195.191 77.0619 195.682 76.5708 195.682 75.965C195.682 75.3593 195.191 74.8682 194.585 74.8682C193.979 74.8682 193.488 75.3593 193.488 75.965C193.488 76.5708 193.979 77.0619 194.585 77.0619Z" fill="white"/>
<path d="M198.406 77.0619C199.012 77.0619 199.503 76.5708 199.503 75.965C199.503 75.3593 199.012 74.8682 198.406 74.8682C197.801 74.8682 197.31 75.3593 197.31 75.965C197.31 76.5708 197.801 77.0619 198.406 77.0619Z" fill="white"/>
<path d="M202.228 77.0619C202.834 77.0619 203.325 76.5708 203.325 75.965C203.325 75.3593 202.834 74.8682 202.228 74.8682C201.622 74.8682 201.131 75.3593 201.131 75.965C201.131 76.5708 201.622 77.0619 202.228 77.0619Z" fill="white"/>
<path d="M228.513 81.9971H217.532V84.2616H228.513V81.9971Z" fill="white"/>
<path d="M237.606 81.9971H230.8V84.2616H237.606V81.9971Z" fill="#FF4655"/>
<path d="M247.012 81.9971H240.206V84.2616H247.012V81.9971Z" fill="#1D6DEC"/>
<path d="M228.513 93.6943H217.532V95.9588H228.513V93.6943Z" fill="#1D6DEC"/>
<path d="M237.606 93.6943H230.8V95.9588H237.606V93.6943Z" fill="#1D6DEC"/>
<path d="M247.012 93.6943H240.206V95.9588H247.012V93.6943Z" fill="#FF4655"/>
<path d="M204.469 106.81H193.488V109.074H204.469V106.81Z" fill="#1D6DEC"/>
<path d="M213.562 106.81H206.756V109.074H213.562V106.81Z" fill="white"/>
<path d="M222.967 106.81H216.161V109.074H222.967V106.81Z" fill="white"/>
<path d="M251.411 112.557H193.488V114.021H251.411V112.557Z" fill="#1D6DEC"/>
<path d="M227.52 115.363H193.488V116.828H227.52V115.363Z" fill="white"/>
<path d="M251.411 99.5049H193.488V100.969H251.411V99.5049Z" fill="white"/>
<path d="M227.52 102.312H193.488V103.776H227.52V102.312Z" fill="#1D6DEC"/>
<path d="M251.564 86.7539H217.532V88.2184H251.564V86.7539Z" fill="#1D6DEC"/>
<path d="M237.527 89.5615H217.532V91.026H237.527V89.5615Z" fill="white"/>
<path d="M261.199 117.956H242.321C242.206 117.954 242.096 117.907 242.015 117.825C241.934 117.742 241.889 117.631 241.889 117.516C241.889 117.4 241.934 117.29 242.015 117.207C242.096 117.125 242.206 117.078 242.321 117.076H261.199C263.187 117.076 265.094 116.286 266.5 114.88C267.906 113.474 268.696 111.567 268.696 109.578C268.696 107.59 267.906 105.683 266.5 104.277C265.094 102.871 263.187 102.081 261.199 102.081H254.41C254.293 102.081 254.181 102.034 254.099 101.952C254.016 101.869 253.97 101.757 253.97 101.64C253.97 101.524 254.016 101.412 254.099 101.329C254.181 101.247 254.293 101.2 254.41 101.2H261.199C263.421 101.2 265.552 102.083 267.123 103.654C268.694 105.225 269.577 107.356 269.577 109.578C269.577 111.8 268.694 113.931 267.123 115.502C265.552 117.074 263.421 117.956 261.199 117.956Z" fill="#6445F1"/>
<path d="M234.403 118.531C234.963 118.531 235.417 118.077 235.417 117.516C235.417 116.956 234.963 116.502 234.403 116.502C233.843 116.502 233.389 116.956 233.389 117.516C233.389 118.077 233.843 118.531 234.403 118.531Z" fill="#6445F1"/>
<path d="M237.304 118.531C237.865 118.531 238.319 118.077 238.319 117.516C238.319 116.956 237.865 116.502 237.304 116.502C236.744 116.502 236.29 116.956 236.29 117.516C236.29 118.077 236.744 118.531 237.304 118.531Z" fill="#6445F1"/>
<path d="M240.206 118.531C240.766 118.531 241.22 118.077 241.22 117.516C241.22 116.956 240.766 116.502 240.206 116.502C239.646 116.502 239.191 116.956 239.191 117.516C239.191 118.077 239.646 118.531 240.206 118.531Z" fill="#6445F1"/>
<path d="M189.312 177.363H228.548C230.003 177.363 231.398 176.785 232.427 175.756C233.456 174.727 234.034 173.332 234.034 171.877C234.034 170.422 233.456 169.026 232.427 167.998C231.398 166.969 230.003 166.391 228.548 166.391H189.312V177.363Z" fill="#FF4655"/>
<path d="M228.416 175.929H189.313V167.825H228.416C229.486 167.825 230.512 168.25 231.269 169.007C232.026 169.764 232.451 170.791 232.451 171.861V171.893C232.451 172.423 232.347 172.948 232.144 173.437C231.941 173.927 231.644 174.372 231.269 174.747C230.894 175.121 230.45 175.419 229.96 175.622C229.47 175.824 228.946 175.929 228.416 175.929Z" fill="white"/>
<path d="M231.781 169.394H189.312V169.929H231.781V169.394Z" fill="#131313"/>
<path d="M231.461 174.271H189.312V174.807H231.461V174.271Z" fill="#131313"/>
<path d="M232.451 171.608H189.312V172.144H232.451V171.608Z" fill="#131313"/>
<path d="M224.831 166.39H194.239V157.835H224.831C225.965 157.835 227.053 158.286 227.855 159.088C228.658 159.89 229.108 160.978 229.108 162.113C229.108 163.247 228.658 164.335 227.855 165.138C227.053 165.94 225.965 166.39 224.831 166.39Z" fill="#6595F7"/>
<path d="M224.727 165.271H194.239V158.953H224.727C225.562 158.953 226.362 159.285 226.952 159.875C227.542 160.465 227.874 161.266 227.874 162.1V162.125C227.874 162.96 227.542 163.76 226.952 164.35C226.362 164.94 225.562 165.271 224.727 165.271Z" fill="white"/>
<path d="M227.351 160.117H194.238V160.653H227.351V160.117Z" fill="#131313"/>
<path d="M227.102 163.921H194.238V164.457H227.102V163.921Z" fill="#131313"/>
<path d="M227.873 161.845H194.238V162.38H227.873V161.845Z" fill="#131313"/>
<path d="M174.258 177.842H133.887C133.332 177.842 132.796 177.637 132.384 177.265C131.971 176.894 131.711 176.383 131.653 175.831L128.724 147.987C128.691 147.674 128.725 147.357 128.822 147.058C128.919 146.759 129.078 146.483 129.289 146.249C129.5 146.015 129.757 145.828 130.045 145.7C130.333 145.572 130.644 145.506 130.959 145.506H177.186C177.501 145.506 177.813 145.572 178.1 145.7C178.388 145.828 178.645 146.015 178.856 146.249C179.067 146.483 179.226 146.759 179.323 147.058C179.421 147.357 179.454 147.674 179.421 147.987L176.493 175.831C176.434 176.383 176.174 176.894 175.761 177.265C175.349 177.637 174.813 177.842 174.258 177.842Z" fill="#6595F7"/>
<path d="M154.122 167.297C157.1 167.297 159.513 164.884 159.513 161.906C159.513 158.929 157.1 156.516 154.122 156.516C151.145 156.516 148.731 158.929 148.731 161.906C148.731 164.884 151.145 167.297 154.122 167.297Z" fill="white"/>
<path d="M93.8797 124.674H92.4189V144.925H93.8797V124.674Z" fill="#131313"/>
<path d="M90.8135 117.856C90.8135 117.856 93.1072 111.713 95.49 117.856C95.49 117.856 93.0587 122.275 90.8135 117.856Z" fill="#FF4655"/>
<path d="M89.9173 117.34C89.7389 117.241 89.5381 117.191 89.3343 117.193C89.1306 117.195 88.9308 117.249 88.7544 117.351C88.5781 117.454 88.4312 117.6 88.328 117.775C88.2247 117.951 88.1687 118.15 88.1654 118.354C88.1399 120.111 88.4797 121.854 89.1631 123.473C89.6732 124.667 91.0778 127.955 93.1421 127.961C95.2064 127.967 96.6315 124.679 97.1295 123.529C97.8299 121.892 98.1741 120.125 98.1393 118.345C98.1377 118.145 98.0851 117.949 97.9865 117.776C97.8878 117.602 97.7464 117.457 97.5757 117.354C97.405 117.25 97.2107 117.192 97.0112 117.185C96.8118 117.178 96.6139 117.222 96.4363 117.313C95.4363 117.856 94.3176 118.142 93.1801 118.146C92.0426 118.151 90.9216 117.874 89.9173 117.34V117.34Z" fill="#FF4655"/>
<path d="M101.083 170.775L98.8406 177.115C98.8236 177.183 98.7854 177.243 98.7316 177.288C98.6777 177.333 98.611 177.359 98.5411 177.363H87.753C87.6796 177.362 87.6093 177.333 87.5558 177.283C87.5078 177.236 87.4726 177.178 87.4536 177.115L85.2113 170.76C83.1222 164.844 83.1222 158.073 85.2039 152.149L85.2113 152.135C86.7262 147.75 87.1474 143.061 86.4383 138.477V138.469C86.4019 138.206 86.5553 137.973 86.7595 137.973H99.5199C99.7243 137.973 99.8851 138.206 99.8412 138.469C99.79 138.813 99.7464 139.156 99.7025 139.499C99.5771 140.6 99.5137 141.707 99.5126 142.815C99.5077 145.991 100.039 149.144 101.083 152.143C103.172 158.178 103.172 164.74 101.083 170.775Z" fill="#6445F1"/>
<path d="M93.1518 167.987C95.3849 167.987 97.1951 164.705 97.1951 160.656C97.1951 156.608 95.3849 153.326 93.1518 153.326C90.9187 153.326 89.1084 156.608 89.1084 160.656C89.1084 164.705 90.9187 167.987 93.1518 167.987Z" fill="white"/>
</svg>
