<svg width="267" height="287" viewBox="0 0 267 287" fill="none" xmlns="http://www.w3.org/2000/svg">
<path d="M37.6839 54.4775V40.4725L47.4356 54.4775H49.5104V36.3228H47.3059V50.3279L37.5542 36.3228H35.4794V54.4775H37.6839ZM64.417 52.5324C63.8205 52.5324 63.5611 52.3508 63.5611 51.6506V45.867C63.5611 42.7807 61.616 41.0949 58.2444 41.0949C55.0543 41.0949 52.9536 42.6251 52.6423 45.2186H54.769C55.0284 43.87 56.2733 42.9882 58.1406 42.9882C60.2155 42.9882 61.4344 44.0256 61.4344 45.7373V46.6451H57.5441C54.0688 46.6451 52.2274 48.1234 52.2274 50.7688C52.2274 53.1808 54.1985 54.6332 57.1032 54.6332C59.3855 54.6332 60.7082 53.6217 61.5382 52.4286C61.5641 53.7254 62.1606 54.4775 63.9242 54.4775H65.0913V52.5324H64.417ZM61.4344 49.083C61.4344 51.2875 59.9042 52.8177 57.2588 52.8177C55.4952 52.8177 54.38 51.9359 54.38 50.6391C54.38 49.1349 55.4433 48.4346 57.3366 48.4346H61.4344V49.083ZM67.7118 51.0281C67.7118 53.3623 68.6195 54.4775 71.1612 54.4775H73.4694V52.5324H71.3687C70.2275 52.5324 69.8385 52.1174 69.8385 51.0022V43.1957H73.2619V41.2505H69.8385V37.5418H67.7118V41.2505H65.3257V43.1957H67.7118V51.0281ZM84.5712 47.864C84.5712 50.8466 83.1188 52.688 80.7068 52.688C78.5023 52.688 77.2574 51.2356 77.2574 48.4865V41.2505H75.1307V48.6162C75.1307 52.9992 77.4389 54.6332 80.3437 54.6332C82.5223 54.6332 83.7931 53.6995 84.5712 52.7139L84.8564 54.4775H86.6979V41.2505H84.5712V47.864ZM95.7177 41.2505C93.3576 41.2505 92.3461 42.2361 91.7236 43.2475L91.4383 41.2505H89.5969V54.4775H91.7236V47.7344C91.7236 45.6336 92.4758 43.3253 95.2508 43.3253H96.3142V41.2505H95.7177ZM109.399 52.5324C108.802 52.5324 108.543 52.3508 108.543 51.6506V45.867C108.543 42.7807 106.598 41.0949 103.226 41.0949C100.036 41.0949 97.9351 42.6251 97.6239 45.2186H99.7506C100.01 43.87 101.255 42.9882 103.122 42.9882C105.197 42.9882 106.416 44.0256 106.416 45.7373V46.6451H102.526C99.0504 46.6451 97.209 48.1234 97.209 50.7688C97.209 53.1808 99.18 54.6332 102.085 54.6332C104.367 54.6332 105.69 53.6217 106.52 52.4286C106.546 53.7254 107.142 54.4775 108.906 54.4775H110.073V52.5324H109.399ZM106.416 49.083C106.416 51.2875 104.886 52.8177 102.24 52.8177C100.477 52.8177 99.3616 51.9359 99.3616 50.6391C99.3616 49.1349 100.425 48.4346 102.318 48.4346H106.416V49.083ZM111.708 54.4775H113.835V36.3228H111.708V54.4775ZM53.1224 89.4775V84.3475H42.067V61.6403H36.1019V89.4775H53.1224ZM75.1896 84.7452C74.3147 84.7452 73.8773 84.5464 73.8773 83.4726V76.235C73.8773 71.3436 70.5766 68.7984 64.8501 68.7984C59.4417 68.7984 55.7831 71.4231 55.3854 75.3998H60.7938C61.0324 73.8887 62.5038 72.8945 64.691 72.8945C67.0373 72.8945 68.3496 74.0875 68.3496 75.9168V76.911H64.2933C58.1691 76.911 54.9082 79.3766 54.9082 83.7112C54.9082 87.6085 58.0896 89.7161 62.5038 89.7161C65.6852 89.7161 67.7531 88.4038 69.1847 86.1371C69.1449 88.0857 70.0596 89.4775 72.9626 89.4775H75.8259V84.7452H75.1896ZM68.3496 81.0468C68.3098 83.8306 66.5203 85.6599 63.5775 85.6599C61.7084 85.6599 60.5552 84.7452 60.5552 83.3136C60.5552 81.6036 61.9073 80.6492 64.2535 80.6492H68.3496V81.0468ZM89.7265 68.7984C86.5849 68.7984 84.7158 69.9915 83.4035 71.5822L82.8865 69.037H77.9951V89.4775H83.6023V79.0187C83.6023 75.4794 85.2725 73.4115 88.1756 73.4115C90.9991 73.4115 92.3114 75.2408 92.3114 78.7005V89.4775H97.9186V78.1438C97.9186 71.1447 94.1407 68.7984 89.7265 68.7984ZM116.484 71.8605C115.132 70.071 113.064 68.7587 110.121 68.7587C104.673 68.7587 100.656 72.8149 100.656 79.0584C100.656 85.3815 104.673 89.398 110.161 89.3582C113.024 89.3582 115.052 88.2447 116.404 86.5347V88.6822C116.404 91.8636 114.535 93.4145 111.394 93.4145C108.809 93.4145 107.258 92.301 106.741 90.3524H101.094C101.372 95.0848 105.269 97.6696 110.956 97.6696C118.79 97.6696 121.892 93.9315 121.892 88.881V69.037H116.961L116.484 71.8605ZM111.394 84.8645C108.331 84.8645 106.383 82.5182 106.383 79.0982C106.383 75.6782 108.331 73.2922 111.394 73.2922C114.456 73.2922 116.365 75.718 116.365 79.138C116.365 82.5182 114.456 84.8645 111.394 84.8645ZM139.442 79.2573C139.442 83.0352 137.811 85.0633 135.028 85.0633C132.244 85.0633 131.051 83.2738 131.051 79.6152V69.037H125.444V80.3708C125.444 87.6085 129.341 89.7161 133.556 89.7161C136.459 89.7161 138.249 88.6027 139.561 87.012L140.078 89.4775H145.049V69.037H139.442V79.2573ZM168.434 84.7452C167.559 84.7452 167.121 84.5464 167.121 83.4726V76.235C167.121 71.3436 163.821 68.7984 158.094 68.7984C152.686 68.7984 149.027 71.4231 148.629 75.3998H154.038C154.276 73.8887 155.748 72.8945 157.935 72.8945C160.281 72.8945 161.594 74.0875 161.594 75.9168V76.911H157.537C151.413 76.911 148.152 79.3766 148.152 83.7112C148.152 87.6085 151.334 89.7161 155.748 89.7161C158.929 89.7161 160.997 88.4038 162.429 86.1371C162.389 88.0857 163.304 89.4775 166.207 89.4775H169.07V84.7452H168.434ZM161.594 81.0468C161.554 83.8306 159.764 85.6599 156.821 85.6599C154.952 85.6599 153.799 84.7452 153.799 83.3136C153.799 81.6036 155.151 80.6492 157.497 80.6492H161.594V81.0468ZM186.271 71.8605C184.919 70.071 182.851 68.7587 179.908 68.7587C174.46 68.7587 170.444 72.8149 170.444 79.0584C170.444 85.3815 174.46 89.398 179.948 89.3582C182.811 89.3582 184.84 88.2447 186.192 86.5347V88.6822C186.192 91.8636 184.323 93.4145 181.181 93.4145C178.596 93.4145 177.045 92.301 176.528 90.3524H170.881C171.159 95.0848 175.057 97.6696 180.743 97.6696C188.578 97.6696 191.68 93.9315 191.68 88.881V69.037H186.748L186.271 71.8605ZM181.181 84.8645C178.119 84.8645 176.17 82.5182 176.17 79.0982C176.17 75.6782 178.119 73.2922 181.181 73.2922C184.243 73.2922 186.152 75.718 186.152 79.138C186.152 82.5182 184.243 84.8645 181.181 84.8645ZM205.69 89.7161C211.138 89.7161 214.677 86.5347 215.314 82.558H209.786C209.309 84.4668 207.718 85.461 205.451 85.461C202.628 85.461 200.759 83.7112 200.639 80.8082V80.5298H215.473C215.592 79.8936 215.632 79.2175 215.632 78.621C215.552 72.6161 211.416 68.7984 205.292 68.7984C198.969 68.7984 194.794 72.9343 194.794 79.2971C194.794 85.6201 198.89 89.7161 205.69 89.7161ZM200.759 76.8712C201.077 74.4454 202.906 72.974 205.332 72.974C207.877 72.974 209.587 74.3659 209.985 76.8712H200.759Z" fill="white"/>
<circle opacity="0.5" cx="133.567" cy="188.896" r="70.4577" fill="#FFC095"/>
<path d="M92.2242 151.177H47.0281C46.5484 151.176 46.0885 150.986 45.7493 150.646C45.4101 150.307 45.2193 149.847 45.2188 149.368V116.595C45.2193 116.116 45.4101 115.656 45.7493 115.317C46.0885 114.977 46.5484 114.787 47.0281 114.786H92.2242C92.7038 114.787 93.1636 114.978 93.5028 115.317C93.8419 115.656 94.0327 116.116 94.0333 116.595V149.368C94.0328 149.847 93.842 150.307 93.5028 150.646C93.1637 150.986 92.7038 151.176 92.2242 151.177ZM47.0281 115.463C46.7279 115.464 46.4401 115.583 46.2279 115.795C46.0156 116.007 45.8962 116.295 45.8958 116.595V149.368C45.8961 149.668 46.0156 149.956 46.2278 150.168C46.4401 150.38 46.7279 150.5 47.0281 150.5H92.2242C92.5244 150.5 92.8122 150.38 93.0244 150.168C93.2367 149.956 93.3561 149.668 93.3565 149.368V116.595C93.3561 116.295 93.2367 116.007 93.0244 115.795C92.8121 115.583 92.5243 115.464 92.2242 115.463H47.0281Z" fill="#6595F7"/>
<path d="M97.026 119.927V152.699C97.026 153.089 96.871 153.463 96.5952 153.739C96.3195 154.015 95.9454 154.17 95.5553 154.17H50.3593C49.9693 154.17 49.5953 154.015 49.3195 153.739C49.0437 153.463 48.8888 153.089 48.8887 152.699V119.927C48.8888 119.537 49.0437 119.163 49.3195 118.887C49.5953 118.611 49.9693 118.456 50.3593 118.456H95.5553C95.9453 118.456 96.3193 118.611 96.5951 118.887C96.8709 119.163 97.0259 119.537 97.026 119.927Z" fill="#6445F1"/>
<path d="M97.026 119.927V124.024H48.8887V119.927C48.8888 119.537 49.0437 119.163 49.3195 118.887C49.5953 118.611 49.9693 118.456 50.3593 118.456H95.5553C95.9453 118.456 96.3193 118.611 96.5951 118.887C96.8709 119.163 97.0259 119.537 97.026 119.927Z" fill="black"/>
<path d="M51.7673 122.017C52.2255 122.017 52.597 121.645 52.597 121.187C52.597 120.729 52.2255 120.357 51.7673 120.357C51.309 120.357 50.9375 120.729 50.9375 121.187C50.9375 121.645 51.309 122.017 51.7673 122.017Z" fill="white"/>
<path d="M54.6579 122.017C55.1162 122.017 55.4877 121.645 55.4877 121.187C55.4877 120.729 55.1162 120.357 54.6579 120.357C54.1996 120.357 53.8281 120.729 53.8281 121.187C53.8281 121.645 54.1996 122.017 54.6579 122.017Z" fill="white"/>
<path d="M57.5495 122.017C58.0078 122.017 58.3793 121.645 58.3793 121.187C58.3793 120.729 58.0078 120.357 57.5495 120.357C57.0912 120.357 56.7197 120.729 56.7197 121.187C56.7197 121.645 57.0912 122.017 57.5495 122.017Z" fill="white"/>
<path d="M59.2447 126.354H50.9375V128.067H59.2447V126.354Z" fill="white"/>
<path d="M94.7574 148.869H50.9375V149.977H94.7574V148.869Z" fill="white"/>
<path d="M76.6835 150.993H50.9375V152.101H76.6835V150.993Z" fill="white"/>
<path d="M224.895 227.502H179.699C179.219 227.502 178.759 227.311 178.42 226.971C178.081 226.632 177.89 226.172 177.89 225.693V192.921C177.89 192.441 178.081 191.981 178.42 191.642C178.759 191.303 179.219 191.112 179.699 191.111H224.895C225.375 191.112 225.835 191.303 226.174 191.642C226.513 191.981 226.704 192.441 226.704 192.921V225.693C226.704 226.172 226.513 226.632 226.174 226.971C225.835 227.311 225.375 227.502 224.895 227.502ZM179.699 191.788C179.399 191.789 179.111 191.908 178.899 192.12C178.686 192.333 178.567 192.62 178.567 192.921V225.693C178.567 225.993 178.686 226.281 178.899 226.493C179.111 226.705 179.399 226.825 179.699 226.825H224.895C225.195 226.825 225.483 226.705 225.695 226.493C225.908 226.281 226.027 225.993 226.027 225.693V192.921C226.027 192.62 225.908 192.333 225.695 192.12C225.483 191.908 225.195 191.789 224.895 191.788H179.699Z" fill="#6595F7"/>
<path d="M229.697 196.252V229.024C229.697 229.414 229.542 229.788 229.266 230.064C228.99 230.34 228.616 230.495 228.226 230.495H183.03C182.64 230.495 182.266 230.34 181.99 230.064C181.715 229.788 181.56 229.414 181.56 229.024V196.252C181.56 195.862 181.715 195.488 181.99 195.212C182.266 194.936 182.64 194.781 183.03 194.781H228.226C228.616 194.781 228.99 194.936 229.266 195.212C229.542 195.488 229.697 195.862 229.697 196.252Z" fill="#6445F1"/>
<path d="M229.697 196.252V200.35H181.56V196.252C181.56 195.862 181.715 195.488 181.99 195.212C182.266 194.936 182.64 194.781 183.03 194.781H228.226C228.616 194.781 228.99 194.936 229.266 195.212C229.542 195.488 229.697 195.862 229.697 196.252Z" fill="black"/>
<path d="M184.438 198.342C184.896 198.342 185.268 197.971 185.268 197.512C185.268 197.054 184.896 196.683 184.438 196.683C183.98 196.683 183.608 197.054 183.608 197.512C183.608 197.971 183.98 198.342 184.438 198.342Z" fill="white"/>
<path d="M187.329 198.342C187.787 198.342 188.159 197.971 188.159 197.512C188.159 197.054 187.787 196.683 187.329 196.683C186.871 196.683 186.499 197.054 186.499 197.512C186.499 197.971 186.871 198.342 187.329 198.342Z" fill="white"/>
<path d="M190.22 198.342C190.679 198.342 191.05 197.971 191.05 197.512C191.05 197.054 190.679 196.683 190.22 196.683C189.762 196.683 189.391 197.054 189.391 197.512C189.391 197.971 189.762 198.342 190.22 198.342Z" fill="white"/>
<path d="M191.916 202.679H183.608V204.392H191.916V202.679Z" fill="white"/>
<path d="M227.428 225.194H183.608V226.302H227.428V225.194Z" fill="white"/>
<path d="M209.354 227.318H183.608V228.426H209.354V227.318Z" fill="white"/>
<path d="M202.29 162.631H157.095C156.615 162.631 156.155 162.44 155.816 162.101C155.476 161.761 155.286 161.301 155.285 160.822V128.049C155.286 127.57 155.477 127.11 155.816 126.771C156.155 126.432 156.615 126.241 157.095 126.24H202.29C202.77 126.241 203.23 126.432 203.569 126.771C203.908 127.11 204.099 127.57 204.1 128.049V160.822C204.099 161.301 203.908 161.761 203.569 162.101C203.23 162.44 202.77 162.631 202.29 162.631ZM157.095 126.917C156.794 126.918 156.507 127.037 156.294 127.249C156.082 127.462 155.963 127.749 155.962 128.049V160.822C155.963 161.122 156.082 161.41 156.294 161.622C156.507 161.834 156.794 161.954 157.095 161.954H202.29C202.591 161.954 202.878 161.834 203.091 161.622C203.303 161.41 203.422 161.122 203.423 160.822V128.049C203.422 127.749 203.303 127.462 203.091 127.249C202.878 127.037 202.591 126.918 202.29 126.917H157.095Z" fill="#6595F7"/>
<path d="M207.092 131.381V164.153C207.092 164.543 206.937 164.917 206.662 165.193C206.386 165.469 206.012 165.624 205.622 165.624H160.426C160.036 165.624 159.662 165.469 159.386 165.193C159.11 164.917 158.955 164.543 158.955 164.153V131.381C158.955 130.991 159.11 130.617 159.386 130.341C159.662 130.065 160.036 129.91 160.426 129.91H205.622C206.012 129.91 206.386 130.065 206.662 130.341C206.937 130.617 207.092 130.991 207.092 131.381Z" fill="#6595F7"/>
<path d="M207.092 131.381V135.478H158.955V131.381C158.955 130.991 159.11 130.617 159.386 130.341C159.662 130.065 160.036 129.91 160.426 129.91H205.622C206.012 129.91 206.386 130.065 206.662 130.341C206.937 130.617 207.092 130.991 207.092 131.381Z" fill="#015566"/>
<path d="M161.834 133.47C162.292 133.47 162.663 133.099 162.663 132.64C162.663 132.182 162.292 131.811 161.834 131.811C161.375 131.811 161.004 132.182 161.004 132.64C161.004 133.099 161.375 133.47 161.834 133.47Z" fill="white"/>
<path d="M164.724 133.47C165.183 133.47 165.554 133.099 165.554 132.64C165.554 132.182 165.183 131.811 164.724 131.811C164.266 131.811 163.895 132.182 163.895 132.64C163.895 133.099 164.266 133.47 164.724 133.47Z" fill="white"/>
<path d="M167.616 133.47C168.074 133.47 168.446 133.099 168.446 132.64C168.446 132.182 168.074 131.811 167.616 131.811C167.158 131.811 166.786 132.182 166.786 132.64C166.786 133.099 167.158 133.47 167.616 133.47Z" fill="white"/>
<path d="M169.311 137.808H161.004V139.521H169.311V137.808Z" fill="white"/>
<path d="M204.824 160.323H161.004V161.431H204.824V160.323Z" fill="white"/>
<path d="M186.75 162.446H161.004V163.554H186.75V162.446Z" fill="white"/>
<path d="M98.4691 244.018H53.2732C52.7935 244.018 52.3336 243.827 51.9944 243.488C51.6552 243.148 51.4644 242.689 51.4639 242.209V209.436C51.4644 208.956 51.6552 208.497 51.9944 208.157C52.3336 207.818 52.7935 207.627 53.2732 207.627H98.4691C98.9488 207.627 99.4086 207.818 99.7478 208.157C100.087 208.497 100.278 208.956 100.278 209.436V242.208C100.278 242.688 100.087 243.148 99.748 243.487C99.4088 243.827 98.9488 244.018 98.4691 244.018ZM53.2732 208.304C52.973 208.304 52.6852 208.424 52.473 208.636C52.2607 208.848 52.1413 209.136 52.1409 209.436V242.208C52.1413 242.509 52.2607 242.796 52.4729 243.009C52.6852 243.221 52.973 243.34 53.2732 243.341H98.4691C98.7693 243.34 99.0571 243.221 99.2693 243.009C99.4816 242.796 99.601 242.509 99.6014 242.208V209.436C99.601 209.136 99.4816 208.848 99.2693 208.636C99.0571 208.424 98.7693 208.304 98.4691 208.304H53.2732Z" fill="#6595F7"/>
<path d="M103.271 212.768V245.54C103.271 245.93 103.116 246.304 102.84 246.58C102.565 246.855 102.191 247.01 101.801 247.011H56.6046C56.2145 247.01 55.8405 246.855 55.5647 246.58C55.2889 246.304 55.1339 245.93 55.1338 245.54V212.768C55.1339 212.378 55.2889 212.003 55.5647 211.728C55.8405 211.452 56.2145 211.297 56.6046 211.297H101.801C102.191 211.297 102.565 211.452 102.84 211.728C103.116 212.004 103.271 212.378 103.271 212.768Z" fill="#6595F7"/>
<path d="M103.271 212.768V216.865H55.1338V212.768C55.1339 212.378 55.2889 212.003 55.5647 211.728C55.8405 211.452 56.2145 211.297 56.6046 211.297H101.8C102.19 211.297 102.564 211.452 102.84 211.728C103.116 212.004 103.271 212.378 103.271 212.768Z" fill="#015566"/>
<path d="M58.0124 214.858C58.4707 214.858 58.8422 214.486 58.8422 214.028C58.8422 213.57 58.4707 213.198 58.0124 213.198C57.5541 213.198 57.1826 213.57 57.1826 214.028C57.1826 214.486 57.5541 214.858 58.0124 214.858Z" fill="white"/>
<path d="M60.903 214.858C61.3613 214.858 61.7328 214.486 61.7328 214.028C61.7328 213.57 61.3613 213.198 60.903 213.198C60.4447 213.198 60.0732 213.57 60.0732 214.028C60.0732 214.486 60.4447 214.858 60.903 214.858Z" fill="white"/>
<path d="M63.7946 214.858C64.2529 214.858 64.6244 214.486 64.6244 214.028C64.6244 213.57 64.2529 213.198 63.7946 213.198C63.3363 213.198 62.9648 213.57 62.9648 214.028C62.9648 214.486 63.3363 214.858 63.7946 214.858Z" fill="white"/>
<path d="M65.4898 219.194H57.1826V220.908H65.4898V219.194Z" fill="white"/>
<path d="M101.003 241.71H57.1826V242.818H101.003V241.71Z" fill="white"/>
<path d="M82.9286 243.834H57.1826V244.942H82.9286V243.834Z" fill="white"/>
<path d="M163.305 241.468L161.303 238.252L155.924 245.034L158.343 248.182L163.305 241.468Z" fill="#F59060"/>
<path d="M168.473 248.571L168.955 249.376L160.22 260.414C160.022 260.175 159.854 259.913 159.72 259.633C159.46 259.091 159.311 258.502 159.279 257.901C159.248 257.301 159.335 256.7 159.536 256.133C159.66 255.798 159.757 255.453 159.825 255.102C160.54 251.479 158.055 248.105 158.055 248.105L163.305 241.469L168.473 248.571Z" fill="#FCB913"/>
<path d="M168.473 248.571L168.955 249.375L160.221 260.414C160.023 260.175 159.854 259.913 159.72 259.633L168.473 248.571Z" fill="#090909"/>
<path d="M159.642 247.395C160.588 249.365 162.586 254.163 159.826 255.102C160.54 251.479 158.055 248.104 158.055 248.104C158.055 248.104 157.484 246.892 158.292 246.6C158.432 246.555 158.582 246.546 158.727 246.573C158.872 246.6 159.008 246.662 159.123 246.755C159.346 246.922 159.525 247.142 159.642 247.395Z" fill="white"/>
<path d="M161.769 253.342C161.778 253.329 161.785 253.315 161.788 253.299C161.792 253.284 161.792 253.268 161.789 253.252C161.78 253.197 161.738 253.158 161.697 253.166C161.081 253.281 159.954 254.004 159.906 254.035C159.887 254.051 159.873 254.073 159.868 254.098C159.863 254.122 159.867 254.148 159.878 254.17C159.901 254.221 159.949 254.242 159.987 254.218C159.998 254.21 161.139 253.478 161.73 253.366C161.746 253.363 161.759 253.355 161.769 253.342Z" fill="#090909"/>
<path d="M161.692 250.65C161.702 250.635 161.709 250.619 161.712 250.602C161.715 250.585 161.715 250.567 161.71 250.55C161.698 250.494 161.654 250.456 161.612 250.467C160.813 250.679 159.795 252.111 159.752 252.172C159.738 252.195 159.732 252.221 159.734 252.247C159.736 252.274 159.745 252.299 159.762 252.319C159.768 252.329 159.776 252.337 159.786 252.342C159.796 252.347 159.807 252.35 159.818 252.35C159.829 252.351 159.84 252.348 159.85 252.343C159.86 252.338 159.868 252.33 159.875 252.321C159.885 252.307 160.904 250.874 161.657 250.673C161.671 250.669 161.683 250.661 161.692 250.65Z" fill="#090909"/>
<path d="M159.305 250.411C159.309 250.406 159.313 250.4 159.316 250.395C159.322 250.382 159.938 249.12 160.65 248.451C160.668 248.431 160.678 248.405 160.68 248.378C160.682 248.351 160.676 248.324 160.662 248.301C160.633 248.25 160.582 248.235 160.547 248.267C159.811 248.958 159.2 250.211 159.174 250.264C159.163 250.289 159.16 250.317 159.166 250.344C159.171 250.371 159.184 250.396 159.204 250.415C159.21 250.422 159.218 250.428 159.227 250.432C159.236 250.435 159.246 250.437 159.255 250.437C159.265 250.436 159.274 250.434 159.283 250.43C159.292 250.425 159.299 250.419 159.305 250.411Z" fill="#090909"/>
<path d="M159.768 246.602C159.781 246.583 159.788 246.56 159.79 246.537C159.792 246.514 159.788 246.491 159.778 246.47C159.754 246.413 159.702 246.387 159.663 246.412C159.26 246.671 158.214 248.227 158.17 248.293C158.156 248.318 158.15 248.346 158.153 248.374C158.156 248.402 158.167 248.429 158.185 248.451C158.191 248.461 158.2 248.469 158.21 248.475C158.22 248.481 158.232 248.484 158.243 248.484C158.255 248.484 158.267 248.482 158.277 248.476C158.288 248.471 158.297 248.463 158.303 248.453C158.315 248.437 159.373 246.861 159.751 246.618C159.757 246.614 159.763 246.608 159.768 246.602Z" fill="#090909"/>
<path d="M156.753 249.239C156.524 249.145 156.352 248.901 156.243 248.514C156.138 248.14 156.153 247.86 156.297 247.688C156.744 247.142 158.237 247.943 158.404 248.035L158.532 248.106L158.444 248.221C158.441 248.225 158.435 248.234 158.424 248.247C158.276 248.434 157.394 249.503 156.753 249.239ZM156.406 248.467C156.493 248.776 156.616 248.959 156.783 249.028C157.225 249.211 157.902 248.551 158.223 248.169C157.724 247.918 156.715 247.513 156.427 247.865L156.425 247.868C156.332 247.985 156.326 248.181 156.406 248.467V248.467Z" fill="#090909"/>
<path d="M158.274 250.05C158.178 250.016 158.091 249.958 158.021 249.883C157.952 249.808 157.902 249.716 157.876 249.617C157.707 249.018 158.285 248.159 158.351 248.063L158.435 247.941L158.493 248.11C158.544 248.258 158.975 249.549 158.707 249.962C158.7 249.971 158.694 249.98 158.687 249.988C158.598 250.101 158.459 250.123 158.274 250.05ZM158.033 249.567C158.052 249.632 158.087 249.69 158.134 249.738C158.181 249.786 158.239 249.822 158.303 249.842C158.502 249.92 158.557 249.837 158.574 249.809C158.714 249.595 158.558 248.87 158.399 248.355C158.214 248.66 157.936 249.222 158.033 249.567Z" fill="#090909"/>
<path d="M160.48 250.544C160.497 250.52 160.505 250.49 160.501 250.461C160.493 250.388 160.303 248.648 159.405 248.525C158.641 248.421 158.492 248.105 158.491 248.102C158.466 248.048 158.415 248.021 158.376 248.043C158.356 248.059 158.341 248.081 158.335 248.107C158.329 248.132 158.332 248.159 158.343 248.182C158.36 248.227 158.535 248.626 159.409 248.744C160.162 248.845 160.34 250.451 160.341 250.467C160.348 250.526 160.388 250.572 160.432 250.57C160.441 250.57 160.45 250.567 160.459 250.563C160.467 250.558 160.474 250.552 160.48 250.544Z" fill="#090909"/>
<path d="M162.259 239.789L156.83 246.214L156.446 245.715L162.259 239.789Z" fill="#090909"/>
<path d="M112.67 240.386L110.668 237.17L105.289 243.952L107.708 247.1L112.67 240.386Z" fill="#F59060"/>
<path d="M117.839 247.489L118.321 248.293L109.587 259.332C109.389 259.093 109.22 258.831 109.086 258.551C108.826 258.009 108.677 257.42 108.645 256.819C108.614 256.219 108.701 255.618 108.903 255.051C109.026 254.716 109.123 254.371 109.192 254.02C109.906 250.397 107.421 247.023 107.421 247.023L112.671 240.387L117.839 247.489Z" fill="#FCB913"/>
<path d="M117.838 247.489L118.321 248.293L109.586 259.332C109.388 259.093 109.22 258.831 109.085 258.551L117.838 247.489Z" fill="#090909"/>
<path d="M109.007 246.313C109.954 248.283 111.951 253.081 109.191 254.019C109.906 250.397 107.421 247.022 107.421 247.022C107.421 247.022 106.849 245.81 107.657 245.518C107.798 245.473 107.947 245.464 108.092 245.491C108.237 245.518 108.373 245.58 108.488 245.673C108.711 245.84 108.89 246.06 109.007 246.313Z" fill="white"/>
<path d="M111.134 252.259C111.144 252.246 111.15 252.232 111.154 252.216C111.157 252.201 111.157 252.185 111.154 252.169C111.145 252.114 111.104 252.075 111.062 252.083C110.447 252.198 109.319 252.921 109.271 252.952C109.252 252.968 109.239 252.99 109.234 253.015C109.229 253.039 109.232 253.065 109.243 253.087C109.266 253.137 109.314 253.159 109.352 253.135C109.363 253.127 110.504 252.395 111.095 252.283C111.111 252.28 111.125 252.272 111.134 252.259Z" fill="#090909"/>
<path d="M111.057 249.567C111.067 249.552 111.074 249.536 111.077 249.519C111.08 249.502 111.08 249.484 111.076 249.467C111.063 249.41 111.019 249.373 110.978 249.384C110.178 249.596 109.16 251.028 109.117 251.089C109.103 251.112 109.097 251.138 109.099 251.164C109.101 251.191 109.111 251.216 109.127 251.236C109.133 251.246 109.142 251.254 109.151 251.259C109.161 251.264 109.172 251.267 109.183 251.267C109.194 251.268 109.205 251.265 109.215 251.26C109.225 251.255 109.234 251.247 109.24 251.238C109.25 251.224 110.269 249.792 111.022 249.59C111.036 249.586 111.048 249.578 111.057 249.567Z" fill="#090909"/>
<path d="M108.672 249.329C108.676 249.324 108.679 249.318 108.682 249.312C108.688 249.3 109.305 248.038 110.017 247.369C110.034 247.348 110.044 247.323 110.046 247.296C110.049 247.269 110.042 247.242 110.028 247.218C109.999 247.168 109.948 247.153 109.914 247.185C109.178 247.876 108.566 249.13 108.54 249.183C108.53 249.208 108.527 249.235 108.532 249.262C108.537 249.289 108.55 249.314 108.57 249.333C108.576 249.34 108.584 249.346 108.593 249.35C108.602 249.354 108.612 249.355 108.622 249.355C108.631 249.355 108.641 249.352 108.65 249.348C108.658 249.343 108.666 249.337 108.672 249.329Z" fill="#090909"/>
<path d="M109.133 245.519C109.146 245.5 109.154 245.477 109.155 245.454C109.157 245.431 109.153 245.408 109.143 245.387C109.119 245.33 109.067 245.304 109.028 245.329C108.625 245.588 107.579 247.144 107.535 247.21C107.521 247.235 107.516 247.263 107.518 247.291C107.521 247.319 107.532 247.346 107.55 247.368C107.556 247.378 107.565 247.386 107.575 247.392C107.585 247.398 107.597 247.401 107.609 247.401C107.62 247.401 107.632 247.399 107.643 247.393C107.653 247.388 107.662 247.38 107.669 247.37C107.679 247.354 108.739 245.778 109.116 245.535C109.123 245.531 109.128 245.525 109.133 245.519Z" fill="#090909"/>
<path d="M106.118 248.156C105.889 248.062 105.718 247.819 105.608 247.431C105.503 247.057 105.518 246.777 105.663 246.605C106.109 246.059 107.603 246.86 107.769 246.952L107.898 247.023L107.809 247.138C107.807 247.142 107.8 247.151 107.789 247.164C107.641 247.35 106.759 248.42 106.118 248.156ZM105.771 247.384C105.858 247.693 105.981 247.876 106.148 247.945C106.59 248.128 107.267 247.468 107.588 247.086C107.089 246.835 106.08 246.43 105.793 246.782L105.79 246.785C105.697 246.902 105.691 247.098 105.771 247.384Z" fill="#090909"/>
<path d="M107.64 248.968C107.543 248.934 107.456 248.876 107.387 248.801C107.317 248.725 107.267 248.634 107.241 248.535C107.072 247.936 107.65 247.077 107.717 246.981L107.801 246.859L107.859 247.028C107.909 247.176 108.34 248.467 108.072 248.88C108.066 248.889 108.06 248.898 108.053 248.906C107.963 249.019 107.824 249.04 107.64 248.968ZM107.398 248.485C107.417 248.549 107.452 248.608 107.499 248.656C107.546 248.704 107.605 248.74 107.669 248.76C107.868 248.839 107.922 248.755 107.94 248.727C108.079 248.513 107.924 247.787 107.764 247.273C107.579 247.578 107.302 248.14 107.398 248.485Z" fill="#090909"/>
<path d="M109.845 249.462C109.862 249.438 109.87 249.408 109.866 249.379C109.858 249.306 109.669 247.566 108.77 247.444C108.007 247.339 107.857 247.023 107.856 247.02C107.832 246.966 107.781 246.938 107.741 246.961C107.721 246.977 107.706 246.999 107.7 247.025C107.694 247.05 107.697 247.077 107.708 247.1C107.725 247.145 107.9 247.544 108.775 247.662C109.528 247.763 109.705 249.369 109.707 249.385C109.713 249.444 109.753 249.49 109.797 249.488C109.807 249.488 109.816 249.485 109.824 249.481C109.832 249.476 109.839 249.47 109.845 249.462Z" fill="#090909"/>
<path d="M111.949 239.227L106.34 245.319L105.816 244.638L111.949 239.227Z" fill="#090909"/>
<path d="M96.5092 189.846L82.0992 206.315C80.6399 207.983 79.833 210.122 79.8272 212.338C79.8214 214.554 80.6172 216.697 82.0678 218.372L105.245 245.142L112.773 238.499L95.7169 213.522L113.695 201.356L155.752 246.424L162.44 239.605L125.511 186.391L96.5092 189.846Z" fill="#6445F1"/>
<path d="M60.6716 152.095C60.6716 152.095 56.4383 148.104 51.6788 146.138C51.633 146.12 51.5824 146.116 51.5345 146.128C51.4865 146.14 51.4437 146.167 51.4121 146.205C51.3805 146.243 51.3619 146.29 51.3588 146.34C51.3558 146.389 51.3685 146.438 51.3952 146.48L53.3888 149.593L51.5191 154.374C51.4014 154.675 51.3851 155.007 51.4726 155.318C51.5602 155.629 51.7468 155.903 52.0042 156.098L55.4958 158.75L60.6716 152.095Z" fill="#F59060"/>
<path d="M112.246 139.236C112.015 140.877 111.946 142.537 112.037 144.192L110.287 144.562L110.223 149.853L110.219 150.095C110.257 151.118 109.894 152.115 109.209 152.876C108.524 153.636 107.57 154.101 106.549 154.171C106.41 154.179 106.272 154.181 106.133 154.175C105.737 154.161 105.347 154.067 104.987 153.9C104.627 153.733 104.304 153.495 104.037 153.202C103.77 152.909 103.564 152.565 103.431 152.191C103.298 151.818 103.241 151.421 103.263 151.025L103.447 147.668C100.87 146.869 99.8489 144.624 99.5833 142.123C99.5446 141.758 99.523 141.389 99.5157 141.014C99.4976 140.138 99.5412 139.261 99.6459 138.391C99.7337 137.613 99.8606 136.867 99.9951 136.188C100.541 133.483 102.751 131.379 105.498 131.1C111.12 130.526 111.796 138.243 111.855 139.134L111.861 139.219C111.989 139.213 112.118 139.219 112.246 139.236Z" fill="#F59060"/>
<path d="M104.905 142.708C105.172 141.886 105.138 141.236 104.803 140.776C104.328 140.123 103.432 140.115 103.395 140.115V140.265V140.414C103.402 140.414 104.179 140.423 104.563 140.953C104.837 141.331 104.856 141.891 104.621 142.615L104.905 142.708Z" fill="#090909"/>
<path d="M99.0541 136.997C98.9969 137.266 98.9674 137.54 98.9659 137.816C98.8589 138.524 99.011 140.118 102.764 139.581C107.076 138.963 106.085 143.871 103.813 143.89C103.739 143.89 103.665 143.907 103.599 143.941C103.532 143.976 103.475 144.025 103.432 144.086C103.389 144.147 103.362 144.218 103.352 144.292C103.342 144.366 103.35 144.441 103.376 144.511C103.615 145.165 103.891 146.139 103.869 147.11C103.834 148.66 105.092 149.924 106.639 149.821L110.552 149.561C111.108 149.525 111.637 149.309 112.061 148.948C112.485 148.586 112.78 148.097 112.904 147.554C113.745 143.823 114.913 135.568 109.806 132.276C107.202 130.732 104.081 130.723 101.944 132.235C101.945 132.235 99.7626 133.778 99.0541 136.997Z" fill="black"/>
<path d="M133.734 183.462C133.692 183.55 133.648 183.636 133.601 183.72C132.975 184.873 131.993 185.791 130.801 186.339C129.61 186.887 128.273 187.034 126.991 186.759C126.517 186.657 126.023 186.535 125.511 186.391C125.511 186.391 119.876 193.7 105.631 191.952C105.536 191.942 105.442 191.93 105.346 191.917C102.699 191.573 99.7596 190.917 96.5087 189.847C96.5087 189.847 96.4441 187.745 96.2808 185.005C96.2751 184.907 96.2695 184.811 96.2621 184.712C96.007 180.554 95.5283 175.081 94.7112 173.173C94.6352 172.995 94.5636 172.812 94.4948 172.627C94.4604 172.532 94.426 172.436 94.3944 172.339C93.3294 169.21 93.3293 165.361 93.3293 165.361C93.3293 165.361 87.6833 172.133 83.3401 176.451C82.6087 177.179 81.7002 177.704 80.7042 177.975C79.7081 178.245 78.6589 178.251 77.6597 177.993C77.5608 177.969 77.4634 177.941 77.3668 177.91C76.6282 177.68 75.9416 177.308 75.3457 176.815L66.4377 169.461L66.1883 169.256L57.3471 161.959L57.0562 161.718L54.6279 159.714L60.5723 151.974L73.3666 161.506L73.5817 161.665L77.5723 164.639C77.5723 164.639 77.9148 164.226 78.5268 163.513C78.7978 163.194 79.1246 162.814 79.4973 162.386C80.8489 160.828 82.82 158.605 85.1005 156.178C85.502 155.75 85.9285 155.346 86.3776 154.969C86.4507 154.905 86.5252 154.844 86.5997 154.784C88.6964 153.082 91.1922 151.944 93.8513 151.475C94.3945 151.378 94.9776 151.279 95.5928 151.18C95.6861 151.164 95.7806 151.15 95.8752 151.134C99.6221 150.541 104.534 149.967 109.518 149.972C109.824 149.972 110.129 149.975 110.436 149.979H110.438C115.296 150.055 120.159 150.71 124.014 152.459C124.014 152.459 125.343 153.022 127.192 156.217C127.239 156.299 127.288 156.382 127.335 156.468C129.037 159.488 131.151 164.714 133.073 173.687C133.093 173.78 133.113 173.875 133.133 173.97C133.513 175.761 133.886 177.701 134.246 179.801C134.465 181.045 134.286 182.326 133.734 183.462Z" fill="#FCB913"/>
<path d="M66.3679 163.701C67.5691 165.449 67.3685 167.496 66.4381 169.461L66.1887 169.256C67.0431 167.402 67.2394 165.475 66.1314 163.864C64.4127 161.364 60.7332 161.5 59.2296 161.673C58.6047 161.746 57.9696 161.85 57.3476 161.958L57.0566 161.718C57.7589 161.596 58.4828 161.471 59.1967 161.389C60.7505 161.209 64.5604 161.073 66.3679 163.701Z" fill="#F5F3E3"/>
<path d="M75.6642 166.432C73.5442 167.598 71.119 167.891 69.0105 167.239L68.7627 167.163L68.9605 166.994C70.7499 165.447 72.2429 163.587 73.3667 161.506L73.5817 161.665C72.493 163.689 71.0596 165.507 69.346 167.038C71.3213 167.571 73.5574 167.264 75.5254 166.182C76.7171 165.533 77.744 164.62 78.5269 163.512C78.7979 163.194 79.1246 162.814 79.4973 162.386C78.7461 164.043 77.3958 165.479 75.6642 166.432Z" fill="#F5F3E3"/>
<path d="M87.5762 156.46C87.1245 156.007 86.7227 155.507 86.3779 154.968C86.451 154.905 86.5255 154.843 86.6 154.783C86.9379 155.316 87.333 155.81 87.7783 156.257C89.1687 157.636 91.5524 158.517 93.4201 157.537C95.4972 156.446 95.9329 153.796 95.5931 151.18C95.6864 151.164 95.7809 151.15 95.8755 151.134C96.1723 153.357 96.0647 156.472 93.5535 157.79C91.4708 158.884 88.9953 157.868 87.5762 156.46Z" fill="#F5F3E3"/>
<path d="M94.4952 172.627C94.4609 172.532 94.4264 172.436 94.3949 172.339C96.1221 170.945 97.428 168.828 96.7987 166.736C96.3657 165.301 94.9841 164.1 93.2784 163.677C90.003 162.866 86.765 164.801 84.827 166.883C83.1938 168.638 81.9946 170.78 80.8336 172.855C80.4494 173.543 80.051 174.255 79.6424 174.943C79.0233 175.985 78.3625 177.001 77.66 177.992C77.5611 177.968 77.4637 177.94 77.3672 177.909C78.0853 176.9 78.7614 175.862 79.3955 174.796C79.8025 174.112 80.1996 173.401 80.5838 172.714C81.7519 170.626 82.9603 168.467 84.6161 166.687C86.6097 164.545 89.9497 162.557 93.3468 163.399C95.149 163.844 96.6122 165.123 97.0723 166.654C97.7519 168.907 96.3371 171.169 94.4952 172.627Z" fill="#F5F3E3"/>
<path d="M104.986 186.881C105.981 188.393 106.074 190.212 105.631 191.952C105.537 191.942 105.442 191.929 105.346 191.916C105.78 190.238 105.7 188.487 104.747 187.038C103.043 184.448 99.4506 184.076 96.2814 185.004C96.2756 184.907 96.2701 184.811 96.2627 184.712C99.5222 183.776 103.216 184.189 104.986 186.881Z" fill="#F5F3E3"/>
<path d="M100.607 160.276C99.7268 158.541 100.614 156.603 101.037 155.849C102.763 152.774 105.986 151.138 109.518 149.971C109.823 149.971 110.129 149.974 110.436 149.978C106.64 151.148 103.099 152.76 101.288 155.99C100.888 156.702 100.045 158.534 100.862 160.145C101.144 160.7 101.626 161.214 102.337 161.72C106.534 164.707 112.575 164.061 120.291 159.801C120.566 159.649 120.842 159.496 121.12 159.342C123.064 158.264 125.101 157.135 127.192 156.216C127.24 156.298 127.288 156.381 127.336 156.467C125.244 157.383 123.205 158.515 121.259 159.593C120.982 159.747 120.705 159.899 120.43 160.052C117.067 161.908 113.956 163.096 111.186 163.581C107.602 164.209 104.569 163.661 102.171 161.954C101.421 161.421 100.909 160.873 100.607 160.276Z" fill="#F5F3E3"/>
<path d="M133.734 183.462C133.693 183.549 133.648 183.635 133.601 183.72C132.499 183.377 131.373 183.116 130.233 182.94C127.869 182.575 125.428 182.464 123.067 182.358C119.826 182.212 116.476 182.06 113.279 181.25C108.922 180.145 104.718 176.871 105.113 172.753L105.121 172.676L105.189 172.64C110.299 169.961 116.318 171.198 122.139 172.395C125.811 173.15 129.561 173.92 133.074 173.686C133.094 173.779 133.114 173.874 133.134 173.969C132.677 174.002 132.217 174.016 131.752 174.016C128.603 174.017 125.312 173.339 122.08 172.675C116.335 171.494 110.395 170.273 105.392 172.858C105.073 176.779 109.139 179.904 113.349 180.972C116.518 181.775 119.854 181.925 123.081 182.071C125.449 182.179 127.898 182.289 130.278 182.656C131.449 182.837 132.604 183.106 133.734 183.462Z" fill="#F5F3E3"/>
<path d="M120.802 159.695L120.591 159.733L125.404 186.41L125.616 186.372L120.802 159.695Z" fill="black"/>
<path d="M77.4503 164.521L75.9297 166.87L76.1102 166.987L77.6308 164.637L77.4503 164.521Z" fill="black"/>
<path d="M109.993 197.452L109.84 197.603L113.618 201.432L113.771 201.281L109.993 197.452Z" fill="black"/>
<path d="M123.901 187.937L123.725 188.06L160.8 241.249L160.976 241.126L123.901 187.937Z" fill="black"/>
<path d="M110.361 240.611L92.9386 215.717C92.7346 215.425 92.5902 215.097 92.5136 214.749C92.437 214.402 92.4297 214.043 92.4922 213.693C92.5547 213.342 92.6857 213.008 92.8776 212.709C93.0696 212.409 93.3188 212.151 93.611 211.948L111.744 199.353L111.866 199.529L93.7337 212.124C93.4648 212.311 93.2354 212.549 93.0587 212.825C92.8819 213.1 92.7613 213.408 92.7038 213.73C92.6462 214.053 92.6528 214.383 92.7233 214.703C92.7937 215.022 92.9266 215.325 93.1143 215.593L110.537 240.488L110.361 240.611Z" fill="black"/>
<path d="M60.572 151.974L54.9541 158.338L55.416 158.689L60.572 151.974Z" fill="#090909"/>
<path d="M113.495 138.914C113.495 138.914 113.451 148.632 116.588 149.827C118.302 150.481 119.37 152.587 119.986 154.365C120.08 154.635 120.103 154.926 120.051 155.208C119.999 155.49 119.875 155.753 119.69 155.973C119.505 156.192 119.266 156.359 118.997 156.458C118.728 156.557 118.438 156.584 118.155 156.536C115.909 156.161 112.699 155.921 110.783 157.088C107.604 159.023 100.831 157.088 100.831 157.088L100.38 157.122C100.083 157.144 99.7852 157.085 99.519 156.952C99.2528 156.818 99.0278 156.615 98.8679 156.364C98.708 156.113 98.6192 155.823 98.611 155.525C98.6028 155.227 98.6755 154.933 98.8213 154.674C99.9537 152.663 101.559 149.407 103.375 144.511L113.495 138.914Z" fill="black"/>
<path d="M208.246 252.162L204.836 249.854L212.426 244.294L215.744 247.052L208.246 252.162Z" fill="#F59060"/>
<path d="M215.746 258.071L216.599 258.628L228.951 249.601C228.699 249.376 228.422 249.182 228.124 249.024C227.545 248.72 226.912 248.533 226.261 248.474C225.61 248.415 224.954 248.485 224.33 248.68C223.961 248.8 223.582 248.891 223.198 248.951C219.234 249.576 215.672 246.736 215.672 246.736L208.246 252.162L215.746 258.071Z" fill="#6595F7"/>
<path d="M215.746 258.071L216.599 258.628L228.951 249.601C228.7 249.376 228.422 249.182 228.124 249.024L215.746 258.071Z" fill="#090909"/>
<path d="M214.836 248.429C216.937 249.54 222.064 251.909 223.198 248.951C219.234 249.576 215.672 246.736 215.672 246.736C215.672 246.736 214.379 246.065 214.028 246.931C213.974 247.082 213.958 247.243 213.981 247.402C214.004 247.56 214.067 247.711 214.162 247.839C214.334 248.089 214.566 248.292 214.836 248.429Z" fill="white"/>
<path d="M221.205 250.988C221.191 250.998 221.175 251.004 221.158 251.007C221.141 251.01 221.124 251.01 221.107 251.006C221.048 250.994 221.007 250.947 221.017 250.902C221.168 250.239 222 249.044 222.035 248.994C222.054 248.974 222.078 248.96 222.105 248.956C222.132 248.951 222.16 248.956 222.184 248.969C222.238 248.996 222.259 249.049 222.231 249.089C222.222 249.101 221.379 250.31 221.233 250.947C221.229 250.964 221.219 250.979 221.205 250.988Z" fill="#090909"/>
<path d="M218.284 250.792C218.268 250.803 218.25 250.809 218.231 250.812C218.212 250.815 218.193 250.814 218.175 250.808C218.114 250.793 218.075 250.744 218.089 250.699C218.353 249.84 219.95 248.793 220.018 248.749C220.043 248.735 220.072 248.729 220.101 248.732C220.129 248.735 220.156 248.747 220.178 248.766C220.188 248.773 220.196 248.782 220.202 248.793C220.207 248.804 220.21 248.816 220.21 248.828C220.21 248.84 220.206 248.852 220.2 248.863C220.194 248.874 220.185 248.882 220.175 248.889C220.159 248.899 218.561 249.947 218.311 250.756C218.306 250.771 218.297 250.783 218.284 250.792Z" fill="#090909"/>
<path d="M218.126 248.191C218.12 248.195 218.114 248.199 218.108 248.202C218.094 248.208 216.698 248.825 215.941 249.571C215.918 249.589 215.89 249.599 215.86 249.6C215.831 249.601 215.802 249.593 215.777 249.577C215.723 249.544 215.71 249.487 215.746 249.451C216.527 248.68 217.914 248.068 217.972 248.043C218 248.032 218.03 248.03 218.059 248.037C218.088 248.044 218.115 248.059 218.135 248.081C218.142 248.089 218.148 248.098 218.152 248.107C218.155 248.117 218.157 248.128 218.156 248.138C218.155 248.149 218.152 248.159 218.147 248.168C218.142 248.177 218.135 248.185 218.126 248.191Z" fill="#090909"/>
<path d="M213.968 248.535C213.946 248.548 213.922 248.556 213.896 248.556C213.871 248.557 213.846 248.552 213.823 248.54C213.763 248.511 213.737 248.455 213.766 248.413C214.064 247.986 215.798 246.915 215.871 246.87C215.899 246.856 215.93 246.851 215.96 246.855C215.99 246.859 216.019 246.872 216.042 246.892C216.052 246.9 216.061 246.909 216.067 246.921C216.073 246.932 216.076 246.945 216.075 246.957C216.075 246.97 216.072 246.983 216.065 246.994C216.059 247.005 216.05 247.015 216.039 247.021C216.021 247.033 214.266 248.117 213.986 248.517C213.981 248.524 213.975 248.53 213.968 248.535Z" fill="#090909"/>
<path d="M215.811 247.142C215.796 247.154 215.786 247.16 215.783 247.163L215.653 247.254L215.582 247.111C215.489 246.927 214.681 245.272 215.292 244.81C215.486 244.66 215.79 244.655 216.192 244.785C216.609 244.921 216.866 245.116 216.958 245.369C217.218 246.076 216.019 246.99 215.811 247.142ZM215.483 244.955L215.479 244.958C215.085 245.256 215.483 246.369 215.735 246.921C216.163 246.589 216.908 245.88 216.728 245.392C216.66 245.209 216.466 245.067 216.134 244.96C215.828 244.862 215.614 244.86 215.483 244.955Z" fill="#090909"/>
<path d="M217.692 247.502C217.682 247.509 217.672 247.515 217.662 247.522C217.203 247.796 215.819 247.274 215.66 247.213L215.479 247.143L215.615 247.057C215.722 246.989 216.679 246.397 217.323 246.605C217.429 246.637 217.526 246.695 217.605 246.774C217.684 246.853 217.743 246.949 217.776 247.056C217.847 247.26 217.819 247.409 217.692 247.502ZM215.93 247.121C216.482 247.315 217.263 247.514 217.502 247.372C217.533 247.353 217.626 247.298 217.549 247.079C217.53 247.008 217.493 246.944 217.443 246.891C217.393 246.838 217.331 246.798 217.262 246.775C216.891 246.654 216.268 246.932 215.93 247.121Z" fill="#090909"/>
<path d="M218.221 249.471C218.194 249.489 218.161 249.496 218.129 249.49C218.051 249.479 216.169 249.201 216.073 248.22C215.992 247.387 215.655 247.211 215.651 247.209C215.593 247.181 215.566 247.124 215.592 247.082C215.61 247.061 215.635 247.046 215.663 247.04C215.691 247.035 215.719 247.039 215.744 247.052C215.793 247.073 216.219 247.279 216.31 248.234C216.389 249.056 218.126 249.315 218.143 249.318C218.207 249.327 218.255 249.373 218.251 249.421C218.25 249.431 218.247 249.44 218.242 249.449C218.237 249.458 218.23 249.465 218.221 249.471Z" fill="#090909"/>
<path d="M207.496 251.654L213.137 244.885L212.427 244.294L207.496 251.654Z" fill="#090909"/>
<path d="M177.734 239.328L178.553 235.525L186.105 240.213L184.86 244.094L177.734 239.328Z" fill="#F59060"/>
<path d="M175.204 247.986L175.018 248.93L187.288 256.566C187.397 256.267 187.469 255.955 187.502 255.638C187.564 255.024 187.505 254.403 187.327 253.812C187.148 253.22 186.855 252.67 186.464 252.192C186.228 251.91 186.015 251.611 185.827 251.296C183.88 248.043 185.11 243.919 185.11 243.919L177.734 239.328L175.204 247.986Z" fill="#6595F7"/>
<path d="M175.204 247.986L175.018 248.931L187.288 256.566C187.397 256.267 187.469 255.955 187.502 255.639L175.204 247.986Z" fill="#090909"/>
<path d="M183.331 243.785C183.1 246.017 182.835 251.346 185.827 251.296C183.88 248.043 185.11 243.919 185.11 243.919C185.11 243.919 185.242 242.55 184.359 242.548C184.208 242.553 184.06 242.596 183.93 242.673C183.799 242.749 183.689 242.857 183.61 242.986C183.452 243.225 183.357 243.5 183.331 243.785Z" fill="white"/>
<path d="M183.339 250.27C183.325 250.26 183.314 250.249 183.305 250.235C183.297 250.221 183.291 250.206 183.288 250.19C183.281 250.167 183.283 250.142 183.294 250.12C183.305 250.098 183.325 250.082 183.348 250.075C183.982 249.972 185.322 250.28 185.379 250.293C185.404 250.302 185.424 250.319 185.438 250.341C185.451 250.363 185.456 250.389 185.453 250.414C185.449 250.47 185.41 250.508 185.365 250.498C185.351 250.495 183.995 250.182 183.385 250.28C183.369 250.282 183.352 250.278 183.339 250.27Z" fill="#090909"/>
<path d="M182.48 247.641C182.465 247.63 182.453 247.617 182.443 247.601C182.434 247.586 182.429 247.568 182.427 247.551C182.419 247.491 182.449 247.44 182.493 247.436C183.339 247.364 184.82 248.395 184.882 248.439C184.903 248.456 184.919 248.479 184.926 248.505C184.934 248.532 184.933 248.559 184.924 248.585C184.921 248.596 184.916 248.607 184.908 248.616C184.901 248.624 184.891 248.631 184.88 248.635C184.87 248.639 184.858 248.64 184.847 248.639C184.835 248.637 184.824 248.633 184.815 248.626C184.8 248.615 183.318 247.585 182.521 247.652C182.506 247.653 182.492 247.649 182.48 247.641Z" fill="#090909"/>
<path d="M184.702 246.583C184.696 246.579 184.691 246.575 184.686 246.571C184.676 246.56 183.642 245.555 182.722 245.156C182.698 245.142 182.679 245.12 182.668 245.095C182.656 245.07 182.653 245.041 182.659 245.014C182.669 244.955 182.713 244.923 182.758 244.942C183.709 245.354 184.735 246.354 184.778 246.396C184.797 246.416 184.81 246.442 184.814 246.47C184.818 246.498 184.814 246.526 184.802 246.552C184.798 246.561 184.792 246.569 184.785 246.576C184.778 246.583 184.769 246.588 184.759 246.591C184.75 246.594 184.74 246.595 184.73 246.593C184.72 246.592 184.71 246.588 184.702 246.583Z" fill="#090909"/>
<path d="M182.934 243.062C182.915 243.047 182.9 243.028 182.89 243.007C182.88 242.985 182.876 242.961 182.878 242.937C182.882 242.874 182.923 242.831 182.97 242.841C183.449 242.952 184.999 244.093 185.065 244.142C185.087 244.161 185.102 244.186 185.11 244.214C185.117 244.242 185.115 244.272 185.105 244.299C185.103 244.311 185.097 244.322 185.09 244.331C185.082 244.341 185.072 244.348 185.06 244.352C185.049 244.356 185.037 244.358 185.025 244.356C185.013 244.354 185.001 244.35 184.992 244.343C184.976 244.331 183.406 243.176 182.956 243.072C182.948 243.07 182.941 243.066 182.934 243.062Z" fill="#090909"/>
<path d="M184.804 244.185C184.789 244.176 184.78 244.17 184.776 244.167L184.65 244.086L184.75 243.973C184.879 243.827 186.044 242.535 186.665 242.907C186.864 243.024 186.976 243.288 187.004 243.687C187.033 244.099 186.952 244.394 186.763 244.564C186.235 245.041 185.011 244.314 184.804 244.185ZM186.604 243.125L186.6 243.123C186.2 242.883 185.366 243.624 184.97 244.04C185.413 244.298 186.297 244.7 186.661 244.37C186.798 244.246 186.853 244.026 186.83 243.698C186.808 243.394 186.735 243.206 186.604 243.125Z" fill="#090909"/>
<path d="M185.153 245.96C185.144 245.954 185.135 245.948 185.125 245.941C184.723 245.635 184.691 244.238 184.689 244.078L184.687 243.895L184.81 243.983C184.907 244.052 185.764 244.682 185.809 245.319C185.818 245.424 185.801 245.53 185.76 245.627C185.719 245.724 185.655 245.81 185.574 245.876C185.42 246.01 185.279 246.038 185.153 245.96ZM184.865 244.281C184.89 244.833 184.991 245.588 185.2 245.747C185.227 245.768 185.309 245.83 185.474 245.685C185.529 245.643 185.573 245.589 185.601 245.526C185.63 245.463 185.643 245.394 185.639 245.326C185.613 244.959 185.15 244.512 184.865 244.282L184.865 244.281Z" fill="#090909"/>
<path d="M183.615 247.119C183.589 247.101 183.572 247.075 183.565 247.045C183.547 246.972 183.127 245.225 183.952 244.795C184.654 244.429 184.689 244.072 184.689 244.069C184.694 244.008 184.734 243.963 184.779 243.972C184.805 243.98 184.826 243.997 184.841 244.019C184.856 244.041 184.862 244.068 184.86 244.095C184.859 244.144 184.829 244.59 184.024 245.008C183.332 245.367 183.717 246.98 183.721 246.996C183.73 247.021 183.73 247.047 183.72 247.072C183.711 247.096 183.692 247.115 183.669 247.127C183.66 247.13 183.65 247.13 183.641 247.129C183.632 247.128 183.622 247.124 183.615 247.119Z" fill="#090909"/>
<path d="M177.977 237.713L185.454 242.242L185.722 241.407L177.977 237.713Z" fill="#090909"/>
<path d="M136.263 214.978L143.073 211.672L137.664 208.167L136.263 214.978Z" fill="#090909"/>
<path d="M189.945 224.793L194.211 208.298C194.434 207.434 194.478 206.533 194.339 205.652C194.2 204.771 193.882 203.927 193.405 203.174C192.927 202.42 192.3 201.772 191.562 201.271C190.824 200.77 189.99 200.425 189.114 200.259L164.305 195.548C164.305 195.548 140.067 191.342 138.865 209.77L207.371 251.835L212.779 244.023L189.945 224.793ZM180.932 218.153L170.22 210.262L181.932 211.974L180.932 218.153Z" fill="#015566"/>
<path d="M188.543 176.419C186.35 180.036 183.8 183.425 180.931 186.534C179.65 187.921 178.376 189.177 177.132 190.313C175.921 191.422 174.346 192.051 172.703 192.081C171.06 192.111 169.463 191.54 168.212 190.475L160.299 183.73L163.064 191.888H163.066L164.306 195.547C164.306 195.547 161.195 195.201 156.758 196.418C154.056 197.164 151.478 198.3 149.105 199.791C146.047 201.698 142.856 204.445 139.869 208.388C139.533 208.834 139.198 209.294 138.866 209.77L138.841 209.704L131.855 191.743L131.8 191.754C131.254 191.86 126.734 192.728 122.08 193.236C116.908 193.8 112.706 189.137 113.822 184.056C114.477 181.066 115.273 177.687 116.144 174.524C116.93 171.666 118.433 169.055 120.511 166.941C122.589 164.826 125.173 163.278 128.018 162.442C130.991 161.563 134.015 160.865 137.073 160.351C139.517 159.939 141.984 159.676 144.46 159.565H144.462C147.082 159.44 149.707 159.535 152.311 159.85C156.827 160.413 160.942 162.728 163.769 166.295C166.487 169.729 169.977 174.194 171.516 176.419L179.529 167.967L188.543 176.419Z" fill="#F5F3E3"/>
<path d="M145.857 150.17C145.87 150.217 145.88 150.265 145.891 150.313C145.948 150.57 145.998 150.827 146.036 151.082C146.044 151.125 146.051 151.169 146.057 151.213C146.077 151.35 146.094 151.482 146.106 151.619C146.139 151.924 146.161 152.231 146.164 152.53C146.19 154.428 145.583 156.172 143.79 157.276L144.757 160.348C144.852 160.649 144.897 160.963 144.89 161.279C144.885 161.457 144.817 161.627 144.699 161.76C143.39 163.248 140.44 163.369 137.198 162.287L136.705 156.02L134.746 156.1C134.361 156.122 133.977 156.039 133.635 155.859C133.293 155.679 133.007 155.409 132.808 155.079C132.782 155.037 132.759 154.994 132.738 154.95L132.501 154.466C132.358 154.174 132.283 153.853 132.282 153.528C132.282 153.203 132.355 152.882 132.497 152.589C132.639 152.297 132.846 152.04 133.102 151.84C133.358 151.639 133.657 151.5 133.975 151.432C133.975 151.432 133.968 151.404 133.96 151.355C133.803 150.512 132.596 143.192 137.95 142.39C140.565 141.994 143.119 143.423 144.266 145.805C144.865 147.055 145.498 148.595 145.857 150.17Z" fill="#F59060"/>
<path d="M144.195 153.441C144.235 153.409 144.27 153.37 144.296 153.326C144.7 152.659 143.384 150.593 143.115 150.185C143.096 150.157 143.066 150.137 143.032 150.13C142.998 150.124 142.963 150.131 142.934 150.15C142.905 150.169 142.884 150.198 142.877 150.232C142.87 150.266 142.876 150.301 142.894 150.331C143.479 151.22 144.316 152.783 144.07 153.189C144.054 153.215 144.006 153.295 143.791 153.274C143.773 153.272 143.755 153.273 143.739 153.278C143.722 153.283 143.706 153.291 143.692 153.302C143.679 153.313 143.667 153.327 143.659 153.342C143.651 153.358 143.645 153.375 143.644 153.392C143.642 153.409 143.644 153.427 143.649 153.444C143.654 153.461 143.662 153.476 143.674 153.49C143.685 153.503 143.699 153.514 143.714 153.522C143.73 153.531 143.747 153.535 143.764 153.537C143.915 153.563 144.069 153.528 144.195 153.441Z" fill="#090909"/>
<path d="M141.135 153.077C141.853 152.99 142.396 152.595 142.347 152.196C142.299 151.796 141.677 151.542 140.959 151.629C140.241 151.717 139.698 152.111 139.747 152.511C139.795 152.91 140.417 153.164 141.135 153.077Z" fill="#FC6D6D"/>
<path d="M146.035 151.082C146.044 151.125 146.051 151.169 146.057 151.213C146.077 151.35 146.094 151.482 146.106 151.618C146.139 151.924 146.161 152.231 146.164 152.53C146.139 152.535 146.116 152.537 146.09 152.541C145.369 152.628 144.748 152.375 144.7 151.975C144.653 151.574 145.194 151.18 145.912 151.093C145.953 151.087 145.993 151.085 146.035 151.082Z" fill="#FC6D6D"/>
<path d="M143.791 157.277C143.791 157.277 142.436 158.041 140.484 157.113C140.484 157.113 141.78 158.668 144.034 158.048L143.791 157.277Z" fill="#090909"/>
<path d="M139.871 149.51C140.033 149.389 140.207 149.286 140.391 149.203C140.572 149.119 140.762 149.058 140.958 149.022C141.146 148.991 141.338 148.994 141.524 149.032C141.704 149.074 141.874 149.152 142.024 149.26L142.041 149.271C142.088 149.302 142.146 149.313 142.202 149.302C142.258 149.29 142.306 149.257 142.338 149.209C142.369 149.162 142.38 149.104 142.368 149.048C142.357 148.992 142.323 148.944 142.276 148.912C142.273 148.91 142.269 148.908 142.266 148.906C142.061 148.777 141.832 148.691 141.592 148.652C141.358 148.62 141.119 148.632 140.889 148.686C140.669 148.742 140.456 148.826 140.257 148.935C140.059 149.041 139.873 149.169 139.704 149.316C139.678 149.337 139.662 149.368 139.659 149.402C139.656 149.435 139.666 149.468 139.687 149.494C139.708 149.52 139.739 149.537 139.772 149.541C139.805 149.545 139.839 149.535 139.865 149.515L139.871 149.51Z" fill="#671E24"/>
<path d="M145.684 148.31C145.492 148.214 145.29 148.14 145.082 148.09C144.871 148.038 144.654 148.014 144.436 148.019C144.209 148.029 143.986 148.083 143.78 148.179C143.571 148.282 143.387 148.426 143.237 148.604C143.199 148.646 143.178 148.702 143.181 148.758C143.183 148.815 143.208 148.869 143.25 148.907C143.292 148.946 143.348 148.966 143.405 148.963C143.461 148.961 143.515 148.936 143.553 148.894C143.556 148.891 143.558 148.888 143.561 148.885L143.575 148.867C143.678 148.727 143.807 148.609 143.957 148.521C144.113 148.435 144.284 148.381 144.461 148.361C144.648 148.344 144.836 148.351 145.021 148.384C145.209 148.415 145.393 148.468 145.57 148.54L145.576 148.543C145.607 148.556 145.641 148.556 145.672 148.544C145.703 148.532 145.728 148.508 145.742 148.478C145.756 148.448 145.758 148.414 145.747 148.382C145.736 148.351 145.713 148.325 145.684 148.31V148.31Z" fill="#671E24"/>
<path d="M141.436 150.859C141.628 150.803 141.715 150.52 141.629 150.227C141.544 149.934 141.318 149.742 141.126 149.799C140.933 149.855 140.847 150.138 140.932 150.431C141.018 150.723 141.243 150.915 141.436 150.859Z" fill="#090909"/>
<path d="M144.848 150.142C144.994 150.099 145.047 149.84 144.966 149.563C144.885 149.286 144.701 149.097 144.555 149.139C144.409 149.182 144.356 149.441 144.436 149.718C144.517 149.995 144.701 150.184 144.848 150.142Z" fill="#090909"/>
<path d="M133.985 154.869C133.594 154.252 133.479 153.729 133.643 153.313C133.874 152.73 134.592 152.537 134.599 152.535L134.528 152.258C134.493 152.267 133.664 152.486 133.378 153.206C133.177 153.712 133.3 154.323 133.743 155.023L133.985 154.869Z" fill="#090909"/>
<path d="M133.974 151.432C134.416 151.449 134.851 151.548 135.256 151.723C135.923 152.016 136.084 152.345 136.337 152.344C136.742 152.344 137.288 151.505 137.946 148.014C141.237 148.18 143.493 147.354 144.709 146.774C145.908 146.202 146.33 145.776 146.451 145.646C148.233 143.735 148.39 139.837 146.236 137.795C145.901 137.478 144.871 136.502 143.436 136.521C140.731 136.557 140.078 141.24 137.155 141.444C136.217 141.509 135.715 141.086 134.859 141.485C133.812 141.973 133.332 143.181 133.091 144.139C132.53 144.585 132.08 145.154 131.776 145.802C130.452 148.674 132.818 151.818 132.943 151.978L133.974 151.432Z" fill="#671E24"/>
<path d="M135.127 156.085L136.873 158.145L136.706 156.02L135.127 156.085Z" fill="#671E24"/>
<path d="M144.025 154.69C143.632 154.767 142.913 154.805 141.855 154.468C141.832 154.46 141.807 154.46 141.784 154.467C141.76 154.474 141.739 154.487 141.724 154.506C141.708 154.525 141.698 154.548 141.696 154.572C141.694 154.597 141.699 154.621 141.71 154.643C142.021 155.21 142.876 156.361 144.142 154.891C144.159 154.871 144.169 154.847 144.171 154.822C144.174 154.796 144.168 154.771 144.155 154.749C144.143 154.727 144.123 154.709 144.1 154.698C144.076 154.688 144.05 154.685 144.025 154.69Z" fill="#E52039"/>
<path d="M149.482 202.358C147.823 202.809 146.231 203.479 144.749 204.35C144.64 204.413 144.531 204.478 144.422 204.545C144.307 204.615 144.19 204.687 144.075 204.762C143.298 205.256 142.558 205.804 141.859 206.402C141.675 206.56 141.493 206.722 141.311 206.893C140.802 207.363 140.32 207.861 139.869 208.387C139.515 208.798 139.171 209.236 138.841 209.704C138.688 209.918 138.54 210.138 138.395 210.364C138.3 210.507 138.21 210.654 138.119 210.803C137.332 212.113 136.708 213.515 136.262 214.977L134.991 208.275L134.924 207.92L133.594 200.91L133.527 200.555L132.198 193.546L132.129 193.189L131.855 191.742L131.8 191.753C131.448 191.822 129.454 192.205 126.838 192.604C126.72 192.622 126.6 192.641 126.48 192.658C125.118 192.862 123.607 193.068 122.08 193.235C121.135 193.34 120.179 193.268 119.26 193.021C119.126 192.985 118.995 192.946 118.865 192.903C117.17 192.341 115.726 191.201 114.784 189.683C114.716 189.576 114.65 189.467 114.59 189.356C113.691 187.743 113.418 185.856 113.822 184.055C113.959 183.428 114.102 182.785 114.252 182.131C114.281 182.001 114.311 181.871 114.34 181.741C114.68 180.264 115.046 178.734 115.433 177.215C115.498 176.955 115.565 176.696 115.632 176.438C115.801 175.794 115.97 175.154 116.145 174.523C116.192 174.352 116.241 174.182 116.294 174.014C116.335 173.88 116.377 173.747 116.422 173.616C117.303 170.981 118.802 168.596 120.794 166.659C120.895 166.56 120.998 166.464 121.101 166.367C121.675 165.834 122.286 165.341 122.928 164.892C123.2 164.7 123.481 164.515 123.766 164.339C124.958 163.6 126.237 163.01 127.572 162.58C127.687 162.541 127.803 162.505 127.919 162.471C127.952 162.46 127.985 162.451 128.018 162.441C130.054 161.843 132.36 161.251 134.843 160.759C134.962 160.734 135.08 160.71 135.198 160.687C135.814 160.569 136.439 160.456 137.073 160.351C137.224 160.673 137.375 161 137.524 161.329C137.576 161.441 137.627 161.553 137.679 161.665C138.637 163.767 139.592 165.994 140.524 168.345C140.569 168.457 140.614 168.571 140.657 168.684C141.508 170.836 142.333 173.089 143.133 175.442C143.172 175.558 143.211 175.673 143.25 175.788C143.529 176.62 143.804 177.464 144.074 178.32C144.534 179.775 144.962 181.211 145.359 182.626C145.393 182.743 145.426 182.86 145.458 182.975C146.12 185.343 146.703 187.649 147.209 189.893C147.237 190.009 147.263 190.128 147.29 190.245C147.832 192.661 148.297 194.992 148.684 197.238C148.704 197.358 148.725 197.478 148.745 197.597C148.873 198.338 148.993 199.069 149.105 199.79C149.24 200.663 149.366 201.519 149.482 202.358Z" fill="#FF4655"/>
<path d="M188.543 176.418C187.714 177.786 186.747 179.265 185.622 180.813C185.528 180.943 185.433 181.072 185.337 181.203C185.234 181.341 185.131 181.48 185.027 181.62C184.916 181.767 184.804 181.915 184.69 182.064C183.578 183.516 182.33 185.018 180.931 186.534C180.46 187.043 179.992 187.535 179.526 188.008C179.424 188.111 179.323 188.212 179.222 188.313C178.519 189.017 177.822 189.684 177.132 190.312C176.481 190.91 175.718 191.373 174.888 191.676C174.057 191.978 173.175 192.114 172.292 192.076C170.791 192.014 169.354 191.45 168.212 190.474C166.783 189.256 165.354 188.038 163.926 186.821C163.743 186.666 163.561 186.511 163.379 186.355C162.352 185.479 161.325 184.604 160.299 183.73L161.339 186.802L161.456 187.146L163.064 191.887H163.066L164.962 193.253L165.401 193.571L165.415 193.581L165.809 193.864L169.515 196.536C168.677 196.377 167.428 196.385 166.038 196.482C165.918 196.489 165.797 196.499 165.674 196.508C163.162 196.709 160.288 197.175 158.585 197.476C158.459 197.497 158.34 197.519 158.23 197.539C157.524 197.666 157.094 197.751 157.094 197.751C156.991 197.326 156.879 196.88 156.757 196.418C156.711 196.238 156.664 196.058 156.616 195.874C156.583 195.759 156.553 195.643 156.521 195.527C155.971 193.486 155.276 191.15 154.5 188.668C154.464 188.553 154.428 188.438 154.391 188.321C153.701 186.121 152.95 183.814 152.179 181.505C152.141 181.39 152.102 181.276 152.065 181.161C151.295 178.859 150.508 176.56 149.748 174.366C149.709 174.251 149.669 174.137 149.63 174.022C148.779 171.575 147.964 169.267 147.242 167.245C147.201 167.13 147.161 167.016 147.12 166.902C145.963 163.662 145.061 161.197 144.671 160.136C144.621 159.997 144.579 159.884 144.547 159.795C144.49 159.644 144.461 159.564 144.461 159.564H144.462C144.9 159.546 145.341 159.532 145.784 159.524C146.349 159.513 146.917 159.512 147.488 159.521C148.303 159.533 149.119 159.567 149.935 159.622C150.062 159.63 150.186 159.639 150.313 159.648C150.979 159.7 151.646 159.767 152.311 159.849C154.309 160.099 156.247 160.694 158.04 161.608C158.182 161.678 158.32 161.752 158.459 161.828C159.482 162.384 160.446 163.042 161.336 163.792C161.451 163.888 161.567 163.986 161.679 164.087C162.439 164.76 163.138 165.499 163.768 166.295C164.747 167.53 165.825 168.9 166.877 170.25L167.123 170.566C167.38 170.897 167.635 171.227 167.885 171.551C168.061 171.779 168.234 172.003 168.404 172.224C169.678 173.886 170.806 175.39 171.516 176.418L175.664 172.043L175.964 171.727L179.529 167.966L183.193 171.402L183.659 171.839L185.744 173.793L186.065 174.094L188.543 176.418Z" fill="#FF4655"/>
<path d="M145.783 159.524L144.546 159.795C144.579 159.884 144.621 159.998 144.671 160.136L147.488 159.521C146.918 159.512 146.35 159.513 145.783 159.524ZM148.745 197.597C148.725 197.479 148.705 197.359 148.684 197.239L143.445 198.386L141.921 191.42L147.29 190.245C147.263 190.129 147.237 190.01 147.209 189.893L141.843 191.066L140.32 184.099L145.458 182.976C145.427 182.861 145.394 182.744 145.36 182.627L140.242 183.747L138.718 176.78L143.25 175.789C143.211 175.673 143.172 175.558 143.133 175.443L138.642 176.426L137.117 169.459L140.658 168.685C140.614 168.571 140.569 168.457 140.524 168.345L137.04 169.107L135.517 162.14L137.679 161.666C137.628 161.554 137.576 161.442 137.525 161.33L135.439 161.786L135.199 160.688C135.081 160.711 134.962 160.735 134.844 160.76L135.085 161.864L128.119 163.388L127.92 162.472C127.803 162.505 127.688 162.542 127.572 162.581L127.766 163.466L123.766 164.34C123.481 164.516 123.201 164.701 122.928 164.893L127.844 163.818L129.367 170.785L122.4 172.309L121.101 166.368C120.998 166.465 120.895 166.561 120.794 166.659L122.046 172.387L116.422 173.617C116.377 173.748 116.335 173.881 116.294 174.015L122.124 172.739L123.648 179.706L116.681 181.23L115.632 176.439C115.565 176.697 115.499 176.956 115.433 177.216L116.327 181.307L114.341 181.742C114.311 181.872 114.282 182.002 114.252 182.131L116.405 181.661L117.929 188.626L114.59 189.358C114.651 189.468 114.716 189.577 114.785 189.685L118.006 188.981L118.865 192.904C118.996 192.947 119.126 192.986 119.26 193.022L118.359 188.903L125.325 187.379L126.479 192.659C126.6 192.642 126.719 192.623 126.838 192.604L125.679 187.303L132.646 185.779L134.169 192.745L132.129 193.19L132.197 193.547L134.246 193.098L135.77 200.065L133.527 200.556L133.595 200.911L135.849 200.417L137.373 207.384L134.925 207.92L134.992 208.276L137.45 207.738L138.12 210.804C138.21 210.655 138.301 210.508 138.396 210.365L137.804 207.661L141.311 206.894C141.493 206.723 141.675 206.561 141.859 206.403L137.725 207.308L136.202 200.341L143.169 198.818L144.421 204.546C144.53 204.479 144.639 204.414 144.748 204.351L143.52 198.74L148.745 197.597ZM138.288 176.504L131.321 178.028L129.797 171.061L136.764 169.537L138.288 176.504ZM128.196 163.741L135.163 162.218L136.687 169.183L129.72 170.707L128.196 163.741ZM122.478 172.662L129.443 171.139L130.967 178.104L124.002 179.629L122.478 172.662ZM118.282 188.55L116.758 181.583L123.725 180.059L125.249 187.027L118.282 188.55ZM125.601 186.949L124.078 179.982L131.045 178.458L132.568 185.425L125.601 186.949ZM131.398 178.382L138.364 176.858L139.888 183.823L132.922 185.347L131.398 178.382ZM132.998 185.701L139.966 184.177L141.49 191.144L134.524 192.668L132.998 185.701ZM136.124 199.987L134.6 193.02L141.567 191.496L143.091 198.464L136.124 199.987ZM186.064 174.094L185.743 173.793L184.162 174.139L183.658 171.84L183.193 171.402L183.808 174.218L176.841 175.741L175.964 171.728L175.663 172.044L176.489 175.819L169.522 177.343L168.403 172.225C168.233 172.004 168.06 171.779 167.884 171.552L169.168 177.419L162.203 178.942L160.678 171.977L167.123 170.567L166.877 170.251L160.602 171.623L159.078 164.656L161.68 164.087C161.567 163.986 161.452 163.888 161.337 163.793L159 164.304L158.46 161.828C158.321 161.752 158.182 161.679 158.04 161.609L158.647 164.38L151.681 165.904L150.313 159.649C150.187 159.639 150.062 159.63 149.936 159.622L151.327 165.982L147.121 166.903C147.161 167.016 147.202 167.13 147.242 167.245L151.405 166.335L152.929 173.301L149.631 174.022C149.67 174.137 149.71 174.251 149.749 174.366L153.005 173.654L154.529 180.621L152.066 181.16C152.103 181.276 152.142 181.389 152.179 181.505L154.607 180.973L156.13 187.941L154.391 188.321C154.429 188.438 154.464 188.554 154.5 188.669L156.208 188.295L157.732 195.262L156.521 195.527C156.554 195.644 156.584 195.759 156.616 195.874L157.808 195.614L158.23 197.54C158.341 197.52 158.459 197.498 158.586 197.476L158.162 195.538L165.129 194.015L165.674 196.509C165.797 196.499 165.919 196.49 166.039 196.482L165.483 193.937L165.809 193.865L165.415 193.582L165.404 193.583L165.401 193.572L164.962 193.254L165.05 193.661L158.085 195.184L156.559 188.217L161.456 187.147L161.339 186.803L156.483 187.866L154.959 180.898L161.925 179.375L163.45 186.34L163.379 186.356C163.561 186.512 163.743 186.667 163.926 186.822L163.881 186.618L170.848 185.092L172.371 192.06L172.292 192.077C173.457 192.126 174.614 191.874 175.652 191.343L172.724 191.983L171.2 185.016L178.168 183.492L179.222 188.314C179.324 188.213 179.425 188.111 179.526 188.009L178.522 183.414L184.691 182.065C184.805 181.916 184.917 181.768 185.028 181.621L178.444 183.061L176.92 176.095L183.887 174.572L185.338 181.204C185.434 181.073 185.529 180.944 185.623 180.814L184.239 174.494L186.064 174.094ZM151.756 166.257L158.723 164.734L160.247 171.701L153.279 173.225L151.756 166.257ZM154.882 180.544L153.359 173.577L160.326 172.053L161.849 179.02L154.882 180.544ZM163.803 186.263L162.279 179.296L169.246 177.772L170.77 184.74L163.803 186.263ZM178.089 183.138L171.124 184.662L169.6 177.695L176.566 176.171L178.089 183.138Z" fill="#FFAEB8"/>
<path d="M131.447 170.482L129.59 178.386L129.817 178.439L131.675 170.535L131.447 170.482Z" fill="black"/>
<path d="M131.871 191.858L131.838 191.627L134.553 191.238L136.03 178.244L124.849 178.75L124.839 178.516L136.293 177.998L134.765 191.444L131.871 191.858Z" fill="black"/>
<path d="M178.527 167.004L189.544 177.019L187.641 180.024L176.424 169.608L178.527 167.004Z" fill="#ED2941"/>
<path d="M133.168 177.119H136.473L134.821 192.543H131.873L133.168 177.119Z" fill="#ED2941"/>
<path d="M154.5 165.866L154.278 165.939L160.187 183.767L160.409 183.694L154.5 165.866Z" fill="black"/>
<path d="M171.424 176.347L168.62 179.952L168.805 180.096L171.608 176.49L171.424 176.347Z" fill="black"/>
<path d="M158.815 201.712L158.677 201.9L189.875 224.886L190.013 224.698L158.815 201.712Z" fill="black"/>
<path d="M141.779 206.43L141.653 206.627L142.698 207.293L142.824 207.096L141.779 206.43Z" fill="black"/>
<path d="M205.809 247.542L203.705 246.2L203.831 246.003L205.935 247.345L205.809 247.542ZM201.602 244.859L199.498 243.517L199.624 243.32L201.727 244.661L201.602 244.859ZM197.394 242.175L195.291 240.834L195.416 240.637L197.52 241.978L197.394 242.175ZM193.187 239.492L191.083 238.15L191.209 237.953L193.313 239.295L193.187 239.492ZM188.979 236.809L186.876 235.467L187.001 235.27L189.105 236.612L188.979 236.809ZM184.772 234.125L182.668 232.784L182.794 232.586L184.898 233.928L184.772 234.125ZM180.565 231.442L178.461 230.1L178.587 229.903L180.69 231.245L180.565 231.442ZM176.357 228.759L174.253 227.417L174.379 227.22L176.483 228.562L176.357 228.759ZM172.15 226.075L170.046 224.734L170.172 224.537L172.275 225.878L172.15 226.075ZM167.942 223.392L165.839 222.05L165.964 221.853L168.068 223.195L167.942 223.392ZM163.735 220.709L161.631 219.367L161.757 219.17L163.86 220.512L163.735 220.709ZM159.527 218.025L157.424 216.684L157.549 216.487L159.653 217.828L159.527 218.025ZM155.32 215.342L153.216 214L153.342 213.803L155.445 215.145L155.32 215.342ZM151.112 212.659L149.008 211.317L149.134 211.12L151.238 212.461L151.112 212.659ZM146.905 209.975L144.801 208.634L144.926 208.437L147.031 209.778L146.905 209.975Z" fill="black"/>
<path d="M208.039 248.686L207.913 248.883L208.958 249.549L209.084 249.352L208.039 248.686Z" fill="black"/>
<path d="M184.51 219.634L184.281 219.586L184.798 217.161L185.026 217.21L184.51 219.634ZM185.543 214.786L185.315 214.737L185.832 212.312L186.06 212.361L185.543 214.786ZM185.856 209.945C185.713 209.573 185.496 209.234 185.217 208.949C184.939 208.664 184.606 208.438 184.237 208.286L184.326 208.07C184.724 208.234 185.084 208.478 185.384 208.786C185.685 209.094 185.92 209.46 186.074 209.862L185.856 209.945ZM181.828 207.925L179.362 207.681L179.384 207.448L181.851 207.693L181.828 207.925ZM176.895 207.436L174.428 207.192L174.451 206.96L176.917 207.204L176.895 207.436ZM171.962 206.948L169.495 206.703L169.517 206.471L171.984 206.715L171.962 206.948ZM167.028 206.459L164.562 206.215L164.584 205.982L167.051 206.227L167.028 206.459Z" fill="black"/>
<path d="M180.347 168.658L191.497 158.09L197.356 163.374L187.981 175.598L180.347 168.658Z" fill="#F59060"/>
<path d="M136.367 178.116L150.911 177.747L151.961 186.893L135.07 190.214L136.367 178.116Z" fill="#F59060"/>
<path d="M190.89 158.976L193.034 155.804C193.158 155.627 193.308 155.47 193.479 155.337C194.551 154.508 198.624 151.015 201.761 148.31C202.221 147.913 202.863 148.514 202.498 149C201.801 149.93 199.98 151.51 200.316 152.369C200.441 152.689 200.865 152.585 201.266 153.188C201.425 153.466 201.608 153.729 201.815 153.975C201.888 154.068 201.97 154.154 202.059 154.231C202.322 154.436 202.568 154.436 202.941 154.824C203.381 155.283 203.196 155.448 203.719 156.02C204.017 156.347 204.162 156.386 204.399 156.744C204.555 156.979 204.737 157.259 204.707 157.628C204.694 157.788 204.647 157.944 204.571 158.086C204.494 158.227 204.388 158.351 204.261 158.45L200.128 161.647C199.672 162 198.406 161.881 198.236 162.433L195.888 164.842L190.89 158.976Z" fill="#F59060"/>
<path d="M195.627 158.749C195.877 158.691 196.111 158.582 196.316 158.428C196.484 158.297 196.623 158.134 196.725 157.947C197.162 157.158 196.915 156.104 196.834 155.815L197.301 155.126L197.671 154.581L198.131 153.906C198.205 153.797 198.241 153.666 198.233 153.535C198.226 153.403 198.174 153.278 198.088 153.178C198.002 153.078 197.885 153.01 197.755 152.984C197.626 152.957 197.492 152.975 197.373 153.032L196.72 153.351L196.144 153.63L195.124 154.126L195.261 154.409L196.34 153.883L196.916 153.603L197.513 153.313C197.569 153.286 197.633 153.278 197.694 153.291C197.756 153.304 197.811 153.336 197.852 153.384C197.893 153.431 197.917 153.491 197.921 153.554C197.924 153.616 197.907 153.678 197.872 153.73L197.47 154.32L197.1 154.865L196.49 155.762L196.513 155.837C196.517 155.848 196.887 157.013 196.451 157.797C196.356 157.963 196.227 158.106 196.072 158.219C195.917 158.331 195.74 158.409 195.552 158.447L195.627 158.749Z" fill="#090909"/>
<path d="M200.194 152.236L196.672 155.502L196.885 155.732L200.407 152.466L200.194 152.236Z" fill="#090909"/>
<path d="M199.404 159.477L199.387 159.164C198.902 159.19 198.531 159.074 198.287 158.82C197.95 158.468 197.933 157.936 197.938 157.763L201.921 154.09L201.709 153.859L197.635 157.616L197.629 157.676C197.626 157.709 197.554 158.506 198.06 159.035C198.37 159.359 198.822 159.508 199.404 159.477Z" fill="#090909"/>
<path d="M200.852 161.221L200.904 160.912C199.72 160.711 199.573 159.682 199.555 159.394L203.793 156.115L203.602 155.867L199.24 159.242L199.239 159.317C199.239 159.334 199.241 160.947 200.852 161.221Z" fill="#090909"/>
<path d="M197.714 157.831L197.855 157.551C196.926 157.084 196.819 155.789 196.818 155.776L196.506 155.8C196.51 155.86 196.629 157.284 197.714 157.831Z" fill="#090909"/>
<path d="M150.495 177.847C150.495 177.847 156.613 176.249 162.177 176.856C162.23 176.863 162.28 176.886 162.32 176.922C162.359 176.959 162.386 177.007 162.396 177.059C162.407 177.112 162.4 177.167 162.377 177.215C162.354 177.264 162.316 177.304 162.269 177.33L158.744 179.26L158.034 184.794C157.99 185.142 157.833 185.467 157.587 185.718C157.341 185.969 157.02 186.133 156.673 186.185L151.96 186.893L150.495 177.847Z" fill="#F59060"/>
<path d="M180.347 168.657L188.543 174.865L187.981 175.598L180.347 168.657Z" fill="#090909"/>
<path d="M136.367 178.115L136.473 189.937L135.07 190.213L136.367 178.115Z" fill="#090909"/>
<path d="M178.599 234.167L177.977 237.713L186.166 241.619L186.81 239.209L178.599 234.167Z" fill="#015566"/>
<path d="M178.66 234.068L178.538 234.268L186.749 239.31L186.871 239.11L178.66 234.068Z" fill="black"/>
<path d="M136.873 158.49L135.127 160.702L138.866 165.651L140.418 163.348L136.873 158.49Z" fill="#ED2941"/>
<path d="M143.909 157.653L146.165 159.517L146.377 163.832L144.172 162.597L143.909 157.653Z" fill="#ED2941"/>
</svg>
