<svg width="304" height="326" viewBox="0 0 304 326" fill="none" xmlns="http://www.w3.org/2000/svg">
<path d="M0.742188 7.89533C0.742188 3.53486 4.27705 0 8.63752 0H296.105C300.465 0 304 3.53486 304 7.89533V325.904H0.742188V7.89533Z" fill="#8B6FFF"/>
<path d="M52.7711 84.4569C42.7871 84.4569 36.7391 77.6889 36.7391 67.3689C36.7391 57.0489 43.0271 50.2809 53.2031 50.2809C61.1711 50.2809 66.7871 55.2729 67.6511 62.5689H60.3551C59.4911 58.8249 56.8031 56.3769 52.8191 56.3769C47.3471 56.3769 44.0831 60.8889 44.0831 67.3689C44.0831 73.8009 47.2991 78.3609 52.7231 78.3609C56.8031 78.3609 59.4911 75.9129 60.3551 72.1689H67.6031C66.7871 79.4649 60.9791 84.4569 52.7711 84.4569ZM83.2125 84.4569C75.3405 84.4569 70.2045 79.4169 70.2045 71.8329C70.2045 64.2489 75.3405 59.2089 83.2125 59.2089C91.0845 59.2089 96.2205 64.2489 96.2205 71.8329C96.2205 79.4649 91.0845 84.4569 83.2125 84.4569ZM83.2125 78.9369C87.0045 78.9369 89.3565 76.0089 89.3565 71.8329C89.3565 67.6569 87.0045 64.7289 83.2125 64.7289C79.4205 64.7289 77.1165 67.6569 77.1165 71.8329C77.1165 76.0089 79.4205 78.9369 83.2125 78.9369ZM129.466 59.2089C134.554 59.2089 138.586 62.0889 138.586 70.0089V84.1689H131.818V70.3929C131.818 66.6969 130.474 64.7769 127.546 64.7769C124.618 64.7769 122.65 66.9369 122.65 70.6809V84.1689H115.882V70.3929C115.882 66.6969 114.538 64.7769 111.562 64.7769C108.634 64.7769 106.714 67.0329 106.714 70.7289V84.1689H99.9458V59.4969H105.85L106.474 62.5689C107.962 60.6489 110.122 59.2569 113.722 59.2089C116.746 59.1609 119.578 60.2649 121.114 63.3849C122.842 60.7449 125.722 59.2089 129.466 59.2089ZM172.356 59.2089C177.444 59.2089 181.476 62.0889 181.476 70.0089V84.1689H174.708V70.3929C174.708 66.6969 173.364 64.7769 170.436 64.7769C167.508 64.7769 165.54 66.9369 165.54 70.6809V84.1689H158.772V70.3929C158.772 66.6969 157.428 64.7769 154.452 64.7769C151.524 64.7769 149.604 67.0329 149.604 70.7289V84.1689H142.836V59.4969H148.74L149.364 62.5689C150.852 60.6489 153.012 59.2569 156.612 59.2089C159.636 59.1609 162.468 60.2649 164.004 63.3849C165.732 60.7449 168.612 59.2089 172.356 59.2089ZM202.191 71.8329V59.4969H208.959V84.1689H202.959L202.335 81.1929C200.751 83.1129 198.591 84.4569 195.087 84.4569C189.999 84.4569 185.295 81.9129 185.295 73.1769V59.4969H192.063V72.2649C192.063 76.6809 193.503 78.8409 196.863 78.8409C200.223 78.8409 202.191 76.3929 202.191 71.8329ZM227.825 59.2089C233.153 59.2089 237.713 62.0409 237.713 70.4889V84.1689H230.945V71.1609C230.945 66.9849 229.361 64.7769 225.953 64.7769C222.449 64.7769 220.433 67.2729 220.433 71.5449V84.1689H213.665V59.4969H219.569L220.193 62.5689C221.777 60.6489 224.033 59.2089 227.825 59.2089ZM245.385 56.8569C243.177 56.8569 241.449 55.2249 241.449 53.0649C241.449 50.8569 243.177 49.2249 245.385 49.2249C247.593 49.2249 249.321 50.8569 249.321 53.0649C249.321 55.2249 247.593 56.8569 245.385 56.8569ZM241.977 84.1689V59.4969H248.793V84.1689H241.977ZM255.237 77.1129V65.2089H251.157V59.4969H255.237V52.5849H262.005V59.4969H267.669V65.2089H262.005V76.0089C262.005 77.7369 262.677 78.4569 264.453 78.4569H267.813V84.1689H262.293C257.589 84.1689 255.237 81.8169 255.237 77.1129ZM278.05 84.3129L268.546 59.4969H275.746L281.746 77.0649L287.602 59.4969H294.85L283.906 87.6729C282.37 91.7529 281.122 93.7689 277.282 93.7689H270.706V88.0569H274.45C276.178 88.0569 276.754 87.6249 277.426 85.9449L278.05 84.3129ZM37.9797 109.24V100.32H35.2622V98.1045H37.9797V93.8806H40.4018V98.1045H44.3009V100.32H40.4018V109.211C40.4018 110.481 40.8449 110.954 42.1446 110.954H44.5372V113.169H41.9083C39.0135 113.169 37.9797 111.899 37.9797 109.24ZM53.2024 113.346C48.6831 113.346 45.7293 110.245 45.7293 105.637C45.7293 101.058 48.624 97.9273 52.8775 97.9273C57.131 97.9273 59.9076 100.615 60.0257 105.076C60.0257 105.4 59.9962 105.755 59.9667 106.109H48.2696V106.316C48.3582 109.181 50.16 111.19 53.0252 111.19C55.152 111.19 56.8061 110.067 57.3082 108.118H59.7599C59.1691 111.131 56.6879 113.346 53.2024 113.346ZM48.4173 104.101H57.4264C57.1901 101.501 55.4178 100.054 52.9071 100.054C50.6917 100.054 48.6536 101.649 48.4173 104.101ZM79.5968 97.9273C82.7279 97.9273 85.2977 99.7291 85.2977 104.485V113.169H82.8756V104.632C82.8756 101.679 81.5759 100.143 79.3014 100.143C76.7907 100.143 75.2547 102.033 75.2547 105.105V113.169H72.8326V104.632C72.8326 101.679 71.5034 100.143 69.1994 100.143C66.7182 100.143 65.2118 102.21 65.2118 105.223V113.169H62.7896V98.1045H64.8868L65.2118 100.172C66.0093 99.0793 67.2794 97.9273 69.6129 97.9273C71.7101 97.9273 73.512 98.8725 74.3686 100.792C75.2843 99.1679 76.9089 97.9273 79.5968 97.9273ZM95.996 97.9273C100.161 97.9273 103.233 100.733 103.233 105.637C103.233 110.245 100.161 113.346 95.996 113.346C93.4557 113.346 91.7425 112.312 90.8268 110.865V119.077H88.4047V98.1045H90.5019L90.8268 100.527C91.8311 99.1383 93.4557 97.9273 95.996 97.9273ZM95.7597 111.19C98.7431 111.19 100.752 108.915 100.752 105.637C100.752 102.358 98.7431 100.084 95.7597 100.084C92.8059 100.084 90.7973 102.358 90.7973 105.578C90.7973 108.886 92.8059 111.19 95.7597 111.19ZM106.001 113.169V92.4923H108.423V113.169H106.001ZM125.063 110.954H125.831V113.169H124.501C122.493 113.169 121.813 112.312 121.784 110.835C120.839 112.194 119.332 113.346 116.733 113.346C113.425 113.346 111.18 111.692 111.18 108.945C111.18 105.932 113.277 104.248 117.235 104.248H121.666V103.215C121.666 101.265 120.277 100.084 117.914 100.084C115.788 100.084 114.37 101.088 114.074 102.624H111.652C112.007 99.67 114.399 97.9273 118.033 97.9273C121.873 97.9273 124.088 99.8473 124.088 103.362V109.949C124.088 110.747 124.383 110.954 125.063 110.954ZM121.666 107.025V106.287H116.999C114.842 106.287 113.631 107.084 113.631 108.797C113.631 110.274 114.902 111.279 116.91 111.279C119.923 111.279 121.666 109.536 121.666 107.025ZM128.815 109.24V100.32H126.098V98.1045H128.815V93.8806H131.237V98.1045H135.136V100.32H131.237V109.211C131.237 110.481 131.68 110.954 132.98 110.954H135.373V113.169H132.744C129.849 113.169 128.815 111.899 128.815 109.24ZM144.038 113.346C139.519 113.346 136.565 110.245 136.565 105.637C136.565 101.058 139.459 97.9273 143.713 97.9273C147.966 97.9273 150.743 100.615 150.861 105.076C150.861 105.4 150.832 105.755 150.802 106.109H139.105V106.316C139.194 109.181 140.995 111.19 143.861 111.19C145.987 111.19 147.642 110.067 148.144 108.118H150.595C150.005 111.131 147.523 113.346 144.038 113.346ZM139.253 104.101H148.262C148.026 101.501 146.253 100.054 143.743 100.054C141.527 100.054 139.489 101.649 139.253 104.101ZM152.947 108.207H155.428C155.517 109.979 157.082 111.279 159.593 111.279C161.72 111.279 163.226 110.363 163.226 108.975C163.226 107.084 161.572 106.936 159.327 106.671C155.96 106.257 153.272 105.578 153.272 102.447C153.272 99.6996 155.783 97.8977 159.18 97.9273C162.606 97.9568 165.087 99.5519 165.324 102.683H162.842C162.665 101.147 161.247 99.995 159.18 99.995C157.082 99.995 155.665 100.881 155.665 102.269C155.665 103.924 157.26 104.13 159.445 104.396C162.872 104.81 165.619 105.459 165.619 108.797C165.619 111.603 162.931 113.346 159.593 113.346C155.694 113.346 153.006 111.515 152.947 108.207Z" fill="white"/>
<path d="M138.489 227.494C134.513 220.38 137.09 211.92 138.924 204.141C140.715 196.551 141.718 188.795 141.916 180.998C142.008 177.304 141.855 173.401 139.68 170.257C137.552 167.18 133.826 165.317 130.217 163.669C116.072 157.211 99.2973 151.967 84.6161 157.39C74.4044 161.163 66.8515 170.13 65.6349 179.927C64.4182 189.724 69.5874 199.948 78.6261 205.622C83.6292 208.762 89.6768 210.592 94.0681 214.392C101.29 220.64 102.002 231.923 95.6123 238.855C90.8839 243.985 83.492 246.365 77.0802 249.743C67.2637 254.914 59.3138 262.856 54.6629 272.139C51.9751 277.503 50.5086 284.124 54.1908 288.997C60.2387 296.999 74.4144 294.064 83.1798 288.404C91.9452 282.744 100.497 274.847 111.308 275.282C117.924 275.547 123.757 278.987 129.497 281.934C140.489 287.555 152.174 291.697 164.25 294.253C173.533 296.227 183.301 297.278 192.592 295.333C201.883 293.388 210.659 288.033 214.253 280.149C219.054 269.621 213.232 256.84 202.898 250.188C185.681 239.106 149.576 247.33 138.489 227.494Z" fill="#F5F3E3" fill-opacity="0.4"/>
<path d="M173.66 206.339C174.42 215.533 178.161 224.891 185.915 231.001C195.917 238.882 210.372 239.98 223.726 240.227C235.079 240.437 243.388 239.981 251.126 236.683C258.582 233.504 260.499 230.287 261.045 229.265C264.235 223.287 261.713 215.176 256.307 211.391C254.274 209.968 250.159 209.404 242.015 208.336C233.073 207.162 229.389 207.276 223.188 205.232C216.525 203.037 215.272 201.091 214.887 200.391C213.296 197.495 215.04 194.942 216.573 189.964C217.869 185.752 221.005 175.566 216.604 167.776C215.73 166.228 212.78 161.629 207.151 159.832C195.833 156.22 183.535 167.082 182.675 167.861C168.83 180.408 173.154 200.212 173.66 206.339Z" fill="#F5F3E3" fill-opacity="0.4"/>
<path d="M107.236 217.574H48.5927C47.9703 217.574 47.3736 217.326 46.9335 216.886C46.4934 216.446 46.2459 215.849 46.2451 215.227V172.704C46.2459 172.082 46.4934 171.485 46.9336 171.045C47.3737 170.605 47.9704 170.357 48.5927 170.356H107.236C107.858 170.357 108.455 170.605 108.895 171.045C109.335 171.485 109.583 172.082 109.583 172.704V215.227C109.583 215.849 109.335 216.446 108.895 216.886C108.455 217.326 107.858 217.574 107.236 217.574ZM48.5927 171.235C48.2032 171.235 47.8297 171.39 47.5542 171.666C47.2788 171.941 47.1238 172.315 47.1234 172.704V215.227C47.1238 215.616 47.2788 215.99 47.5542 216.265C47.8297 216.541 48.2032 216.696 48.5927 216.696H107.236C107.625 216.696 107.999 216.541 108.274 216.265C108.55 215.99 108.705 215.616 108.705 215.227V172.704C108.705 172.314 108.55 171.941 108.274 171.665C107.999 171.39 107.625 171.235 107.236 171.235L48.5927 171.235Z" fill="#6595F7"/>
<path d="M113.466 177.026V219.549C113.466 220.055 113.265 220.541 112.907 220.898C112.549 221.256 112.064 221.457 111.558 221.458H52.9142C52.4081 221.457 51.9228 221.256 51.565 220.898C51.2071 220.541 51.006 220.055 51.0059 219.549V177.026C51.006 176.52 51.2071 176.035 51.565 175.677C51.9228 175.319 52.4081 175.118 52.9142 175.118H111.558C112.064 175.118 112.549 175.319 112.907 175.677C113.265 176.035 113.466 176.52 113.466 177.026Z" fill="#6445F1"/>
<path d="M91.9684 186.863H72.937C69.7325 186.863 67.1348 189.461 67.1348 192.666V204.966C67.1348 208.171 69.7325 210.769 72.937 210.769H91.9684C95.1729 210.769 97.7707 208.171 97.7707 204.966V192.666C97.7707 189.461 95.1729 186.863 91.9684 186.863Z" fill="white"/>
<path d="M113.466 177.026V182.343H51.0068V177.026C51.007 176.52 51.208 176.035 51.5658 175.677C51.9235 175.32 52.4087 175.118 52.9147 175.118H111.558C112.064 175.118 112.55 175.319 112.907 175.677C113.265 176.035 113.466 176.52 113.466 177.026Z" fill="#2C34F1"/>
<path d="M54.7418 179.738C55.3365 179.738 55.8185 179.256 55.8185 178.662C55.8185 178.067 55.3365 177.585 54.7418 177.585C54.1471 177.585 53.665 178.067 53.665 178.662C53.665 179.256 54.1471 179.738 54.7418 179.738Z" fill="white"/>
<path d="M58.4928 179.738C59.0874 179.738 59.5695 179.256 59.5695 178.662C59.5695 178.067 59.0874 177.585 58.4928 177.585C57.8981 177.585 57.416 178.067 57.416 178.662C57.416 179.256 57.8981 179.738 58.4928 179.738Z" fill="white"/>
<path d="M62.2447 179.738C62.8394 179.738 63.3215 179.256 63.3215 178.662C63.3215 178.067 62.8394 177.585 62.2447 177.585C61.65 177.585 61.168 178.067 61.168 178.662C61.168 179.256 61.65 179.738 62.2447 179.738Z" fill="white"/>
<path d="M64.4438 185.364H53.665V187.587H64.4438V185.364Z" fill="white"/>
<path d="M110.523 214.58H53.665V216.018H110.523V214.58Z" fill="white"/>
<path d="M87.0711 217.335H53.665V218.773H87.0711V217.335Z" fill="white"/>
<path d="M153.74 208.862C153.952 209.099 154.1 209.387 154.169 209.697C154.238 210.007 154.226 210.33 154.135 210.634L152.523 215.667L157.538 218.246L160.695 214.008C160.889 213.757 161.145 213.56 161.438 213.435C161.73 213.311 162.05 213.264 162.366 213.299L162.387 213.301C162.702 213.32 163.007 213.42 163.273 213.59C163.539 213.76 163.758 213.996 163.907 214.274L166.327 218.972L171.697 217.25L170.933 212.021C170.893 211.708 170.933 211.39 171.051 211.097C171.168 210.803 171.359 210.545 171.604 210.346L171.62 210.332C171.857 210.12 172.144 209.972 172.454 209.903C172.765 209.834 173.087 209.846 173.392 209.937L178.424 211.548L181.004 206.533L176.766 203.376C176.514 203.182 176.317 202.926 176.193 202.633C176.069 202.341 176.022 202.021 176.057 201.705C176.057 201.698 176.058 201.69 176.059 201.684C176.078 201.369 176.177 201.064 176.347 200.798C176.518 200.532 176.753 200.313 177.031 200.164L181.729 197.744L180.008 192.374L174.778 193.139C174.465 193.178 174.146 193.138 173.853 193.02C173.56 192.903 173.302 192.712 173.102 192.467C173.098 192.462 173.093 192.456 173.088 192.451C172.876 192.214 172.729 191.927 172.66 191.617C172.59 191.307 172.602 190.984 172.694 190.679L174.305 185.647L169.29 183.067L166.134 187.305C165.939 187.557 165.683 187.754 165.391 187.878C165.098 188.002 164.779 188.049 164.463 188.014L164.442 188.012C164.126 187.993 163.821 187.894 163.555 187.723C163.289 187.553 163.071 187.318 162.921 187.04L160.502 182.342L155.131 184.063L155.896 189.292C155.936 189.606 155.895 189.924 155.778 190.217C155.66 190.51 155.47 190.769 155.225 190.968C155.219 190.972 155.214 190.977 155.208 190.981C154.972 191.194 154.684 191.341 154.374 191.41C154.064 191.48 153.741 191.468 153.437 191.376L148.405 189.766L145.825 194.781L150.063 197.937C150.314 198.132 150.512 198.388 150.636 198.68C150.76 198.973 150.807 199.292 150.772 199.608C150.772 199.615 150.771 199.623 150.77 199.629C150.751 199.945 150.651 200.25 150.481 200.516C150.311 200.782 150.076 201 149.798 201.15L145.1 203.569L146.822 208.94L152.051 208.175C152.364 208.135 152.682 208.176 152.976 208.293C153.269 208.411 153.527 208.601 153.726 208.846C153.731 208.852 153.735 208.857 153.74 208.862ZM159.386 201.949C159.131 201.152 159.117 200.297 159.348 199.493C159.578 198.689 160.041 197.971 160.679 197.43C161.318 196.889 162.102 196.55 162.933 196.455C163.764 196.359 164.605 196.513 165.349 196.895C166.093 197.278 166.707 197.873 167.113 198.604C167.519 199.336 167.699 200.171 167.63 201.005C167.561 201.838 167.246 202.633 166.726 203.288C166.206 203.943 165.503 204.429 164.706 204.685C164.177 204.854 163.62 204.918 163.066 204.872C162.513 204.827 161.974 204.672 161.48 204.418C160.986 204.164 160.547 203.815 160.187 203.392C159.828 202.968 159.556 202.478 159.386 201.949Z" fill="#2C34F1"/>
<path d="M146.074 223.463C146.204 223.609 146.295 223.785 146.338 223.976C146.38 224.167 146.373 224.366 146.317 224.553L145.325 227.65L148.412 229.238L150.354 226.63C150.474 226.476 150.631 226.354 150.811 226.278C150.991 226.201 151.188 226.173 151.383 226.194L151.396 226.195C151.59 226.207 151.777 226.268 151.941 226.373C152.105 226.478 152.239 226.623 152.331 226.794L153.82 229.685L157.125 228.625L156.655 225.407C156.63 225.214 156.655 225.019 156.727 224.838C156.8 224.658 156.917 224.499 157.068 224.376L157.078 224.368C157.223 224.237 157.4 224.146 157.591 224.104C157.782 224.061 157.98 224.068 158.168 224.125L161.265 225.116L162.853 222.029L160.245 220.087C160.09 219.967 159.969 219.81 159.892 219.63C159.816 219.45 159.787 219.253 159.808 219.059C159.808 219.054 159.808 219.05 159.81 219.046C159.821 218.852 159.883 218.664 159.987 218.5C160.092 218.336 160.237 218.202 160.408 218.11L163.299 216.621L162.239 213.316L159.022 213.787C158.829 213.811 158.633 213.786 158.452 213.714C158.272 213.642 158.113 213.525 157.99 213.374L157.982 213.364C157.851 213.218 157.76 213.041 157.718 212.85C157.675 212.659 157.683 212.461 157.739 212.273L158.731 209.176L155.644 207.588L153.7 210.197C153.581 210.352 153.424 210.473 153.243 210.549C153.063 210.626 152.867 210.655 152.672 210.633L152.659 210.632C152.465 210.62 152.278 210.559 152.114 210.454C151.951 210.349 151.816 210.205 151.724 210.034L150.236 207.143L146.931 208.202L147.401 211.42C147.426 211.613 147.401 211.809 147.328 211.989C147.256 212.17 147.139 212.329 146.988 212.451L146.978 212.46C146.832 212.59 146.656 212.681 146.465 212.724C146.274 212.766 146.075 212.759 145.888 212.703L142.79 211.711L141.202 214.798L143.81 216.74C143.965 216.86 144.086 217.017 144.163 217.197C144.239 217.377 144.268 217.574 144.247 217.768C144.247 217.773 144.247 217.777 144.245 217.781C144.233 217.975 144.172 218.163 144.068 218.327C143.963 218.491 143.818 218.625 143.647 218.717L140.756 220.206L141.816 223.511L145.033 223.04C145.226 223.016 145.422 223.041 145.602 223.113C145.783 223.185 145.942 223.303 146.065 223.453C146.068 223.456 146.071 223.46 146.074 223.463ZM149.548 219.208C149.391 218.718 149.383 218.192 149.524 217.697C149.666 217.202 149.951 216.76 150.344 216.427C150.737 216.094 151.22 215.886 151.731 215.827C152.243 215.768 152.76 215.863 153.218 216.098C153.676 216.334 154.053 216.7 154.303 217.15C154.553 217.6 154.664 218.114 154.621 218.627C154.579 219.14 154.385 219.629 154.065 220.033C153.745 220.436 153.312 220.735 152.822 220.892C152.165 221.103 151.45 221.044 150.836 220.728C150.223 220.412 149.759 219.865 149.548 219.208Z" fill="#6595F7"/>
<path d="M73.6331 259.904C73.6376 260.184 74.2771 260.082 74.2771 260.082C74.2771 260.082 74.3979 260.898 74.659 262.258C74.6785 262.351 74.6959 262.447 74.7156 262.544C74.9994 263.994 75.4292 265.983 76.0264 268.226C76.0526 268.326 76.0797 268.425 76.1091 268.526C76.5138 270.032 76.9947 271.647 77.5548 273.288C77.5897 273.393 77.6267 273.495 77.6636 273.601C78.3007 275.458 79.0411 277.278 79.8814 279.053C79.913 279.119 79.9444 279.184 79.9771 279.249C81.3815 282.143 83.0818 284.776 85.1139 286.632H123.671L123.496 277.11L123.399 271.83L123.395 271.539L123.324 267.762L123.32 267.519L123.278 265.275L123.273 264.982L123.159 258.72L123.153 258.431L123.096 255.355L130.879 262.248L131.147 262.486L134.679 265.616L137.622 258.75L137.743 258.47L138.026 257.807V257.806L138.225 257.343V257.342L139.91 253.409L140.035 253.118L141.883 248.81L141.999 248.536L143.687 244.599C143.687 244.599 142.037 243.339 139.698 241.581C139.641 241.538 139.582 241.493 139.523 241.45C138.576 240.737 137.522 239.95 136.423 239.133C136.319 239.055 136.216 238.979 136.111 238.901C134.78 237.913 133.391 236.892 132.052 235.918C131.983 235.869 131.914 235.82 131.847 235.771C131.828 235.756 131.81 235.744 131.792 235.73C131.723 235.68 131.654 235.631 131.587 235.581C128.185 233.123 125.197 231.065 124.421 230.839C123.646 230.613 122.774 230.386 121.809 230.17H121.809C121.722 230.151 121.634 230.131 121.545 230.111H121.544C119.34 229.638 117.11 229.292 114.866 229.073C114.775 229.063 114.685 229.054 114.595 229.047C113.194 228.911 111.698 228.809 110.109 228.754C110.029 228.751 109.948 228.749 109.867 228.747C104.626 228.599 99.3824 228.909 94.1952 229.671C94.0658 229.689 93.9364 229.708 93.807 229.727C92.495 229.919 91.1515 230.144 89.7765 230.4C89.3087 230.488 88.8464 230.593 88.3927 230.717C88.2665 230.751 88.1414 230.786 88.0163 230.823C86.3536 231.313 84.7734 232.049 83.3277 233.005C83.2416 233.062 83.1569 233.118 83.071 233.178C82.2173 233.764 81.4177 234.424 80.6815 235.152C80.6221 235.21 80.5627 235.269 80.5041 235.328C78.942 236.914 77.6983 238.784 76.8404 240.838C76.8087 240.909 76.7794 240.981 76.7513 241.053C76.6762 241.237 76.6054 241.423 76.537 241.612C76.4727 241.791 76.4107 241.969 76.3521 242.15C76.1753 242.688 76.0261 243.235 75.9049 243.788L75.8657 243.968C75.8635 243.979 75.8614 243.991 75.8581 244.002C75.535 245.537 75.1554 247.274 74.8019 249.126C74.7823 249.23 74.7605 249.333 74.7425 249.438C74.6358 250.004 74.5315 250.578 74.4335 251.161C74.4215 251.233 74.4086 251.305 74.3966 251.376C74.1583 252.808 73.9538 254.284 73.8157 255.767C73.8059 255.864 73.7981 255.96 73.7906 256.056C73.6776 257.344 73.6183 258.635 73.6331 259.904Z" fill="#FCB913"/>
<path d="M100.294 260.951C100.672 261.728 101.254 262.388 101.978 262.859C102.703 263.331 103.541 263.597 104.405 263.629L107.653 263.771C111.195 263.927 114.857 264.088 118.239 265.356C119.418 265.824 120.571 266.357 121.692 266.952C122.227 267.225 122.771 267.5 123.324 267.762L123.32 267.52C122.803 267.273 122.294 267.014 121.791 266.758C120.663 266.159 119.503 265.623 118.316 265.153C114.901 263.872 111.221 263.71 107.663 263.553L104.415 263.411C103.594 263.375 102.797 263.12 102.107 262.672C101.418 262.224 100.861 261.6 100.494 260.864C100.128 260.128 99.9648 259.307 100.023 258.487C100.081 257.667 100.357 256.877 100.823 256.2C101.834 254.743 103.186 253.556 104.76 252.74C108.324 250.93 112.475 250.798 116.492 250.673C116.806 250.664 117.121 250.654 117.433 250.643C121.583 250.503 126.308 250.126 129.882 247.426C130.911 246.648 131.557 245.851 131.856 244.988C132.243 243.878 131.965 242.653 131.178 242.012C130.546 241.495 129.696 241.392 128.947 241.359C126.414 241.247 123.84 241.76 121.351 242.255C117.73 242.976 114.311 243.657 110.938 242.625C110.596 242.521 110.258 242.386 110.092 242.105C109.926 241.825 109.97 241.467 110.034 241.09C110.543 238.08 111.121 234.669 112.77 231.85C113.365 230.852 114.067 229.921 114.864 229.075C114.774 229.065 114.684 229.056 114.593 229.049C113.831 229.873 113.157 230.775 112.582 231.74C110.914 234.593 110.334 238.026 109.821 241.054C109.751 241.472 109.704 241.875 109.906 242.217C110.109 242.562 110.51 242.723 110.875 242.834C114.301 243.882 117.906 243.165 121.394 242.469C123.87 241.977 126.432 241.466 128.938 241.577C129.652 241.609 130.459 241.705 131.042 242.181C131.758 242.765 132.009 243.891 131.652 244.918C131.366 245.738 130.745 246.502 129.751 247.253C126.228 249.915 121.542 250.287 117.426 250.426C117.113 250.437 116.799 250.447 116.484 250.456C112.445 250.583 108.269 250.713 104.662 252.547C103.055 253.379 101.676 254.591 100.645 256.077C100.15 256.782 99.8564 257.607 99.7945 258.466C99.7326 259.324 99.9052 260.183 100.294 260.951Z" fill="white"/>
<path d="M98.1109 244.726C99.3315 244.379 100.698 243.879 101.586 242.798C103.217 240.815 102.42 237.723 100.746 235.994C98.9833 234.175 96.4638 233.352 94.2413 232.627L88.3937 230.718C88.2676 230.751 88.1425 230.787 88.0173 230.824L94.1736 232.834C96.3721 233.552 98.8644 234.364 100.589 236.145C102.197 237.806 102.972 240.769 101.418 242.66C100.568 243.695 99.2387 244.179 98.0518 244.517C90.8501 246.567 83.2667 245.214 75.9042 243.79L75.865 243.97C75.8628 243.981 75.8607 243.992 75.8574 244.003C83.2464 245.43 90.8592 246.79 98.1109 244.726Z" fill="white"/>
<path d="M93.863 255.008C94.1699 259.796 94.5516 265.755 91.819 270.47C89.2462 274.912 84.4085 277.41 79.882 279.052C79.9136 279.119 79.9451 279.184 79.9777 279.249C84.534 277.594 89.4061 275.071 92.0082 270.579C94.7724 265.807 94.3885 259.812 94.0795 254.993C94.035 254.3 93.9588 253.64 93.5117 253.181C93.1602 252.821 92.6599 252.68 92.178 252.567C88.6523 251.739 84.965 251.62 81.3995 251.506C80.7697 251.485 80.142 251.466 79.5147 251.442C77.8227 251.376 76.1293 251.283 74.4344 251.163C74.4224 251.235 74.4095 251.307 74.3975 251.378C76.101 251.5 77.8038 251.594 79.506 251.659C80.1337 251.683 80.7636 251.703 81.3924 251.723C84.9474 251.838 88.6244 251.956 92.1284 252.779C92.5798 252.884 93.0455 253.015 93.3566 253.333C93.7511 253.738 93.8207 254.357 93.863 255.008Z" fill="white"/>
<path d="M132.778 254.264C132.408 255.334 132.125 256.46 132.563 257.436C133.025 258.468 134.151 258.958 135.234 258.958C135.535 258.958 135.834 258.92 136.125 258.842C136.825 258.636 137.474 258.283 138.027 257.807V257.806L138.226 257.342C137.637 257.891 136.912 258.403 136.068 258.632C134.87 258.957 133.308 258.564 132.763 257.348C132.356 256.44 132.63 255.363 132.986 254.335C134.206 250.808 135.866 247.449 137.926 244.337C138.045 244.158 138.165 243.977 138.286 243.796C138.761 243.084 139.255 242.344 139.7 241.582C139.642 241.538 139.584 241.494 139.525 241.45C139.08 242.216 138.583 242.96 138.105 243.675C137.983 243.857 137.864 244.037 137.744 244.217C135.674 247.344 134.005 250.719 132.778 254.264Z" fill="white"/>
<path d="M119.979 234.312C120.252 234.572 120.577 234.77 120.933 234.893C124.385 236.303 128.113 236.228 131.848 235.771C131.829 235.756 131.811 235.744 131.792 235.73C131.724 235.68 131.655 235.631 131.588 235.581C127.961 236.01 124.349 236.052 121.016 234.691C120.689 234.579 120.39 234.398 120.138 234.162C119.253 233.217 120.207 231.658 121.064 230.842C121.306 230.611 121.555 230.387 121.809 230.17C121.722 230.15 121.635 230.131 121.546 230.11H121.545C121.33 230.296 121.12 230.487 120.914 230.684C119.812 231.735 119.048 233.318 119.979 234.312Z" fill="white"/>
<path d="M76.751 241.056C77.4602 241.071 78.1695 241.079 78.8788 241.079C80.2929 241.079 81.7075 241.05 83.1226 240.993C84.6673 240.93 85.5733 240.477 85.817 239.645C86.0717 238.777 85.4178 237.948 85.0055 237.531C83.8143 236.326 82.2598 235.625 80.6813 235.154C80.6219 235.212 80.5626 235.272 80.5039 235.33C82.0945 235.793 83.6631 236.484 84.851 237.683C85.2296 238.066 85.8306 238.823 85.6079 239.584C85.3936 240.316 84.5542 240.716 83.1135 240.775C81.7026 240.833 80.2909 240.861 78.8785 240.861C78.1986 240.861 77.519 240.854 76.8399 240.841C76.8092 240.911 76.7795 240.983 76.751 241.056Z" fill="white"/>
<path d="M93.8076 229.728C97.5738 231.532 101.566 232.922 105.776 233.311C105.964 233.328 106.162 233.343 106.359 233.343C106.739 233.359 107.116 233.274 107.453 233.098C107.952 232.811 108.24 232.269 108.472 231.834L110.11 228.756C110.03 228.752 109.949 228.75 109.868 228.748L108.28 231.732C108.061 232.142 107.789 232.653 107.345 232.909C106.892 233.17 106.332 233.143 105.796 233.094C101.727 232.719 97.8573 231.397 94.1966 229.673C94.0665 229.69 93.9364 229.71 93.8076 229.728Z" fill="white"/>
<path d="M143.687 244.601L176.336 229.839L180.754 239.806L145.327 265.147C144.079 265.992 142.605 266.441 141.097 266.435C139.59 266.43 138.12 265.97 136.878 265.115L135.346 264.061L143.687 244.601Z" fill="#F59060"/>
<path d="M166.779 235.409C166.779 235.409 173.959 232.008 180.145 218.306C180.188 218.209 180.26 218.128 180.351 218.074C180.442 218.02 180.548 217.996 180.653 218.005C180.758 218.014 180.858 218.056 180.939 218.124C181.02 218.193 181.077 218.284 181.103 218.387C181.493 219.968 182.002 222.721 181.752 225.615C181.747 225.669 181.759 225.723 181.786 225.77C181.812 225.818 181.853 225.855 181.902 225.879C181.952 225.902 182.007 225.909 182.06 225.9C182.114 225.891 182.163 225.866 182.202 225.828C183.77 224.28 188.439 219.584 191.101 215.972C191.171 215.876 191.273 215.809 191.388 215.78C191.502 215.752 191.624 215.765 191.73 215.816C191.837 215.867 191.922 215.954 191.972 216.062C192.021 216.17 192.031 216.291 192.001 216.405C191.564 217.981 190.565 220.291 188.293 223.076C188.253 223.123 188.233 223.183 188.235 223.245C188.237 223.306 188.261 223.365 188.303 223.409C188.346 223.454 188.403 223.482 188.464 223.487C188.525 223.493 188.586 223.475 188.636 223.439C190.127 222.318 192.226 220.649 193.733 219.074C193.815 218.988 193.925 218.934 194.043 218.92C194.161 218.907 194.28 218.935 194.38 219.001C194.479 219.066 194.552 219.164 194.586 219.278C194.621 219.392 194.614 219.514 194.568 219.623C193.896 221.209 192.586 223.4 190.038 225.76C189.994 225.801 189.967 225.857 189.96 225.917C189.954 225.977 189.97 226.038 190.004 226.087C190.039 226.137 190.09 226.172 190.148 226.188C190.206 226.203 190.268 226.196 190.322 226.17C191.579 225.538 192.779 224.8 193.91 223.963C194.005 223.891 194.123 223.855 194.243 223.861C194.362 223.868 194.475 223.916 194.563 223.998C194.65 224.08 194.706 224.19 194.72 224.308C194.734 224.427 194.706 224.547 194.64 224.647C193.751 225.983 192.279 227.684 189.91 229.288C189.861 229.32 189.825 229.367 189.807 229.422C189.789 229.477 189.791 229.536 189.811 229.59C189.832 229.644 189.87 229.689 189.92 229.718C189.97 229.747 190.028 229.758 190.085 229.749C190.88 229.62 191.657 229.398 192.401 229.088C192.507 229.042 192.626 229.033 192.738 229.064C192.849 229.095 192.947 229.163 193.015 229.257C193.083 229.351 193.116 229.465 193.11 229.581C193.103 229.697 193.057 229.807 192.98 229.893C190.3 232.853 184.1 238.574 171.617 245.257L166.779 235.409Z" fill="#F59060"/>
<path d="M181.481 234.8C182.716 231.778 181.213 227.782 181.198 227.742L181.092 227.464L181.389 227.46C181.513 227.458 184.467 227.463 187.03 231.738L186.674 231.952C184.709 228.674 182.488 228.032 181.695 227.906C182.036 228.932 182.971 232.251 181.865 234.957L181.481 234.8Z" fill="#131313"/>
<path d="M90.3958 259.611L73.6329 259.903L71.7586 276.59C71.6167 277.853 71.7431 279.132 72.1295 280.343C72.5159 281.555 73.1536 282.671 74.0009 283.618C74.8482 284.566 75.886 285.324 77.0465 285.844C78.207 286.363 79.464 286.631 80.7353 286.631H123.671L123.496 277.11L89.6452 271.871L90.3958 259.611Z" fill="#F59060"/>
<path d="M81.9699 270.338L81.9033 270.722L89.6115 272.06L89.6781 271.677L81.9699 270.338Z" fill="#131313"/>
<path d="M143.686 244.6L136.137 264.605L135.346 264.061L143.686 244.6Z" fill="#131313"/>
<path d="M90.3956 259.611L73.4785 261.276L73.6327 259.903L90.3956 259.611Z" fill="#131313"/>
<path d="M112.657 216.663C112.666 216.724 112.673 216.786 112.68 216.849C112.719 217.182 112.747 217.514 112.762 217.843C112.767 217.899 112.769 217.955 112.772 218.012C112.78 218.187 112.783 218.358 112.781 218.532C112.782 218.924 112.769 219.315 112.735 219.694C112.517 222.103 111.518 224.232 109.102 225.396L109.923 229.415C110.004 229.809 110.02 230.214 109.97 230.612C109.94 230.836 109.832 231.042 109.666 231.195C108.177 232.573 105.46 232.693 102.392 231.754C101.731 231.554 101.153 231.143 100.748 230.584C100.342 230.025 100.131 229.349 100.147 228.659L100.291 222.873L97.7984 222.717C97.307 222.694 96.831 222.538 96.4218 222.265C96.0125 221.992 95.6855 221.613 95.476 221.168C95.4495 221.111 95.4258 221.054 95.4052 220.995L95.1677 220.35C95.0246 219.961 94.9721 219.545 95.014 219.133C95.056 218.721 95.1913 218.324 95.4098 217.972C95.6283 217.62 95.9242 217.323 96.2749 217.102C96.6256 216.882 97.022 216.744 97.4339 216.7C97.4339 216.7 97.4296 216.664 97.4259 216.601C97.3368 215.512 96.7708 206.079 103.66 205.767C107.026 205.609 110.074 207.756 111.213 210.924C111.809 212.587 112.408 214.62 112.657 216.663Z" fill="#F59060"/>
<path d="M109.765 220.663C109.823 220.632 109.875 220.591 109.918 220.542C110.572 219.795 109.379 216.91 109.133 216.34C109.115 216.299 109.082 216.267 109.04 216.25C108.999 216.234 108.952 216.234 108.911 216.252C108.87 216.27 108.838 216.303 108.821 216.345C108.805 216.386 108.806 216.432 108.823 216.474C109.36 217.719 110.063 219.865 109.664 220.32C109.639 220.35 109.561 220.439 109.295 220.365C109.252 220.353 109.206 220.358 109.167 220.38C109.128 220.402 109.1 220.438 109.088 220.481C109.076 220.524 109.081 220.57 109.103 220.609C109.125 220.648 109.161 220.677 109.204 220.689C109.387 220.754 109.589 220.745 109.765 220.663Z" fill="#131313"/>
<path d="M106.291 219.724C107.212 219.708 107.952 219.28 107.943 218.767C107.934 218.255 107.18 217.852 106.259 217.868C105.338 217.884 104.598 218.312 104.607 218.825C104.616 219.338 105.37 219.74 106.291 219.724Z" fill="#FC6D6D"/>
<path d="M112.761 217.843C112.767 217.899 112.769 217.955 112.771 218.012C112.779 218.187 112.782 218.357 112.78 218.532C112.781 218.924 112.769 219.315 112.734 219.694L112.733 219.695C111.766 219.742 110.96 219.33 110.952 218.798C110.944 218.284 111.682 217.856 112.603 217.84C112.657 217.839 112.707 217.841 112.761 217.843Z" fill="#FC6D6D"/>
<path d="M109.102 225.397C109.102 225.397 107.286 226.187 104.935 224.755C104.935 224.755 106.371 226.894 109.309 226.406L109.102 225.397Z" fill="#131313"/>
<path d="M105.212 214.774C105.442 214.658 105.683 214.567 105.932 214.503C106.177 214.438 106.43 214.404 106.683 214.402C106.926 214.405 107.166 214.451 107.392 214.54C107.608 214.633 107.804 214.767 107.968 214.936L107.987 214.954C108.039 215.004 108.11 215.031 108.182 215.028C108.255 215.026 108.323 214.995 108.373 214.942C108.422 214.89 108.449 214.819 108.447 214.747C108.445 214.675 108.414 214.606 108.361 214.556C108.358 214.553 108.354 214.55 108.35 214.547C108.121 214.339 107.853 214.18 107.561 214.079C107.274 213.987 106.973 213.949 106.672 213.966C106.383 213.987 106.098 214.045 105.823 214.137C105.551 214.227 105.29 214.346 105.045 214.493C105.008 214.514 104.98 214.549 104.969 214.591C104.957 214.632 104.963 214.676 104.984 214.714C105.004 214.751 105.039 214.779 105.08 214.791C105.121 214.803 105.166 214.798 105.203 214.778L105.212 214.774Z" fill="#671E24"/>
<path d="M112.77 214.556C112.55 214.394 112.314 214.256 112.063 214.147C111.81 214.035 111.543 213.957 111.269 213.915C110.982 213.876 110.69 213.895 110.41 213.97C110.126 214.053 109.862 214.193 109.635 214.383C109.607 214.405 109.583 214.432 109.565 214.463C109.547 214.494 109.535 214.529 109.531 214.564C109.526 214.6 109.528 214.636 109.538 214.671C109.547 214.705 109.563 214.738 109.585 214.766C109.607 214.795 109.634 214.818 109.665 214.836C109.696 214.854 109.73 214.866 109.766 214.871C109.801 214.875 109.838 214.873 109.872 214.864C109.907 214.854 109.939 214.838 109.968 214.816C109.971 214.814 109.975 214.811 109.979 214.808L110.001 214.788C110.161 214.635 110.349 214.516 110.556 214.439C110.771 214.365 110.998 214.335 111.224 214.35C111.462 214.369 111.697 214.42 111.922 214.502C112.151 214.583 112.37 214.69 112.576 214.819L112.583 214.824C112.619 214.848 112.662 214.857 112.705 214.85C112.747 214.842 112.784 214.818 112.809 214.782C112.833 214.747 112.843 214.704 112.836 214.661C112.828 214.619 112.805 214.581 112.77 214.556L112.77 214.556Z" fill="#671E24"/>
<path d="M106.95 217.183C107.204 217.155 107.376 216.82 107.333 216.433C107.291 216.047 107.051 215.757 106.797 215.784C106.543 215.812 106.371 216.148 106.414 216.534C106.456 216.921 106.696 217.211 106.95 217.183Z" fill="#131313"/>
<path d="M111.389 217.039C111.582 217.018 111.706 216.704 111.666 216.339C111.625 215.974 111.437 215.695 111.244 215.717C111.051 215.738 110.927 216.051 110.967 216.416C111.007 216.781 111.196 217.06 111.389 217.039Z" fill="#131313"/>
<path d="M96.9944 221.056C96.5805 220.223 96.5039 219.544 96.7666 219.039C97.1353 218.33 98.0709 218.181 98.0804 218.179L98.0267 217.818C97.9808 217.825 96.9011 217.994 96.4443 218.868C96.1232 219.483 96.1983 220.274 96.6678 221.218L96.9944 221.056Z" fill="#131313"/>
<path d="M97.4336 216.701C97.9912 216.78 98.5293 216.963 99.0203 217.238C99.8268 217.697 99.9871 218.134 100.308 218.168C100.821 218.221 101.623 217.229 102.916 212.892C103.839 213.19 108.136 214.474 111.649 212.21C112.431 211.706 113.118 211.067 113.677 210.323C115.711 207.564 115.13 204.305 115.005 203.603C114.743 202.169 114.164 200.812 113.312 199.631C109.278 203.15 104.46 205.65 99.26 206.921C98.6527 207.036 96.644 207.496 95.3886 209.279C93.8553 211.458 94.0703 214.722 96.0548 217.258L97.4336 216.701Z" fill="#671E24"/>
<path d="M98.2812 222.748L100.223 225.587L100.291 222.872L98.2812 222.748Z" fill="#671E24"/>
<path d="M109.276 222.192C108.766 222.202 107.856 222.09 106.602 221.432C106.575 221.418 106.543 221.412 106.512 221.415C106.481 221.418 106.452 221.431 106.428 221.451C106.404 221.471 106.387 221.498 106.379 221.528C106.37 221.558 106.371 221.59 106.381 221.619C106.645 222.399 107.462 224.034 109.378 222.468C109.403 222.448 109.421 222.42 109.429 222.389C109.438 222.357 109.437 222.324 109.425 222.294C109.414 222.263 109.394 222.237 109.367 222.219C109.341 222.201 109.309 222.191 109.276 222.192Z" fill="white"/>
<path d="M106.706 232.336L100.189 226.949L98.0801 229.193L104.965 235.154L106.706 232.336Z" fill="#DD9B0A"/>
<path d="M106.706 232.336L109.419 226.949L111.224 228.802L108.468 235.154L106.706 232.336Z" fill="#DD9B0A"/>
<path d="M106.869 232.337H106.543V278.418H106.869V232.337Z" fill="#131313"/>
<path d="M99.7881 286.631H136.816L141.77 262.36C141.881 261.817 141.87 261.255 141.737 260.717C141.604 260.179 141.354 259.677 141.003 259.247C140.652 258.818 140.211 258.472 139.71 258.234C139.209 257.996 138.661 257.873 138.107 257.873H105.658L99.7881 286.631Z" fill="#6445F1"/>
<path d="M80.7355 286.632H99.7882C99.8987 286.633 100.006 286.596 100.093 286.528C100.18 286.459 100.24 286.363 100.265 286.255L106.134 258.439C106.146 258.377 106.146 258.314 106.134 258.253C106.121 258.191 106.096 258.133 106.061 258.081C106.026 258.03 105.981 257.986 105.928 257.952C105.875 257.918 105.817 257.894 105.755 257.883C105.63 257.857 105.5 257.881 105.393 257.95C105.286 258.018 105.21 258.126 105.181 258.25L99.391 285.69H80.7352C80.6722 285.688 80.6095 285.699 80.5507 285.722C80.4919 285.745 80.4383 285.779 80.393 285.823C80.3478 285.867 80.3118 285.919 80.2872 285.977C80.2627 286.036 80.25 286.098 80.25 286.161C80.25 286.224 80.2627 286.286 80.2872 286.344C80.3118 286.403 80.3478 286.455 80.393 286.499C80.4383 286.543 80.4919 286.577 80.5507 286.6C80.6095 286.623 80.6722 286.633 80.7352 286.632H80.7355Z" fill="#131313"/>
<path d="M126.435 273.025C127.229 270.795 126.145 268.373 124.013 267.614C121.882 266.855 119.51 268.047 118.716 270.276C117.923 272.505 119.007 274.928 121.139 275.687C123.27 276.446 125.642 275.254 126.435 273.025Z" fill="white"/>
<path d="M90.5903 245.476H90.2012V259.611H90.5903V245.476Z" fill="#131313"/>
<path d="M123.291 245.476H122.902V255.354H123.291V245.476Z" fill="#131313"/>
<path d="M43.6065 296.366H172.871V286.791H43.6065V296.366Z" fill="#2C34F1"/>
<path d="M41.7208 292.357H174.558C176.139 292.357 177.421 291.075 177.421 289.494C177.421 287.913 176.139 286.631 174.558 286.631H41.7208C40.1394 286.631 38.8574 287.913 38.8574 289.494C38.8574 291.075 40.1394 292.357 41.7208 292.357Z" fill="#004751"/>
<path d="M277.983 240.351H222.079C219.667 240.349 217.355 239.389 215.649 237.684C213.943 235.978 212.984 233.666 212.981 231.254V177.965C212.984 175.553 213.943 173.24 215.649 171.535C217.355 169.829 219.667 168.87 222.079 168.867H277.983C280.395 168.87 282.708 169.829 284.413 171.535C286.119 173.241 287.078 175.553 287.081 177.965V231.254C287.078 233.666 286.118 235.978 284.413 237.684C282.708 239.389 280.395 240.349 277.983 240.351ZM222.079 169.956C219.956 169.958 217.92 170.803 216.419 172.304C214.917 173.806 214.072 175.842 214.07 177.965V231.254C214.072 233.378 214.917 235.414 216.419 236.915C217.92 238.417 219.956 239.261 222.079 239.263H277.983C280.107 239.261 282.143 238.416 283.644 236.915C285.146 235.413 285.99 233.378 285.993 231.254V177.965C285.99 175.842 285.146 173.806 283.644 172.304C282.143 170.803 280.107 169.958 277.983 169.956H222.079Z" fill="#6595F7"/>
<path d="M266.017 160.709H210.113C205.389 160.709 201.56 164.538 201.56 169.262V222.552C201.56 227.275 205.389 231.105 210.113 231.105H266.017C270.741 231.105 274.57 227.275 274.57 222.552V169.262C274.57 164.538 270.741 160.709 266.017 160.709Z" fill="#6445F1"/>
<path d="M270.793 172.019V219.795C270.793 221.829 269.985 223.78 268.547 225.218C267.109 226.656 265.159 227.464 263.125 227.464H213.004C211.5 227.464 210.029 227.021 208.774 226.192C207.519 225.362 206.535 224.182 205.946 222.798C205.945 222.795 205.944 222.792 205.942 222.789C205.541 221.842 205.335 220.824 205.336 219.795V172.019C205.336 171.012 205.534 170.015 205.919 169.084C206.305 168.154 206.87 167.308 207.582 166.596C208.294 165.884 209.139 165.319 210.07 164.934C211 164.548 211.997 164.35 213.004 164.35H263.125C264.132 164.35 265.129 164.548 266.06 164.934C266.99 165.319 267.835 165.884 268.547 166.596C269.259 167.308 269.824 168.154 270.21 169.084C270.595 170.015 270.793 171.012 270.793 172.019Z" fill="#FCB913"/>
<path d="M236.827 186.938C236.443 186.938 236.067 186.824 235.748 186.611C235.429 186.397 235.18 186.094 235.033 185.739C234.886 185.384 234.847 184.994 234.922 184.617C234.997 184.24 235.182 183.894 235.454 183.623C235.725 183.351 236.071 183.166 236.448 183.091C236.825 183.016 237.215 183.055 237.57 183.202C237.925 183.349 238.228 183.598 238.442 183.917C238.655 184.236 238.769 184.612 238.769 184.996C238.768 185.511 238.564 186.005 238.2 186.369C237.836 186.733 237.342 186.937 236.827 186.938ZM236.827 183.38C236.507 183.38 236.195 183.475 235.929 183.652C235.664 183.83 235.456 184.082 235.334 184.378C235.212 184.673 235.18 184.998 235.242 185.311C235.304 185.625 235.458 185.913 235.684 186.139C235.91 186.364 236.198 186.518 236.512 186.581C236.825 186.643 237.15 186.611 237.445 186.489C237.74 186.367 237.993 186.159 238.17 185.894C238.348 185.628 238.443 185.316 238.443 184.996C238.442 184.568 238.272 184.157 237.969 183.854C237.666 183.551 237.255 183.381 236.827 183.38Z" fill="#6595F7"/>
<path d="M236.099 181.734C236.277 183.969 237.134 185.991 239.412 186.763L239.17 189.748C239.142 190.101 239.183 190.455 239.293 190.791C239.403 191.127 239.579 191.438 239.81 191.706C240.041 191.973 240.324 192.192 240.64 192.349C240.957 192.506 241.302 192.599 241.655 192.621C241.779 192.629 241.902 192.631 242.025 192.626C242.936 192.588 243.797 192.197 244.425 191.535C245.053 190.874 245.399 189.994 245.39 189.082L245.576 184.154L247.369 183.822C247.723 183.762 248.054 183.606 248.327 183.372C248.6 183.138 248.803 182.834 248.916 182.493C248.929 182.45 248.941 182.407 248.952 182.362L249.067 181.872C249.136 181.578 249.137 181.272 249.07 180.977C249.003 180.682 248.87 180.407 248.681 180.171C248.491 179.936 248.25 179.746 247.977 179.618C247.703 179.489 247.404 179.425 247.102 179.429L247.099 179.355C247.066 178.56 246.643 171.671 241.621 172.052C239.168 172.237 237.15 174.059 236.601 176.458C236.267 177.864 236.087 179.302 236.063 180.747C236.062 181.079 236.073 181.408 236.099 181.734Z" fill="#F59060"/>
<path d="M238.523 182.64C238.46 182.637 238.399 182.622 238.342 182.596C238.285 182.569 238.234 182.532 238.191 182.485C237.664 181.901 238.51 179.803 238.685 179.388C238.692 179.37 238.703 179.354 238.716 179.34C238.729 179.327 238.745 179.316 238.763 179.308C238.781 179.301 238.8 179.297 238.819 179.297C238.838 179.297 238.857 179.301 238.875 179.308C238.892 179.316 238.908 179.327 238.922 179.34C238.935 179.354 238.946 179.37 238.953 179.388C238.96 179.406 238.963 179.425 238.962 179.444C238.962 179.464 238.958 179.482 238.95 179.5C238.572 180.395 238.09 181.945 238.404 182.293C238.428 182.32 238.501 182.4 238.755 182.323C238.773 182.316 238.792 182.314 238.811 182.315C238.83 182.317 238.849 182.322 238.866 182.331C238.883 182.34 238.898 182.352 238.91 182.366C238.923 182.381 238.932 182.398 238.938 182.416C238.943 182.435 238.945 182.454 238.943 182.473C238.941 182.492 238.935 182.511 238.926 182.527C238.917 182.544 238.905 182.559 238.89 182.571C238.875 182.583 238.857 182.592 238.839 182.597C238.737 182.631 238.63 182.645 238.523 182.64Z" fill="#131313"/>
<path d="M242.255 181.619C242.272 181.244 241.74 180.917 241.068 180.888C240.396 180.859 239.838 181.139 239.821 181.513C239.805 181.887 240.337 182.214 241.009 182.243C241.681 182.272 242.239 181.993 242.255 181.619Z" fill="#FC6D6D"/>
<path d="M236.099 181.734C236.34 181.808 236.593 181.828 236.843 181.793C237.456 181.717 237.921 181.376 237.879 181.035C237.836 180.694 237.301 180.477 236.688 180.553C236.469 180.58 236.258 180.645 236.063 180.746C236.062 181.079 236.073 181.408 236.099 181.734Z" fill="#FC6D6D"/>
<path d="M239.411 186.762C239.411 186.762 240.798 187.175 242.376 185.929C242.376 185.929 241.523 187.606 239.351 187.512L239.411 186.762Z" fill="#131313"/>
<path d="M247.377 183.819C247.644 183.77 247.899 183.668 248.127 183.52C247.19 185.093 246.064 186.463 245.488 186.472L245.576 184.154L247.371 183.821C247.372 183.821 247.375 183.819 247.377 183.819Z" fill="#131313"/>
<path d="M249.273 175.279C250.492 178.307 249.358 181.052 249.109 181.62C249.137 181.342 249.107 181.06 249.019 180.794C248.931 180.528 248.788 180.284 248.599 180.077C248.411 179.87 248.18 179.706 247.923 179.594C247.667 179.482 247.389 179.426 247.109 179.429H247.101C247.101 179.429 244.143 181.643 239.066 175.708C239.066 175.708 238.234 177.143 236.26 178.266H236.259C236.225 178.286 236.191 178.307 236.155 178.326C236.069 178.369 235.973 178.387 235.878 178.378C235.607 178.31 235.328 172.314 238.413 170.844C238.923 170.601 239.471 170.584 240.565 170.551C242.278 170.498 244.489 170.43 246.533 171.823C247.764 172.683 248.717 173.884 249.273 175.279Z" fill="#131313"/>
<path d="M242.632 178.611C242.424 178.509 242.208 178.427 241.985 178.365C241.764 178.302 241.537 178.262 241.309 178.245C241.087 178.231 240.864 178.249 240.647 178.298C240.439 178.351 240.242 178.44 240.065 178.561L240.052 178.569C240.003 178.602 239.942 178.613 239.885 178.601C239.827 178.589 239.776 178.555 239.744 178.505C239.711 178.456 239.7 178.396 239.712 178.338C239.724 178.28 239.758 178.229 239.808 178.197L239.817 178.191C240.048 178.052 240.301 177.955 240.565 177.906C240.822 177.864 241.084 177.859 241.343 177.891C241.593 177.925 241.84 177.985 242.079 178.069C242.317 178.151 242.546 178.255 242.764 178.38C242.792 178.399 242.812 178.427 242.82 178.459C242.828 178.491 242.823 178.526 242.808 178.555C242.792 178.584 242.766 178.606 242.735 178.618C242.703 178.629 242.669 178.628 242.638 178.615L242.632 178.611Z" fill="#131313"/>
<path d="M235.41 178.259C235.638 178.153 235.876 178.069 236.12 178.008C236.365 177.945 236.616 177.907 236.869 177.894C237.129 177.885 237.389 177.913 237.642 177.977C237.901 178.049 238.145 178.167 238.362 178.326C238.41 178.36 238.443 178.412 238.453 178.47C238.463 178.528 238.449 178.588 238.415 178.636C238.398 178.66 238.377 178.68 238.352 178.696C238.327 178.711 238.3 178.722 238.271 178.727C238.213 178.737 238.153 178.723 238.105 178.689L238.096 178.683L238.083 178.673C237.918 178.537 237.729 178.431 237.527 178.36C237.314 178.293 237.094 178.256 236.872 178.25C236.642 178.248 236.413 178.268 236.187 178.311C235.96 178.354 235.737 178.417 235.522 178.5L235.515 178.503C235.484 178.513 235.449 178.512 235.419 178.498C235.388 178.484 235.364 178.46 235.351 178.429C235.338 178.399 235.336 178.364 235.347 178.333C235.358 178.301 235.38 178.275 235.41 178.259Z" fill="#131313"/>
<path d="M241.268 179.671C241.28 179.388 241.139 179.151 240.952 179.143C240.766 179.135 240.605 179.358 240.593 179.642C240.58 179.925 240.721 180.162 240.908 180.17C241.094 180.178 241.255 179.955 241.268 179.671Z" fill="#131313"/>
<path d="M237.404 179.504C237.417 179.221 237.275 178.984 237.089 178.976C236.903 178.968 236.742 179.191 236.729 179.475C236.717 179.758 236.858 179.995 237.045 180.003C237.231 180.011 237.392 179.788 237.404 179.504Z" fill="#131313"/>
<path d="M248.065 182.638L247.795 182.543C248.02 181.906 248.016 181.41 247.783 181.07C247.456 180.593 246.77 180.567 246.763 180.567L246.77 180.28C246.804 180.28 247.607 180.308 248.018 180.906C248.308 181.326 248.324 181.909 248.065 182.638Z" fill="#131313"/>
<path d="M240.553 183.474C240.589 183.464 240.626 183.463 240.662 183.472C240.698 183.482 240.731 183.501 240.757 183.527C240.784 183.553 240.802 183.586 240.812 183.622C240.821 183.658 240.82 183.696 240.81 183.732C240.744 183.973 240.613 184.192 240.43 184.364C240.248 184.535 240.021 184.653 239.775 184.703C239.57 184.74 239.36 184.727 239.16 184.668C238.961 184.608 238.778 184.503 238.626 184.36C238.6 184.335 238.581 184.304 238.571 184.269C238.561 184.234 238.561 184.197 238.57 184.162C238.578 184.127 238.596 184.095 238.621 184.069C238.647 184.043 238.678 184.024 238.713 184.015L240.553 183.474Z" fill="#E52039"/>
<path d="M254.519 181.174C257.171 181.174 259.321 179.024 259.321 176.371C259.321 173.719 257.171 171.569 254.519 171.569C251.867 171.569 249.717 173.719 249.717 176.371C249.717 179.024 251.867 181.174 254.519 181.174Z" fill="#131313"/>
<path d="M249.447 175.187C249.97 175.887 250.68 177.224 250.012 178.74C249.998 178.773 249.974 178.801 249.943 178.818C249.911 178.836 249.875 178.844 249.839 178.839C249.804 178.835 249.77 178.818 249.745 178.793C249.719 178.768 249.702 178.735 249.697 178.699C249.591 177.904 249.372 176.351 249.155 175.319C249.147 175.283 249.152 175.245 249.169 175.211C249.186 175.178 249.214 175.151 249.248 175.136C249.282 175.12 249.32 175.117 249.357 175.126C249.393 175.135 249.425 175.157 249.447 175.187Z" fill="#6595F7"/>
<path d="M238.772 187.198H245.523C245.795 187.198 246.056 187.306 246.249 187.499C246.442 187.692 246.55 187.953 246.55 188.225V190.293H237.745V188.225C237.745 188.091 237.772 187.957 237.823 187.832C237.875 187.708 237.951 187.594 238.046 187.499C238.141 187.404 238.255 187.328 238.379 187.276C238.504 187.225 238.638 187.198 238.772 187.198Z" fill="#2C34F1"/>
<path d="M266.22 227.294C264.259 227.547 262.13 227.692 260.139 227.561C259.781 227.537 259.428 227.506 259.082 227.463C258.891 227.44 258.701 227.414 258.514 227.385C258.498 227.383 258.482 227.379 258.466 227.377C258.371 227.361 258.278 227.345 258.185 227.328C257.958 227.287 257.733 227.243 257.513 227.192C257.228 227.126 256.951 227.051 256.681 226.967H256.68L256.681 226.995L256.703 227.463H225.166V212.052L225.162 212.057C224.997 212.231 220.423 217.042 216.064 220.769C215.785 221.008 215.509 221.241 215.234 221.469C214.805 221.824 214.382 222.164 213.967 222.484C212.843 223.357 211.468 223.847 210.045 223.882C209.947 223.884 209.85 223.884 209.753 223.881C208.956 223.865 208.169 223.705 207.429 223.409C206.972 223.226 206.478 223.022 205.947 222.797C200.994 220.691 193.094 216.701 186.63 210.532L187.073 209.846H187.074L190.924 203.893L190.994 203.781L191.186 203.487C191.191 203.489 191.196 203.491 191.201 203.492C191.591 203.64 200.094 206.892 205.337 209.52C206.332 210.018 207.21 210.494 207.892 210.922C207.894 210.92 207.896 210.917 207.897 210.915C208.148 210.561 217.075 198.014 223.564 193.372C224.767 192.511 226.14 191.919 227.592 191.635C229.325 191.295 232.459 190.746 236.285 190.367C236.762 190.32 237.25 190.275 237.747 190.234C237.753 190.233 237.76 190.233 237.766 190.232C237.845 190.225 237.923 190.218 238.002 190.213C238.385 190.181 238.774 190.153 239.169 190.126C241.118 189.995 243.184 189.923 245.292 189.949C245.635 189.953 245.978 189.96 246.321 189.969C246.391 189.97 246.459 189.973 246.529 189.975C246.537 189.975 246.544 189.976 246.552 189.976C246.594 189.977 246.638 189.978 246.68 189.98C246.759 189.982 246.837 189.986 246.915 189.989C247.107 189.995 247.297 190.004 247.488 190.012C249.738 190.106 251.98 190.35 254.197 190.744C254.767 190.846 255.331 190.961 255.889 191.089C256.547 191.239 257.188 191.455 257.803 191.734C259.154 192.351 260.361 193.245 261.344 194.359C263.926 197.272 268.041 202.812 270.793 210.959C271.581 213.293 272.206 215.679 272.663 218.1C273.499 222.506 270.541 226.735 266.22 227.294Z" fill="#2C34F1"/>
<path d="M239.109 190.673C239.09 190.715 239.072 190.757 239.053 190.799C237.558 194.154 236.531 197.698 235.998 201.332C235.67 203.584 235.53 205.874 235.393 208.085V208.087L235.071 213.33L234.966 215.051L234.814 217.547L234.408 224.161L234.353 225.05L234.205 227.464H233.976L234.124 225.05L234.182 224.115L234.588 217.485L234.769 214.544L234.852 213.19L235.165 208.087L235.166 208.071C235.302 205.853 235.442 203.559 235.773 201.299C236.306 197.659 237.333 194.109 238.826 190.747C238.85 190.691 238.875 190.635 238.9 190.579L239.109 190.673Z" fill="white"/>
<path d="M241.937 191.047C241.921 191.086 241.905 191.127 241.888 191.166C241.694 191.635 241.505 192.106 241.323 192.579C239.407 197.532 238.141 202.671 237.331 208.108C237.321 208.188 237.308 208.268 237.296 208.347C237.01 210.308 236.78 212.309 236.606 214.351C236.51 215.433 236.429 216.527 236.363 217.634C236.358 217.714 236.353 217.794 236.348 217.876C236.22 220.019 236.14 222.211 236.097 224.459C236.093 224.655 236.089 224.852 236.087 225.049C236.073 225.847 236.064 226.651 236.06 227.463H235.827C235.831 226.668 235.84 225.863 235.852 225.049C235.856 224.84 235.859 224.631 235.863 224.422C235.904 222.289 235.983 220.102 236.117 217.888C236.127 217.701 236.139 217.514 236.151 217.325C236.218 216.292 236.297 215.255 236.391 214.214C236.46 213.434 236.538 212.653 236.625 211.871C236.761 210.643 236.915 209.441 237.089 208.264C237.098 208.205 237.106 208.148 237.115 208.09C237.974 202.36 239.288 197.226 241.099 192.526C241.275 192.064 241.457 191.607 241.645 191.155C241.671 191.089 241.698 191.024 241.725 190.959L241.937 191.047Z" fill="white"/>
<path d="M244.618 190.827C244.608 190.864 244.6 190.902 244.59 190.939C244.542 191.128 244.495 191.318 244.448 191.509C242.427 199.749 241.558 208.257 240.954 216.656C240.941 216.829 240.929 217 240.917 217.172C240.801 218.821 240.691 220.466 240.589 222.105C240.564 222.497 240.539 222.89 240.514 223.282L240.484 223.748L240.427 224.637L240.41 224.918L240.249 227.463H240.021L240.183 224.902L240.19 224.773L240.247 223.884L240.257 223.734C240.317 222.774 240.379 221.811 240.441 220.845C240.533 219.421 240.63 217.992 240.732 216.559C240.747 216.362 240.76 216.164 240.775 215.965C241.37 207.893 242.231 199.729 244.145 191.798C244.209 191.529 244.275 191.26 244.342 190.991C244.361 190.917 244.38 190.843 244.398 190.769L244.618 190.827Z" fill="white"/>
<path d="M246.918 189.975C246.917 189.98 246.915 189.984 246.914 189.989C246.069 193.042 245.763 196.539 245.51 199.974C245.488 200.272 245.466 200.569 245.444 200.866C245.376 201.819 245.31 202.717 245.234 203.601C245.098 205.174 244.963 206.747 244.829 208.32C244.609 210.865 244.39 213.409 244.173 215.954C244.166 216.017 244.161 216.08 244.156 216.143C244.152 216.185 244.148 216.227 244.145 216.268C244.103 216.751 244.061 217.234 244.02 217.716C243.968 218.321 243.916 218.925 243.865 219.53C243.814 220.12 243.763 220.711 243.712 221.301C243.661 221.887 243.611 222.473 243.561 223.059C243.504 223.719 243.447 224.379 243.391 225.038C243.321 225.848 243.252 226.656 243.183 227.464H242.953C243.022 226.654 243.092 225.844 243.162 225.034C243.295 223.488 243.428 221.942 243.561 220.396C243.611 219.809 243.662 219.223 243.712 218.638C243.74 218.31 243.768 217.984 243.797 217.656C243.819 217.393 243.841 217.129 243.865 216.865C243.88 216.682 243.895 216.499 243.913 216.315C243.915 216.269 243.919 216.222 243.925 216.177C243.928 216.117 243.933 216.058 243.939 215.999C244.294 211.859 244.65 207.72 245.007 203.582C245.082 202.701 245.147 201.802 245.217 200.85C245.486 197.142 245.766 193.308 246.679 189.982C246.685 189.959 246.691 189.937 246.697 189.914L246.918 189.975Z" fill="white"/>
<path d="M266.22 227.294C264.259 227.547 262.13 227.692 260.139 227.561C259.802 227.543 259.441 227.512 259.059 227.463C258.882 227.441 258.7 227.415 258.514 227.385C258.498 227.383 258.481 227.379 258.466 227.377C257.863 227.278 257.267 227.141 256.681 226.967H256.68C256.68 226.97 256.681 226.973 256.681 226.976C256.703 227.138 256.724 227.301 256.746 227.463H245.91C245.937 227.05 245.961 226.637 245.98 226.224C245.982 226.17 245.984 226.116 245.986 226.062C245.989 226.014 245.991 225.967 245.992 225.92C246.005 225.625 246.015 225.331 246.023 225.039C246.089 222.59 245.996 220.213 245.673 218.06C245.619 217.695 245.557 217.338 245.489 216.987C245.433 216.695 245.379 216.399 245.33 216.102C245.324 216.061 245.317 216.021 245.311 215.98C245.301 215.921 245.291 215.86 245.282 215.8C244.919 213.324 244.767 210.821 244.829 208.319C244.891 205.526 245.118 202.739 245.51 199.973C245.967 196.616 246.627 193.289 247.488 190.012C249.738 190.106 251.979 190.35 254.196 190.744C254.766 190.846 255.33 190.961 255.888 191.089C256.546 191.239 257.188 191.455 257.802 191.734C259.154 192.351 260.36 193.245 261.343 194.359C263.925 197.272 268.04 202.812 270.792 210.959C271.58 213.294 272.205 215.679 272.662 218.1C273.499 222.506 270.541 226.735 266.22 227.294Z" fill="#6595F7"/>
<path d="M193.354 205.673C193.354 205.673 188.95 203.443 185.332 194.828C185.307 194.767 185.263 194.715 185.208 194.68C185.152 194.645 185.087 194.629 185.021 194.633C184.956 194.636 184.893 194.66 184.842 194.702C184.79 194.743 184.753 194.799 184.735 194.862C184.325 196.319 184.149 197.831 184.213 199.342C184.216 199.376 184.207 199.409 184.19 199.438C184.172 199.467 184.146 199.49 184.116 199.504C184.085 199.517 184.05 199.521 184.017 199.515C183.984 199.508 183.954 199.491 183.93 199.467C182.982 198.48 180.158 195.485 178.564 193.197C178.521 193.137 178.46 193.093 178.389 193.074C178.318 193.054 178.242 193.06 178.175 193.09C178.108 193.12 178.053 193.173 178.021 193.239C177.989 193.305 177.98 193.38 177.997 193.452C178.243 194.438 178.826 195.89 180.192 197.658C180.215 197.688 180.227 197.725 180.225 197.763C180.222 197.801 180.206 197.837 180.179 197.865C180.152 197.892 180.116 197.908 180.078 197.91C180.04 197.912 180.002 197.901 179.972 197.877C179.064 197.157 177.787 196.085 176.877 195.082C176.828 195.027 176.76 194.992 176.688 194.982C176.615 194.971 176.54 194.987 176.478 195.026C176.415 195.065 176.368 195.124 176.345 195.194C176.321 195.264 176.323 195.339 176.35 195.408C176.741 196.404 177.519 197.787 179.063 199.295C179.09 199.322 179.106 199.357 179.109 199.394C179.112 199.432 179.102 199.469 179.08 199.5C179.057 199.53 179.025 199.552 178.988 199.56C178.951 199.568 178.913 199.563 178.879 199.545C178.109 199.132 177.376 198.653 176.687 198.115C176.629 198.069 176.556 198.044 176.482 198.046C176.408 198.048 176.336 198.076 176.281 198.126C176.225 198.175 176.189 198.243 176.178 198.316C176.167 198.39 176.183 198.465 176.222 198.528C176.975 199.692 177.947 200.698 179.085 201.489C179.114 201.51 179.135 201.54 179.145 201.574C179.156 201.608 179.154 201.645 179.14 201.678C179.126 201.711 179.102 201.738 179.071 201.756C179.039 201.773 179.003 201.779 178.968 201.773C178.476 201.68 177.997 201.529 177.54 201.324C177.475 201.294 177.402 201.287 177.332 201.304C177.262 201.321 177.201 201.362 177.157 201.419C177.114 201.476 177.091 201.546 177.093 201.618C177.095 201.69 177.121 201.759 177.168 201.814C178.784 203.697 182.542 207.354 190.187 211.711L193.354 205.673Z" fill="#F59060"/>
<path d="M184.23 205.053C183.513 203.155 184.512 200.697 184.522 200.673L184.593 200.502L184.408 200.495C184.331 200.491 182.495 200.446 180.833 203.06L181.051 203.198C182.325 201.195 183.715 200.832 184.21 200.766C183.982 201.399 183.346 203.445 183.989 205.145L184.23 205.053Z" fill="#131313"/>
<path d="M233.115 212.879C233.433 213.918 233.559 215.409 233.543 217.195C233.528 218.691 233.417 220.394 233.233 222.213C233.223 222.308 233.213 222.404 233.203 222.5C233.156 222.947 233.106 223.399 233.052 223.857C233.005 224.251 232.956 224.649 232.904 225.05C232.801 225.844 232.688 226.651 232.568 227.464H223.108L223.434 225.05L224.488 217.217L224.789 214.979L225.165 212.181L225.183 212.052L225.178 212.057C225.174 212.062 225.169 212.067 225.165 212.072C224.848 212.407 220.349 217.122 216.065 220.785C215.787 221.022 215.511 221.256 215.235 221.483C214.812 221.832 214.393 222.168 213.984 222.484C212.855 223.361 211.473 223.851 210.044 223.882C209.946 223.884 209.849 223.884 209.753 223.881C208.961 223.863 208.18 223.703 207.445 223.409C206.982 223.224 206.479 223.017 205.942 222.789C200.988 220.679 193.101 216.692 186.646 210.532L187.085 209.854L191.002 203.796L191.005 203.794V203.792L191.199 203.492L191.203 203.487C191.203 203.487 199.966 206.822 205.336 209.511C206.331 210.009 207.211 210.486 207.896 210.915C207.9 210.917 207.903 210.92 207.908 210.922C207.908 210.922 216.998 198.08 223.58 193.372C224.783 192.511 226.156 191.919 227.607 191.635C229.34 191.295 232.474 190.746 236.3 190.367C236.3 190.367 232.807 200.491 232.612 208.087C232.567 209.882 232.704 211.534 233.115 212.879Z" fill="#6595F7"/>
<path d="M225.319 203.585H225.015V212.051H225.319V203.585Z" fill="#131313"/>
<path d="M239.001 225.049H219.421C217.847 225.049 216.419 223.77 216.232 222.193L214.899 210.945C214.712 209.367 215.837 208.088 217.411 208.088H236.991C238.565 208.088 239.993 209.367 240.18 210.945L241.513 222.193C241.7 223.77 240.575 225.049 239.001 225.049Z" fill="#131313"/>
<path d="M238.088 225.049H218.508C216.934 225.049 215.506 223.77 215.319 222.193L213.986 210.945C213.799 209.367 214.924 208.088 216.498 208.088H236.078C237.652 208.088 239.08 209.367 239.267 210.945L240.6 222.193C240.787 223.77 239.662 225.049 238.088 225.049Z" fill="#6445F1"/>
<path d="M227.301 219.211C228.592 218.957 229.406 217.568 229.119 216.109C228.832 214.65 227.552 213.673 226.261 213.927C224.97 214.181 224.157 215.57 224.444 217.029C224.731 218.488 226.01 219.465 227.301 219.211Z" fill="white"/>
<path d="M247.108 225.014C245.906 225.048 244.774 225.058 243.713 225.042C237.494 224.959 233.666 224.096 231.71 223.484C231.642 223.462 231.583 223.418 231.543 223.358C231.503 223.298 231.485 223.226 231.492 223.155C231.499 223.083 231.529 223.016 231.579 222.964C231.629 222.913 231.695 222.88 231.767 222.871C232.263 222.803 232.749 222.677 233.216 222.495C233.249 222.481 233.276 222.457 233.294 222.426C233.311 222.395 233.318 222.359 233.312 222.323C233.306 222.288 233.288 222.256 233.262 222.232C233.235 222.208 233.201 222.194 233.165 222.192C231.781 222.124 230.424 221.785 229.169 221.197C229.102 221.164 229.049 221.109 229.019 221.041C228.99 220.972 228.985 220.896 229.005 220.825C229.026 220.753 229.072 220.692 229.134 220.651C229.196 220.61 229.27 220.592 229.344 220.6C230.213 220.692 231.089 220.709 231.962 220.652C231.999 220.649 232.034 220.633 232.061 220.607C232.088 220.58 232.104 220.545 232.107 220.507C232.11 220.47 232.099 220.432 232.076 220.402C232.054 220.372 232.021 220.351 231.984 220.343C229.875 219.882 228.484 219.121 227.624 218.483C227.565 218.439 227.523 218.376 227.506 218.304C227.489 218.232 227.497 218.157 227.529 218.091C227.562 218.025 227.617 217.972 227.684 217.942C227.752 217.912 227.827 217.906 227.898 217.926C229.201 218.296 230.852 218.527 232.004 218.658C232.042 218.662 232.08 218.652 232.112 218.63C232.143 218.608 232.165 218.575 232.173 218.538C232.182 218.501 232.177 218.461 232.158 218.428C232.14 218.394 232.11 218.368 232.074 218.355C229.978 217.579 228.715 216.657 227.985 215.951C227.932 215.899 227.9 215.831 227.892 215.758C227.885 215.685 227.903 215.611 227.944 215.55C227.985 215.489 228.046 215.444 228.117 215.423C228.187 215.402 228.263 215.406 228.33 215.435C230.895 216.531 234.876 217.575 236.203 217.91C236.236 217.918 236.27 217.916 236.302 217.904C236.333 217.892 236.36 217.871 236.379 217.843C236.398 217.815 236.408 217.782 236.408 217.748C236.408 217.714 236.397 217.682 236.378 217.654C235.522 216.406 234.87 215.031 234.447 213.579C234.428 213.515 234.43 213.448 234.451 213.386C234.473 213.324 234.513 213.27 234.567 213.232C234.621 213.194 234.685 213.174 234.75 213.174C234.816 213.174 234.88 213.195 234.934 213.233C238.546 215.786 241.551 217.03 243.713 217.633C244.551 217.872 245.408 218.041 246.274 218.137L247.108 225.014Z" fill="#F59060"/>
<path d="M247.257 226.24L243.713 225.744V216.205L246 215.883L246.274 218.138L247.108 225.014L247.257 226.24Z" fill="#6595F7"/>
<path d="M256.402 227.12C251.491 227.12 243.768 225.907 243.689 225.894L243.561 225.874V216.088L243.674 216.058C246.449 215.328 260.433 215.179 261.027 215.173L261.03 215.477C260.887 215.479 246.864 215.628 243.865 216.325V225.613C244.916 225.775 252.15 226.859 256.679 226.815L256.682 227.119C256.59 227.12 256.496 227.12 256.402 227.12Z" fill="#131313"/>
<path d="M253.985 203.545L253.691 203.626L256.92 215.366L257.213 215.285L253.985 203.545Z" fill="#131313"/>
<path d="M242.339 191.174C240.764 191.157 239.2 190.908 237.697 190.437L237.794 190.149C237.847 190.167 243.125 191.9 246.472 189.882L246.629 190.143C245.329 190.926 243.779 191.174 242.339 191.174Z" fill="#131313"/>
<path d="M191.005 203.794L186.37 209.398L187.085 209.854L191.005 203.794Z" fill="#131313"/>
<path d="M216.337 210.858C216.643 210.858 216.891 210.609 216.891 210.303C216.891 209.997 216.643 209.749 216.337 209.749C216.03 209.749 215.782 209.997 215.782 210.303C215.782 210.609 216.03 210.858 216.337 210.858Z" fill="#131313"/>
<path d="M218.13 210.858C218.437 210.858 218.685 210.609 218.685 210.303C218.685 209.997 218.437 209.749 218.13 209.749C217.824 209.749 217.576 209.997 217.576 210.303C217.576 210.609 217.824 210.858 218.13 210.858Z" fill="#131313"/>
<path d="M236.596 181.971C235.615 181.971 234.815 180.92 234.815 179.628C234.815 178.336 235.614 177.285 236.596 177.285C237.579 177.285 238.377 178.336 238.377 179.628C238.377 180.92 237.578 181.971 236.596 181.971ZM236.596 177.612C235.795 177.612 235.142 178.517 235.142 179.628C235.142 180.74 235.794 181.645 236.596 181.645C237.399 181.645 238.051 180.74 238.051 179.628C238.051 178.517 237.398 177.612 236.596 177.612Z" fill="#2C34F1"/>
<path d="M240.863 181.971C239.881 181.971 239.082 180.92 239.082 179.628C239.082 178.336 239.881 177.285 240.863 177.285C241.845 177.285 242.644 178.336 242.644 179.628C242.644 180.92 241.845 181.971 240.863 181.971ZM240.863 177.612C240.062 177.612 239.409 178.517 239.409 179.628C239.409 180.74 240.061 181.645 240.863 181.645C241.665 181.645 242.317 180.74 242.317 179.628C242.317 178.517 241.665 177.612 240.863 177.612Z" fill="#2C34F1"/>
<path d="M238.27 179.782L238.158 179.475C238.185 179.466 238.817 179.24 239.318 179.482L239.176 179.775C238.8 179.595 238.275 179.78 238.27 179.782Z" fill="#2C34F1"/>
<path d="M247.102 179.592H247.101L242.47 179.552C242.449 179.552 242.427 179.548 242.408 179.539C242.388 179.531 242.37 179.519 242.355 179.504C242.34 179.489 242.328 179.47 242.32 179.451C242.312 179.431 242.308 179.41 242.308 179.388C242.308 179.367 242.312 179.345 242.32 179.326C242.329 179.306 242.341 179.288 242.356 179.273C242.371 179.258 242.389 179.246 242.409 179.238C242.429 179.23 242.45 179.225 242.472 179.226H242.473L247.104 179.266C247.125 179.266 247.146 179.27 247.166 179.279C247.186 179.287 247.204 179.299 247.219 179.314C247.234 179.329 247.246 179.347 247.254 179.367C247.262 179.387 247.266 179.408 247.266 179.43C247.266 179.451 247.262 179.472 247.253 179.492C247.245 179.512 247.233 179.53 247.218 179.545C247.203 179.56 247.185 179.572 247.165 179.58C247.145 179.588 247.124 179.592 247.102 179.592V179.592Z" fill="#2C34F1"/>
<path d="M247.506 186.938C247.122 186.938 246.746 186.824 246.427 186.611C246.107 186.397 245.858 186.094 245.711 185.739C245.564 185.384 245.526 184.994 245.601 184.617C245.676 184.24 245.861 183.894 246.132 183.623C246.404 183.351 246.75 183.166 247.127 183.091C247.504 183.016 247.894 183.055 248.249 183.202C248.604 183.349 248.907 183.598 249.121 183.917C249.334 184.236 249.448 184.612 249.448 184.996C249.447 185.511 249.242 186.005 248.878 186.369C248.514 186.733 248.021 186.937 247.506 186.938ZM247.506 183.38C247.186 183.38 246.874 183.475 246.608 183.652C246.342 183.83 246.135 184.082 246.013 184.378C245.891 184.673 245.859 184.998 245.921 185.311C245.983 185.625 246.137 185.913 246.363 186.139C246.589 186.364 246.877 186.518 247.19 186.581C247.504 186.643 247.829 186.611 248.124 186.489C248.419 186.367 248.672 186.159 248.849 185.894C249.027 185.628 249.121 185.316 249.121 184.996C249.121 184.568 248.951 184.157 248.648 183.854C248.345 183.551 247.934 183.381 247.506 183.38Z" fill="#6595F7"/>
<path d="M247.186 183.585C247.35 183.585 247.483 183.452 247.483 183.288C247.483 183.123 247.35 182.99 247.186 182.99C247.022 182.99 246.889 183.123 246.889 183.288C246.889 183.452 247.022 183.585 247.186 183.585Z" fill="#6595F7"/>
<path d="M198.629 176.026C194.853 176.026 191.162 174.906 188.023 172.809C184.883 170.711 182.436 167.729 180.991 164.241C179.546 160.753 179.168 156.914 179.905 153.211C180.642 149.508 182.46 146.106 185.13 143.436C187.8 140.766 191.201 138.948 194.904 138.212C198.608 137.475 202.446 137.853 205.934 139.298C209.423 140.743 212.404 143.19 214.502 146.329C216.6 149.469 217.719 153.16 217.719 156.935C217.714 161.997 215.7 166.849 212.121 170.428C208.543 174.007 203.69 176.02 198.629 176.026ZM198.629 138.462C194.975 138.462 191.403 139.546 188.365 141.575C185.328 143.605 182.96 146.49 181.562 149.866C180.163 153.242 179.798 156.956 180.51 160.539C181.223 164.123 182.983 167.415 185.566 169.998C188.15 172.582 191.441 174.341 195.025 175.054C198.608 175.767 202.323 175.401 205.698 174.003C209.074 172.604 211.959 170.237 213.989 167.199C216.019 164.161 217.102 160.589 217.102 156.935C217.097 152.038 215.148 147.342 211.685 143.879C208.222 140.416 203.526 138.468 198.629 138.462Z" fill="#6445F1"/>
<path d="M204.801 181.89C215.174 181.89 223.583 173.481 223.583 163.108C223.583 152.735 215.174 144.326 204.801 144.326C194.428 144.326 186.02 152.735 186.02 163.108C186.02 173.481 194.428 181.89 204.801 181.89Z" fill="#2C34F1"/>
<path d="M206.703 151.879C204.342 154.679 201.602 157.136 198.562 159.178C198.346 163.763 196.9 168.206 194.376 172.04C198.465 169.907 203.115 169.095 207.684 169.718C209.909 166.899 212.895 164.778 216.289 163.605L206.703 151.879Z" fill="white"/>
<path d="M194.377 172.452C194.293 172.452 194.211 172.426 194.142 172.378C194.073 172.331 194.02 172.263 193.991 172.184C193.962 172.106 193.957 172.02 193.977 171.939C193.998 171.858 194.043 171.785 194.106 171.73L204.012 163.113C204.094 163.043 204.201 163.008 204.309 163.016C204.418 163.024 204.518 163.074 204.589 163.156C204.661 163.238 204.697 163.345 204.69 163.453C204.683 163.561 204.633 163.662 204.552 163.734L194.646 172.351C194.572 172.416 194.476 172.452 194.377 172.452Z" fill="#131313"/>
<path d="M204.722 164.581C205.581 164.581 206.276 163.885 206.276 163.027C206.276 162.168 205.581 161.473 204.722 161.473C203.864 161.473 203.168 162.168 203.168 163.027C203.168 163.885 203.864 164.581 204.722 164.581Z" fill="#131313"/>
<path d="M216.29 164.017C216.229 164.017 216.169 164.004 216.114 163.977C216.058 163.951 216.01 163.913 215.971 163.866L206.385 152.139C206.318 152.055 206.287 151.947 206.298 151.84C206.31 151.732 206.363 151.634 206.447 151.566C206.531 151.497 206.638 151.464 206.745 151.474C206.853 151.484 206.952 151.536 207.022 151.619L216.608 163.345C216.658 163.405 216.689 163.478 216.698 163.556C216.708 163.633 216.695 163.711 216.662 163.782C216.628 163.852 216.576 163.912 216.51 163.953C216.444 163.995 216.368 164.017 216.29 164.017Z" fill="#131313"/>
</svg>
