<svg width="267" height="287" viewBox="0 0 267 287" fill="none" xmlns="http://www.w3.org/2000/svg">
<path d="M44.8987 72.9222C51.6989 72.9222 56.5108 68.7864 57.1868 62.7417H51.1819C50.4661 65.8436 48.2391 67.8717 44.8589 67.8717C40.3652 67.8717 37.7007 64.0938 37.7007 58.765C37.7007 53.3963 40.4049 49.6582 44.9384 49.6582C48.2391 49.6582 50.4661 51.6863 51.1819 54.7882H57.2266C56.5108 48.7435 51.858 44.6077 45.2566 44.6077C36.8259 44.6077 31.6163 50.2149 31.6163 58.765C31.6163 67.315 36.627 72.9222 44.8987 72.9222ZM70.119 72.9222C76.6409 72.9222 80.896 68.7864 80.896 62.4633C80.896 56.1801 76.6409 52.0045 70.119 52.0045C63.5972 52.0045 59.342 56.1801 59.342 62.4633C59.342 68.7466 63.5972 72.9222 70.119 72.9222ZM70.119 68.3489C66.9774 68.3489 65.0686 65.9231 65.0686 62.4633C65.0686 59.0036 66.9774 56.5777 70.119 56.5777C73.2607 56.5777 75.2093 59.0036 75.2093 62.4633C75.2093 65.9231 73.2607 68.3489 70.119 68.3489ZM108.439 52.0045C105.338 52.0045 102.951 53.277 101.52 55.4643C100.247 52.8794 97.901 51.9647 95.3956 52.0045C92.4131 52.0443 90.6235 53.1975 89.3907 54.7882L88.8738 52.2431H83.9824V72.6836H89.5896V61.5487C89.5896 58.4866 91.1803 56.6175 93.6061 56.6175C96.0717 56.6175 97.1852 58.2082 97.1852 61.2703V72.6836H102.792V61.5089C102.792 58.4071 104.423 56.6175 106.849 56.6175C109.275 56.6175 110.388 58.2082 110.388 61.2703V72.6836H115.995V60.9522C115.995 54.3905 112.655 52.0045 108.439 52.0045ZM143.974 52.0045C140.872 52.0045 138.486 53.277 137.054 55.4643C135.782 52.8794 133.435 51.9647 130.93 52.0045C127.948 52.0443 126.158 53.1975 124.925 54.7882L124.408 52.2431H119.517V72.6836H125.124V61.5487C125.124 58.4866 126.715 56.6175 129.141 56.6175C131.606 56.6175 132.72 58.2082 132.72 61.2703V72.6836H138.327V61.5089C138.327 58.4071 139.957 56.6175 142.383 56.6175C144.809 56.6175 145.922 58.2082 145.922 61.2703V72.6836H151.53V60.9522C151.53 54.3905 148.189 52.0045 143.974 52.0045ZM168.692 62.4633C168.692 66.2413 167.061 68.2694 164.277 68.2694C161.494 68.2694 160.301 66.4799 160.301 62.8213V52.2431H154.693V63.5768C154.693 70.8145 158.591 72.9222 162.806 72.9222C165.709 72.9222 167.498 71.8087 168.811 70.218L169.328 72.6836H174.299V52.2431H168.692V62.4633ZM189.929 52.0045C186.787 52.0045 184.918 53.1975 183.606 54.7882L183.089 52.2431H178.197V72.6836H183.804V62.2247C183.804 58.6854 185.475 56.6175 188.378 56.6175C191.201 56.6175 192.513 58.4468 192.513 61.9066V72.6836H198.121V61.3499C198.121 54.3508 194.343 52.0045 189.929 52.0045ZM204.477 50.0559C206.307 50.0559 207.738 48.7038 207.738 46.9142C207.738 45.0849 206.307 43.7328 204.477 43.7328C202.648 43.7328 201.216 45.0849 201.216 46.9142C201.216 48.7038 202.648 50.0559 204.477 50.0559ZM201.654 72.6836H207.301V52.2431H201.654V72.6836ZM212.64 66.8378C212.64 70.735 214.588 72.6836 218.486 72.6836H223.059V67.9513H220.275C218.804 67.9513 218.247 67.3547 218.247 65.9231V56.9754H222.94V52.2431H218.247V46.5166H212.64V52.2431H209.26V56.9754H212.64V66.8378ZM231.54 72.8029L231.023 74.155C230.466 75.5469 229.989 75.9048 228.557 75.9048H225.455V80.6371H230.903C234.085 80.6371 235.119 78.9669 236.391 75.5866L245.458 52.2431H239.453L234.602 66.798L229.631 52.2431H223.666L231.54 72.8029ZM32.7817 95.2342C32.7817 97.5684 33.6894 98.6836 36.2311 98.6836H38.5393V96.7384H36.4386C35.2974 96.7384 34.9084 96.3235 34.9084 95.2083V87.4017H38.3318V85.4566H34.9084V81.7478H32.7817V85.4566H30.3956V87.4017H32.7817V95.2342ZM46.1477 98.8392C49.2081 98.8392 51.3866 96.8941 51.9053 94.2487H49.7527C49.3118 95.9604 47.8594 96.9459 45.9921 96.9459C43.4763 96.9459 41.8943 95.1823 41.8165 92.6666V92.485H52.0869C52.1128 92.1738 52.1388 91.8626 52.1388 91.5773C52.035 87.6611 49.5971 85.301 45.8624 85.301C42.1277 85.301 39.586 88.0501 39.586 92.0701C39.586 96.116 42.1796 98.8392 46.1477 98.8392ZM41.9462 90.7214C42.1536 88.5688 43.9432 87.1683 45.8883 87.1683C48.0928 87.1683 49.649 88.4391 49.8564 90.7214H41.9462ZM69.3227 85.301C66.9626 85.301 65.5362 86.3902 64.7322 87.8167C63.9801 86.1309 62.398 85.301 60.5566 85.301C58.5077 85.301 57.3925 86.3124 56.6922 87.272L56.4069 85.4566H54.5655V98.6836H56.6922V91.707C56.6922 89.0616 58.0149 87.2461 60.1935 87.2461C62.2165 87.2461 63.3835 88.5947 63.3835 91.1883V98.6836H65.5102V91.6032C65.5102 88.906 66.8589 87.2461 69.0634 87.2461C71.0604 87.2461 72.2016 88.5947 72.2016 91.1883V98.6836H74.3283V91.0586C74.3283 86.883 72.0719 85.301 69.3227 85.301ZM83.7217 85.301C81.4913 85.301 80.0648 86.3643 79.183 87.5833L78.8977 85.4566H77.0563V103.871H79.183V96.6606C79.987 97.9315 81.4913 98.8392 83.7217 98.8392C87.3786 98.8392 90.0759 96.116 90.0759 92.0701C90.0759 87.7648 87.3786 85.301 83.7217 85.301ZM83.5142 96.9459C80.9207 96.9459 79.1571 94.923 79.1571 92.0182C79.1571 89.1913 80.9207 87.1942 83.5142 87.1942C86.1337 87.1942 87.8973 89.1913 87.8973 92.0701C87.8973 94.9489 86.1337 96.9459 83.5142 96.9459ZM92.5061 98.6836H94.6328V80.5289H92.5061V98.6836ZM109.243 96.7384C108.647 96.7384 108.387 96.5569 108.387 95.8566V90.0731C108.387 86.9868 106.442 85.301 103.07 85.301C99.8804 85.301 97.7797 86.8311 97.4684 89.4247H99.5951C99.8545 88.076 101.099 87.1942 102.967 87.1942C105.042 87.1942 106.261 88.2317 106.261 89.9434V90.8511H102.37C98.8949 90.8511 97.0535 92.3294 97.0535 94.9748C97.0535 97.3868 99.0246 98.8392 101.929 98.8392C104.212 98.8392 105.534 97.8277 106.364 96.6347C106.39 97.9315 106.987 98.6836 108.75 98.6836H109.917V96.7384H109.243ZM106.261 93.289C106.261 95.4935 104.73 97.0237 102.085 97.0237C100.321 97.0237 99.2061 96.1419 99.2061 94.8452C99.2061 93.3409 100.269 92.6407 102.163 92.6407H106.261V93.289ZM112.538 95.2342C112.538 97.5684 113.446 98.6836 115.987 98.6836H118.296V96.7384H116.195C115.054 96.7384 114.665 96.3235 114.665 95.2083V87.4017H118.088V85.4566H114.665V81.7478H112.538V85.4566H110.152V87.4017H112.538V95.2342ZM125.904 98.8392C128.964 98.8392 131.143 96.8941 131.662 94.2487H129.509C129.068 95.9604 127.616 96.9459 125.748 96.9459C123.233 96.9459 121.651 95.1823 121.573 92.6666V92.485H131.843C131.869 92.1738 131.895 91.8626 131.895 91.5773C131.791 87.6611 129.353 85.301 125.619 85.301C121.884 85.301 119.342 88.0501 119.342 92.0701C119.342 96.116 121.936 98.8392 125.904 98.8392ZM121.702 90.7214C121.91 88.5688 123.699 87.1683 125.645 87.1683C127.849 87.1683 129.405 88.4391 129.613 90.7214H121.702ZM133.726 94.3265C133.778 97.2312 136.138 98.8392 139.562 98.8392C142.493 98.8392 144.853 97.309 144.853 94.8452C144.853 91.9145 142.441 91.3439 139.432 90.9808C137.513 90.7474 136.112 90.5658 136.112 89.1135C136.112 87.8945 137.357 87.1164 139.199 87.1164C141.014 87.1164 142.259 88.1279 142.415 89.4765H144.593C144.386 86.7274 142.207 85.3269 139.199 85.301C136.216 85.275 134.012 86.8571 134.012 89.2691C134.012 92.0182 136.372 92.6147 139.328 92.9778C141.3 93.2112 142.752 93.3409 142.752 95.0008C142.752 96.2197 141.429 97.0237 139.562 97.0237C137.357 97.0237 135.983 95.8826 135.905 94.3265H133.726Z" fill="white"/>
<path d="M121.032 199.745C117.54 193.499 119.804 186.071 121.414 179.241C122.987 172.576 123.867 165.766 124.041 158.92C124.122 155.677 123.988 152.25 122.078 149.49C120.209 146.788 116.937 145.152 113.769 143.705C101.349 138.034 86.6202 133.43 73.7298 138.192C64.7635 141.505 58.1319 149.378 57.0637 157.98C55.9954 166.582 60.5341 175.559 68.4703 180.541C72.8632 183.298 78.1732 184.905 82.0289 188.241C88.3695 193.727 88.9951 203.634 83.3847 209.72C79.2331 214.225 72.7427 216.315 67.113 219.28C58.4939 223.821 51.5135 230.794 47.43 238.945C45.07 243.655 43.7823 249.468 47.0154 253.746C52.3257 260.773 64.7723 258.196 72.4686 253.226C80.1649 248.257 87.6737 241.323 97.1659 241.704C102.975 241.938 108.097 244.957 113.136 247.545C122.788 252.481 133.048 256.118 143.65 258.361C151.801 260.095 160.378 261.017 168.536 259.31C176.694 257.602 184.399 252.901 187.555 245.978C191.77 236.734 186.658 225.512 177.584 219.671C162.468 209.941 130.767 217.162 121.032 199.745Z" fill="#F5F3E3" fill-opacity="0.4"/>
<path d="M151.913 181.17C152.58 189.242 155.865 197.459 162.673 202.824C171.455 209.743 184.147 210.708 195.872 210.925C205.841 211.109 213.136 210.709 219.93 207.812C226.477 205.021 228.16 202.197 228.639 201.299C231.44 196.05 229.226 188.929 224.479 185.606C222.694 184.356 219.082 183.861 211.93 182.923C204.079 181.893 200.845 181.992 195.4 180.198C189.549 178.27 188.449 176.562 188.111 175.947C186.714 173.404 188.246 171.163 189.592 166.792C190.73 163.094 193.483 154.15 189.619 147.311C188.852 145.952 186.262 141.913 181.319 140.336C171.381 137.163 160.583 146.701 159.828 147.385C147.672 158.402 151.468 175.79 151.913 181.17Z" fill="#F5F3E3" fill-opacity="0.4"/>
<path d="M93.5907 191.036H42.1003C41.5539 191.035 41.0299 190.818 40.6435 190.432C40.2571 190.045 40.0397 189.521 40.0391 188.975V151.638C40.0397 151.092 40.2571 150.568 40.6435 150.182C41.03 149.795 41.5539 149.578 42.1003 149.577H93.5907C94.1371 149.578 94.6611 149.795 95.0475 150.182C95.4339 150.568 95.6513 151.092 95.6519 151.638V188.975C95.6513 189.521 95.4339 190.045 95.0475 190.432C94.6611 190.818 94.1371 191.035 93.5907 191.036ZM42.1003 150.348C41.7583 150.349 41.4304 150.485 41.1885 150.727C40.9466 150.969 40.8106 151.297 40.8103 151.639V188.975C40.8106 189.317 40.9466 189.645 41.1885 189.887C41.4304 190.128 41.7583 190.264 42.1003 190.265H93.5907C93.9327 190.264 94.2607 190.128 94.5026 189.887C94.7444 189.645 94.8804 189.317 94.8808 188.975V151.638C94.8804 151.296 94.7444 150.968 94.5026 150.726C94.2607 150.485 93.9327 150.349 93.5907 150.348L42.1003 150.348Z" fill="#6595F7"/>
<path d="M99.0615 155.433V192.77C99.0614 193.214 98.8848 193.64 98.5706 193.954C98.2564 194.268 97.8303 194.445 97.386 194.445H45.8953C45.4509 194.445 45.0248 194.268 44.7106 193.954C44.3964 193.64 44.2199 193.214 44.2197 192.77V155.433C44.2199 154.989 44.3964 154.563 44.7106 154.249C45.0248 153.934 45.451 153.758 45.8953 153.758H97.386C97.8303 153.758 98.2564 153.934 98.5706 154.249C98.8848 154.563 99.0614 154.989 99.0615 155.433Z" fill="#6445F1"/>
<path d="M80.1856 164.071H63.4754C60.6618 164.071 58.3809 166.352 58.3809 169.166V179.966C58.3809 182.78 60.6618 185.061 63.4754 185.061H80.1856C82.9992 185.061 85.2801 182.78 85.2801 179.966V169.166C85.2801 166.352 82.9992 164.071 80.1856 164.071Z" fill="white"/>
<path d="M99.0611 155.433V160.101H44.2197V155.433C44.2199 154.989 44.3964 154.563 44.7105 154.249C45.0246 153.935 45.4506 153.758 45.8949 153.758H97.3856C97.8299 153.758 98.256 153.934 98.5702 154.249C98.8844 154.563 99.061 154.989 99.0611 155.433Z" fill="#2C34F1"/>
<path d="M47.4991 157.815C48.0213 157.815 48.4445 157.391 48.4445 156.869C48.4445 156.347 48.0213 155.924 47.4991 155.924C46.977 155.924 46.5537 156.347 46.5537 156.869C46.5537 157.391 46.977 157.815 47.4991 157.815Z" fill="white"/>
<path d="M50.7931 157.815C51.3152 157.815 51.7385 157.391 51.7385 156.869C51.7385 156.347 51.3152 155.924 50.7931 155.924C50.2709 155.924 49.8477 156.347 49.8477 156.869C49.8477 157.391 50.2709 157.815 50.7931 157.815Z" fill="white"/>
<path d="M54.087 157.815C54.6092 157.815 55.0324 157.391 55.0324 156.869C55.0324 156.347 54.6092 155.924 54.087 155.924C53.5649 155.924 53.1416 156.347 53.1416 156.869C53.1416 157.391 53.5649 157.815 54.087 157.815Z" fill="white"/>
<path d="M56.0178 162.755H46.5537V164.707H56.0178V162.755Z" fill="white"/>
<path d="M96.4764 188.407H46.5537V189.669H96.4764V188.407Z" fill="white"/>
<path d="M75.8853 190.826H46.5537V192.088H75.8853V190.826Z" fill="white"/>
<path d="M134.423 183.388C134.61 183.595 134.739 183.848 134.8 184.12C134.861 184.392 134.85 184.676 134.77 184.943L133.355 189.362L137.758 191.627L140.53 187.906C140.701 187.685 140.925 187.512 141.182 187.403C141.439 187.294 141.72 187.252 141.997 187.283L142.016 187.285C142.293 187.302 142.56 187.389 142.794 187.539C143.028 187.688 143.219 187.895 143.351 188.139L145.475 192.264L150.19 190.752L149.519 186.161C149.484 185.886 149.52 185.607 149.623 185.349C149.726 185.092 149.893 184.865 150.108 184.69L150.123 184.678C150.331 184.492 150.583 184.362 150.855 184.301C151.128 184.241 151.411 184.251 151.678 184.331L156.097 185.746L158.362 181.342L154.641 178.57C154.42 178.4 154.247 178.175 154.138 177.918C154.029 177.661 153.987 177.381 154.018 177.103C154.018 177.097 154.019 177.09 154.02 177.085C154.037 176.808 154.124 176.54 154.273 176.306C154.423 176.073 154.629 175.881 154.874 175.75L158.999 173.626L157.487 168.91L152.895 169.581C152.62 169.616 152.341 169.581 152.083 169.478C151.826 169.374 151.599 169.207 151.424 168.992C151.42 168.987 151.416 168.983 151.412 168.978C151.226 168.77 151.096 168.518 151.035 168.245C150.975 167.973 150.985 167.689 151.065 167.422L152.48 163.003L148.077 160.739L145.305 164.459C145.135 164.68 144.91 164.854 144.653 164.963C144.396 165.072 144.116 165.113 143.838 165.082L143.82 165.081C143.543 165.064 143.275 164.976 143.041 164.827C142.808 164.677 142.616 164.471 142.485 164.227L140.36 160.102L135.645 161.613L136.316 166.204C136.351 166.479 136.316 166.759 136.212 167.016C136.109 167.274 135.942 167.501 135.727 167.675C135.722 167.68 135.717 167.683 135.713 167.687C135.505 167.874 135.253 168.003 134.98 168.064C134.708 168.125 134.424 168.114 134.157 168.034L129.739 166.62L127.474 171.023L131.195 173.795C131.416 173.966 131.589 174.19 131.698 174.447C131.807 174.704 131.848 174.985 131.818 175.262C131.818 175.268 131.817 175.275 131.816 175.281C131.799 175.557 131.712 175.825 131.562 176.059C131.413 176.293 131.206 176.484 130.962 176.616L126.837 178.74L128.349 183.455L132.94 182.784C133.215 182.749 133.495 182.785 133.752 182.888C134.01 182.991 134.237 183.158 134.411 183.373C134.415 183.378 134.419 183.383 134.423 183.388ZM139.381 177.317C139.157 176.617 139.145 175.867 139.347 175.161C139.549 174.455 139.956 173.824 140.516 173.35C141.077 172.875 141.765 172.577 142.495 172.493C143.225 172.409 143.963 172.544 144.616 172.88C145.27 173.216 145.808 173.738 146.165 174.38C146.521 175.023 146.679 175.756 146.619 176.488C146.559 177.22 146.282 177.918 145.826 178.493C145.369 179.068 144.751 179.495 144.052 179.719C143.588 179.868 143.098 179.924 142.612 179.884C142.126 179.844 141.653 179.709 141.219 179.485C140.785 179.262 140.4 178.956 140.084 178.584C139.769 178.212 139.53 177.781 139.381 177.317Z" fill="#2C34F1"/>
<path d="M127.692 196.208C127.806 196.336 127.886 196.491 127.923 196.658C127.961 196.826 127.954 197 127.905 197.165L127.034 199.884L129.745 201.279L131.45 198.989C131.555 198.853 131.693 198.746 131.852 198.679C132.01 198.612 132.182 198.587 132.353 198.606L132.364 198.607C132.535 198.617 132.7 198.671 132.843 198.763C132.987 198.855 133.105 198.982 133.186 199.132L134.493 201.671L137.395 200.74L136.982 197.915C136.96 197.746 136.982 197.574 137.046 197.415C137.109 197.257 137.212 197.117 137.345 197.009L137.353 197.002C137.481 196.887 137.637 196.808 137.804 196.77C137.972 196.733 138.146 196.739 138.311 196.789L141.03 197.659L142.424 194.949L140.134 193.243C139.998 193.138 139.892 193 139.825 192.842C139.758 192.684 139.732 192.511 139.751 192.341C139.751 192.337 139.751 192.333 139.752 192.329C139.763 192.159 139.816 191.994 139.908 191.85C140 191.706 140.127 191.588 140.278 191.508L142.816 190.2L141.885 187.299L139.06 187.712C138.891 187.733 138.719 187.711 138.561 187.648C138.402 187.584 138.262 187.481 138.155 187.349L138.147 187.34C138.033 187.212 137.953 187.057 137.916 186.889C137.878 186.722 137.885 186.547 137.934 186.383L138.805 183.664L136.095 182.269L134.388 184.56C134.283 184.696 134.145 184.802 133.987 184.869C133.829 184.936 133.656 184.962 133.486 184.943L133.474 184.942C133.304 184.931 133.139 184.877 132.995 184.786C132.852 184.694 132.734 184.567 132.653 184.416L131.346 181.878L128.444 182.808L128.857 185.634C128.879 185.803 128.857 185.975 128.793 186.133C128.73 186.292 128.627 186.431 128.495 186.539L128.486 186.547C128.358 186.661 128.203 186.741 128.035 186.778C127.867 186.816 127.693 186.809 127.529 186.76L124.809 185.889L123.414 188.599L125.704 190.305C125.84 190.41 125.947 190.548 126.014 190.706C126.081 190.864 126.106 191.037 126.087 191.208C126.087 191.212 126.087 191.215 126.086 191.219C126.076 191.389 126.022 191.554 125.93 191.698C125.838 191.842 125.711 191.96 125.561 192.041L123.022 193.348L123.953 196.25L126.778 195.837C126.948 195.815 127.12 195.837 127.278 195.901C127.436 195.964 127.576 196.067 127.684 196.199C127.687 196.202 127.689 196.205 127.692 196.208ZM130.743 192.472C130.605 192.041 130.597 191.58 130.722 191.145C130.846 190.71 131.096 190.323 131.441 190.03C131.786 189.738 132.21 189.555 132.659 189.503C133.108 189.452 133.562 189.535 133.964 189.741C134.366 189.948 134.698 190.269 134.917 190.665C135.137 191.06 135.234 191.511 135.197 191.962C135.16 192.412 134.99 192.842 134.708 193.196C134.427 193.55 134.047 193.812 133.617 193.95C133.04 194.135 132.413 194.084 131.874 193.806C131.335 193.529 130.928 193.049 130.743 192.472Z" fill="#6595F7"/>
<path d="M64.0869 228.203C64.0908 228.448 64.6524 228.359 64.6524 228.359C64.6524 228.359 64.7584 229.076 64.9877 230.27C65.0049 230.352 65.0201 230.436 65.0374 230.521C65.2866 231.794 65.664 233.54 66.1884 235.51C66.2113 235.598 66.2351 235.685 66.2609 235.773C66.6163 237.095 67.0385 238.514 67.5303 239.954C67.5609 240.047 67.5934 240.137 67.6258 240.229C68.1852 241.86 68.8353 243.458 69.5731 245.016C69.6009 245.074 69.6285 245.131 69.6571 245.189C70.8903 247.73 72.3832 250.041 74.1674 251.67H108.022L107.868 243.31L107.783 238.675L107.779 238.418L107.717 235.102L107.713 234.889L107.677 232.918L107.673 232.662L107.572 227.164L107.567 226.91L107.517 224.208L114.35 230.261L114.586 230.47L117.687 233.218L120.271 227.19L120.377 226.944L120.626 226.362V226.361L120.801 225.954V225.953L122.28 222.5L122.389 222.245L124.012 218.462L124.114 218.222L125.596 214.765C125.596 214.765 124.148 213.658 122.094 212.115C122.044 212.077 121.992 212.038 121.941 212C121.109 211.374 120.183 210.682 119.218 209.965C119.127 209.897 119.037 209.83 118.945 209.762C117.776 208.894 116.556 207.997 115.38 207.142C115.32 207.099 115.26 207.056 115.201 207.013C115.184 207 115.168 206.989 115.152 206.977C115.092 206.933 115.031 206.89 114.972 206.847C111.985 204.688 109.361 202.882 108.68 202.683C107.999 202.485 107.234 202.285 106.387 202.096H106.386C106.31 202.079 106.234 202.061 106.155 202.044H106.154C104.219 201.629 102.261 201.324 100.29 201.132C100.211 201.124 100.132 201.116 100.052 201.109C98.8222 200.99 97.5089 200.901 96.1143 200.853C96.0436 200.85 95.9729 200.848 95.9013 200.846C91.2997 200.716 86.6956 200.988 82.1411 201.658C82.0275 201.673 81.9138 201.69 81.8002 201.706C80.6482 201.876 79.4686 202.073 78.2613 202.298C77.8506 202.375 77.4446 202.467 77.0463 202.576C76.9355 202.605 76.8256 202.637 76.7158 202.669C75.2559 203.1 73.8684 203.745 72.5991 204.585C72.5235 204.635 72.4491 204.684 72.3736 204.737C71.6242 205.251 70.922 205.831 70.2756 206.47C70.2235 206.52 70.1714 206.573 70.1199 206.625C68.7483 208.017 67.6563 209.659 66.903 211.462C66.8752 211.525 66.8494 211.588 66.8248 211.652C66.7589 211.813 66.6967 211.976 66.6366 212.142C66.5802 212.299 66.5257 212.456 66.4743 212.614C66.3191 213.087 66.188 213.567 66.0816 214.053L66.0472 214.21C66.0453 214.22 66.0434 214.23 66.0406 214.24C65.7569 215.588 65.4236 217.113 65.1131 218.74C65.0959 218.831 65.0768 218.921 65.061 219.013C64.9673 219.51 64.8757 220.014 64.7897 220.526C64.7792 220.589 64.7678 220.653 64.7573 220.715C64.5481 221.972 64.3685 223.269 64.2472 224.571C64.2386 224.656 64.2318 224.74 64.2252 224.825C64.126 225.955 64.0739 227.088 64.0869 228.203Z" fill="#FCB913"/>
<path d="M87.496 229.122C87.8282 229.804 88.3395 230.383 88.9753 230.797C89.6111 231.211 90.3474 231.445 91.1057 231.472L93.9578 231.598C97.0677 231.734 100.283 231.875 103.253 232.989C104.288 233.4 105.3 233.868 106.284 234.391C106.754 234.63 107.232 234.872 107.718 235.102L107.714 234.889C107.26 234.672 106.813 234.445 106.372 234.22C105.381 233.694 104.362 233.224 103.32 232.811C100.322 231.686 97.0908 231.544 93.9668 231.406L91.1147 231.281C90.3934 231.25 89.6937 231.026 89.0883 230.633C88.4829 230.239 87.9938 229.691 87.6719 229.045C87.3501 228.399 87.2071 227.678 87.258 226.958C87.3088 226.238 87.5516 225.544 87.9611 224.95C88.8488 223.671 90.0354 222.628 91.4179 221.912C94.547 220.322 98.1919 220.207 101.718 220.097C101.994 220.089 102.27 220.08 102.545 220.071C106.189 219.947 110.337 219.617 113.476 217.246C114.379 216.563 114.946 215.863 115.209 215.106C115.549 214.13 115.304 213.055 114.614 212.492C114.059 212.039 113.312 211.948 112.655 211.919C110.43 211.82 108.17 212.271 105.985 212.706C102.806 213.339 99.8038 213.937 96.8418 213.031C96.5421 212.939 96.2447 212.821 96.099 212.574C95.9533 212.328 95.992 212.014 96.0484 211.683C96.4954 209.04 97.0026 206.045 98.4506 203.57C98.9728 202.693 99.5894 201.876 100.289 201.133C100.21 201.125 100.131 201.117 100.051 201.11C99.382 201.834 98.7901 202.626 98.2854 203.473C96.8213 205.978 96.3113 208.993 95.8614 211.651C95.7994 212.018 95.7582 212.372 95.936 212.672C96.1145 212.975 96.4661 213.117 96.7869 213.214C99.7948 214.135 102.96 213.504 106.022 212.894C108.196 212.461 110.446 212.013 112.647 212.111C113.273 212.138 113.982 212.223 114.494 212.641C115.122 213.154 115.343 214.142 115.03 215.044C114.779 215.764 114.233 216.435 113.36 217.094C110.267 219.431 106.152 219.758 102.539 219.88C102.264 219.89 101.988 219.898 101.712 219.907C98.1652 220.018 94.4984 220.132 91.3311 221.743C89.9204 222.473 88.7097 223.537 87.8046 224.842C87.3702 225.461 87.112 226.185 87.0577 226.939C87.0033 227.693 87.1548 228.447 87.496 229.122Z" fill="white"/>
<path d="M85.5792 214.876C86.6509 214.571 87.8506 214.132 88.6309 213.183C90.0628 211.442 89.3626 208.727 87.8926 207.209C86.3452 205.612 84.133 204.889 82.1816 204.252L77.0473 202.576C76.9365 202.606 76.8267 202.637 76.7168 202.67L82.1222 204.434C84.0525 205.064 86.2408 205.778 87.7548 207.341C89.1674 208.8 89.8475 211.402 88.4826 213.062C87.7366 213.971 86.5695 214.396 85.5274 214.693C79.2041 216.492 72.5456 215.304 66.0811 214.054L66.0467 214.212C66.0447 214.221 66.0429 214.232 66.04 214.241C72.5278 215.494 79.212 216.688 85.5792 214.876Z" fill="white"/>
<path d="M81.8491 223.904C82.1186 228.108 82.4537 233.34 80.0544 237.481C77.7955 241.381 73.5478 243.574 69.5734 245.016C69.6011 245.074 69.6288 245.131 69.6574 245.189C73.658 243.735 77.9358 241.52 80.2206 237.576C82.6477 233.386 82.3105 228.122 82.0392 223.891C82.0001 223.283 81.9333 222.703 81.5406 222.3C81.2321 221.984 80.7928 221.86 80.3697 221.761C77.2739 221.034 74.0365 220.93 70.9058 220.829C70.3528 220.811 69.8017 220.794 69.2509 220.773C67.7653 220.716 66.2784 220.634 64.7903 220.528C64.7797 220.591 64.7684 220.654 64.7578 220.717C66.2535 220.824 67.7487 220.907 69.2433 220.964C69.7944 220.985 70.3474 221.002 70.8996 221.02C74.021 221.121 77.2495 221.225 80.3261 221.947C80.7224 222.039 81.1313 222.154 81.4045 222.434C81.7508 222.789 81.812 223.333 81.8491 223.904Z" fill="white"/>
<path d="M116.019 223.251C115.694 224.19 115.445 225.179 115.83 226.036C116.236 226.942 117.224 227.372 118.175 227.372C118.439 227.373 118.702 227.339 118.957 227.271C119.572 227.09 120.142 226.78 120.628 226.361V226.361L120.802 225.954C120.285 226.436 119.649 226.885 118.907 227.087C117.856 227.371 116.484 227.026 116.006 225.958C115.648 225.162 115.888 224.216 116.201 223.313C117.273 220.217 118.73 217.267 120.539 214.535C120.643 214.377 120.749 214.219 120.855 214.059C121.272 213.435 121.706 212.785 122.096 212.116C122.046 212.077 121.994 212.038 121.943 212C121.552 212.672 121.115 213.326 120.696 213.953C120.589 214.113 120.484 214.271 120.379 214.429C118.561 217.175 117.096 220.139 116.019 223.251Z" fill="white"/>
<path d="M104.78 205.733C105.019 205.961 105.305 206.135 105.618 206.243C108.648 207.481 111.922 207.415 115.201 207.014C115.185 207.001 115.168 206.99 115.152 206.978C115.092 206.934 115.032 206.891 114.972 206.848C111.788 207.224 108.617 207.261 105.69 206.066C105.403 205.967 105.141 205.809 104.919 205.601C104.142 204.771 104.979 203.403 105.732 202.686C105.945 202.484 106.163 202.287 106.386 202.096C106.31 202.079 106.234 202.062 106.155 202.044H106.154C105.966 202.207 105.782 202.374 105.6 202.547C104.633 203.47 103.963 204.86 104.78 205.733Z" fill="white"/>
<path d="M66.8242 211.653C67.4469 211.667 68.0697 211.673 68.6925 211.674C69.9341 211.674 71.1762 211.648 72.4187 211.598C73.775 211.543 74.5705 211.145 74.7845 210.415C75.0081 209.652 74.434 208.924 74.0719 208.559C73.0261 207.5 71.6612 206.885 70.2752 206.472C70.223 206.522 70.1709 206.575 70.1194 206.626C71.516 207.032 72.8933 207.639 73.9363 208.692C74.2687 209.029 74.7964 209.692 74.6009 210.361C74.4127 211.004 73.6757 211.355 72.4107 211.407C71.1719 211.458 69.9324 211.483 68.6923 211.482C68.0952 211.482 67.4986 211.476 66.9023 211.464C66.8753 211.526 66.8492 211.589 66.8242 211.653Z" fill="white"/>
<path d="M81.8008 201.707C85.1076 203.291 88.613 204.512 92.3095 204.853C92.4747 204.868 92.6483 204.881 92.8215 204.881C93.1548 204.895 93.4859 204.821 93.7815 204.666C94.2198 204.414 94.4729 203.939 94.6763 203.557L96.1148 200.853C96.0442 200.851 95.9735 200.849 95.9019 200.847L94.5076 203.467C94.3156 203.827 94.0768 204.276 93.6866 204.5C93.2891 204.729 92.7973 204.706 92.3273 204.663C88.754 204.333 85.3565 203.172 82.1423 201.659C82.028 201.674 81.9139 201.691 81.8008 201.707Z" fill="white"/>
<path d="M125.596 214.766L154.263 201.805L158.142 210.556L127.036 232.806C125.94 233.548 124.646 233.942 123.323 233.937C121.999 233.932 120.708 233.528 119.618 232.778L118.272 231.853L125.596 214.766Z" fill="#F59060"/>
<path d="M145.872 206.696C145.872 206.696 152.176 203.71 157.608 191.679C157.645 191.594 157.709 191.523 157.788 191.475C157.868 191.428 157.961 191.407 158.054 191.415C158.146 191.422 158.234 191.459 158.305 191.519C158.376 191.579 158.426 191.66 158.449 191.75C158.791 193.138 159.238 195.555 159.018 198.096C159.014 198.144 159.024 198.191 159.048 198.233C159.072 198.274 159.107 198.307 159.151 198.328C159.194 198.348 159.242 198.355 159.289 198.347C159.336 198.339 159.38 198.317 159.414 198.283C160.79 196.924 164.89 192.801 167.227 189.629C167.289 189.546 167.378 189.486 167.479 189.461C167.58 189.436 167.686 189.447 167.78 189.493C167.873 189.538 167.948 189.614 167.992 189.708C168.035 189.803 168.044 189.909 168.017 190.01C167.634 191.393 166.756 193.422 164.761 195.867C164.727 195.909 164.709 195.961 164.711 196.015C164.712 196.069 164.734 196.121 164.771 196.16C164.808 196.199 164.858 196.223 164.912 196.228C164.966 196.233 165.019 196.218 165.063 196.186C166.372 195.202 168.215 193.736 169.538 192.353C169.61 192.278 169.707 192.23 169.81 192.218C169.914 192.206 170.019 192.231 170.106 192.289C170.193 192.346 170.257 192.432 170.288 192.532C170.318 192.632 170.312 192.739 170.271 192.835C169.681 194.228 168.531 196.152 166.294 198.224C166.255 198.26 166.231 198.309 166.226 198.362C166.22 198.414 166.234 198.467 166.264 198.511C166.294 198.554 166.339 198.586 166.39 198.599C166.442 198.612 166.496 198.607 166.544 198.584C167.647 198.029 168.701 197.38 169.693 196.646C169.777 196.582 169.881 196.551 169.986 196.556C170.09 196.562 170.19 196.604 170.267 196.676C170.343 196.748 170.392 196.845 170.405 196.949C170.417 197.053 170.392 197.159 170.335 197.246C169.554 198.419 168.262 199.913 166.181 201.322C166.139 201.349 166.107 201.391 166.091 201.439C166.075 201.487 166.077 201.539 166.095 201.586C166.113 201.634 166.147 201.674 166.19 201.699C166.234 201.724 166.286 201.734 166.336 201.726C167.034 201.613 167.716 201.418 168.368 201.146C168.462 201.105 168.566 201.098 168.664 201.125C168.762 201.152 168.848 201.211 168.908 201.294C168.967 201.376 168.996 201.477 168.991 201.578C168.985 201.68 168.945 201.777 168.877 201.852C166.524 204.452 161.08 209.475 150.119 215.342L145.872 206.696Z" fill="#F59060"/>
<path d="M158.781 206.161C159.865 203.508 158.546 199.999 158.533 199.964L158.439 199.721L158.7 199.717C158.809 199.715 161.403 199.72 163.653 203.473L163.341 203.661C161.615 200.783 159.666 200.219 158.969 200.108C159.269 201.01 160.09 203.923 159.118 206.299L158.781 206.161Z" fill="#090909"/>
<path d="M78.8052 227.946L64.0869 228.203L62.4412 242.854C62.3166 243.963 62.4275 245.086 62.7668 246.15C63.1061 247.213 63.666 248.193 64.41 249.025C65.1539 249.857 66.0652 250.523 67.0841 250.979C68.103 251.435 69.2067 251.67 70.323 251.67H108.022L107.868 243.31L78.1462 238.71L78.8052 227.946Z" fill="#F59060"/>
<path d="M71.4071 237.364L71.3486 237.701L78.1166 238.877L78.1751 238.54L71.4071 237.364Z" fill="#090909"/>
<path d="M125.596 214.765L118.968 232.33L118.272 231.852L125.596 214.765Z" fill="#090909"/>
<path d="M78.8049 227.946L63.9512 229.408L64.0866 228.203L78.8049 227.946Z" fill="#090909"/>
<path d="M98.3506 190.236C98.3593 190.29 98.3653 190.345 98.3712 190.399C98.4053 190.692 98.4303 190.983 98.443 191.272C98.4477 191.321 98.4496 191.371 98.4516 191.421C98.4586 191.575 98.4615 191.724 98.4595 191.878C98.4606 192.221 98.4498 192.565 98.4191 192.898C98.228 195.013 97.3514 196.882 95.2292 197.905L95.9506 201.433C96.022 201.779 96.0358 202.134 95.9914 202.484C95.965 202.681 95.8707 202.862 95.7248 202.996C94.4174 204.206 92.0319 204.311 89.3378 203.486C88.7574 203.311 88.2505 202.95 87.8945 202.46C87.5385 201.969 87.3531 201.375 87.3665 200.769L87.4931 195.689L85.3047 195.552C84.8732 195.532 84.4553 195.395 84.096 195.155C83.7367 194.916 83.4496 194.582 83.2656 194.192C83.2423 194.142 83.2215 194.092 83.2034 194.04L82.9949 193.474C82.8693 193.132 82.8231 192.767 82.86 192.405C82.8968 192.043 83.0156 191.695 83.2075 191.386C83.3993 191.077 83.6591 190.815 83.9671 190.622C84.275 190.428 84.623 190.308 84.9847 190.269C84.9847 190.269 84.9809 190.237 84.9776 190.182C84.8995 189.226 84.4024 180.943 90.4514 180.669C93.4065 180.531 96.0828 182.415 97.0834 185.198C97.6064 186.657 98.1321 188.443 98.3506 190.236Z" fill="#F59060"/>
<path d="M95.8116 193.747C95.8624 193.72 95.9079 193.684 95.9457 193.641C96.5203 192.985 95.4723 190.452 95.2564 189.952C95.2408 189.916 95.2116 189.887 95.1751 189.873C95.1387 189.858 95.0979 189.859 95.0619 189.874C95.0259 189.89 94.9976 189.919 94.9831 189.956C94.9686 189.992 94.9692 190.033 94.9848 190.069C95.456 191.163 96.0733 193.047 95.7233 193.446C95.7006 193.472 95.632 193.551 95.3992 193.485C95.3614 193.475 95.321 193.48 95.2868 193.499C95.2526 193.518 95.2274 193.55 95.2168 193.588C95.2062 193.625 95.211 193.666 95.2301 193.7C95.2493 193.734 95.2813 193.759 95.319 193.77C95.4798 193.827 95.6568 193.819 95.8116 193.747Z" fill="#090909"/>
<path d="M92.7612 192.923C93.57 192.909 94.2194 192.533 94.2116 192.083C94.2038 191.633 93.5419 191.279 92.733 191.293C91.9242 191.307 91.2749 191.683 91.2826 192.133C91.2904 192.584 91.9524 192.937 92.7612 192.923Z" fill="#FC6D6D"/>
<path d="M98.4431 191.272C98.4477 191.321 98.4497 191.371 98.4517 191.42C98.4587 191.575 98.4616 191.724 98.4596 191.877C98.4607 192.221 98.4498 192.565 98.4192 192.898L98.4183 192.899C97.5692 192.94 96.8615 192.578 96.8545 192.111C96.8478 191.659 97.4955 191.284 98.3044 191.27C98.3511 191.269 98.3956 191.271 98.4431 191.272Z" fill="#FC6D6D"/>
<path d="M95.2306 197.905C95.2306 197.905 93.6358 198.598 91.5713 197.341C91.5713 197.341 92.8325 199.219 95.4121 198.79L95.2306 197.905Z" fill="#090909"/>
<path d="M91.8134 188.577C92.0151 188.475 92.2271 188.396 92.4458 188.339C92.6611 188.282 92.8827 188.253 93.1055 188.251C93.3183 188.253 93.529 188.294 93.7272 188.372C93.9171 188.453 94.089 188.571 94.2329 188.72L94.2497 188.736C94.2961 188.779 94.3578 188.803 94.4214 188.801C94.485 188.799 94.5452 188.772 94.5887 188.725C94.6323 188.679 94.6557 188.617 94.6538 188.554C94.6518 188.49 94.6247 188.43 94.5784 188.386C94.5754 188.383 94.5719 188.38 94.5687 188.378C94.3678 188.196 94.1323 188.056 93.8761 187.967C93.624 187.886 93.3593 187.853 93.095 187.868C92.8414 187.886 92.591 187.937 92.35 188.018C92.1115 188.097 91.8823 188.202 91.6665 188.33C91.6339 188.349 91.61 188.38 91.5999 188.416C91.5899 188.453 91.5945 188.491 91.6128 188.524C91.6311 188.557 91.6617 188.582 91.6978 188.592C91.734 188.603 91.7728 188.599 91.806 188.581L91.8134 188.577Z" fill="#671E24"/>
<path d="M98.4504 188.386C98.258 188.243 98.05 188.122 97.8303 188.027C97.608 187.928 97.3735 187.859 97.1329 187.823C96.8808 187.789 96.6244 187.805 96.3785 187.871C96.1292 187.944 95.8976 188.067 95.6983 188.234C95.6733 188.253 95.6524 188.277 95.6366 188.304C95.6209 188.331 95.6106 188.362 95.6065 188.393C95.6024 188.424 95.6045 188.456 95.6127 188.486C95.6208 188.517 95.6349 188.545 95.6541 188.57C95.6732 188.595 95.6972 188.616 95.7244 188.632C95.7517 188.648 95.7818 188.658 95.813 188.662C95.8443 188.666 95.876 188.664 95.9064 188.656C95.9368 188.648 95.9654 188.633 95.9903 188.614C95.9936 188.612 95.9969 188.609 96 188.606L96.0197 188.59C96.1596 188.455 96.3255 188.351 96.5072 188.283C96.6956 188.218 96.8949 188.192 97.0936 188.204C97.3028 188.221 97.5087 188.266 97.706 188.338C97.9071 188.409 98.0996 188.503 98.2801 188.617L98.2868 188.621C98.3181 188.642 98.3563 188.65 98.3934 188.643C98.4305 188.636 98.4633 188.615 98.4848 188.584C98.5063 188.553 98.5148 188.515 98.5084 188.478C98.502 188.441 98.4812 188.408 98.4505 188.386L98.4504 188.386Z" fill="#671E24"/>
<path d="M93.3404 190.693C93.5634 190.668 93.7139 190.373 93.6767 190.034C93.6395 189.695 93.4285 189.44 93.2055 189.464C92.9825 189.489 92.8319 189.784 92.8692 190.123C92.9064 190.462 93.1174 190.717 93.3404 190.693Z" fill="#090909"/>
<path d="M97.2378 190.566C97.4071 190.547 97.5159 190.272 97.4807 189.952C97.4455 189.631 97.2797 189.386 97.1103 189.405C96.941 189.423 96.8322 189.698 96.8674 190.019C96.9026 190.339 97.0685 190.584 97.2378 190.566Z" fill="#090909"/>
<path d="M84.5988 194.093C84.2354 193.362 84.1681 192.766 84.3988 192.323C84.7225 191.7 85.544 191.569 85.5523 191.568L85.5052 191.251C85.4649 191.257 84.5169 191.405 84.1158 192.173C83.8339 192.712 83.8998 193.407 84.312 194.236L84.5988 194.093Z" fill="#090909"/>
<path d="M84.9842 190.269C85.4738 190.339 85.9462 190.499 86.3774 190.741C87.0855 191.144 87.2262 191.528 87.508 191.557C87.9581 191.604 88.6628 190.733 89.7977 186.925C90.6082 187.187 94.3813 188.314 97.4656 186.326C98.1528 185.884 98.7559 185.323 99.2464 184.669C101.032 182.247 100.522 179.386 100.412 178.769C100.182 177.51 99.6742 176.319 98.9257 175.281C95.3843 178.371 91.1533 180.566 86.5878 181.682C86.0546 181.783 84.2909 182.187 83.1886 183.753C81.8424 185.665 82.0312 188.532 83.7736 190.758L84.9842 190.269Z" fill="#671E24"/>
<path d="M85.7285 195.579L87.4335 198.072L87.4931 195.688L85.7285 195.579Z" fill="#671E24"/>
<path d="M95.3833 195.09C94.9351 195.099 94.136 195.001 93.035 194.423C93.0109 194.41 92.9834 194.405 92.9562 194.408C92.929 194.411 92.9033 194.422 92.8824 194.44C92.8615 194.457 92.8464 194.481 92.839 194.507C92.8317 194.533 92.8324 194.561 92.8411 194.587C93.0728 195.272 93.7904 196.707 95.4721 195.333C95.4941 195.315 95.51 195.29 95.5175 195.263C95.525 195.235 95.5238 195.206 95.514 195.18C95.5043 195.153 95.4864 195.13 95.463 195.114C95.4395 195.098 95.4117 195.089 95.3833 195.09Z" fill="white"/>
<path d="M93.1262 203.997L87.4042 199.268L85.5527 201.238L91.5981 206.472L93.1262 203.997Z" fill="#DD9B0A"/>
<path d="M93.126 203.997L95.508 199.268L97.0924 200.895L94.6729 206.472L93.126 203.997Z" fill="#DD9B0A"/>
<path d="M93.269 203.998H92.9824V244.458H93.269V203.998Z" fill="#090909"/>
<path d="M87.0518 251.67H119.564L123.913 230.359C124.011 229.882 124.001 229.39 123.884 228.917C123.768 228.444 123.548 228.004 123.24 227.627C122.932 227.25 122.544 226.946 122.104 226.737C121.664 226.528 121.184 226.42 120.697 226.42H92.2054L87.0518 251.67Z" fill="#6445F1"/>
<path d="M70.3228 251.671H87.0516C87.1486 251.672 87.2432 251.64 87.3193 251.58C87.3955 251.519 87.4487 251.435 87.47 251.34L92.6236 226.917C92.6343 226.863 92.6341 226.807 92.623 226.753C92.612 226.699 92.5904 226.648 92.5594 226.603C92.5284 226.558 92.4886 226.519 92.4425 226.489C92.3964 226.459 92.3447 226.439 92.2907 226.429C92.1812 226.406 92.0671 226.427 91.9728 226.487C91.8786 226.547 91.8118 226.642 91.7867 226.751L86.7028 250.844H70.3225C70.2672 250.843 70.2121 250.852 70.1605 250.872C70.1089 250.892 70.0618 250.922 70.0221 250.961C69.9823 250.999 69.9508 251.045 69.9292 251.096C69.9076 251.147 69.8965 251.202 69.8965 251.258C69.8965 251.313 69.9076 251.368 69.9292 251.419C69.9508 251.47 69.9823 251.516 70.0221 251.554C70.0618 251.593 70.1089 251.623 70.1605 251.643C70.2121 251.663 70.2672 251.672 70.3225 251.671H70.3228Z" fill="#090909"/>
<path d="M110.45 239.723C111.146 237.765 110.194 235.638 108.323 234.972C106.451 234.306 104.369 235.352 103.672 237.309C102.975 239.267 103.927 241.394 105.799 242.06C107.67 242.727 109.753 241.68 110.45 239.723Z" fill="white"/>
<path d="M78.9764 215.534H78.6348V227.946H78.9764V215.534Z" fill="#090909"/>
<path d="M107.688 215.534H107.347V224.208H107.688V215.534Z" fill="#090909"/>
<path d="M37.7226 260.217H151.221V251.81H37.7226V260.217Z" fill="#2C34F1"/>
<path d="M36.0671 256.697H152.702C154.09 256.697 155.216 255.572 155.216 254.183C155.216 252.795 154.09 251.669 152.702 251.669H36.0671C34.6785 251.669 33.5529 252.795 33.5529 254.183C33.5529 255.572 34.6785 256.697 36.0671 256.697Z" fill="#004751"/>
<path d="M243.513 211.035H194.428C192.31 211.032 190.279 210.19 188.782 208.693C187.284 207.195 186.442 205.164 186.439 203.047V156.258C186.442 154.14 187.284 152.109 188.782 150.612C190.279 149.114 192.31 148.272 194.428 148.27H243.513C245.631 148.272 247.661 149.114 249.159 150.612C250.656 152.109 251.498 154.14 251.501 156.258V203.047C251.498 205.165 250.656 207.195 249.158 208.693C247.661 210.19 245.631 211.032 243.513 211.035ZM194.428 149.225C192.563 149.227 190.776 149.969 189.457 151.287C188.139 152.606 187.397 154.393 187.395 156.258V203.047C187.397 204.912 188.139 206.699 189.457 208.018C190.776 209.336 192.563 210.077 194.428 210.08H243.513C245.378 210.077 247.165 209.336 248.483 208.018C249.802 206.699 250.543 204.912 250.545 203.047V156.258C250.543 154.393 249.802 152.606 248.483 151.287C247.165 149.969 245.378 149.227 243.513 149.225H194.428Z" fill="#6595F7"/>
<path d="M233.007 141.106H183.921C179.773 141.106 176.411 144.469 176.411 148.616V195.406C176.411 199.554 179.773 202.916 183.921 202.916H233.007C237.154 202.916 240.516 199.554 240.516 195.406V148.616C240.516 144.469 237.154 141.106 233.007 141.106Z" fill="#6445F1"/>
<path d="M237.2 151.037V192.986C237.2 194.771 236.491 196.484 235.228 197.747C233.965 199.009 232.253 199.719 230.467 199.719H186.46C185.139 199.719 183.847 199.331 182.745 198.602C181.643 197.874 180.78 196.837 180.262 195.622C180.262 195.619 180.26 195.617 180.259 195.614C179.907 194.783 179.726 193.889 179.727 192.986V151.037C179.726 150.152 179.901 149.277 180.239 148.46C180.577 147.643 181.073 146.9 181.698 146.275C182.324 145.65 183.066 145.154 183.883 144.815C184.7 144.477 185.575 144.303 186.46 144.303H230.467C231.351 144.303 232.227 144.477 233.044 144.815C233.861 145.154 234.603 145.65 235.228 146.275C235.853 146.9 236.349 147.643 236.688 148.46C237.026 149.277 237.2 150.152 237.2 151.037Z" fill="#FCB913"/>
<path d="M207.376 164.137C207.039 164.137 206.709 164.037 206.429 163.85C206.148 163.662 205.93 163.396 205.801 163.084C205.672 162.773 205.638 162.43 205.704 162.099C205.769 161.768 205.932 161.465 206.17 161.226C206.409 160.988 206.713 160.825 207.044 160.759C207.374 160.694 207.717 160.727 208.029 160.856C208.34 160.985 208.607 161.204 208.794 161.485C208.981 161.765 209.081 162.095 209.081 162.432C209.081 162.884 208.901 163.317 208.581 163.637C208.262 163.957 207.828 164.137 207.376 164.137ZM207.376 161.013C207.096 161.013 206.821 161.096 206.588 161.252C206.355 161.408 206.173 161.63 206.065 161.889C205.958 162.148 205.93 162.433 205.985 162.709C206.039 162.984 206.175 163.237 206.373 163.435C206.571 163.634 206.824 163.769 207.099 163.823C207.375 163.878 207.66 163.85 207.919 163.743C208.178 163.635 208.4 163.453 208.556 163.22C208.712 162.987 208.795 162.713 208.795 162.432C208.794 162.056 208.645 161.695 208.379 161.429C208.113 161.163 207.752 161.014 207.376 161.013Z" fill="#6595F7"/>
<path d="M206.737 159.568C206.894 161.53 207.646 163.306 209.646 163.983L209.434 166.605C209.409 166.914 209.445 167.225 209.542 167.52C209.638 167.816 209.792 168.088 209.996 168.323C210.199 168.558 210.446 168.75 210.724 168.888C211.003 169.026 211.305 169.108 211.615 169.127C211.725 169.134 211.833 169.136 211.94 169.131C212.74 169.098 213.496 168.754 214.047 168.174C214.599 167.593 214.903 166.82 214.895 166.02L215.058 161.693L216.632 161.401C216.943 161.348 217.234 161.212 217.474 161.006C217.713 160.801 217.892 160.534 217.991 160.234C218.002 160.197 218.013 160.159 218.023 160.119L218.124 159.689C218.184 159.431 218.185 159.162 218.126 158.903C218.067 158.644 217.95 158.402 217.784 158.196C217.618 157.989 217.406 157.823 217.166 157.71C216.926 157.597 216.663 157.54 216.398 157.544L216.395 157.479C216.367 156.781 215.995 150.732 211.585 151.067C209.432 151.229 207.66 152.829 207.178 154.936C206.885 156.17 206.726 157.432 206.705 158.701C206.704 158.993 206.714 159.282 206.737 159.568Z" fill="#F59060"/>
<path d="M208.866 160.363C208.811 160.361 208.757 160.348 208.707 160.324C208.657 160.301 208.612 160.268 208.575 160.227C208.112 159.714 208.855 157.872 209.008 157.508C209.015 157.492 209.024 157.478 209.036 157.466C209.047 157.454 209.061 157.444 209.077 157.438C209.092 157.431 209.109 157.428 209.126 157.428C209.143 157.428 209.159 157.431 209.175 157.438C209.19 157.444 209.204 157.454 209.216 157.466C209.228 157.478 209.237 157.492 209.243 157.508C209.249 157.524 209.252 157.54 209.252 157.557C209.251 157.574 209.248 157.591 209.241 157.606C208.909 158.392 208.486 159.753 208.762 160.058C208.783 160.082 208.847 160.153 209.069 160.084C209.085 160.079 209.102 160.077 209.119 160.078C209.136 160.079 209.152 160.084 209.167 160.092C209.182 160.099 209.195 160.11 209.206 160.123C209.217 160.136 209.225 160.151 209.23 160.167C209.235 160.183 209.237 160.2 209.235 160.217C209.233 160.233 209.228 160.25 209.22 160.264C209.212 160.279 209.201 160.292 209.188 160.303C209.175 160.313 209.16 160.321 209.143 160.325C209.054 160.355 208.96 160.368 208.866 160.363Z" fill="#090909"/>
<path d="M212.143 159.467C212.158 159.138 211.691 158.851 211.101 158.825C210.511 158.8 210.021 159.045 210.006 159.374C209.992 159.702 210.459 159.99 211.049 160.015C211.639 160.041 212.129 159.795 212.143 159.467Z" fill="#FC6D6D"/>
<path d="M206.737 159.568C206.948 159.632 207.171 159.65 207.39 159.62C207.929 159.553 208.337 159.254 208.3 158.954C208.262 158.654 207.793 158.464 207.254 158.531C207.062 158.554 206.876 158.612 206.705 158.7C206.704 158.992 206.714 159.281 206.737 159.568Z" fill="#FC6D6D"/>
<path d="M209.646 163.983C209.646 163.983 210.863 164.345 212.249 163.251C212.249 163.251 211.501 164.724 209.593 164.641L209.646 163.983Z" fill="#090909"/>
<path d="M216.64 161.399C216.874 161.355 217.098 161.266 217.299 161.136C216.475 162.517 215.487 163.72 214.981 163.728L215.059 161.693L216.634 161.4C216.636 161.4 216.638 161.399 216.64 161.399Z" fill="#090909"/>
<path d="M218.305 153.9C219.376 156.559 218.38 158.969 218.16 159.468C218.186 159.223 218.159 158.976 218.082 158.743C218.005 158.509 217.879 158.294 217.713 158.113C217.548 157.931 217.345 157.787 217.12 157.688C216.894 157.59 216.651 157.541 216.405 157.544H216.398C216.398 157.544 213.8 159.488 209.343 154.277C209.343 154.277 208.612 155.537 206.879 156.523H206.878C206.848 156.54 206.819 156.559 206.787 156.575C206.712 156.613 206.627 156.629 206.544 156.621C206.306 156.561 206.061 151.296 208.769 150.006C209.218 149.793 209.698 149.778 210.659 149.748C212.163 149.702 214.105 149.643 215.899 150.865C216.98 151.62 217.816 152.675 218.305 153.9Z" fill="#090909"/>
<path d="M212.473 156.825C212.291 156.736 212.101 156.664 211.905 156.609C211.711 156.554 211.512 156.519 211.311 156.504C211.117 156.492 210.921 156.508 210.73 156.55C210.548 156.597 210.375 156.675 210.219 156.781L210.208 156.789C210.165 156.817 210.112 156.827 210.061 156.817C210.01 156.806 209.966 156.776 209.937 156.733C209.909 156.689 209.899 156.636 209.909 156.586C209.92 156.535 209.95 156.49 209.994 156.462L210.002 156.456C210.204 156.334 210.427 156.25 210.659 156.206C210.884 156.169 211.114 156.165 211.341 156.193C211.561 156.223 211.778 156.276 211.988 156.349C212.196 156.421 212.398 156.513 212.59 156.623C212.614 156.639 212.631 156.664 212.638 156.692C212.645 156.72 212.642 156.75 212.628 156.776C212.614 156.802 212.591 156.821 212.564 156.831C212.536 156.841 212.506 156.84 212.479 156.829L212.473 156.825Z" fill="#090909"/>
<path d="M206.133 156.517C206.333 156.424 206.542 156.35 206.756 156.296C206.971 156.241 207.192 156.208 207.414 156.197C207.642 156.189 207.871 156.213 208.092 156.269C208.32 156.333 208.534 156.436 208.725 156.576C208.767 156.605 208.796 156.651 208.805 156.702C208.813 156.753 208.801 156.806 208.772 156.848C208.757 156.869 208.738 156.887 208.716 156.901C208.694 156.914 208.67 156.924 208.645 156.928C208.594 156.937 208.541 156.925 208.499 156.895L208.491 156.889L208.48 156.88C208.335 156.761 208.169 156.668 207.991 156.606C207.805 156.547 207.612 156.514 207.416 156.509C207.215 156.507 207.013 156.525 206.816 156.563C206.616 156.6 206.42 156.656 206.231 156.729L206.225 156.731C206.198 156.74 206.167 156.739 206.141 156.727C206.114 156.715 206.093 156.693 206.081 156.667C206.069 156.64 206.068 156.609 206.078 156.582C206.087 156.554 206.107 156.531 206.133 156.517Z" fill="#090909"/>
<path d="M211.275 157.757C211.286 157.508 211.162 157.3 210.999 157.293C210.835 157.286 210.693 157.482 210.683 157.731C210.672 157.98 210.796 158.187 210.959 158.194C211.123 158.202 211.264 158.006 211.275 157.757Z" fill="#090909"/>
<path d="M207.884 157.609C207.894 157.36 207.771 157.153 207.607 157.146C207.443 157.138 207.302 157.335 207.291 157.583C207.28 157.832 207.404 158.04 207.568 158.047C207.731 158.054 207.873 157.858 207.884 157.609Z" fill="#090909"/>
<path d="M217.244 160.362L217.007 160.278C217.204 159.719 217.201 159.284 216.996 158.985C216.71 158.567 216.107 158.544 216.101 158.544L216.107 158.292C216.137 158.292 216.842 158.317 217.203 158.841C217.457 159.21 217.471 159.722 217.244 160.362Z" fill="#090909"/>
<path d="M210.648 161.096C210.68 161.087 210.713 161.087 210.744 161.095C210.776 161.103 210.805 161.119 210.828 161.142C210.851 161.166 210.867 161.194 210.875 161.226C210.883 161.258 210.883 161.291 210.874 161.322C210.816 161.535 210.701 161.727 210.54 161.877C210.38 162.028 210.181 162.131 209.965 162.175C209.785 162.207 209.6 162.197 209.425 162.144C209.25 162.092 209.09 162 208.956 161.874C208.934 161.852 208.917 161.825 208.908 161.794C208.9 161.764 208.899 161.731 208.907 161.7C208.915 161.67 208.93 161.642 208.952 161.619C208.974 161.596 209.002 161.579 209.033 161.571L210.648 161.096Z" fill="#E52039"/>
<path d="M222.911 159.075C225.239 159.075 227.127 157.188 227.127 154.859C227.127 152.53 225.239 150.643 222.911 150.643C220.582 150.643 218.694 152.53 218.694 154.859C218.694 157.188 220.582 159.075 222.911 159.075Z" fill="#090909"/>
<path d="M218.457 153.819C218.916 154.435 219.539 155.608 218.953 156.939C218.941 156.968 218.92 156.992 218.892 157.008C218.865 157.024 218.833 157.03 218.801 157.026C218.77 157.022 218.741 157.008 218.718 156.986C218.696 156.963 218.681 156.934 218.677 156.903C218.583 156.205 218.391 154.842 218.2 153.936C218.194 153.904 218.198 153.87 218.213 153.841C218.228 153.812 218.252 153.788 218.282 153.775C218.312 153.761 218.346 153.758 218.377 153.766C218.409 153.774 218.437 153.793 218.457 153.819Z" fill="#6595F7"/>
<path d="M209.085 164.365H215.012C215.251 164.365 215.48 164.46 215.649 164.629C215.819 164.799 215.914 165.028 215.914 165.267V167.082H208.183V165.267C208.183 165.149 208.206 165.031 208.251 164.922C208.297 164.813 208.363 164.713 208.447 164.629C208.531 164.546 208.63 164.479 208.739 164.434C208.849 164.389 208.966 164.365 209.085 164.365Z" fill="#2C34F1"/>
<path d="M233.185 199.57C231.463 199.793 229.593 199.92 227.845 199.805C227.531 199.784 227.221 199.756 226.917 199.719C226.749 199.699 226.583 199.676 226.418 199.65C226.404 199.648 226.39 199.645 226.376 199.643C226.293 199.63 226.211 199.615 226.13 199.6C225.93 199.564 225.732 199.526 225.54 199.481C225.289 199.423 225.046 199.357 224.809 199.283H224.808L224.809 199.308L224.828 199.719H197.138V186.187L197.134 186.192C196.99 186.345 192.973 190.569 189.146 193.842C188.901 194.051 188.658 194.256 188.417 194.456C188.04 194.767 187.669 195.066 187.305 195.347C186.318 196.114 185.111 196.544 183.861 196.574C183.775 196.576 183.69 196.576 183.605 196.573C182.905 196.56 182.213 196.419 181.564 196.159C181.162 195.998 180.729 195.819 180.263 195.622C175.914 193.773 168.978 190.269 163.302 184.853L163.691 184.251H163.692L167.072 179.023L167.134 178.926L167.302 178.667C167.306 178.669 167.311 178.67 167.315 178.672C167.658 178.802 175.124 181.657 179.728 183.964C180.601 184.402 181.371 184.819 181.97 185.195C181.972 185.193 181.974 185.191 181.975 185.189C182.196 184.878 190.034 173.861 195.731 169.786C196.787 169.03 197.993 168.51 199.267 168.26C200.789 167.962 203.541 167.48 206.9 167.148C207.319 167.106 207.747 167.067 208.184 167.03C208.19 167.029 208.195 167.029 208.201 167.028C208.27 167.023 208.339 167.017 208.408 167.012C208.745 166.984 209.086 166.959 209.432 166.936C211.144 166.821 212.958 166.757 214.809 166.78C215.11 166.784 215.411 166.79 215.712 166.798C215.774 166.799 215.834 166.801 215.895 166.803C215.902 166.803 215.908 166.804 215.915 166.804C215.952 166.805 215.99 166.806 216.028 166.808C216.096 166.81 216.165 166.812 216.234 166.815C216.402 166.821 216.569 166.828 216.737 166.835C218.713 166.918 220.681 167.133 222.627 167.478C223.128 167.568 223.623 167.669 224.113 167.781C224.691 167.913 225.254 168.103 225.794 168.347C226.98 168.889 228.04 169.675 228.903 170.652C231.17 173.21 234.783 178.075 237.2 185.228C237.892 187.278 238.44 189.372 238.842 191.498C239.576 195.367 236.979 199.079 233.185 199.57Z" fill="#2C34F1"/>
<path d="M209.38 167.417C209.364 167.453 209.347 167.49 209.331 167.527C208.019 170.473 207.116 173.585 206.649 176.776C206.361 178.753 206.237 180.763 206.118 182.705V182.707L205.835 187.31L205.743 188.821L205.609 191.012L205.253 196.82L205.205 197.6L205.075 199.72H204.873L205.003 197.6L205.054 196.779L205.411 190.958L205.57 188.376L205.642 187.187L205.917 182.707L205.918 182.692C206.038 180.745 206.161 178.731 206.451 176.746C206.919 173.55 207.821 170.433 209.132 167.481C209.153 167.432 209.175 167.383 209.197 167.334L209.38 167.417Z" fill="white"/>
<path d="M211.863 167.745C211.849 167.78 211.834 167.815 211.82 167.85C211.649 168.261 211.483 168.675 211.323 169.09C209.641 173.439 208.529 177.952 207.819 182.725C207.809 182.795 207.799 182.866 207.788 182.936C207.537 184.657 207.335 186.414 207.182 188.207C207.098 189.157 207.027 190.117 206.969 191.09C206.964 191.16 206.96 191.23 206.956 191.302C206.843 193.184 206.773 195.108 206.735 197.082C206.731 197.254 206.728 197.427 206.726 197.6C206.714 198.3 206.706 199.007 206.703 199.72H206.498C206.502 199.022 206.509 198.315 206.52 197.6C206.523 197.417 206.526 197.233 206.53 197.049C206.566 195.177 206.635 193.256 206.752 191.312C206.762 191.148 206.772 190.984 206.783 190.819C206.841 189.911 206.911 189.001 206.993 188.087C207.054 187.402 207.122 186.716 207.198 186.029C207.318 184.951 207.454 183.895 207.606 182.863C207.614 182.811 207.621 182.761 207.629 182.71C208.383 177.678 209.536 173.171 211.127 169.043C211.282 168.638 211.441 168.237 211.606 167.84C211.629 167.783 211.653 167.725 211.677 167.668L211.863 167.745Z" fill="white"/>
<path d="M214.217 167.551C214.209 167.584 214.201 167.617 214.193 167.649C214.151 167.816 214.11 167.983 214.069 168.15C212.294 175.385 211.531 182.856 211.001 190.23C210.989 190.381 210.979 190.532 210.968 190.683C210.866 192.131 210.77 193.575 210.68 195.014C210.658 195.359 210.636 195.703 210.614 196.047L210.588 196.457L210.538 197.238L210.523 197.484L210.381 199.719H210.181L210.323 197.471L210.33 197.357L210.379 196.577L210.388 196.445C210.441 195.601 210.495 194.756 210.549 193.908C210.63 192.657 210.716 191.403 210.805 190.145C210.818 189.972 210.83 189.798 210.844 189.623C211.366 182.536 212.122 175.367 213.802 168.404C213.858 168.167 213.916 167.931 213.975 167.695C213.992 167.631 214.008 167.565 214.024 167.5L214.217 167.551Z" fill="white"/>
<path d="M216.236 166.803C216.236 166.808 216.234 166.812 216.233 166.816C215.491 169.496 215.222 172.567 215 175.583C214.98 175.845 214.961 176.106 214.942 176.366C214.882 177.203 214.824 177.992 214.758 178.767C214.639 180.149 214.52 181.53 214.402 182.911C214.209 185.145 214.017 187.379 213.826 189.614C213.82 189.669 213.815 189.724 213.811 189.78C213.808 189.817 213.804 189.853 213.802 189.89C213.765 190.314 213.728 190.738 213.692 191.161C213.646 191.692 213.601 192.223 213.555 192.753C213.51 193.272 213.466 193.79 213.422 194.308C213.377 194.823 213.333 195.338 213.289 195.852C213.238 196.432 213.188 197.011 213.139 197.59C213.078 198.301 213.017 199.011 212.956 199.72H212.755C212.816 199.009 212.877 198.297 212.938 197.586C213.055 196.229 213.172 194.871 213.289 193.514C213.333 192.999 213.377 192.484 213.422 191.97C213.446 191.682 213.47 191.396 213.496 191.108C213.515 190.877 213.534 190.645 213.555 190.414C213.568 190.253 213.582 190.092 213.597 189.931C213.599 189.891 213.603 189.849 213.608 189.809C213.611 189.757 213.615 189.705 213.621 189.653C213.932 186.019 214.245 182.385 214.558 178.751C214.624 177.977 214.681 177.188 214.742 176.352C214.979 173.096 215.225 169.73 216.026 166.809C216.032 166.789 216.037 166.77 216.042 166.75L216.236 166.803Z" fill="white"/>
<path d="M233.185 199.571C231.463 199.793 229.593 199.92 227.845 199.805C227.549 199.789 227.232 199.763 226.897 199.72C226.741 199.7 226.582 199.677 226.418 199.651C226.404 199.649 226.39 199.646 226.376 199.644C225.847 199.556 225.324 199.436 224.809 199.284H224.808C224.808 199.287 224.809 199.289 224.809 199.292C224.828 199.434 224.847 199.577 224.866 199.72H215.352C215.376 199.356 215.396 198.994 215.413 198.632C215.415 198.584 215.417 198.537 215.419 198.489C215.421 198.447 215.423 198.406 215.423 198.364C215.435 198.105 215.444 197.847 215.451 197.591C215.509 195.44 215.427 193.353 215.144 191.463C215.096 191.143 215.042 190.829 214.982 190.521C214.933 190.264 214.886 190.004 214.843 189.744C214.837 189.708 214.831 189.673 214.826 189.637C214.817 189.585 214.808 189.532 214.801 189.479C214.481 187.305 214.348 185.107 214.402 182.911C214.457 180.458 214.656 178.011 215 175.582C215.401 172.634 215.981 169.714 216.737 166.836C218.712 166.918 220.68 167.133 222.627 167.479C223.128 167.569 223.623 167.67 224.113 167.782C224.691 167.913 225.254 168.103 225.794 168.348C226.98 168.89 228.039 169.675 228.903 170.653C231.169 173.211 234.783 178.075 237.199 185.229C237.891 187.278 238.44 189.373 238.841 191.498C239.576 195.367 236.979 199.08 233.185 199.571Z" fill="#6595F7"/>
<path d="M169.206 180.587C169.206 180.587 165.339 178.629 162.162 171.065C162.14 171.011 162.102 170.966 162.053 170.935C162.004 170.905 161.947 170.89 161.889 170.893C161.832 170.896 161.777 170.918 161.732 170.954C161.687 170.99 161.654 171.039 161.639 171.095C161.278 172.374 161.124 173.701 161.18 175.028C161.182 175.058 161.175 175.087 161.16 175.113C161.144 175.138 161.121 175.158 161.094 175.17C161.067 175.182 161.037 175.186 161.008 175.18C160.979 175.174 160.952 175.159 160.932 175.138C160.099 174.271 157.619 171.642 156.219 169.633C156.182 169.58 156.128 169.542 156.066 169.525C156.004 169.507 155.937 169.513 155.878 169.539C155.819 169.566 155.772 169.612 155.743 169.67C155.715 169.728 155.707 169.794 155.722 169.857C155.938 170.722 156.45 171.997 157.649 173.549C157.67 173.576 157.68 173.609 157.678 173.642C157.676 173.676 157.662 173.707 157.638 173.731C157.614 173.755 157.583 173.769 157.549 173.771C157.516 173.773 157.483 173.763 157.456 173.742C156.659 173.109 155.538 172.169 154.739 171.287C154.695 171.24 154.636 171.209 154.572 171.2C154.508 171.191 154.443 171.204 154.388 171.238C154.333 171.273 154.292 171.325 154.271 171.386C154.251 171.447 154.252 171.514 154.276 171.574C154.619 172.449 155.302 173.663 156.658 174.987C156.681 175.01 156.696 175.041 156.699 175.074C156.701 175.107 156.692 175.14 156.673 175.167C156.653 175.193 156.624 175.212 156.592 175.22C156.56 175.227 156.526 175.222 156.497 175.207C155.821 174.844 155.177 174.424 154.572 173.951C154.521 173.91 154.457 173.889 154.392 173.891C154.327 173.892 154.264 173.917 154.215 173.96C154.166 174.004 154.134 174.063 154.125 174.128C154.116 174.192 154.129 174.258 154.164 174.313C154.825 175.335 155.678 176.219 156.677 176.914C156.703 176.932 156.722 176.958 156.73 176.988C156.739 177.018 156.738 177.05 156.726 177.079C156.714 177.108 156.692 177.132 156.665 177.148C156.637 177.163 156.605 177.168 156.574 177.163C156.143 177.081 155.722 176.948 155.321 176.768C155.264 176.742 155.199 176.736 155.138 176.751C155.077 176.766 155.023 176.802 154.985 176.852C154.946 176.902 154.926 176.964 154.928 177.027C154.93 177.09 154.953 177.15 154.994 177.198C156.413 178.852 159.712 182.063 166.425 185.889L169.206 180.587Z" fill="#F59060"/>
<path d="M161.195 180.043C160.565 178.377 161.442 176.218 161.451 176.197L161.513 176.047L161.351 176.04C161.283 176.038 159.672 175.998 158.212 178.293L158.403 178.414C159.522 176.655 160.743 176.336 161.177 176.279C160.976 176.834 160.419 178.631 160.983 180.123L161.195 180.043Z" fill="#090909"/>
<path d="M204.117 186.913C204.396 187.825 204.507 189.135 204.493 190.703C204.48 192.017 204.382 193.512 204.221 195.109C204.212 195.193 204.203 195.277 204.195 195.361C204.153 195.753 204.109 196.151 204.062 196.553C204.021 196.899 203.977 197.248 203.931 197.6C203.842 198.297 203.742 199.006 203.637 199.719H195.331L195.617 197.6L196.542 190.722L196.806 188.758L197.137 186.301L197.152 186.187L197.149 186.192C197.145 186.196 197.141 186.201 197.137 186.205C196.858 186.499 192.908 190.639 189.147 193.855C188.903 194.064 188.66 194.269 188.418 194.468C188.047 194.774 187.679 195.069 187.32 195.347C186.328 196.117 185.115 196.547 183.86 196.574C183.774 196.576 183.689 196.576 183.604 196.573C182.91 196.558 182.223 196.417 181.578 196.159C181.171 195.996 180.73 195.815 180.258 195.614C175.908 193.762 168.983 190.262 163.316 184.853L163.701 184.257L167.141 178.938L167.143 178.936V178.935L167.314 178.672L167.317 178.667C167.317 178.667 175.012 181.595 179.726 183.956C180.6 184.394 181.373 184.812 181.974 185.189C181.978 185.191 181.98 185.193 181.984 185.195C181.984 185.195 189.966 173.92 195.745 169.786C196.801 169.03 198.007 168.51 199.281 168.26C200.803 167.962 203.555 167.48 206.914 167.147C206.914 167.147 203.847 176.036 203.676 182.706C203.636 184.282 203.756 185.732 204.117 186.913Z" fill="#6595F7"/>
<path d="M197.272 178.754H197.005V186.188H197.272V178.754Z" fill="#090909"/>
<path d="M209.285 197.6H192.094C190.711 197.6 189.458 196.477 189.294 195.091L188.123 185.216C187.959 183.83 188.947 182.707 190.329 182.707H207.521C208.903 182.707 210.157 183.83 210.321 185.216L211.491 195.091C211.655 196.477 210.668 197.6 209.285 197.6Z" fill="#090909"/>
<path d="M208.484 197.6H191.292C189.91 197.6 188.656 196.477 188.492 195.091L187.322 185.216C187.157 183.83 188.145 182.707 189.527 182.707H206.719C208.101 182.707 209.355 183.83 209.519 185.216L210.689 195.091C210.853 196.477 209.866 197.6 208.484 197.6Z" fill="#6445F1"/>
<path d="M199.012 192.474C200.146 192.251 200.86 191.032 200.608 189.751C200.356 188.469 199.233 187.611 198.099 187.834C196.966 188.057 196.251 189.277 196.503 190.558C196.756 191.84 197.879 192.698 199.012 192.474Z" fill="white"/>
<path d="M216.404 197.569C215.348 197.599 214.354 197.608 213.423 197.594C207.962 197.52 204.601 196.763 202.884 196.226C202.824 196.206 202.772 196.167 202.737 196.115C202.702 196.062 202.686 195.999 202.692 195.936C202.698 195.873 202.725 195.815 202.769 195.769C202.813 195.724 202.871 195.695 202.933 195.687C203.369 195.627 203.796 195.517 204.206 195.357C204.235 195.345 204.259 195.324 204.274 195.296C204.29 195.269 204.295 195.237 204.29 195.206C204.285 195.175 204.269 195.147 204.246 195.126C204.223 195.105 204.193 195.093 204.161 195.091C202.946 195.031 201.754 194.734 200.653 194.217C200.594 194.188 200.548 194.14 200.521 194.08C200.495 194.02 200.491 193.953 200.509 193.891C200.527 193.828 200.567 193.774 200.622 193.738C200.676 193.702 200.741 193.686 200.806 193.693C201.57 193.774 202.339 193.789 203.105 193.739C203.137 193.736 203.169 193.722 203.192 193.699C203.215 193.676 203.23 193.645 203.232 193.612C203.235 193.579 203.225 193.546 203.205 193.52C203.186 193.493 203.157 193.475 203.125 193.468C201.273 193.063 200.051 192.395 199.296 191.835C199.244 191.796 199.208 191.74 199.192 191.677C199.177 191.614 199.184 191.548 199.213 191.49C199.242 191.432 199.29 191.386 199.349 191.359C199.408 191.333 199.475 191.328 199.537 191.346C200.681 191.67 202.13 191.873 203.142 191.988C203.175 191.992 203.209 191.983 203.236 191.964C203.264 191.944 203.283 191.915 203.291 191.883C203.298 191.85 203.293 191.816 203.277 191.786C203.261 191.756 203.235 191.734 203.203 191.722C201.363 191.041 200.254 190.231 199.613 189.611C199.567 189.566 199.538 189.506 199.532 189.442C199.525 189.377 199.541 189.313 199.577 189.259C199.613 189.206 199.667 189.166 199.728 189.148C199.79 189.129 199.857 189.133 199.916 189.158C202.168 190.12 205.663 191.037 206.828 191.331C206.857 191.338 206.887 191.336 206.915 191.326C206.943 191.315 206.967 191.297 206.983 191.272C207 191.248 207.009 191.219 207.009 191.189C207.009 191.16 206.999 191.131 206.982 191.107C206.231 190.011 205.659 188.803 205.286 187.528C205.27 187.473 205.272 187.414 205.291 187.359C205.309 187.305 205.345 187.257 205.392 187.224C205.439 187.191 205.496 187.173 205.553 187.173C205.611 187.173 205.667 187.191 205.714 187.225C208.886 189.466 211.524 190.559 213.423 191.088C214.158 191.298 214.911 191.446 215.671 191.531L216.404 197.569Z" fill="#F59060"/>
<path d="M216.534 198.645L213.422 198.209V189.834L215.43 189.551L215.671 191.531L216.403 197.568L216.534 198.645Z" fill="#6595F7"/>
<path d="M224.564 199.418C220.252 199.418 213.471 198.352 213.402 198.341L213.289 198.323V189.731L213.389 189.705C215.825 189.064 228.104 188.933 228.625 188.928L228.628 189.195C228.502 189.196 216.189 189.327 213.556 189.939V198.095C214.479 198.237 220.831 199.188 224.808 199.149L224.81 199.417C224.729 199.418 224.647 199.418 224.564 199.418Z" fill="#090909"/>
<path d="M222.442 178.718L222.185 178.789L225.019 189.097L225.277 189.026L222.442 178.718Z" fill="#090909"/>
<path d="M212.216 167.857C210.833 167.841 209.46 167.623 208.141 167.21L208.226 166.956C208.272 166.972 212.906 168.494 215.845 166.722L215.983 166.951C214.841 167.639 213.481 167.857 212.216 167.857Z" fill="#090909"/>
<path d="M167.143 178.937L163.074 183.857L163.702 184.258L167.143 178.937Z" fill="#090909"/>
<path d="M189.385 185.138C189.654 185.138 189.872 184.921 189.872 184.652C189.872 184.383 189.654 184.165 189.385 184.165C189.116 184.165 188.898 184.383 188.898 184.652C188.898 184.921 189.116 185.138 189.385 185.138Z" fill="#090909"/>
<path d="M190.96 185.138C191.229 185.138 191.447 184.921 191.447 184.652C191.447 184.383 191.229 184.165 190.96 184.165C190.692 184.165 190.474 184.383 190.474 184.652C190.474 184.921 190.692 185.138 190.96 185.138Z" fill="#090909"/>
<path d="M207.174 159.776C206.312 159.776 205.61 158.853 205.61 157.719C205.61 156.584 206.312 155.661 207.174 155.661C208.037 155.661 208.738 156.584 208.738 157.719C208.738 158.853 208.036 159.776 207.174 159.776ZM207.174 155.948C206.47 155.948 205.897 156.743 205.897 157.719C205.897 158.694 206.47 159.489 207.174 159.489C207.878 159.489 208.451 158.694 208.451 157.719C208.451 156.743 207.878 155.948 207.174 155.948Z" fill="#2C34F1"/>
<path d="M210.92 159.776C210.058 159.776 209.356 158.853 209.356 157.719C209.356 156.584 210.058 155.661 210.92 155.661C211.783 155.661 212.484 156.584 212.484 157.719C212.484 158.853 211.782 159.776 210.92 159.776ZM210.92 155.948C210.217 155.948 209.643 156.743 209.643 157.719C209.643 158.694 210.216 159.489 210.92 159.489C211.625 159.489 212.197 158.694 212.197 157.719C212.197 156.743 211.624 155.948 210.92 155.948Z" fill="#2C34F1"/>
<path d="M208.643 157.853L208.545 157.584C208.569 157.575 209.123 157.377 209.563 157.589L209.438 157.847C209.108 157.688 208.648 157.851 208.643 157.853Z" fill="#2C34F1"/>
<path d="M216.398 157.686H216.397L212.331 157.651C212.312 157.651 212.294 157.647 212.276 157.64C212.259 157.633 212.243 157.622 212.23 157.609C212.217 157.595 212.206 157.579 212.199 157.562C212.192 157.544 212.188 157.526 212.188 157.507C212.189 157.488 212.192 157.47 212.2 157.452C212.207 157.435 212.218 157.419 212.231 157.406C212.244 157.393 212.26 157.382 212.278 157.375C212.295 157.368 212.314 157.364 212.332 157.364H212.334L216.4 157.4C216.418 157.4 216.437 157.403 216.454 157.411C216.472 157.418 216.487 157.429 216.501 157.442C216.514 157.455 216.524 157.471 216.532 157.489C216.539 157.506 216.542 157.525 216.542 157.544C216.542 157.562 216.538 157.581 216.531 157.598C216.524 157.616 216.513 157.631 216.5 157.645C216.486 157.658 216.471 157.668 216.453 157.676C216.436 157.683 216.417 157.686 216.398 157.686V157.686Z" fill="#2C34F1"/>
<path d="M216.752 164.136C216.415 164.136 216.085 164.036 215.805 163.849C215.524 163.661 215.306 163.395 215.177 163.084C215.048 162.772 215.014 162.429 215.08 162.098C215.145 161.767 215.308 161.464 215.546 161.225C215.785 160.987 216.089 160.824 216.42 160.758C216.75 160.693 217.093 160.726 217.405 160.855C217.716 160.985 217.983 161.203 218.17 161.484C218.357 161.764 218.457 162.094 218.457 162.431C218.457 162.883 218.277 163.316 217.957 163.636C217.638 163.956 217.204 164.136 216.752 164.136ZM216.752 161.012C216.472 161.012 216.197 161.095 215.964 161.251C215.731 161.407 215.549 161.629 215.441 161.888C215.334 162.147 215.306 162.432 215.361 162.708C215.415 162.983 215.551 163.236 215.749 163.434C215.947 163.633 216.2 163.768 216.475 163.822C216.751 163.877 217.036 163.849 217.295 163.742C217.554 163.634 217.776 163.453 217.932 163.219C218.088 162.986 218.171 162.712 218.171 162.431C218.17 162.055 218.021 161.694 217.755 161.428C217.489 161.162 217.128 161.013 216.752 161.012Z" fill="#6595F7"/>
<path d="M216.472 161.192C216.616 161.192 216.733 161.075 216.733 160.931C216.733 160.787 216.616 160.67 216.472 160.67C216.328 160.67 216.211 160.787 216.211 160.931C216.211 161.075 216.328 161.192 216.472 161.192Z" fill="#6595F7"/>
<path d="M173.836 154.555C170.521 154.555 167.28 153.572 164.524 151.731C161.767 149.889 159.619 147.271 158.35 144.208C157.081 141.145 156.75 137.775 157.396 134.523C158.043 131.272 159.64 128.285 161.984 125.941C164.328 123.597 167.315 122 170.566 121.353C173.818 120.707 177.188 121.039 180.251 122.307C183.314 123.576 185.932 125.724 187.774 128.481C189.615 131.237 190.598 134.478 190.598 137.794C190.593 142.238 188.826 146.498 185.683 149.641C182.541 152.783 178.28 154.55 173.836 154.555ZM173.836 121.573C170.628 121.573 167.492 122.525 164.825 124.307C162.158 126.089 160.079 128.622 158.851 131.586C157.623 134.55 157.302 137.811 157.928 140.958C158.554 144.104 160.099 146.994 162.367 149.263C164.635 151.531 167.526 153.076 170.672 153.702C173.818 154.328 177.08 154.007 180.044 152.779C183.007 151.551 185.541 149.472 187.323 146.805C189.105 144.138 190.056 141.002 190.056 137.794C190.052 133.493 188.341 129.37 185.3 126.33C182.26 123.289 178.137 121.578 173.836 121.573Z" fill="#6445F1"/>
<path d="M179.256 159.704C188.363 159.704 195.747 152.321 195.747 143.213C195.747 134.105 188.363 126.722 179.256 126.722C170.148 126.722 162.765 134.105 162.765 143.213C162.765 152.321 170.148 159.704 179.256 159.704Z" fill="#2C34F1"/>
<path d="M180.926 133.354C178.853 135.812 176.447 137.969 173.778 139.762C173.588 143.788 172.319 147.689 170.103 151.056C173.692 149.182 177.775 148.47 181.788 149.017C183.741 146.542 186.363 144.679 189.343 143.65L180.926 133.354Z" fill="white"/>
<path d="M170.103 151.417C170.029 151.417 169.957 151.394 169.897 151.352C169.836 151.31 169.79 151.251 169.764 151.182C169.738 151.113 169.734 151.038 169.752 150.967C169.77 150.895 169.81 150.831 169.865 150.783L178.563 143.217C178.635 143.156 178.729 143.125 178.824 143.132C178.919 143.139 179.007 143.183 179.07 143.255C179.132 143.327 179.164 143.421 179.158 143.516C179.152 143.611 179.108 143.699 179.037 143.763L170.34 151.328C170.274 151.385 170.19 151.417 170.103 151.417Z" fill="#090909"/>
<path d="M179.187 144.507C179.941 144.507 180.552 143.896 180.552 143.142C180.552 142.388 179.941 141.777 179.187 141.777C178.433 141.777 177.822 142.388 177.822 143.142C177.822 143.896 178.433 144.507 179.187 144.507Z" fill="#090909"/>
<path d="M189.343 144.011C189.29 144.011 189.237 144 189.189 143.977C189.14 143.954 189.097 143.92 189.064 143.879L180.646 133.583C180.587 133.508 180.56 133.414 180.57 133.319C180.581 133.225 180.628 133.139 180.701 133.079C180.774 133.019 180.868 132.99 180.963 132.999C181.057 133.007 181.144 133.053 181.206 133.125L189.623 143.421C189.666 143.474 189.694 143.538 189.702 143.606C189.71 143.674 189.699 143.743 189.67 143.805C189.641 143.867 189.594 143.919 189.537 143.955C189.479 143.992 189.412 144.011 189.343 144.011Z" fill="#090909"/>
</svg>
