<svg width="16" height="17" viewBox="0 0 16 17" fill="none" xmlns="http://www.w3.org/2000/svg">
<path d="M8.00327 3.16895C12.0533 3.16895 15.3366 4.95981 15.3366 7.16893V9.83559C15.3366 12.0447 12.0533 13.8356 8.00327 13.8356C4.0255 13.8356 0.787429 12.1081 0.673049 9.95353L0.669922 9.83559V7.16893C0.669922 4.95981 3.95317 3.16895 8.00327 3.16895ZM8.00327 11.1689C5.52296 11.1689 3.33025 10.4973 2.00311 9.46926L2.00326 9.83559C2.00326 11.0904 4.59168 12.5023 8.00327 12.5023C11.3437 12.5023 13.8951 11.1487 13.9999 9.91426L14.0033 9.83559L14.0041 9.46872C12.677 10.4971 10.484 11.1689 8.00327 11.1689ZM8.00327 4.50228C4.59168 4.50228 2.00326 5.91415 2.00326 7.16893C2.00326 8.42373 4.59168 9.83559 8.00327 9.83559C11.4149 9.83559 14.0033 8.42373 14.0033 7.16893C14.0033 5.91415 11.4149 4.50228 8.00327 4.50228Z" fill="black"/>
</svg>
