<svg width="16" height="17" viewBox="0 0 16 17" fill="none" xmlns="http://www.w3.org/2000/svg">
<path d="M3.33333 8.83333C3.33333 9.04227 3.64067 9.4056 4.35365 9.76207C5.27603 10.2233 6.58451 10.5 8 10.5C9.41547 10.5 10.7239 10.2233 11.6463 9.76207C12.3593 9.4056 12.6667 9.04227 12.6667 8.83333V7.3858C11.5667 8.06547 9.88487 8.5 8 8.5C6.11515 8.5 4.43331 8.06547 3.33333 7.3858V8.83333ZM12.6667 10.7191C11.5667 11.3988 9.88487 11.8333 8 11.8333C6.11515 11.8333 4.43331 11.3988 3.33333 10.7191V12.1667C3.33333 12.3756 3.64067 12.7389 4.35365 13.0954C5.27603 13.5566 6.58451 13.8333 8 13.8333C9.41547 13.8333 10.7239 13.5566 11.6463 13.0954C12.3593 12.7389 12.6667 12.3756 12.6667 12.1667V10.7191ZM2 12.1667V5.5C2 3.84315 4.68629 2.5 8 2.5C11.3137 2.5 14 3.84315 14 5.5V12.1667C14 13.8235 11.3137 15.1667 8 15.1667C4.68629 15.1667 2 13.8235 2 12.1667ZM8 7.16667C9.41547 7.16667 10.7239 6.88995 11.6463 6.42875C12.3593 6.07227 12.6667 5.70895 12.6667 5.5C12.6667 5.29105 12.3593 4.92773 11.6463 4.57125C10.7239 4.11005 9.41547 3.83333 8 3.83333C6.58451 3.83333 5.27603 4.11005 4.35365 4.57125C3.64067 4.92773 3.33333 5.29105 3.33333 5.5C3.33333 5.70895 3.64067 6.07227 4.35365 6.42875C5.27603 6.88995 6.58451 7.16667 8 7.16667Z" fill="black"/>
</svg>
