<svg width="18" height="18" viewBox="0 0 18 18" fill="none" xmlns="http://www.w3.org/2000/svg">
<g clip-path="url(#clip0_595_10341)">
<path d="M8.96496 7.28505C4.32348 7.28505 0.560547 5.77973 0.560547 3.92329C0.560547 2.06685 4.32348 0.561523 8.96496 0.561523C13.6064 0.561523 17.3694 2.0661 17.3694 3.92329C17.3694 4.91389 16.2973 5.80513 14.5911 6.42071" stroke="#131313" stroke-width="1.12059" stroke-linecap="round" stroke-linejoin="round"/>
<path d="M17.3691 7.86732V3.92285" stroke="#131313" stroke-width="1.12059" stroke-linecap="round" stroke-linejoin="round"/>
<path d="M0.560547 3.92285V8.4052C0.560547 9.87542 2.922 11.126 6.21055 11.5817" stroke="#131313" stroke-width="1.12059" stroke-linecap="round" stroke-linejoin="round"/>
<path d="M0.560547 8.40527V12.8876C0.560547 14.5117 3.44121 15.8669 7.27063 16.1807" stroke="#131313" stroke-width="1.12059" stroke-linecap="round" stroke-linejoin="round"/>
<path d="M8.4043 12.8876C8.4043 14.0764 8.87654 15.2165 9.71715 16.0571C10.5578 16.8977 11.6979 17.37 12.8866 17.37C14.0754 17.37 15.2155 16.8977 16.0562 16.0571C16.8968 15.2165 17.369 14.0764 17.369 12.8876C17.369 11.6988 16.8968 10.5587 16.0562 9.71812C15.2155 8.87752 14.0754 8.40527 12.8866 8.40527C11.6979 8.40527 10.5578 8.87752 9.71715 9.71812C8.87654 10.5587 8.4043 11.6988 8.4043 12.8876Z" stroke="#131313" stroke-width="1.12059" stroke-linecap="round" stroke-linejoin="round"/>
<path d="M12.8867 10.6465V15.1288" stroke="#131313" stroke-width="1.12059" stroke-linecap="round" stroke-linejoin="round"/>
<path d="M10.6455 12.8877H15.1279" stroke="#131313" stroke-width="1.12059" stroke-linecap="round" stroke-linejoin="round"/>
</g>
<defs>
<clipPath id="clip0_595_10341">
<rect width="17.9294" height="17.9294" fill="white"/>
</clipPath>
</defs>
</svg>
