<svg width="16" height="17" viewBox="0 0 16 17" fill="none" xmlns="http://www.w3.org/2000/svg">
<path d="M8.00053 2.5C11.5953 2.5 14.5859 5.08651 15.2129 8.5C14.5859 11.9135 11.5953 14.5 8.00053 14.5C4.40574 14.5 1.41509 11.9135 0.788086 8.5C1.41509 5.08651 4.40574 2.5 8.00053 2.5ZM8.00053 13.1667C10.8243 13.1667 13.2405 11.2013 13.8521 8.5C13.2405 5.79869 10.8243 3.83333 8.00053 3.83333C5.17673 3.83333 2.76047 5.79869 2.14885 8.5C2.76047 11.2013 5.17673 13.1667 8.00053 13.1667ZM8.00053 11.5C6.34365 11.5 5.0005 10.1569 5.0005 8.5C5.0005 6.84315 6.34365 5.5 8.00053 5.5C9.65733 5.5 11.0005 6.84315 11.0005 8.5C11.0005 10.1569 9.65733 11.5 8.00053 11.5ZM8.00053 10.1667C8.92099 10.1667 9.66719 9.42047 9.66719 8.5C9.66719 7.57953 8.92099 6.83333 8.00053 6.83333C7.08006 6.83333 6.33383 7.57953 6.33383 8.5C6.33383 9.42047 7.08006 10.1667 8.00053 10.1667Z" fill="white"/>
</svg>
