<svg width="9" height="9" viewBox="0 0 9 9" fill="none" xmlns="http://www.w3.org/2000/svg">
<path d="M5.02483 1.77375C5.02263 1.79648 5.02915 1.81921 5.04308 1.83731C5.05701 1.85542 5.07729 1.86755 5.09983 1.87125C5.19125 1.8945 5.2718 1.94865 5.32785 2.02451C5.38389 2.10038 5.41198 2.19329 5.40733 2.2875V2.8125C5.40733 2.87388 5.41948 2.93466 5.44309 2.99132C5.46669 3.04798 5.50128 3.09941 5.54485 3.14264C5.58843 3.18587 5.64014 3.22004 5.69699 3.24319C5.75384 3.26633 5.81471 3.27799 5.87608 3.2775C5.93729 3.278 5.99798 3.26631 6.05462 3.24312C6.11126 3.21993 6.16272 3.1857 6.206 3.14242C6.24928 3.09914 6.28352 3.04768 6.30671 2.99104C6.3299 2.9344 6.34158 2.8737 6.34108 2.8125V1.5C6.34109 1.35146 6.28234 1.20895 6.17766 1.10357C6.07298 0.99819 5.93087 0.93849 5.78233 0.9375H5.13358C5.10875 0.938281 5.08492 0.947545 5.06608 0.96375C5.04899 0.982045 5.03959 1.00621 5.03983 1.03125C5.03983 1.2 5.03983 1.5825 5.02483 1.77375Z" fill="#131313"/>
<path d="M3.37501 7.97234C3.37664 7.90889 3.36515 7.84579 3.34126 7.78698C3.31738 7.72817 3.28161 7.67492 3.23621 7.63057C3.1908 7.58622 3.13673 7.55172 3.07737 7.52922C3.01802 7.50673 2.95466 7.49673 2.89126 7.49984H1.30501C1.25228 7.49651 1.20073 7.48279 1.15331 7.45948C1.10589 7.43616 1.06355 7.40371 1.02871 7.36399C0.993863 7.32427 0.967209 7.27806 0.950272 7.22801C0.933335 7.17796 0.92645 7.12506 0.930013 7.07234V2.28734C0.926077 2.19206 0.955888 2.09845 1.0142 2.02299C1.07251 1.94753 1.15557 1.89507 1.24876 1.87484C1.27092 1.87036 1.29071 1.85803 1.30449 1.84011C1.31827 1.8222 1.32512 1.79991 1.32376 1.77734C1.32376 1.48859 1.32376 1.17734 1.32376 1.02734C1.32376 1.00248 1.31389 0.978634 1.2963 0.961053C1.27872 0.943471 1.25488 0.933594 1.23001 0.933594H0.562513C0.488327 0.933592 0.414875 0.948265 0.346383 0.976767C0.277892 1.00527 0.215715 1.04704 0.163433 1.09967C0.111151 1.1523 0.0697959 1.21475 0.0417491 1.28343C0.0137024 1.35211 -0.000482067 1.42566 1.25012e-05 1.49984V7.87484C9.20035e-06 8.02338 0.0587574 8.16589 0.163437 8.27127C0.268116 8.37665 0.410229 8.43635 0.558763 8.43734H2.89126C2.95389 8.43987 3.01638 8.42971 3.07497 8.40748C3.13357 8.38524 3.18707 8.35139 3.23226 8.30796C3.27744 8.26452 3.31338 8.21241 3.33791 8.15473C3.36244 8.09706 3.37506 8.03502 3.37501 7.97234Z" fill="#131313"/>
<path d="M4.47754 1.67636V0.926356C4.47656 0.877281 4.45637 0.830547 4.42131 0.796191C4.38626 0.761835 4.33912 0.742596 4.29004 0.742606H4.00504C3.98223 0.741999 3.96035 0.73341 3.94322 0.718335C3.92609 0.70326 3.91479 0.682655 3.91129 0.660106C3.88317 0.483914 3.79315 0.323519 3.65741 0.207724C3.52166 0.091929 3.34909 0.0283203 3.17066 0.0283203C2.99224 0.0283203 2.81966 0.091929 2.68392 0.207724C2.54818 0.323519 2.45816 0.483914 2.43004 0.660106C2.42907 0.684314 2.41877 0.707208 2.40129 0.723986C2.38381 0.740765 2.36052 0.750125 2.33629 0.750106H2.05129C2.00451 0.752008 1.96022 0.771695 1.92746 0.805148C1.89471 0.838601 1.87596 0.883296 1.87504 0.930106V1.68011C1.87454 1.70455 1.87892 1.72885 1.88793 1.75158C1.89694 1.7743 1.9104 1.79501 1.92751 1.81247C1.94463 1.82993 1.96505 1.8438 1.98759 1.85327C2.01013 1.86274 2.03434 1.86761 2.05879 1.86761H4.30879C4.35585 1.86289 4.3994 1.84056 4.43069 1.80509C4.46199 1.76963 4.47872 1.72364 4.47754 1.67636Z" fill="#131313"/>
<path d="M7.125 6.47656H5.625C5.55041 6.47656 5.47887 6.50619 5.42613 6.55894C5.37338 6.61168 5.34375 6.68322 5.34375 6.75781C5.34375 6.8324 5.37338 6.90394 5.42613 6.95669C5.47887 7.00943 5.55041 7.03906 5.625 7.03906H7.125C7.19959 7.03906 7.27113 7.00943 7.32387 6.95669C7.37662 6.90394 7.40625 6.8324 7.40625 6.75781C7.40625 6.68322 7.37662 6.61168 7.32387 6.55894C7.27113 6.50619 7.19959 6.47656 7.125 6.47656Z" fill="#131313"/>
<path d="M5.3584 5.45312C5.35937 5.52742 5.38931 5.59839 5.44185 5.65092C5.49438 5.70346 5.56536 5.7334 5.63965 5.73438H6.5734C6.64799 5.73438 6.71953 5.70474 6.77227 5.652C6.82502 5.59925 6.85465 5.52772 6.85465 5.45312C6.85465 5.37853 6.82502 5.307 6.77227 5.25425C6.71953 5.20151 6.64799 5.17188 6.5734 5.17188H5.62465C5.553 5.17659 5.48577 5.20818 5.43641 5.26033C5.38705 5.31247 5.35919 5.38133 5.3584 5.45312Z" fill="#131313"/>
<path d="M8.81234 5.04746C8.8125 4.84941 8.73431 4.65933 8.59484 4.51871L8.06609 3.99371C7.92609 3.85287 7.73594 3.7733 7.53734 3.77246H4.68359C4.48468 3.77246 4.29392 3.85148 4.15326 3.99213C4.01261 4.13278 3.93359 4.32355 3.93359 4.52246V8.24996C3.93359 8.44887 4.01261 8.63964 4.15326 8.78029C4.29392 8.92094 4.48468 8.99996 4.68359 8.99996H8.05859C8.25751 8.99996 8.44827 8.92094 8.58892 8.78029C8.72958 8.63964 8.80859 8.44887 8.80859 8.24996L8.81234 5.04746ZM4.68734 4.89746C4.68734 4.798 4.72685 4.70262 4.79718 4.6323C4.86751 4.56197 4.96289 4.52246 5.06234 4.52246H7.38359C7.43295 4.52218 7.48187 4.53163 7.52756 4.5503C7.57325 4.56896 7.6148 4.59646 7.64984 4.63121L7.95734 4.93871C8.02662 5.00856 8.06568 5.10283 8.06609 5.20121V7.87496C8.06609 7.97442 8.02658 8.0698 7.95626 8.14013C7.88593 8.21045 7.79055 8.24996 7.69109 8.24996H5.06609C4.96664 8.24996 4.87126 8.21045 4.80093 8.14013C4.7306 8.0698 4.69109 7.97442 4.69109 7.87496L4.68734 4.89746Z" fill="#131313"/>
</svg>
