<svg width="17" height="17" viewBox="0 0 17 17" fill="none" xmlns="http://www.w3.org/2000/svg">
<path d="M5.60208 4.49967V2.49967C5.60208 2.13149 5.90056 1.83301 6.26875 1.83301H14.2687C14.6369 1.83301 14.9354 2.13149 14.9354 2.49967V11.833C14.9354 12.2012 14.6369 12.4997 14.2687 12.4997H12.2687V14.4991C12.2687 14.8676 11.9688 15.1663 11.5975 15.1663H3.60665C3.23594 15.1663 2.93555 14.8699 2.93555 14.4991L2.93728 5.16692C2.93735 4.79841 3.23731 4.49967 3.60849 4.49967H5.60208ZM4.27049 5.83301L4.26901 13.833H10.9354V5.83301H4.27049ZM6.93541 4.49967H12.2687V11.1663H13.6021V3.16634H6.93541V4.49967ZM5.60221 7.83301H9.60221V9.16634H5.60221V7.83301ZM5.60221 10.4997H9.60221V11.833H5.60221V10.4997Z" fill="black"/>
</svg>
