<svg width="16" height="17" viewBox="0 0 16 17" fill="none" xmlns="http://www.w3.org/2000/svg">
<g clip-path="url(#clip0_745_445)">
<path d="M10.3349 13.8368C9.89579 14.8897 9.05326 15.7323 8.00033 16.1714C6.94739 15.7323 6.10485 14.8897 5.66577 13.8368H7.17199C7.38953 14.1625 7.67039 14.4451 8.00033 14.6657C8.33026 14.4451 8.61113 14.1625 8.82866 13.8368H10.3349ZM12.0003 10.3733L13.3337 11.8855V13.1701H2.66699V11.8855L4.00033 10.3733V6.50349C4.00033 4.18133 5.66994 2.20579 8.00033 1.47363C10.3307 2.20579 12.0003 4.18133 12.0003 6.50349V10.3733ZM11.5131 11.8368L10.667 10.8772V6.50349C10.667 4.95827 9.61979 3.54985 8.00033 2.88953C6.38085 3.54985 5.33366 4.95827 5.33366 6.50349V10.8772L4.4875 11.8368H11.5131ZM8.00033 7.83679C7.26393 7.83679 6.66699 7.23986 6.66699 6.50349C6.66699 5.76711 7.26393 5.17016 8.00033 5.17016C8.73673 5.17016 9.33366 5.76711 9.33366 6.50349C9.33366 7.23986 8.73673 7.83679 8.00033 7.83679Z" fill="black"/>
</g>
<defs>
<clipPath id="clip0_745_445">
<rect width="16" height="16" fill="white" transform="translate(0 0.5)"/>
</clipPath>
</defs>
</svg>
