<svg width="16" height="17" viewBox="0 0 16 17" fill="none" xmlns="http://www.w3.org/2000/svg">
<path d="M11.333 4.49967H14.6663V5.83301H13.333V14.4997C13.333 14.8679 13.0345 15.1663 12.6663 15.1663H3.33301C2.96482 15.1663 2.66634 14.8679 2.66634 14.4997V5.83301H1.33301V4.49967H4.66634V2.49967C4.66634 2.13149 4.96482 1.83301 5.33301 1.83301H10.6663C11.0345 1.83301 11.333 2.13149 11.333 2.49967V4.49967ZM11.9997 5.83301H3.99967V13.833H11.9997V5.83301ZM5.99967 7.83301H7.33301V11.833H5.99967V7.83301ZM8.66634 7.83301H9.99967V11.833H8.66634V7.83301ZM5.99967 3.16634V4.49967H9.99967V3.16634H5.99967Z" fill="#E30815"/>
</svg>
