<svg width="16" height="17" viewBox="0 0 16 17" fill="none" xmlns="http://www.w3.org/2000/svg">
<path d="M7.39793 12.4068C7.37384 12.1575 7.32166 11.9162 7.24941 11.683C7.17715 11.4498 7.08082 11.2286 6.96842 11.0155C6.34223 9.85737 5.11794 9.07324 3.709 9.07324C2.30006 9.07324 1.07577 9.85737 0.449576 11.0155C0.337182 11.2246 0.240844 11.4498 0.168591 11.683C0.0963377 11.9162 0.0481689 12.1575 0.0200704 12.4068C0.00802821 12.5314 0 12.6601 0 12.7848C0 14.8356 1.65781 16.4963 3.70498 16.4963C5.75216 16.4963 7.40997 14.8356 7.40997 12.7848C7.40997 12.6561 7.40194 12.5314 7.3899 12.4068H7.39793Z" fill="#EF355E"/>
<path d="M8.58594 9.07324H15.9999C15.9999 13.1708 12.6803 16.5003 8.58594 16.5003V9.07324V9.07324Z" fill="#EF355E"/>
<path d="M0.00390625 0.503906C4.09424 0.503906 7.41789 3.82941 7.41789 7.931H0.00390625V0.503906Z" fill="#EF355E"/>
<path d="M15.9999 0.504021V7.92709H8.58594C8.58594 3.82953 11.9056 0.5 15.9999 0.5V0.504021Z" fill="#EF355E"/>
</svg>
