<svg width="16" height="17" viewBox="0 0 16 17" fill="none" xmlns="http://www.w3.org/2000/svg">
<path d="M8.58594 9.07227H15.9994C15.9994 13.1728 12.6788 16.4997 8.58594 16.4997V9.07227V9.07227Z" fill="#131313"/>
<path d="M0 9.07227H7.4135V16.4997C3.32067 16.4997 0 13.1728 0 9.07227V9.07227Z" fill="#131313"/>
<path d="M7.4135 0.5H0V7.92748H7.4135V0.5Z" fill="#131313"/>
<path d="M12.2947 0.5H12.2907C10.2446 0.5 8.58594 2.1618 8.58594 4.21174V4.21574C8.58594 6.26568 10.2446 7.92748 12.2907 7.92748H12.2947C14.3408 7.92748 15.9994 6.26568 15.9994 4.21574V4.21174C15.9994 2.1618 14.3408 0.5 12.2947 0.5Z" fill="#131313"/>
</svg>
