<svg width="28" height="28" viewBox="0 0 28 28" fill="none" xmlns="http://www.w3.org/2000/svg">
<rect y="0.0722656" width="27.8558" height="27.8558" rx="13.9279" fill="#FFC095"/>
<mask id="mask0_595_10305" style="mask-type:alpha" maskUnits="userSpaceOnUse" x="0" y="0" width="28" height="28">
<rect x="0.144531" y="0.0722656" width="27.8558" height="27.8558" rx="13.9279" fill="#F4E7D7"/>
</mask>
<g mask="url(#mask0_595_10305)">
<path d="M24.6392 13.2733C24.606 12.8751 24.5728 12.4437 24.5064 12.0455C24.4401 11.6141 24.3405 11.2159 24.2078 10.7845C24.0751 10.3531 23.9423 9.9549 23.7764 9.5567C23.5773 9.12531 23.3782 8.69393 23.1459 8.29573C22.8804 7.86434 22.615 7.46614 22.2831 7.06793C21.9181 6.60336 21.5199 6.20517 21.0885 5.80696C20.5908 5.34239 20.0267 4.94419 19.4625 4.57917C17.8366 3.61685 15.9451 3.05273 13.9209 3.05273V4.57917V5.80696V7.06793V8.29573V9.5567V10.7845V12.0455V13.2733V14.5342V15.762V17.023V18.2508V19.5118V20.7395V22.0005V23.2283V24.7216C15.9119 24.7216 17.7702 24.1906 19.3962 23.2283C19.9935 22.8633 20.5576 22.4651 21.0554 22.0005C21.4867 21.6023 21.8849 21.2041 22.25 20.7395C22.5486 20.3413 22.8473 19.9431 23.1127 19.5118C23.345 19.1136 23.5773 18.6822 23.7764 18.2508C23.9423 17.8526 24.1082 17.4544 24.2078 17.023C24.3405 16.6248 24.4401 16.1934 24.5064 15.762C24.5728 15.3638 24.6392 14.9656 24.6392 14.5342C24.6392 14.3351 24.6724 14.1028 24.6724 13.9037C24.6392 13.6714 24.6392 13.4724 24.6392 13.2733Z" fill="#1D6DEC"/>
<path d="M13.9206 3.11816C11.8964 3.11816 10.0049 3.6823 8.37891 4.64462H13.9206V3.11816Z" fill="#1D6DEC"/>
<path d="M13.92 18.1826H4.06445C4.26355 18.614 4.46266 19.0454 4.72812 19.4436H13.92V18.1826Z" fill="#1D6DEC"/>
<path d="M13.9209 20.6719H5.5918C5.95682 21.1364 6.35502 21.5346 6.7864 21.9328H13.9209V20.6719Z" fill="#1D6DEC"/>
<path d="M8.44531 23.1279C10.0381 24.0903 11.9296 24.6212 13.9206 24.6212V23.1279H8.44531Z" fill="#1D6DEC"/>
<path d="M13.9204 13.2725H3.20213C3.20213 13.4716 3.16895 13.6707 3.16895 13.8698C3.16895 14.102 3.16895 14.3012 3.20213 14.5003H13.9204V13.2725Z" fill="#1D6DEC"/>
<path d="M13.9205 15.7275H3.33496C3.40133 16.1589 3.50088 16.5571 3.63361 16.9885H13.9205V15.7275Z" fill="#1D6DEC"/>
<path d="M13.92 8.32715H4.69494C4.46266 8.72535 4.23037 9.15673 4.06445 9.58812H13.92V8.32715Z" fill="#1D6DEC"/>
<path d="M13.9199 5.87207H6.75222C6.32084 6.27027 5.92264 6.66847 5.55762 7.13304H13.9199V5.87207Z" fill="#1D6DEC"/>
<path d="M13.9205 10.7842H3.63361C3.50088 11.1824 3.40133 11.6138 3.33496 12.0451H13.9205V10.7842Z" fill="#1D6DEC"/>
</g>
</svg>
