<svg width="49" height="48" viewBox="0 0 49 48" fill="none" xmlns="http://www.w3.org/2000/svg">
<path d="M44.5234 0H4.52344C2.3143 0 0.523438 1.79086 0.523438 4V44C0.523438 46.2091 2.3143 48 4.52344 48H44.5234C46.7326 48 48.5234 46.2091 48.5234 44V4C48.5234 1.79086 46.7326 0 44.5234 0Z" fill="#142DE0"/>
<path fill-rule="evenodd" clip-rule="evenodd" d="M24.5234 0C11.2686 0 0.523438 10.7452 0.523438 24C0.523438 37.2548 11.2686 48 24.5234 48" fill="#FF7168"/>
<path fill-rule="evenodd" clip-rule="evenodd" d="M24.5234 0C37.7783 0 48.5234 10.7452 48.5234 24C48.5234 37.2548 37.7783 48 24.5234 48" fill="#FFA466"/>
</svg>
