<svg width="49" height="48" viewBox="0 0 49 48" fill="none" xmlns="http://www.w3.org/2000/svg">
<rect x="0.214844" width="47.7523" height="48" rx="5" fill="#FFC095"/>
<mask id="mask0_595_11161" style="mask-type:alpha" maskUnits="userSpaceOnUse" x="0" y="0" width="49" height="48">
<rect x="0.460938" width="47.7523" height="48" rx="4" fill="#F4E7D7"/>
</mask>
<g mask="url(#mask0_595_11161)">
<path d="M27.809 29.5395L15.1484 34.1706V9.44712L27.809 4.83398V29.5395Z" fill="#142DE0"/>
<path d="M25.1301 17.1248C25.1016 17.1248 25.1015 17.1248 25.073 17.1248L12.4125 12.5117C12.384 12.4936 12.3555 12.4756 12.3555 12.4576C12.3555 12.4396 12.384 12.4216 12.4125 12.4036L24.9875 7.80844C25.016 7.79042 25.0445 7.79042 25.073 7.80844L37.7336 12.4216C37.7621 12.4396 37.7906 12.4576 37.7906 12.4756C37.7906 12.4937 37.7621 12.5117 37.7336 12.5297L25.1871 17.1068C25.1586 17.1068 25.1586 17.1248 25.1301 17.1248ZM12.6691 12.4396L25.1301 16.9806L37.534 12.4576L25.073 7.91655L12.6691 12.4396Z" fill="#142DE0"/>
<path d="M25.1301 41.8484C25.1016 41.8484 25.1015 41.8484 25.073 41.8484L12.4125 37.2353C12.384 37.2173 12.3555 37.1993 12.3555 37.1813C12.3555 37.1632 12.384 37.1452 12.4125 37.1272L24.9875 32.5321C25.016 32.514 25.0445 32.514 25.073 32.5321L37.7336 37.1452C37.7621 37.1632 37.7906 37.1812 37.7906 37.1993C37.7906 37.2173 37.7621 37.2353 37.7336 37.2533L25.1871 41.8484C25.1586 41.8484 25.1586 41.8484 25.1301 41.8484ZM12.6691 37.1632L25.1301 41.7043L37.534 37.1813L25.073 32.6402L12.6691 37.1632Z" fill="#142DE0"/>
<path d="M25.1008 41.8489C25.0723 41.8489 25.0722 41.8489 25.0437 41.8489L12.3832 37.2358C12.3547 37.2178 12.3262 37.1998 12.3262 37.1817V12.4582C12.3262 12.4402 12.3547 12.4222 12.3832 12.4041C12.4117 12.3861 12.4402 12.3861 12.4687 12.4041L25.1293 17.0173C25.1578 17.0353 25.1863 17.0533 25.1863 17.0713V41.7949C25.1863 41.8129 25.1578 41.8309 25.1293 41.8489H25.1008ZM12.5258 37.1277L24.9867 41.6687V17.1074L12.5258 12.5483V37.1277Z" fill="#142DE0"/>
<path d="M21.0519 42.5696C21.0234 42.5696 21.0234 42.5696 20.9949 42.5696L8.33438 37.9565C8.30586 37.9385 8.27734 37.9205 8.27734 37.9024V13.1789C8.27734 13.1609 8.30586 13.1429 8.33438 13.1248C8.36289 13.1068 8.3914 13.1068 8.41992 13.1248L21.0804 17.738C21.109 17.756 21.1375 17.774 21.1375 17.792V42.5156C21.1375 42.5336 21.109 42.5516 21.0804 42.5696H21.0519ZM8.47695 37.8484L20.9379 42.3894V17.8281L8.47695 13.287V37.8484Z" fill="#142DE0"/>
<path d="M25.1023 41.8489C25.0738 41.8489 25.0738 41.8489 25.0453 41.8489C25.0168 41.8309 24.9883 41.8129 24.9883 41.7949V17.0713C24.9883 17.0533 25.0168 17.0353 25.0453 17.0173L37.7059 12.4041C37.7344 12.3861 37.7629 12.3861 37.7914 12.4041C37.8199 12.4222 37.8484 12.4402 37.8484 12.4582V37.1817C37.8484 37.1998 37.8199 37.2178 37.7914 37.2358L25.1309 41.8489H25.1023ZM25.1879 17.1074V41.6867L37.6488 37.1457V12.5483L25.1879 17.1074Z" fill="#142DE0"/>
<path d="M29.0086 42.9837C28.9801 42.9837 28.9801 42.9837 28.9516 42.9837C28.923 42.9657 28.8945 42.9476 28.8945 42.9296V18.2061C28.8945 18.1881 28.923 18.1701 28.9516 18.152L41.6121 13.5389C41.6406 13.5209 41.6691 13.5209 41.6977 13.5389C41.7262 13.5569 41.7547 13.5749 41.7547 13.593V38.3165C41.7547 38.3345 41.7262 38.3525 41.6977 38.3706L29.0371 42.9837C29.0371 42.9657 29.0086 42.9837 29.0086 42.9837ZM29.0941 18.2421V42.8215L41.5551 38.2805V13.6831L29.0941 18.2421Z" fill="#142DE0"/>
</g>
</svg>
