<svg width="49" height="48" viewBox="0 0 49 48" fill="none" xmlns="http://www.w3.org/2000/svg">
<rect x="0.214844" width="47.7529" height="48" rx="5" fill="#FFC095"/>
<mask id="mask0_595_11246" style="mask-type:alpha" maskUnits="userSpaceOnUse" x="0" y="0" width="49" height="48">
<rect x="0.462891" width="47.7529" height="48" rx="4" fill="#F4E7D7"/>
</mask>
<g mask="url(#mask0_595_11246)">
<path d="M42.4523 22.7473C42.3954 22.0611 42.3385 21.3178 42.2248 20.6316C42.111 19.8883 41.9403 19.2021 41.7128 18.4588C41.4853 17.7154 41.2577 17.0293 40.9733 16.3431C40.632 15.5997 40.2906 14.8564 39.8924 14.1702C39.4374 13.4269 38.9823 12.7407 38.4134 12.0546C37.7877 11.254 37.105 10.5679 36.3655 9.88171C35.5122 9.08118 34.5452 8.39501 33.5781 7.76603C30.7907 6.1078 27.5482 5.13574 24.0781 5.13574V7.76603V9.88171V12.0546V14.1702V16.3431V18.4588V20.6316V22.7473V24.9202V27.0358V29.2087V31.3244V33.4972V35.6129V37.7858V39.9014V42.4746C27.4913 42.4746 30.6769 41.5597 33.4643 39.9014C34.4883 39.2724 35.4553 38.5863 36.3086 37.7858C37.0481 37.0996 37.7308 36.4134 38.3565 35.6129C38.8685 34.9267 39.3805 34.2406 39.8356 33.4972C40.2338 32.8111 40.632 32.0677 40.9733 31.3244C41.2577 30.6382 41.5421 29.952 41.7128 29.2087C41.9403 28.5225 42.111 27.7792 42.2248 27.0358C42.3385 26.3497 42.4523 25.6635 42.4523 24.9202C42.4523 24.5771 42.5092 24.1768 42.5092 23.8337C42.4523 23.4335 42.4523 23.0904 42.4523 22.7473Z" fill="#142DE0"/>
<path d="M24.0781 5.24902C20.6081 5.24902 17.3655 6.22111 14.5781 7.87934H24.0781V5.24902Z" fill="#142DE0"/>
<path d="M24.0768 31.207H7.18164C7.52296 31.9504 7.86427 32.6937 8.31936 33.3799H24.0768V31.207Z" fill="#142DE0"/>
<path d="M24.0792 35.4971H9.80078C10.4265 36.2976 11.1092 36.9838 11.8487 37.6699H24.0792V35.4971Z" fill="#142DE0"/>
<path d="M14.6914 39.7295C17.4219 41.3877 20.6644 42.3026 24.0776 42.3026V39.7295H14.6914Z" fill="#142DE0"/>
<path d="M24.0776 22.7461H5.70337C5.70337 23.0892 5.64648 23.4323 5.64648 23.7753C5.64648 24.1756 5.64649 24.5187 5.70337 24.8618H24.0776V22.7461Z" fill="#142DE0"/>
<path d="M24.0783 26.9766H5.93164C6.04541 27.7199 6.21607 28.4061 6.44362 29.1494H24.0783V26.9766Z" fill="#142DE0"/>
<path d="M24.0768 14.2256H8.26248C7.86427 14.9118 7.46607 15.6551 7.18164 16.3984H24.0768V14.2256Z" fill="#142DE0"/>
<path d="M24.0775 9.99512H11.7901C11.0506 10.6813 10.3679 11.3674 9.74219 12.168H24.0775V9.99512Z" fill="#142DE0"/>
<path d="M24.0783 18.458H6.44362C6.21607 19.1442 6.04541 19.8875 5.93164 20.6309H24.0783V18.458Z" fill="#142DE0"/>
</g>
</svg>
