<svg width="16" height="17" viewBox="0 0 16 17" fill="none" xmlns="http://www.w3.org/2000/svg">
<path d="M8.00065 7.83301C9.84158 7.83301 11.334 9.32541 11.334 11.1663V15.1663H10.0007V11.1663C10.0007 10.1012 9.16805 9.23054 8.11818 9.16974L8.00065 9.16634C6.93552 9.16634 6.06488 9.99894 6.00404 11.0488L6.00065 11.1663V15.1663H4.66732V11.1663C4.66732 9.32541 6.1597 7.83301 8.00065 7.83301ZM3.66732 9.83301C3.85322 9.83301 4.03404 9.85474 4.20738 9.89581C4.09533 10.229 4.02647 10.581 4.00662 10.9459L4.00065 11.1663L4.00112 11.2234C3.9257 11.1967 3.84612 11.1788 3.76362 11.1709L3.66732 11.1663C3.14752 11.1663 2.72035 11.5629 2.6719 12.07L2.66732 12.1663V15.1663H1.33398V12.1663C1.33398 10.8777 2.37865 9.83301 3.66732 9.83301ZM12.334 9.83301C13.6227 9.83301 14.6673 10.8777 14.6673 12.1663V15.1663H13.334V12.1663C13.334 11.6465 12.9374 11.2194 12.4303 11.1709L12.334 11.1663C12.2172 11.1663 12.1051 11.1863 12.0009 11.2231L12.0007 11.1663C12.0007 10.7225 11.9284 10.2957 11.795 9.89674C11.9673 9.85474 12.1481 9.83301 12.334 9.83301ZM3.66732 5.83301C4.58779 5.83301 5.33398 6.5792 5.33398 7.49967C5.33398 8.42014 4.58779 9.16634 3.66732 9.16634C2.74684 9.16634 2.00065 8.42014 2.00065 7.49967C2.00065 6.5792 2.74684 5.83301 3.66732 5.83301ZM12.334 5.83301C13.2545 5.83301 14.0007 6.5792 14.0007 7.49967C14.0007 8.42014 13.2545 9.16634 12.334 9.16634C11.4135 9.16634 10.6673 8.42014 10.6673 7.49967C10.6673 6.5792 11.4135 5.83301 12.334 5.83301ZM3.66732 7.16634C3.48322 7.16634 3.33398 7.31561 3.33398 7.49967C3.33398 7.68374 3.48322 7.83301 3.66732 7.83301C3.85141 7.83301 4.00065 7.68374 4.00065 7.49967C4.00065 7.31561 3.85141 7.16634 3.66732 7.16634ZM12.334 7.16634C12.1499 7.16634 12.0007 7.31561 12.0007 7.49967C12.0007 7.68374 12.1499 7.83301 12.334 7.83301C12.5181 7.83301 12.6673 7.68374 12.6673 7.49967C12.6673 7.31561 12.5181 7.16634 12.334 7.16634ZM8.00065 1.83301C9.47338 1.83301 10.6673 3.02691 10.6673 4.49967C10.6673 5.97243 9.47338 7.16634 8.00065 7.16634C6.52789 7.16634 5.33398 5.97243 5.33398 4.49967C5.33398 3.02691 6.52789 1.83301 8.00065 1.83301ZM8.00065 3.16634C7.26425 3.16634 6.66732 3.76329 6.66732 4.49967C6.66732 5.23605 7.26425 5.83301 8.00065 5.83301C8.73705 5.83301 9.33398 5.23605 9.33398 4.49967C9.33398 3.76329 8.73705 3.16634 8.00065 3.16634Z" fill="black"/>
</svg>
