<svg width="16" height="17" viewBox="0 0 16 17" fill="none" xmlns="http://www.w3.org/2000/svg">
<path d="M3.84253 11.8333H13.334V3.83333H2.66732V12.7567L3.84253 11.8333ZM4.30368 13.1667L1.33398 15.5V3.16667C1.33398 2.79848 1.63246 2.5 2.00065 2.5H14.0007C14.3689 2.5 14.6673 2.79848 14.6673 3.16667V12.5C14.6673 12.8682 14.3689 13.1667 14.0007 13.1667H4.30368ZM7.33398 9.83333H8.66732V11.1667H7.33398V9.83333ZM5.71219 6.37564C5.9249 5.30613 6.86865 4.5 8.00065 4.5C9.28932 4.5 10.334 5.54467 10.334 6.83333C10.334 8.122 9.28932 9.16667 8.00065 9.16667H7.33398V7.83333H8.00065C8.55292 7.83333 9.00065 7.3856 9.00065 6.83333C9.00065 6.28105 8.55292 5.83333 8.00065 5.83333C7.51552 5.83333 7.11105 6.17882 7.01985 6.63718L5.71219 6.37564Z" fill="black"/>
</svg>
