<svg width="16" height="17" viewBox="0 0 16 17" fill="none" xmlns="http://www.w3.org/2000/svg">
<path d="M4.66653 4.49967V2.49967C4.66653 2.13149 4.96501 1.83301 5.3332 1.83301H13.3332C13.7014 1.83301 13.9999 2.13149 13.9999 2.49967V11.833C13.9999 12.2012 13.7014 12.4997 13.3332 12.4997H11.3332V14.4991C11.3332 14.8676 11.0333 15.1663 10.662 15.1663H2.67111C2.30039 15.1663 2 14.8699 2 14.4991L2.00173 5.16692C2.0018 4.79841 2.30176 4.49967 2.67295 4.49967H4.66653ZM3.33495 5.83301L3.33346 13.833H9.99987V5.83301H3.33495ZM5.99987 4.49967H11.3332V11.1663H12.6665V3.16634H5.99987V4.49967Z" fill="black"/>
</svg>
