<svg width="38" height="38" viewBox="0 0 38 38" fill="none" xmlns="http://www.w3.org/2000/svg">
<path d="M4.00011 37.0994H33.0995C35.3087 37.0994 37.0995 35.3085 37.0995 33.0994V3.99993C37.0995 1.79079 35.3087 -6.86646e-05 33.0996 -6.86646e-05H4.00011C1.79098 -6.86646e-05 0.000114441 1.79079 0.000114441 3.99993V33.0994C0.000114441 35.3085 1.79097 37.0994 4.00011 37.0994Z" fill="#F4E7D7"/>
<path fill-rule="evenodd" clip-rule="evenodd" d="M33.1057 0.212383C35.3023 -0.0227165 37.1221 1.79704 36.887 3.99363C35.0354 21.293 21.293 35.0354 3.9937 36.8869C1.79711 37.122 -0.0226507 35.3023 0.212451 33.1057C2.064 15.8063 15.8064 2.06393 33.1057 0.212383Z" fill="#FFC195"/>
</svg>
