<svg width="17" height="17" viewBox="0 0 17 17" fill="none" xmlns="http://www.w3.org/2000/svg">
<g clip-path="url(#clip0_595_11113)">
<path d="M5.67969 2.72266C6.22157 3.2849 6.87127 3.73208 7.58994 4.03746C8.30861 4.34285 9.08149 4.50016 9.86235 4.49999C10.6532 4.50021 11.4358 4.33915 12.1624 4.02666" stroke="#131313" stroke-width="1.125" stroke-linecap="round" stroke-linejoin="round"/>
<path d="M5.19531 4.5C5.19531 5.42826 5.56406 6.3185 6.22044 6.97487C6.87682 7.63125 7.76705 8 8.69531 8C9.62357 8 10.5138 7.63125 11.1702 6.97487C11.8266 6.3185 12.1953 5.42826 12.1953 4.5C12.1953 3.57174 11.8266 2.6815 11.1702 2.02513C10.5138 1.36875 9.62357 1 8.69531 1C7.76705 1 6.87682 1.36875 6.22044 2.02513C5.56406 2.6815 5.19531 3.57174 5.19531 4.5Z" stroke="#131313" stroke-width="1.125" stroke-linecap="round" stroke-linejoin="round"/>
<path d="M2.19531 16C2.19531 14.2761 2.88013 12.6228 4.09912 11.4038C5.31811 10.1848 6.97141 9.5 8.69531 9.5C10.4192 9.5 12.0725 10.1848 13.2915 11.4038C14.5105 12.6228 15.1953 14.2761 15.1953 16" stroke="#131313" stroke-width="1.125" stroke-linecap="round" stroke-linejoin="round"/>
</g>
<defs>
<clipPath id="clip0_595_11113">
<rect width="16" height="16" fill="white" transform="translate(0.695312 0.5)"/>
</clipPath>
</defs>
</svg>
